<svg xmlns="http://www.w3.org/2000/svg" viewBox="0 0 48 48">
  <path d="M7.16 32.832c.863 1.098 1.953 1.938 3.063 2.762 1.629 1.203 3.418 2.113 5.308 2.82.32.121.406.203.16.508-.472.578-.906 1.195-1.351 1.797-.117.164-.246.265-.465.246-5.21-.473-9.824-2.258-13.504-6.125-.27-.281-.394-.535-.367-.973.277-4.316.953-8.562 2.082-12.734.941-3.485 2.195-6.84 3.941-10.012.535-.973 1.418-1.45 2.282-1.976 2.332-1.418 4.832-2.434 7.52-2.946a12.73 12.73 0 0 1 1.01-.148c.579-.063.958.25 1.048.836.047.297-.219.226-.336.254-1.192.293-2.36.664-3.492 1.144-2.215.938-4.192 2.246-5.973 3.914 10.59-5.46 21.16-5.48 31.723.031.066-.238-.153-.289-.262-.39-2.5-2.274-5.445-3.711-8.692-4.567-.015-.003-.03-.003-.046-.007-.813-.207-.895-.496-.356-1.16.133-.16.262-.094.414-.083 2.063.16 4 .782 5.88 1.61 1.187.523 2.308 1.168 3.429 1.824.984.574 1.636 1.375 2.152 2.371 1.793 3.477 3.055 7.137 3.965 10.93a65.288 65.288 0 0 1 1.555 9.672c.05.578.02 1.164.14 1.73.063.278-.148.403-.289.559-2.691 2.937-6.058 4.695-9.879 5.656-1.226.305-2.472.46-3.722.59-.246.023-.371-.106-.5-.281-.43-.59-.856-1.192-1.32-1.758-.235-.29-.192-.383.148-.512 2.234-.832 4.308-1.957 6.168-3.465.789-.644 1.586-1.289 2.207-2.113.043-.031.144-.035.094-.11-.04-.058-.11-.015-.149.044-1.105.671-2.176 1.39-3.336 1.972-2.875 1.438-5.918 2.297-9.101 2.672-1.625.188-3.254.313-4.887.273-4.79-.113-9.39-1.003-13.629-3.355-.875-.488-1.715-1.039-2.57-1.562a2.344 2.344 0 0 1-.118-.09c-.035-.024-.07-.051-.105-.07-.004-.005-.031.03-.047.046.043.02.082.035.121.055l.086.121Zm20.09-7.16c-.02.715.168 1.387.45 2.031 1.093 2.512 4.116 3.102 5.964 1.168 1.793-1.875 1.598-5.172-.402-6.808a3.465 3.465 0 0 0-4.38.015c-1.128.934-1.589 2.168-1.632 3.594Zm-10.336-4.379c-.695-.031-1.316.172-1.887.543-2.293 1.48-2.64 5.086-.687 7.078 1.445 1.473 3.598 1.484 5.055.027 1.363-1.367 1.722-3.613.832-5.398-.68-1.367-1.739-2.195-3.313-2.25Zm0 0"/>
</svg>
