<svg xmlns="http://www.w3.org/2000/svg" viewBox="0 0 48 48">
  <path d="M29.059 35.574c.597-.144 1.222-.277 1.84-.445 2.449-.672 4.699-1.742 6.542-3.582 1.868-1.871 2.891-4.164 3.106-6.828.207-2.5-.121-4.922-1.211-7.196a11.407 11.407 0 0 0-.816-1.402c-.293-.437-.633-.84-.938-1.238.832-2.145.93-4.293-.027-6.403-.508-1.113-.332-.937-1.473-.82-2.36.242-4.344 1.32-6.016 3.031a.385.385 0 0 1-.328.082c-2.222-.718-4.511-.875-6.82-.777-1.605.066-3.184.3-4.715.84-.082.027-.238-.043-.312-.117-1.442-1.504-3.149-2.516-5.172-2.934-.496-.105-1.012-.117-1.516-.183-.21-.024-.328.066-.437.238-.73 1.144-.989 2.414-.977 3.754.016 1.176.191 2.316.816 3.351-.046.059-.093.125-.148.184-1.773 1.96-2.73 4.293-2.988 6.945-.2 2.09-.02 4.125.797 6.07 1.039 2.477 2.82 4.231 5.097 5.497 1.668.925 3.457 1.496 5.313 1.859.105.02.21.047.34.074-.477.996-.52 2.04-.559 3.09 0 .098-.074.242-.152.277-2.176.989-5.508.059-6.895-1.914-.117-.168-.219-.347-.332-.515-.828-1.246-1.93-2.07-3.414-2.27a2.62 2.62 0 0 0-.918.07c-.441.106-.512.383-.21.743.124.144.257.293.417.394 1.176.793 1.906 1.95 2.457 3.235.352.82.77 1.578 1.395 2.207 1.37 1.379 3.043 2.023 4.933 2.05.895.012 1.79-.113 2.711-.18-.004-.027.012.012.012.048 0 1.078.02 2.16-.008 3.238-.015.723-.36 1.297-.941 1.7-.407.28-.844.323-1.317.155C8.165 45.07 2.16 38.04.473 29.477-1.81 17.895 4.332 6.203 15.012 1.793c12.375-5.11 26.394 1.07 31.312 13.805 4.094 10.593.485 22.765-8.672 29.261a24.093 24.093 0 0 1-5.812 3.032c-.664.242-1.219.07-1.695-.43-.422-.445-.614-.992-.61-1.621.004-2.27.012-4.543-.004-6.817a23.91 23.91 0 0 0-.148-2.363c-.043-.367-.211-.719-.324-1.086Zm0 0"/>
</svg>
