<svg xmlns="http://www.w3.org/2000/svg" viewBox="0 0 48 48">
  <path d="M41.52 18.086a4.98 4.98 0 0 0-3.551 1.492c-3.348-2.316-7.86-3.808-12.856-3.969L27.711 3.91l8.27 1.856a3.68 3.68 0 0 0 3.675 3.675c2.063 0 3.719-1.695 3.719-3.722A3.728 3.728 0 0 0 39.656 2c-1.445 0-2.691.871-3.312 2.063l-9.13-2.028c-.46-.12-.91.207-1.03.668l-2.852 12.899c-4.957.207-9.422 1.695-12.777 4.011a4.993 4.993 0 0 0-3.602-1.527c-5.21 0-6.918 6.992-2.144 9.383a10.574 10.574 0 0 0-.247 2.316c0 7.856 8.852 14.223 19.72 14.223 10.91 0 19.761-6.367 19.761-14.223 0-.785-.086-1.613-.293-2.351 4.68-2.403 2.953-9.348-2.23-9.348Zm-29.145 9.883a3.706 3.706 0 0 1 3.719-3.723c2.027 0 3.676 1.649 3.676 3.723a3.678 3.678 0 0 1-3.676 3.672c-2.063.011-3.719-1.649-3.719-3.672Zm20.09 8.765c-3.414 3.41-13.043 3.41-16.453 0-.375-.328-.375-.91 0-1.285a.902.902 0 0 1 1.238 0c2.605 2.672 11.25 2.719 13.969 0a.897.897 0 0 1 1.234 0c.387.375.387.957.012 1.285Zm-.074-5.082a3.682 3.682 0 0 1-3.676-3.675c0-2.063 1.648-3.723 3.676-3.723a3.706 3.706 0 0 1 3.718 3.723c-.007 2.015-1.656 3.675-3.718 3.675Zm0 0"/>
</svg>
