<svg xmlns="http://www.w3.org/2000/svg" viewBox="0 0 48 48">
  <path d="M42.691 14.664c.032.383.032.762.032 1.145 0 11.597-9.356 24.964-26.45 24.964-5.265 0-10.156-1.441-14.273-3.941.75.082 1.469.11 2.246.11 4.344 0 8.344-1.387 11.54-3.75-4.087-.079-7.513-2.606-8.692-6.083a12.91 12.91 0 0 0 1.754.133c.836 0 1.672-.105 2.449-.297-4.262-.816-7.457-4.347-7.457-8.613v-.105a9.858 9.858 0 0 0 4.203 1.113c-2.504-1.578-4.145-4.266-4.145-7.309a8.36 8.36 0 0 1 1.266-4.43c4.578 5.325 11.457 8.805 19.168 9.184a9.343 9.343 0 0 1-.23-2.012C24.102 9.938 28.246 6 33.398 6c2.676 0 5.094 1.059 6.79 2.77a18.983 18.983 0 0 0 5.902-2.118c-.692 2.04-2.16 3.75-4.086 4.836a19.553 19.553 0 0 0 5.351-1.36 19.283 19.283 0 0 1-4.664 4.536Zm0 0"/>
</svg>
