<svg width="862" height="200" viewBox="0 0 862 200" fill="none" xmlns="http://www.w3.org/2000/svg">
<g clip-path="url(#clip0_291_2996)">
<rect width="862" height="200" fill="#40A1AC"/>
<path d="M0 0H862V200H0V0Z" fill="#111F3B"/>
<path fill-rule="evenodd" clip-rule="evenodd" d="M861 1H1V199H861V1ZM0 0V200H862V0H0Z" fill="#293856"/>
<path d="M498.005 100C499.659 100 501.007 98.6582 500.936 97.0056C500.244 80.8297 493.96 65.3574 483.108 53.259C471.588 40.4159 455.731 32.2797 438.579 30.4117C421.428 28.5437 404.191 33.0755 390.176 43.1375C376.161 53.1995 366.355 68.0827 362.641 84.9311C358.927 101.779 361.566 119.406 370.052 134.428C378.537 149.45 392.271 160.809 408.618 166.325C424.965 171.842 442.774 171.127 458.626 164.318C473.56 157.904 485.766 146.507 493.195 132.121C493.954 130.652 493.295 128.868 491.795 128.172C490.294 127.477 488.52 128.133 487.755 129.6C480.95 142.647 469.839 152.982 456.262 158.814C441.767 165.04 425.482 165.694 410.534 160.65C395.585 155.605 383.027 145.218 375.267 131.482C367.508 117.745 365.095 101.627 368.491 86.2206C371.887 70.8141 380.854 57.2044 393.669 48.0035C406.485 38.8026 422.247 34.6586 437.931 36.3667C453.614 38.0749 468.115 45.5149 478.649 57.2589C488.515 68.2581 494.252 82.307 494.94 97.0059C495.017 98.6583 496.351 100 498.005 100Z" fill="#D7E1F4"/>
<path d="M446.668 271.584C447.054 275.82 450.806 278.958 455.021 278.39C496.282 272.835 534.434 253.127 562.878 222.508C593.072 190.004 610.199 147.494 610.972 103.136C611.745 58.7787 596.11 15.698 567.066 -17.8382C538.022 -51.3744 497.617 -73.0035 453.604 -78.5747C409.59 -84.1459 365.07 -73.2667 328.586 -48.0248C292.103 -22.783 266.226 15.0431 255.922 58.1945C245.618 101.346 251.613 146.782 272.756 185.785C292.674 222.525 324.712 251.118 363.287 266.778C367.228 268.378 371.643 266.275 373.073 262.269C374.503 258.263 372.407 253.873 368.472 252.257C333.47 237.884 304.406 211.846 286.298 178.444C266.964 142.779 261.482 101.231 270.904 61.772C280.327 22.3133 303.989 -12.2758 337.35 -35.3575C370.712 -58.4393 411.423 -68.3875 451.669 -63.2931C491.916 -58.1987 528.864 -38.4205 555.422 -7.75415C581.98 22.9122 596.278 62.3063 595.571 102.868C594.864 143.43 579.203 182.302 551.592 212.024C525.733 239.862 491.098 257.836 453.618 263.035C449.405 263.619 446.281 267.348 446.668 271.584Z" fill="#0FC1B7"/>
<path opacity="0.5" d="M455.102 366.317C455.604 371.817 460.475 375.887 465.953 375.187C530.316 366.965 589.89 336.434 634.194 288.741C680.771 238.601 707.191 173.026 708.384 104.601C709.576 36.1756 685.457 -30.2797 640.655 -82.0119C595.853 -133.744 533.524 -167.109 465.631 -175.703C397.737 -184.297 329.061 -167.515 272.782 -128.577C216.503 -89.6396 176.586 -31.2899 160.692 35.2743C144.797 101.839 154.045 171.928 186.66 232.092C217.683 289.32 267.771 333.733 328.055 357.732C333.186 359.775 338.917 357.047 340.774 351.846L342.038 348.304C343.895 343.102 341.174 337.399 336.05 335.339C281.279 313.32 235.781 272.847 207.549 220.768C177.725 165.752 169.269 101.661 183.803 40.793C198.337 -20.075 234.838 -73.4314 286.301 -109.037C337.764 -144.642 400.563 -159.988 462.647 -152.129C524.731 -144.271 581.725 -113.762 622.693 -66.4564C663.661 -19.1513 685.716 41.6171 684.626 104.187C683.536 166.757 659.377 226.72 616.785 272.569C576.467 315.971 522.32 343.831 463.79 351.508C458.314 352.226 454.258 357.072 454.76 362.572L455.102 366.317Z" fill="#0FC1B7"/>
<g style="mix-blend-mode:screen" filter="url(#filter0_d_291_2996)">
<path d="M408 103.541L442.034 54L437.172 92.8073H455L421.776 144L426.638 103.541H408Z" fill="#0FC1B7"/>
</g>
<path fill-rule="evenodd" clip-rule="evenodd" d="M621.997 101.508L620.997 101.503C620.999 101.169 621 100.834 621 100.5C621 100.166 620.999 99.8313 620.997 99.4972L621.997 99.492C621.999 99.8278 622 100.164 622 100.5C622 100.836 621.999 101.172 621.997 101.508ZM621.977 97.4798L620.977 97.4952C620.966 96.8288 620.953 96.1631 620.936 95.4983L621.935 95.4725C621.953 96.1408 621.966 96.8098 621.977 97.4798ZM621.873 93.4704L620.874 93.5065C620.85 92.8434 620.823 92.1812 620.792 91.5198L621.791 91.4735C621.822 92.1382 621.849 92.8039 621.873 93.4704ZM621.688 89.4694L620.689 89.5261C620.651 88.8595 620.61 88.1938 620.565 87.5291L621.563 87.462C621.608 88.1302 621.65 88.7993 621.688 89.4694ZM621.418 85.4602L620.421 85.5377C620.37 84.8748 620.315 84.2129 620.256 83.552L621.253 83.4642C621.311 84.1286 621.366 84.7939 621.418 85.4602ZM621.067 81.474L620.072 81.5722C620.006 80.9087 619.937 80.2462 619.865 79.5847L620.859 79.4761C620.932 80.1411 621.001 80.807 621.067 81.474ZM620.63 77.4791L619.638 77.598C619.558 76.9369 619.476 76.2767 619.39 75.6177L620.381 75.4883C620.468 76.1508 620.551 76.8144 620.63 77.4791ZM620.112 73.504L619.122 73.6437C619.029 72.9867 618.933 72.3309 618.834 71.6761L619.822 71.5261C619.922 72.1843 620.019 72.8436 620.112 73.504ZM619.51 69.5397L618.523 69.7002C618.416 69.0421 618.306 68.3852 618.192 67.7294L619.177 67.5585C619.292 68.2178 619.403 68.8782 619.51 69.5397ZM618.824 65.5843L617.841 65.7655C617.721 65.112 617.597 64.4598 617.47 63.8087L618.451 63.6172C618.579 64.2717 618.703 64.9274 618.824 65.5843ZM618.058 61.6553L617.078 61.8571C616.944 61.2035 616.806 60.5512 616.664 59.9001L617.642 59.688C617.784 60.3425 617.923 60.9983 618.058 61.6553ZM617.205 57.7281L616.231 57.9505C616.083 57.302 615.931 56.6546 615.777 56.0086L616.749 55.7759C616.905 56.4254 617.057 57.0761 617.205 57.7281ZM616.273 53.8314L615.303 54.0743C615.142 53.4292 614.977 52.7854 614.809 52.1429L615.776 51.8898C615.945 52.5357 616.111 53.1829 616.273 53.8314ZM615.257 49.9485L614.293 50.2118C614.117 49.5695 613.939 48.9285 613.757 48.2888L614.719 48.0153C614.901 48.6583 615.081 49.3027 615.257 49.9485ZM614.16 46.0904L613.201 46.3741C613.013 45.7372 612.821 45.1017 612.626 44.4677L613.582 44.174C613.778 44.8114 613.971 45.4502 614.16 46.0904ZM612.983 42.2587L612.03 42.5625C611.827 41.9277 611.622 41.2943 611.413 40.6625L612.362 40.3486C612.572 40.9838 612.779 41.6205 612.983 42.2587ZM611.723 38.4473L610.777 38.7712C610.561 38.1423 610.343 37.5148 610.121 36.8889L611.064 36.555C611.287 37.1843 611.506 37.8151 611.723 38.4473ZM610.386 34.6718L609.447 35.0155C609.217 34.3896 608.985 33.7652 608.75 33.1424L609.685 32.7887C609.922 33.4149 610.155 34.0426 610.386 34.6718ZM608.965 30.915L608.034 31.2785C607.792 30.6588 607.547 30.0406 607.299 29.424L608.227 29.0507C608.476 29.6706 608.722 30.292 608.965 30.915ZM607.469 27.1961L606.545 27.5792C606.29 26.965 606.033 26.3524 605.772 25.7415L606.691 25.3488C606.954 25.9629 607.213 26.5787 607.469 27.1961ZM605.893 23.5062L604.977 23.9086C604.71 23.2993 604.439 22.6917 604.165 22.0858L605.076 21.6737C605.351 22.2828 605.624 22.8937 605.893 23.5062ZM604.24 19.8514L603.333 20.2731C603.053 19.6705 602.77 19.0697 602.484 18.4706L603.386 18.0395C603.674 18.6417 603.958 19.2457 604.24 19.8514ZM602.511 16.2336L601.614 16.6742C601.32 16.0765 601.024 15.4806 600.725 14.8865L601.618 14.4364C601.919 15.0337 602.217 15.6328 602.511 16.2336ZM600.706 12.65L599.817 13.1094C599.512 12.5189 599.203 11.9301 598.892 11.3432L599.775 10.8745C600.088 11.4645 600.398 12.0564 600.706 12.65ZM598.827 9.1096L597.949 9.58753C597.63 9.00259 597.309 8.41949 596.985 7.83828L597.858 7.35116C598.184 7.93543 598.507 8.52158 598.827 9.1096ZM596.872 5.604L596.004 6.10027C595.674 5.52282 595.341 4.94727 595.005 4.37362L595.868 3.86829C596.205 4.44494 596.54 5.02352 596.872 5.604ZM594.846 2.1441L593.988 2.65845C593.646 2.08807 593.301 1.51962 592.953 0.953125L593.805 0.429825C594.155 0.99929 594.502 1.57072 594.846 2.1441ZM592.746 -1.27479L591.9 -0.742599C591.545 -1.30586 591.189 -1.86714 590.829 -2.42641L591.67 -2.96744C592.031 -2.40523 592.39 -1.84101 592.746 -1.27479ZM590.576 -4.64799L589.741 -4.0982C589.375 -4.65345 589.007 -5.20667 588.636 -5.75784L589.466 -6.31633C589.839 -5.76227 590.209 -5.20615 590.576 -4.64799ZM588.336 -7.97485L587.513 -7.40771C587.135 -7.95575 586.755 -8.50172 586.372 -9.04559L587.19 -9.62128C587.575 -9.07457 587.957 -8.52575 588.336 -7.97485ZM586.027 -11.2551L585.215 -10.6709C584.827 -11.2106 584.435 -11.7481 584.041 -12.2835L584.847 -12.8762C585.243 -12.338 585.636 -11.7976 586.027 -11.2551ZM583.65 -14.4849L582.851 -13.8839C582.451 -14.4157 582.048 -14.9454 581.643 -15.4728L582.436 -16.0822C582.843 -15.5519 583.248 -15.0195 583.65 -14.4849ZM581.205 -17.6663L580.419 -17.0487C580.008 -17.5718 579.595 -18.0927 579.179 -18.6113L579.959 -19.2371C580.377 -18.7157 580.793 -18.1921 581.205 -17.6663ZM578.696 -20.7945L577.923 -20.1606C577.501 -20.6751 577.077 -21.1874 576.65 -21.6974L577.417 -22.3392C577.846 -21.8266 578.272 -21.3117 578.696 -20.7945ZM576.121 -23.8707L575.361 -23.2209C574.929 -23.7265 574.494 -24.2298 574.057 -24.7307L574.81 -25.3884C575.25 -24.8848 575.687 -24.3789 576.121 -23.8707ZM573.483 -26.8922L572.737 -26.2267C572.294 -26.723 571.849 -27.217 571.402 -27.7087L572.141 -28.3819C572.591 -27.8877 573.039 -27.3911 573.483 -26.8922ZM570.783 -29.8581L570.051 -29.1772C569.598 -29.6643 569.142 -30.149 568.685 -30.6314L569.41 -31.3199C569.87 -30.835 570.328 -30.3477 570.783 -29.8581ZM568.021 -32.7673L567.303 -32.0713C566.841 -32.5488 566.375 -33.0239 565.907 -33.4966L566.618 -34.2001C567.088 -33.7249 567.556 -33.2473 568.021 -32.7673ZM565.2 -35.6182L564.497 -34.9074C564.024 -35.3752 563.549 -35.8405 563.071 -36.3034L563.767 -37.0214C564.247 -36.5562 564.725 -36.0884 565.2 -35.6182ZM562.32 -38.4098L561.631 -37.6845C561.149 -38.1424 560.664 -38.5978 560.177 -39.0507L560.858 -39.7831C561.348 -39.3278 561.835 -38.8701 562.32 -38.4098ZM559.382 -41.1411L558.709 -40.4017C558.217 -40.8493 557.723 -41.2944 557.227 -41.7369L557.892 -42.4833C558.391 -42.0385 558.888 -41.5911 559.382 -41.1411ZM556.388 -43.8101L555.731 -43.0568C555.23 -43.4942 554.726 -43.929 554.221 -44.3612L554.871 -45.1213C555.379 -44.6868 555.885 -44.2498 556.388 -43.8101ZM553.339 -46.4168L552.697 -45.65C552.187 -46.0768 551.675 -46.5011 551.161 -46.9226L551.794 -47.6961C552.312 -47.2723 552.827 -46.8459 553.339 -46.4168ZM550.237 -48.9588L549.611 -48.1788C549.093 -48.5948 548.572 -49.0082 548.049 -49.419L548.666 -50.2055C549.192 -49.7926 549.716 -49.3771 550.237 -48.9588ZM547.082 -51.436L546.473 -50.6431C545.945 -51.0484 545.416 -51.4511 544.884 -51.851L545.485 -52.6502C546.02 -52.2482 546.552 -51.8435 547.082 -51.436ZM543.876 -53.8469L543.284 -53.0414C542.748 -53.4354 542.211 -53.8266 541.671 -54.2151L542.255 -55.0267C542.798 -54.6362 543.338 -54.2429 543.876 -53.8469ZM540.621 -56.1898L540.046 -55.3722C539.502 -55.7551 538.956 -56.1353 538.408 -56.5126L538.975 -57.3363C539.526 -56.9569 540.075 -56.5748 540.621 -56.1898ZM537.316 -58.4655L536.758 -57.636C536.207 -58.0071 535.653 -58.3754 535.098 -58.7409L535.648 -59.5762C536.206 -59.2088 536.762 -58.8386 537.316 -58.4655ZM533.967 -60.6697L533.426 -59.8287C532.867 -60.1885 532.306 -60.5455 531.743 -60.8995L532.275 -61.7461C532.841 -61.3902 533.405 -61.0314 533.967 -60.6697ZM530.57 -62.8053L530.047 -61.9531C529.48 -62.301 528.912 -62.646 528.342 -62.9881L528.856 -63.8457C529.429 -63.5018 530.001 -63.155 530.57 -62.8053ZM527.132 -64.8675L526.626 -64.0046C526.053 -64.3405 525.477 -64.6735 524.9 -65.0036L525.396 -65.8718C525.976 -65.54 526.555 -65.2052 527.132 -64.8675ZM523.649 -66.8584C523.065 -67.1843 522.478 -67.5072 521.89 -67.8271L521.412 -66.9487C521.997 -66.6305 522.581 -66.3092 523.162 -65.985L523.649 -66.8584ZM520.126 -68.7754L519.657 -67.892C519.07 -68.2034 518.481 -68.5119 517.891 -68.8173L518.35 -69.7055C518.944 -69.3985 519.535 -69.0884 520.126 -68.7754ZM516.564 -70.6176L516.114 -69.7246C515.519 -70.024 514.923 -70.3204 514.326 -70.6137L514.766 -71.5114C515.367 -71.2165 515.966 -70.9186 516.564 -70.6176ZM512.961 -72.386L512.529 -71.4837C511.93 -71.77 511.329 -72.0532 510.727 -72.3333L511.149 -73.2401C511.754 -72.9585 512.358 -72.6738 512.961 -72.386ZM509.326 -74.0758L508.914 -73.1647C508.308 -73.4387 507.701 -73.7096 507.091 -73.9775L507.494 -74.8929C508.106 -74.6237 508.717 -74.3513 509.326 -74.0758ZM505.651 -75.6914L505.258 -74.7717C504.648 -75.0326 504.035 -75.2905 503.421 -75.5452L503.804 -76.4689C504.421 -76.2128 505.037 -75.9537 505.651 -75.6914ZM501.949 -77.2265L501.576 -76.2988C500.959 -76.5469 500.341 -76.7919 499.722 -77.0337L500.085 -77.9653C500.708 -77.7222 501.329 -77.4759 501.949 -77.2265ZM498.211 -78.6851L497.858 -77.7497C497.235 -77.9852 496.61 -78.2175 495.984 -78.4466L496.328 -79.3857C496.957 -79.1553 497.585 -78.9218 498.211 -78.6851ZM494.445 -80.0638L494.111 -79.1212C493.485 -79.3428 492.858 -79.5613 492.229 -79.7766L492.553 -80.7227C493.185 -80.5063 493.816 -80.2866 494.445 -80.0638ZM490.651 -81.3624L490.338 -80.4129C489.706 -80.6218 489.072 -80.8275 488.438 -81.0299L488.741 -81.9826C489.38 -81.7791 490.016 -81.5724 490.651 -81.3624ZM486.826 -82.5823L486.532 -81.6264C485.898 -81.8212 485.263 -82.0128 484.626 -82.2012L484.91 -83.1602C485.55 -82.9708 486.189 -82.7781 486.826 -82.5823ZM482.985 -83.7185L482.711 -82.7566C482.072 -82.9385 481.431 -83.1171 480.788 -83.2925L481.052 -84.2572C481.697 -84.0809 482.342 -83.9014 482.985 -83.7185ZM479.11 -84.7761L478.857 -83.8087C478.215 -83.9768 477.571 -84.1416 476.926 -84.3032L477.169 -85.2732C477.817 -85.1108 478.464 -84.9451 479.11 -84.7761ZM475.224 -85.7493L474.991 -84.7767C474.345 -84.9313 473.698 -85.0826 473.049 -85.2305L473.272 -86.2055C473.924 -86.0567 474.575 -85.9047 475.224 -85.7493ZM471.312 -86.6417C470.658 -86.7838 470.002 -86.9225 469.345 -87.0579L469.143 -86.0785C469.796 -85.9438 470.449 -85.8058 471.1 -85.6645L471.312 -86.6417ZM467.383 -87.4514L467.191 -86.4699C466.54 -86.5969 465.888 -86.7206 465.235 -86.841L465.416 -87.8245C466.073 -87.7035 466.728 -87.5791 467.383 -87.4514ZM463.441 -88.1774L463.271 -87.1921C462.615 -87.3058 461.958 -87.4162 461.3 -87.5232L461.46 -88.5102C462.122 -88.4027 462.782 -88.2917 463.441 -88.1774ZM459.474 -88.8224L459.324 -87.8337C458.669 -87.9331 458.013 -88.0291 457.356 -88.1218L457.496 -89.112C458.156 -89.0188 458.816 -88.9223 459.474 -88.8224ZM455.512 -89.3814L455.382 -88.3898C454.723 -88.4758 454.063 -88.5584 453.402 -88.6376L453.521 -89.6305C454.186 -89.5508 454.849 -89.4678 455.512 -89.3814ZM451.524 -89.8591L451.415 -88.865C450.754 -88.9373 450.091 -89.0061 449.428 -89.0716L449.526 -90.0667C450.193 -90.001 450.859 -89.9317 451.524 -89.8591ZM447.536 -90.2526L447.448 -89.2565C446.787 -89.3147 446.125 -89.3696 445.462 -89.4211L445.54 -90.4181C446.206 -90.3663 446.871 -90.3112 447.536 -90.2526ZM443.538 -90.5631L443.471 -89.5654C442.806 -89.6101 442.141 -89.6514 441.474 -89.6892L441.531 -90.6876C442.201 -90.6496 442.87 -90.6081 443.538 -90.5631ZM439.527 -90.791L439.48 -89.7921C438.819 -89.8228 438.157 -89.8501 437.494 -89.874L437.53 -90.8734C438.196 -90.8493 438.862 -90.8219 439.527 -90.791ZM435.527 -90.9353L435.502 -89.9356C434.837 -89.9528 434.171 -89.9665 433.505 -89.9768L433.52 -90.9767C434.19 -90.9663 434.859 -90.9525 435.527 -90.9353ZM431.508 -90.9974L431.503 -89.9974C431.169 -89.9991 430.834 -90 430.5 -90C430.166 -90 429.831 -89.9991 429.497 -89.9974L429.492 -90.9974C429.828 -90.9991 430.164 -91 430.5 -91C430.836 -91 431.172 -90.9991 431.508 -90.9974ZM427.48 -90.9767L427.495 -89.9768C426.829 -89.9665 426.163 -89.9528 425.498 -89.9356L425.473 -90.9353C426.141 -90.9525 426.81 -90.9663 427.48 -90.9767ZM423.47 -90.8734L423.506 -89.874C422.843 -89.8501 422.181 -89.8228 421.52 -89.7921L421.473 -90.791C422.138 -90.8219 422.804 -90.8493 423.47 -90.8734ZM419.469 -90.6876L419.526 -89.6892C418.859 -89.6514 418.194 -89.6101 417.529 -89.5654L417.462 -90.5631C418.13 -90.6081 418.799 -90.6496 419.469 -90.6876ZM415.46 -90.4181L415.538 -89.4211C414.875 -89.3696 414.213 -89.3147 413.552 -89.2565L413.464 -90.2526C414.129 -90.3112 414.794 -90.3663 415.46 -90.4181ZM411.474 -90.0667L411.572 -89.0716C410.909 -89.0061 410.246 -88.9373 409.585 -88.865L409.476 -89.8591C410.141 -89.9317 410.807 -90.001 411.474 -90.0667ZM407.479 -89.6305L407.598 -88.6376C406.937 -88.5584 406.277 -88.4758 405.618 -88.3898L405.488 -89.3814C406.151 -89.4678 406.814 -89.5508 407.479 -89.6305ZM403.504 -89.112C402.844 -89.0188 402.184 -88.9223 401.526 -88.8224L401.676 -87.8337C402.331 -87.9331 402.987 -88.0291 403.644 -88.1218L403.504 -89.112ZM399.54 -88.5102L399.7 -87.5232C399.042 -87.4162 398.385 -87.3058 397.729 -87.1921L397.559 -88.1774C398.218 -88.2917 398.878 -88.4027 399.54 -88.5102ZM395.584 -87.8245L395.766 -86.841C395.112 -86.7206 394.46 -86.5969 393.809 -86.4699L393.617 -87.4514C394.272 -87.5791 394.927 -87.7035 395.584 -87.8245ZM391.655 -87.0579L391.857 -86.0785C391.204 -85.9438 390.551 -85.8058 389.9 -85.6645L389.688 -86.6417C390.342 -86.7838 390.998 -86.9225 391.655 -87.0579ZM387.728 -86.2055L387.951 -85.2305C387.302 -85.0826 386.655 -84.9313 386.009 -84.7767L385.776 -85.7493C386.425 -85.9047 387.076 -86.0567 387.728 -86.2055ZM383.831 -85.2732L384.074 -84.3032C383.429 -84.1416 382.785 -83.9768 382.143 -83.8087L381.89 -84.7761C382.536 -84.9451 383.183 -85.1108 383.831 -85.2732ZM379.948 -84.2572L380.212 -83.2925C379.569 -83.1171 378.928 -82.9385 378.289 -82.7566L378.015 -83.7185C378.658 -83.9014 379.303 -84.0809 379.948 -84.2572ZM376.09 -83.1602L376.374 -82.2012C375.737 -82.0129 375.102 -81.8212 374.468 -81.6264L374.174 -82.5823C374.811 -82.7781 375.45 -82.9708 376.09 -83.1602ZM372.259 -81.9826L372.562 -81.0299C371.928 -80.8275 371.294 -80.6218 370.662 -80.4129L370.349 -81.3624C370.984 -81.5724 371.621 -81.7791 372.259 -81.9826ZM368.447 -80.7227L368.771 -79.7766C368.142 -79.5613 367.515 -79.3428 366.889 -79.1212L366.555 -80.0638C367.184 -80.2866 367.815 -80.5063 368.447 -80.7227ZM364.672 -79.3857L365.016 -78.4466C364.39 -78.2175 363.765 -77.9852 363.142 -77.7497L362.789 -78.6851C363.415 -78.9218 364.043 -79.1553 364.672 -79.3857ZM360.915 -77.9653L361.278 -77.0337C360.659 -76.7919 360.041 -76.5469 359.424 -76.2988L359.051 -77.2265C359.671 -77.4759 360.292 -77.7222 360.915 -77.9653ZM357.196 -76.4689L357.579 -75.5452C356.965 -75.2905 356.352 -75.0326 355.742 -74.7717L355.349 -75.6914C355.963 -75.9537 356.579 -76.2128 357.196 -76.4689ZM353.506 -74.8929L353.909 -73.9775C353.299 -73.7096 352.692 -73.4387 352.086 -73.1647L351.674 -74.0758C352.283 -74.3513 352.894 -74.6237 353.506 -74.8929ZM349.851 -73.2401L350.273 -72.3334C349.671 -72.0532 349.07 -71.77 348.471 -71.4837L348.039 -72.386C348.642 -72.6738 349.246 -72.9585 349.851 -73.2401ZM346.234 -71.5114L346.674 -70.6137C346.077 -70.3204 345.481 -70.024 344.886 -69.7246L344.436 -70.6176C345.034 -70.9186 345.633 -71.2165 346.234 -71.5114ZM342.65 -69.7055L343.109 -68.8173C342.519 -68.5119 341.93 -68.2034 341.343 -67.892L340.874 -68.7754C341.465 -69.0884 342.056 -69.3985 342.65 -69.7055ZM339.11 -67.8271L339.588 -66.9487C339.003 -66.6305 338.419 -66.3092 337.838 -65.985L337.351 -66.8584C337.935 -67.1843 338.522 -67.5072 339.11 -67.8271ZM335.604 -65.8718L336.1 -65.0036C335.523 -64.6735 334.947 -64.3405 334.374 -64.0046L333.868 -64.8675C334.445 -65.2052 335.024 -65.54 335.604 -65.8718ZM332.144 -63.8457L332.658 -62.9881C332.088 -62.646 331.52 -62.301 330.953 -61.9531L330.43 -62.8053C330.999 -63.155 331.571 -63.5018 332.144 -63.8457ZM328.725 -61.7461L329.257 -60.8995C328.694 -60.5455 328.133 -60.1885 327.574 -59.8287L327.033 -60.6697C327.595 -61.0314 328.159 -61.3902 328.725 -61.7461ZM325.352 -59.5762L325.902 -58.7409C325.347 -58.3754 324.793 -58.0071 324.242 -57.636L323.684 -58.4655C324.238 -58.8386 324.794 -59.2088 325.352 -59.5762ZM322.025 -57.3363L322.592 -56.5126C322.044 -56.1353 321.498 -55.7551 320.954 -55.3722L320.379 -56.1898C320.925 -56.5748 321.474 -56.9569 322.025 -57.3363ZM318.745 -55.0267L319.329 -54.2151C318.789 -53.8266 318.252 -53.4354 317.716 -53.0414L317.124 -53.8469C317.662 -54.2429 318.202 -54.6362 318.745 -55.0267ZM315.515 -52.6502L316.116 -51.851C315.584 -51.4511 315.055 -51.0484 314.527 -50.6431L313.918 -51.436C314.448 -51.8435 314.981 -52.2482 315.515 -52.6502ZM312.334 -50.2055L312.951 -49.419C312.428 -49.0082 311.907 -48.5948 311.389 -48.1788L310.763 -48.9588C311.284 -49.3771 311.808 -49.7926 312.334 -50.2055ZM309.206 -47.6961L309.839 -46.9226C309.325 -46.501 308.813 -46.0768 308.303 -45.65L307.661 -46.4168C308.173 -46.8459 308.688 -47.2723 309.206 -47.6961ZM306.129 -45.1213L306.779 -44.3612C306.274 -43.929 305.77 -43.4942 305.269 -43.0568L304.612 -43.8101C305.115 -44.2498 305.621 -44.6868 306.129 -45.1213ZM303.108 -42.4833L303.773 -41.7369C303.277 -41.2944 302.783 -40.8493 302.291 -40.4017L301.618 -41.1411C302.112 -41.5911 302.609 -42.0385 303.108 -42.4833ZM300.142 -39.783L300.823 -39.0507C300.336 -38.5978 299.851 -38.1424 299.369 -37.6845L298.68 -38.4098C299.165 -38.8701 299.652 -39.3278 300.142 -39.783ZM297.233 -37.0214L297.929 -36.3034C297.451 -35.8405 296.976 -35.3752 296.503 -34.9074L295.8 -35.6182C296.275 -36.0884 296.753 -36.5562 297.233 -37.0214ZM294.382 -34.2001L295.093 -33.4966C294.625 -33.0239 294.159 -32.5488 293.697 -32.0713L292.979 -32.7672C293.444 -33.2473 293.912 -33.7249 294.382 -34.2001ZM291.59 -31.3199L292.315 -30.6314C291.858 -30.149 291.402 -29.6643 290.949 -29.1772L290.217 -29.8581C290.672 -30.3477 291.13 -30.835 291.59 -31.3199ZM288.859 -28.3819L289.598 -27.7087C289.151 -27.217 288.706 -26.723 288.263 -26.2267L287.517 -26.8922C287.962 -27.3911 288.409 -27.8877 288.859 -28.3819ZM286.19 -25.3884L286.943 -24.7307C286.506 -24.2298 286.071 -23.7265 285.639 -23.2209L284.879 -23.8707C285.313 -24.3789 285.75 -24.8848 286.19 -25.3884ZM283.583 -22.3392L284.35 -21.6974C283.923 -21.1874 283.499 -20.6751 283.077 -20.1606L282.304 -20.7945C282.728 -21.3116 283.154 -21.8266 283.583 -22.3392ZM281.041 -19.2371L281.821 -18.6113C281.405 -18.0927 280.992 -17.5718 280.581 -17.0487L279.795 -17.6663C280.207 -18.1921 280.623 -18.7157 281.041 -19.2371ZM278.564 -16.0822L279.357 -15.4728C278.952 -14.9454 278.549 -14.4157 278.149 -13.8839L277.35 -14.4849C277.752 -15.0195 278.157 -15.5519 278.564 -16.0822ZM276.153 -12.8762L276.959 -12.2835C276.565 -11.7481 276.173 -11.2106 275.785 -10.6709L274.973 -11.2551C275.364 -11.7976 275.757 -12.338 276.153 -12.8762ZM273.81 -9.62129L274.628 -9.04559C274.245 -8.50171 273.865 -7.95574 273.487 -7.40771L272.664 -7.97483C273.043 -8.52574 273.425 -9.07457 273.81 -9.62129ZM271.534 -6.31634C271.161 -5.76228 270.791 -5.20615 270.424 -4.64799L271.259 -4.09821C271.625 -4.65345 271.993 -5.20667 272.364 -5.75785L271.534 -6.31634ZM269.33 -2.96744L270.171 -2.42641C269.811 -1.86714 269.455 -1.30586 269.1 -0.742599L268.254 -1.27479C268.61 -1.841 268.969 -2.40523 269.33 -2.96744ZM267.195 0.429832L268.047 0.953125C267.699 1.51962 267.354 2.08806 267.012 2.65844L266.154 2.1441C266.498 1.57072 266.845 0.99929 267.195 0.429832ZM265.132 3.86829L265.995 4.37361C265.659 4.94726 265.326 5.52282 264.996 6.10027L264.128 5.60401C264.46 5.02353 264.795 4.44495 265.132 3.86829ZM263.142 7.35116C262.816 7.93543 262.493 8.52159 262.173 9.10961L263.051 9.58753C263.37 9.00259 263.691 8.41949 264.015 7.83828L263.142 7.35116ZM261.225 10.8745L262.108 11.3432C261.797 11.9301 261.488 12.5189 261.183 13.1094L260.294 12.65C260.602 12.0564 260.912 11.4645 261.225 10.8745ZM259.382 14.4364L260.275 14.8865C259.976 15.4806 259.68 16.0765 259.386 16.6742L258.489 16.2336C258.783 15.6328 259.081 15.0337 259.382 14.4364ZM257.614 18.0395L258.516 18.4706C258.23 19.0697 257.947 19.6705 257.667 20.273L256.76 19.8514C257.042 19.2457 257.326 18.6417 257.614 18.0395ZM255.924 21.6737L256.835 22.0858C256.561 22.6917 256.29 23.2993 256.023 23.9086L255.107 23.5062C255.376 22.8937 255.649 22.2828 255.924 21.6737ZM254.309 25.3487L255.228 25.7415C254.967 26.3524 254.71 26.965 254.455 27.5792L253.531 27.1961C253.787 26.5787 254.046 25.9629 254.309 25.3487ZM252.773 29.0507L253.701 29.424C253.453 30.0406 253.208 30.6588 252.966 31.2785L252.035 30.915C252.278 30.292 252.524 29.6706 252.773 29.0507ZM251.315 32.7887L252.25 33.1424C252.015 33.7652 251.783 34.3896 251.553 35.0155L250.614 34.6718C250.845 34.0426 251.078 33.4149 251.315 32.7887ZM249.936 36.555L250.879 36.8889C250.657 37.5148 250.439 38.1423 250.223 38.7712L249.277 38.4473C249.494 37.8151 249.713 37.1843 249.936 36.555ZM248.638 40.3486L249.587 40.6624C249.378 41.2943 249.173 41.9277 248.97 42.5625L248.017 42.2587C248.221 41.6205 248.428 40.9838 248.638 40.3486ZM247.418 44.174L248.374 44.4677C248.179 45.1017 247.987 45.7372 247.799 46.3741L246.84 46.0904C247.029 45.4502 247.222 44.8114 247.418 44.174ZM246.281 48.0153L247.243 48.2888C247.061 48.9285 246.883 49.5695 246.708 50.2118L245.743 49.9485C245.919 49.3027 246.099 48.6583 246.281 48.0153ZM245.224 51.8898L246.191 52.1429C246.023 52.7854 245.858 53.4292 245.697 54.0743L244.727 53.8314C244.889 53.1829 245.055 52.5357 245.224 51.8898ZM244.251 55.7759L245.223 56.0086C245.069 56.6546 244.917 57.302 244.769 57.9505L243.795 57.7281C243.943 57.0761 244.095 56.4254 244.251 55.7759ZM243.358 59.6879C243.216 60.3425 243.077 60.9983 242.942 61.6553L243.922 61.8571C244.056 61.2035 244.194 60.5512 244.336 59.9001L243.358 59.6879ZM242.549 63.6172L243.53 63.8086C243.403 64.4597 243.279 65.112 243.159 65.7655L242.176 65.5843C242.297 64.9274 242.421 64.2717 242.549 63.6172ZM241.823 67.5585L242.808 67.7294C242.694 68.3851 242.584 69.0421 242.477 69.7001L241.49 69.5397C241.597 68.8782 241.708 68.2178 241.823 67.5585ZM241.178 71.5261L242.166 71.6761C242.067 72.3309 241.971 72.9867 241.878 73.6437L240.888 73.504C240.981 72.8436 241.078 72.1843 241.178 71.5261ZM240.619 75.4883L241.61 75.6177C241.524 76.2767 241.442 76.9369 241.362 77.598L240.37 77.4791C240.449 76.8144 240.532 76.1508 240.619 75.4883ZM240.141 79.4761L241.135 79.5847C241.063 80.2461 240.994 80.9087 240.928 81.5722L239.933 81.474C239.999 80.807 240.068 80.1411 240.141 79.4761ZM239.747 83.4642L240.744 83.552C240.685 84.2129 240.63 84.8748 240.579 85.5377L239.582 85.4602C239.634 84.7939 239.689 84.1286 239.747 83.4642ZM239.437 87.462L240.435 87.5291C240.39 88.1938 240.349 88.8595 240.311 89.5261L239.312 89.4694C239.35 88.7993 239.392 88.1302 239.437 87.462ZM239.209 91.4734L240.208 91.5198C240.177 92.1811 240.15 92.8434 240.126 93.5064L239.127 93.4704C239.151 92.8039 239.178 92.1382 239.209 91.4734ZM239.065 95.4725L240.064 95.4983C240.047 96.1631 240.034 96.8287 240.023 97.4952L239.023 97.4798C239.034 96.8098 239.047 96.1407 239.065 95.4725ZM239.003 99.492C239.001 99.8278 239 100.164 239 100.5C239 100.836 239.001 101.172 239.003 101.508L240.003 101.503C240.001 101.169 240 100.834 240 100.5C240 100.166 240.001 99.8312 240.003 99.4972L239.003 99.492ZM239.023 103.52L240.023 103.505C240.034 104.171 240.047 104.837 240.064 105.502L239.065 105.527C239.047 104.859 239.034 104.19 239.023 103.52ZM239.127 107.53L240.126 107.494C240.15 108.157 240.177 108.819 240.208 109.48L239.209 109.527C239.178 108.862 239.151 108.196 239.127 107.53ZM239.312 111.531L240.311 111.474C240.349 112.141 240.39 112.806 240.435 113.471L239.437 113.538C239.392 112.87 239.35 112.201 239.312 111.531ZM239.582 115.54L240.579 115.462C240.63 116.125 240.685 116.787 240.744 117.448L239.747 117.536C239.689 116.871 239.634 116.206 239.582 115.54ZM239.933 119.526L240.928 119.428C240.994 120.091 241.063 120.754 241.135 121.415L240.141 121.524C240.068 120.859 239.999 120.193 239.933 119.526ZM240.37 123.521L241.362 123.402C241.442 124.063 241.524 124.723 241.61 125.382L240.619 125.512C240.532 124.849 240.449 124.186 240.37 123.521ZM240.888 127.496C240.981 128.156 241.078 128.816 241.178 129.474L242.166 129.324C242.067 128.669 241.971 128.013 241.878 127.356L240.888 127.496ZM241.49 131.46L242.477 131.3C242.584 131.958 242.694 132.615 242.808 133.271L241.823 133.441C241.708 132.782 241.597 132.122 241.49 131.46ZM242.176 135.416L243.159 135.234C243.279 135.888 243.403 136.54 243.53 137.191L242.549 137.383C242.421 136.728 242.297 136.073 242.176 135.416ZM242.942 139.345L243.922 139.143C244.056 139.796 244.194 140.449 244.336 141.1L243.358 141.312C243.216 140.658 243.077 140.002 242.942 139.345ZM243.795 143.272L244.769 143.049C244.917 143.698 245.069 144.345 245.223 144.991L244.251 145.224C244.095 144.575 243.943 143.924 243.795 143.272ZM244.727 147.169L245.697 146.926C245.858 147.571 246.023 148.215 246.191 148.857L245.224 149.11C245.055 148.464 244.889 147.817 244.727 147.169ZM245.743 151.052L246.708 150.788C246.883 151.431 247.061 152.072 247.243 152.711L246.281 152.985C246.099 152.342 245.919 151.697 245.743 151.052ZM246.84 154.91L247.799 154.626C247.987 155.263 248.179 155.898 248.374 156.532L247.418 156.826C247.222 156.189 247.029 155.55 246.84 154.91ZM248.017 158.741L248.97 158.438C249.173 159.072 249.378 159.706 249.587 160.338L248.638 160.651C248.428 160.016 248.221 159.379 248.017 158.741ZM249.277 162.553L250.223 162.229C250.439 162.858 250.657 163.485 250.879 164.111L249.936 164.445C249.713 163.816 249.494 163.185 249.277 162.553ZM250.614 166.328C250.845 166.957 251.078 167.585 251.315 168.211L252.25 167.858C252.015 167.235 251.783 166.61 251.553 165.984L250.614 166.328ZM252.035 170.085L252.966 169.722C253.208 170.341 253.453 170.959 253.701 171.576L252.773 171.949C252.524 171.329 252.278 170.708 252.035 170.085ZM253.531 173.804L254.455 173.421C254.71 174.035 254.967 174.648 255.228 175.258L254.309 175.651C254.046 175.037 253.787 174.421 253.531 173.804ZM255.107 177.494L256.023 177.091C256.29 177.701 256.561 178.308 256.835 178.914L255.924 179.326C255.649 178.717 255.376 178.106 255.107 177.494ZM256.76 181.149C257.042 181.754 257.326 182.358 257.614 182.961L258.516 182.529C258.23 181.93 257.947 181.329 257.667 180.727L256.76 181.149ZM258.489 184.766C258.783 185.367 259.081 185.966 259.382 186.564L260.275 186.114C259.976 185.519 259.68 184.923 259.386 184.326L258.489 184.766ZM260.294 188.35L261.183 187.891C261.488 188.481 261.797 189.07 262.108 189.657L261.225 190.126C260.912 189.535 260.602 188.944 260.294 188.35ZM262.173 191.89L263.051 191.412C263.37 191.997 263.691 192.581 264.015 193.162L263.142 193.649C262.816 193.065 262.493 192.478 262.173 191.89ZM264.128 195.396L264.996 194.9C265.326 195.477 265.659 196.053 265.995 196.626L265.132 197.132C264.795 196.555 264.46 195.976 264.128 195.396ZM266.154 198.856L267.012 198.342C267.354 198.912 267.699 199.48 268.047 200.047L267.195 200.57C266.845 200.001 266.498 199.429 266.154 198.856ZM268.254 202.275L269.1 201.743C269.455 202.306 269.811 202.867 270.171 203.426L269.33 203.967C268.969 203.405 268.61 202.841 268.254 202.275ZM270.424 205.648L271.259 205.098C271.625 205.653 271.993 206.207 272.364 206.758L271.534 207.316C271.161 206.762 270.791 206.206 270.424 205.648ZM272.664 208.975L273.487 208.408C273.865 208.956 274.245 209.502 274.628 210.046L273.81 210.621C273.425 210.075 273.043 209.526 272.664 208.975ZM274.973 212.255L275.785 211.671C276.173 212.211 276.565 212.748 276.959 213.284L276.153 213.876C275.757 213.338 275.364 212.798 274.973 212.255ZM277.35 215.485L278.149 214.884C278.549 215.416 278.952 215.945 279.357 216.473L278.564 217.082C278.157 216.552 277.752 216.02 277.35 215.485ZM279.795 218.666L280.581 218.049C280.992 218.572 281.405 219.093 281.821 219.611L281.041 220.237C280.623 219.716 280.207 219.192 279.795 218.666ZM282.304 221.794L283.077 221.161C283.499 221.675 283.923 222.187 284.35 222.697L283.583 223.339C283.154 222.827 282.728 222.312 282.304 221.794ZM284.879 224.871L285.639 224.221C286.071 224.726 286.506 225.23 286.943 225.731L286.19 226.388C285.75 225.885 285.313 225.379 284.879 224.871ZM287.517 227.892L288.263 227.227C288.706 227.723 289.151 228.217 289.598 228.709L288.859 229.382C288.409 228.888 287.961 228.391 287.517 227.892ZM290.217 230.858L290.949 230.177C291.402 230.664 291.858 231.149 292.315 231.631L291.59 232.32C291.13 231.835 290.672 231.348 290.217 230.858ZM292.979 233.767L293.697 233.071C294.159 233.549 294.625 234.024 295.093 234.497L294.382 235.2C293.912 234.725 293.444 234.247 292.979 233.767ZM295.8 236.618L296.503 235.907C296.976 236.375 297.451 236.841 297.929 237.303L297.233 238.021C296.753 237.556 296.275 237.088 295.8 236.618ZM298.68 239.41L299.369 238.685C299.851 239.142 300.336 239.598 300.823 240.051L300.142 240.783C299.652 240.328 299.165 239.87 298.68 239.41ZM301.618 242.141L302.291 241.402C302.783 241.849 303.277 242.294 303.773 242.737L303.108 243.483C302.609 243.038 302.112 242.591 301.618 242.141ZM304.612 244.81L305.269 244.057C305.77 244.494 306.274 244.929 306.779 245.361L306.129 246.121C305.621 245.687 305.115 245.25 304.612 244.81ZM307.661 247.417L308.303 246.65C308.813 247.077 309.325 247.501 309.839 247.923L309.206 248.696C308.688 248.272 308.173 247.846 307.661 247.417ZM310.763 249.959L311.389 249.179C311.907 249.595 312.428 250.008 312.951 250.419L312.334 251.205C311.808 250.793 311.284 250.377 310.763 249.959ZM313.918 252.436L314.527 251.643C315.055 252.048 315.584 252.451 316.116 252.851L315.515 253.65C314.981 253.248 314.448 252.843 313.918 252.436ZM317.124 254.847L317.716 254.041C318.252 254.435 318.789 254.827 319.329 255.215L318.745 256.027C318.202 255.636 317.662 255.243 317.124 254.847ZM320.379 257.19L320.954 256.372C321.498 256.755 322.044 257.135 322.592 257.513L322.025 258.336C321.474 257.957 320.925 257.575 320.379 257.19ZM323.684 259.466L324.242 258.636C324.793 259.007 325.347 259.375 325.902 259.741L325.352 260.576C324.794 260.209 324.238 259.839 323.684 259.466ZM327.033 261.67L327.574 260.829C328.133 261.189 328.694 261.545 329.257 261.9L328.725 262.746C328.159 262.39 327.595 262.031 327.033 261.67ZM330.43 263.805L330.953 262.953C331.52 263.301 332.088 263.646 332.658 263.988L332.144 264.846C331.571 264.502 330.999 264.155 330.43 263.805ZM333.868 265.868L334.374 265.005C334.947 265.341 335.523 265.674 336.1 266.004L335.604 266.872C335.024 266.54 334.445 266.205 333.868 265.868ZM337.351 267.858L337.838 266.985C338.419 267.309 339.003 267.63 339.588 267.949L339.11 268.827C338.522 268.507 337.935 268.184 337.351 267.858ZM340.874 269.775L341.343 268.892C341.93 269.203 342.519 269.512 343.109 269.817L342.65 270.706C342.056 270.398 341.465 270.088 340.874 269.775ZM344.436 271.618L344.886 270.725C345.481 271.024 346.077 271.32 346.674 271.614L346.234 272.511C345.633 272.217 345.034 271.919 344.436 271.618ZM348.039 273.386L348.471 272.484C349.07 272.77 349.671 273.053 350.273 273.333L349.851 274.24C349.246 273.958 348.642 273.674 348.039 273.386ZM351.674 275.076L352.086 274.165C352.692 274.439 353.299 274.71 353.909 274.977L353.506 275.893C352.894 275.624 352.283 275.351 351.674 275.076ZM355.349 276.691L355.742 275.772C356.352 276.033 356.965 276.29 357.579 276.545L357.196 277.469C356.579 277.213 355.963 276.954 355.349 276.691ZM359.051 278.227L359.424 277.299C360.041 277.547 360.659 277.792 361.278 278.034L360.915 278.965C360.292 278.722 359.671 278.476 359.051 278.227ZM362.789 279.685L363.142 278.75C363.765 278.985 364.39 279.217 365.016 279.447L364.672 280.386C364.043 280.155 363.415 279.922 362.789 279.685ZM366.555 281.064C367.184 281.287 367.815 281.506 368.447 281.723L368.771 280.777C368.142 280.561 367.515 280.343 366.889 280.121L366.555 281.064ZM370.349 282.362L370.662 281.413C371.294 281.622 371.928 281.827 372.562 282.03L372.259 282.983C371.621 282.779 370.984 282.572 370.349 282.362ZM374.174 283.582L374.468 282.626C375.102 282.821 375.737 283.013 376.374 283.201L376.09 284.16C375.45 283.971 374.811 283.778 374.174 283.582ZM378.015 284.719L378.289 283.757C378.928 283.939 379.569 284.117 380.212 284.292L379.948 285.257C379.303 285.081 378.658 284.901 378.015 284.719ZM381.89 285.776L382.143 284.809C382.785 284.977 383.429 285.142 384.074 285.303L383.831 286.273C383.183 286.111 382.536 285.945 381.89 285.776ZM385.776 286.749L386.009 285.777C386.655 285.931 387.302 286.083 387.951 286.231L387.728 287.205C387.076 287.057 386.425 286.905 385.776 286.749ZM389.688 287.642L389.9 286.664C390.551 286.806 391.204 286.944 391.857 287.078L391.655 288.058C390.998 287.923 390.342 287.784 389.688 287.642ZM393.617 288.451L393.809 287.47C394.46 287.597 395.112 287.721 395.765 287.841L395.584 288.824C394.927 288.703 394.272 288.579 393.617 288.451ZM397.559 289.177L397.729 288.192C398.385 288.306 399.042 288.416 399.7 288.523L399.54 289.51C398.878 289.403 398.218 289.292 397.559 289.177ZM401.526 289.822L401.676 288.834C402.331 288.933 402.987 289.029 403.644 289.122L403.504 290.112C402.844 290.019 402.184 289.922 401.526 289.822ZM405.488 290.381L405.618 289.39C406.277 289.476 406.937 289.558 407.598 289.638L407.479 290.63C406.814 290.551 406.151 290.468 405.488 290.381ZM409.476 290.859C410.141 290.932 410.807 291.001 411.474 291.067L411.572 290.072C410.909 290.006 410.246 289.937 409.585 289.865L409.476 290.859ZM413.464 291.253L413.552 290.256C414.213 290.315 414.875 290.37 415.538 290.421L415.46 291.418C414.794 291.366 414.129 291.311 413.464 291.253ZM417.462 291.563C418.13 291.608 418.799 291.65 419.469 291.688L419.526 290.689C418.859 290.651 418.194 290.61 417.529 290.565L417.462 291.563ZM421.473 291.791L421.52 290.792C422.181 290.823 422.843 290.85 423.506 290.874L423.47 291.873C422.804 291.849 422.138 291.822 421.473 291.791ZM425.473 291.935L425.498 290.936C426.163 290.953 426.829 290.966 427.495 290.977L427.48 291.977C426.81 291.966 426.141 291.953 425.473 291.935ZM429.492 291.997L429.497 290.997C429.831 290.999 430.166 291 430.5 291C430.669 291 430.838 291 431.007 290.999C431.172 290.999 431.338 290.998 431.503 290.997L431.508 291.997C431.172 291.999 430.836 292 430.5 292C430.164 292 429.828 291.999 429.492 291.997ZM433.52 291.977L433.505 290.977C434.171 290.966 434.837 290.953 435.502 290.936L435.527 291.935C434.859 291.953 434.19 291.966 433.52 291.977ZM437.53 291.873L437.494 290.874C438.157 290.85 438.819 290.823 439.48 290.792L439.527 291.791C438.862 291.822 438.196 291.849 437.53 291.873ZM441.531 291.688L441.474 290.689C442.141 290.651 442.806 290.61 443.471 290.565L443.538 291.563C442.87 291.608 442.201 291.65 441.531 291.688ZM445.54 291.418L445.462 290.421C446.125 290.37 446.787 290.315 447.448 290.256L447.536 291.253C446.871 291.311 446.206 291.366 445.54 291.418ZM449.526 291.067L449.428 290.072C450.091 290.006 450.754 289.937 451.415 289.865L451.524 290.859C450.859 290.932 450.193 291.001 449.526 291.067ZM453.521 290.63L453.402 289.638C454.063 289.558 454.723 289.476 455.382 289.39L455.512 290.381C454.849 290.468 454.186 290.551 453.521 290.63ZM457.496 290.112L457.356 289.122C458.013 289.029 458.669 288.933 459.324 288.834L459.474 289.822C458.816 289.922 458.156 290.019 457.496 290.112ZM461.46 289.51L461.3 288.523C461.958 288.416 462.615 288.306 463.271 288.192L463.441 289.177C462.782 289.292 462.122 289.403 461.46 289.51ZM465.416 288.824L465.234 287.841C465.888 287.721 466.54 287.597 467.191 287.47L467.383 288.451C466.728 288.579 466.073 288.703 465.416 288.824ZM469.345 288.058L469.143 287.078C469.796 286.944 470.449 286.806 471.1 286.664L471.312 287.642C470.658 287.784 470.002 287.923 469.345 288.058ZM473.272 287.205L473.049 286.231C473.698 286.083 474.345 285.931 474.991 285.777L475.224 286.749C474.575 286.905 473.924 287.057 473.272 287.205ZM477.169 286.273L476.926 285.303C477.571 285.142 478.215 284.977 478.857 284.809L479.11 285.776C478.464 285.945 477.817 286.111 477.169 286.273ZM481.052 285.257L480.788 284.293C481.431 284.117 482.072 283.939 482.711 283.757L482.985 284.719C482.342 284.901 481.697 285.081 481.052 285.257ZM484.91 284.16L484.626 283.201C485.263 283.013 485.898 282.821 486.532 282.626L486.826 283.582C486.189 283.778 485.55 283.971 484.91 284.16ZM488.741 282.983L488.438 282.03C489.072 281.827 489.706 281.622 490.338 281.413L490.651 282.362C490.016 282.572 489.379 282.779 488.741 282.983ZM492.553 281.723L492.229 280.777C492.858 280.561 493.485 280.343 494.111 280.121L494.445 281.064C493.816 281.287 493.185 281.506 492.553 281.723ZM496.328 280.386L495.984 279.447C496.61 279.217 497.235 278.985 497.858 278.75L498.211 279.685C497.585 279.922 496.957 280.155 496.328 280.386ZM500.085 278.965L499.722 278.034C500.341 277.792 500.959 277.547 501.576 277.299L501.949 278.227C501.329 278.476 500.708 278.722 500.085 278.965ZM503.804 277.469L503.421 276.545C504.035 276.29 504.648 276.033 505.258 275.772L505.651 276.691C505.037 276.954 504.421 277.213 503.804 277.469ZM507.494 275.893L507.091 274.977C507.701 274.71 508.308 274.439 508.914 274.165L509.326 275.076C508.717 275.351 508.106 275.624 507.494 275.893ZM511.149 274.24L510.727 273.333C511.329 273.053 511.93 272.77 512.529 272.484L512.961 273.386C512.358 273.674 511.754 273.958 511.149 274.24ZM514.766 272.511C515.367 272.217 515.966 271.919 516.564 271.618L516.114 270.725C515.519 271.024 514.923 271.32 514.326 271.614L514.766 272.511ZM518.35 270.706L517.891 269.817C518.481 269.512 519.07 269.203 519.657 268.892L520.126 269.775C519.535 270.088 518.944 270.398 518.35 270.706ZM521.89 268.827L521.412 267.949C521.997 267.63 522.581 267.309 523.162 266.985L523.649 267.858C523.065 268.184 522.478 268.507 521.89 268.827ZM525.396 266.872L524.9 266.004C525.477 265.674 526.053 265.341 526.626 265.005L527.132 265.868C526.555 266.205 525.976 266.54 525.396 266.872ZM528.856 264.846L528.342 263.988C528.912 263.646 529.48 263.301 530.047 262.953L530.57 263.805C530.001 264.155 529.429 264.502 528.856 264.846ZM532.275 262.746L531.743 261.9C532.306 261.545 532.867 261.189 533.426 260.829L533.967 261.67C533.405 262.031 532.841 262.39 532.275 262.746ZM535.648 260.576L535.098 259.741C535.653 259.375 536.207 259.007 536.758 258.636L537.316 259.466C536.762 259.839 536.206 260.209 535.648 260.576ZM538.975 258.336L538.408 257.513C538.956 257.135 539.502 256.755 540.046 256.372L540.621 257.19C540.075 257.575 539.526 257.957 538.975 258.336ZM542.255 256.027L541.671 255.215C542.211 254.827 542.748 254.435 543.284 254.041L543.876 254.847C543.338 255.243 542.798 255.636 542.255 256.027ZM545.485 253.65L544.884 252.851C545.416 252.451 545.945 252.048 546.473 251.643L547.082 252.436C546.552 252.843 546.02 253.248 545.485 253.65ZM548.666 251.205L548.049 250.419C548.572 250.008 549.093 249.595 549.611 249.179L550.237 249.959C549.716 250.377 549.192 250.793 548.666 251.205ZM551.794 248.696L551.161 247.923C551.675 247.501 552.187 247.077 552.697 246.65L553.339 247.417C552.827 247.846 552.312 248.272 551.794 248.696ZM554.871 246.121L554.221 245.361C554.726 244.929 555.23 244.494 555.731 244.057L556.388 244.81C555.885 245.25 555.379 245.687 554.871 246.121ZM557.892 243.483L557.227 242.737C557.723 242.294 558.217 241.849 558.709 241.402L559.382 242.141C558.888 242.591 558.391 243.039 557.892 243.483ZM560.858 240.783L560.177 240.051C560.664 239.598 561.149 239.142 561.631 238.685L562.32 239.41C561.835 239.87 561.348 240.328 560.858 240.783ZM563.767 238.021L563.071 237.303C563.549 236.841 564.024 236.375 564.497 235.907L565.2 236.618C564.725 237.088 564.247 237.556 563.767 238.021ZM566.618 235.2L565.907 234.497C566.375 234.024 566.841 233.549 567.303 233.071L568.021 233.767C567.556 234.247 567.088 234.725 566.618 235.2ZM569.41 232.32L568.685 231.631C569.142 231.149 569.598 230.664 570.051 230.177L570.783 230.858C570.328 231.348 569.87 231.835 569.41 232.32ZM572.141 229.382L571.402 228.709C571.849 228.217 572.294 227.723 572.737 227.227L573.483 227.892C573.038 228.391 572.591 228.888 572.141 229.382ZM574.81 226.388L574.057 225.731C574.494 225.23 574.929 224.726 575.361 224.221L576.121 224.871C575.687 225.379 575.25 225.885 574.81 226.388ZM577.417 223.339L576.65 222.697C577.077 222.187 577.501 221.675 577.923 221.161L578.696 221.794C578.272 222.312 577.846 222.827 577.417 223.339ZM579.959 220.237L579.179 219.611C579.595 219.093 580.008 218.572 580.419 218.049L581.205 218.666C580.793 219.192 580.377 219.716 579.959 220.237ZM582.436 217.082L581.643 216.473C582.048 215.945 582.451 215.416 582.851 214.884L583.65 215.485C583.248 216.02 582.843 216.552 582.436 217.082ZM584.847 213.876L584.041 213.284C584.435 212.748 584.827 212.211 585.215 211.671L586.027 212.255C585.636 212.798 585.243 213.338 584.847 213.876ZM587.19 210.621L586.372 210.046C586.755 209.502 587.135 208.956 587.513 208.408L588.336 208.975C587.957 209.526 587.575 210.075 587.19 210.621ZM589.466 207.316L588.636 206.758C589.007 206.207 589.375 205.653 589.741 205.098L590.576 205.648C590.209 206.206 589.839 206.762 589.466 207.316ZM591.67 203.967C592.031 203.405 592.39 202.841 592.746 202.275L591.9 201.743C591.545 202.306 591.189 202.867 590.829 203.426L591.67 203.967ZM593.805 200.57L592.953 200.047C593.301 199.48 593.646 198.912 593.988 198.342L594.846 198.856C594.502 199.429 594.155 200.001 593.805 200.57ZM595.868 197.132L595.005 196.626C595.341 196.053 595.674 195.477 596.004 194.9L596.872 195.396C596.54 195.976 596.205 196.555 595.868 197.132ZM597.858 193.649L596.985 193.162C597.309 192.581 597.63 191.997 597.949 191.412L598.827 191.89C598.507 192.478 598.184 193.065 597.858 193.649ZM599.775 190.126L598.892 189.657C599.203 189.07 599.512 188.481 599.817 187.891L600.706 188.35C600.398 188.944 600.088 189.535 599.775 190.126ZM601.618 186.564L600.725 186.114C601.024 185.519 601.32 184.923 601.614 184.326L602.511 184.766C602.217 185.367 601.919 185.966 601.618 186.564ZM603.386 182.961L602.484 182.529C602.77 181.93 603.053 181.329 603.333 180.727L604.24 181.149C603.958 181.754 603.674 182.358 603.386 182.961ZM605.076 179.326L604.165 178.914C604.439 178.308 604.71 177.701 604.977 177.091L605.893 177.494C605.624 178.106 605.351 178.717 605.076 179.326ZM606.691 175.651L605.772 175.258C606.033 174.648 606.29 174.035 606.545 173.421L607.469 173.804C607.213 174.421 606.954 175.037 606.691 175.651ZM608.227 171.949L607.299 171.576C607.547 170.959 607.792 170.341 608.034 169.722L608.965 170.085C608.722 170.708 608.476 171.329 608.227 171.949ZM609.685 168.211L608.75 167.858C608.985 167.235 609.217 166.61 609.447 165.984L610.386 166.328C610.155 166.957 609.922 167.585 609.685 168.211ZM611.064 164.445C611.287 163.816 611.506 163.185 611.723 162.553L610.777 162.229C610.561 162.858 610.343 163.485 610.121 164.111L611.064 164.445ZM612.362 160.651L611.413 160.338C611.622 159.706 611.827 159.072 612.03 158.438L612.983 158.741C612.779 159.379 612.572 160.016 612.362 160.651ZM613.582 156.826L612.626 156.532C612.821 155.898 613.013 155.263 613.201 154.626L614.16 154.91C613.971 155.55 613.778 156.189 613.582 156.826ZM614.719 152.985L613.757 152.711C613.939 152.072 614.117 151.431 614.292 150.788L615.257 151.052C615.081 151.697 614.901 152.342 614.719 152.985ZM615.776 149.11L614.809 148.857C614.977 148.215 615.142 147.571 615.303 146.926L616.273 147.169C616.111 147.817 615.945 148.464 615.776 149.11ZM616.749 145.224L615.777 144.991C615.931 144.345 616.083 143.698 616.231 143.049L617.205 143.272C617.057 143.924 616.905 144.575 616.749 145.224ZM617.642 141.312L616.664 141.1C616.806 140.449 616.944 139.796 617.078 139.143L618.058 139.345C617.923 140.002 617.784 140.658 617.642 141.312ZM618.451 137.383L617.47 137.191C617.597 136.54 617.721 135.888 617.841 135.235L618.824 135.416C618.703 136.073 618.579 136.728 618.451 137.383ZM619.177 133.441L618.192 133.271C618.306 132.615 618.416 131.958 618.523 131.3L619.51 131.46C619.403 132.122 619.292 132.782 619.177 133.441ZM619.822 129.474L618.834 129.324C618.933 128.669 619.029 128.013 619.122 127.356L620.112 127.496C620.019 128.156 619.922 128.816 619.822 129.474ZM620.381 125.512L619.39 125.382C619.476 124.723 619.558 124.063 619.638 123.402L620.63 123.521C620.551 124.186 620.468 124.849 620.381 125.512ZM620.859 121.524C620.932 120.859 621.001 120.193 621.067 119.526L620.072 119.428C620.006 120.091 619.937 120.754 619.865 121.415L620.859 121.524ZM621.253 117.536L620.256 117.448C620.315 116.787 620.37 116.125 620.421 115.462L621.418 115.54C621.366 116.206 621.311 116.871 621.253 117.536ZM621.563 113.538C621.608 112.87 621.65 112.201 621.688 111.531L620.689 111.474C620.651 112.141 620.61 112.806 620.565 113.471L621.563 113.538ZM621.791 109.527L620.792 109.48C620.823 108.819 620.85 108.157 620.874 107.494L621.873 107.53C621.849 108.196 621.822 108.862 621.791 109.527ZM621.935 105.527L620.936 105.502C620.953 104.837 620.966 104.171 620.977 103.505L621.977 103.52C621.966 104.19 621.953 104.859 621.935 105.527Z" fill="#D7E1F4"/>
<path fill-rule="evenodd" clip-rule="evenodd" d="M861 1H1V199H861V1ZM0 0V200H862V0H0Z" fill="#293856"/>
</g>
<defs>
<filter id="filter0_d_291_2996" x="335" y="-19" width="193" height="236" filterUnits="userSpaceOnUse" color-interpolation-filters="sRGB">
<feFlood flood-opacity="0" result="BackgroundImageFix"/>
<feColorMatrix in="SourceAlpha" type="matrix" values="0 0 0 0 0 0 0 0 0 0 0 0 0 0 0 0 0 0 127 0" result="hardAlpha"/>
<feOffset/>
<feGaussianBlur stdDeviation="36.5"/>
<feComposite in2="hardAlpha" operator="out"/>
<feColorMatrix type="matrix" values="0 0 0 0 0.0588235 0 0 0 0 0.756863 0 0 0 0 0.717647 0 0 0 1 0"/>
<feBlend mode="normal" in2="BackgroundImageFix" result="effect1_dropShadow_291_2996"/>
<feBlend mode="normal" in="SourceGraphic" in2="effect1_dropShadow_291_2996" result="shape"/>
</filter>
<clipPath id="clip0_291_2996">
<rect width="862" height="200" fill="white"/>
</clipPath>
</defs>
</svg>
