<svg width="862" height="200" viewBox="0 0 862 200" fill="none" xmlns="http://www.w3.org/2000/svg">
<g clip-path="url(#clip0_291_2728)">
<rect width="862" height="200" fill="#40A1AC"/>
<path d="M0 0H862V200H0V0Z" fill="#111F3B"/>
<path fill-rule="evenodd" clip-rule="evenodd" d="M861 1H1V199H861V1ZM0 0V200H862V0H0Z" fill="#293856"/>
<path d="M430.92 144H431.08L434 200H428L430.92 144Z" fill="url(#paint0_linear_291_2728)"/>
<path fill-rule="evenodd" clip-rule="evenodd" d="M79.5 143C79.2239 143 79 143.224 79 143.5C79 143.776 79.2239 144 79.5 144H417.459C419.561 144 420.24 146.828 418.366 147.782L317.546 199.109L318 201H544L544.454 199.109L443.634 147.782C441.76 146.828 442.439 144 444.541 144H782.5C782.776 144 783 143.776 783 143.5C783 143.224 782.776 143 782.5 143H79.5ZM434.428 144.218C434.147 144.075 433.836 144 433.52 144H428.48C428.164 144 427.853 144.075 427.572 144.218L318 200H544L434.428 144.218Z" fill="url(#paint1_linear_291_2728)"/>
<path d="M427 182H435V186H427V182Z" fill="#111F3B"/>
<path d="M427 167H435V170H427V167Z" fill="#111F3B"/>
<path d="M427 159H435V161H427V159Z" fill="#111F3B"/>
<path d="M427 155H435V156H427V155Z" fill="#111F3B"/>
<path d="M427 152H435V153H427V152Z" fill="#111F3B"/>
<path d="M427 150H435V151H427V150Z" fill="#111F3B"/>
<path d="M427 148H435V149H427V148Z" fill="#111F3B"/>
<path d="M427 146H435V147H427V146Z" fill="#111F3B"/>
<path d="M428 144H434V145H428V144Z" fill="#111F3B"/>
<path d="M539 139.5C539 110.989 527.674 83.6462 507.514 63.486C487.354 43.3259 460.011 32 431.5 32C402.989 32 375.646 43.3259 355.486 63.486C335.326 83.6462 324 110.989 324 139.5H327.65C327.65 111.957 338.592 85.5427 358.067 66.0671C377.543 46.5915 403.957 35.6502 431.5 35.6502C459.043 35.6502 485.457 46.5915 504.933 66.0671C524.408 85.5427 535.35 111.957 535.35 139.5H539Z" fill="url(#paint2_linear_291_2728)"/>
<path fill-rule="evenodd" clip-rule="evenodd" d="M426.615 67.3162C422.741 67.3162 419.6 64.1673 419.6 60.2831C419.6 56.3988 422.741 53.25 426.615 53.25C430.489 53.25 433.63 56.3988 433.63 60.2831C433.63 64.1673 430.489 67.3162 426.615 67.3162ZM431.624 75.3544C431.624 78.6144 434.26 81.2571 437.512 81.2571C440.764 81.2571 443.4 78.6144 443.4 75.3544C443.4 72.0944 440.764 69.4516 437.512 69.4516C434.26 69.4516 431.624 72.0944 431.624 75.3544ZM443.776 94.9467C441.009 94.9467 438.765 92.6975 438.765 89.9231C438.765 87.1486 441.009 84.8994 443.776 84.8994C446.543 84.8994 448.787 87.1486 448.787 89.9231C448.787 92.6975 446.543 94.9467 443.776 94.9467ZM441.773 103.234C441.773 105.662 443.736 107.63 446.158 107.63C448.579 107.63 450.542 105.662 450.542 103.234C450.542 100.807 448.579 98.8386 446.158 98.8386C443.736 98.8386 441.773 100.807 441.773 103.234ZM445.53 118.432C443.455 118.432 441.772 116.745 441.772 114.665C441.772 112.584 443.455 110.897 445.53 110.897C447.606 110.897 449.288 112.584 449.288 114.665C449.288 116.745 447.606 118.432 445.53 118.432ZM470.834 119.185C469.105 119.185 467.702 117.779 467.702 116.045C467.702 114.311 469.105 112.905 470.834 112.905C472.564 112.905 473.966 114.311 473.966 116.045C473.966 117.779 472.564 119.185 470.834 119.185ZM466.825 125.967C465.303 125.967 464.07 124.73 464.07 123.204C464.07 121.678 465.303 120.441 466.825 120.441C468.347 120.441 469.581 121.678 469.581 123.204C469.581 124.73 468.347 125.967 466.825 125.967ZM439.769 124.082C439.769 125.816 441.171 127.222 442.901 127.222C444.63 127.222 446.032 125.816 446.032 124.082C446.032 122.348 444.63 120.943 442.901 120.943C441.171 120.943 439.769 122.348 439.769 124.082ZM419.349 127.349C417.619 127.349 416.217 125.943 416.217 124.209C416.217 122.475 417.619 121.069 419.349 121.069C421.078 121.069 422.48 122.475 422.48 124.209C422.48 125.943 421.078 127.349 419.349 127.349ZM422.482 131.241C422.482 133.322 424.165 135.009 426.24 135.009C428.316 135.009 429.998 133.322 429.998 131.241C429.998 129.16 428.316 127.473 426.24 127.473C424.165 127.473 422.482 129.16 422.482 131.241ZM431.501 137.396C431.501 139.824 433.464 141.792 435.885 141.792C438.307 141.792 440.27 139.824 440.27 137.396C440.27 134.968 438.307 133 435.885 133C433.464 133 431.501 134.968 431.501 137.396ZM482.985 149.075C479.111 149.075 475.97 145.926 475.97 142.042C475.97 138.158 479.111 135.009 482.985 135.009C486.859 135.009 490 138.158 490 142.042C490 145.926 486.859 149.075 482.985 149.075ZM383.898 156.987C380.023 156.987 376.883 153.838 376.883 149.954C376.883 146.07 380.023 142.921 383.898 142.921C387.772 142.921 390.913 146.07 390.913 149.954C390.913 153.838 387.772 156.987 383.898 156.987ZM458.432 144.052C458.432 147.312 461.068 149.955 464.32 149.955C467.571 149.955 470.207 147.312 470.207 144.052C470.207 140.792 467.571 138.149 464.32 138.149C461.068 138.149 458.432 140.792 458.432 144.052ZM462.066 165.655C458.814 165.655 456.178 163.012 456.178 159.752C456.178 156.492 458.814 153.849 462.066 153.849C465.317 153.849 467.953 156.492 467.953 159.752C467.953 163.012 465.317 165.655 462.066 165.655ZM443.526 142.043C443.526 144.817 445.769 147.066 448.537 147.066C451.304 147.066 453.547 144.817 453.547 142.043C453.547 139.268 451.304 137.019 448.537 137.019C445.769 137.019 443.526 139.268 443.526 142.043ZM446.406 162.764C443.639 162.764 441.395 160.515 441.395 157.74C441.395 154.966 443.639 152.717 446.406 152.717C449.173 152.717 451.417 154.966 451.417 157.74C451.417 160.515 449.173 162.764 446.406 162.764ZM436.51 170.3C436.51 173.075 438.754 175.324 441.521 175.324C444.288 175.324 446.532 173.075 446.532 170.3C446.532 167.526 444.288 165.276 441.521 165.276C438.754 165.276 436.51 167.526 436.51 170.3ZM433.755 157.489C431.333 157.489 429.37 155.521 429.37 153.094C429.37 150.666 431.333 148.698 433.755 148.698C436.176 148.698 438.139 150.666 438.139 153.094C438.139 155.521 436.176 157.489 433.755 157.489ZM428.87 170.174C426.449 170.174 424.486 168.206 424.486 165.778C424.486 163.351 426.449 161.383 428.87 161.383C431.291 161.383 433.254 163.351 433.254 165.778C433.254 168.206 431.291 170.174 428.87 170.174ZM420.227 146.816C420.227 148.896 421.909 150.583 423.985 150.583C426.06 150.583 427.743 148.896 427.743 146.816C427.743 144.735 426.06 143.048 423.985 143.048C421.909 143.048 420.227 144.735 420.227 146.816ZM419.224 163.268C417.149 163.268 415.466 161.581 415.466 159.5C415.466 157.419 417.149 155.732 419.224 155.732C421.3 155.732 422.982 157.419 422.982 159.5C422.982 161.581 421.3 163.268 419.224 163.268ZM417.219 143.047C415.49 143.047 414.088 141.641 414.088 139.907C414.088 138.173 415.49 136.767 417.219 136.767C418.949 136.767 420.351 138.173 420.351 139.907C420.351 141.641 418.949 143.047 417.219 143.047ZM405.444 145.307C405.444 146.833 406.678 148.07 408.2 148.07C409.722 148.07 410.956 146.833 410.956 145.307C410.956 143.781 409.722 142.544 408.2 142.544C406.678 142.544 405.444 143.781 405.444 145.307ZM405.945 140.912C404.699 140.912 403.69 139.9 403.69 138.651C403.69 137.403 404.699 136.39 405.945 136.39C407.19 136.39 408.2 137.403 408.2 138.651C408.2 139.9 407.19 140.912 405.945 140.912ZM410.205 132.748C410.205 134.274 411.439 135.511 412.961 135.511C414.483 135.511 415.717 134.274 415.717 132.748C415.717 131.222 414.483 129.985 412.961 129.985C411.439 129.985 410.205 131.222 410.205 132.748ZM453.548 128.227C452.026 128.227 450.792 126.99 450.792 125.464C450.792 123.938 452.026 122.701 453.548 122.701C455.07 122.701 456.304 123.938 456.304 125.464C456.304 126.99 455.07 128.227 453.548 128.227ZM459.811 128.479C459.811 129.727 460.821 130.739 462.066 130.739C463.312 130.739 464.321 129.727 464.321 128.479C464.321 127.23 463.312 126.218 462.066 126.218C460.821 126.218 459.811 127.23 459.811 128.479ZM409.329 152.466C409.329 154.2 410.731 155.606 412.461 155.606C414.19 155.606 415.592 154.2 415.592 152.466C415.592 150.732 414.19 149.327 412.461 149.327C410.731 149.327 409.329 150.732 409.329 152.466ZM454.424 118.18C454.424 119.914 455.826 121.32 457.555 121.32C459.285 121.32 460.687 119.914 460.687 118.18C460.687 116.446 459.285 115.04 457.555 115.04C455.826 115.04 454.424 116.446 454.424 118.18ZM446.281 69.4526C446.281 72.7126 448.917 75.3554 452.169 75.3554C455.421 75.3554 458.056 72.7126 458.056 69.4526C458.056 66.1926 455.421 63.5498 452.169 63.5498C448.917 63.5498 446.281 66.1926 446.281 69.4526ZM458.433 89.0429C455.666 89.0429 453.422 86.7938 453.422 84.0193C453.422 81.2448 455.666 78.9957 458.433 78.9957C461.2 78.9957 463.444 81.2448 463.444 84.0193C463.444 86.7938 461.2 89.0429 458.433 89.0429ZM466.701 81.8838C466.701 84.6583 468.944 86.9075 471.712 86.9075C474.479 86.9075 476.722 84.6583 476.722 81.8838C476.722 79.1094 474.479 76.8602 471.712 76.8602C468.944 76.8602 466.701 79.1094 466.701 81.8838ZM474.091 99.593C471.67 99.593 469.707 97.625 469.707 95.1973C469.707 92.7697 471.67 90.8017 474.091 90.8017C476.513 90.8017 478.476 92.7697 478.476 95.1973C478.476 97.625 476.513 99.593 474.091 99.593ZM469.707 106.625C469.707 108.706 471.389 110.393 473.465 110.393C475.54 110.393 477.223 108.706 477.223 106.625C477.223 104.544 475.54 102.857 473.465 102.857C471.389 102.857 469.707 104.544 469.707 106.625ZM460.188 112.529C458.112 112.529 456.43 110.842 456.43 108.761C456.43 106.68 458.112 104.993 460.188 104.993C462.263 104.993 463.946 106.68 463.946 108.761C463.946 110.842 462.263 112.529 460.188 112.529ZM456.303 97.3325C456.303 99.7601 458.266 101.728 460.687 101.728C463.109 101.728 465.072 99.7601 465.072 97.3325C465.072 94.9048 463.109 92.9368 460.687 92.9368C458.266 92.9368 456.303 94.9048 456.303 97.3325ZM425.237 87.1591C423.992 87.1591 422.983 86.1469 422.983 84.8984C422.983 83.6499 423.992 82.6378 425.237 82.6378C426.483 82.6378 427.492 83.6499 427.492 84.8984C427.492 86.1469 426.483 87.1591 425.237 87.1591ZM424.109 93.9414C424.109 95.4674 425.343 96.7044 426.865 96.7044C428.387 96.7044 429.621 95.4674 429.621 93.9414C429.621 92.4155 428.387 91.1785 426.865 91.1785C425.343 91.1785 424.109 92.4155 424.109 93.9414ZM430.998 107.002C429.268 107.002 427.866 105.596 427.866 103.862C427.866 102.128 429.268 100.723 430.998 100.723C432.728 100.723 434.13 102.128 434.13 103.862C434.13 105.596 432.728 107.002 430.998 107.002ZM417.846 106.249C417.846 108.329 419.529 110.016 421.604 110.016C423.68 110.016 425.362 108.329 425.362 106.249C425.362 104.168 423.68 102.481 421.604 102.481C419.529 102.481 417.846 104.168 417.846 106.249ZM418.599 97.3333C416.869 97.3333 415.467 95.9276 415.467 94.1935C415.467 92.4595 416.869 91.0537 418.599 91.0537C420.328 91.0537 421.73 92.4595 421.73 94.1935C421.73 95.9276 420.328 97.3333 418.599 97.3333ZM415.592 83.5169C415.592 85.0428 416.826 86.2799 418.348 86.2799C419.87 86.2799 421.104 85.0428 421.104 83.5169C421.104 81.9909 419.87 80.7539 418.348 80.7539C416.826 80.7539 415.592 81.9909 415.592 83.5169ZM410.079 86.7815C408.35 86.7815 406.948 85.3758 406.948 83.6418C406.948 81.9077 408.35 80.502 410.079 80.502C411.809 80.502 413.211 81.9077 413.211 83.6418C413.211 85.3758 411.809 86.7815 410.079 86.7815ZM405.32 96.4528C405.32 98.5337 407.002 100.221 409.078 100.221C411.153 100.221 412.836 98.5337 412.836 96.4528C412.836 94.372 411.153 92.6851 409.078 92.6851C407.002 92.6851 405.32 94.372 405.32 96.4528ZM411.332 115.795C408.911 115.795 406.948 113.827 406.948 111.399C406.948 108.972 408.911 107.004 411.332 107.004C413.754 107.004 415.717 108.972 415.717 111.399C415.717 113.827 413.754 115.795 411.332 115.795ZM396.051 120.189C396.051 122.963 398.294 125.212 401.061 125.212C403.829 125.212 406.072 122.963 406.072 120.189C406.072 117.414 403.829 115.165 401.061 115.165C398.294 115.165 396.051 117.414 396.051 120.189ZM398.931 106.124C396.51 106.124 394.547 104.156 394.547 101.728C394.547 99.3004 396.51 97.3324 398.931 97.3324C401.352 97.3324 403.315 99.3004 403.315 101.728C403.315 104.156 401.352 106.124 398.931 106.124ZM386.029 91.3035C386.029 93.7311 387.992 95.6991 390.413 95.6991C392.835 95.6991 394.798 93.7311 394.798 91.3035C394.798 88.8758 392.835 86.9078 390.413 86.9078C387.992 86.9078 386.029 88.8758 386.029 91.3035ZM380.015 104.993C377.248 104.993 375.005 102.743 375.005 99.969C375.005 97.1945 377.248 94.9453 380.015 94.9453C382.783 94.9453 385.026 97.1945 385.026 99.969C385.026 102.743 382.783 104.993 380.015 104.993ZM373 123.078C373 126.338 375.636 128.981 378.888 128.981C382.139 128.981 384.775 126.338 384.775 123.078C384.775 119.818 382.139 117.176 378.888 117.176C375.636 117.176 373 119.818 373 123.078ZM388.534 115.417C385.767 115.417 383.524 113.168 383.524 110.394C383.524 107.619 385.767 105.37 388.534 105.37C391.302 105.37 393.545 107.619 393.545 110.394C393.545 113.168 391.302 115.417 388.534 115.417ZM385.526 132.749C385.526 136.009 388.162 138.652 391.414 138.652C394.666 138.652 397.301 136.009 397.301 132.749C397.301 129.489 394.666 126.847 391.414 126.847C388.162 126.847 385.526 129.489 385.526 132.749ZM400.559 89.7961C398.483 89.7961 396.801 88.1093 396.801 86.0284C396.801 83.9475 398.483 82.2607 400.559 82.2607C402.634 82.2607 404.317 83.9475 404.317 86.0284C404.317 88.1093 402.634 89.7961 400.559 89.7961Z" fill="url(#paint3_linear_291_2728)"/>
<path d="M0 72H862V144H754.25H646.5H431H215.5H107.75H0V72Z" fill="url(#paint4_linear_291_2728)"/>
<path d="M654 200L654 0L862 2.48038e-06L862 200L654 200Z" fill="url(#paint5_linear_291_2728)"/>
<path d="M208 200L208 0L-2.38498e-06 2.48038e-06L0 200L208 200Z" fill="url(#paint6_linear_291_2728)"/>
<path fill-rule="evenodd" clip-rule="evenodd" d="M861 1H1V199H861V1ZM0 0V200H862V0H0Z" fill="#293856"/>
</g>
<defs>
<linearGradient id="paint0_linear_291_2728" x1="431" y1="144" x2="431" y2="200" gradientUnits="userSpaceOnUse">
<stop stop-color="#0FC1B7" stop-opacity="0"/>
<stop offset="0.3972" stop-color="#0FC1B7"/>
</linearGradient>
<linearGradient id="paint1_linear_291_2728" x1="431" y1="144.5" x2="431" y2="201" gradientUnits="userSpaceOnUse">
<stop offset="0.0313668" stop-color="#D7E2F4" stop-opacity="0"/>
<stop offset="1" stop-color="#D7E2F4"/>
</linearGradient>
<linearGradient id="paint2_linear_291_2728" x1="431.5" y1="32" x2="431.5" y2="247" gradientUnits="userSpaceOnUse">
<stop stop-color="#0FC1B7"/>
<stop offset="0.483366" stop-color="#0FC1B7" stop-opacity="0"/>
</linearGradient>
<linearGradient id="paint3_linear_291_2728" x1="431.5" y1="53.25" x2="431.5" y2="175.324" gradientUnits="userSpaceOnUse">
<stop offset="0.167154" stop-color="#D7E1F4"/>
<stop offset="0.651526" stop-color="#D7E1F4" stop-opacity="0"/>
</linearGradient>
<linearGradient id="paint4_linear_291_2728" x1="431" y1="72" x2="431" y2="144" gradientUnits="userSpaceOnUse">
<stop offset="0.835747" stop-color="#0FC1B7" stop-opacity="0"/>
<stop offset="1" stop-color="#0FC1B7"/>
</linearGradient>
<linearGradient id="paint5_linear_291_2728" x1="654" y1="100" x2="862" y2="100" gradientUnits="userSpaceOnUse">
<stop stop-color="#111F3B" stop-opacity="0"/>
<stop offset="0.808575" stop-color="#111F3B"/>
</linearGradient>
<linearGradient id="paint6_linear_291_2728" x1="208" y1="100" x2="-1.19249e-06" y2="100" gradientUnits="userSpaceOnUse">
<stop stop-color="#111F3B" stop-opacity="0"/>
<stop offset="0.808575" stop-color="#111F3B"/>
</linearGradient>
<clipPath id="clip0_291_2728">
<rect width="862" height="200" fill="white"/>
</clipPath>
</defs>
</svg>
