<?xml version="1.0" encoding="UTF-8"?>
<svg xmlns="http://www.w3.org/2000/svg" xmlns:xlink="http://www.w3.org/1999/xlink" width="48pt" height="48pt" viewBox="0 0 48 48" version="1.1">
<g id="surface1">
<path style=" stroke:none;fill-rule:nonzero;fill:black;fill-opacity:1;" d="M 0.015625 0 L 47.984375 0 C 47.992188 0 48 0.0078125 48 0.015625 L 48 47.984375 C 48 47.992188 47.992188 48 47.984375 48 L 27.75 48 L 27.75 30.9375 L 33.335938 30.9375 L 34.40625 24 L 27.75 24 L 27.75 19.5 C 27.75 17.605469 28.679688 15.75 31.660156 15.75 L 34.6875 15.75 L 34.6875 9.84375 C 34.6875 9.84375 31.941406 9.375 29.316406 9.375 C 23.832031 9.375 20.25 12.695312 20.25 18.710938 L 20.25 24 L 14.15625 24 L 14.15625 30.9375 L 20.25 30.9375 L 20.25 48 L 0.015625 48 C 0.0078125 48 0 47.992188 0 47.984375 L 0 0.015625 C 0 0.0078125 0.0078125 0 0.015625 0 Z M 0.015625 0 "/>
</g>
</svg>
