<svg xmlns="http://www.w3.org/2000/svg" viewBox="0 0 48 48">
  <path style="-inkscape-stroke:none" d="M20.903 9.922a8.082 8.082 0 0 1 8.217 0l6.006 3.56a7.892 7.892 0 0 1 1.581 1.23c.353.357.254.935-.167 1.207-.365.237-.846.156-1.161-.144a6.217 6.217 0 0 0-1.114-.84l-6.006-3.56a6.343 6.343 0 0 0-2.088-.78.4.4 0 0 0-.465.402v2.543c0 .213.158.39.366.432a5.35 5.35 0 0 1 1.678.643l4.004 2.372c.234.139.454.293.66.462.403.33.31.94-.129 1.223-.353.229-.813.162-1.156-.08a3.65 3.65 0 0 0-.236-.152l-4.004-2.372a3.7 3.7 0 0 0-3.756 0L19.13 18.44c-1.078.639-1.718 1.768-1.718 2.966v5.188c0 1.198.64 2.327 1.718 2.966l4.004 2.372a3.699 3.699 0 0 0 3.756 0l4.004-2.372c.055-.033.11-.067.162-.102.34-.227.787-.287 1.133-.067.452.287.544.914.122 1.243a5.3 5.3 0 0 1-.556.379l-4.004 2.372a5.388 5.388 0 0 1-5.478 0l-4.004-2.372a5.245 5.245 0 0 1-1.42-1.232.448.448 0 0 0-.556-.127l-2.219 1.168a.399.399 0 0 0-.147.588 6.164 6.164 0 0 0 1.831 1.656l6.007 3.559a6.392 6.392 0 0 0 6.495 0l6.006-3.56a6.223 6.223 0 0 0 1.074-.803c.314-.293.787-.372 1.15-.142.429.272.53.86.169 1.217a7.894 7.894 0 0 1-1.532 1.182l-6.006 3.559a8.081 8.081 0 0 1-8.217 0l-6.007-3.56c-2.37-1.404-3.818-3.917-3.818-6.628v-7.78c0-2.71 1.448-5.224 3.818-6.629l6.007-3.559zm2.63.74a6.336 6.336 0 0 0-1.77.713l-6.006 3.56c-1.868 1.106-2.99 3.073-2.99 5.175v7.78c0 .368.034.732.1 1.087.05.264.344.39.582.265l2.157-1.135a.447.447 0 0 0 .22-.49 5.06 5.06 0 0 1-.104-1.023v-5.188c0-1.807.966-3.482 2.546-4.419l4.004-2.372a5.346 5.346 0 0 1 1.403-.58.446.446 0 0 0 .342-.427V11.06a.399.399 0 0 0-.484-.399z" color="#000"/>
  <path style="-inkscape-stroke:none" d="M25.012 8.299a8.56 8.56 0 0 0-4.364 1.193l-6.007 3.559c-2.52 1.492-4.063 4.17-4.063 7.058v7.782c0 2.888 1.544 5.566 4.063 7.058l6.007 3.559a8.58 8.58 0 0 0 8.727 0l6.006-3.559a8.398 8.398 0 0 0 1.629-1.258c.589-.582.42-1.566-.254-1.994-.573-.363-1.294-.234-1.758.2a5.724 5.724 0 0 1-.988.738l-6.006 3.56a5.897 5.897 0 0 1-5.986 0l-6.006-3.558a5.646 5.646 0 0 1-1.586-1.434l2.06-1.084c.421.518.933.972 1.528 1.324l4.004 2.373a5.887 5.887 0 0 0 5.988 0l4.004-2.373a5.69 5.69 0 0 0 .607-.414 1.22 1.22 0 0 0 .457-1.09 1.336 1.336 0 0 0-.619-.97c-.545-.346-1.203-.244-1.678.072-.045.03-.09.06-.138.088l-4.004 2.373c-.994.59-2.252.59-3.246 0l-4.006-2.373c-.93-.551-1.473-1.515-1.473-2.535v-5.188c0-1.02.545-1.984 1.475-2.535l4.004-2.373a3.202 3.202 0 0 1 3.246 0l4.004 2.373c.07.042.137.085.203.131.48.337 1.158.45 1.715.09a1.33 1.33 0 0 0 .605-.953 1.218 1.218 0 0 0-.432-1.076 5.783 5.783 0 0 0-.72-.506l-4.004-2.373a5.848 5.848 0 0 0-1.8-.69v-2.361c.623.13 1.236.339 1.798.672l6.006 3.56c.376.223.717.481 1.023.772.467.443 1.2.576 1.778.203.66-.428.827-1.397.251-1.979a8.4 8.4 0 0 0-1.681-1.31l-6.006-3.559A8.558 8.558 0 0 0 25.012 8.3Zm0 1.002c1.335 0 2.67.35 3.853 1.05l6.006 3.561c.55.326 1.045.713 1.48 1.152.13.13.097.32-.083.436-.154.1-.381.068-.545-.088a6.718 6.718 0 0 0-1.203-.908l-6.006-3.559a6.844 6.844 0 0 0-2.252-.841c-.551-.102-1.057.351-1.057.892v2.545c0 .46.34.834.768.92h.002a4.85 4.85 0 0 1 1.521.584l4.004 2.373c.212.125.41.265.596.418.07.058.081.103.072.182a.337.337 0 0 1-.154.234c-.15.096-.39.077-.598-.068a4.166 4.166 0 0 0-.268-.174l-4.003-2.373a4.196 4.196 0 0 0-4.266 0l-4.006 2.373a3.96 3.96 0 0 0-1.963 3.396v5.188c0 1.376.74 2.67 1.965 3.396l4.004 2.373a4.195 4.195 0 0 0 4.266 0l4.003-2.373a4.12 4.12 0 0 0 .184-.115c.207-.138.441-.156.588-.063.1.064.15.16.16.24.01.081-.002.13-.078.188a4.777 4.777 0 0 1-.502.342l-4.004 2.373a4.89 4.89 0 0 1-4.969 0l-4.004-2.373a4.746 4.746 0 0 1-1.285-1.113h-.002a.952.952 0 0 0-1.177-.256l-2.22 1.166c-.467.246-.64.883-.316 1.326a6.663 6.663 0 0 0 1.979 1.791l6.006 3.559a6.892 6.892 0 0 0 7.006 0l6.006-3.559c.423-.25.81-.543 1.16-.869.163-.153.388-.181.54-.084.185.117.22.306.087.437-.425.42-.906.794-1.436 1.108l-6.006 3.56a7.583 7.583 0 0 1-7.707 0l-6.008-3.56c-2.222-1.317-3.572-3.665-3.572-6.197v-7.782c0-2.532 1.35-4.88 3.572-6.197l6.008-3.56A7.556 7.556 0 0 1 25.012 9.3zm-1.594.873a6.85 6.85 0 0 0-1.91.771l-6.006 3.559c-2.016 1.194-3.236 3.326-3.236 5.605v7.782c0 .399.038.794.111 1.18.11.587.794.883 1.305.615l2.156-1.137a.95.95 0 0 0 .478-1.033 4.55 4.55 0 0 1-.093-.922v-5.188c0-1.629.868-3.14 2.3-3.988l4.004-2.373c.402-.238.83-.413 1.272-.525a.95.95 0 0 0 .719-.913v-2.546c0-.558-.539-1.02-1.1-.887zm.1 1.027v2.363a5.832 5.832 0 0 0-1.5.62l-4.004 2.373a5.647 5.647 0 0 0-2.791 4.85v5.187c0 .37.04.734.111 1.09l-1.988 1.048a5.357 5.357 0 0 1-.08-.841v-7.782c0-1.923 1.026-3.725 2.746-4.744l6.006-3.56c.471-.28.981-.468 1.5-.604z" color="#000"/>
  <path style="-inkscape-stroke:none" d="M26.557 19.416a2.631 2.631 0 0 0-2.675 0l-1.956 1.16a2.512 2.512 0 0 0-1.243 2.157v2.534c0 .882.471 1.7 1.243 2.158l1.956 1.159a2.631 2.631 0 0 0 2.675 0l1.956-1.16a2.512 2.512 0 0 0 1.243-2.157v-2.534c0-.882-.471-1.7-1.243-2.158zm1.115 2.578-1.956-1.158a.982.982 0 0 0-.993 0l-1.956 1.158a.863.863 0 0 0-.434.74v2.533c0 .288.153.572.434.739l1.956 1.158c.304.18.69.18.993 0l1.956-1.158a.863.863 0 0 0 .434-.74v-2.533a.863.863 0 0 0-.434-.739z" color="#000" clip-rule="evenodd" fill-rule="evenodd"/>
  <path style="-inkscape-stroke:none" d="M25.219 18.55a3.12 3.12 0 0 0-1.592.436l-1.955 1.159a3.015 3.015 0 0 0-1.488 2.587v2.534a3.02 3.02 0 0 0 1.488 2.59l1.955 1.158c.98.58 2.206.58 3.186 0l1.955-1.159a3.018 3.018 0 0 0 1.488-2.59v-2.533c0-1.06-.568-2.042-1.488-2.587l-1.956-1.159a3.127 3.127 0 0 0-1.593-.435zm0 1c.375 0 .751.099 1.084.296l1.955 1.16c.623.37.998 1.022.998 1.726v2.534a2.01 2.01 0 0 1-.998 1.728l-1.955 1.16a2.134 2.134 0 0 1-2.166 0l-1.955-1.16a2.01 2.01 0 0 1-.998-1.728v-2.534c0-.704.374-1.357.998-1.726l1.955-1.16a2.12 2.12 0 0 1 1.082-.295zm-.75.856-1.957 1.158c-.428.254-.68.703-.68 1.168v2.534c0 .465.252.916.68 1.17l1.957 1.158a1.472 1.472 0 0 0 1.502 0l1.955-1.158a1.37 1.37 0 0 0 .68-1.17v-2.534a1.37 1.37 0 0 0-.68-1.168l-1.955-1.158a1.472 1.472 0 0 0-1.502 0zm.51.86a.487.487 0 0 1 .482 0l1.955 1.158c.135.08.19.199.19.308v2.534a.36.36 0 0 1-.19.31l-1.955 1.158a.487.487 0 0 1-.482 0l-1.958-1.158a.36.36 0 0 1-.189-.31v-2.534c0-.11.055-.228.19-.308z" color="#000" clip-rule="evenodd" fill-rule="evenodd"/>
</svg>
