<?xml version="1.0" encoding="UTF-8" standalone="no"?>
<svg
   width="48"
   height="48"
   viewBox="0 0 48 48"
   fill="none"
   version="1.1"
   id="svg6"
   sodipodi:docname="chronicle_icon.svg"
   inkscape:version="1.2 (dc2aeda, 2022-05-15)"
   xmlns:inkscape="http://www.inkscape.org/namespaces/inkscape"
   xmlns:sodipodi="http://sodipodi.sourceforge.net/DTD/sodipodi-0.dtd"
   xmlns="http://www.w3.org/2000/svg"
   xmlns:svg="http://www.w3.org/2000/svg">
  <defs
     id="defs10" />
  <sodipodi:namedview
     id="namedview8"
     pagecolor="#ffffff"
     bordercolor="#666666"
     borderopacity="1.0"
     inkscape:showpageshadow="2"
     inkscape:pageopacity="0.0"
     inkscape:pagecheckerboard="0"
     inkscape:deskcolor="#d1d1d1"
     showgrid="false"
     inkscape:zoom="4.9166667"
     inkscape:cx="23.79661"
     inkscape:cy="24"
     inkscape:window-width="724"
     inkscape:window-height="480"
     inkscape:window-x="0"
     inkscape:window-y="25"
     inkscape:window-maximized="0"
     inkscape:current-layer="svg6" />
  <g
     id="path2">
    <path
       style="color:#000000;fill:#000000;-inkscape-stroke:none"
       d="m 20.9027,9.92205 c 2.5252,-1.49629 5.6916,-1.49629 8.2169,0 l 6.0063,3.55905 c 0.5861,0.3473 1.1159,0.7623 1.5812,1.2314 0.3533,0.356 0.2538,0.9344 -0.1673,1.2068 -0.3653,0.2364 -0.8458,0.1554 -1.1613,-0.1443 -0.333,-0.3163 -0.7054,-0.5991 -1.1135,-0.8409 L 28.2586,11.375 C 27.6057,10.9882 26.898,10.728 26.1713,10.5944 25.9242,10.549 25.7057,10.7458 25.7057,10.997 v 2.5433 c 0,0.2122 0.158,0.3896 0.3661,0.4313 0.5838,0.1168 1.1519,0.3312 1.6783,0.6431 l 4.0042,2.3727 c 0.2334,0.1383 0.4535,0.2927 0.6589,0.4613 0.4035,0.3311 0.3101,0.9401 -0.1281,1.2237 -0.3528,0.2282 -0.8127,0.1613 -1.1565,-0.0801 -0.0759,-0.0533 -0.1543,-0.104 -0.2352,-0.152 l -4.0043,-2.3727 c -1.1525,-0.6829 -2.6034,-0.6829 -3.756,0 l -4.0042,2.3727 c -1.0778,0.6387 -1.7179,1.7679 -1.7179,2.9661 v 5.1871 c 0,1.1982 0.6401,2.3275 1.7179,2.9661 l 4.0042,2.3727 c 1.1526,0.683 2.6035,0.683 3.756,0 l 4.0043,-2.3727 c 0.055,-0.0326 0.1089,-0.0665 0.1616,-0.1016 0.3408,-0.227 0.787,-0.2867 1.1328,-0.0673 0.4519,0.2868 0.5441,0.9143 0.1219,1.2433 -0.1753,0.1366 -0.3607,0.2632 -0.5554,0.3786 l -4.0042,2.3727 c -1.6835,0.9975 -3.7945,0.9975 -5.478,0 L 18.2679,31.0126 C 17.7136,30.6841 17.235,30.2648 16.8471,29.7807 16.7134,29.6138 16.481,29.5549 16.2917,29.6545 l -2.2186,1.1677 c -0.2172,0.1143 -0.2925,0.3899 -0.1473,0.5878 0.4806,0.6551 1.0987,1.2217 1.8315,1.6559 l 6.0063,3.559 c 1.9943,1.1818 4.5007,1.1818 6.495,0 l 6.0064,-3.559 c 0.3919,-0.2322 0.7511,-0.5024 1.0739,-0.8036 0.314,-0.2931 0.787,-0.3724 1.1497,-0.1422 0.4289,0.2722 0.5302,0.8592 0.1692,1.2166 -0.4533,0.4489 -0.9663,0.8471 -1.5319,1.1822 l -6.0064,3.559 c -2.5252,1.4963 -5.6916,1.4963 -8.2168,0 l -6.0064,-3.559 c -2.3707,-1.4047 -3.8187,-3.9182 -3.8187,-6.6286 v -7.7807 c 0,-2.7103 1.448,-5.2238 3.8187,-6.6285 l 6.0064,-3.55905 z m 2.6299,0.73925 v 0 c -0.6147,0.1457 -1.2118,0.3836 -1.769,0.7137 l -6.0064,3.5591 c -1.868,1.1068 -2.9907,3.0739 -2.9907,5.1755 v 7.7808 c 0,0.3677 0.0344,0.7314 0.1012,1.087 0.0495,0.2641 0.343,0.3902 0.5808,0.265 l 2.1571,-1.1353 c 0.1759,-0.0925 0.2615,-0.2949 0.2212,-0.4895 -0.0689,-0.3336 -0.1047,-0.6764 -0.1047,-1.024 v -5.1872 c 0,-1.8069 0.9654,-3.4825 2.5458,-4.419 l 4.0042,-2.3727 c 0.4431,-0.2625 0.9158,-0.456 1.4025,-0.5803 0.1969,-0.0503 0.3422,-0.2229 0.3422,-0.4262 v -2.5485 c 0,-0.2592 -0.2319,-0.4582 -0.4842,-0.3984 z"
       id="path124" />
    <path
       style="color:#000000;fill:#000000;-inkscape-stroke:none"
       d="m 25.011719,8.2988281 c -1.510928,1e-7 -3.021832,0.3984929 -4.363282,1.1933594 l -6.007812,3.5585935 c -2.51892,1.492524 -4.0625,4.170211 -4.0625,7.058594 v 7.78125 c 0,2.888477 1.54358,5.56607 4.0625,7.058594 l 6.007812,3.558593 c 2.682899,1.589744 6.043665,1.589744 8.726563,0 l 6.005859,-3.558593 c 0.600977,-0.35606 1.146637,-0.780224 1.628907,-1.257813 0.588751,-0.58288 0.419505,-1.566762 -0.253907,-1.99414 -0.572615,-0.36343 -1.293602,-0.234093 -1.757812,0.199218 -0.29658,0.276735 -0.627457,0.524494 -0.988281,0.738282 l -6.00586,3.560546 c -1.836235,1.088133 -4.150093,1.088133 -5.986328,0 l -6.005859,-3.558593 c -0.635331,-0.376448 -1.156861,-0.876606 -1.585938,-1.433594 l 2.060547,-1.083984 c 0.420952,0.518135 0.932512,0.971698 1.527344,1.324218 l 4.003906,2.373047 c 1.841199,1.090939 4.147082,1.090939 5.988281,0 l 4.003907,-2.373047 c 0.212914,-0.126195 0.415445,-0.264467 0.607421,-0.414062 0.346589,-0.27008 0.50137,-0.702416 0.457032,-1.089844 -0.04434,-0.387427 -0.266886,-0.747143 -0.619141,-0.970703 -0.544737,-0.34562 -1.203012,-0.243937 -1.677734,0.07227 -0.04541,0.03024 -0.0912,0.05975 -0.138672,0.08789 l -4.003906,2.373047 c -0.994166,0.589167 -2.251812,0.589185 -3.246094,0 l -4.00586,-2.373047 c -0.930088,-0.55108 -1.472656,-1.51503 -1.472656,-2.535156 v -5.1875 c 0,-1.020126 0.544472,-1.98396 1.47461,-2.535156 l 4.003906,-2.373047 c 0.994287,-0.589102 2.251923,-0.589084 3.246094,0 l 4.003906,2.373047 c 0.06994,0.04149 0.137709,0.08492 0.203125,0.130859 0.479865,0.336939 1.158242,0.449868 1.714844,0.08984 0.342548,-0.221695 0.559553,-0.573221 0.605468,-0.953125 0.04592,-0.379904 -0.09905,-0.803262 -0.43164,-1.076172 -0.225085,-0.184758 -0.465496,-0.354638 -0.720703,-0.505859 L 28.005859,14.183594 C 27.441228,13.849041 26.83023,13.623362 26.205078,13.494141 v -2.361328 c 0.624042,0.129321 1.236726,0.338866 1.798828,0.671875 l 6.00586,3.560546 c 0.375773,0.222647 0.717498,0.480889 1.023437,0.771485 0.466675,0.443304 1.200411,0.57648 1.777344,0.203125 0.661401,-0.427845 0.827313,-1.396842 0.251953,-1.978516 -0.495105,-0.499148 -1.058944,-0.941561 -1.681641,-1.310547 L 29.375,9.4921875 C 28.033505,8.6973251 26.522646,8.298828 25.011719,8.2988281 Z m 0,1.0019532 c 1.334894,0 2.669713,0.3493551 3.853515,1.0507817 l 6.00586,3.560546 c 0.549502,0.325614 1.044974,0.713293 1.480468,1.152344 0.129498,0.130488 0.09625,0.318954 -0.08398,0.435547 -0.153667,0.09944 -0.380597,0.06821 -0.544922,-0.08789 -0.36006,-0.342003 -0.762699,-0.64725 -1.203125,-0.908203 l -6.005859,-3.558593 c -0.704617,-0.417439 -1.468483,-0.697761 -2.251953,-0.841797 -0.551207,-0.101274 -1.056641,0.351437 -1.056641,0.892578 v 2.544922 c 0,0.460393 0.339421,0.834125 0.767578,0.919922 h 0.002 c 0.529568,0.105949 1.044362,0.301281 1.521485,0.583984 L 31.5,17.417969 c 0.211592,0.125378 0.409988,0.265527 0.595703,0.417968 0.07091,0.05819 0.08173,0.103371 0.07227,0.181641 -0.0095,0.07827 -0.05865,0.17247 -0.154297,0.234375 -0.148998,0.09638 -0.389922,0.0775 -0.597656,-0.06836 -0.08638,-0.06066 -0.175715,-0.119323 -0.267579,-0.173828 l -4.003906,-2.373047 c -1.310827,-0.776715 -2.954714,-0.776697 -4.265625,0 l -4.005859,2.373047 c -1.22546,0.726202 -1.962891,2.020213 -1.962891,3.396484 v 5.1875 c 0,1.376271 0.739334,2.670366 1.964844,3.396484 l 4.003906,2.373047 c 1.310916,0.776814 2.954793,0.776832 4.265625,0 l 4.003906,-2.373047 c 0.06253,-0.03706 0.123604,-0.07528 0.183594,-0.115234 0.206878,-0.137797 0.441029,-0.15568 0.587891,-0.0625 0.09965,0.06324 0.15097,0.159962 0.160156,0.240234 0.0092,0.08027 -0.0025,0.128581 -0.07813,0.1875 C 31.84333,30.363839 31.676485,30.477427 31.5,30.582031 l -4.003906,2.373047 c -1.525798,0.904059 -3.442953,0.904059 -4.96875,0 L 18.523437,30.582031 C 18.021514,30.284572 17.588622,29.905697 17.238281,29.46875 h -0.002 C 16.9615,29.127213 16.468365,28.99729 16.058594,29.212891 l -2.21875,1.166015 c -0.468175,0.246374 -0.641352,0.883288 -0.316406,1.326172 0.520208,0.709089 1.187681,1.322429 1.978515,1.791016 l 6.005859,3.558593 c 2.152362,1.275466 4.853499,1.275466 7.00586,0 l 6.005859,-3.558593 c 0.422975,-0.250612 0.811137,-0.543476 1.160156,-0.869141 0.16379,-0.152888 0.388232,-0.180954 0.541016,-0.08398 0.184387,0.117021 0.219185,0.305581 0.08594,0.4375 -0.42433,0.42021 -0.905325,0.793282 -1.435547,1.107422 l -6.00586,3.560546 c -2.367496,1.402854 -5.339534,1.402854 -7.707031,0 l -6.007812,-3.560546 c -2.222476,-1.316874 -3.572266,-3.664948 -3.572266,-6.197266 v -7.78125 c 0,-2.532211 1.34979,-4.880392 3.572266,-6.197266 l 6.007812,-3.560546 c 1.183749,-0.7014225 2.518621,-1.0507818 3.853516,-1.0507817 z m -1.59375,0.8730467 c -0.662845,0.157112 -1.308825,0.41524 -1.910157,0.771485 l -6.005859,3.558593 c -2.015931,1.19445 -3.236328,3.325801 -3.236328,5.605469 v 7.78125 c 0,0.398884 0.03886,0.793902 0.111328,1.179687 0.110118,0.587519 0.794362,0.883918 1.304688,0.615235 l 2.15625,-1.136719 c 0.382689,-0.201244 0.561287,-0.633514 0.478515,-1.033203 -0.06212,-0.300752 -0.09375,-0.608606 -0.09375,-0.921875 v -5.1875 c 0,-1.628803 0.868582,-3.139601 2.300781,-3.988281 l 4.003907,-2.373047 c 0.401641,-0.237939 0.83012,-0.412669 1.271484,-0.525391 0.405508,-0.103591 0.71875,-0.470574 0.71875,-0.912109 v -2.546875 c 0,-0.557425 -0.538188,-1.019787 -1.099609,-0.886719 z m 0.09961,1.027344 v 2.363281 c -0.519873,0.136146 -1.025932,0.338295 -1.5,0.619141 l -4.003906,2.373047 c -1.728597,1.024317 -2.791016,2.864616 -2.791016,4.849609 v 5.1875 c 0,0.369984 0.04022,0.734238 0.111328,1.089844 l -1.988281,1.048828 c -0.04404,-0.277403 -0.08008,-0.556828 -0.08008,-0.841797 v -7.78125 c 0,-1.923527 1.026028,-3.724993 2.746094,-4.744141 l 6.005859,-3.560546 c 0.471891,-0.279561 0.981501,-0.467483 1.5,-0.603516 z"
       id="path126" />
  </g>
  <g
     id="path4">
    <path
       style="color:#000000;clip-rule:evenodd;fill:#000000;fill-rule:evenodd;-inkscape-stroke:none"
       d="m 26.5572,19.4164 c -0.8222,-0.4872 -1.8532,-0.4872 -2.6754,0 l -1.9556,1.1588 c -0.7718,0.4573 -1.2433,1.2757 -1.2433,2.1581 v 2.5333 c 0,0.8825 0.4715,1.7009 1.2433,2.1582 l 1.9556,1.1588 c 0.8222,0.4872 1.8532,0.4872 2.6754,0 l 1.9556,-1.1588 c 0.7719,-0.4573 1.2433,-1.2757 1.2433,-2.1582 v -2.5333 c 0,-0.8824 -0.4714,-1.7008 -1.2433,-2.1581 z m 1.1146,2.578 -1.9556,-1.1588 c -0.3036,-0.1799 -0.6897,-0.1799 -0.9934,0 l -1.9556,1.1588 c -0.2809,0.1664 -0.4346,0.4511 -0.4346,0.7389 v 2.5333 c 0,0.2879 0.1537,0.5726 0.4346,0.739 l 1.9556,1.1588 c 0.3037,0.1799 0.6898,0.1799 0.9934,0 l 1.9556,-1.1588 c 0.2809,-0.1664 0.4346,-0.4511 0.4346,-0.739 v -2.5333 c 0,-0.2878 -0.1537,-0.5725 -0.4346,-0.7389 z"
       id="path118" />
    <path
       style="color:#000000;clip-rule:evenodd;fill:#000000;fill-rule:evenodd;-inkscape-stroke:none"
       d="m 25.21875,18.550781 c -0.551318,0 -1.101845,0.145223 -1.591797,0.435547 l -1.955078,1.158203 c -0.920041,0.545135 -1.488281,1.527379 -1.488281,2.587891 v 2.533203 c 0,1.060591 0.56824,2.044709 1.488281,2.589844 l 1.955078,1.158203 c 0.979905,0.580649 2.205642,0.580649 3.185547,0 l 1.955078,-1.158203 c 0.920163,-0.545136 1.488281,-1.52929 1.488281,-2.589844 v -2.533203 c 0,-1.060474 -0.568118,-2.042755 -1.488281,-2.587891 L 26.8125,18.986328 c -0.489952,-0.290324 -1.042432,-0.435547 -1.59375,-0.435547 z m 0,1 c 0.375281,0 0.751738,0.09805 1.083984,0.294922 l 1.955078,1.160156 c 0.623636,0.369463 0.998047,1.022239 0.998047,1.726563 v 2.533203 c 0,0.704445 -0.374411,1.359053 -0.998047,1.728516 l -1.955078,1.160156 c -0.664493,0.39375 -1.501522,0.39375 -2.166015,0 l -1.955078,-1.160156 c -0.623558,-0.369465 -0.998047,-1.024109 -0.998047,-1.728516 v -2.533203 c 0,-0.704287 0.374489,-1.357098 0.998047,-1.726563 l 1.955078,-1.160156 c 0.332247,-0.196875 0.70675,-0.294922 1.082031,-0.294922 z m -0.75,0.855469 -1.957031,1.158203 c -0.427254,0.253097 -0.679688,0.702152 -0.679688,1.167969 v 2.533203 c 0,0.465855 0.252434,0.916825 0.679688,1.169922 l 1.957031,1.158203 c 0.463578,0.274605 1.038411,0.274675 1.501953,0 l 1.955078,-1.158203 c 0.427254,-0.253097 0.679688,-0.704067 0.679688,-1.169922 v -2.533203 c 0,-0.465817 -0.252434,-0.914872 -0.679688,-1.167969 L 25.970703,20.40625 c -0.463542,-0.274675 -1.038375,-0.274605 -1.501953,0 z m 0.509766,0.859375 c 0.143821,-0.08519 0.338764,-0.08513 0.482421,0 l 1.955079,1.158203 c 0.134546,0.0797 0.189453,0.198811 0.189453,0.308594 v 2.533203 c 0,0.109945 -0.05491,0.230844 -0.189453,0.310547 l -1.955079,1.158203 c -0.143657,0.08513 -0.3386,0.08519 -0.482421,0 l -1.957032,-1.158203 c -0.134546,-0.0797 -0.189453,-0.200602 -0.189453,-0.310547 v -2.533203 c 0,-0.109783 0.05491,-0.228891 0.189453,-0.308594 z"
       id="path120" />
  </g>
</svg>
