<svg width="48" height="48" xmlns="http://www.w3.org/2000/svg" fill="none">
 <g>
  <path stroke="null" id="svg_1" fill="black" d="m20.90268,9.92206c2.52521,-1.49629 5.69166,-1.49629 8.21687,0l6.00638,3.55905c0.58609,0.34728 1.11582,0.76233 1.5812,1.23138c0.35323,0.35606 0.25376,0.93439 -0.16729,1.20685c-0.36535,0.23636 -0.84585,0.15538 -1.16133,-0.14432c-0.33297,-0.31633 -0.70546,-0.59914 -1.11354,-0.84095l-6.00634,-3.55903c-0.65289,-0.38686 -1.36067,-0.64707 -2.08736,-0.78064c-0.24709,-0.04542 -0.46559,0.15137 -0.46559,0.40263l0,2.54323c0,0.21221 0.158,0.38967 0.36607,0.4313c0.58381,0.11687 1.15196,0.33124 1.67835,0.64314l4.00423,2.3727c0.23341,0.13828 0.45343,0.29273 0.65884,0.46132c0.40348,0.33107 0.31013,0.94013 -0.12806,1.22365c-0.35277,0.22826 -0.8127,0.16133 -1.15656,-0.0801c-0.07587,-0.05328 -0.15428,-0.10399 -0.23518,-0.15192l-4.00423,-2.3727c-1.15259,-0.68295 -2.60345,-0.68295 -3.75604,0l-4.00423,2.3727c-1.07778,0.63862 -1.71783,1.7679 -1.71783,2.96606l0,5.18714c0,1.19815 0.64005,2.32744 1.71783,2.96606l4.00423,2.37266c1.15259,0.68299 2.60345,0.68299 3.75604,0l4.00423,-2.37266c0.05502,-0.0326 0.10889,-0.0665 0.16163,-0.10159c0.34082,-0.22699 0.78703,-0.28673 1.13275,-0.0673c0.45195,0.28682 0.54417,0.91429 0.12198,1.24329c-0.17535,0.13663 -0.36071,0.26322 -0.5554,0.37857l-4.00423,2.3727c-1.6835,0.99751 -3.79447,0.99751 -5.47797,0l-4.00423,-2.3727c-0.5543,-0.32845 -1.03293,-0.74781 -1.42079,-1.23189c-0.13372,-0.16686 -0.36615,-0.22576 -0.5554,-0.12616l-2.21864,1.16771c-0.21714,0.1143 -0.29246,0.38988 -0.14731,0.58774c0.48062,0.65517 1.09871,1.22171 1.8315,1.65593l6.00638,3.55903c1.9943,1.18173 4.50064,1.18173 6.49498,0l6.00634,-3.55903c0.39195,-0.23222 0.7511,-0.50237 1.07389,-0.80362c0.31409,-0.29311 0.78703,-0.37236 1.14972,-0.14216c0.4289,0.27217 0.53023,0.85915 0.16927,1.21656c-0.45339,0.44891 -0.96639,0.84711 -1.53192,1.18219l-6.00638,3.55903c-2.52521,1.49633 -5.69166,1.49633 -8.21687,0l-6.00638,-3.55903c-2.37067,-1.40471 -3.81866,-3.91818 -3.81866,-6.62853l0,-7.78071c0,-2.71036 1.44799,-5.22383 3.81866,-6.62853l6.00638,-3.55905zm2.62992,0.73927c0.25228,-0.05978 0.48417,0.13915 0.48417,0.39841l0,2.54846c0,0.20326 -0.14529,0.37587 -0.34221,0.4262c-0.48666,0.12435 -0.95934,0.31777 -1.40243,0.58031l-4.00423,2.3727c-1.58044,0.93646 -2.54577,2.6121 -2.54577,4.41902l0,5.18714c0,0.34762 0.03572,0.69042 0.10471,1.02403c0.04024,0.1946 -0.04539,0.39698 -0.22125,0.48953l-2.15713,1.13532c-0.23781,0.12515 -0.53124,-0.00093 -0.58081,-0.26503c-0.06674,-0.35564 -0.10112,-0.71931 -0.10112,-1.08706l0,-7.78071c0,-2.10163 1.12271,-4.0687 2.99071,-5.17557l6.00638,-3.55903c0.55713,-0.33013 1.15424,-0.56803 1.76896,-0.71371z" clip-rule="evenodd" fill-rule="evenodd"/>
  <path stroke="null" id="svg_2" fill="black" d="m26.55719,19.4164c-0.82219,-0.48719 -1.85315,-0.48719 -2.67535,0l-1.9556,1.15877c-0.77188,0.45737 -1.24331,1.27573 -1.24331,2.15818l0,2.53331c0,0.88245 0.47143,1.70081 1.24331,2.15818l1.9556,1.15877c0.82219,0.48719 1.85315,0.48719 2.67535,0l1.9556,-1.15877c0.77188,-0.45737 1.24331,-1.27573 1.24331,-2.15818l0,-2.53331c0,-0.88245 -0.47143,-1.70081 -1.24331,-2.15818l-1.9556,-1.15877zm1.11464,2.57798l-1.9556,-1.15877c-0.30366,-0.17994 -0.68977,-0.17994 -0.99343,0l-1.9556,1.15877c-0.2809,0.16645 -0.4346,0.4511 -0.4346,0.73897l0,2.53331c0,0.28787 0.15371,0.57252 0.4346,0.73897l1.9556,1.15877c0.30366,0.17994 0.68977,0.17994 0.99343,0l1.9556,-1.15877c0.2809,-0.16645 0.4346,-0.4511 0.4346,-0.73897l0,-2.53331c0,-0.28787 -0.15371,-0.57252 -0.4346,-0.73897z" clip-rule="evenodd" fill-rule="evenodd"/>
 </g>
</svg>