<svg xmlns="http://www.w3.org/2000/svg" viewBox="0 0 48 29">
  <path fill-rule="evenodd" clip-rule="evenodd" d="M33.79 0c-7.848 0-14.21 6.362-14.21 14.21 0 7.848 6.362 14.21 14.21 14.21 7.848 0 14.21-6.362 14.21-14.21C48 6.362 41.638 0 33.79 0Zm4.928 6.605a1.08 1.08 0 0 1-1.082 1.08 1.08 1.08 0 0 1-1.082-1.08 1.08 1.08 0 0 1 1.082-1.079 1.08 1.08 0 0 1 1.082 1.08Zm.135 16.323a1.08 1.08 0 0 0 1.082-1.079 1.08 1.08 0 0 0-1.082-1.079 1.08 1.08 0 0 0-1.082 1.08 1.08 1.08 0 0 0 1.082 1.078Zm0-13.451c0 .5-.406.905-.908.905a.907.907 0 1 1 .908-.905Zm1.508 1.252a.907.907 0 1 0-.909-.905c0 .5.407.905.909.905Zm-1.952 1.176a.772.772 0 1 1-1.544-.002.772.772 0 0 1 1.544.002Zm1.642 1.099a.772.772 0 1 0 .002-1.544.772.772 0 0 0-.002 1.544Zm2.705-.02a.772.772 0 1 1-1.544-.002.772.772 0 0 1 1.544.002Zm-3.42 1.87a.675.675 0 1 0 .002-1.351.675.675 0 0 0-.002 1.35Zm-1.739-1.003a.675.675 0 1 1-1.35-.002.675.675 0 0 1 1.35.002Zm3.69 1.754a.675.675 0 1 0 .002-1.35.675.675 0 0 0-.001 1.35Zm-2.337.077a.579.579 0 1 1-1.158-.001.579.579 0 0 1 1.158.001Zm1.372 1.31a.579.579 0 1 0 .001-1.157.579.579 0 0 0-.001 1.158Zm-3.768-1.657a.579.579 0 1 1-1.158-.002.579.579 0 0 1 1.158.002Zm.753 1.87a.482.482 0 1 0 .002-.965.482.482 0 0 0-.002.965Zm1.256.905a.424.424 0 1 1-.849 0 .424.424 0 0 1 .85 0Zm-1.449.694a.347.347 0 1 0 .001-.694.347.347 0 0 0 0 .694Zm-.483-1.426a.424.424 0 1 1-.849-.001.424.424 0 0 1 .85.001Zm-1.739-.5a.482.482 0 1 0 .002-.966.482.482 0 0 0-.002.965Zm.464-4.106a.482.482 0 1 1-.965-.001.482.482 0 0 1 .965 0Zm-.27-1.214a.424.424 0 1 0 0-.85.424.424 0 0 0 0 .85Zm.811-1.735a.347.347 0 1 1-.695 0 .347.347 0 0 1 .695 0Zm-1.16-.308a.425.425 0 1 0 .002-.849.425.425 0 0 0-.001.85Zm4.986 7.94a.482.482 0 1 1-.965-.001.482.482 0 0 1 .965.001Zm-6.087-8.499a.482.482 0 1 0 .002-.964.482.482 0 0 0-.002.964Zm.812 1.561a.482.482 0 1 1-.965 0 .482.482 0 0 1 .965 0Zm-1.024 2.428a.579.579 0 1 0 .002-1.157.579.579 0 0 0-.002 1.157Zm-1.082-.674a.675.675 0 1 1-1.351-.002.675.675 0 0 1 1.35.002Zm-2.724 1.137a.772.772 0 1 0 .002-1.544.772.772 0 0 0-.002 1.544Zm-1.333.193c0 .5-.407.906-.909.906a.907.907 0 1 1 .909-.906Zm-3.227 2.756a1.08 1.08 0 0 0 1.082-1.08 1.08 1.08 0 0 0-1.082-1.079 1.08 1.08 0 0 0-1.082 1.08 1.08 1.08 0 0 0 1.082 1.079Zm2.319-5.01a.907.907 0 1 1-1.814-.003.907.907 0 0 1 1.814.002Zm1.332-.194a.772.772 0 1 0 .002-1.544.772.772 0 0 0-.002 1.544Zm.445-2.813a.772.772 0 1 1-1.544-.002.772.772 0 0 1 1.544.002Zm1.275.308a.675.675 0 1 0 .002-1.35.675.675 0 0 0-.002 1.35Zm2.338-.578a.579.579 0 1 1-1.158-.002.579.579 0 0 1 1.158.002Zm-.251 2.62a.579.579 0 1 0 .001-1.157.579.579 0 0 0-.001 1.158Zm-1.082-.654a.675.675 0 1 1-1.35-.002.675.675 0 0 1 1.35.002Zm-2.59 5.8a.347.347 0 1 0 .002-.694.347.347 0 0 0-.001.694Zm1.817-.597a.424.424 0 1 1-.849-.001.424.424 0 0 1 .849.001Zm1.101-.154a.482.482 0 1 0 .001-.965.482.482 0 0 0 0 .965Zm.947.963a.579.579 0 1 1-1.158-.001.579.579 0 0 1 1.158.001Zm-2.434.945a.482.482 0 1 0 .001-.965.482.482 0 0 0-.001.965Zm-1.218-.444a.424.424 0 1 1-.849 0 .424.424 0 0 1 .85 0Zm-.406 1.754a.482.482 0 1 0 .002-.965.482.482 0 0 0-.002.965Zm2.55-.328a.579.579 0 1 1-1.157-.001.579.579 0 0 1 1.158.001Zm1.72.328a.675.675 0 1 0 .002-1.35.675.675 0 0 0-.001 1.35Zm2.126.906a.772.772 0 1 1-1.544-.002.772.772 0 0 1 1.544.002Zm-3.613 1.002a.675.675 0 1 0 .002-1.35.675.675 0 0 0-.002 1.35Zm-.928.636a.675.675 0 1 1-1.35-.002.675.675 0 0 1 1.35.002Zm.657 2.37a.772.772 0 1 0 .002-1.544.772.772 0 0 0-.002 1.544Zm4.464-.597c0 .5-.407.906-.909.906a.907.907 0 1 1 .909-.906Zm-2.86-.713a.772.772 0 1 0 .002-1.544.772.772 0 0 0-.002 1.544Zm4.347-1.214a.907.907 0 1 1-1.814-.003.907.907 0 0 1 1.814.003Zm-8.095-.829a.579.579 0 1 0 .001-1.158.579.579 0 0 0-.002 1.158Z"/>
  <path d="M23.67 3.9A14.157 14.157 0 0 0 14.21.293C6.362.293 0 6.656 0 14.503c0 7.849 6.362 14.211 14.21 14.211a14.16 14.16 0 0 0 9.436-3.584 14.782 14.782 0 0 1-.826-.819 13 13 0 0 1-8.61 3.243c-7.207 0-13.05-5.843-13.05-13.05 0-7.208 5.843-13.05 13.05-13.05a13 13 0 0 1 8.633 3.262c.265-.283.54-.555.827-.816Z"/>
</svg>
