<svg width="48" height="48" viewBox="0 0 48 48" fill="none" xmlns="http://www.w3.org/2000/svg">
<path d="M30.5882 13.1675C31.5343 13.1675 32.3014 12.4025 32.3014 11.4588C32.3014 10.515 31.5343 9.75 30.5882 9.75C29.642 9.75 28.875 10.515 28.875 11.4588C28.875 12.4025 29.642 13.1675 30.5882 13.1675Z" fill="black"/>
<path d="M32.5159 37.3042C33.4621 37.3042 34.2291 36.5391 34.2291 35.5954C34.2291 34.6517 33.4621 33.8867 32.5159 33.8867C31.5697 33.8867 30.8027 34.6517 30.8027 35.5954C30.8027 36.5391 31.5697 37.3042 32.5159 37.3042Z" fill="black"/>
<path d="M31.0765 17.4396C31.8706 17.4396 32.5144 16.7975 32.5144 16.0054C32.5144 15.2134 31.8706 14.5713 31.0765 14.5713C30.2824 14.5713 29.6387 15.2134 29.6387 16.0054C29.6387 16.7975 30.2824 17.4396 31.0765 17.4396Z" fill="black"/>
<path d="M34.9027 17.9887C35.6968 17.9887 36.3405 17.3466 36.3405 16.5545C36.3405 15.7625 35.6968 15.1204 34.9027 15.1204C34.1086 15.1204 33.4648 15.7625 33.4648 16.5545C33.4648 17.3466 34.1086 17.9887 34.9027 17.9887Z" fill="black"/>
<path d="M30.5889 21.0706C31.2648 21.0706 31.8126 20.5242 31.8126 19.8501C31.8126 19.176 31.2648 18.6295 30.5889 18.6295C29.9131 18.6295 29.3652 19.176 29.3652 19.8501C29.3652 20.5242 29.9131 21.0706 30.5889 21.0706Z" fill="black"/>
<path d="M34.4112 21.5896C35.087 21.5896 35.6349 21.0431 35.6349 20.369C35.6349 19.695 35.087 19.1485 34.4112 19.1485C33.7354 19.1485 33.1875 19.695 33.1875 20.369C33.1875 21.0431 33.7354 21.5896 34.4112 21.5896Z" fill="black"/>
<path d="M37.4718 22.7795C38.1476 22.7795 38.6955 22.233 38.6955 21.5589C38.6955 20.8848 38.1476 20.3384 37.4718 20.3384C36.7959 20.3384 36.248 20.8848 36.248 21.5589C36.248 22.233 36.7959 22.7795 37.4718 22.7795Z" fill="black"/>
<path d="M33.2797 24.5187C33.8711 24.5187 34.3505 24.0406 34.3505 23.4507C34.3505 22.8609 33.8711 22.3828 33.2797 22.3828C32.6884 22.3828 32.209 22.8609 32.209 23.4507C32.209 24.0406 32.6884 24.5187 33.2797 24.5187Z" fill="black"/>
<path d="M29.4555 23.9997C30.0469 23.9997 30.5262 23.5216 30.5262 22.9318C30.5262 22.3419 30.0469 21.8638 29.4555 21.8638C28.8642 21.8638 28.3848 22.3419 28.3848 22.9318C28.3848 23.5216 28.8642 23.9997 29.4555 23.9997Z" fill="black"/>
<path d="M36.3696 25.7086C36.9609 25.7086 37.4403 25.2304 37.4403 24.6406C37.4403 24.0508 36.9609 23.5726 36.3696 23.5726C35.7782 23.5726 35.2988 24.0508 35.2988 24.6406C35.2988 25.2304 35.7782 25.7086 36.3696 25.7086Z" fill="black"/>
<path d="M31.7498 26.746C32.2567 26.746 32.6676 26.3361 32.6676 25.8306C32.6676 25.325 32.2567 24.9152 31.7498 24.9152C31.2429 24.9152 30.832 25.325 30.832 25.8306C30.832 26.3361 31.2429 26.746 31.7498 26.746Z" fill="black"/>
<path d="M34.8397 27.9057C35.3465 27.9057 35.7574 27.4958 35.7574 26.9902C35.7574 26.4847 35.3465 26.0748 34.8397 26.0748C34.3328 26.0748 33.9219 26.4847 33.9219 26.9902C33.9219 27.4958 34.3328 27.9057 34.8397 27.9057Z" fill="black"/>
<path d="M27.9568 26.1966C28.4637 26.1966 28.8746 25.7868 28.8746 25.2812C28.8746 24.7756 28.4637 24.3658 27.9568 24.3658C27.45 24.3658 27.0391 24.7756 27.0391 25.2812C27.0391 25.7868 27.45 26.1966 27.9568 26.1966Z" fill="black"/>
<path d="M30.0676 28.2414C30.49 28.2414 30.8324 27.8999 30.8324 27.4786C30.8324 27.0573 30.49 26.7158 30.0676 26.7158C29.6452 26.7158 29.3027 27.0573 29.3027 27.4786C29.3027 27.8999 29.6452 28.2414 30.0676 28.2414Z" fill="black"/>
<path d="M31.384 30.3468C31.7557 30.3468 32.057 30.0463 32.057 29.6755C32.057 29.3048 31.7557 29.0042 31.384 29.0042C31.0123 29.0042 30.7109 29.3048 30.7109 29.6755C30.7109 30.0463 31.0123 30.3468 31.384 30.3468Z" fill="black"/>
<path d="M29.7616 30.7742C30.0657 30.7742 30.3123 30.5283 30.3123 30.225C30.3123 29.9216 30.0657 29.6757 29.7616 29.6757C29.4575 29.6757 29.2109 29.9216 29.2109 30.225C29.2109 30.5283 29.4575 30.7742 29.7616 30.7742Z" fill="black"/>
<path d="M28.3234 29.1872C28.6951 29.1872 28.9965 28.8867 28.9965 28.5159C28.9965 28.1452 28.6951 27.8446 28.3234 27.8446C27.9517 27.8446 27.6504 28.1452 27.6504 28.5159C27.6504 28.8867 27.9517 29.1872 28.3234 29.1872Z" fill="black"/>
<path d="M26.2433 27.7228C26.6657 27.7228 27.0081 27.3812 27.0081 26.9599C27.0081 26.5386 26.6657 26.1971 26.2433 26.1971C25.8209 26.1971 25.4785 26.5386 25.4785 26.9599C25.4785 27.3812 25.8209 27.7228 26.2433 27.7228Z" fill="black"/>
<path d="M26.2121 21.9857C26.6345 21.9857 26.9769 21.6442 26.9769 21.2229C26.9769 20.8016 26.6345 20.46 26.2121 20.46C25.7897 20.46 25.4473 20.8016 25.4473 21.2229C25.4473 21.6442 25.7897 21.9857 26.2121 21.9857Z" fill="black"/>
<path d="M26.55 19.3006C26.9217 19.3006 27.223 19.0001 27.223 18.6293C27.223 18.2586 26.9217 17.958 26.55 17.958C26.1783 17.958 25.877 18.2586 25.877 18.6293C25.877 19.0001 26.1783 19.3006 26.55 19.3006Z" fill="black"/>
<path d="M27.2831 17.1036C27.5872 17.1036 27.8338 16.8577 27.8338 16.5544C27.8338 16.251 27.5872 16.0051 27.2831 16.0051C26.979 16.0051 26.7324 16.251 26.7324 16.5544C26.7324 16.8577 26.979 17.1036 27.2831 17.1036Z" fill="black"/>
<path d="M25.9992 16.0664C26.3709 16.0664 26.6722 15.7658 26.6722 15.3951C26.6722 15.0243 26.3709 14.7238 25.9992 14.7238C25.6275 14.7238 25.3262 15.0243 25.3262 15.3951C25.3262 15.7658 25.6275 16.0664 25.9992 16.0664Z" fill="black"/>
<path d="M33.1261 29.4006C33.5485 29.4006 33.891 29.0591 33.891 28.6378C33.891 28.2165 33.5485 27.8749 33.1261 27.8749C32.7037 27.8749 32.3613 28.2165 32.3613 28.6378C32.3613 29.0591 32.7037 29.4006 33.1261 29.4006Z" fill="black"/>
<path d="M24.2551 15.1814C24.6774 15.1814 25.0199 14.8399 25.0199 14.4186C25.0199 13.9973 24.6774 13.6558 24.2551 13.6558C23.8327 13.6558 23.4902 13.9973 23.4902 14.4186C23.4902 14.8399 23.8327 15.1814 24.2551 15.1814Z" fill="black"/>
<path d="M24.7746 18.416C25.197 18.416 25.5394 18.0745 25.5394 17.6532C25.5394 17.2319 25.197 16.8903 24.7746 16.8903C24.3522 16.8903 24.0098 17.2319 24.0098 17.6532C24.0098 18.0745 24.3522 18.416 24.7746 18.416Z" fill="black"/>
<path d="M23.9197 21.4977C24.4266 21.4977 24.8375 21.0878 24.8375 20.5823C24.8375 20.0767 24.4266 19.6669 23.9197 19.6669C23.4129 19.6669 23.002 20.0767 23.002 20.5823C23.002 21.0878 23.4129 21.4977 23.9197 21.4977Z" fill="black"/>
<path d="M21.1352 21.4975C21.7265 21.4975 22.2059 21.0194 22.2059 20.4296C22.2059 19.8397 21.7265 19.3616 21.1352 19.3616C20.5438 19.3616 20.0645 19.8397 20.0645 20.4296C20.0645 21.0194 20.5438 21.4975 21.1352 21.4975Z" fill="black"/>
<path d="M17.8917 22.2302C18.5675 22.2302 19.1154 21.6838 19.1154 21.0097C19.1154 20.3356 18.5675 19.7891 17.8917 19.7891C17.2158 19.7891 16.668 20.3356 16.668 21.0097C16.668 21.6838 17.2158 22.2302 17.8917 22.2302Z" fill="black"/>
<path d="M14.3441 23.9697C15.1382 23.9697 15.782 23.3276 15.782 22.5355C15.782 21.7435 15.1382 21.1014 14.3441 21.1014C13.55 21.1014 12.9062 21.7435 12.9062 22.5355C12.9062 23.3276 13.55 23.9697 14.3441 23.9697Z" fill="black"/>
<path d="M10.6722 26.8987C11.6183 26.8987 12.3854 26.1337 12.3854 25.19C12.3854 24.2462 11.6183 23.4812 10.6722 23.4812C9.72601 23.4812 8.95898 24.2462 8.95898 25.19C8.95898 26.1337 9.72601 26.8987 10.6722 26.8987Z" fill="black"/>
<path d="M12.9066 20.3994C13.7007 20.3994 14.3445 19.7573 14.3445 18.9652C14.3445 18.1732 13.7007 17.5311 12.9066 17.5311C12.1125 17.5311 11.4688 18.1732 11.4688 18.9652C11.4688 19.7573 12.1125 20.3994 12.9066 20.3994Z" fill="black"/>
<path d="M16.4542 18.6599C17.13 18.6599 17.6779 18.1135 17.6779 17.4394C17.6779 16.7653 17.13 16.2188 16.4542 16.2188C15.7783 16.2188 15.2305 16.7653 15.2305 17.4394C15.2305 18.1135 15.7783 18.6599 16.4542 18.6599Z" fill="black"/>
<path d="M15.9346 15.4254C16.6105 15.4254 17.1583 14.8789 17.1583 14.2048C17.1583 13.5307 16.6105 12.9843 15.9346 12.9843C15.2588 12.9843 14.7109 13.5307 14.7109 14.2048C14.7109 14.8789 15.2588 15.4254 15.9346 15.4254Z" fill="black"/>
<path d="M19.1762 14.6932C19.7676 14.6932 20.2469 14.215 20.2469 13.6252C20.2469 13.0353 19.7676 12.5572 19.1762 12.5572C18.5849 12.5572 18.1055 13.0353 18.1055 13.6252C18.1055 14.215 18.5849 14.6932 19.1762 14.6932Z" fill="black"/>
<path d="M21.9607 14.6932C22.4676 14.6932 22.8785 14.2833 22.8785 13.7778C22.8785 13.2722 22.4676 12.8624 21.9607 12.8624C21.4539 12.8624 21.043 13.2722 21.043 13.7778C21.043 14.2833 21.4539 14.6932 21.9607 14.6932Z" fill="black"/>
<path d="M22.4803 17.9274C22.9872 17.9274 23.3981 17.5175 23.3981 17.012C23.3981 16.5064 22.9872 16.0966 22.4803 16.0966C21.9734 16.0966 21.5625 16.5064 21.5625 17.012C21.5625 17.5175 21.9734 17.9274 22.4803 17.9274Z" fill="black"/>
<path d="M19.6977 17.9582C20.289 17.9582 20.7684 17.4801 20.7684 16.8902C20.7684 16.3004 20.289 15.8223 19.6977 15.8223C19.1063 15.8223 18.627 16.3004 18.627 16.8902C18.627 17.4801 19.1063 17.9582 19.6977 17.9582Z" fill="black"/>
<path d="M16.6679 26.0748C16.972 26.0748 17.2185 25.8288 17.2185 25.5255C17.2185 25.2222 16.972 24.9763 16.6679 24.9763C16.3637 24.9763 16.1172 25.2222 16.1172 25.5255C16.1172 25.8288 16.3637 26.0748 16.6679 26.0748Z" fill="black"/>
<path d="M18.8703 25.8004C19.242 25.8004 19.5433 25.4998 19.5433 25.1291C19.5433 24.7583 19.242 24.4578 18.8703 24.4578C18.4986 24.4578 18.1973 24.7583 18.1973 25.1291C18.1973 25.4998 18.4986 25.8004 18.8703 25.8004Z" fill="black"/>
<path d="M21.2883 24.8851C21.7106 24.8851 22.0531 24.5436 22.0531 24.1223C22.0531 23.701 21.7106 23.3594 21.2883 23.3594C20.8659 23.3594 20.5234 23.701 20.5234 24.1223C20.5234 24.5436 20.8659 24.8851 21.2883 24.8851Z" fill="black"/>
<path d="M21.869 27.3259C22.3758 27.3259 22.7867 26.9161 22.7867 26.4105C22.7867 25.905 22.3758 25.4951 21.869 25.4951C21.3621 25.4951 20.9512 25.905 20.9512 26.4105C20.9512 26.9161 21.3621 27.3259 21.869 27.3259Z" fill="black"/>
<path d="M18.9328 27.9055C19.3552 27.9055 19.6976 27.564 19.6976 27.1427C19.6976 26.7214 19.3552 26.3798 18.9328 26.3798C18.5104 26.3798 18.168 26.7214 18.168 27.1427C18.168 27.564 18.5104 27.9055 18.9328 27.9055Z" fill="black"/>
<path d="M16.3312 27.875C16.703 27.875 17.0043 27.5744 17.0043 27.2037C17.0043 26.8329 16.703 26.5323 16.3312 26.5323C15.9595 26.5323 15.6582 26.8329 15.6582 27.2037C15.6582 27.5744 15.9595 27.875 16.3312 27.875Z" fill="black"/>
<path d="M16.3625 29.9806C16.7849 29.9806 17.1273 29.6391 17.1273 29.2178C17.1273 28.7965 16.7849 28.455 16.3625 28.455C15.9401 28.455 15.5977 28.7965 15.5977 29.2178C15.5977 29.6391 15.9401 29.9806 16.3625 29.9806Z" fill="black"/>
<path d="M19.4822 30.3772C19.9891 30.3772 20.4 29.9674 20.4 29.4618C20.4 28.9562 19.9891 28.5464 19.4822 28.5464C18.9754 28.5464 18.5645 28.9562 18.5645 29.4618C18.5645 29.9674 18.9754 30.3772 19.4822 30.3772Z" fill="black"/>
<path d="M23.1235 29.9806C23.7148 29.9806 24.1942 29.5024 24.1942 28.9126C24.1942 28.3228 23.7148 27.8446 23.1235 27.8446C22.5321 27.8446 22.0527 28.3228 22.0527 28.9126C22.0527 29.5024 22.5321 29.9806 23.1235 29.9806Z" fill="black"/>
<path d="M25.2647 32.6351C25.9406 32.6351 26.4884 32.0886 26.4884 31.4145C26.4884 30.7404 25.9406 30.194 25.2647 30.194C24.5889 30.194 24.041 30.7404 24.041 31.4145C24.041 32.0886 24.5889 32.6351 25.2647 32.6351Z" fill="black"/>
<path d="M20.768 33.0014C21.3594 33.0014 21.8387 32.5233 21.8387 31.9335C21.8387 31.3436 21.3594 30.8655 20.768 30.8655C20.1767 30.8655 19.6973 31.3436 19.6973 31.9335C19.6973 32.5233 20.1767 33.0014 20.768 33.0014Z" fill="black"/>
<path d="M18.2289 35.0762C18.8203 35.0762 19.2997 34.5981 19.2997 34.0082C19.2997 33.4184 18.8203 32.9402 18.2289 32.9402C17.6376 32.9402 17.1582 33.4184 17.1582 34.0082C17.1582 34.5981 17.6376 35.0762 18.2289 35.0762Z" fill="black"/>
<path d="M20.3389 37.7617C21.0148 37.7617 21.5626 37.2152 21.5626 36.5411C21.5626 35.867 21.0148 35.3206 20.3389 35.3206C19.6631 35.3206 19.1152 35.867 19.1152 36.5411C19.1152 37.2152 19.6631 37.7617 20.3389 37.7617Z" fill="black"/>
<path d="M25.9691 38.25C26.7632 38.25 27.407 37.6079 27.407 36.8159C27.407 36.0238 26.7632 35.3817 25.9691 35.3817C25.175 35.3817 24.5312 36.0238 24.5312 36.8159C24.5312 37.6079 25.175 38.25 25.9691 38.25Z" fill="black"/>
<path d="M22.878 35.6865C23.5538 35.6865 24.1017 35.1401 24.1017 34.466C24.1017 33.7919 23.5538 33.2454 22.878 33.2454C22.2022 33.2454 21.6543 33.7919 21.6543 34.466C21.6543 35.1401 22.2022 35.6865 22.878 35.6865Z" fill="black"/>
<path d="M28.3246 35.1987C29.1187 35.1987 29.7624 34.5566 29.7624 33.7645C29.7624 32.9725 29.1187 32.3304 28.3246 32.3304C27.5305 32.3304 26.8867 32.9725 26.8867 33.7645C26.8867 34.5566 27.5305 35.1987 28.3246 35.1987Z" fill="black"/>
<path d="M16.9432 32.4523C17.45 32.4523 17.8609 32.0425 17.8609 31.5369C17.8609 31.0314 17.45 30.6215 16.9432 30.6215C16.4363 30.6215 16.0254 31.0314 16.0254 31.5369C16.0254 32.0425 16.4363 32.4523 16.9432 32.4523Z" fill="black"/>
</svg>
