<svg width="48" height="29" viewBox="0 0 48 29" fill="none" xmlns="http://www.w3.org/2000/svg">
<path fill-rule="evenodd" clip-rule="evenodd" d="M33.7896 0C25.9415 0 19.5793 6.36218 19.5793 14.2103C19.5793 22.0585 25.9415 28.4207 33.7896 28.4207C41.6378 28.4207 48 22.0585 48 14.2103C48 6.36218 41.6378 0 33.7896 0ZM38.7179 6.60522C38.7179 7.20125 38.2334 7.68443 37.6359 7.68443C37.0383 7.68443 36.5539 7.20125 36.5539 6.60522C36.5539 6.00919 37.0383 5.52601 37.6359 5.52601C38.2334 5.52601 38.7179 6.00919 38.7179 6.60522ZM38.8531 22.9284C39.4507 22.9284 39.9351 22.4452 39.9351 21.8492C39.9351 21.2532 39.4507 20.77 38.8531 20.77C38.2555 20.77 37.7711 21.2532 37.7711 21.8492C37.7711 22.4452 38.2555 22.9284 38.8531 22.9284ZM38.8532 9.47674C38.8532 9.97698 38.4466 10.3825 37.9451 10.3825C37.4436 10.3825 37.037 9.97698 37.037 9.47674C37.037 8.9765 37.4436 8.57098 37.9451 8.57098C38.4466 8.57098 38.8532 8.9765 38.8532 9.47674ZM40.3605 10.7293C40.862 10.7293 41.2686 10.3238 41.2686 9.82355C41.2686 9.32331 40.862 8.91778 40.3605 8.91778C39.8589 8.91778 39.4524 9.32331 39.4524 9.82355C39.4524 10.3238 39.8589 10.7293 40.3605 10.7293ZM38.4089 11.9049C38.4089 12.3307 38.0629 12.6758 37.636 12.6758C37.2092 12.6758 36.8632 12.3307 36.8632 11.9049C36.8632 11.4792 37.2092 11.1341 37.636 11.1341C38.0629 11.1341 38.4089 11.4792 38.4089 11.9049ZM40.051 13.0036C40.4778 13.0036 40.8239 12.6584 40.8239 12.2327C40.8239 11.807 40.4778 11.4618 40.051 11.4618C39.6242 11.4618 39.2781 11.807 39.2781 12.2327C39.2781 12.6584 39.6242 13.0036 40.051 13.0036ZM42.7561 12.9842C42.7561 13.4099 42.4101 13.7551 41.9832 13.7551C41.5564 13.7551 41.2104 13.4099 41.2104 12.9842C41.2104 12.5585 41.5564 12.2133 41.9832 12.2133C42.4101 12.2133 42.7561 12.5585 42.7561 12.9842ZM39.3362 14.8535C39.7096 14.8535 40.0124 14.5515 40.0124 14.179C40.0124 13.8065 39.7096 13.5045 39.3362 13.5045C38.9627 13.5045 38.6599 13.8065 38.6599 14.179C38.6599 14.5515 38.9627 14.8535 39.3362 14.8535ZM37.5974 13.8512C37.5974 14.2237 37.2946 14.5257 36.9211 14.5257C36.5477 14.5257 36.2449 14.2237 36.2449 13.8512C36.2449 13.4787 36.5477 13.1767 36.9211 13.1767C37.2946 13.1767 37.5974 13.4787 37.5974 13.8512ZM41.2876 15.605C41.6611 15.605 41.9638 15.303 41.9638 14.9305C41.9638 14.558 41.6611 14.256 41.2876 14.256C40.9141 14.256 40.6114 14.558 40.6114 14.9305C40.6114 15.303 40.9141 15.605 41.2876 15.605ZM38.9499 15.682C38.9499 16.0014 38.6904 16.2602 38.3703 16.2602C38.0502 16.2602 37.7907 16.0014 37.7907 15.682C37.7907 15.3627 38.0502 15.1039 38.3703 15.1039C38.6904 15.1039 38.9499 15.3627 38.9499 15.682ZM40.3217 16.9926C40.6419 16.9926 40.9014 16.7338 40.9014 16.4145C40.9014 16.0951 40.6419 15.8363 40.3217 15.8363C40.0016 15.8363 39.7421 16.0951 39.7421 16.4145C39.7421 16.7338 40.0016 16.9926 40.3217 16.9926ZM36.5539 15.3351C36.5539 15.6544 36.2943 15.9132 35.9742 15.9132C35.6541 15.9132 35.3946 15.6544 35.3946 15.3351C35.3946 15.0158 35.6541 14.7569 35.9742 14.7569C36.2943 14.7569 36.5539 15.0158 36.5539 15.3351ZM37.3074 17.2047C37.5742 17.2047 37.7905 16.989 37.7905 16.7229C37.7905 16.4568 37.5742 16.2411 37.3074 16.2411C37.0407 16.2411 36.8244 16.4568 36.8244 16.7229C36.8244 16.989 37.0407 17.2047 37.3074 17.2047ZM38.5633 18.1104C38.5633 18.3446 38.373 18.5344 38.1383 18.5344C37.9035 18.5344 37.7132 18.3446 37.7132 18.1104C37.7132 17.8762 37.9035 17.6864 38.1383 17.6864C38.373 17.6864 38.5633 17.8762 38.5633 18.1104ZM37.1142 18.8043C37.3063 18.8043 37.462 18.649 37.462 18.4574C37.462 18.2658 37.3063 18.1105 37.1142 18.1105C36.9221 18.1105 36.7664 18.2658 36.7664 18.4574C36.7664 18.649 36.9221 18.8043 37.1142 18.8043ZM36.6311 17.378C36.6311 17.6122 36.4408 17.802 36.2061 17.802C35.9713 17.802 35.781 17.6122 35.781 17.378C35.781 17.1439 35.9713 16.954 36.2061 16.954C36.4408 16.954 36.6311 17.1439 36.6311 17.378ZM34.8924 16.8771C35.1592 16.8771 35.3755 16.6614 35.3755 16.3953C35.3755 16.1292 35.1592 15.9135 34.8924 15.9135C34.6257 15.9135 34.4094 16.1292 34.4094 16.3953C34.4094 16.6614 34.6257 16.8771 34.8924 16.8771ZM35.356 12.7719C35.356 13.038 35.1397 13.2537 34.8729 13.2537C34.6061 13.2537 34.3899 13.038 34.3899 12.7719C34.3899 12.5058 34.6061 12.2901 34.8729 12.2901C35.1397 12.2901 35.356 12.5058 35.356 12.7719ZM35.0855 11.5579C35.3202 11.5579 35.5105 11.3681 35.5105 11.1339C35.5105 10.8998 35.3202 10.71 35.0855 10.71C34.8507 10.71 34.6604 10.8998 34.6604 11.1339C34.6604 11.3681 34.8507 11.5579 35.0855 11.5579ZM35.8971 9.82344C35.8971 10.015 35.7414 10.1703 35.5493 10.1703C35.3572 10.1703 35.2015 10.015 35.2015 9.82344C35.2015 9.63186 35.3572 9.47655 35.5493 9.47655C35.7414 9.47655 35.8971 9.63186 35.8971 9.82344ZM34.7377 9.51525C34.9725 9.51525 35.1628 9.32543 35.1628 9.09127C35.1628 8.85712 34.9725 8.6673 34.7377 8.6673C34.503 8.6673 34.3127 8.85712 34.3127 9.09127C34.3127 9.32543 34.503 9.51525 34.7377 9.51525ZM39.7227 17.455C39.7227 17.7211 39.5064 17.9368 39.2396 17.9368C38.9728 17.9368 38.7566 17.7211 38.7566 17.455C38.7566 17.1889 38.9728 16.9732 39.2396 16.9732C39.5064 16.9732 39.7227 17.1889 39.7227 17.455ZM33.6364 8.95634C33.9032 8.95634 34.1194 8.74064 34.1194 8.47456C34.1194 8.20847 33.9032 7.99276 33.6364 7.99276C33.3696 7.99276 33.1534 8.20847 33.1534 8.47456C33.1534 8.74064 33.3696 8.95634 33.6364 8.95634ZM34.4479 10.5174C34.4479 10.7835 34.2317 10.9992 33.9649 10.9992C33.6981 10.9992 33.4818 10.7835 33.4818 10.5174C33.4818 10.2513 33.6981 10.0356 33.9649 10.0356C34.2317 10.0356 34.4479 10.2513 34.4479 10.5174ZM33.424 12.9455C33.7442 12.9455 34.0037 12.6867 34.0037 12.3674C34.0037 12.0481 33.7442 11.7892 33.424 11.7892C33.1039 11.7892 32.8444 12.0481 32.8444 12.3674C32.8444 12.6867 33.1039 12.9455 33.424 12.9455ZM32.3418 12.2709C32.3418 12.6434 32.039 12.9454 31.6656 12.9454C31.2921 12.9454 30.9893 12.6434 30.9893 12.2709C30.9893 11.8984 31.2921 11.5964 31.6656 11.5964C32.039 11.5964 32.3418 11.8984 32.3418 12.2709ZM29.6177 13.4081C30.0445 13.4081 30.3906 13.063 30.3906 12.6373C30.3906 12.2115 30.0445 11.8664 29.6177 11.8664C29.1909 11.8664 28.8449 12.2115 28.8449 12.6373C28.8449 13.063 29.1909 13.4081 29.6177 13.4081ZM28.2845 13.601C28.2845 14.1012 27.8779 14.5067 27.3764 14.5067C26.8749 14.5067 26.4683 14.1012 26.4683 13.601C26.4683 13.1007 26.8749 12.6952 27.3764 12.6952C27.8779 12.6952 28.2845 13.1007 28.2845 13.601ZM25.0578 16.3567C25.6553 16.3567 26.1398 15.8735 26.1398 15.2774C26.1398 14.6814 25.6553 14.1982 25.0578 14.1982C24.4602 14.1982 23.9758 14.6814 23.9758 15.2774C23.9758 15.8735 24.4602 16.3567 25.0578 16.3567ZM27.3766 11.3461C27.3766 11.8463 26.97 12.2519 26.4684 12.2519C25.9669 12.2519 25.5603 11.8463 25.5603 11.3461C25.5603 10.8458 25.9669 10.4403 26.4684 10.4403C26.97 10.4403 27.3766 10.8458 27.3766 11.3461ZM28.7094 11.1533C29.1363 11.1533 29.4823 10.8081 29.4823 10.3824C29.4823 9.95666 29.1363 9.61153 28.7094 9.61153C28.2826 9.61153 27.9366 9.95666 27.9366 10.3824C27.9366 10.8081 28.2826 11.1533 28.7094 11.1533ZM29.1538 8.33954C29.1538 8.76527 28.8078 9.1104 28.3809 9.1104C27.9541 9.1104 27.6081 8.76527 27.6081 8.33954C27.6081 7.9138 27.9541 7.56867 28.3809 7.56867C28.8078 7.56867 29.1538 7.9138 29.1538 8.33954ZM30.4291 8.64795C30.8026 8.64795 31.1054 8.34596 31.1054 7.97344C31.1054 7.60092 30.8026 7.29894 30.4291 7.29894C30.0556 7.29894 29.7529 7.60092 29.7529 7.97344C29.7529 8.34596 30.0556 8.64795 30.4291 8.64795ZM32.7669 8.06982C32.7669 8.38912 32.5073 8.64797 32.1872 8.64797C31.8671 8.64797 31.6076 8.38912 31.6076 8.06982C31.6076 7.75052 31.8671 7.49168 32.1872 7.49168C32.5073 7.49168 32.7669 7.75052 32.7669 8.06982ZM32.5158 10.6906C32.8359 10.6906 33.0954 10.4318 33.0954 10.1125C33.0954 9.79315 32.8359 9.53431 32.5158 9.53431C32.1957 9.53431 31.9361 9.79315 31.9361 10.1125C31.9361 10.4318 32.1957 10.6906 32.5158 10.6906ZM31.4339 10.0356C31.4339 10.4081 31.1311 10.7101 30.7576 10.7101C30.3841 10.7101 30.0814 10.4081 30.0814 10.0356C30.0814 9.66307 30.3841 9.36109 30.7576 9.36109C31.1311 9.36109 31.4339 9.66307 31.4339 10.0356ZM28.8447 15.8362C29.0368 15.8362 29.1925 15.6809 29.1925 15.4894C29.1925 15.2978 29.0368 15.1425 28.8447 15.1425C28.6526 15.1425 28.4969 15.2978 28.4969 15.4894C28.4969 15.6809 28.6526 15.8362 28.8447 15.8362ZM30.661 15.239C30.661 15.4731 30.4707 15.6629 30.2359 15.6629C30.0012 15.6629 29.8108 15.4731 29.8108 15.239C29.8108 15.0048 30.0012 14.815 30.2359 14.815C30.4707 14.815 30.661 15.0048 30.661 15.239ZM31.7622 15.0849C32.0289 15.0849 32.2452 14.8692 32.2452 14.6031C32.2452 14.337 32.0289 14.1213 31.7622 14.1213C31.4954 14.1213 31.2791 14.337 31.2791 14.6031C31.2791 14.8692 31.4954 15.0849 31.7622 15.0849ZM32.7089 16.0483C32.7089 16.3676 32.4494 16.6265 32.1293 16.6265C31.8092 16.6265 31.5497 16.3676 31.5497 16.0483C31.5497 15.729 31.8092 15.4702 32.1293 15.4702C32.4494 15.4702 32.7089 15.729 32.7089 16.0483ZM30.2747 16.9925C30.5415 16.9925 30.7577 16.7768 30.7577 16.5107C30.7577 16.2446 30.5415 16.0289 30.2747 16.0289C30.0079 16.0289 29.7917 16.2446 29.7917 16.5107C29.7917 16.7768 30.0079 16.9925 30.2747 16.9925ZM29.0572 16.5492C29.0572 16.7834 28.8669 16.9732 28.6322 16.9732C28.3974 16.9732 28.2071 16.7834 28.2071 16.5492C28.2071 16.3151 28.3974 16.1253 28.6322 16.1253C28.8669 16.1253 29.0572 16.3151 29.0572 16.5492ZM28.6514 18.3031C28.9181 18.3031 29.1344 18.0874 29.1344 17.8213C29.1344 17.5552 28.9181 17.3395 28.6514 17.3395C28.3846 17.3395 28.1683 17.5552 28.1683 17.8213C28.1683 18.0874 28.3846 18.3031 28.6514 18.3031ZM31.2019 17.9754C31.2019 18.2947 30.9424 18.5536 30.6223 18.5536C30.3021 18.5536 30.0426 18.2947 30.0426 17.9754C30.0426 17.6561 30.3021 17.3973 30.6223 17.3973C30.9424 17.3973 31.2019 17.6561 31.2019 17.9754ZM32.9217 18.3031C33.2952 18.3031 33.5979 18.0011 33.5979 17.6286C33.5979 17.256 33.2952 16.954 32.9217 16.954C32.5482 16.954 32.2454 17.256 32.2454 17.6286C32.2454 18.0011 32.5482 18.3031 32.9217 18.3031ZM35.0467 19.2087C35.0467 19.6344 34.7007 19.9796 34.2739 19.9796C33.8471 19.9796 33.501 19.6344 33.501 19.2087C33.501 18.783 33.8471 18.4378 34.2739 18.4378C34.7007 18.4378 35.0467 18.783 35.0467 19.2087ZM31.4338 20.2109C31.8073 20.2109 32.1101 19.909 32.1101 19.5364C32.1101 19.1639 31.8073 18.8619 31.4338 18.8619C31.0604 18.8619 30.7576 19.1639 30.7576 19.5364C30.7576 19.909 31.0604 20.2109 31.4338 20.2109ZM30.5063 20.8468C30.5063 21.2193 30.2036 21.5213 29.8301 21.5213C29.4566 21.5213 29.1538 21.2193 29.1538 20.8468C29.1538 20.4743 29.4566 20.1723 29.8301 20.1723C30.2036 20.1723 30.5063 20.4743 30.5063 20.8468ZM31.1632 23.2174C31.59 23.2174 31.9361 22.8722 31.9361 22.4465C31.9361 22.0207 31.59 21.6756 31.1632 21.6756C30.7364 21.6756 30.3904 22.0207 30.3904 22.4465C30.3904 22.8722 30.7364 23.2174 31.1632 23.2174ZM35.6266 22.62C35.6266 23.1202 35.22 23.5258 34.7185 23.5258C34.2169 23.5258 33.8103 23.1202 33.8103 22.62C33.8103 22.1198 34.2169 21.7142 34.7185 21.7142C35.22 21.7142 35.6266 22.1198 35.6266 22.62ZM32.767 21.9067C33.1938 21.9067 33.5398 21.5616 33.5398 21.1359C33.5398 20.7101 33.1938 20.365 32.767 20.365C32.3401 20.365 31.9941 20.7101 31.9941 21.1359C31.9941 21.5616 32.3401 21.9067 32.767 21.9067ZM37.1144 20.6929C37.1144 21.1931 36.7078 21.5987 36.2063 21.5987C35.7048 21.5987 35.2982 21.1931 35.2982 20.6929C35.2982 20.1926 35.7048 19.7871 36.2063 19.7871C36.7078 19.7871 37.1144 20.1926 37.1144 20.6929ZM29.0185 19.8642C29.3387 19.8642 29.5982 19.6053 29.5982 19.286C29.5982 18.9667 29.3387 18.7079 29.0185 18.7079C28.6984 18.7079 28.4389 18.9667 28.4389 19.286C28.4389 19.6053 28.6984 19.8642 29.0185 19.8642Z" fill="black"/>
<path d="M23.6702 3.89953C21.1578 1.65665 17.8433 0.293377 14.2103 0.293377C6.36218 0.293377 0 6.65556 0 14.5037C0 22.3519 6.36218 28.7141 14.2103 28.7141C17.8314 28.7141 21.1362 27.3596 23.6457 25.1298C23.3598 24.8677 23.0845 24.5946 22.8205 24.3113C20.5226 26.3302 17.5095 27.5543 14.2103 27.5543C7.00268 27.5543 1.15973 21.7114 1.15973 14.5037C1.15973 7.29606 7.00268 1.45311 14.2103 1.45311C17.5203 1.45311 20.5425 2.68535 22.8432 4.71612C23.1078 4.43341 23.3837 4.16099 23.6702 3.89953Z" fill="black"/>
</svg>
