<svg xmlns="http://www.w3.org/2000/svg" viewBox="0 0 48 49">
  <path style="-inkscape-stroke:none" d="M10.71 6.912a4.515 4.515 0 0 0-4.5 4.5c0 2.474 2.028 4.5 4.5 4.5 2.474 0 4.5-2.026 4.5-4.5 0-2.473-2.026-4.5-4.5-4.5zm0 2c1.393 0 2.5 1.108 2.5 2.5 0 1.393-1.107 2.5-2.5 2.5a2.485 2.485 0 0 1-2.5-2.5c0-1.392 1.108-2.5 2.5-2.5zm0 25a4.515 4.515 0 0 0-4.5 4.5c0 2.474 2.028 4.5 4.5 4.5 2.474 0 4.5-2.026 4.5-4.5 0-2.473-2.026-4.5-4.5-4.5zm0 2c1.393 0 2.5 1.108 2.5 2.5 0 1.393-1.107 2.5-2.5 2.5a2.485 2.485 0 0 1-2.5-2.5c0-1.392 1.108-2.5 2.5-2.5zm12.75-19.25c-4.405 0-8 3.594-8 8 0 4.407 3.595 8 8 8 4.407 0 8-3.593 8-8 0-4.406-3.593-8-8-8zm0 2c3.326 0 6 2.675 6 6 0 3.326-2.674 6-6 6-3.325 0-6-2.674-6-6 0-3.325 2.675-6 6-6zm12.75-12.25a4.515 4.515 0 0 0-4.5 4.5c0 2.474 2.028 4.5 4.5 4.5 2.474 0 4.5-2.026 4.5-4.5 0-2.473-2.026-4.5-4.5-4.5zm0 2c1.393 0 2.5 1.108 2.5 2.5 0 1.393-1.107 2.5-2.5 2.5a2.485 2.485 0 0 1-2.5-2.5c0-1.392 1.108-2.5 2.5-2.5z" color="#000" fill="#fff"/>
  <path style="-inkscape-stroke:none" d="M36.71 33.912a4.515 4.515 0 0 0-4.5 4.5c0 2.474 2.028 4.5 4.5 4.5 2.474 0 4.5-2.026 4.5-4.5 0-2.473-2.026-4.5-4.5-4.5zm0 2c1.393 0 2.5 1.108 2.5 2.5 0 1.393-1.107 2.5-2.5 2.5a2.485 2.485 0 0 1-2.5-2.5c0-1.392 1.108-2.5 2.5-2.5zM13.43 13.693a1 1 0 0 0-.707.293 1 1 0 0 0 0 1.414l5.05 5.05a1 1 0 0 0 1.415 0 1 1 0 0 0 0-1.415l-5.051-5.049a1 1 0 0 0-.707-.293z" color="#000" fill="#fff"/>
  <path style="-inkscape-stroke:none" d="M27.441 29.135a1 1 0 0 0 0 1.414l6.11 6.12a1 1 0 0 0 1.414 0 1 1 0 0 0 .002-1.413l-6.111-6.12a1 1 0 0 0-1.415-.001zm-9.388 0-5.81 5.81a1 1 0 0 0 0 1.414 1 1 0 0 0 1.413 0l5.81-5.808a1 1 0 0 0 0-1.416 1 1 0 0 0-1.413 0z" color="#000" fill="#fff"/>
</svg>
