<?xml version="1.0" encoding="UTF-8" standalone="no"?>
<svg
   width="48"
   height="49"
   viewBox="0 0 48 49"
   fill="none"
   version="1.1"
   id="svg18"
   sodipodi:docname="tips.svg"
   inkscape:version="1.2 (dc2aeda, 2022-05-15)"
   xmlns:inkscape="http://www.inkscape.org/namespaces/inkscape"
   xmlns:sodipodi="http://sodipodi.sourceforge.net/DTD/sodipodi-0.dtd"
   xmlns="http://www.w3.org/2000/svg"
   xmlns:svg="http://www.w3.org/2000/svg">
  <defs
     id="defs22" />
  <sodipodi:namedview
     id="namedview20"
     pagecolor="#16ffff"
     bordercolor="#666666"
     borderopacity="1.0"
     inkscape:showpageshadow="2"
     inkscape:pageopacity="0"
     inkscape:pagecheckerboard="0"
     inkscape:deskcolor="#d1d1d1"
     showgrid="false"
     inkscape:zoom="7.4534834"
     inkscape:cx="22.472714"
     inkscape:cy="21.198142"
     inkscape:window-width="1344"
     inkscape:window-height="840"
     inkscape:window-x="0"
     inkscape:window-y="0"
     inkscape:window-maximized="0"
     inkscape:current-layer="svg18" />
  <path
     style="color:#000000;fill:#ffffff;stroke-linecap:round;stroke-miterlimit:10;-inkscape-stroke:none"
     d="m 10.710938,6.9121094 c -2.4734072,0 -4.5000005,2.0265644 -4.5000005,4.4999996 0,2.473436 2.0265933,4.5 4.5000005,4.5 2.473435,0 4.499999,-2.026564 4.5,-4.5 0,-2.4734352 -2.026565,-4.4999996 -4.5,-4.4999996 z m 0,2 c 1.39256,0 2.5,1.1074396 2.5,2.4999996 0,1.392561 -1.10744,2.5 -2.5,2.5 -1.3925099,0 -2.5000005,-1.107439 -2.5000005,-2.5 0,-1.39256 1.1074906,-2.4999996 2.5000005,-2.4999996 z"
     id="path2" />
  <path
     style="color:#000000;fill:#ffffff;stroke-linecap:round;stroke-miterlimit:10;-inkscape-stroke:none"
     d="m 10.710938,33.912109 c -2.4734072,0 -4.5000005,2.026565 -4.5000005,4.5 0,2.473436 2.0265933,4.5 4.5000005,4.5 2.473435,0 4.499999,-2.026564 4.5,-4.5 0,-2.473435 -2.026565,-4.5 -4.5,-4.5 z m 0,2 c 1.39256,0 2.499999,1.10744 2.5,2.5 0,1.392561 -1.10744,2.5 -2.5,2.5 -1.3925099,0 -2.5000005,-1.107439 -2.5000005,-2.5 0,-1.39256 1.1074906,-2.5 2.5000005,-2.5 z"
     id="path4" />
  <path
     style="color:#000000;fill:#ffffff;stroke-linecap:round;stroke-miterlimit:10;-inkscape-stroke:none"
     d="m 23.460937,16.662109 c -4.406433,0 -8,3.593567 -7.999999,8 0,4.406434 3.593566,8 7.999999,8 4.406434,0 8.000001,-3.593566 8,-8 0,-4.406433 -3.593566,-8 -8,-8 z m 0,2 c 3.325559,0 6,2.674442 6,6 0,3.325559 -2.674441,6 -6,6 -3.325558,0 -6,-2.674441 -6,-6 0,-3.325558 2.674442,-6 6,-6 z"
     id="path6" />
  <path
     style="color:#000000;fill:#ffffff;stroke-miterlimit:10;-inkscape-stroke:none;fill-opacity:1"
     d="m 36.210937,6.4121094 c -2.473435,0 -4.5,2.0265644 -4.5,4.4999996 0,2.473436 2.026565,4.5 4.5,4.5 2.473436,0 4.5,-2.026564 4.5,-4.5 0,-2.4734352 -2.026564,-4.4999996 -4.5,-4.4999996 z m 0,2 c 1.392561,0 2.5,1.1074394 2.5,2.4999996 0,1.392561 -1.107439,2.5 -2.5,2.5 -1.39256,0 -2.5,-1.107439 -2.5,-2.5 0,-1.3925602 1.10744,-2.4999996 2.5,-2.4999996 z"
     id="path8" />
  <path
     style="color:#000000;fill:#ffffff;stroke-linecap:round;stroke-miterlimit:10;-inkscape-stroke:none"
     d="m 36.710937,33.912109 c -2.473435,0 -4.5,2.026565 -4.5,4.5 0,2.473436 2.026565,4.5 4.5,4.5 2.473436,0 4.5,-2.026564 4.5,-4.5 0,-2.473435 -2.026564,-4.5 -4.5,-4.5 z m 0,2 c 1.392561,0 2.5,1.10744 2.5,2.5 0,1.392561 -1.107439,2.5 -2.5,2.5 -1.39256,0 -2.5,-1.107439 -2.5,-2.5 0,-1.39256 1.10744,-2.5 2.5,-2.5 z"
     id="path10" />
  <path
     style="color:#000000;fill:#ffffff;stroke-linecap:round;stroke-miterlimit:10;-inkscape-stroke:none"
     d="m 13.429688,13.693359 a 1,1 0 0 0 -0.707032,0.292969 1,1 0 0 0 0,1.414063 l 5.050781,5.048828 a 1,1 0 0 0 1.414063,0 1,1 0 0 0 0,-1.414063 l -5.050781,-5.048828 a 1,1 0 0 0 -0.707031,-0.292969 z"
     id="path12" />
  <path
     style="color:#000000;fill:#ffffff;stroke-linecap:round;stroke-miterlimit:10;-inkscape-stroke:none"
     d="m 27.441406,29.134766 a 1,1 0 0 0 0,1.414062 l 6.109375,6.121094 a 1,1 0 0 0 1.414063,0 1,1 0 0 0 0.002,-1.414063 l -6.111328,-6.11914 a 1,1 0 0 0 -1.414063,-0.002 z"
     id="path14" />
  <path
     style="color:#000000;fill:#ffffff;stroke-linecap:round;stroke-miterlimit:10;-inkscape-stroke:none"
     d="m 18.052734,29.134766 -5.810546,5.810546 a 1,1 0 0 0 0,1.414063 1,1 0 0 0 1.414062,0 l 5.810547,-5.808594 a 1,1 0 0 0 0,-1.416015 1,1 0 0 0 -1.414063,0 z"
     id="path16" />
</svg>
