<?xml version="1.0" encoding="UTF-8" standalone="no"?>
<svg
   width="28"
   height="27"
   viewBox="0 0 28 27"
   fill="none"
   version="1.1"
   id="svg24"
   sodipodi:docname="tools.svg"
   inkscape:version="1.2 (dc2aeda, 2022-05-15)"
   xmlns:inkscape="http://www.inkscape.org/namespaces/inkscape"
   xmlns:sodipodi="http://sodipodi.sourceforge.net/DTD/sodipodi-0.dtd"
   xmlns="http://www.w3.org/2000/svg"
   xmlns:svg="http://www.w3.org/2000/svg">
  <defs
     id="defs28" />
  <sodipodi:namedview
     id="namedview26"
     pagecolor="#ff1dff"
     bordercolor="#666666"
     borderopacity="1.0"
     inkscape:showpageshadow="2"
     inkscape:pageopacity="0"
     inkscape:pagecheckerboard="0"
     inkscape:deskcolor="#d1d1d1"
     showgrid="false"
     inkscape:zoom="8.7407407"
     inkscape:cx="11.726695"
     inkscape:cy="12.127119"
     inkscape:window-width="1344"
     inkscape:window-height="840"
     inkscape:window-x="0"
     inkscape:window-y="0"
     inkscape:window-maximized="0"
     inkscape:current-layer="svg24" />
  <path
     style="color:#000000;fill:#ffffff;stroke-miterlimit:10;-inkscape-stroke:none;fill-opacity:1"
     d="M 21.771484,5.3300781 6.2167969,20.884766 7.0019531,21.669922 22.558594,6.1152344 Z"
     id="path2" />
  <path
     d="M22.1667 7.38879C23.0872 7.38879 23.8334 6.64259 23.8334 5.72211C23.8334 4.80162 23.0872 4.05542 22.1667 4.05542C21.2462 4.05542 20.5 4.80162 20.5 5.72211C20.5 6.64259 21.2462 7.38879 22.1667 7.38879Z"
     fill="#909FBE"
     id="path4"
     style="fill:#ffffff;fill-opacity:1" />
  <path
     d="M6.612 22.9445C7.53249 22.9445 8.27869 22.1983 8.27869 21.2778C8.27869 20.3573 7.53249 19.6111 6.612 19.6111C5.69151 19.6111 4.94531 20.3573 4.94531 21.2778C4.94531 22.1983 5.69151 22.9445 6.612 22.9445Z"
     fill="#909FBE"
     id="path6"
     style="fill:#ffffff;fill-opacity:1" />
  <path
     style="color:#000000;fill:#ffffff;stroke-miterlimit:10;-inkscape-stroke:none"
     d="M 14.548828,5.8847656 6.7714844,13.662109 7.5566406,14.449219 15.333984,6.6699219 Z"
     id="path8" />
  <path
     d="M14.9479 7.94434C15.8684 7.94434 16.6146 7.19813 16.6146 6.27765C16.6146 5.35716 15.8684 4.61096 14.9479 4.61096C14.0275 4.61096 13.2812 5.35716 13.2812 6.27765C13.2812 7.19813 14.0275 7.94434 14.9479 7.94434Z"
     fill="white"
     id="path10" />
  <path
     d="M7.16669 15.7224C8.08717 15.7224 8.83337 14.9762 8.83337 14.0557C8.83337 13.1352 8.08717 12.389 7.16669 12.389C6.2462 12.389 5.5 13.1352 5.5 14.0557C5.5 14.9762 6.2462 15.7224 7.16669 15.7224Z"
     fill="white"
     id="path12" />
  <path
     style="color:#000000;fill:#ffffff;stroke-miterlimit:10;-inkscape-stroke:none"
     d="m 21.220703,12.550781 -7.777344,7.779297 0.785157,0.785156 7.777343,-7.777343 z"
     id="path14" />
  <path
     d="M21.612 14.6112C22.5325 14.6112 23.2787 13.865 23.2787 12.9445C23.2787 12.024 22.5325 11.2778 21.612 11.2778C20.6915 11.2778 19.9453 12.024 19.9453 12.9445C19.9453 13.865 20.6915 14.6112 21.612 14.6112Z"
     fill="white"
     id="path16" />
  <path
     d="M21.612 21.8336C22.5325 21.8336 23.2787 21.0874 23.2787 20.1669C23.2787 19.2464 22.5325 18.5002 21.612 18.5002C20.6915 18.5002 19.9453 19.2464 19.9453 20.1669C19.9453 21.0874 20.6915 21.8336 21.612 21.8336Z"
     fill="#909FBE"
     id="path18"
     style="fill:#ffffff;fill-opacity:1" />
  <path
     d="M7.16669 7.94434C8.08717 7.94434 8.83337 7.19813 8.83337 6.27765C8.83337 5.35716 8.08717 4.61096 7.16669 4.61096C6.2462 4.61096 5.5 5.35716 5.5 6.27765C5.5 7.19813 6.2462 7.94434 7.16669 7.94434Z"
     fill="#909FBE"
     id="path20"
     style="fill:#ffffff;fill-opacity:1" />
  <path
     d="M13.8307 22.3892C14.7512 22.3892 15.4974 21.643 15.4974 20.7225C15.4974 19.802 14.7512 19.0558 13.8307 19.0558C12.9103 19.0558 12.1641 19.802 12.1641 20.7225C12.1641 21.643 12.9103 22.3892 13.8307 22.3892Z"
     fill="white"
     id="path22" />
</svg>
