<svg xmlns="http://www.w3.org/2000/svg" viewBox="0 0 28 27">
  <path style="-inkscape-stroke:none" d="M21.771 5.33 6.217 20.885l.785.785L22.559 6.115Z" color="#000" fill="#fff"/>
  <path d="M22.167 7.389a1.667 1.667 0 1 0 0-3.334 1.667 1.667 0 0 0 0 3.334ZM6.612 22.945a1.667 1.667 0 1 0 0-3.334 1.667 1.667 0 0 0 0 3.334Z" fill="#fff"/>
  <path style="-inkscape-stroke:none" d="M14.549 5.885 6.77 13.662l.786.787 7.777-7.78Z" color="#000" fill="#fff"/>
  <path d="M14.948 7.944a1.667 1.667 0 1 0 0-3.333 1.667 1.667 0 0 0 0 3.333Zm-7.781 7.778a1.667 1.667 0 1 0 0-3.333 1.667 1.667 0 0 0 0 3.333Z" fill="#fff"/>
  <path style="-inkscape-stroke:none" d="m21.22 12.55-7.777 7.78.786.785 7.777-7.777z" color="#000" fill="#fff"/>
  <path d="M21.612 14.611a1.667 1.667 0 1 0 0-3.333 1.667 1.667 0 0 0 0 3.333Zm0 7.223a1.667 1.667 0 1 0 0-3.334 1.667 1.667 0 0 0 0 3.334ZM7.167 7.944a1.667 1.667 0 1 0 0-3.333 1.667 1.667 0 0 0 0 3.333ZM13.83 22.39a1.667 1.667 0 1 0 0-3.334 1.667 1.667 0 0 0 0 3.333Z" fill="#fff"/>
</svg>
