<?xml version="1.0" encoding="UTF-8" standalone="no"?>
<svg
   width="33"
   height="33"
   viewBox="0 0 33 33"
   fill="none"
   version="1.1"
   id="svg10"
   sodipodi:docname="tutorials.svg"
   inkscape:version="1.2 (dc2aeda, 2022-05-15)"
   xmlns:inkscape="http://www.inkscape.org/namespaces/inkscape"
   xmlns:sodipodi="http://sodipodi.sourceforge.net/DTD/sodipodi-0.dtd"
   xmlns="http://www.w3.org/2000/svg"
   xmlns:svg="http://www.w3.org/2000/svg">
  <defs
     id="defs14" />
  <sodipodi:namedview
     id="namedview12"
     pagecolor="#ffffff"
     bordercolor="#666666"
     borderopacity="1.0"
     inkscape:showpageshadow="2"
     inkscape:pageopacity="0.0"
     inkscape:pagecheckerboard="0"
     inkscape:deskcolor="#d1d1d1"
     showgrid="false"
     inkscape:zoom="7.1515152"
     inkscape:cx="16.360169"
     inkscape:cy="16.5"
     inkscape:window-width="722"
     inkscape:window-height="480"
     inkscape:window-x="0"
     inkscape:window-y="25"
     inkscape:window-maximized="0"
     inkscape:current-layer="svg10" />
  <path
     style="color:#000000;fill:#ffffff;stroke-linecap:round;stroke-miterlimit:10;-inkscape-stroke:none;fill-opacity:1"
     d="m 22.011719,19.242187 a 0.6875,0.6875 0 0 0 -0.486328,0.201172 l -7.447266,7.449219 -3.576172,-3.572266 a 0.6875,0.6875 0 0 0 -0.9726561,0.002 0.6875,0.6875 0 0 0 0,0.972656 l 4.5507811,4.541015 8.417969,-8.419921 a 0.6875,0.6875 0 0 0 0,-0.972657 0.6875,0.6875 0 0 0 -0.486328,-0.201172 z"
     id="path2" />
  <path
     style="color:#000000;fill:#ffffff;stroke-miterlimit:10;-inkscape-stroke:none"
     d="m 17.238281,4.4238281 c -0.352937,4.4e-6 -0.705773,0.1315249 -0.970703,0.3964844 L 4.140625,16.955078 c -0.5299645,0.529925 -0.5299645,1.411481 0,1.941406 L 7.1660156,21.921875 8.1386719,20.949219 5.1152344,17.925781 17.240234,5.7949219 l -0.002,-0.00195 c 0,0 0.002,0 0.002,0 v 0.00195 l 8.962891,8.9628911 -2.365234,2.363281 0.972656,0.970703 2.363281,-2.365234 c 0.530023,-0.529826 0.53183,-1.41153 0.002,-1.941407 L 18.208984,4.8203125 C 17.944029,4.5554263 17.591218,4.4238238 17.238281,4.4238281 Z"
     id="path4" />
  <path
     style="color:#000000;fill:#ffffff;stroke-miterlimit:10;-inkscape-stroke:none"
     d="m 16.580078,10.623047 -0.972656,0.972656 4.736328,4.736328 0.972656,-0.972656 z"
     id="path6" />
  <path
     style="color:#000000;fill:#ffffff;stroke-miterlimit:10;-inkscape-stroke:none"
     d="m 13.712891,13.490234 -0.972657,0.972657 4.738282,4.730468 0.970703,-0.972656 z"
     id="path8" />
</svg>
