<svg xmlns="http://www.w3.org/2000/svg" viewBox="0 0 26 30">
  <path class="icon-color-primary" fill-rule="evenodd" d="M18.02 1.107a8.156 8.156 0 0 0-8.207 0L3.814 4.62C1.446 6.006 0 8.486 0 11.16v7.68c0 2.674 1.446 5.154 3.814 6.54l6 3.513a8.156 8.156 0 0 0 8.206 0l6-3.513a7.876 7.876 0 0 0 1.53-1.166c.36-.353.26-.932-.17-1.2-.362-.228-.834-.15-1.148.14a6.206 6.206 0 0 1-1.072.793l-6 3.512a6.452 6.452 0 0 1-6.487 0l-5.999-3.512a6.13 6.13 0 0 1-1.83-1.634.391.391 0 0 1 .148-.58l2.216-1.153a.451.451 0 0 1 .555.125c.387.477.865.891 1.419 1.215l4 2.342a5.438 5.438 0 0 0 5.47 0l4-2.342c.194-.114.38-.239.555-.373.421-.325.33-.944-.122-1.227-.345-.217-.791-.158-1.131.066a3.76 3.76 0 0 1-.162.1l-4 2.342a3.733 3.733 0 0 1-3.75 0l-4-2.342c-1.077-.63-1.716-1.744-1.716-2.927v-5.118c0-1.183.64-2.297 1.716-2.927l4-2.342a3.733 3.733 0 0 1 3.75 0l4 2.342c.081.047.16.097.235.15.343.238.803.304 1.155.079.438-.28.531-.881.128-1.208a5.268 5.268 0 0 0-.658-.455l-4-2.342a5.383 5.383 0 0 0-1.676-.634.443.443 0 0 1-.365-.426v-2.51c0-.248.218-.442.465-.397a6.383 6.383 0 0 1 2.084.77l6 3.512c.407.24.78.518 1.112.83.315.296.795.376 1.16.143.42-.27.52-.84.167-1.191a7.87 7.87 0 0 0-1.58-1.215l-5.998-3.513Zm-7.347 1.434a6.373 6.373 0 0 1 1.767-.704.397.397 0 0 1 .484.393v2.515a.44.44 0 0 1-.342.42 5.377 5.377 0 0 0-1.4.573l-4 2.342c-1.579.924-2.543 2.578-2.543 4.36v5.12c0 .343.036.68.105 1.01a.44.44 0 0 1-.221.483l-2.155 1.12c-.237.124-.53 0-.58-.261a5.741 5.741 0 0 1-.101-1.073v-7.678c0-2.074 1.121-4.015 2.987-5.107l6-3.513Z" clip-rule="evenodd"/>
  <path class="icon-color-primary" fill-rule="evenodd" d="M12.789 10.477a2.656 2.656 0 0 1 2.672 0l1.953 1.143a2.473 2.473 0 0 1 1.242 2.13v2.5c0 .87-.47 1.678-1.242 2.13l-1.953 1.143a2.654 2.654 0 0 1-2.672 0l-1.953-1.143a2.474 2.474 0 0 1-1.242-2.13v-2.5c0-.87.47-1.678 1.242-2.13l1.953-1.143Zm1.832 1.4 1.953 1.144a.85.85 0 0 1 .434.73v2.499a.85.85 0 0 1-.434.73l-1.953 1.143a.99.99 0 0 1-.992 0l-1.953-1.144a.85.85 0 0 1-.434-.729v-2.5a.85.85 0 0 1 .434-.73l1.953-1.143a.99.99 0 0 1 .992 0Z" clip-rule="evenodd"/>
</svg>
