<svg viewBox="0 0 48 48" xmlns="http://www.w3.org/2000/svg">
  <path fill-rule="evenodd" clip-rule="evenodd" d="M16.667 13A3.667 3.667 0 0 0 13 16.667v4.889a3.667 3.667 0 0 0 3.667 3.666h2.444a3.667 3.667 0 0 0 3.667-3.666v-4.89A3.666 3.666 0 0 0 19.11 13h-2.444.001Zm-1.223 3.667c0-.675.548-1.223 1.223-1.223h2.444c.675 0 1.222.548 1.222 1.223v4.889c0 .675-.547 1.222-1.222 1.222h-2.444a1.223 1.223 0 0 1-1.223-1.222v-4.89.001Zm1.223 9.777A3.667 3.667 0 0 0 13 30.111v1.222A3.667 3.667 0 0 0 16.667 35h2.444a3.667 3.667 0 0 0 3.667-3.667v-1.222a3.667 3.667 0 0 0-3.667-3.667h-2.444Zm-1.223 3.667c0-.675.548-1.222 1.223-1.222h2.444c.675 0 1.222.547 1.222 1.222v1.222c0 .675-.547 1.223-1.222 1.223h-2.444a1.223 1.223 0 0 1-1.223-1.223v-1.222ZM24 16.667A3.667 3.667 0 0 1 27.667 13h3.666A3.667 3.667 0 0 1 35 16.667v1.222a3.667 3.667 0 0 1-3.667 3.667h-3.666A3.667 3.667 0 0 1 24 17.889v-1.222Zm3.667-1.223c-.675 0-1.223.548-1.223 1.223v1.222c0 .675.548 1.222 1.223 1.222h3.666c.675 0 1.223-.547 1.223-1.222v-1.222c0-.675-.548-1.223-1.223-1.223h-3.666Zm0 7.334A3.667 3.667 0 0 0 24 26.444v4.89A3.667 3.667 0 0 0 27.667 35h3.666A3.667 3.667 0 0 0 35 31.333v-4.889a3.667 3.667 0 0 0-3.667-3.666h-3.666Zm-1.223 3.666c0-.675.548-1.222 1.223-1.222h3.666c.675 0 1.223.547 1.223 1.222v4.89c0 .674-.548 1.222-1.223 1.222h-3.666a1.223 1.223 0 0 1-1.223-1.223v-4.889Z" class="icon-color-primary"/>
</svg>
