<svg viewBox="0 0 48 48" xmlns="http://www.w3.org/2000/svg">
  <path fill-rule="evenodd" clip-rule="evenodd" d="M28.47 28.028c.945-.505 1.53-1.456 1.53-2.487V22.46c0-1.031-.585-1.982-1.53-2.487l-3-1.606a3.134 3.134 0 0 0-2.94 0l-3 1.606c-.945.505-1.53 1.456-1.53 2.487v3.082c0 1.031.585 1.982 1.53 2.487l3 1.606a3.134 3.134 0 0 0 2.94 0l3-1.606v-.001Zm-.47-5.57v3.083c0 .258-.147.55-.473.724l-3 1.605c-.324.173-.73.173-1.054 0l-3-1.605c-.326-.175-.473-.466-.473-.724V22.46c0-.258.147-.55.473-.724l3-1.605c.324-.173.73-.173 1.054 0l3 1.605c.326.175.473.466.473.724v-.002Z" class="icon-color-primary"/>
  <path fill-rule="evenodd" clip-rule="evenodd" d="M35.267 33.152a4.486 4.486 0 0 0 2.233-3.876V18.724c0-1.596-.85-3.072-2.233-3.876l-9-5.237a4.51 4.51 0 0 0-4.534 0l-9 5.237a4.486 4.486 0 0 0-2.233 3.876v10.552c0 1.596.85 3.072 2.232 3.876l9 5.237a4.51 4.51 0 0 0 4.535 0l9-5.237Zm.233-14.428v10.552c0 .882-.47 1.7-1.238 2.148l-9 5.236a2.51 2.51 0 0 1-2.524 0l-9-5.236a2.486 2.486 0 0 1-1.238-2.148V18.724c0-.882.47-1.7 1.238-2.148l9-5.236a2.51 2.51 0 0 1 2.524 0l9 5.236a2.486 2.486 0 0 1 1.238 2.148Z" class="icon-color-primary"/>
</svg>
