<svg viewBox="0 0 48 48" xmlns="http://www.w3.org/2000/svg">
  <path d="M32.587 20.661c2.263-1.465 3.714-3.83 4.226-6.824.363-2.219.087-3.998.087-4.082a.884.884 0 0 0-.556-.69.874.874 0 0 0-.875.125L21.746 19.594c.236-.921.065-1.863-.49-2.617-.896-1.172-2.413-1.382-3.608-.92l-.17-.106c-.876-.565-1.793-.69-2.71-.355-1.772.649-3.16 2.951-3.757 4.94a.354.354 0 0 0 .214.419.34.34 0 0 0 .15.02.353.353 0 0 0 .32-.188c.938-1.863 2.496-3.475 3.627-3.747.32-.084.599-.042.832.105l.064.041c-.597.733-.96 1.675-1.088 2.785-.128 1.15.042 2.407.427 3.265.15.335.47.524.833.524.084 0 .191-.021.276-.042.834-.273 2.177-.796 3.287-1.612-.15.314-.235.649-.255 1.005a3.067 3.067 0 0 0 .726 2.24 3.112 3.112 0 0 0 2.134 1.088c.084 0 .192.02.276.02h.087c-.77 1.069-1.046 2.576-.32 4.23 1.579 3.558-.406 5.924-1.816 6.76-.32.19-.49.566-.384.922a.888.888 0 0 0 .811.628h.384c5.08 0 7.32-2.45 8.218-3.935 1.43-2.387 1.366-5.464-.17-8.018-.79-1.319-2.327-2.407-4.056-2.177.213-.377.341-.774.383-1.214a2.777 2.777 0 0 0-.212-1.382c.405.042.81.063 1.238.063 1.729-.063 3.712-.44 5.59-1.675Zm-15.622 1.026a5.375 5.375 0 0 1-.064-1.57c.087-.732.343-1.716 1.154-2.282.192-.146.49-.23.79-.23.34 0 .704.126.938.44.426.586.234 1.36-.15 1.863-.511.649-1.45 1.298-2.668 1.78v-.001Zm5.72 2.952a1.3 1.3 0 0 1-.918-.46 1.323 1.323 0 0 1-.32-.964c.021-.356.193-.67.47-.9.234-.21.554-.314.853-.314h.108a1.302 1.302 0 0 1 .918.46c.233.273.34.608.32.964-.023.356-.192.67-.47.9-.256.23-.598.335-.96.314Zm3.373 1.82c.555 0 1.151.231 1.686.817a.198.198 0 0 1 .043.21c-.32.67-1.005 1.486-1.665 1.905a.266.266 0 0 0-.107.314c.043.125.191.188.32.167.534-.105 1.302-.398 1.941-.795.064-.042.108-.063.172-.105.107-.084.277-.021.32.105.277.774.405 1.57.383 2.344a.202.202 0 0 1-.148.188c-.683.23-1.494.356-2.134.252-.15-.021-.3.02-.343.167-.064.147.023.272.15.356.47.272 1.175.565 1.92.733.13.02.215.167.15.272a5.239 5.239 0 0 1-.383.774 5.16 5.16 0 0 1-.832 1.068.23.23 0 0 1-.258.042 5.007 5.007 0 0 1-.895-.565.21.21 0 0 0-.3 0c-.084.063-.127.209-.063.314.107.209.299.481.511.774.064.105.044.23-.041.293a7.935 7.935 0 0 1-2.328.942c-.192.042-.32-.146-.233-.314 1.302-2.072 1.174-4.689.277-6.72-.704-1.59 0-2.825.96-3.286.213-.167.534-.251.896-.251v-.001Zm-2.006-6.363 11.14-8.457c-.022 2.052-.556 5.568-3.608 7.557-2.689 1.738-5.761 1.36-7.532.9Z" class="icon-color-primary"/>
</svg>
