<svg xmlns="http://www.w3.org/2000/svg" viewBox="0 0 48 48">
  <path class="icon-color-primary" d="M32.587 20.662c2.263-1.465 3.714-3.83 4.226-6.824.363-2.219.086-3.998.086-4.082a.883.883 0 0 0-.555-.69.874.874 0 0 0-.875.125L21.746 19.595c.235-.921.064-1.863-.491-2.617-.896-1.172-2.412-1.382-3.607-.92l-.17-.106c-.876-.565-1.793-.69-2.711-.355-1.771.649-3.159 2.951-3.756 4.94a.354.354 0 0 0 .213.419.34.34 0 0 0 .15.02.353.353 0 0 0 .32-.188c.939-1.863 2.497-3.475 3.628-3.747.32-.084.598-.042.832.105l.064.041c-.597.733-.96 1.675-1.088 2.785-.128 1.15.042 2.407.427 3.265.15.335.47.524.832.524.085 0 .192-.021.277-.042.833-.273 2.177-.796 3.287-1.612-.15.314-.235.649-.256 1.005a3.067 3.067 0 0 0 .726 2.24 3.113 3.113 0 0 0 2.134 1.088c.085 0 .192.02.277.02h.086c-.769 1.069-1.046 2.576-.32 4.23 1.579 3.558-.406 5.924-1.815 6.76-.32.19-.49.566-.384.922a.888.888 0 0 0 .811.628h.384c5.08 0 7.32-2.45 8.217-3.935 1.43-2.387 1.366-5.464-.17-8.018-.79-1.319-2.327-2.407-4.056-2.177.214-.377.342-.774.384-1.214a2.777 2.777 0 0 0-.213-1.382c.406.042.811.063 1.238.063 1.729-.063 3.713-.44 5.591-1.675Zm-15.622 1.026a5.377 5.377 0 0 1-.064-1.57c.086-.732.342-1.716 1.153-2.282.192-.146.49-.23.79-.23.34 0 .704.126.938.44.427.586.235 1.36-.149 1.863-.512.649-1.451 1.298-2.668 1.78Zm5.72 2.952a1.3 1.3 0 0 1-.918-.46 1.324 1.324 0 0 1-.32-.964c.021-.356.192-.67.47-.9.234-.21.554-.314.853-.314h.107a1.3 1.3 0 0 1 .918.46c.234.273.341.608.32.964-.022.356-.192.67-.47.9-.256.23-.597.335-.96.314Zm3.372 1.82c.555 0 1.152.231 1.686.817a.197.197 0 0 1 .043.21c-.32.67-1.004 1.486-1.665 1.905a.266.266 0 0 0-.107.314c.043.125.192.188.32.167.534-.105 1.302-.398 1.942-.795.064-.042.107-.063.171-.105.107-.084.278-.021.32.105.278.774.406 1.57.384 2.344a.202.202 0 0 1-.149.188c-.683.23-1.494.356-2.134.252-.15-.021-.299.02-.342.167-.064.147.022.272.15.356.47.272 1.174.565 1.92.733.129.02.214.167.15.272a5.25 5.25 0 0 1-.384.774 5.163 5.163 0 0 1-.832 1.068.23.23 0 0 1-.257.042 5.017 5.017 0 0 1-.896-.565.209.209 0 0 0-.299 0c-.085.063-.128.209-.064.314.107.209.299.481.512.774.064.105.043.23-.042.293a7.936 7.936 0 0 1-2.327.942c-.192.042-.32-.146-.234-.314 1.302-2.072 1.174-4.689.277-6.72-.704-1.59 0-2.825.96-3.286.214-.167.534-.251.897-.251Zm-2.006-6.363 11.14-8.457c-.021 2.052-.555 5.568-3.607 7.557-2.689 1.738-5.762 1.36-7.533.9Z"/>
</svg>
