<svg viewBox="0 0 48 48" xmlns="http://www.w3.org/2000/svg">
  <path d="M12 12.98a.98.98 0 0 1 .98-.98H24c2.465 0 4.76.745 6.667 2.021a.98.98 0 0 1-1.09 1.628A9.99 9.99 0 0 0 24 13.96H12.98a.98.98 0 0 1-.98-.98Zm20.125 3.51a.98.98 0 0 1 1.374.176A11.952 11.952 0 0 1 36 24a12 12 0 0 1-6.8 10.817.98.98 0 0 1-.85-1.765A10.042 10.042 0 0 0 34.04 24c0-2.312-.78-4.439-2.091-6.136a.98.98 0 0 1 .176-1.374ZM12 35.02a.98.98 0 0 1 .98-.98h12.49a.98.98 0 1 1 0 1.96H12.98a.98.98 0 0 1-.98-.98Zm1.958-17.633a.98.98 0 0 1 .98-.98h9.061a7.584 7.584 0 0 1 6.216 3.234.98.98 0 1 1-1.603 1.126 5.624 5.624 0 0 0-4.613-2.4h-9.061a.98.98 0 0 1-.98-.98Z" class="icon-color-primary"/>
  <path d="M30.611 23.02a.98.98 0 0 1 .98.98 7.592 7.592 0 0 1-7.592 7.592h-9.061a.98.98 0 1 1 0-1.96h9.061A5.633 5.633 0 0 0 29.632 24a.98.98 0 0 1 .98-.98h-.001Z" class="icon-color-primary"/>
  <path d="M16.408 20.571a.98.98 0 0 0 0 1.96h7.102a1.47 1.47 0 0 1 0 2.938.98.98 0 1 0 0 1.96 3.429 3.429 0 0 0 0-6.858h-7.102Zm0 4.899a.98.98 0 0 0 0 1.958h3.429a.98.98 0 0 0 0-1.959h-3.429v.001Z" class="icon-color-primary"/>
</svg>
