<svg viewBox="0 0 48 48" xmlns="http://www.w3.org/2000/svg">
  <path d="M23.484 9.178c-.185.08-.449.422-.58.765-.16.369-.476.633-.74.633-.791 0-3.325.949-4.486 1.688-.739.474-1.451.685-2.243.685-1.425 0-1.768.343-1.768 1.767 0 .765-.237 1.582-.765 2.532-.448.738-.976 2.083-1.24 2.98-.29 1.107-.607 1.661-1.003 1.846-.422.184-.58.5-.633 1.45-.08 1.055 0 1.24.58 1.503.449.211.74.633.95 1.424.159.633.502 1.688.792 2.374.317.817.448 1.582.343 2.32-.185 1.372.396 2.11 1.662 2.11.634 0 1.425.37 2.613 1.187 1.029.686 2.533 1.424 3.641 1.74 1.214.37 2.085.818 2.428 1.214.713.844 2.507.791 2.877-.08.184-.421.66-.659 1.688-.896.766-.158 2.19-.712 3.114-1.213 1.056-.554 2.058-.897 2.692-.897 1.24 0 1.636-.369 1.636-1.582 0-.554.422-1.74 1.055-3.006.554-1.16 1.109-2.585 1.188-3.165.132-.844.343-1.187.95-1.53.607-.369.765-.633.765-1.37 0-.924-.554-1.741-1.161-1.741-.211 0-.422-.449-.502-1.108-.079-.58-.606-1.978-1.16-3.086-.687-1.397-.977-2.268-.924-2.874.132-1.24-.554-1.952-1.82-1.873-.529.053-1.136-.052-1.347-.21-.712-.58-3.087-1.636-4.327-1.952-.871-.211-1.505-.554-1.9-1.055-.607-.738-1.478-.95-2.375-.58Zm-.58 2.32c0 .238.29.555.659.713.554.263.66.474.66 1.503 0 1.002-.106 1.266-.58 1.477-.476.21-.634.5-.687 1.503-.08 1.187-.185 1.319-2.375 3.323-2.982 2.716-3.166 2.69-3.985-1.002-.527-2.4-.554-2.717-.21-3.112.237-.238.448-.923.5-1.503.08-.95.185-1.108 1.4-1.767 1.371-.765 3.35-1.477 4.169-1.503.237-.027.448.158.448.369Zm7.124.87 1.98.977.078 1.186c.053.66.238 1.319.449 1.477.317.238.264.686-.343 3.033-.95 3.64-1.188 3.692-4.038.87-1.768-1.767-2.084-2.215-2.084-2.953 0-1.055-.396-1.9-.924-1.9-.29 0-.396-.316-.396-1.16 0-.922.159-1.345.74-1.977.923-1.002 1.82-.923 4.538.448Zm-14.672 4.194c.106.237.422 1.503.713 2.796.475 2.136.475 2.4.105 2.821-.21.238-.396.58-.396.739 0 .21-.475.316-1.293.316-1.055 0-1.345-.105-1.477-.5-.08-.291-.317-.581-.528-.66-.502-.185-.502-.897.026-2.453.95-2.795 2.375-4.325 2.85-3.059Zm20.002.791c.37.712.898 1.952 1.162 2.796.474 1.503.474 1.503-.106 1.925-.317.21-.58.58-.58.79 0 .265-.37.37-1.452.37-.792 0-1.451-.105-1.451-.237s-.185-.448-.422-.686c-.396-.395-.37-.633.29-3.112.95-3.56 1.451-3.903 2.56-1.846Zm-7.652 2.901c1.926 1.899 2.058 2.11 2.058 3.165 0 1.028-.105 1.213-1.979 2.9-1.742 1.583-2.137 1.82-3.246 1.926-1.003.105-1.293.264-1.557.817-.316.633-.607.765-2.665 1.134-4.328.765-4.38.791-4.723.185-.264-.448-.185-.897.527-2.77.555-1.476.977-2.267 1.24-2.267.898 0 1.584-.791 1.584-1.793 0-.844.238-1.213 2.164-3.139 2.084-2.083 2.216-2.188 3.377-2.188 1.109 0 1.267.105 3.22 2.03Zm-11.69 4.404c.29.528.237.923-.528 2.901-.712 1.899-.95 2.268-1.425 2.268-.448 0-.739-.316-1.187-1.345-.897-2.136-.95-2.953-.238-3.745.897-.95 2.903-1.002 3.378-.079Zm20.292.185.634.765-.554 1.793c-.634 2.083-1.69 3.745-2.402 3.745-.554 0-.527.052-1.346-3.323-.554-2.374-.554-2.426-.079-3.112.422-.554.713-.66 1.821-.66 1.135 0 1.399.106 1.926.792Zm-5.172.554c.238.21.686 1.476 1.003 2.927.554 2.32.554 2.61.185 3.033-.238.237-.449.923-.502 1.503-.079 1.002-.158 1.108-1.662 1.899-.897.474-2.111.949-2.692 1.08-.976.238-1.16.186-1.636-.368-.316-.343-.66-.633-.818-.633-.158 0-.264-.739-.264-1.714 0-1.319.08-1.715.396-1.715.502 0 .924-.817.95-1.898 0-.739.29-1.134 2.032-2.664 1.108-.976 2.164-1.767 2.322-1.767.132 0 .449.158.686.317Zm-6.913 7.674c0 1.107-.132 1.398-.845 2.11-1.003.949-1.451.949-3.773.026-2.085-.844-3.959-2.426-3.721-3.165.132-.448.633-.606 3.404-1.055l3.22-.527.844.686c.765.58.87.817.87 1.925Z" class="icon-color-primary"/>
  <path d="M22.577 20.578C21.481 21.321 21 22.17 21 23.498c0 3.449 3.93 4.75 6.229 2.069 2.459-2.919-1.47-7.112-4.652-4.989Zm3.956 1.672c.16.424-1.898 2.76-2.432 2.76-.374 0-1.497-1.115-1.497-1.486 0-.478.588-.61 1.123-.266.4.24.641.133 1.336-.584.99-.955 1.23-1.034 1.47-.424Z" class="icon-color-primary"/>
</svg>
