<svg xmlns="http://www.w3.org/2000/svg" version="1.0" viewBox="0 0 130 131">
  <path class="icon-color-primary" d="M62.2 8.7c-.7.3-1.7 1.6-2.2 2.9-.6 1.4-1.8 2.4-2.8 2.4-3 0-12.6 3.6-17 6.4-2.8 1.8-5.5 2.6-8.5 2.6-5.4 0-6.7 1.3-6.7 6.7 0 2.9-.9 6-2.9 9.6-1.7 2.8-3.7 7.9-4.7 11.3-1.1 4.2-2.3 6.3-3.8 7-1.6.7-2.2 1.9-2.4 5.5-.3 4 0 4.7 2.2 5.7 1.7.8 2.8 2.4 3.6 5.4.6 2.4 1.9 6.4 3 9 1.2 3.1 1.7 6 1.3 8.8-.7 5.2 1.5 8 6.3 8 2.4 0 5.4 1.4 9.9 4.5 3.9 2.6 9.6 5.4 13.8 6.6 4.6 1.4 7.9 3.1 9.2 4.6 2.7 3.2 9.5 3 10.9-.3.7-1.6 2.5-2.5 6.4-3.4 2.9-.6 8.3-2.7 11.8-4.6 4-2.1 7.8-3.4 10.2-3.4 4.7 0 6.2-1.4 6.2-6 0-2.1 1.6-6.6 4-11.4 2.1-4.4 4.2-9.8 4.5-12 .5-3.2 1.3-4.5 3.6-5.8 2.3-1.4 2.9-2.4 2.9-5.2 0-3.5-2.1-6.6-4.4-6.6-.8 0-1.6-1.7-1.9-4.2-.3-2.2-2.3-7.5-4.4-11.7-2.6-5.3-3.7-8.6-3.5-10.9.5-4.7-2.1-7.4-6.9-7.1-2 .2-4.3-.2-5.1-.8-2.7-2.2-11.7-6.2-16.4-7.4-3.3-.8-5.7-2.1-7.2-4-2.3-2.8-5.6-3.6-9-2.2zM60 17.5c0 .9 1.1 2.1 2.5 2.7 2.1 1 2.5 1.8 2.5 5.7 0 3.8-.4 4.8-2.2 5.6-1.8.8-2.4 1.9-2.6 5.7-.3 4.5-.7 5-9 12.6C39.9 60.1 39.2 60 36.1 46c-2-9.1-2.1-10.3-.8-11.8.9-.9 1.7-3.5 1.9-5.7.3-3.6.7-4.2 5.3-6.7 5.2-2.9 12.7-5.6 15.8-5.7.9-.1 1.7.6 1.7 1.4zm27 3.3 7.5 3.7.3 4.5c.2 2.5.9 5 1.7 5.6 1.2.9 1 2.6-1.3 11.5-3.6 13.8-4.5 14-15.3 3.3C73.2 42.7 72 41 72 38.2c0-4-1.5-7.2-3.5-7.2-1.1 0-1.5-1.2-1.5-4.4 0-3.5.6-5.1 2.8-7.5 3.5-3.8 6.9-3.5 17.2 1.7zM31.4 36.7c.4.9 1.6 5.7 2.7 10.6 1.8 8.1 1.8 9.1.4 10.7-.8.9-1.5 2.2-1.5 2.8 0 .8-1.8 1.2-4.9 1.2-4 0-5.1-.4-5.6-1.9-.3-1.1-1.2-2.2-2-2.5-1.9-.7-1.9-3.4.1-9.3 3.6-10.6 9-16.4 10.8-11.6zm75.8 3c1.4 2.7 3.4 7.4 4.4 10.6 1.8 5.7 1.8 5.7-.4 7.3-1.2.8-2.2 2.2-2.2 3 0 1-1.4 1.4-5.5 1.4-3 0-5.5-.4-5.5-.9s-.7-1.7-1.6-2.6c-1.5-1.5-1.4-2.4 1.1-11.8 3.6-13.5 5.5-14.8 9.7-7zm-29 11c7.3 7.2 7.8 8 7.8 12 0 3.9-.4 4.6-7.5 11-6.6 6-8.1 6.9-12.3 7.3-3.8.4-4.9 1-5.9 3.1-1.2 2.4-2.3 2.9-10.1 4.3-16.4 2.9-16.6 3-17.9.7-1-1.7-.7-3.4 2-10.5C36.4 73 38 70 39 70c3.4 0 6-3 6-6.8 0-3.2.9-4.6 8.2-11.9C61.1 43.4 61.6 43 66 43c4.2 0 4.8.4 12.2 7.7zM33.9 67.4c1.1 2 .9 3.5-2 11-2.7 7.2-3.6 8.6-5.4 8.6-1.7 0-2.8-1.2-4.5-5.1-3.4-8.1-3.6-11.2-.9-14.2 3.4-3.6 11-3.8 12.8-.3zm76.9.7 2.4 2.9-2.1 6.8c-2.4 7.9-6.4 14.2-9.1 14.2-2.1 0-2 .2-5.1-12.6-2.1-9-2.1-9.2-.3-11.8 1.6-2.1 2.7-2.5 6.9-2.5 4.3 0 5.3.4 7.3 3zm-19.6 2.1c.9.8 2.6 5.6 3.8 11.1 2.1 8.8 2.1 9.9.7 11.5-.9.9-1.7 3.5-1.9 5.7-.3 3.8-.6 4.2-6.3 7.2-3.4 1.8-8 3.6-10.2 4.1-3.7.9-4.4.7-6.2-1.4-1.2-1.3-2.5-2.4-3.1-2.4-.6 0-1-2.8-1-6.5 0-5 .3-6.5 1.5-6.5 1.9 0 3.5-3.1 3.6-7.2 0-2.8 1.1-4.3 7.7-10.1C84 72 88 69 88.6 69c.5 0 1.7.6 2.6 1.2zM65 99.3c0 4.2-.5 5.3-3.2 8-3.8 3.6-5.5 3.6-14.3.1-7.9-3.2-15-9.2-14.1-12 .5-1.7 2.4-2.3 12.9-4l12.2-2 3.2 2.6c2.9 2.2 3.3 3.1 3.3 7.3z"/>
  <path class="icon-color-primary" d="M58.9 52.3c-4.1 2.8-5.9 6-5.9 11 0 13 14.7 17.9 23.3 7.8 9.2-11-5.5-26.8-17.4-18.8zm14.8 6.3c.6 1.6-7.1 10.4-9.1 10.4-1.4 0-5.6-4.2-5.6-5.6 0-1.8 2.2-2.3 4.2-1 1.5.9 2.4.5 5-2.2 3.7-3.6 4.6-3.9 5.5-1.6z"/>
</svg>
