<svg xmlns="http://www.w3.org/2000/svg" viewBox="0 0 30 18">
  <path class="icon-color-primary" fill-rule="evenodd" clip-rule="evenodd" d="M21.119 0a8.881 8.881 0 1 0 0 17.763 8.881 8.881 0 0 0 0-17.763Zm3.08 4.128a.675.675 0 1 1-1.351-.002.675.675 0 0 1 1.35.002Zm.084 10.202a.675.675 0 1 0 .002-1.35.675.675 0 0 0-.002 1.35Zm0-8.407a.567.567 0 1 1-1.133-.002.567.567 0 0 1 1.133.002Zm.942.783a.567.567 0 1 0 .002-1.134.567.567 0 0 0-.002 1.134Zm-1.22.735a.482.482 0 1 1-.964-.002.482.482 0 0 1 .965.002Zm1.027.686a.482.482 0 1 0 .001-.965.482.482 0 0 0-.001.965Zm1.69-.012a.482.482 0 1 1-.964-.001.482.482 0 0 1 .965.001Zm-2.137 1.168a.422.422 0 1 0 .001-.844.422.422 0 0 0 0 .844Zm-1.087-.626a.422.422 0 1 1-.844-.001.422.422 0 0 1 .844.001Zm2.307 1.096a.422.422 0 1 0 0-.844.422.422 0 0 0 0 .844Zm-1.461.048a.362.362 0 1 1-.724 0 .362.362 0 0 1 .724 0Zm.857.82a.362.362 0 1 0 .001-.724.362.362 0 0 0 0 .723Zm-2.355-1.037a.362.362 0 1 1-.723 0 .362.362 0 0 1 .723 0Zm.471 1.169a.302.302 0 1 0 .001-.603.302.302 0 0 0 0 .603Zm.785.566a.265.265 0 1 1-.53 0 .265.265 0 0 1 .53 0Zm-.906.434a.217.217 0 1 0 0-.435.217.217 0 0 0 0 .435Zm-.302-.892a.265.265 0 1 1-.53 0 .265.265 0 0 1 .53 0Zm-1.086-.313a.302.302 0 1 0 0-.603.302.302 0 0 0 0 .603Zm.29-2.566a.302.302 0 1 1-.604 0 .302.302 0 0 1 .604 0Zm-.17-.758a.265.265 0 1 0 .001-.531.265.265 0 0 0 0 .53Zm.508-1.084a.217.217 0 1 1-.434 0 .217.217 0 0 1 .434 0Zm-.725-.193a.265.265 0 1 0 0-.53.265.265 0 0 0 0 .53Zm3.116 4.962a.302.302 0 1 1-.603 0 .302.302 0 0 1 .603 0Zm-3.804-5.311a.302.302 0 1 0 0-.603.302.302 0 0 0 0 .603Zm.507.975a.302.302 0 1 1-.603 0 .302.302 0 0 1 .603 0Zm-.64 1.518a.362.362 0 1 0 .001-.724.362.362 0 0 0-.001.724Zm-.676-.422a.422.422 0 1 1-.845 0 .422.422 0 0 1 .845 0Zm-1.703.711a.482.482 0 1 0 .001-.965.482.482 0 0 0 0 .965Zm-.833.12a.567.567 0 1 1-1.134 0 .567.567 0 0 1 1.134 0Zm-2.017 1.723a.675.675 0 1 0 .002-1.35.675.675 0 0 0-.002 1.35Zm1.45-3.132a.567.567 0 1 1-1.134-.001.567.567 0 0 1 1.133.001Zm.832-.12a.482.482 0 1 0 .002-.965.482.482 0 0 0-.002.965Zm.278-1.759a.482.482 0 1 1-.965 0 .482.482 0 0 1 .965 0Zm.797.193a.422.422 0 1 0 .001-.844.422.422 0 0 0 0 .844Zm1.461-.361a.362.362 0 1 1-.723-.001.362.362 0 0 1 .723 0Zm-.157 1.638a.362.362 0 1 0 .001-.724.362.362 0 0 0 0 .724Zm-.676-.41a.422.422 0 1 1-.844-.001.422.422 0 0 1 .844.001Zm-1.618 3.626a.217.217 0 1 0 0-.435.217.217 0 0 0 0 .435Zm1.135-.374a.265.265 0 1 1-.53 0 .265.265 0 0 1 .53 0Zm.688-.096a.302.302 0 1 0 .001-.603.302.302 0 0 0 0 .603Zm.592.602a.362.362 0 1 1-.723 0 .362.362 0 0 1 .723 0Zm-1.521.59a.302.302 0 1 0 0-.603.302.302 0 0 0 0 .603Zm-.761-.277a.265.265 0 1 1-.531 0 .265.265 0 0 1 .53 0Zm-.254 1.096a.302.302 0 1 0 0-.603.302.302 0 0 0 0 .603Zm1.594-.204a.362.362 0 1 1-.723-.001.362.362 0 0 1 .723 0Zm1.075.204a.422.422 0 1 0 .001-.844.422.422 0 0 0 0 .844Zm1.328.566a.482.482 0 1 1-.965 0 .482.482 0 0 1 .965 0Zm-2.258.627a.422.422 0 1 0 .001-.844.422.422 0 0 0 0 .844Zm-.58.397a.422.422 0 1 1-.844-.001.422.422 0 0 1 .845.001Zm.411 1.482a.482.482 0 1 0 .001-.965.482.482 0 0 0-.001.965Zm2.79-.373a.567.567 0 1 1-1.134-.002.567.567 0 0 1 1.134.002Zm-1.788-.446a.482.482 0 1 0 .002-.965.482.482 0 0 0-.002.965Zm2.718-.759a.567.567 0 1 1-1.134-.001.567.567 0 0 1 1.134.001Zm-5.06-.518a.362.362 0 1 0 0-.724.362.362 0 0 0 0 .724Z"/>
  <path class="icon-color-primary" d="M14.794 2.437a8.881 8.881 0 1 0-.015 13.269 9.284 9.284 0 0 1-.516-.511 8.157 8.157 0 1 1 .014-12.247 9.22 9.22 0 0 1 .517-.51Z"/>
</svg>
