<svg viewBox="0 0 48 48" xmlns="http://www.w3.org/2000/svg">
  <path d="M30.588 13.168a1.711 1.711 0 0 0 1.582-2.364 1.71 1.71 0 0 0-1.582-1.054 1.711 1.711 0 0 0-1.21 2.919 1.711 1.711 0 0 0 1.21.499Zm1.928 24.136a1.711 1.711 0 0 0 1.582-2.364 1.71 1.71 0 0 0-2.237-.924 1.71 1.71 0 0 0-1.058 1.579c0 .944.767 1.71 1.713 1.71v-.001Zm-1.44-19.864a1.435 1.435 0 1 0 0-2.869 1.435 1.435 0 1 0 .001 2.869h-.001Zm3.827.549c.794 0 1.438-.642 1.438-1.434 0-.793-.644-1.435-1.438-1.435-.794 0-1.438.643-1.438 1.435s.644 1.434 1.438 1.434Zm-4.314 3.081c.676 0 1.224-.546 1.224-1.22 0-.674-.548-1.22-1.224-1.22-.676 0-1.224.546-1.224 1.22 0 .674.548 1.22 1.224 1.22Zm3.822.52c.676 0 1.224-.547 1.224-1.221s-.548-1.22-1.224-1.22c-.676 0-1.224.546-1.224 1.22 0 .674.548 1.22 1.224 1.22v.001Zm3.061 1.19c.676 0 1.224-.547 1.224-1.221s-.548-1.22-1.224-1.22c-.676 0-1.224.546-1.224 1.22 0 .674.548 1.22 1.224 1.22v.001Zm-4.192 1.739a1.07 1.07 0 1 0 .002-2.14 1.07 1.07 0 0 0-.003 2.14h.001ZM29.456 24a1.07 1.07 0 1 0 .002-2.14 1.07 1.07 0 0 0-.003 2.14h.001Zm6.914 1.709a1.07 1.07 0 1 0 0-2.14 1.07 1.07 0 0 0 0 2.14Zm-4.62 1.037a.917.917 0 1 0-.002-1.834.917.917 0 0 0 .002 1.834Zm3.09 1.16a.917.917 0 1 0 .002-1.834.917.917 0 0 0-.002 1.834Zm-6.883-1.709a.917.917 0 1 0-.002-1.834.917.917 0 0 0 .002 1.834Zm2.111 2.044a.764.764 0 1 0 .057-1.527.764.764 0 0 0-.057 1.527Zm1.316 2.106a.672.672 0 1 0 .002-1.343.672.672 0 0 0-.002 1.343Zm-1.622.427a.55.55 0 1 0 0-1.1.55.55 0 0 0 0 1.1Zm-1.439-1.587a.672.672 0 1 0 .002-1.345.672.672 0 0 0-.002 1.345Zm-2.08-1.464a.764.764 0 1 0 .002-1.528.764.764 0 0 0-.002 1.528Zm-.031-5.737a.764.764 0 1 0 .002-1.528.764.764 0 0 0-.002 1.528Zm.338-2.686a.672.672 0 1 0 .002-1.347.672.672 0 0 0-.002 1.348V19.3Zm.733-2.196a.55.55 0 1 0 .002-1.101.55.55 0 0 0-.002 1.101ZM26 16.066a.672.672 0 1 0 0-1.345.672.672 0 0 0 0 1.345ZM33.126 29.4a.764.764 0 1 0 .002-1.527.765.765 0 0 0-.002 1.528V29.4Zm-8.871-14.219a.764.764 0 1 0 .057-1.527.764.764 0 0 0-.057 1.527Zm.52 3.235a.764.764 0 1 0 .002-1.528.764.764 0 0 0-.002 1.528Zm-.855 3.082a.917.917 0 1 0 .002-1.834.917.917 0 0 0-.002 1.834Zm-2.785-.001a1.07 1.07 0 0 0 1.07-1.067 1.068 1.068 0 0 0-1.826-.755 1.068 1.068 0 0 0 .756 1.822Zm-3.243.733a1.22 1.22 0 1 0 0-2.44c-.676 0-1.224.546-1.224 1.22 0 .674.548 1.22 1.224 1.22Zm-3.548 1.74c.794 0 1.438-.642 1.438-1.434 0-.793-.644-1.435-1.438-1.435-.794 0-1.438.643-1.438 1.434 0 .793.644 1.435 1.438 1.435Zm-3.672 2.929c.946 0 1.713-.765 1.713-1.709 0-.944-.767-1.709-1.713-1.709-.946 0-1.713.765-1.713 1.709 0 .944.767 1.709 1.713 1.709Zm2.235-6.499c.794 0 1.438-.643 1.438-1.435s-.644-1.434-1.438-1.434c-.794 0-1.438.642-1.438 1.434 0 .792.644 1.434 1.438 1.434v.001Zm3.547-1.74c.676 0 1.224-.547 1.224-1.22 0-.675-.548-1.221-1.224-1.221-.676 0-1.224.546-1.224 1.22 0 .674.548 1.22 1.224 1.22v.001Zm-.519-3.235c.675 0 1.223-.546 1.223-1.22 0-.674-.548-1.22-1.223-1.22-.676 0-1.224.546-1.224 1.22 0 .674.548 1.22 1.224 1.22Zm3.241-.732a1.07 1.07 0 0 0 1.07-1.068 1.068 1.068 0 0 0-1.826-.755 1.069 1.069 0 0 0 .756 1.823Zm2.784 0a.915.915 0 0 0 .877-1.273.915.915 0 0 0-1.503-.282.917.917 0 0 0 .627 1.555h-.001Zm.52 3.234a.917.917 0 1 0-.002-1.834.917.917 0 0 0 .002 1.834Zm-2.782.031a1.07 1.07 0 0 0 1.07-1.068 1.069 1.069 0 0 0-1.827-.756 1.07 1.07 0 0 0 .756 1.824h.001Zm-3.03 8.117a.55.55 0 1 0 .001-1.098.55.55 0 0 0-.001 1.098Zm2.202-.275a.672.672 0 1 0 .002-1.345.672.672 0 0 0-.002 1.345Zm2.418-.915a.764.764 0 1 0 .002-1.528.764.764 0 0 0-.002 1.528Zm.581 2.441a.917.917 0 1 0-.002-1.835.917.917 0 0 0 .002 1.835Zm-2.936.579a.764.764 0 1 0 .057-1.527.764.764 0 0 0-.057 1.527Zm-2.602-.03a.672.672 0 1 0 .002-1.343.672.672 0 0 0-.002 1.343Zm.032 2.105a.764.764 0 1 0 .002-1.527.764.764 0 1 0-.002 1.528v-.001Zm3.119.397a.917.917 0 1 0-.002-1.834.917.917 0 0 0 .002 1.834Zm3.641-.397a1.07 1.07 0 1 0 .002-2.141 1.07 1.07 0 0 0-.002 2.142v-.001Zm2.142 2.655a1.22 1.22 0 0 0 .886-2.096 1.221 1.221 0 0 0-.886-.345c-.676 0-1.224.546-1.224 1.22 0 .675.548 1.221 1.224 1.221Zm-4.497.366a1.07 1.07 0 1 0 0-2.14 1.07 1.07 0 0 0 0 2.14Zm-2.539 2.075a1.07 1.07 0 1 0 0-2.14 1.07 1.07 0 0 0 0 2.14Zm2.11 2.686c.676 0 1.224-.547 1.224-1.22 0-.675-.548-1.221-1.224-1.221-.676 0-1.224.546-1.224 1.22 0 .674.548 1.22 1.224 1.22v.001Zm5.631.488c.793 0 1.437-.642 1.437-1.434 0-.792-.644-1.434-1.438-1.434-.794 0-1.438.642-1.438 1.434 0 .792.644 1.434 1.438 1.434h.001Zm-3.092-2.563c.676 0 1.224-.547 1.224-1.221s-.548-1.22-1.224-1.22c-.676 0-1.224.546-1.224 1.22 0 .674.548 1.22 1.224 1.22v.001Zm5.447-.488a1.435 1.435 0 1 0 0-2.869 1.436 1.436 0 1 0 0 2.869Zm-11.382-2.747a.917.917 0 1 0-.002-1.834.917.917 0 0 0 .002 1.834Z" class="icon-color-primary"/>
</svg>
