<svg width="30" height="18" viewBox="0 0 30 18" xmlns="http://www.w3.org/2000/svg">
<path class="icon-color-primary" fill-rule="evenodd" clip-rule="evenodd" d="M21.1185 0C16.2134 0 12.2371 3.97637 12.2371 8.88147C12.2371 13.7866 16.2134 17.7629 21.1185 17.7629C26.0236 17.7629 30 13.7866 30 8.88147C30 3.97637 26.0236 0 21.1185 0ZM24.1987 4.12826C24.1987 4.50078 23.8959 4.80277 23.5224 4.80277C23.1489 4.80277 22.8462 4.50078 22.8462 4.12826C22.8462 3.75575 23.1489 3.45376 23.5224 3.45376C23.8959 3.45376 24.1987 3.75575 24.1987 4.12826ZM24.2832 14.3303C24.6567 14.3303 24.9594 14.0283 24.9594 13.6558C24.9594 13.2832 24.6567 12.9813 24.2832 12.9813C23.9097 12.9813 23.607 13.2832 23.607 13.6558C23.607 14.0283 23.9097 14.3303 24.2832 14.3303ZM24.2833 5.92297C24.2833 6.23562 24.0292 6.48907 23.7157 6.48907C23.4022 6.48907 23.1481 6.23562 23.1481 5.92297C23.1481 5.61032 23.4022 5.35686 23.7157 5.35686C24.0292 5.35686 24.2833 5.61032 24.2833 5.92297ZM25.2253 6.70582C25.5388 6.70582 25.7929 6.45237 25.7929 6.13972C25.7929 5.82707 25.5388 5.57362 25.2253 5.57362C24.9118 5.57362 24.6577 5.82707 24.6577 6.13972C24.6577 6.45237 24.9118 6.70582 25.2253 6.70582ZM24.0056 7.44057C24.0056 7.70666 23.7893 7.92236 23.5225 7.92236C23.2557 7.92236 23.0395 7.70666 23.0395 7.44057C23.0395 7.17449 23.2557 6.95878 23.5225 6.95878C23.7893 6.95878 24.0056 7.17449 24.0056 7.44057ZM25.0319 8.12722C25.2987 8.12722 25.5149 7.91152 25.5149 7.64543C25.5149 7.37935 25.2987 7.16364 25.0319 7.16364C24.7651 7.16364 24.5488 7.37935 24.5488 7.64543C24.5488 7.91152 24.7651 8.12722 25.0319 8.12722ZM26.7226 8.11512C26.7226 8.38121 26.5063 8.59691 26.2395 8.59691C25.9728 8.59691 25.7565 8.38121 25.7565 8.11512C25.7565 7.84904 25.9728 7.63333 26.2395 7.63333C26.5063 7.63333 26.7226 7.84904 26.7226 8.11512ZM24.5851 9.28344C24.8185 9.28344 25.0078 9.0947 25.0078 8.86187C25.0078 8.62905 24.8185 8.4403 24.5851 8.4403C24.3517 8.4403 24.1625 8.62905 24.1625 8.86187C24.1625 9.0947 24.3517 9.28344 24.5851 9.28344ZM23.4984 8.65701C23.4984 8.88984 23.3091 9.07858 23.0757 9.07858C22.8423 9.07858 22.6531 8.88984 22.6531 8.65701C22.6531 8.42419 22.8423 8.23545 23.0757 8.23545C23.3091 8.23545 23.4984 8.42419 23.4984 8.65701ZM25.8048 9.75313C26.0382 9.75313 26.2274 9.56439 26.2274 9.33156C26.2274 9.09874 26.0382 8.91 25.8048 8.91C25.5713 8.91 25.3821 9.09874 25.3821 9.33156C25.3821 9.56439 25.5713 9.75313 25.8048 9.75313ZM24.3437 9.80128C24.3437 10.0008 24.1815 10.1626 23.9814 10.1626C23.7814 10.1626 23.6192 10.0008 23.6192 9.80128C23.6192 9.60172 23.7814 9.43994 23.9814 9.43994C24.1815 9.43994 24.3437 9.60172 24.3437 9.80128ZM25.2011 10.6204C25.4012 10.6204 25.5634 10.4586 25.5634 10.259C25.5634 10.0595 25.4012 9.89769 25.2011 9.89769C25.001 9.89769 24.8388 10.0595 24.8388 10.259C24.8388 10.4586 25.001 10.6204 25.2011 10.6204ZM22.8462 9.58441C22.8462 9.78397 22.684 9.94575 22.4839 9.94575C22.2838 9.94575 22.1216 9.78397 22.1216 9.58441C22.1216 9.38485 22.2838 9.22307 22.4839 9.22307C22.684 9.22307 22.8462 9.38485 22.8462 9.58441ZM23.3172 10.7529C23.4839 10.7529 23.6191 10.6181 23.6191 10.4518C23.6191 10.2855 23.4839 10.1507 23.3172 10.1507C23.1504 10.1507 23.0153 10.2855 23.0153 10.4518C23.0153 10.6181 23.1504 10.7529 23.3172 10.7529ZM24.1021 11.319C24.1021 11.4653 23.9831 11.584 23.8364 11.584C23.6897 11.584 23.5707 11.4653 23.5707 11.319C23.5707 11.1727 23.6897 11.054 23.8364 11.054C23.9831 11.054 24.1021 11.1727 24.1021 11.319ZM23.1964 11.7527C23.3164 11.7527 23.4138 11.6556 23.4138 11.5359C23.4138 11.4161 23.3164 11.3191 23.1964 11.3191C23.0763 11.3191 22.979 11.4161 22.979 11.5359C22.979 11.6556 23.0763 11.7527 23.1964 11.7527ZM22.8945 10.8613C22.8945 11.0076 22.7755 11.1262 22.6288 11.1262C22.4821 11.1262 22.3631 11.0076 22.3631 10.8613C22.3631 10.7149 22.4821 10.5963 22.6288 10.5963C22.7755 10.5963 22.8945 10.7149 22.8945 10.8613ZM21.8078 10.5482C21.9745 10.5482 22.1097 10.4134 22.1097 10.2471C22.1097 10.0808 21.9745 9.94594 21.8078 9.94594C21.641 9.94594 21.5059 10.0808 21.5059 10.2471C21.5059 10.4134 21.641 10.5482 21.8078 10.5482ZM22.0975 7.98246C22.0975 8.14877 21.9623 8.28358 21.7956 8.28358C21.6288 8.28358 21.4937 8.14877 21.4937 7.98246C21.4937 7.81616 21.6288 7.68134 21.7956 7.68134C21.9623 7.68134 22.0975 7.81616 22.0975 7.98246ZM21.9284 7.2237C22.0751 7.2237 22.1941 7.10506 22.1941 6.95871C22.1941 6.81236 22.0751 6.69373 21.9284 6.69373C21.7817 6.69373 21.6628 6.81236 21.6628 6.95871C21.6628 7.10506 21.7817 7.2237 21.9284 7.2237ZM22.4357 6.13965C22.4357 6.25939 22.3384 6.35646 22.2183 6.35646C22.0983 6.35646 22.0009 6.25939 22.0009 6.13965C22.0009 6.01991 22.0983 5.92285 22.2183 5.92285C22.3384 5.92285 22.4357 6.01991 22.4357 6.13965ZM21.7111 5.94703C21.8578 5.94703 21.9768 5.82839 21.9768 5.68205C21.9768 5.5357 21.8578 5.41706 21.7111 5.41706C21.5644 5.41706 21.4454 5.5357 21.4454 5.68205C21.4454 5.82839 21.5644 5.94703 21.7111 5.94703ZM24.8267 10.9094C24.8267 11.0757 24.6915 11.2105 24.5248 11.2105C24.358 11.2105 24.2229 11.0757 24.2229 10.9094C24.2229 10.7431 24.358 10.6082 24.5248 10.6082C24.6915 10.6082 24.8267 10.7431 24.8267 10.9094ZM21.0228 5.59772C21.1895 5.59772 21.3247 5.4629 21.3247 5.2966C21.3247 5.13029 21.1895 4.99548 21.0228 4.99548C20.856 4.99548 20.7209 5.13029 20.7209 5.2966C20.7209 5.4629 20.856 5.59772 21.0228 5.59772ZM21.53 6.57339C21.53 6.73969 21.3948 6.87451 21.2281 6.87451C21.0613 6.87451 20.9262 6.73969 20.9262 6.57339C20.9262 6.40708 21.0613 6.27227 21.2281 6.27227C21.3948 6.27227 21.53 6.40708 21.53 6.57339ZM20.89 8.09096C21.0901 8.09096 21.2523 7.92918 21.2523 7.72961C21.2523 7.53005 21.0901 7.36827 20.89 7.36827C20.6899 7.36827 20.5278 7.53005 20.5278 7.72961C20.5278 7.92918 20.6899 8.09096 20.89 8.09096ZM20.2136 7.66931C20.2136 7.90214 20.0244 8.09088 19.791 8.09088C19.5575 8.09088 19.3683 7.90214 19.3683 7.66931C19.3683 7.43649 19.5575 7.24775 19.791 7.24775C20.0244 7.24775 20.2136 7.43649 20.2136 7.66931ZM18.5111 8.38009C18.7778 8.38009 18.9941 8.16439 18.9941 7.8983C18.9941 7.63222 18.7778 7.41651 18.5111 7.41651C18.2443 7.41651 18.028 7.63222 18.028 7.8983C18.028 8.16439 18.2443 8.38009 18.5111 8.38009ZM17.6778 8.50061C17.6778 8.81326 17.4237 9.06671 17.1103 9.06671C16.7968 9.06671 16.5427 8.81326 16.5427 8.50061C16.5427 8.18796 16.7968 7.93451 17.1103 7.93451C17.4237 7.93451 17.6778 8.18796 17.6778 8.50061ZM15.6611 10.2229C16.0346 10.2229 16.3374 9.92092 16.3374 9.5484C16.3374 9.17589 16.0346 8.8739 15.6611 8.8739C15.2876 8.8739 14.9849 9.17589 14.9849 9.5484C14.9849 9.92092 15.2876 10.2229 15.6611 10.2229ZM17.1103 7.09131C17.1103 7.40396 16.8562 7.65741 16.5428 7.65741C16.2293 7.65741 15.9752 7.40396 15.9752 7.09131C15.9752 6.77866 16.2293 6.5252 16.5428 6.5252C16.8562 6.5252 17.1103 6.77866 17.1103 7.09131ZM17.9434 6.97079C18.2102 6.97079 18.4264 6.75508 18.4264 6.489C18.4264 6.22291 18.2102 6.00721 17.9434 6.00721C17.6766 6.00721 17.4604 6.22291 17.4604 6.489C17.4604 6.75508 17.6766 6.97079 17.9434 6.97079ZM18.2211 5.21221C18.2211 5.4783 18.0049 5.694 17.7381 5.694C17.4713 5.694 17.255 5.4783 17.255 5.21221C17.255 4.94613 17.4713 4.73042 17.7381 4.73042C18.0049 4.73042 18.2211 4.94613 18.2211 5.21221ZM19.0182 5.40497C19.2516 5.40497 19.4409 5.21623 19.4409 4.9834C19.4409 4.75058 19.2516 4.56184 19.0182 4.56184C18.7848 4.56184 18.5956 4.75058 18.5956 4.9834C18.5956 5.21623 18.7848 5.40497 19.0182 5.40497ZM20.4793 5.04364C20.4793 5.2432 20.3171 5.40498 20.117 5.40498C19.9169 5.40498 19.7547 5.2432 19.7547 5.04364C19.7547 4.84408 19.9169 4.6823 20.117 4.6823C20.3171 4.6823 20.4793 4.84408 20.4793 5.04364ZM20.3224 6.68163C20.5224 6.68163 20.6846 6.51985 20.6846 6.32029C20.6846 6.12072 20.5224 5.95894 20.3224 5.95894C20.1223 5.95894 19.9601 6.12072 19.9601 6.32029C19.9601 6.51985 20.1223 6.68163 20.3224 6.68163ZM19.6462 6.27225C19.6462 6.50507 19.4569 6.69381 19.2235 6.69381C18.9901 6.69381 18.8009 6.50507 18.8009 6.27225C18.8009 6.03942 18.9901 5.85068 19.2235 5.85068C19.4569 5.85068 19.6462 6.03942 19.6462 6.27225ZM18.0279 9.89766C18.148 9.89766 18.2453 9.80059 18.2453 9.68085C18.2453 9.56111 18.148 9.46405 18.0279 9.46405C17.9079 9.46405 17.8106 9.56111 17.8106 9.68085C17.8106 9.80059 17.9079 9.89766 18.0279 9.89766ZM19.1631 9.52436C19.1631 9.6707 19.0442 9.78934 18.8974 9.78934C18.7507 9.78934 18.6318 9.6707 18.6318 9.52436C18.6318 9.37801 18.7507 9.25937 18.8974 9.25937C19.0442 9.25937 19.1631 9.37801 19.1631 9.52436ZM19.8514 9.42807C20.0181 9.42807 20.1533 9.29326 20.1533 9.12695C20.1533 8.96065 20.0181 8.82583 19.8514 8.82583C19.6846 8.82583 19.5495 8.96065 19.5495 9.12695C19.5495 9.29326 19.6846 9.42807 19.8514 9.42807ZM20.4431 10.0302C20.4431 10.2298 20.2809 10.3915 20.0808 10.3915C19.8807 10.3915 19.7185 10.2298 19.7185 10.0302C19.7185 9.83063 19.8807 9.66885 20.0808 9.66885C20.2809 9.66885 20.4431 9.83063 20.4431 10.0302ZM18.9217 10.6203C19.0884 10.6203 19.2236 10.4855 19.2236 10.3192C19.2236 10.1529 19.0884 10.0181 18.9217 10.0181C18.755 10.0181 18.6198 10.1529 18.6198 10.3192C18.6198 10.4855 18.755 10.6203 18.9217 10.6203ZM18.1608 10.3433C18.1608 10.4896 18.0418 10.6083 17.8951 10.6083C17.7484 10.6083 17.6294 10.4896 17.6294 10.3433C17.6294 10.1969 17.7484 10.0783 17.8951 10.0783C18.0418 10.0783 18.1608 10.1969 18.1608 10.3433ZM17.9071 11.4394C18.0738 11.4394 18.209 11.3046 18.209 11.1383C18.209 10.972 18.0738 10.8372 17.9071 10.8372C17.7404 10.8372 17.6052 10.972 17.6052 11.1383C17.6052 11.3046 17.7404 11.4394 17.9071 11.4394ZM19.5012 11.2346C19.5012 11.4342 19.339 11.596 19.1389 11.596C18.9388 11.596 18.7766 11.4342 18.7766 11.2346C18.7766 11.0351 18.9388 10.8733 19.1389 10.8733C19.339 10.8733 19.5012 11.0351 19.5012 11.2346ZM20.5761 11.4394C20.8095 11.4394 20.9987 11.2507 20.9987 11.0178C20.9987 10.785 20.8095 10.5963 20.5761 10.5963C20.3426 10.5963 20.1534 10.785 20.1534 11.0178C20.1534 11.2507 20.3426 11.4394 20.5761 11.4394ZM21.9042 12.0054C21.9042 12.2715 21.688 12.4872 21.4212 12.4872C21.1544 12.4872 20.9382 12.2715 20.9382 12.0054C20.9382 11.7393 21.1544 11.5236 21.4212 11.5236C21.688 11.5236 21.9042 11.7393 21.9042 12.0054ZM19.6462 12.6318C19.8796 12.6318 20.0688 12.4431 20.0688 12.2103C20.0688 11.9774 19.8796 11.7887 19.6462 11.7887C19.4127 11.7887 19.2235 11.9774 19.2235 12.2103C19.2235 12.4431 19.4127 12.6318 19.6462 12.6318ZM19.0665 13.0293C19.0665 13.2621 18.8772 13.4508 18.6438 13.4508C18.4104 13.4508 18.2211 13.2621 18.2211 13.0293C18.2211 12.7964 18.4104 12.6077 18.6438 12.6077C18.8772 12.6077 19.0665 12.7964 19.0665 13.0293ZM19.477 14.5108C19.7438 14.5108 19.96 14.2951 19.96 14.0291C19.96 13.763 19.7438 13.5473 19.477 13.5473C19.2102 13.5473 18.994 13.763 18.994 14.0291C18.994 14.2951 19.2102 14.5108 19.477 14.5108ZM22.2666 14.1375C22.2666 14.4502 22.0125 14.7036 21.699 14.7036C21.3856 14.7036 21.1315 14.4502 21.1315 14.1375C21.1315 13.8249 21.3856 13.5714 21.699 13.5714C22.0125 13.5714 22.2666 13.8249 22.2666 14.1375ZM20.4794 13.6917C20.7461 13.6917 20.9624 13.476 20.9624 13.2099C20.9624 12.9438 20.7461 12.7281 20.4794 12.7281C20.2126 12.7281 19.9963 12.9438 19.9963 13.2099C19.9963 13.476 20.2126 13.6917 20.4794 13.6917ZM23.1965 12.9331C23.1965 13.2457 22.9424 13.4992 22.6289 13.4992C22.3155 13.4992 22.0614 13.2457 22.0614 12.9331C22.0614 12.6204 22.3155 12.367 22.6289 12.367C22.9424 12.367 23.1965 12.6204 23.1965 12.9331ZM18.1366 12.4151C18.3367 12.4151 18.4989 12.2533 18.4989 12.0538C18.4989 11.8542 18.3367 11.6924 18.1366 11.6924C17.9365 11.6924 17.7743 11.8542 17.7743 12.0538C17.7743 12.2533 17.9365 12.4151 18.1366 12.4151Z" />
<path class="icon-color-primary" d="M14.7939 2.43721C13.2236 1.03541 11.152 0.183361 8.88147 0.183361C3.97637 0.183361 0 4.15973 0 9.06483C0 13.9699 3.97637 17.9463 8.88147 17.9463C11.1447 17.9463 13.2101 17.0998 14.7785 15.7061C14.5999 15.5423 14.4278 15.3716 14.2628 15.1946C12.8267 16.4564 10.9434 17.2215 8.88147 17.2215C4.37668 17.2215 0.72483 13.5696 0.72483 9.06483C0.72483 4.56004 4.37668 0.908191 8.88147 0.908191C10.9502 0.908191 12.8391 1.67834 14.277 2.94758C14.4424 2.77088 14.6148 2.60062 14.7939 2.43721Z" />
</svg>
