<svg xmlns="http://www.w3.org/2000/svg" viewBox="0 0 48 48">
  <path class="icon-color-primary" d="M30.588 13.168c.946 0 1.713-.765 1.713-1.71a1.71 1.71 0 0 0-1.713-1.708c-.946 0-1.713.765-1.713 1.709a1.71 1.71 0 0 0 1.713 1.709Zm1.928 24.136c.946 0 1.713-.765 1.713-1.709a1.71 1.71 0 0 0-1.713-1.708 1.71 1.71 0 0 0-1.713 1.708c0 .944.767 1.71 1.713 1.71Zm-1.44-19.864a1.435 1.435 0 1 0 0-2.869 1.435 1.435 0 1 0 .001 2.869Zm3.827.549c.794 0 1.438-.642 1.438-1.434 0-.793-.644-1.435-1.438-1.435-.794 0-1.438.643-1.438 1.435s.644 1.434 1.438 1.434Zm-4.314 3.081c.676 0 1.224-.546 1.224-1.22 0-.674-.548-1.22-1.224-1.22-.676 0-1.224.546-1.224 1.22 0 .674.548 1.22 1.224 1.22Zm3.822.52c.676 0 1.224-.547 1.224-1.221s-.548-1.22-1.224-1.22c-.676 0-1.224.546-1.224 1.22 0 .674.548 1.22 1.224 1.22Zm3.061 1.19c.676 0 1.224-.547 1.224-1.221s-.548-1.22-1.224-1.22c-.676 0-1.224.546-1.224 1.22 0 .674.548 1.22 1.224 1.22Zm-4.192 1.739a1.07 1.07 0 0 0 1.07-1.068 1.07 1.07 0 0 0-2.141 0c0 .59.48 1.068 1.07 1.068ZM29.456 24a1.07 1.07 0 0 0 1.07-1.068 1.07 1.07 0 0 0-2.141 0c0 .59.48 1.068 1.07 1.068Zm6.914 1.709a1.07 1.07 0 0 0 1.07-1.068 1.07 1.07 0 0 0-2.142 0c0 .59.48 1.068 1.072 1.068Zm-4.62 1.037a.917.917 0 1 0-.918-.915c0 .505.41.915.918.915Zm3.09 1.16a.917.917 0 1 0 .002-1.834.917.917 0 0 0-.002 1.834Zm-6.883-1.709a.917.917 0 1 0-.918-.916c0 .506.411.916.918.916Zm2.111 2.044a.764.764 0 1 0 .002-1.527.764.764 0 0 0-.002 1.527Zm1.316 2.106a.672.672 0 1 0 .002-1.344.672.672 0 0 0-.002 1.344Zm-1.622.427a.55.55 0 1 0 .001-1.1.55.55 0 0 0-.001 1.1Zm-1.439-1.587a.672.672 0 1 0 .002-1.344.672.672 0 0 0-.002 1.344Zm-2.08-1.464a.764.764 0 1 0 .002-1.528.764.764 0 0 0-.002 1.528Zm-.031-5.737a.764.764 0 1 0 .002-1.528.764.764 0 0 0-.002 1.528Zm.338-2.686a.672.672 0 1 0 .002-1.344.672.672 0 0 0-.002 1.345Zm.733-2.196a.55.55 0 1 0 .002-1.1.55.55 0 0 0-.002 1.1ZM26 16.066a.672.672 0 1 0 0-1.344.672.672 0 0 0 0 1.344ZM33.126 29.4a.764.764 0 1 0 .002-1.527.764.764 0 0 0-.002 1.528Zm-8.871-14.219a.764.764 0 1 0 .002-1.527.764.764 0 0 0-.002 1.527Zm.52 3.235a.764.764 0 1 0 .002-1.528.764.764 0 0 0-.002 1.528Zm-.855 3.082a.917.917 0 1 0 .002-1.834.917.917 0 0 0-.002 1.834Zm-2.785-.001a1.07 1.07 0 0 0 1.07-1.067c0-.59-.478-1.068-1.07-1.068a1.07 1.07 0 0 0-1.07 1.068c0 .59.479 1.067 1.07 1.067Zm-3.243.733a1.221 1.221 0 1 0 0-2.44c-.676 0-1.224.546-1.224 1.22 0 .674.548 1.22 1.224 1.22Zm-3.548 1.74c.794 0 1.438-.642 1.438-1.434 0-.793-.644-1.435-1.438-1.435-.794 0-1.438.643-1.438 1.434 0 .793.644 1.435 1.438 1.435Zm-3.672 2.929c.946 0 1.713-.765 1.713-1.709 0-.944-.767-1.709-1.713-1.709-.946 0-1.713.765-1.713 1.709 0 .944.767 1.709 1.713 1.709Zm2.235-6.499c.794 0 1.438-.643 1.438-1.435s-.644-1.434-1.438-1.434c-.794 0-1.438.642-1.438 1.434 0 .792.644 1.434 1.438 1.434Zm3.547-1.74c.676 0 1.224-.547 1.224-1.22 0-.675-.548-1.221-1.224-1.221-.676 0-1.224.546-1.224 1.22 0 .674.548 1.22 1.224 1.22Zm-.519-3.235c.675 0 1.223-.546 1.223-1.22 0-.674-.548-1.22-1.223-1.22-.676 0-1.224.546-1.224 1.22 0 .674.548 1.22 1.224 1.22Zm3.241-.732a1.07 1.07 0 0 0 1.07-1.068c0-.59-.478-1.068-1.07-1.068a1.07 1.07 0 0 0-1.07 1.068c0 .59.479 1.068 1.07 1.068Zm2.784 0a.917.917 0 1 0 .003-1.833.917.917 0 0 0-.002 1.833Zm.52 3.234a.917.917 0 1 0-.918-.915c0 .505.411.915.918.915Zm-2.782.031a1.07 1.07 0 0 0 1.07-1.068c0-.59-.479-1.068-1.07-1.068a1.07 1.07 0 0 0-1.071 1.068c0 .59.48 1.068 1.07 1.068Zm-3.03 8.117a.55.55 0 1 0 .001-1.1.55.55 0 0 0-.001 1.1Zm2.202-.275a.672.672 0 1 0 .002-1.344.672.672 0 0 0-.002 1.344Zm2.418-.915a.764.764 0 1 0 .002-1.528.764.764 0 0 0-.002 1.528Zm.581 2.441a.917.917 0 1 0-.918-.916c0 .506.411.916.918.916Zm-2.936.579a.764.764 0 1 0 .002-1.527.764.764 0 0 0-.002 1.527Zm-2.602-.03a.672.672 0 1 0 .002-1.344.672.672 0 0 0-.002 1.344Zm.032 2.105a.764.764 0 1 0 .002-1.527.764.764 0 0 0-.002 1.528Zm3.119.397a.917.917 0 1 0-.918-.915c0 .505.411.915.918.915Zm3.641-.397a1.07 1.07 0 0 0 1.071-1.067 1.07 1.07 0 0 0-2.141 0c0 .59.48 1.068 1.07 1.068Zm2.142 2.655a1.221 1.221 0 1 0 0-2.441c-.676 0-1.224.546-1.224 1.22 0 .675.548 1.221 1.224 1.221Zm-4.497.366a1.07 1.07 0 0 0 1.07-1.067 1.07 1.07 0 0 0-2.141 0c0 .59.48 1.067 1.071 1.067Zm-2.539 2.075a1.07 1.07 0 0 0 1.07-1.068 1.07 1.07 0 0 0-2.142 0 1.07 1.07 0 0 0 1.072 1.068Zm2.11 2.686c.676 0 1.224-.547 1.224-1.22 0-.675-.548-1.221-1.224-1.221-.676 0-1.224.546-1.224 1.22 0 .674.548 1.22 1.224 1.22Zm5.631.488c.793 0 1.437-.642 1.437-1.434 0-.792-.644-1.434-1.438-1.434-.794 0-1.438.642-1.438 1.434 0 .792.644 1.434 1.438 1.434Zm-3.092-2.563c.676 0 1.224-.547 1.224-1.221s-.548-1.22-1.224-1.22c-.676 0-1.224.546-1.224 1.22 0 .674.548 1.22 1.224 1.22Zm5.447-.488a1.435 1.435 0 1 0 0-2.869 1.436 1.436 0 1 0 0 2.869Zm-11.382-2.747a.917.917 0 1 0-.918-.915c0 .505.411.915.918.915Z"/>
</svg>
