<svg viewBox="0 0 48 48" xmlns="http://www.w3.org/2000/svg">
  <path d="M16.147 26.79h5.789v-1.666H18.99v-.045l.707-.6c1.72-1.46 2.158-2.218 2.158-3.107 0-1.434-1.153-2.372-2.96-2.372-1.757 0-2.899.994-2.895 2.612h1.944c-.003-.646.383-1.006.95-1.006.564 0 .965.356.965.946 0 .544-.342.896-.899 1.366l-2.813 2.37v1.502Zm7.638.12c.541 0 1.024-.465 1.031-1.05-.007-.571-.49-1.036-1.03-1.036-.572 0-1.04.465-1.032 1.035-.007.586.46 1.05 1.031 1.05v.001Z" class="icon-color-primary"/>
  <path fill-rule="evenodd" clip-rule="evenodd" d="M32 22.962c-.004 2.545-1.278 4.042-3.329 4.038-2.054-.004-3.336-1.505-3.328-4.038C25.35 20.426 26.617 19 28.67 19c2.051 0 3.333 1.433 3.329 3.962H32Zm-4.537 0c-.007 1.618.501 2.342 1.208 2.342s1.212-.724 1.208-2.341c-.004-1.58-.5-2.282-1.208-2.282-.707 0-1.2.702-1.207 2.281h-.001Z" class="icon-color-primary"/>
  <path fill-rule="evenodd" clip-rule="evenodd" d="M35.685 33.152c1.433-.804 2.315-2.28 2.315-3.876V18.724c0-1.596-.882-3.072-2.315-3.876L26.35 9.61a4.828 4.828 0 0 0-4.703 0l-9.333 5.237c-1.433.804-2.315 2.28-2.315 3.876v10.552c0 1.596.882 3.072 2.315 3.876l9.333 5.237a4.828 4.828 0 0 0 4.704 0l9.333-5.237.001.001ZM36 18.724v10.552c0 .846-.468 1.669-1.294 2.132l-9.333 5.236c-.845.475-1.9.475-2.746 0l-9.333-5.236C12.468 30.945 12 30.122 12 29.276V18.724c0-.846.468-1.669 1.294-2.132l9.333-5.236a2.827 2.827 0 0 1 2.746 0l9.333 5.236c.826.463 1.294 1.286 1.294 2.132Z" class="icon-color-primary"/>
</svg>
