<svg viewBox="0 0 48 48" xmlns="http://www.w3.org/2000/svg">
  <path fill-rule="evenodd" clip-rule="evenodd" d="M30.5 14a9.5 9.5 0 0 0-9.5 9.5 9.5 9.5 0 0 0 9.5 9.5 9.5 9.5 0 1 0 0-19Zm3.295 4.416a.723.723 0 1 1-1.445-.002.723.723 0 0 1 1.445.002Zm.09 10.912a.722.722 0 1 0 .002-1.444.722.722 0 0 0-.002 1.444Zm0-8.992a.606.606 0 1 1-1.212-.002.606.606 0 0 1 1.212.002Zm1.008.837a.606.606 0 1 0 .001-1.213.606.606 0 0 0-.001 1.213Zm-1.305.786a.516.516 0 1 1-1.032-.002.516.516 0 0 1 1.032.002Zm1.098.734a.516.516 0 1 0 .001-1.032.516.516 0 0 0-.001 1.032Zm1.808-.013a.516.516 0 1 1-1.032-.001.516.516 0 0 1 1.032.001Zm-2.286 1.25a.452.452 0 1 0 .001-.903.452.452 0 0 0-.001.903Zm-1.162-.67a.452.452 0 1 1-.904-.001.452.452 0 0 1 .904 0Zm2.467 1.172a.452.452 0 1 0 0-.903.452.452 0 0 0 0 .903Zm-1.563.052a.387.387 0 1 1-.774-.001.387.387 0 0 1 .774 0Zm.917.876a.387.387 0 1 0 0-.774.387.387 0 0 0 0 .774Zm-2.519-1.108a.387.387 0 1 1-.774-.001.387.387 0 0 1 .774 0Zm.504 1.25a.323.323 0 1 0 0-.645.323.323 0 0 0 0 .645Zm.84.605a.284.284 0 1 1-.568 0 .284.284 0 0 1 .567 0Zm-.97.464a.232.232 0 1 0 .001-.464.232.232 0 0 0 0 .464Zm-.322-.953a.284.284 0 1 1-.568-.001.284.284 0 0 1 .568 0Zm-1.163-.335a.322.322 0 1 0 .001-.645.322.322 0 0 0 0 .645Zm.31-2.745a.323.323 0 1 1-.645 0 .323.323 0 0 1 .645 0Zm-.18-.811a.284.284 0 1 0 0-.568.284.284 0 0 0 0 .568Zm.542-1.16a.232.232 0 1 1-.465 0 .232.232 0 0 1 .465 0Zm-.775-.206a.284.284 0 1 0 0-.567.284.284 0 0 0 0 .567Zm3.332 5.308a.323.323 0 1 1-.645 0 .323.323 0 0 1 .645 0Zm-4.068-5.681a.323.323 0 1 0 0-.645.323.323 0 0 0 0 .645Zm.542 1.043a.323.323 0 1 1-.645 0 .323.323 0 0 1 .645 0Zm-.684 1.623a.387.387 0 1 0 0-.774.387.387 0 0 0 0 .774Zm-.724-.45a.452.452 0 1 1-.903-.002.452.452 0 0 1 .903.001Zm-1.821.76a.516.516 0 1 0 .001-1.032.516.516 0 0 0-.001 1.032Zm-.891.129a.606.606 0 1 1-1.213-.002.606.606 0 0 1 1.213.002Zm-2.157 1.842a.722.722 0 1 0 .001-1.445.722.722 0 0 0-.002 1.445Zm1.55-3.35A.606.606 0 1 1 25 21.584a.606.606 0 0 1 1.213.001Zm.89-.129a.516.516 0 1 0 .002-1.032.516.516 0 0 0-.001 1.032Zm.298-1.88a.516.516 0 1 1-1.032-.002.516.516 0 0 1 1.032.001Zm.852.205a.452.452 0 1 0 .001-.903.452.452 0 0 0 0 .903Zm1.563-.386a.387.387 0 1 1-.774-.001.387.387 0 0 1 .774 0Zm-.168 1.752a.387.387 0 1 0 .001-.774.387.387 0 0 0 0 .774Zm-.723-.438a.452.452 0 1 1-.903-.001.452.452 0 0 1 .903.001Zm-1.73 3.878a.232.232 0 1 0 0-.464.232.232 0 0 0 0 .464Zm1.213-.4a.284.284 0 1 1-.567 0 .284.284 0 0 1 .567 0Zm.737-.102a.323.323 0 1 0 0-.645.323.323 0 0 0 0 .645Zm.633.644a.387.387 0 1 1-.774-.001.387.387 0 0 1 .773 0Zm-1.628.631a.323.323 0 1 0 .001-.645.323.323 0 0 0 0 .645Zm-.814-.296a.284.284 0 1 1-.568-.001.284.284 0 0 1 .568 0Zm-.271 1.172a.323.323 0 1 0 0-.645.323.323 0 0 0 0 .645Zm1.705-.219a.387.387 0 1 1-.774 0 .387.387 0 0 1 .774 0Zm1.15.22a.451.451 0 1 0 0-.904.451.451 0 0 0 0 .903Zm1.42.605a.516.516 0 1 1-1.032-.002.516.516 0 0 1 1.032.002Zm-2.415.67a.451.451 0 1 0 .001-.903.451.451 0 0 0 0 .902Zm-.62.425a.452.452 0 1 1-.903-.002.452.452 0 0 1 .903.002Zm.44 1.584a.516.516 0 1 0 0-1.032.516.516 0 0 0 0 1.032Zm2.983-.399a.606.606 0 1 1-1.212-.001.606.606 0 0 1 1.212.001Zm-1.912-.477a.516.516 0 1 0 .001-1.032.516.516 0 0 0 0 1.032Zm2.907-.811a.606.606 0 1 1-1.213-.002.606.606 0 0 1 1.213.002Zm-5.413-.554a.387.387 0 1 0 .001-.774.387.387 0 0 0 0 .774Z" class="icon-color-primary"/>
  <path d="M24 16.41A9.63 9.63 0 0 0 17.605 14C12.301 14 8 18.253 8 23.5s4.3 9.5 9.605 9.5a9.63 9.63 0 0 0 6.378-2.396 9.914 9.914 0 0 1-.557-.547 8.845 8.845 0 0 1-5.82 2.168c-4.873 0-8.822-3.907-8.822-8.725 0-4.819 3.95-8.725 8.821-8.725 2.238 0 4.28.824 5.836 2.182a9.6 9.6 0 0 1 .559-.546Z" class="icon-color-primary"/>
</svg>
