<svg xmlns="http://www.w3.org/2000/svg" viewBox="0 0 30 22">
  <path class="icon-color-primary" fill-rule="evenodd" clip-rule="evenodd" d="M4.783 4.019a3.692 3.692 0 0 1 7.026-1.883l.913-.244a5.219 5.219 0 0 1 6.392 3.69l1.779 6.64a5.219 5.219 0 0 1-3.69 6.391L8.35 20.985a5.219 5.219 0 0 1-6.392-3.69L.18 10.655a5.219 5.219 0 0 1 3.69-6.391l.914-.245Zm5.999 6.158c-.302.519-.97.698-1.491.4a1.079 1.079 0 0 1-.397-1.482c.302-.52.97-.698 1.491-.4.521.3.699.962.397 1.482Zm-5.748 2.798-.359-.205c-1.126-.646-1.11-2.267.028-2.899a1.685 1.685 0 0 1 1.649.008l3.075 1.749c.07.04.096.119.077.188a.163.163 0 0 1-.022.077l-1.738 3.081c-.287.51-.823.835-1.41.854-1.301.044-2.149-1.339-1.514-2.471l.214-.382Z"/>
  <path class="icon-color-primary" fill-rule="evenodd" clip-rule="evenodd" d="M16.253 19.796a4.65 4.65 0 0 1-.913-.09l2.4-.644a5.585 5.585 0 0 0 1.724-.793h5.954a3.055 3.055 0 0 0 3.055-3.055h-2.674a3.437 3.437 0 0 1 0-6.874h2.674a3.055 3.055 0 0 0-3.055-3.055H19.84l-.052-.193a5.568 5.568 0 0 0-1.676-2.724 3.055 3.055 0 0 1 5.777 1.39h1.527A4.582 4.582 0 0 1 30 8.34v6.874a4.582 4.582 0 0 1-4.582 4.582h-9.165Zm9.546-9.929h2.674v3.82h-2.674a1.91 1.91 0 0 1 0-3.82Z"/>
</svg>
