<svg viewBox="0 0 48 49"><g filter="url(#a)"><path class="icon-color-primary" d="M21.406 13.236v2c3.922 0 7.069 3.126 7.069 7.002h2c0-4.965-4.076-9.002-9.069-9.002Z"/><path class="icon-color-primary" d="M21.514 8.746c-7.43 0-13.483 5.998-13.483 13.381 0 7.382 6.053 13.38 13.483 13.38 7.43 0 13.482-5.998 13.482-13.38 0-7.382-6.053-13.38-13.482-13.38Zm0 2c6.357 0 11.482 5.088 11.482 11.381s-5.125 11.38-11.482 11.38c-6.358 0-11.483-5.087-11.483-11.38 0-6.293 5.125-11.38 11.483-11.38Z"/><path class="icon-color-primary" d="m30.908 30.295-1.41 1.42 9.072 8.998 1.408-1.42-9.07-8.998Z"/></g><defs><filter id="a" width="31.947" height="35.967" x="8.031" y="8.746" color-interpolation-filters="sRGB" filterUnits="userSpaceOnUse"><feFlood flood-opacity="0" result="BackgroundImageFix"/><feBlend in="SourceGraphic" in2="BackgroundImageFix" result="shape"/><feColorMatrix in="SourceAlpha" result="hardAlpha" values="0 0 0 0 0 0 0 0 0 0 0 0 0 0 0 0 0 0 127 0"/><feOffset dy="4"/><feGaussianBlur stdDeviation="2"/><feComposite in2="hardAlpha" k2="-1" k3="1" operator="arithmetic"/><feColorMatrix values="0 0 0 0 0 0 0 0 0 0 0 0 0 0 0 0 0 0 0.25 0"/><feBlend in2="shape" result="effect1_innerShadow_1099_6789"/></filter></defs></svg>