<svg viewBox="0 0 48 48" xmlns="http://www.w3.org/2000/svg">
  <g filter="url(#a)">
    <path d="M21.375 12.49v2c3.922 0 7.069 3.126 7.069 7.002h2c0-4.965-4.076-9.002-9.069-9.002Z" class="icon-color-primary"/>
    <path d="M21.483 8C14.053 8 8 13.998 8 21.381c0 7.382 6.053 13.38 13.483 13.38 7.43 0 13.482-5.998 13.482-13.38 0-7.382-6.053-13.38-13.482-13.38V8Zm0 2c6.357 0 11.482 5.088 11.482 11.381s-5.125 11.38-11.482 11.38C15.125 32.761 10 27.674 10 21.381c0-6.293 5.125-11.38 11.483-11.38V10Z" class="icon-color-primary"/>
    <path d="m30.877 29.549-1.41 1.42 9.072 8.998 1.408-1.42-9.07-8.998Z" class="icon-color-primary"/>
  </g>
  <defs>
    <filter id="a" x="8" y="8" width="31.947" height="35.967" filterUnits="userSpaceOnUse" color-interpolation-filters="sRGB">
      <feFlood flood-opacity="0" result="BackgroundImageFix"/>
      <feBlend in="SourceGraphic" in2="BackgroundImageFix" result="shape"/>
      <feColorMatrix in="SourceAlpha" values="0 0 0 0 0 0 0 0 0 0 0 0 0 0 0 0 0 0 127 0" result="hardAlpha"/>
      <feOffset dy="4"/>
      <feGaussianBlur stdDeviation="2"/>
      <feComposite in2="hardAlpha" operator="arithmetic" k2="-1" k3="1"/>
      <feColorMatrix values="0 0 0 0 0 0 0 0 0 0 0 0 0 0 0 0 0 0 0.25 0"/>
      <feBlend in2="shape" result="effect1_innerShadow_6_35"/>
    </filter>
  </defs>
</svg>
