<svg viewBox="0 0 48 48" xmlns="http://www.w3.org/2000/svg">
  <path d="M34.55 14.045a12.973 12.973 0 0 0-18.576-.255c-5.2 5.152-5.311 13.62-.25 18.912l3.327-3.297c-3.265-3.434-3.186-8.911.18-12.246a8.352 8.352 0 0 1 2.77-1.838 8.433 8.433 0 0 1 6.537.079 8.343 8.343 0 0 1 2.723 1.904l3.29-3.259Zm-22.1 21.91a12.973 12.973 0 0 0 18.576.255c5.2-5.152 5.311-13.62.25-18.912l-3.327 3.297c3.264 3.433 3.186 8.911-.18 12.246a8.351 8.351 0 0 1-2.77 1.838 8.435 8.435 0 0 1-6.538-.079 8.345 8.345 0 0 1-2.723-1.904l-3.288 3.259Z" class="icon-color-primary"/>
</svg>
