<svg viewBox="0 0 48 48" xmlns="http://www.w3.org/2000/svg">
  <path d="M23.538 8a.95.95 0 0 1 .95.951v28.787c0 .988-.425 1.482-.95 1.482-.526 0-.952-.494-.952-1.482V8.951c0-.525.426-.951.952-.951Zm15.656 8.582a.952.952 0 0 0-1.232-.541l.345.886-.346-.886h-.001l-.003.002-.008.003-.023.01a9.372 9.372 0 0 0-1.187.624 12.43 12.43 0 0 0-2.548 2.097c-1.862 1.995-3.678 5.222-3.678 10.149v3.496c-.003.567-.008 1.596.452 1.366.494-.247 1.235-1.235 1.235-3.457v-1.405c0-4.407 1.821-7.18 3.381-8.85a10.56 10.56 0 0 1 2.156-1.777c.281-.174.573-.33.873-.468l.04-.017.006-.002a.951.951 0 0 0 .538-1.23Zm-29.895-.507a.951.951 0 0 0-.694 1.771l.006.003.04.017c.3.137.591.293.872.467.584.36 1.37.933 2.157 1.776 1.56 1.672 3.236 4.444 3.236 8.85v1.406c0 2.222.886 3.21 1.38 3.457.46.23.455-.8.452-1.366V28.96c0-4.927-1.816-8.154-3.678-10.149a12.46 12.46 0 0 0-2.548-2.097 9.924 9.924 0 0 0-1.187-.624l-.023-.01-.008-.003-.003-.001H9.3s-.001-.001-.347.885l.346-.886Zm23.547-4.013c-.362-.381-.985-.376-1.365-.014-.04.04-.046.043-.049.045-.005.003-.01.007-.136.147l-.032.035c-.138.15-.328.37-.552.66a16.28 16.28 0 0 0-1.622 2.588c-1.172 2.303-2.323 5.757-2.323 10.423 0 1.356.017 3.69.033 5.682l.023 2.572.01 2.057v.177c-.002.466-.004.897.428.81 1.234-.246 1.464-2.222 1.464-3.703l-.009-.718c-.004-.306-.009-.638-.014-1.21a863.35 863.35 0 0 1-.033-5.667c0-4.34 1.069-7.501 2.116-9.56a14.37 14.37 0 0 1 1.43-2.285c.192-.248.349-.428.454-.544.047-.052.096-.104.146-.153a.951.951 0 0 0 .031-1.342Zm-17.088-.034a.951.951 0 0 0-1.313 1.376l.003.004.026.025c.024.025.064.066.117.124.158.175.31.356.454.543.383.495.905 1.254 1.43 2.285 1.047 2.06 2.115 5.22 2.115 9.561a829.464 829.464 0 0 1-.046 6.876l-.01.719c0 1.481.23 3.457 1.465 3.703.432.087.43-.345.428-.81v-.177l.01-2.057.023-2.572c.016-1.992.033-4.326.033-5.682 0-4.666-1.151-8.12-2.323-10.423a16.271 16.271 0 0 0-1.622-2.588c-.224-.29-.463-.569-.716-.835a5.663 5.663 0 0 0-.05-.048l-.015-.015-.005-.006-.002-.002s-.002-.001-.657.688l.655-.69v.001Z" class="icon-color-primary"/>
</svg>
