<svg viewBox="0 0 48 48" xmlns="http://www.w3.org/2000/svg">
  <path fill-rule="evenodd" clip-rule="evenodd" d="M27.983 13.512a1.083 1.083 0 0 0-.56-1.027l-1.991-1.117a2.91 2.91 0 0 0-2.835 0l-1.828 1.026c-.375.21-.592.609-.56 1.027l.128 1.613a1.08 1.08 0 0 1-.521 1.005l-1.438.881c-.563.345-1.31.147-1.612-.426l-.214-.406c-.294-.557-1.013-.762-1.573-.448l-1.572.881c-1.015.57-1.56 1.686-1.37 2.805l1.626 9.508c.263 1.539 1.196 2.896 2.562 3.727l6.875 4.187c.558.34 1.269.336 1.822-.01l6.738-4.202a5.453 5.453 0 0 0 2.493-3.609l1.801-9.574c.213-1.131-.331-2.27-1.36-2.848l-1.412-.791c-.56-.314-1.279-.11-1.573.448l-.175.332c-.303.573-1.05.77-1.611.426l-1.439-.881a1.08 1.08 0 0 1-.521-1.005l.12-1.522Zm-2.73 12.198c.936-.439 1.581-1.366 1.581-2.44 0-1.496-1.255-2.71-2.804-2.71s-2.805 1.214-2.805 2.71c0 1.018.58 1.904 1.439 2.368v3.122c0 .69.58 1.25 1.294 1.25.715 0 1.294-.56 1.294-1.25v-3.05h.001Z" class="icon-color-primary"/>
</svg>
