<svg viewBox="0 0 48 49">
  <path class="icon-color-primary" d="M10.71 6.912a4.515 4.515 0 0 0-4.5 4.5c0 2.473 2.028 4.5 4.5 4.5 2.474 0 4.5-2.027 4.5-4.5s-2.026-4.5-4.5-4.5Zm0 2c1.393 0 2.5 1.107 2.5 2.5s-1.107 2.5-2.5 2.5a2.485 2.485 0 0 1-2.5-2.5c0-1.393 1.108-2.5 2.5-2.5Zm0 25a4.515 4.515 0 0 0-4.5 4.5c0 2.474 2.028 4.5 4.5 4.5 2.474 0 4.5-2.026 4.5-4.5 0-2.473-2.026-4.5-4.5-4.5Zm0 2c1.393 0 2.5 1.108 2.5 2.5 0 1.393-1.107 2.5-2.5 2.5a2.485 2.485 0 0 1-2.5-2.5c0-1.392 1.108-2.5 2.5-2.5Zm12.75-19.25c-4.405 0-8 3.594-8 8 0 4.407 3.595 8 8 8 4.407 0 8-3.593 8-8 0-4.406-3.593-8-8-8Zm0 2c3.326 0 6 2.675 6 6 0 3.326-2.674 6-6 6-3.325 0-6-2.674-6-6 0-3.325 2.675-6 6-6Zm12.75-12.25a4.515 4.515 0 0 0-4.5 4.5c0 2.473 2.027 4.5 4.5 4.5 2.474 0 4.5-2.027 4.5-4.5s-2.026-4.5-4.5-4.5Zm0 2c1.393 0 2.5 1.108 2.5 2.5 0 1.393-1.107 2.5-2.5 2.5a2.485 2.485 0 0 1-2.5-2.5c0-1.392 1.108-2.5 2.5-2.5Zm.5 25.5a4.515 4.515 0 0 0-4.5 4.5c0 2.474 2.027 4.5 4.5 4.5 2.474 0 4.5-2.026 4.5-4.5 0-2.473-2.026-4.5-4.5-4.5Zm0 2c1.393 0 2.5 1.108 2.5 2.5 0 1.393-1.107 2.5-2.5 2.5a2.485 2.485 0 0 1-2.5-2.5c0-1.392 1.108-2.5 2.5-2.5Z"/>
  <path class="icon-color-primary" d="M13.43 13.693a1 1 0 0 0-.707 1.707l5.05 5.05a1 1 0 0 0 1.415-1.415l-5.051-5.049a1 1 0 0 0-.707-.293Zm14.012 15.442a1 1 0 0 0 0 1.414l6.109 6.12a1 1 0 0 0 1.416-1.413l-6.111-6.12a1 1 0 0 0-1.415-.001Zm-9.389 0-5.81 5.81a1 1 0 0 0 1.413 1.414l5.81-5.808a1 1 0 1 0-1.413-1.416Z"/>
</svg>
