<svg viewBox="0 0 33 32"><path class="icon-color-primary" d="M25.66 6.282 7.326 24.614l.925.925L26.587 7.207l-.928-.925Z"/><path class="icon-color-primary" d="M26.125 8.708a1.964 1.964 0 1 0 0-3.928 1.964 1.964 0 0 0 0 3.928ZM7.793 27.042a1.964 1.964 0 1 0 0-3.929 1.964 1.964 0 0 0 0 3.929ZM17.147 6.936 7.98 16.102l.925.927 9.166-9.168-.925-.925Z"/><path class="icon-color-primary" d="M17.617 9.363a1.964 1.964 0 1 0 0-3.929 1.964 1.964 0 0 0 0 3.93ZM8.446 18.53a1.964 1.964 0 1 0 0-3.928 1.964 1.964 0 0 0 0 3.928ZM25.01 14.792l-9.166 9.168.925.926 9.167-9.166-.926-.928Z"/><path class="icon-color-primary" d="M25.471 17.22a1.964 1.964 0 1 0 0-3.928 1.964 1.964 0 0 0 0 3.928ZM25.471 25.732a1.964 1.964 0 1 0 0-3.928 1.964 1.964 0 0 0 0 3.928ZM8.446 9.363a1.964 1.964 0 1 0 0-3.928 1.964 1.964 0 0 0 0 3.928ZM16.3 26.387a1.964 1.964 0 1 0 0-3.928 1.964 1.964 0 0 0 0 3.928Z"/></svg>