<svg viewBox="0 0 48 48" xmlns="http://www.w3.org/2000/svg">
  <path d="M35.797 11 12 34.8l1.2 1.2L37 12.2 35.795 11h.002Z" class="icon-color-primary"/>
  <path d="M36.441 14.117a2.558 2.558 0 1 0 0-5.116 2.558 2.558 0 0 0 0 5.116ZM12.56 38a2.56 2.56 0 1 0 0-5.118 2.56 2.56 0 0 0 0 5.118Zm12.186-26.191-11.942 11.94 1.205 1.207L25.95 13.014l-1.205-1.205h.001Z" class="icon-color-primary"/>
  <path d="M25.31 15.05a2.524 2.524 0 1 0 0-5.051 2.524 2.524 0 0 0 0 5.052v-.001ZM13.523 26.83a2.524 2.524 0 1 0 0-5.048 2.524 2.524 0 0 0 0 5.048Zm21.286-4.804L23.03 33.81 24.22 35 36 23.22l-1.19-1.193Z" class="icon-color-primary"/>
  <path d="M35.47 25.187a2.53 2.53 0 1 0-.001-5.062 2.53 2.53 0 0 0 0 5.062Zm0 10.969a2.53 2.53 0 1 0 0-5.06 2.53 2.53 0 0 0 0 5.06ZM13.53 15.062a2.531 2.531 0 1 0 0-5.063 2.531 2.531 0 0 0 0 5.063ZM23.652 37a2.531 2.531 0 1 0 0-5.062 2.531 2.531 0 0 0 0 5.062Z" class="icon-color-primary"/>
</svg>
