<svg viewBox="0 0 48 48" xmlns="http://www.w3.org/2000/svg">
  <path d="M32.228 27a.758.758 0 0 0-.545.23l-8.354 8.542-4.012-4.096a.77.77 0 0 0-.546-.23.754.754 0 0 0-.545.232.791.791 0 0 0-.226.558.803.803 0 0 0 .226.557L23.331 38l9.443-9.654a.793.793 0 0 0 .226-.558.803.803 0 0 0-.226-.557.773.773 0 0 0-.546-.231ZM26.29 10c-.399 0-.799.15-1.099.453l-13.74 13.87a1.59 1.59 0 0 0 0 2.219L14.877 30l1.102-1.112-3.425-3.456 13.738-13.865-.002-.002h.002v.002l10.156 10.245-2.68 2.7 1.102 1.11 2.677-2.703a1.593 1.593 0 0 0 .003-2.22L27.39 10.454c-.3-.303-.7-.453-1.1-.453Z" class="icon-color-primary"/>
  <path d="M26.022 17 25 18.193 29.978 24 31 22.808 26.022 17Zm-3.829 3L21 21.194 26.81 27 28 25.806 22.193 20Z" class="icon-color-primary"/>
</svg>
