<svg xmlns="http://www.w3.org/2000/svg" viewBox="0 0 33 33">
  <path class="icon-color-primary" d="M22.012 19.242a.687.687 0 0 0-.487.201l-7.447 7.45-3.576-3.573a.685.685 0 0 0-.973.002.689.689 0 0 0 0 .973l4.551 4.541 8.418-8.42a.689.689 0 0 0-.486-1.174ZM17.238 4.424c-.353 0-.706.131-.97.396L4.14 16.955c-.53.53-.53 1.412 0 1.942l3.025 3.025.973-.973-3.024-3.023L17.24 5.795l-.002-.002h.002v.002l8.963 8.963-2.365 2.363.973.97 2.363-2.364c.53-.53.532-1.412.002-1.942L18.209 4.82a1.368 1.368 0 0 0-.97-.396Z"/>
  <path class="icon-color-primary" d="m16.58 10.623-.973.973 4.737 4.736.972-.973-4.736-4.736Zm-2.867 2.867-.973.973 4.739 4.73.97-.972-4.736-4.73Z"/>
</svg>
