<svg width="1920" height="1080" viewBox="0 0 1920 1080" fill="none" xmlns="http://www.w3.org/2000/svg">
<g clip-path="url(#clip0)">
<rect width="1920" height="1080" fill="url(#paint0_linear)"/>
<ellipse cx="777" cy="-11" rx="534" ry="453" fill="url(#paint1_radial)"/>
<path d="M1753.03 522.064C1849.03 512.064 2040.36 397.23 2124.03 341.064L2124.03 -180.936L933.526 -180.936C927.359 -183.436 972.926 -113.036 1204.53 188.564C1494.03 565.564 1633.03 534.564 1753.03 522.064Z" fill="url(#paint2_linear)"/>
<g filter="url(#filter0_f)">
<path d="M1819.59 508.129C1932.52 482.867 2144.94 338.46 2237.04 269.414L2167.53 -247.937L750.634 -57.5639C742.962 -59.0555 806.569 3.43092 1122.37 265.31C1517.13 592.658 1678.44 539.707 1819.59 508.129Z" fill="url(#paint3_linear)"/>
</g>
<g filter="url(#filter1_f)">
<path d="M1819.59 508.129C1932.52 482.867 2144.94 338.46 2237.04 269.414L2167.53 -247.937L750.634 -57.5639C742.962 -59.0555 806.569 3.43092 1122.37 265.31C1517.13 592.658 1678.44 539.707 1819.59 508.129Z" fill="url(#paint4_linear)"/>
</g>
<g filter="url(#filter2_f)">
<path d="M151.415 536.44C37.8057 575.19 -158.365 731.882 -242.249 805.384L-75.8082 1242.44L1372.61 865.73C1380.91 865.872 1303.03 821.346 925.084 642.109C452.657 418.062 293.428 488.002 151.415 536.44Z" fill="url(#paint5_linear)"/>
</g>
<g filter="url(#filter3_f)">
<path d="M141.415 448.838C27.8057 487.588 -168.365 644.28 -252.249 717.782L-85.8082 1154.84L1362.61 778.128C1370.91 778.27 1293.03 733.744 915.084 554.507C442.657 330.46 283.428 400.4 141.415 448.838Z" fill="url(#paint6_linear)"/>
</g>
<path d="M1531.56 1130.47C1632.08 1121.81 1832.4 1022.43 1920 973.819L1920 522.055L673.55 522.055C667.094 519.891 714.802 580.819 957.286 841.838C1260.39 1168.11 1405.92 1141.28 1531.56 1130.47Z" fill="url(#paint7_linear)"/>
<g filter="url(#filter4_bf)">
<path d="M2555.98 425.306C2576.15 311.363 2524.7 59.7056 2496.45 -51.8803L2121 671L1622.22 1193.93C1617.89 1200.44 1700.06 1165.8 2063.36 975.221C2517.5 736.991 2530.75 567.735 2555.98 425.306Z" fill="url(#paint8_linear)"/>
</g>
<g filter="url(#filter5_f)">
<path d="M212.564 156.303C313.076 145.83 513.401 25.5677 601 -33.2544L601 -579.933L-645.45 -579.933C-651.906 -582.552 -604.198 -508.823 -361.713 -192.964C-58.6079 201.859 86.9246 169.394 212.564 156.303Z" fill="url(#paint9_linear)"/>
</g>
<g filter="url(#filter6_bf)">
<path d="M811.671 580L1020 834L1309.95 1112.12C1309.95 1112.12 914.081 1243.36 811.671 1069.5C709.261 895.637 811.671 580 811.671 580Z" fill="url(#paint10_linear)"/>
</g>
<g filter="url(#filter7_bf)">
<path d="M1194.48 15L1317.03 135.056L1389.16 378.911L1105 284.592L1194.48 15Z" fill="url(#paint11_linear)"/>
</g>
<g filter="url(#filter8_f)">
<path d="M1928.53 469.732C2004.75 410.517 2130.01 229.843 2179.85 142.255L1947.02 -324.943L881.499 206.06C874.865 206.573 947.048 249.258 1288.86 415.893C1716.12 624.188 1826.23 549.201 1928.53 469.732Z" fill="url(#paint12_linear)"/>
</g>
<g filter="url(#filter9_f)">
<path d="M948.564 1171.35C451.465 1126.56 21.9504 1011.56 101.513 664.443C-124.721 784.257 -170.296 1114.87 -170.296 1114.87C261.41 1153.77 1445.66 1216.15 948.564 1171.35Z" fill="url(#paint13_linear)"/>
</g>
<path d="M308.354 513.287C207.767 529.981 2.93342 622.966 -86 672.314V1130.94H1179.44C1186 1133.14 1137.56 1071.29 891.382 806.301C583.658 475.068 443.349 490.883 308.354 513.287Z" fill="url(#paint14_linear)"/>
<g filter="url(#filter10_f)">
<path d="M326.626 507.31C224.58 515.419 -2.47885 656.941 -69.3932 774.562L-141.611 1087.9L1116.25 1194.61C1122.49 1197.34 1081.98 1131.79 869.99 847.677C604.998 492.541 463.577 496.427 326.626 507.31Z" fill="url(#paint15_linear)"/>
</g>
<g filter="url(#filter11_bf)">
<path d="M219.013 164.164C318.356 145.639 508.358 9.65172 590.941 -56.0266L546.964 -600.934L-695.446 -500.664C-702.092 -502.754 -648.608 -433.103 -381.5 -137.774C-47.6157 231.387 94.8335 187.319 219.013 164.164Z" fill="url(#paint16_linear)" fill-opacity="0.5"/>
</g>
<g filter="url(#filter12_bf)">
<path d="M307.347 272.354C408.201 232.974 580.965 51.8172 654.741 -33.8389L499.396 -598.564L-788.201 -244.371C-795.614 -245.241 -725.38 -182.636 -385.136 74.7453C40.1688 396.471 181.28 321.579 307.347 272.354Z" fill="url(#paint17_linear)" fill-opacity="0.5"/>
</g>
<ellipse cx="139" cy="616" rx="534" ry="453" fill="url(#paint18_radial)"/>
</g>
<defs>
<filter id="filter0_f" x="700" y="-298" width="1612" height="993.597" filterUnits="userSpaceOnUse" color-interpolation-filters="sRGB">
<feFlood flood-opacity="0" result="BackgroundImageFix"/>
<feBlend mode="normal" in="SourceGraphic" in2="BackgroundImageFix" result="shape"/>
<feGaussianBlur stdDeviation="25" result="effect1_foregroundBlur"/>
</filter>
<filter id="filter1_f" x="700" y="-298" width="1612" height="993.597" filterUnits="userSpaceOnUse" color-interpolation-filters="sRGB">
<feFlood flood-opacity="0" result="BackgroundImageFix"/>
<feBlend mode="normal" in="SourceGraphic" in2="BackgroundImageFix" result="shape"/>
<feGaussianBlur stdDeviation="25" result="effect1_foregroundBlur"/>
</filter>
<filter id="filter2_f" x="-292.249" y="436.642" width="1715.44" height="855.802" filterUnits="userSpaceOnUse" color-interpolation-filters="sRGB">
<feFlood flood-opacity="0" result="BackgroundImageFix"/>
<feBlend mode="normal" in="SourceGraphic" in2="BackgroundImageFix" result="shape"/>
<feGaussianBlur stdDeviation="25" result="effect1_foregroundBlur"/>
</filter>
<filter id="filter3_f" x="-302.249" y="349.04" width="1715.44" height="855.802" filterUnits="userSpaceOnUse" color-interpolation-filters="sRGB">
<feFlood flood-opacity="0" result="BackgroundImageFix"/>
<feBlend mode="normal" in="SourceGraphic" in2="BackgroundImageFix" result="shape"/>
<feGaussianBlur stdDeviation="25" result="effect1_foregroundBlur"/>
</filter>
<filter id="filter4_bf" x="1572" y="-237" width="1155.46" height="1665.15" filterUnits="userSpaceOnUse" color-interpolation-filters="sRGB">
<feFlood flood-opacity="0" result="BackgroundImageFix"/>
<feGaussianBlur in="BackgroundImage" stdDeviation="4"/>
<feComposite in2="SourceAlpha" operator="in" result="effect1_backgroundBlur"/>
<feBlend mode="normal" in="SourceGraphic" in2="effect1_backgroundBlur" result="shape"/>
<feGaussianBlur stdDeviation="25" result="effect2_foregroundBlur"/>
</filter>
<filter id="filter5_f" x="-650" y="-584" width="1255" height="751" filterUnits="userSpaceOnUse" color-interpolation-filters="sRGB">
<feFlood flood-opacity="0" result="BackgroundImageFix"/>
<feBlend mode="normal" in="SourceGraphic" in2="BackgroundImageFix" result="shape"/>
<feGaussianBlur stdDeviation="2" result="effect1_foregroundBlur"/>
</filter>
<filter id="filter6_bf" x="687.912" y="527.948" width="716.705" height="709.242" filterUnits="userSpaceOnUse" color-interpolation-filters="sRGB">
<feFlood flood-opacity="0" result="BackgroundImageFix"/>
<feGaussianBlur in="BackgroundImage" stdDeviation="15"/>
<feComposite in2="SourceAlpha" operator="in" result="effect1_backgroundBlur"/>
<feBlend mode="normal" in="SourceGraphic" in2="effect1_backgroundBlur" result="shape"/>
<feGaussianBlur stdDeviation="25" result="effect2_foregroundBlur"/>
</filter>
<filter id="filter7_bf" x="1055" y="-35" width="473.647" height="463.911" filterUnits="userSpaceOnUse" color-interpolation-filters="sRGB">
<feFlood flood-opacity="0" result="BackgroundImageFix"/>
<feGaussianBlur in="BackgroundImage" stdDeviation="15"/>
<feComposite in2="SourceAlpha" operator="in" result="effect1_backgroundBlur"/>
<feBlend mode="normal" in="SourceGraphic" in2="effect1_backgroundBlur" result="shape"/>
<feGaussianBlur stdDeviation="25" result="effect2_foregroundBlur"/>
</filter>
<filter id="filter8_f" x="849" y="-357" width="1448.8" height="1234.97" filterUnits="userSpaceOnUse" color-interpolation-filters="sRGB">
<feFlood flood-opacity="0" result="BackgroundImageFix"/>
<feBlend mode="normal" in="SourceGraphic" in2="BackgroundImageFix" result="shape"/>
<feGaussianBlur stdDeviation="16" result="effect1_foregroundBlur"/>
</filter>
<filter id="filter9_f" x="-220.296" y="614.442" width="1338.58" height="622.455" filterUnits="userSpaceOnUse" color-interpolation-filters="sRGB">
<feFlood flood-opacity="0" result="BackgroundImageFix"/>
<feBlend mode="normal" in="SourceGraphic" in2="BackgroundImageFix" result="shape"/>
<feGaussianBlur stdDeviation="25" result="effect1_foregroundBlur"/>
</filter>
<filter id="filter10_f" x="-173.611" y="472.063" width="1322.45" height="754.623" filterUnits="userSpaceOnUse" color-interpolation-filters="sRGB">
<feFlood flood-opacity="0" result="BackgroundImageFix"/>
<feBlend mode="normal" in="SourceGraphic" in2="BackgroundImageFix" result="shape"/>
<feGaussianBlur stdDeviation="16" result="effect1_foregroundBlur"/>
</filter>
<filter id="filter11_bf" x="-752" y="-657" width="1414.73" height="952.906" filterUnits="userSpaceOnUse" color-interpolation-filters="sRGB">
<feFlood flood-opacity="0" result="BackgroundImageFix"/>
<feGaussianBlur in="BackgroundImage" stdDeviation="28"/>
<feComposite in2="SourceAlpha" operator="in" result="effect1_backgroundBlur"/>
<feBlend mode="normal" in="SourceGraphic" in2="effect1_backgroundBlur" result="shape"/>
<feGaussianBlur stdDeviation="10" result="effect2_foregroundBlur"/>
</filter>
<filter id="filter12_bf" x="-844.788" y="-654.633" width="1611.3" height="1233.88" filterUnits="userSpaceOnUse" color-interpolation-filters="sRGB">
<feFlood flood-opacity="0" result="BackgroundImageFix"/>
<feGaussianBlur in="BackgroundImage" stdDeviation="28"/>
<feComposite in2="SourceAlpha" operator="in" result="effect1_backgroundBlur"/>
<feBlend mode="normal" in="SourceGraphic" in2="effect1_backgroundBlur" result="shape"/>
<feGaussianBlur stdDeviation="19" result="effect2_foregroundBlur"/>
</filter>
<linearGradient id="paint0_linear" x1="0" y1="0" x2="1920" y2="1096" gradientUnits="userSpaceOnUse">
<stop stop-color="#F2F5FB"/>
<stop offset="1" stop-color="#EAEFF7"/>
</linearGradient>
<radialGradient id="paint1_radial" cx="0" cy="0" r="1" gradientUnits="userSpaceOnUse" gradientTransform="translate(777 -11) rotate(90) scale(453 534)">
<stop stop-color="#F1F5FB"/>
<stop offset="1" stop-color="#D9E1EF" stop-opacity="0"/>
</radialGradient>
<linearGradient id="paint2_linear" x1="1701.53" y1="734.064" x2="1754.53" y2="87.0636" gradientUnits="userSpaceOnUse">
<stop stop-color="#D9E1EF"/>
<stop offset="1" stop-color="#D9E1EF" stop-opacity="0"/>
</linearGradient>
<linearGradient id="paint3_linear" x1="896.353" y1="1174.28" x2="1119.98" y2="-35.041" gradientUnits="userSpaceOnUse">
<stop stop-color="white"/>
<stop offset="1" stop-color="white" stop-opacity="0"/>
</linearGradient>
<linearGradient id="paint4_linear" x1="896.353" y1="1174.28" x2="1119.98" y2="-35.041" gradientUnits="userSpaceOnUse">
<stop stop-color="white"/>
<stop offset="1" stop-color="white" stop-opacity="0"/>
</linearGradient>
<linearGradient id="paint5_linear" x1="997.019" y1="-177.897" x2="986.751" y2="901.572" gradientUnits="userSpaceOnUse">
<stop stop-color="white"/>
<stop offset="1" stop-color="white" stop-opacity="0"/>
</linearGradient>
<linearGradient id="paint6_linear" x1="987.019" y1="-265.499" x2="976.751" y2="813.97" gradientUnits="userSpaceOnUse">
<stop stop-color="white"/>
<stop offset="1" stop-color="white" stop-opacity="0"/>
</linearGradient>
<linearGradient id="paint7_linear" x1="1477.64" y1="1313.94" x2="1515.64" y2="752.811" gradientUnits="userSpaceOnUse">
<stop stop-color="#D9E1EF"/>
<stop offset="1" stop-color="#D9E1EF" stop-opacity="0"/>
</linearGradient>
<linearGradient id="paint8_linear" x1="1139.5" y1="1809.5" x2="1864.48" y2="505.115" gradientUnits="userSpaceOnUse">
<stop stop-color="white"/>
<stop offset="1" stop-color="white" stop-opacity="0"/>
</linearGradient>
<linearGradient id="paint9_linear" x1="166.5" y1="250" x2="214.159" y2="-299.261" gradientUnits="userSpaceOnUse">
<stop stop-color="#D9E1EF"/>
<stop offset="0.576713" stop-color="#D9E1EF" stop-opacity="0"/>
</linearGradient>
<linearGradient id="paint10_linear" x1="1109.5" y1="969" x2="816.5" y2="955" gradientUnits="userSpaceOnUse">
<stop stop-color="#F6F8FC"/>
<stop offset="1" stop-color="#F6F8FC" stop-opacity="0"/>
</linearGradient>
<linearGradient id="paint11_linear" x1="1228.5" y1="115" x2="1311" y2="267.5" gradientUnits="userSpaceOnUse">
<stop stop-color="#EEF2FA"/>
<stop offset="1" stop-color="#EEF2FA" stop-opacity="0"/>
</linearGradient>
<linearGradient id="paint12_linear" x1="2046.11" y1="431.392" x2="1735.84" y2="79.7307" gradientUnits="userSpaceOnUse">
<stop stop-color="#D9E1EF"/>
<stop offset="1" stop-color="#D9E1EF" stop-opacity="0"/>
</linearGradient>
<linearGradient id="paint13_linear" x1="684.721" y1="810.988" x2="81.7627" y2="1195.64" gradientUnits="userSpaceOnUse">
<stop stop-color="#D9E1EF"/>
<stop offset="1" stop-color="#D9E1EF" stop-opacity="0"/>
</linearGradient>
<linearGradient id="paint14_linear" x1="363.096" y1="327.024" x2="324.525" y2="896.682" gradientUnits="userSpaceOnUse">
<stop stop-color="#D9E1EF" stop-opacity="0.33"/>
<stop offset="1" stop-color="#D9E1EF" stop-opacity="0"/>
</linearGradient>
<linearGradient id="paint15_linear" x1="199.326" y1="480.511" x2="253.39" y2="890.236" gradientUnits="userSpaceOnUse">
<stop stop-color="#D9E1EF"/>
<stop offset="1" stop-color="#D9E1EF" stop-opacity="0"/>
</linearGradient>
<linearGradient id="paint16_linear" x1="180.635" y1="261.263" x2="585.167" y2="17.1847" gradientUnits="userSpaceOnUse">
<stop stop-color="#D9E1EF"/>
<stop offset="0.968977" stop-color="#D9E1EF" stop-opacity="0"/>
</linearGradient>
<linearGradient id="paint17_linear" x1="286.387" y1="382.234" x2="663.316" y2="44.3732" gradientUnits="userSpaceOnUse">
<stop stop-color="white"/>
<stop offset="0.968977" stop-color="#D9E1EF" stop-opacity="0"/>
</linearGradient>
<radialGradient id="paint18_radial" cx="0" cy="0" r="1" gradientUnits="userSpaceOnUse" gradientTransform="translate(139 616) rotate(90) scale(453 534)">
<stop stop-color="#F1F5FB"/>
<stop offset="1" stop-color="#D9E1EF" stop-opacity="0"/>
</radialGradient>
<clipPath id="clip0">
<rect width="1920" height="1080" fill="white"/>
</clipPath>
</defs>
</svg>
