<svg width="500" height="500" viewBox="0 0 500 500" fill="none" xmlns="http://www.w3.org/2000/svg">
<g clip-path="url(#clip0)">
<path d="M51.1771 376.799C56.0181 376.645 91.816 382.713 99.6558 384.089C89.7832 400.25 88.7958 428.153 92.0139 435.701C88.0961 435.092 75.8157 432.716 71.7282 432.132C70.6032 431.971 69.812 433.637 70.6086 434.447C95.8447 438.748 89.0148 459.411 87.6723 462.433C86.2151 465.713 84.8684 468.209 75.7447 469.136C67.7174 469.952 43.8444 468.889 32.8103 466.823C30.4935 466.389 28.4444 464.98 27.7539 462.727C21.6041 442.654 41.3473 377.112 51.1771 376.799Z" fill="#DB4F42"/>
<path d="M69.9926 341.459C90.4582 350.517 179.031 386.416 196.141 399.165C213.252 411.914 203.187 439.761 182.05 434.728C145.637 426.058 72.6767 394.133 50.5336 376.351C26.6137 357.143 56.2362 335.37 69.9926 341.459Z" fill="#D9A976"/>
<path d="M54.8715 376.076C44.7893 396.903 26.3836 456.545 34.4923 458.782C42.4593 460.98 82.7862 466.486 88.5145 460.371C88.1754 467.095 84.5303 471.067 77.49 471.782C69.4627 472.598 40.9763 471.608 29.9422 469.542C27.6254 469.108 25.5763 467.7 24.8858 465.446C18.2077 441.256 40.1121 380.628 49.7594 375.382C50.8927 375.345 50.9819 375.451 54.8715 376.076Z" fill="#FEFEFE"/>
<path d="M171.179 114.374C176.933 120.65 173.795 123.527 168.399 123.653C104.947 127.885 57.6737 109.693 38.6212 94.6746C28.3422 86.5722 20.429 78.3835 94.8011 81.1364C127.373 82.3421 159.229 101.34 171.179 114.374Z" fill="#485776"/>
<path d="M77.5708 2.72593C93.5507 2.94581 124.176 11.0055 151.834 40.576C178.267 68.8363 185.247 93.9799 186.788 110.835C170.315 103.712 142.758 83.623 117.022 62.8462C78.2759 31.5668 64.2832 2.54309 77.5708 2.72593Z" fill="#485776"/>
<path d="M102.102 383.683C127.172 393.5 160.738 407.082 191.714 419.031C222.69 430.98 213.068 469.766 183.555 462.477C158.967 456.404 116.15 446.264 87.3322 438.194C65.555 432.096 86.128 377.427 102.102 383.683Z" fill="#D9A976"/>
<path d="M254.838 357.002C255.389 356.704 255.535 355.977 255.095 355.531C251.347 351.738 245.492 350.812 240.716 353.392L239.237 354.191C234.259 357.896 232.524 361.498 231.485 366.498C231.038 368.652 229.748 370.555 227.813 371.6L193.366 390.206C190.664 391.666 189.656 395.041 191.116 397.743C192.576 400.446 195.95 401.454 198.653 399.994L233.02 381.431C234.999 380.361 237.357 380.351 239.44 381.202C244.638 383.326 248.418 383.562 253.922 381.379L255.402 380.58C260.177 378 262.613 372.596 261.496 367.381C261.365 366.769 260.676 366.492 260.125 366.79L250.103 372.203C249.617 372.466 249.01 372.285 248.747 371.799L244.411 363.771C244.149 363.285 244.33 362.678 244.816 362.416L254.838 357.002Z" fill="#98AACA"/>
<path d="M253.922 381.379L255.402 380.579C260.092 378.046 262.526 372.787 261.552 367.66C261.408 366.9 260.556 366.557 259.875 366.925L250.31 372.091C249.709 372.416 248.959 372.192 248.635 371.591L253.922 381.379Z" fill="#B0BFD9"/>
<path d="M192.505 397.095C164.505 376.857 147.458 346.448 141.872 315.643C147.368 312.137 163.413 307.471 171.042 307.53C177.431 325.205 192.664 358.119 219.867 379.345C235.254 391.352 205.9 406.776 192.505 397.095Z" fill="#485776"/>
<path d="M140.142 313.989C129.634 286.629 132.846 240.329 141.987 213.102C151.128 185.876 173.954 199.298 171.759 215.553C169.565 231.807 161.498 273.768 171.55 306.776C175.58 320.007 146.067 329.417 140.142 313.989Z" fill="#B0BFD9"/>
<path d="M156.205 175.264C157.457 184.744 152.897 192.873 150.181 197.478C141.237 205.528 158.105 222.499 168.838 211.766C179.571 201.034 193.882 198.63 215.012 206.009C223.618 209.014 235.127 211.961 243.466 208.578C252.941 204.735 259.492 196.761 258.463 187.914C257.872 182.836 252.524 179.869 256.101 175.397C270.412 157.509 270.806 132.763 248.775 111.762C224.85 88.9546 183.931 94.321 166.491 112.88C149.05 131.438 154.64 163.413 156.205 175.264Z" fill="url(#paint0_radial)"/>
<path d="M156.205 175.264C157.457 184.744 152.897 192.873 150.181 197.479C141.237 205.528 158.105 222.499 168.838 211.767C179.571 201.034 193.882 198.63 215.012 206.009C223.618 209.014 235.127 211.961 243.466 208.578C252.941 204.735 259.492 196.762 258.463 187.914C257.872 182.836 252.524 179.869 256.101 175.397C270.412 157.509 270.806 132.763 248.775 111.762C224.85 88.9549 183.931 94.3213 166.491 112.88C149.05 131.439 154.64 163.413 156.205 175.264Z" fill="#566686"/>
<path d="M150.181 197.479C152.897 192.873 157.457 184.744 156.205 175.264C156.118 174.604 156.018 173.882 155.911 173.103C154.089 159.894 150.021 130.405 166.491 112.88C183.931 94.3213 224.85 88.9549 248.775 111.762C249.133 112.103 249.485 112.445 249.831 112.789C225.553 95.131 188.986 100.977 172.754 118.249C156.285 135.774 160.352 165.263 162.175 178.472C162.282 179.25 162.382 179.973 162.469 180.632C163.721 190.113 159.161 198.242 156.445 202.847C152.991 205.955 153.386 210.393 155.79 214.053C149.053 210.966 144.611 202.492 150.181 197.479Z" fill="#485776"/>
<path d="M240.497 180.715C248.327 119.534 202.37 115.36 185.346 149.656C177.966 164.523 187.071 176.137 199.832 182.745C200.623 183.154 200.575 184.34 199.749 184.675C183.74 191.156 172.374 201.684 161.617 215.199C164.098 215.037 166.601 214.004 168.838 211.767C179.571 201.034 193.881 198.63 215.011 206.009C223.618 209.014 235.126 211.962 243.466 208.579C252.94 204.735 259.491 196.762 258.463 187.914C257.638 180.819 240.358 183.91 240.497 180.715Z" fill="#6C7E9F"/>
<path fill-rule="evenodd" clip-rule="evenodd" d="M265.074 138.424C257.937 132.895 247.352 143.198 244.748 178.701C243.685 193.189 250.552 198.588 257.639 195.089C258.443 192.814 258.752 190.399 258.463 187.914C258.24 185.994 257.336 184.376 256.492 182.865C255.104 180.378 253.876 178.179 256.101 175.397C264.614 164.756 268.203 151.687 265.074 138.424Z" fill="#6C7E9F"/>
<path d="M158.414 470.546C157.304 465.195 158.318 422.342 158.327 413.36C174.055 419.088 203.007 417.822 213.449 411.494C213.449 428.739 219.245 431.781 254.355 443.897C274.8 449.795 280.047 471.611 269.598 479.228C259.149 486.844 160.693 482.21 158.414 470.546Z" fill="#DB4F42"/>
<path d="M213.236 445.374C219.9 439.951 224.57 437.345 232.186 434.496" stroke="#FEFEFE" stroke-width="3.63879" stroke-linecap="round"/>
<path d="M53.125 436.305C59.8785 433.899 64.2777 433.153 71.0615 433.037" stroke="#FEFEFE" stroke-width="3.63879" stroke-linecap="round"/>
<path d="M226.214 450.756C231.603 445.365 235.266 442.38 242.756 439.161" stroke="#FEFEFE" stroke-width="3.63879" stroke-linecap="round"/>
<path d="M62.9838 441.973C68.726 439.237 72.4389 437.911 79.227 437.469" stroke="#FEFEFE" stroke-width="3.63879" stroke-linecap="round"/>
<path d="M202.305 438.61C205.997 435.682 216.581 430.305 221.338 429.18" stroke="#FEFEFE" stroke-width="3.63879" stroke-linecap="round"/>
<path d="M71.0432 432.949C67.2343 431.974 58.3188 427.657 55.1704 425.065" stroke="#FEFEFE" stroke-width="3.63879" stroke-linecap="round"/>
<path d="M45.1193 345.838C34.9095 352.833 39.5709 380.35 64.737 380.485C81.909 380.577 117.722 368.602 149.602 355.907C152.272 354.845 155.17 356.84 155.122 359.712C154.801 378.592 154.783 395.562 155.864 410.699C157.042 427.184 213.401 429.643 215.034 407.766C217.27 377.804 216.327 337.613 215.034 313.247C214.065 294.997 196.622 286.569 180.07 292.997C147.479 305.653 53.6625 339.984 45.1193 345.838Z" fill="#F2D192"/>
<path d="M157.881 462.167C157.945 466.278 158.083 470.212 158.33 471.402C160.503 481.879 250.233 489.806 269.78 479.658C273.583 477.634 275.292 473.166 274.956 468.007C274.071 468.826 273.018 469.599 271.783 470.317C255.996 479.503 171.116 471.546 157.881 462.167Z" fill="#FEFEFE"/>
<path d="M36.7114 353.408C27.3162 297.484 42.3209 263.602 68.3794 231.87C103.261 230.976 121.337 252.675 127.979 269.745C119.495 280.436 114.416 304.601 116.878 331.383C117.55 343.016 39.7648 369.248 36.7114 353.408Z" fill="url(#paint1_linear)"/>
<path d="M248.836 176.463C245.995 174.785 246.795 170.738 248.434 168.905C250.073 167.073 251.841 166.044 254.075 167.31C259.124 170.458 253.102 179.155 248.836 176.463Z" fill="#131F37"/>
<path d="M248.739 183.891C250.378 187.286 246.173 189.623 243.833 190.769C241.493 191.915 239.574 192.292 237.529 190.031C235.484 187.77 233.097 183.395 235.733 181.056C238.369 178.716 247.1 180.497 248.739 183.891Z" fill="#131F37"/>
<path d="M147.486 179.735C158.666 184.207 186.591 205.176 193.522 214.492C163.1 235.52 139.375 262.675 122.598 295.335C99.1098 284.597 61.4971 263.855 48.6416 246.904C84.2385 202.9 129.98 185.007 144.663 185.007L147.486 179.735Z" fill="#DF6B60"/>
<path d="M118.25 294.803C97.0122 286.071 66.6213 271.097 50.7637 256.995C55.7617 248.257 61.7078 239.993 68.3783 231.87C103.26 230.976 121.336 252.675 127.978 269.745C127.856 269.975 127.734 270.205 127.613 270.434C123.831 277.553 120.317 284.166 118.25 294.803Z" fill="#9EACC8"/>
<path d="M147.486 179.735C158.666 184.207 186.591 205.176 193.522 214.492C163.1 235.52 139.375 262.675 122.598 295.335C99.1098 284.597 61.4971 263.855 48.6416 246.904C84.2385 202.9 129.98 185.007 144.663 185.007L147.486 179.735Z" fill="#DF6B60"/>
<path fill-rule="evenodd" clip-rule="evenodd" d="M193.519 214.492C186.588 205.176 158.663 184.207 147.483 179.735L144.661 185.007C129.978 185.007 84.2356 202.9 48.6387 246.904C49.5911 248.16 50.6794 249.437 51.8879 250.729C87.4403 207 132.962 189.21 147.603 189.21L150.425 183.938C160.241 187.865 182.963 204.506 193.054 214.815C193.209 214.707 193.364 214.599 193.519 214.492Z" fill="#DB4F42"/>
<path d="M339.768 304.209C334.396 302.128 325.891 304.477 320.62 305.964C319.312 306.364 317.266 307.01 315.986 307.433C306.506 310.378 302.97 313.985 292.818 312.911C282.666 311.838 274.367 339.626 286.738 341.294C298.131 347.379 308.595 345.069 315.965 342.631C317.438 342.143 318.7 341.661 319.968 341.403C325.032 340.145 334.571 342.375 337.21 343.249C341.583 344.697 343.061 339.479 340.265 338.274C338.423 337.147 330.066 334.537 325.395 334.669C324.333 334.698 324.7 332.46 325.501 332.309C331.64 331.467 338.634 333.406 341.504 334.302C344.374 335.198 346.897 329.898 342.902 327.826C338.908 325.755 333.781 324.663 325.924 324.884C324.863 324.914 324.275 322.598 325.755 322.333C332.718 320.576 339.208 321.036 343.542 321.947C347.876 322.857 348.174 317.642 345.841 315.819C340.905 312.969 331.492 312.929 325.372 314.44C323.898 314.928 323.289 312.857 324.756 312.147C328.959 310.466 335.213 309.825 339.008 309.891C341.849 310.009 342.489 305.542 339.768 304.209Z" fill="#485776"/>
<path d="M188.495 302.384C164.109 286.127 139.974 246.484 131.701 218.982C123.428 191.479 149.812 189.243 157.415 203.777C165.017 218.311 182.681 257.217 209.96 278.347C220.894 286.817 202.246 311.552 188.495 302.384Z" fill="white"/>
<path d="M185.365 302.608C187.673 291.279 202.918 277.117 209.626 274.993C216.334 272.869 222.035 278.683 220.023 285.726C218.176 292.19 207.837 303.279 200.682 309.316C193.527 315.353 184.135 308.645 185.365 302.608Z" fill="white"/>
<path d="M300.26 345.242C265.714 344.906 216.667 328.21 194.307 306.297C196.767 300.26 207.164 287.179 213.425 282.819C228.854 293.552 264.148 311.652 298.616 313.256C318.112 314.162 316.787 345.402 300.26 345.242Z" fill="#485776"/>
<path d="M233.041 169.014C231.949 171.723 228.874 173.187 226.057 172.137C223.353 171.043 221.893 167.963 222.941 165.141C224.033 162.431 227.108 160.968 229.925 162.017C232.629 163.111 234.055 166.27 233.041 169.014Z" fill="#131F37"/>
<path d="M227.332 163.597C227.701 164.053 227.458 164.83 226.736 165.39C226.086 165.939 225.211 166.008 224.842 165.551C224.473 165.095 224.716 164.318 225.438 163.757C226.16 163.197 226.963 163.14 227.332 163.597Z" fill="#9EACC8"/>
<path d="M251.709 168.589C252.078 169.045 251.835 169.823 251.113 170.383C250.463 170.931 249.588 171 249.219 170.544C248.85 170.087 249.093 169.31 249.815 168.75C250.537 168.19 251.34 168.133 251.709 168.589Z" fill="#9EACC8"/>
<path d="M421.133 322.205L409.605 315.062L359.936 395.224C359.645 395.693 359.79 396.31 360.259 396.601L370.087 402.69C370.557 402.981 371.173 402.836 371.464 402.367L421.133 322.205Z" fill="#B0BFD9"/>
<path d="M400.168 307.615L407.334 294.991C407.334 294.991 411.228 294.55 415.309 295.637C430.502 299.686 443.682 315.263 443.967 327.799C444.152 335.954 442.502 337.511 441.327 337.603C440.539 337.664 439.978 336.943 439.541 336.285L429.3 320.882C428.897 320.276 428.001 320.29 427.617 320.909L421.364 331.001C421.073 331.471 420.457 331.615 419.987 331.325L404.009 321.424C403.39 321.04 403.206 320.223 403.603 319.611C406.149 315.682 404.914 310.424 400.885 308.039L400.168 307.615Z" fill="#98AACA"/>
<rect x="398.725" y="310.278" width="15.6188" height="21.3014" rx="1" transform="rotate(-148.217 398.725 310.278)" fill="#B0BFD9"/>
<path d="M368.186 428.402H294.708L311.189 413.516C316.459 408.756 319.467 401.987 319.467 394.886V378.486C319.467 371.649 325.009 366.106 331.846 366.106C338.683 366.106 344.226 371.649 344.226 378.486V395.063C344.226 402.065 347.132 408.752 352.25 413.529L368.186 428.402Z" fill="url(#paint2_linear)"/>
<rect x="328.314" y="374.092" width="104.086" height="11.1813" rx="5.59066" fill="#28CFD3"/>
<rect x="294.906" y="428.402" width="95.8399" height="70.2826" fill="#28AEC1"/>
<path d="M407.225 413.516L390.744 428.402V498.685H464.221V428.402L448.286 413.529C443.167 408.752 440.261 402.065 440.261 395.063V378.486C440.261 371.649 434.719 366.106 427.882 366.106C421.045 366.106 415.503 371.649 415.503 378.486V394.886C415.503 401.987 412.495 408.756 407.225 413.516Z" fill="#28CFD3"/>
<path d="M424.155 76.3C422.118 77.4291 420.332 78.5482 418.529 79.9966C415.796 82.1929 418.877 90.3264 421.914 90.1603C424.202 90.0351 428.064 88.549 431.069 87.0079C432.825 86.1069 434.457 84.6742 434.525 82.7011C434.609 80.2241 433.318 77.4064 431.109 75.7972C429.077 74.3166 426.355 75.081 424.155 76.3Z" fill="#F2D192"/>
<path d="M396.386 146.298C396.201 144.66 393.731 142.566 393.336 144.341C392.942 146.116 391.998 147.087 391.57 148.003C391.143 148.919 391.662 150.235 393.214 150.073C394.766 149.912 396.572 147.937 396.386 146.298Z" fill="#26AABF"/>
<path d="M439.515 114.671C436.656 114.123 433.709 113.622 430.842 113.592C426.691 113.549 425.084 122.888 429.283 124.236C432.373 125.228 435.573 126.859 438.426 127.76C440.308 128.355 442.492 128.194 443.729 126.656C445.349 124.639 446.072 121.383 445.281 118.622C444.589 116.205 441.985 115.145 439.515 114.671Z" fill="#F2D192"/>
<path d="M409.439 91.6975C405.812 92.5053 401.816 93.4365 401.816 93.4365L402.817 105.509C402.817 105.509 408.741 105.989 412.568 105.491C413.807 105.33 415.005 104.755 415.578 103.646C417.081 100.742 416.859 95.4397 414.406 92.6489C413.21 91.2877 411.208 91.3035 409.439 91.6975Z" stroke="#FF0000"/>
<path d="M356.491 86.7112C357.491 92.1157 348.801 96.6903 343.674 94.2089C339.322 92.1019 339.043 84.3936 343.556 82.0896C348.812 79.4062 355.672 82.2873 356.491 86.7112Z" fill="#26AABF"/>
<path d="M385.36 58.6746C388.475 58.7785 393.96 51.698 392.202 46.8305C390.857 43.1089 385.035 41.1617 381.723 44.4295C377.17 48.9208 382.246 58.5708 385.36 58.6746Z" fill="#26AABF"/>
<path d="M374.06 117.783C364.324 111.204 351.908 100.116 352.215 83.2172C352.504 67.3033 370.066 50.0108 387.1 54.2347C412.797 60.6071 439.343 94.294 434.741 122.563C430.357 149.485 402.662 153.819 393.363 147.324C380.444 138.302 385.518 125.528 374.06 117.783Z" fill="#26AABF"/>
<path d="M381.923 114.925C373.416 109.225 356.263 102.323 355.225 83.8732C354.389 69.0056 370.035 54.2714 387.186 57.2276C414.072 61.8617 434.036 94.0826 430.03 118.548C426.214 141.847 406.924 146.129 398.798 140.503C387.509 132.687 391.935 121.634 381.923 114.925Z" fill="#28CFD3"/>
<path d="M417.803 146.596C417.318 146.093 416.85 145.573 416.372 145.043C415.192 143.734 413.952 142.36 412.254 140.993C408.853 138.255 416.67 130.116 420.208 131.697C423.269 133.065 426.106 134.863 428.525 137.632C428.533 137.642 428.542 137.652 428.551 137.662C425.541 141.676 421.782 144.604 417.803 146.596Z" fill="#127E8F"/>
<path d="M427.47 133.847C424.444 131.758 421.252 130.713 417.949 130.14C414.131 129.477 408.556 139.288 412.525 141.106C416.494 142.923 418.689 145.222 422.073 146.644C425.09 147.913 430.747 141.137 429.606 136.485C429.328 135.353 428.429 134.509 427.47 133.847Z" fill="#F2D192"/>
<path d="M402.162 96.8753C398.936 98.2496 400.177 106.804 403.146 107.466C406.727 108.265 414.421 108.846 415.887 104.243C416.639 101.881 415.5 97.8037 413.81 95.6565C410.946 92.0193 405.536 95.4376 402.162 96.8753Z" fill="#127E8F"/>
<path d="M401.462 96.7909C398.729 98.9872 400.376 107.637 403.413 107.47C407.077 107.27 416.578 104.602 416.742 99.7737C416.827 97.2967 415.536 94.479 413.327 92.8698C409.585 90.1439 404.321 94.4931 401.462 96.7909Z" fill="#F2D192"/>
<path d="M398.548 85.4888C398.026 84.8626 394.837 82.2825 394.024 81.5559C393.21 80.8292 391.055 82.7544 391.884 83.6568C392.839 84.6951 395.007 86.6012 396.178 87.8416C397.36 89.0938 399.2 86.2714 398.548 85.4888Z" fill="#127E8F"/>
<path d="M396.621 87.7081C396.099 87.0823 393.17 84.3239 392.357 83.5977C391.544 82.8716 388.763 85.1358 389.592 86.0377C390.546 87.0754 392.517 89.1547 393.71 90.4434C394.88 91.7071 397.273 88.4904 396.621 87.7081Z" fill="#127E8F"/>
<path d="M384.862 77.5847C390.846 71.1031 404.956 74.9237 394.172 86.031C383.388 97.1383 378.879 84.0663 384.862 77.5847Z" fill="#127E8F"/>
<path d="M397.756 84.5209C397.176 83.866 393.631 81.171 392.727 80.4117C391.823 79.6524 389.413 81.6807 390.334 82.6243C391.394 83.7101 393.804 85.7018 395.105 86.9988C396.418 88.3081 398.48 85.3397 397.756 84.5209Z" fill="white"/>
<path d="M395.345 87.1193C394.766 86.4643 391.509 83.5794 390.605 82.8201C389.701 82.0608 387.197 84.0439 388.119 84.9876C389.179 86.0733 391.369 88.2488 392.694 89.5971C393.994 90.9193 396.07 87.938 395.345 87.1193Z" fill="white"/>
<path opacity="0.32" d="M391.042 87.9311C390.836 87.7245 390.628 87.5158 390.421 87.3083C389.535 86.4194 388.672 85.5546 388.118 84.9873C387.254 84.1023 389.403 82.3029 390.419 82.7091C390.39 82.6803 390.362 82.652 390.335 82.6244C389.414 81.6807 391.824 79.6524 392.728 80.4117C393.025 80.661 393.606 81.1188 394.274 81.6446C394.737 82.0095 395.242 82.4071 395.722 82.7905C395.109 83.6911 394.327 84.6637 393.354 85.7078C392.538 86.5832 391.767 87.3199 391.042 87.9311Z" fill="#485776"/>
<path d="M384.569 77.6751C390.573 71.0045 403.892 73.7388 393.095 85.1926C382.299 96.6463 378.565 84.3457 384.569 77.6751Z" fill="#F2D192"/>
<path d="M382.73 82.4678C385.593 85.0309 392.365 76.6996 388.966 74.6429C387.14 73.5379 385.154 74.5678 383.366 76.7884C381.578 79.009 381.26 80.9192 382.73 82.4678Z" fill="#131F37"/>
<path d="M388.833 70.1119C390.645 71.3121 393.148 70.9124 394.432 69.0806C395.628 67.2695 395.224 64.7654 393.391 63.4773C391.578 62.2771 389.076 62.6768 387.792 64.5085C386.595 66.3197 387.054 68.8575 388.833 70.1119Z" fill="#131F37"/>
<path d="M390.049 64.3827C390.015 64.8182 390.492 65.1921 391.171 65.2311C391.8 65.2933 392.366 64.9663 392.4 64.5308C392.433 64.0953 391.956 63.7214 391.278 63.6824C390.599 63.6434 390.082 63.9472 390.049 64.3827Z" fill="#9EACC8"/>
<path d="M371.734 91.496C373.547 92.6956 376.049 92.2952 377.333 90.4631C378.529 88.6516 378.124 86.1476 376.29 84.86C374.477 83.6604 371.975 84.0608 370.691 85.8929C369.495 87.7044 369.954 90.2421 371.734 91.496Z" fill="#131F37"/>
<path d="M372.947 85.766C372.913 86.2015 373.391 86.5752 374.069 86.614C374.699 86.676 375.264 86.3489 375.298 85.9134C375.332 85.4779 374.855 85.1041 374.176 85.0653C373.497 85.0265 372.981 85.3305 372.947 85.766Z" fill="#9EACC8"/>
<path d="M362.577 224.3C364.605 225.865 365.354 228.129 361.369 226.74C357.906 225.532 352.109 224.052 348.129 223.51C347.226 223.387 346.555 222.576 346.661 221.671C346.757 220.858 347.447 220.253 348.263 220.304C351.347 220.497 358.645 221.267 362.577 224.3Z" fill="#DB4F42"/>
<path d="M311.491 266.512C313.286 268.341 315.622 268.815 313.77 265.023C312.161 261.728 310.002 256.148 308.992 252.26C308.763 251.378 307.878 250.808 306.992 251.021C306.196 251.212 305.678 251.97 305.825 252.774C306.383 255.813 308.013 262.968 311.491 266.512Z" fill="#DB4F42"/>
<path d="M364.155 216.683C366.184 218.248 366.932 220.512 362.947 219.122C359.56 217.942 355.702 217.372 352.263 217.064C351.295 216.977 350.579 216.116 350.692 215.151C350.783 214.376 351.389 213.766 352.169 213.729C354.703 213.61 360.329 213.731 364.155 216.683Z" fill="#DB4F42"/>
<path d="M303.194 265.68C304.989 267.508 307.325 267.983 305.473 264.191C303.899 260.968 302.875 257.205 302.161 253.826C301.961 252.876 301.02 252.267 300.076 252.494C299.317 252.676 298.783 253.35 298.839 254.129C299.022 256.659 299.809 262.231 303.194 265.68Z" fill="#DB4F42"/>
<path d="M330.147 241.345C319.895 249.588 308.39 254.702 293.666 257.733C292.704 257.931 291.795 257.168 291.768 256.186C291.539 247.879 289.511 223.968 305.05 211.647C321.054 198.957 343.93 205.63 354.539 208.516C355.486 208.773 355.949 209.848 355.469 210.704C348.857 222.494 340.349 233.141 330.147 241.345Z" fill="#DF6B60"/>
<path d="M308.144 203.227C308.263 202.1 309.535 201.501 310.48 202.127L315.722 205.603C316.703 206.254 316.596 207.727 315.531 208.228L309.626 211.007C308.561 211.508 307.357 210.652 307.481 209.482L308.144 203.227Z" fill="#DF6B60"/>
<path d="M301.554 207.311C301.466 206.181 302.607 205.36 303.65 205.803L309.439 208.264C310.522 208.724 310.685 210.192 309.73 210.879L304.432 214.69C303.476 215.377 302.136 214.755 302.045 213.582L301.554 207.311Z" fill="#DF6B60"/>
<path d="M295.798 212.959C295.46 211.878 296.39 210.823 297.506 211.023L303.697 212.132C304.856 212.34 305.342 213.734 304.563 214.617L300.247 219.512C299.468 220.395 298.024 220.087 297.673 218.963L295.798 212.959Z" fill="#DF6B60"/>
<path d="M291.381 219.592C290.845 218.594 291.558 217.383 292.691 217.368L298.981 217.286C300.158 217.271 300.899 218.548 300.302 219.562L296.989 225.185C296.391 226.199 294.915 226.17 294.358 225.133L291.381 219.592Z" fill="#DF6B60"/>
<path d="M288.044 227.131C287.324 226.256 287.789 224.929 288.897 224.695L295.051 223.392C296.203 223.149 297.178 224.258 296.789 225.369L294.632 231.528C294.243 232.639 292.789 232.897 292.041 231.989L288.044 227.131Z" fill="#DF6B60"/>
<path d="M287.071 235.055C286.213 234.315 286.446 232.929 287.499 232.509L293.344 230.183C294.437 229.748 295.586 230.676 295.391 231.836L294.309 238.272C294.114 239.433 292.724 239.934 291.833 239.165L287.071 235.055Z" fill="#DF6B60"/>
<path d="M287.117 243.217C286.118 242.681 286.045 241.277 286.982 240.639L292.183 237.101C293.156 236.438 294.479 237.095 294.54 238.27L294.88 244.788C294.941 245.963 293.693 246.754 292.657 246.196L287.117 243.217Z" fill="#DF6B60"/>
<path d="M288.908 251.169C287.845 250.775 287.58 249.394 288.42 248.634L293.084 244.413C293.957 243.624 295.357 244.092 295.58 245.248L296.813 251.656C297.036 252.812 295.909 253.767 294.805 253.357L288.908 251.169Z" fill="#DF6B60"/>
<path d="M294.159 257.546C293.063 257.834 292.052 256.857 292.302 255.752L293.691 249.617C293.951 248.469 295.366 248.047 296.212 248.864L300.906 253.398C301.753 254.216 301.38 255.645 300.242 255.945L294.159 257.546Z" fill="#DF6B60"/>
<path d="M315.518 199.805C315.837 198.717 317.196 198.356 318.013 199.141L322.549 203.498C323.398 204.314 323.029 205.744 321.892 206.046L315.585 207.725C314.447 208.028 313.416 206.97 313.748 205.841L315.518 199.805Z" fill="#DF6B60"/>
<path d="M323.48 198.137C324.031 197.146 325.436 197.093 326.06 198.039L329.526 203.288C330.174 204.27 329.499 205.584 328.323 205.629L321.802 205.877C320.626 205.922 319.853 204.664 320.425 203.635L323.48 198.137Z" fill="#DF6B60"/>
<path d="M331.598 198.924C332.308 198.041 333.701 198.225 334.157 199.262L336.687 205.021C337.16 206.099 336.274 207.28 335.107 207.126L328.637 206.27C327.47 206.116 326.92 204.745 327.658 203.827L331.598 198.924Z" fill="#DF6B60"/>
<path d="M339.673 200.832C340.574 200.144 341.883 200.656 342.078 201.773L343.157 207.969C343.359 209.129 342.215 210.064 341.119 209.635L335.041 207.256C333.945 206.827 333.74 205.365 334.675 204.65L339.673 200.832Z" fill="#DF6B60"/>
<path d="M347.623 203.386C348.623 202.852 349.833 203.569 349.844 204.702L349.909 210.992C349.922 212.169 348.642 212.907 347.63 212.307L342.016 208.979C341.003 208.379 341.036 206.902 342.074 206.348L347.623 203.386Z" fill="#DF6B60"/>
<path d="M329.156 232.225C330.502 232.515 332.042 235.581 329.236 238.323C326.302 241.231 322.762 240.973 322.042 239.907C321.362 238.908 323.267 237.24 325.093 235.438C326.785 233.716 327.405 231.859 329.156 232.225Z" fill="#F4F6FB"/>
<path d="M331.49 223.68C332.609 225.564 332.082 228.064 330.174 229.266C328.291 230.381 325.79 229.85 324.584 227.94C323.465 226.056 323.992 223.556 325.9 222.354C327.783 221.239 330.315 221.826 331.49 223.68Z" fill="#131F37"/>
<path d="M319.01 233.412C320.128 235.296 319.602 237.796 317.694 238.998C315.811 240.113 313.31 239.582 312.103 237.672C310.985 235.788 311.511 233.288 313.419 232.086C315.302 230.971 317.835 231.558 319.01 233.412Z" fill="#131F37"/>
<path d="M325.661 224.619C326.101 224.607 326.454 225.106 326.46 225.791C326.491 226.428 326.134 226.981 325.694 226.994C325.253 227.006 324.901 226.507 324.895 225.822C324.889 225.137 325.221 224.632 325.661 224.619Z" fill="#9EACC8"/>
<path d="M313.182 234.351C313.623 234.339 313.975 234.838 313.981 235.523C314.012 236.16 313.655 236.713 313.215 236.726C312.775 236.738 312.422 236.239 312.416 235.554C312.411 234.869 312.742 234.364 313.182 234.351Z" fill="#9EACC8"/>
<path d="M340.096 185.934C342.869 187.573 344.357 188.665 346.762 191.241C346.83 188.208 345.818 183.243 344.454 180.499C353.463 182.217 360.512 193.935 352.543 197.99C342.789 202.954 338.374 192.618 340.096 185.934Z" fill="#DF6B60"/>
<path fill-rule="evenodd" clip-rule="evenodd" d="M354.772 202.942C354.666 205.629 353.69 208.186 352.82 209.745L350.637 208.526C351.367 207.219 352.187 205.045 352.274 202.844C352.359 200.68 351.742 198.625 349.769 197.199L351.234 195.173C354.082 197.232 354.879 200.219 354.772 202.942Z" fill="#DF6B60"/>
<path d="M271.34 242.484C272.033 246.053 272.836 247.72 274.79 250.274C271.991 249.552 267.437 247.311 264.98 245.327C264.366 254.477 273.757 262.613 279.695 255.927C286.963 247.744 278.242 242.506 271.34 242.484Z" fill="#DF6B60"/>
<path fill-rule="evenodd" clip-rule="evenodd" d="M278.237 256.329C285.79 258.828 291.337 255.404 294.712 251.838L292.897 250.12C289.903 253.282 285.318 256.039 279.023 253.955L278.237 256.329Z" fill="#DF6B60"/>
</g>
<defs>
<radialGradient id="paint0_radial" cx="0" cy="0" r="1" gradientUnits="userSpaceOnUse" gradientTransform="translate(241.813 142.924) rotate(142.8) scale(98.4353 98.4583)">
<stop offset="0.500837" stop-color="#485776"/>
<stop offset="1" stop-color="#293858"/>
</radialGradient>
<linearGradient id="paint1_linear" x1="80.937" y1="271.047" x2="80.937" y2="354.779" gradientUnits="userSpaceOnUse">
<stop stop-color="#F6F8FC"/>
<stop offset="1" stop-color="white"/>
</linearGradient>
<linearGradient id="paint2_linear" x1="331.447" y1="428.402" x2="331.447" y2="380.458" gradientUnits="userSpaceOnUse">
<stop stop-color="#22859B"/>
<stop offset="1" stop-color="#26AABF"/>
</linearGradient>
<clipPath id="clip0">
<rect width="500" height="500" fill="white"/>
</clipPath>
</defs>
</svg>
