<svg width="30" height="26" viewBox="0 0 30 26" fill="none" xmlns="http://www.w3.org/2000/svg">
<path d="M4.57906 19.4955C5.11217 20.2582 5.78773 20.8435 6.47405 21.4139C7.48138 22.2507 8.58811 22.8844 9.75879 23.3751C9.95759 23.4584 10.0101 23.5153 9.85692 23.7268C9.56441 24.1306 9.29659 24.5579 9.02181 24.978C8.94837 25.0898 8.86986 25.1624 8.7331 25.1482C5.50915 24.8185 2.65368 23.5787 0.378809 20.8913C0.212293 20.6947 0.13315 20.5202 0.150878 20.2148C0.322459 17.2168 0.739699 14.2659 1.43805 11.3669C2.02118 8.94574 2.79804 6.61219 3.87818 4.40752C4.20868 3.73245 4.75634 3.40061 5.28945 3.03601C6.73237 2.04904 8.2785 1.34477 9.94303 0.988717C10.1494 0.944567 10.3584 0.910386 10.5673 0.884751C10.925 0.841312 11.1599 1.0585 11.2169 1.46583C11.2454 1.67162 11.0795 1.62249 11.0073 1.64243C10.2697 1.8468 9.54922 2.10529 8.84833 2.43784C7.47568 3.08942 6.25309 3.99877 5.15142 5.15736C11.7032 1.36328 18.2448 1.34975 24.7807 5.17944C24.8218 5.0128 24.687 4.97934 24.6186 4.90884C23.0706 3.32868 21.2497 2.32961 19.2413 1.735C19.2312 1.73215 19.2204 1.73215 19.2103 1.7293C18.7089 1.58546 18.6576 1.38465 18.9925 0.923916C19.0735 0.812828 19.154 0.857691 19.247 0.865524C20.5234 0.976612 21.7232 1.40957 22.8851 1.98424C23.6189 2.34741 24.3128 2.79746 25.0061 3.25107C25.6158 3.65055 26.0197 4.20671 26.3388 4.90029C27.4494 7.31503 28.2294 9.86079 28.7929 12.4963C29.2665 14.7088 29.5799 16.9498 29.754 19.2178C29.785 19.618 29.766 20.0246 29.842 20.4198C29.8787 20.6114 29.7502 20.6983 29.6616 20.8072C27.997 22.8495 25.9146 24.0701 23.5499 24.7373C22.792 24.9509 22.0208 25.0592 21.2459 25.1475C21.0933 25.1646 21.0173 25.0734 20.9381 24.9524C20.6703 24.5415 20.4069 24.1256 20.1208 23.7304C19.9751 23.5289 20.0017 23.4641 20.2113 23.3765C21.5947 22.7983 22.8787 22.0157 24.0272 20.9674C24.5173 20.5202 25.0092 20.0716 25.3948 19.4998C25.4208 19.4784 25.4841 19.4735 25.4531 19.4222C25.4284 19.3816 25.3847 19.4129 25.36 19.4528C24.6768 19.9192 24.0127 20.4191 23.2953 20.8229C21.5162 21.8234 19.6351 22.4201 17.6635 22.6793C16.6588 22.8111 15.6514 22.8965 14.6409 22.8702C11.6785 22.7926 8.82997 22.1723 6.2075 20.538C5.66553 20.2005 5.14636 19.8153 4.61642 19.4528C4.59236 19.4329 4.56893 19.4122 4.54487 19.3916C4.52335 19.3745 4.50245 19.3552 4.47966 19.341C4.47649 19.3389 4.4613 19.3624 4.4518 19.3745C4.47649 19.3866 4.50119 19.3987 4.52651 19.4108C4.54361 19.4393 4.56134 19.4678 4.57906 19.4955ZM17.0089 14.5194C16.9962 15.0178 17.1127 15.4836 17.2862 15.9315C17.9637 17.6768 19.8358 18.0863 20.9793 16.7433C22.0886 15.4415 21.967 13.1486 20.7286 12.0113C19.9447 11.2914 18.8007 11.2978 18.0187 12.0234C17.3204 12.6722 17.0355 13.5295 17.0089 14.5194ZM10.6148 11.4787C10.1849 11.4566 9.79931 11.5976 9.44602 11.854C8.02715 12.883 7.81188 15.3881 9.02118 16.7739C9.91454 17.7979 11.2473 17.8057 12.1489 16.7917C12.9935 15.8425 13.2151 14.2815 12.6643 13.0403C12.2432 12.0918 11.5873 11.515 10.6148 11.4787Z" fill="white"/>
</svg>
