<svg width="25" height="24" viewBox="0 0 25 24" fill="none" xmlns="http://www.w3.org/2000/svg">
<g clip-path="url(#clip0)">
<path d="M0.0636719 0H24.0496C24.0535 0 24.0566 0.003148 24.0566 0.00703125V23.993C24.0566 23.9969 24.0535 24 24.0496 24H13.9316V15.4688H16.7254L17.2598 12H13.9316V9.75C13.9316 8.80313 14.3957 7.875 15.8863 7.875H17.4004V4.92188C17.4004 4.92188 16.027 4.6875 14.7145 4.6875C11.9723 4.6875 10.1816 6.34688 10.1816 9.35625V12H7.13477V15.4688H10.1816V24H0.0636719C0.0597886 24 0.0566406 23.9969 0.0566406 23.993V0.00703125C0.0566406 0.003148 0.0597886 0 0.0636719 0Z" fill="white"/>
</g>
<defs>
<clipPath id="clip0">
<rect x="0.0566406" width="24" height="24" rx="6" fill="white"/>
</clipPath>
</defs>
</svg>
