<svg width="500" height="500" viewBox="0 0 500 500" fill="none" xmlns="http://www.w3.org/2000/svg">
<g clip-path="url(#clip0)">
<rect x="290.168" width="209.783" height="499.869" fill="#DF6B60"/>
<rect x="303.543" y="16.7341" width="196.408" height="90.1305" fill="#141E31"/>
<rect x="490.799" y="31.791" width="6.54484" height="75.0733" fill="#2FE4E1"/>
<rect width="6.54484" height="16.6122" transform="matrix(1 0 0 -1 490.799 98.918)" fill="#DF6B60"/>
<rect x="482.004" y="31.7913" width="6.54484" height="75.0733" fill="#2FE4E1"/>
<rect width="6.54484" height="16.6122" transform="matrix(1 0 0 -1 482.004 98.9187)" fill="#566686"/>
<rect x="473.207" y="31.791" width="6.54484" height="75.0733" fill="#E8EEFB"/>
<rect width="6.54484" height="16.6122" transform="matrix(1 0 0 -1 473.207 98.9185)" fill="#566686"/>
<rect x="464.414" y="31.7913" width="6.54484" height="75.0733" fill="#E8EEFB"/>
<rect width="6.54484" height="16.6122" transform="matrix(1 0 0 -1 464.414 98.9185)" fill="#566686"/>
<rect width="6.5451" height="75.0702" transform="matrix(0.965887 -0.258964 0.258674 0.965965 438.861 34.4297)" fill="#BAC6DE"/>
<rect width="6.5451" height="16.6115" transform="matrix(0.965887 -0.258964 -0.258674 -0.965965 456.227 99.2693)" fill="#DF6B60"/>
<rect x="421.26" y="31.7905" width="4.08869" height="75.0733" fill="#BAC6DE"/>
<rect x="359.08" y="85.4941" width="4.09114" height="49.7846" transform="rotate(-90 359.08 85.4941)" fill="#BAC6DE"/>
<path d="M381.813 58.3543C390.547 58.3543 397.627 57.4496 397.627 56.3335C397.627 55.2175 390.547 54.3127 381.813 54.3127C373.08 54.3127 366 55.2175 366 56.3335C366 57.4496 373.08 58.3543 381.813 58.3543Z" fill="#D8E1F4"/>
<path fill-rule="evenodd" clip-rule="evenodd" d="M393.974 81.4324H369.679L366.023 56.3342H397.63L393.974 81.4324Z" fill="#D8E1F4"/>
<rect width="1.6318" height="57.0988" transform="matrix(1 0 0 -1 422.482 97.8762)" fill="#DF6B60"/>
<rect x="427.393" y="68.6299" width="20.6559" height="38.2354" fill="#2FE4E1"/>
<path d="M354.057 106.882C351.067 106.882 348.643 104.458 348.643 101.468V101.468C348.643 98.4776 351.067 96.0536 354.057 96.0536L405.078 96.0536C402.997 100.281 402.81 102.654 405.078 106.882L354.057 106.882Z" fill="#BAC6DE"/>
<path d="M347.518 96.2397C344.527 96.2397 342.104 93.8158 342.104 90.8256V90.8256C342.104 87.8355 344.527 85.4115 347.518 85.4115L398.539 85.4115C396.458 89.6389 396.271 92.0122 398.539 96.2397L347.518 96.2397Z" fill="#D8E1F4"/>
<rect width="20.6559" height="3.08066" transform="matrix(1 0 0 -1 427.395 100.749)" fill="#DF6B60"/>
<rect width="20.6559" height="3.08066" transform="matrix(1 0 0 -1 427.395 89.2888)" fill="#DF6B60"/>
<rect width="20.6559" height="3.08066" transform="matrix(1 0 0 -1 427.395 77.8281)" fill="#DF6B60"/>
<path d="M303.543 16.7341H499.951V22.3672H319.545L303.543 16.7341Z" fill="#BAC6DE"/>
<rect x="303.543" y="124.654" width="102.172" height="90.1305" fill="#141E31"/>
<rect width="6.54485" height="53.2846" transform="matrix(-0.998072 -0.0620671 -0.0619929 0.998077 390.906 162.131)" fill="#E8EEFB"/>
<rect width="6.54485" height="16.6121" transform="matrix(-0.998072 -0.0620671 0.0619929 -0.998077 388.096 207.382)" fill="#DF6B60"/>
<rect x="303.543" y="232.573" width="102.172" height="90.1305" fill="#141E31"/>
<rect x="422.896" y="124.705" width="77.0583" height="197.999" fill="#141E31"/>
<rect width="6.54484" height="75.0733" transform="matrix(-1 0 0 1 399.492 140.109)" fill="#2FE4E1"/>
<rect x="399.492" y="207.235" width="6.54484" height="16.6122" transform="rotate(180 399.492 207.235)" fill="#DF6B60"/>
<rect x="422.896" y="124.705" width="77.0583" height="3.78606" fill="#BAC6DE"/>
<rect x="422.896" y="124.705" width="77.0583" height="3.78606" fill="#BAC6DE"/>
<rect width="3.53312" height="70.5233" transform="matrix(-1 0 0 1 404.73 144.821)" fill="#E8EEFB"/>
<rect x="404.73" y="207.236" width="3.53312" height="16.6122" transform="rotate(180 404.73 207.236)" fill="#DF6B60"/>
<rect x="422.896" y="319.128" width="77.0583" height="3.78606" fill="#BAC6DE"/>
<rect x="303.543" y="340.492" width="196.408" height="90.1305" fill="#141E31"/>
<path d="M303.543 124.654H405.612V128.508H319.545L303.543 124.654Z" fill="#BAC6DE"/>
<path d="M303.543 124.654H405.612V128.508H319.545L303.543 124.654Z" fill="#BAC6DE"/>
<path d="M303.543 322.697H405.657V318.842H319.545L303.543 322.697Z" fill="#BAC6DE"/>
<rect width="6.54485" height="53.2846" transform="matrix(0.998072 -0.0620671 0.0619929 0.998077 328.922 267.764)" fill="#E8EEFB"/>
<rect width="6.54485" height="16.6121" transform="matrix(0.998072 -0.0620671 -0.0619929 -0.998077 331.738 313.015)" fill="#566686"/>
<rect x="434.506" y="406.196" width="4.09114" height="49.7846" transform="rotate(-90 434.506 406.196)" fill="#BAC6DE"/>
<path d="M433.045 427.582C430.055 427.582 427.631 425.158 427.631 422.168V422.168C427.631 419.178 430.055 416.754 433.045 416.754L484.067 416.754C481.985 420.981 481.798 423.355 484.067 427.582L433.045 427.582Z" fill="#BAC6DE"/>
<path d="M426.504 416.94C423.514 416.94 421.09 414.516 421.09 411.526V411.526C421.09 408.536 423.514 406.112 426.504 406.112L477.526 406.112C477.526 406.112 475.257 412.713 477.526 416.94L426.504 416.94Z" fill="#D8E1F4"/>
<rect x="320.334" y="245.742" width="6.54484" height="75.0733" fill="#2FE4E1"/>
<rect width="6.54484" height="16.6122" transform="matrix(1 0 0 -1 320.334 312.869)" fill="#DF6B60"/>
<rect x="312.07" y="245.742" width="6.54484" height="75.0733" fill="#E8EEFB"/>
<rect width="6.54484" height="16.6122" transform="matrix(1 0 0 -1 312.07 312.869)" fill="#566686"/>
<rect x="303.543" y="448.429" width="196.408" height="51.44" fill="#141E31"/>
<path d="M303.543 430.623H499.951V424.99H319.545L303.543 430.623Z" fill="#BAC6DE"/>
<rect width="6.5451" height="62.7803" transform="matrix(0.965887 -0.258964 0.258674 0.965965 310.965 366.534)" fill="#E8EEFB"/>
<rect width="6.5451" height="16.6115" transform="matrix(0.965887 -0.258964 -0.258674 -0.965965 325.15 419.502)" fill="#DF6B60"/>
<path d="M342.52 499.869C339.529 499.869 337.105 497.445 337.105 494.455V494.455C337.105 491.465 339.529 489.041 342.52 489.041L393.541 489.041C391.46 493.268 391.273 495.642 393.541 499.869L342.52 499.869Z" fill="#BAC6DE"/>
<path d="M319.6 214.794C316.61 214.794 314.186 212.37 314.186 209.38V209.38C314.186 206.39 316.61 203.966 319.6 203.966L364.026 203.966C362.188 208.193 362.023 210.566 364.026 214.794L319.6 214.794Z" fill="#BAC6DE"/>
<path d="M319.6 193.157C316.61 193.157 314.186 190.733 314.186 187.743V187.743C314.186 184.753 316.61 182.329 319.6 182.329L364.026 182.329C362.188 186.556 362.023 188.93 364.026 193.157L319.6 193.157Z" fill="#BAC6DE"/>
<path d="M329.203 203.99C326.213 203.99 323.789 201.566 323.789 198.576V198.576C323.789 195.585 326.213 193.162 329.203 193.162L373.63 193.162C371.791 197.389 371.627 199.762 373.63 203.99L329.203 203.99Z" fill="#D8E1F4"/>
<rect width="6.5451" height="75.0702" transform="matrix(0.965887 -0.258964 0.258674 0.965965 317.334 354.662)" fill="#E8EEFB"/>
<rect width="6.5451" height="16.6115" transform="matrix(0.965887 -0.258964 -0.258674 -0.965965 334.699 419.502)" fill="#566686"/>
<rect width="6.5451" height="75.0702" transform="matrix(0.965887 -0.258964 0.258674 0.965965 326.553 354.661)" fill="#E8EEFB"/>
<rect width="6.5451" height="16.6115" transform="matrix(0.965887 -0.258964 -0.258674 -0.965965 343.918 419.501)" fill="#DF6B60"/>
<rect width="6.54485" height="75.0731" transform="matrix(0.998072 -0.0620671 0.0619929 0.998077 375.746 352.811)" fill="#2FE4E1"/>
<rect width="6.54485" height="16.6121" transform="matrix(0.998072 -0.0620671 -0.0619929 -0.998077 379.906 419.808)" fill="#566686"/>
<rect x="411.23" y="352.535" width="6.54484" height="75.0733" fill="#E8EEFB"/>
<rect width="6.54484" height="16.6122" transform="matrix(1 0 0 -1 411.23 419.661)" fill="#DF6B60"/>
<rect x="366.729" y="352.534" width="6.54484" height="75.0733" fill="#2FE4E1"/>
<rect width="6.54484" height="16.6122" transform="matrix(1 0 0 -1 366.729 419.661)" fill="#566686"/>
<rect x="493.402" y="352.535" width="6.54484" height="75.0733" fill="#2FE4E1"/>
<rect width="6.54484" height="16.6122" transform="matrix(1 0 0 -1 493.402 419.661)" fill="#566686"/>
<rect x="360.355" y="352.535" width="3.53312" height="75.0733" fill="#E8EEFB"/>
<rect width="3.53312" height="16.6122" transform="matrix(1 0 0 -1 360.355 419.661)" fill="#566686"/>
<rect width="6.5449" height="69.3547" transform="matrix(0.992628 0.1212 -0.121057 0.992646 402.16 358.09)" fill="#E8EEFB"/>
<rect width="6.5449" height="16.612" transform="matrix(0.992628 0.1212 0.121057 -0.992646 394.729 419.047)" fill="#DF6B60"/>
<rect x="479.666" y="467.853" width="20.3187" height="32.0162" fill="#2FE4E1"/>
<rect x="470.867" y="459.429" width="6.54484" height="40.44" fill="#2FE4E1"/>
<rect x="462.074" y="459.429" width="6.54484" height="40.44" fill="#E8EEFB"/>
<rect x="413.215" y="459.429" width="6.54484" height="40.44" fill="#E8EEFB"/>
<rect x="404.412" y="459.429" width="6.54484" height="40.44" fill="#E8EEFB"/>
<rect x="453.275" y="459.429" width="6.54484" height="40.44" fill="#E8EEFB"/>
<rect x="422.207" y="454.938" width="4.20478" height="44.9312" fill="#E8EEFB"/>
<path d="M434.044 460.426L427.723 462.121L437.831 499.869H444.607L434.044 460.426Z" fill="#BAC6DE"/>
<path d="M309.39 460.426L303.068 462.121L313.177 499.869H319.952L309.39 460.426Z" fill="#BAC6DE"/>
<path d="M319.449 460.426L313.127 462.121L323.235 499.869H330.011L319.449 460.426Z" fill="#BAC6DE"/>
<rect x="348.369" y="284.891" width="47.2499" height="31.3773" rx="4" fill="#BAC6DE"/>
<rect x="384.705" y="309.907" width="2.3314" height="11.0245" rx="1.1657" fill="#BAC6DE"/>
<rect x="356.945" y="309.907" width="2.3314" height="11.0245" rx="1.1657" fill="#BAC6DE"/>
<path d="M499.998 150.838V272.77C492.362 276.844 491.23 283.712 490.751 291.28C494.411 291.379 497.626 291.616 499.998 291.942V318.854H473.616C472.33 310.637 470.855 301.864 469.595 293.287C469.116 291.67 477.012 291.269 486.282 291.23C486.154 287.075 485.137 281.647 479.328 277.676C472.049 272.623 458.492 265.676 458.901 256.504C459.231 249.298 472.426 247.832 472.181 245.197C471.716 239.11 453.357 230.599 455.415 220.981C457.273 212.558 473.901 215.28 476.782 211.452C483.298 202.828 463.982 189.729 469.723 178.489C475.46 167.246 481.792 174.869 485.062 171.06C491.444 163.59 481.006 147.972 499.998 150.838Z" fill="#566686"/>
<rect x="143.953" y="355.637" width="55.016" height="4.90388" fill="white"/>
<path d="M183.535 341.729C179.381 342.009 178.846 347.481 178.816 350.676C178.939 352.504 179.062 354.331 180.037 355.184C182.038 356.934 185.46 357.386 187.988 357.216C190.375 357.239 192.642 356.964 194.588 357.138C196.535 357.313 197.434 357.72 200.055 358.193C202.675 358.666 209.695 358.141 211.439 356.516C213.182 354.892 213.11 352.124 212.28 350.711C207.901 346.882 201.587 347.412 196.674 344.513C192.484 342.225 183.535 341.729 183.535 341.729Z" fill="#5C6A88"/>
<path d="M187.902 336.743C182.749 336.313 181.997 338.669 180.899 340.565C179.8 342.461 176.862 350.28 179.31 352.42C181.312 354.171 186.374 354.546 188.296 354.607C190.218 354.668 193.348 354.365 194.897 354.529C196.445 354.694 198.158 355.628 201.164 356.11C204.17 356.591 211.565 355.207 212.457 353.713C214.234 350.737 211.559 348.093 208.726 347.355C204.95 345.774 201.161 342.271 198.895 340.309C196.63 338.347 193.055 337.173 187.902 336.743Z" fill="#2FE4E1"/>
<path d="M250.725 102.29C251.125 100.457 252.748 99.1506 254.624 99.1506V99.1506C257.171 99.1506 259.067 101.505 258.523 103.993L172.024 500H163.854L250.725 102.29Z" fill="white"/>
<path d="M196.871 102.29C197.272 100.457 198.894 99.1509 200.77 99.1509V99.1509C203.318 99.1509 205.213 101.505 204.669 103.994L118.17 500H110L196.871 102.29Z" fill="white"/>
<rect x="120.16" y="473.036" width="55.016" height="4.90398" fill="white"/>
<rect x="129.027" y="433.024" width="55.016" height="4.90388" fill="white"/>
<rect x="138.781" y="394.33" width="55.016" height="4.90388" fill="white"/>
<rect x="151.537" y="316.944" width="55.016" height="4.90388" fill="white"/>
<rect x="160.096" y="280.179" width="55.016" height="4.90388" fill="white"/>
<rect x="169.451" y="239.557" width="55.016" height="4.90388" fill="white"/>
<rect x="175.178" y="200.864" width="55.016" height="4.90388" fill="white"/>
<rect x="187.191" y="164.099" width="55.016" height="4.90388" fill="white"/>
<rect x="194.633" y="123.477" width="55.016" height="4.90388" fill="white"/>
<path d="M252.82 175.585C254.301 173.115 260.307 169.328 257.757 158.789C255.207 148.25 293.632 155.99 273.307 173.527C269.913 175.565 268.702 177.726 265.985 182.172C263.268 186.618 251.338 178.055 252.82 175.585Z" fill="#BAC6DE"/>
<path d="M257.174 149.651C259.56 139.03 269.515 133.596 283.917 137.713C297.951 141.725 300.024 152.381 293.573 161.607C293.282 162.024 293.33 162.592 293.675 162.965C299.642 169.402 294.61 176.606 279.556 175.092C264.005 173.527 254.788 160.272 257.174 149.651Z" fill="#BAC6DE"/>
<path d="M282.243 126.128C278.699 130.968 276.679 134.259 274.486 139.462C274.225 140.082 274.648 140.772 275.317 140.83L288.311 141.961C289.022 142.023 289.566 141.341 289.347 140.662C287.537 135.043 286.211 131.482 283.951 126.317C283.644 125.616 282.695 125.511 282.243 126.128Z" fill="#BAC6DE"/>
<path d="M257.729 130.186C255.608 137.806 254.844 145.609 256.91 155.477C258.759 162.259 278.29 152.947 274.812 145.375C271.531 138.231 265.685 134.507 259.29 129.671C258.73 129.248 257.917 129.51 257.729 130.186Z" fill="#BAC6DE"/>
<path d="M213.173 229.44L182.612 274.183C181.922 275.193 180.81 275.831 179.59 275.915C173.08 276.364 152.106 277.801 148.116 277.95C143.379 278.126 142.314 291.389 146.311 291.619C149.576 291.806 174.562 295.105 183.605 296.307C185.637 296.578 187.658 295.792 188.979 294.224L220.079 257.298C220.789 256.454 222.097 257.195 221.723 258.233C216.834 271.796 202.103 310.396 183.239 338.716C182.297 340.4 195.265 342.649 198.319 339.798C201.372 336.947 252.31 255.167 250.677 253.638L213.173 229.44Z" fill="#DF6B60"/>
<path d="M259.561 173.939C248.477 167.14 234.379 169.714 231.373 181.062C228.441 192.131 218.392 214.46 207.722 233.383C207.354 234.035 207.803 234.851 208.549 234.916C223.093 236.175 241.013 245.991 249.953 256.581C250.41 257.123 251.273 257.065 251.628 256.452C261.211 239.919 273.415 218.442 274.611 202.884C275.838 186.921 270.644 180.738 259.561 173.939Z" fill="#2FE4E1"/>
<path d="M333.098 163.436C334.786 161.799 336.281 160.674 335.752 158.598C335.307 156.555 335.056 152.828 339.469 153.052C342.333 153.234 348.295 146.738 353.875 142.634C355.65 141.395 356.721 143.103 355.4 144.429C353.131 146.644 348.885 150.113 347.765 151.912C347.408 152.55 349.062 151.85 349.917 152.883C350.319 153.34 349.962 153.979 350.548 154.707C350.866 155.13 351.591 155.032 352.044 155.608C352.496 156.183 351.868 157.006 352.236 157.547C352.604 158.089 353.398 157.823 353.748 158.651C354.581 160.459 348.253 165.924 345.501 167.159C343.576 168.043 343.121 166.659 338.007 170.343C335.452 172.539 331.657 165.301 333.098 163.436Z" fill="#BAC6DE"/>
<path d="M268.693 201.83C252.316 200.837 257.428 186.102 267.595 186.428C277.646 186.751 293.728 184.581 330.08 161.095C330.827 160.613 331.826 160.665 332.483 161.265C336.202 164.661 337.861 167.326 339.351 171.822C339.63 172.665 339.274 173.597 338.528 174.08C300.522 198.697 284.89 202.813 268.693 201.83Z" fill="#2FE4E1"/>
<path d="M221.976 135.707C222.7 134.016 222.824 133.385 224.446 132.787C228.809 131.058 228.146 128.931 226.814 127.884C225.961 127.225 226.931 125.616 226.538 123.116C226.351 121.901 225.191 121.477 224.172 121.834C223.638 122.056 224.035 120.53 222.763 120.51C222.31 120.486 221.841 121.212 221.072 121.127C220.619 121.103 220.446 120.48 219.974 120.388C219.432 120.314 219.12 121.071 218.579 120.998C218.037 120.924 217.934 120.282 217.204 120.335C215.605 120.48 214.054 126.722 214.663 129.46C215.034 131.071 215.802 131.156 215.431 133.048C215.308 133.678 214.234 135.988 213.51 137.679C212.905 139.262 219.81 142.418 220.419 140.311C221.148 138.097 221.695 136.306 221.976 135.707Z" fill="#BAC6DE"/>
<path d="M206.36 163.162C206.597 159.518 211.569 137.686 213.073 134.677C214.577 131.667 224.592 134.476 223.884 137.617C223.175 140.758 218.6 161.209 218.787 162.053C228.486 165.844 240.389 168.732 249.449 170.241C258.508 171.751 253.484 184.946 242.727 183.286C231.97 181.627 214.117 174.567 209.922 171.161C205.727 167.755 206.122 166.805 206.36 163.162Z" fill="#2FE4E1"/>
<path d="M122.963 296.12C121.853 298.569 120.972 301.58 121.436 303.68C123.083 311.123 135.785 298.062 137.826 296.127C139.58 294.645 141.293 292.613 145.904 291.902C150.515 291.191 150.799 279.231 148.817 278.047C146.444 276.534 140.369 274.455 135.804 274.545C131.238 274.635 126.389 289.703 122.963 296.12Z" fill="#2FE4E1"/>
<path d="M137.232 285.481C134.204 288.317 132.632 295.263 130.964 298.386C129.435 301.374 124.051 307.599 121.76 304.846C119.468 302.093 124.938 290.204 128.032 284.366C131.092 278.595 133.255 273.839 137.068 274.423C140.882 275.007 140.26 282.645 137.232 285.481Z" fill="#5C6A88"/>
</g>
<defs>
<clipPath id="clip0">
<rect width="500" height="500" fill="white"/>
</clipPath>
</defs>
</svg>
