<svg width="500" height="500" viewBox="0 0 500 500" fill="none" xmlns="http://www.w3.org/2000/svg">
<path d="M180.287 437.983C225.814 453.997 317.34 449.812 349.53 437.983C394.942 421.294 442.098 374.142 420.271 340.676C398.445 307.21 323.309 333.982 267.561 333.982C210.697 333.982 189.569 332.891 139.029 321.616C91.7393 311.067 83.4562 403.923 180.287 437.983Z" fill="url(#paint0_radial)"/>
<path d="M188.008 448.879C206.161 443.267 223.202 440.995 236.103 435.834C237.25 415.765 240.949 384.189 220.019 353.226C189.032 320.415 138.64 339.275 141.249 382.327C143.629 421.613 178.641 451.979 188.008 448.879Z" fill="#FFBF9F"/>
<path d="M173.228 337.761C154.532 342.151 139.805 358.549 141.246 382.326C143.626 421.613 178.639 451.979 188.006 448.879C191.006 447.951 193.975 447.115 196.901 446.342C182.73 440.049 156.774 412.209 154.692 377.843C153.599 359.807 161.4 345.831 173.228 337.761Z" fill="white"/>
<path d="M324.008 74.5688L323.932 74.5997C333.713 91.6495 323.403 105.263 330.544 108.888C364.015 125.876 362.928 174.353 271.332 174.353C169.035 174.353 186.931 119.625 209.837 107.351C217.539 103.224 207.345 87.5314 215.892 74.2585C183.46 69.2941 206.229 38.4563 219.486 68.2833C239.311 42.0172 299.723 43.7786 319.85 68.7226C329.962 40.2061 358.304 66.8232 324.008 74.5688Z" fill="#42C4CE"/>
<path d="M270.63 69.6589C311.861 69.3644 329.198 80.8405 324.359 105.866C323.893 108.275 325.107 110.738 327.284 111.872C358.619 128.188 357.433 174.329 271.334 174.329C175.261 174.329 191.75 122.33 213.235 110.409C215.313 109.256 216.724 107.028 216.438 104.669C213.665 81.7441 219.264 70.0258 270.63 69.6589Z" fill="#2FE4E1"/>
<path d="M248.524 120.218C247.885 122.931 245.197 124.755 242.389 124.172C239.682 123.531 237.861 120.837 238.442 118.025C239.081 115.312 241.769 113.488 244.576 114.071C247.284 114.712 249.084 117.485 248.524 120.218Z" fill="#131F37"/>
<path d="M300.743 120.218C300.104 122.931 297.416 124.755 294.608 124.172C291.901 123.531 290.079 120.837 290.66 118.025C291.3 115.312 293.987 113.488 296.795 114.071C299.503 114.712 301.303 117.485 300.743 120.218Z" fill="#131F37"/>
<path d="M242.359 115.934C242.773 116.311 242.655 117.079 242.056 117.712C241.522 118.323 240.707 118.514 240.293 118.137C239.879 117.76 239.996 116.992 240.596 116.359C241.195 115.727 241.945 115.557 242.359 115.934Z" fill="#9EACC8"/>
<path d="M294.577 115.934C294.991 116.311 294.874 117.079 294.274 117.712C293.741 118.323 292.926 118.514 292.512 118.137C292.098 117.76 292.215 116.992 292.815 116.359C293.414 115.727 294.163 115.557 294.577 115.934Z" fill="#9EACC8"/>
<path d="M272.648 160.48C314.95 160.549 311.233 121.207 271.125 121.308C227.869 121.417 230.347 160.412 272.648 160.48Z" fill="#42C3CE"/>
<path d="M271.397 157.847C312.197 157.847 308.671 121.201 269.986 121.356C228.265 121.522 230.596 157.847 271.397 157.847Z" fill="url(#paint1_radial)"/>
<path d="M334.663 165.52C313.941 161.649 251.846 164.102 216.849 166.211C213.657 166.403 211.215 169.052 211.049 172.245C208.304 225.058 168.604 279.71 162.461 330.014C213.913 341.671 338.369 341.131 383.041 327.223C377.387 259.084 340.64 227.067 338.843 170.846C338.761 168.286 337.181 165.991 334.663 165.52Z" fill="url(#paint2_linear)"/>
<path d="M111.644 263.793C111.408 287.424 149.249 318.344 172.344 321.043C187.941 266.455 205.825 221.502 209.424 185.209C186.952 187.169 112.244 203.805 111.644 263.793Z" fill="#C9D4E8"/>
<path d="M339.895 183.726C368.789 187.021 421.816 206.472 433.211 243.01C449.445 295.069 390.983 325.274 344.938 301.875C361.755 238.994 347.666 245.042 339.895 183.726Z" fill="#C9D4E8"/>
<path d="M269.994 132.114C278.182 132.114 277.925 123.426 269.447 123.426C260.713 123.426 260.135 132.114 269.994 132.114Z" fill="#131F37"/>
<path d="M297.754 127.359C323.654 127.359 322.841 89.1675 296.025 89.1675C268.399 89.1675 266.57 127.359 297.754 127.359Z" stroke="#DA493B" stroke-width="3.63879"/>
<path d="M241.82 127.359C267.72 127.359 266.907 89.1675 240.092 89.1675C212.466 89.1675 210.637 127.359 241.82 127.359Z" stroke="#DA493B" stroke-width="3.63879"/>
<path d="M317.586 104.818L328.137 103.288" stroke="#DA493B" stroke-width="3.63879" stroke-linecap="round"/>
<path d="M210.035 102.009L218.952 103.269" stroke="#DA493B" stroke-width="3.63879" stroke-linecap="round"/>
<path d="M260.711 108.711C266.521 107.273 269.635 107.214 274.73 108.711" stroke="#DA493B" stroke-width="3.63879"/>
<path d="M372.498 323C402.083 316.303 444.815 340.656 411.905 375.597C378.995 410.538 328.215 426.605 296.928 436.356C264.233 446.547 242.077 388.008 263.611 371.349C286.608 353.559 344.138 329.42 372.498 323Z" fill="#485776"/>
<ellipse cx="322.203" cy="284.478" rx="20.2222" ry="7.91261" fill="#FFBF9F"/>
<ellipse cx="322.722" cy="277.291" rx="29.9972" ry="11.1668" fill="#FFBF9F"/>
<ellipse cx="322.719" cy="266.772" rx="36.8944" ry="12.4806" fill="#FFBF9F"/>
<ellipse cx="322.72" cy="257.357" rx="40.2883" ry="13.7943" fill="#FFBF9F"/>
<ellipse cx="322.72" cy="248.051" rx="42.5873" ry="15.765" fill="#FFBF9F"/>
<ellipse cx="322.719" cy="248.051" rx="38.7618" ry="15.765" fill="#FFE1D2"/>
<ellipse cx="322.72" cy="238.198" rx="40.2883" ry="13.7943" fill="#FFBF9F"/>
<ellipse cx="322.721" cy="238.198" rx="36.0786" ry="13.7943" fill="#FFE1D2"/>
<ellipse cx="322.717" cy="228.565" rx="36.8944" ry="12.4806" fill="#FFBF9F"/>
<ellipse cx="322.719" cy="230.277" rx="32.5748" ry="11.0194" fill="#FFE1D2"/>
<ellipse cx="322.722" cy="217.507" rx="29.9972" ry="11.1668" fill="#FFE1D2"/>
<ellipse cx="322.722" cy="217.508" rx="29.9972" ry="11.1668" fill="#FFBF9F"/>
<ellipse cx="322.722" cy="217.55" rx="24.7007" ry="11.4776" fill="#FFE1D2"/>
<ellipse cx="322.203" cy="209.594" rx="20.2222" ry="7.91261" fill="#FFBF9F"/>
<ellipse cx="322.201" cy="211.496" rx="16.3867" ry="6.41188" fill="#FFE1D2"/>
<path d="M290.168 144.507L317.154 152.475C318.7 152.932 319.762 154.353 319.762 155.965V206.274" stroke="#F6F8FC" stroke-width="4.85172" stroke-linecap="round"/>
<path d="M150.617 317.086C123.658 309.252 93.2183 337.647 112.299 366.115C131.38 394.583 160.714 412.39 173.918 413.492C206.728 416.229 224.02 368.815 204.469 350.415C184.275 331.409 177.576 324.921 150.617 317.086Z" fill="#485776"/>
<path d="M327.55 271.177C333.002 261.327 341.513 252.719 352.703 251.38C363.893 250.041 373.282 258.184 373.935 265.439C375.561 283.515 362.835 300.881 343.713 302.929C324.591 304.978 318.1 300.788 309.762 295.756C304.215 292.409 310.335 284.184 317.317 286.766C324.299 289.349 330.611 290.305 337.21 288.01C350.755 283.298 352.537 275.004 351.077 272.038C349.265 268.356 342.565 269.456 336.253 276.82C331.932 281.861 324.467 276.748 327.55 271.177Z" fill="#42C3CE"/>
<path d="M313.389 51.3307C320.57 51.0911 321.14 65.2161 314.445 65.6697C280.868 67.9448 259.442 68.0944 224.397 65.7655C217.073 65.2789 217.853 51.3121 225.694 51.5363C234.798 35.5894 251.516 27.3928 268.39 27.3928C285.265 27.3929 300.569 33.7872 313.389 51.3307Z" fill="#F6F8FC"/>
<path d="M234.074 51.1864C259.872 52.879 278.959 52.1038 304.939 50.8716C306.7 50.7881 307.716 48.9571 306.597 47.5942C288.396 25.4287 250.197 25.0865 232.408 47.8018C231.318 49.1932 232.311 51.0707 234.074 51.1864Z" fill="white"/>
<path d="M312.874 64.6444C280.465 66.2575 259.785 66.3636 225.959 64.7124C219.975 64.4203 219.735 54.4643 226.131 54.6007C259.431 55.3109 280.021 55.261 312.092 54.4721C318.287 54.3197 319.088 64.3352 312.874 64.6444Z" fill="white"/>
<path d="M318.664 207.049C319.48 207.076 319.918 207.102 320.674 207.01" stroke="#DA493B" stroke-width="3.63879" stroke-linecap="round"/>
<path d="M318.664 201.3C319.491 201.255 319.954 201.253 320.78 201.307" stroke="#DA493B" stroke-width="3.63879" stroke-linecap="round"/>
<path d="M318.664 172.412C319.491 172.367 319.954 172.365 320.78 172.419" stroke="#DA493B" stroke-width="3.63879" stroke-linecap="round"/>
<path d="M318.664 195.524C319.471 195.52 319.924 195.537 320.731 195.564" stroke="#DA493B" stroke-width="3.63879" stroke-linecap="round"/>
<path d="M318.664 166.637C319.471 166.633 319.924 166.65 320.731 166.676" stroke="#DA493B" stroke-width="3.63879" stroke-linecap="round"/>
<path d="M318.664 189.782C319.48 189.744 319.918 189.718 320.674 189.821" stroke="#DA493B" stroke-width="3.63879" stroke-linecap="round"/>
<path d="M318.664 160.894C319.48 160.856 319.918 160.83 320.674 160.933" stroke="#DA493B" stroke-width="3.63879" stroke-linecap="round"/>
<path d="M318.664 184.006C319.449 183.987 319.889 183.977 320.674 184.046" stroke="#DA493B" stroke-width="3.63879" stroke-linecap="round"/>
<path d="M318.755 155.546C319.457 155.195 319.851 154.999 320.591 154.728" stroke="#DA493B" stroke-width="3.63879" stroke-linecap="round"/>
<path d="M318.664 178.25C319.48 178.212 319.918 178.186 320.674 178.289" stroke="#DA493B" stroke-width="3.63879" stroke-linecap="round"/>
<path d="M314.238 152.861C314.472 152.079 314.593 151.657 314.94 150.978" stroke="#DA493B" stroke-width="3.63879" stroke-linecap="round"/>
<path d="M308.361 151.02C308.595 150.238 308.716 149.815 309.063 149.137" stroke="#DA493B" stroke-width="3.63879" stroke-linecap="round"/>
<path d="M302.484 149.179C302.718 148.397 302.839 147.975 303.186 147.296" stroke="#DA493B" stroke-width="3.63879" stroke-linecap="round"/>
<path d="M296.607 147.339C296.841 146.556 296.963 146.134 297.309 145.455" stroke="#DA493B" stroke-width="3.63879" stroke-linecap="round"/>
<path d="M290.73 145.498C290.965 144.715 291.086 144.293 291.432 143.614" stroke="#DA493B" stroke-width="3.63879" stroke-linecap="round"/>
<path d="M304.103 198.104C309.063 198.104 308.907 190.791 303.772 190.791C298.482 190.791 298.132 198.104 304.103 198.104Z" fill="#9EACC8"/>
<path d="M365.482 209.173C370.442 209.173 370.286 201.859 365.151 201.859C359.861 201.859 359.511 209.173 365.482 209.173Z" fill="#9EACC8"/>
<path d="M363.973 169.259C368.932 169.259 368.777 161.946 363.642 161.946C358.351 161.946 358.001 169.259 363.973 169.259Z" fill="#9EACC8"/>
<path d="M213.678 338.318C198.457 332.067 168.437 410.103 177.671 414.798C186.906 419.492 245.876 443.267 264.028 448.879C283.849 455.439 310.187 381.361 299.579 376.487C285.531 368.173 228.899 344.569 213.678 338.318Z" fill="#FFE1D2"/>
<path d="M228.048 397.56L191.494 381.934C195.049 370.237 204.157 355.749 208.266 349.967C214.908 352.882 230.055 359.6 237.51 363.156C233.381 370.266 229.482 389.054 228.048 397.56Z" fill="url(#paint3_linear)"/>
<path d="M208.41 389.819C211.277 381.314 218.875 361.923 226.329 352.405" stroke="#F6F8FC" stroke-width="3.63879" stroke-linecap="round"/>
<path d="M217.777 394.143C220.644 385.638 228.242 366.247 235.696 356.729" stroke="#F6F8FC" stroke-width="3.63879" stroke-linecap="round"/>
<path d="M198.379 386.092C201.246 377.586 208.843 358.196 216.298 348.677" stroke="#F6F8FC" stroke-width="3.63879" stroke-linecap="round"/>
<path d="M263.619 252.306C273.433 244.93 306.056 231.01 348.569 228.327L347.19 341.694C314.605 348.18 296.303 353.704 263.619 366.177V252.306Z" fill="white"/>
<path fill-rule="evenodd" clip-rule="evenodd" d="M345.812 231.962C314.811 235.218 295.491 239.886 263.612 252.306C231.385 244.118 212.009 240.8 179.933 238.188C176.417 237.902 173.416 240.688 173.416 244.216V350.264C173.416 353.446 175.883 356.084 179.055 356.332C210.974 358.822 230.431 362.314 263.612 370.537C298.857 358.155 318.415 353.264 347.193 350.091C350.916 349.681 353.766 346.553 353.766 342.807V239.162C353.766 234.878 350.073 231.515 345.812 231.962Z" fill="#DF6B60"/>
<path d="M263.619 252.306C257.033 243.924 222.744 222.302 186.904 219.619L188.066 344.559L263.619 370.537V252.306Z" fill="url(#paint4_linear)"/>
<path d="M263.619 252.306C254.602 245.53 217.029 229.193 180.699 224.47L181.955 349.41L263.619 370.537V252.306Z" fill="white"/>
<path d="M263.611 252.306C231.385 244.118 212.008 240.799 179.932 238.188C176.416 237.902 173.415 240.687 173.415 244.215V350.264C173.415 353.445 175.882 356.084 179.055 356.331C210.974 358.822 230.43 362.314 263.611 370.537V252.306Z" fill="url(#paint5_linear)"/>
<path d="M264.029 448.879C245.876 443.267 239.946 440.995 227.044 435.834C225.897 415.765 224.177 378.781 245.106 347.817C247.543 345.237 250.41 341.796 257.004 339.933C266.464 337.259 288.771 339.363 296.426 346.813C307.177 357.278 313.198 383.368 302.303 401.573C282.929 433.948 273.396 451.979 264.029 448.879Z" fill="#FFE1D2"/>
<path d="M266.18 450.026C259.43 447.932 253.995 446.012 248.978 444.005C243.96 441.998 258.804 376.544 270.48 358.425C282.157 340.306 290.733 343.517 295.997 345.237C310.475 349.967 314.359 370.412 306.659 386.696C291.69 418.35 275.547 453.126 266.18 450.026Z" fill="white"/>
<path d="M266.182 450.026C264.246 449.453 263.171 449.166 260.018 448.163C256.864 447.159 269.7 385.432 281.377 367.313C293.053 349.194 298.866 350.828 304.026 352.835C313.469 356.507 312.737 376.314 307.077 395.351C301.417 414.389 275.549 453.126 266.182 450.026Z" fill="url(#paint6_linear)"/>
<path d="M136.035 440.541C136.035 438.746 137.49 437.291 139.285 437.291H379.798C395.237 437.291 396.862 494.578 379.798 494.578H139.286C137.49 494.578 136.035 493.123 136.035 491.328C136.035 489.533 137.49 488.077 139.286 488.077H307.895C315.352 488.077 314.544 443.792 307.895 443.792H139.285C137.49 443.792 136.035 442.336 136.035 440.541Z" fill="#24CFDD"/>
<path d="M308.272 443.792H145.602V488.078H308.272C315.194 488.078 314.443 443.792 308.272 443.792Z" fill="url(#paint7_linear)"/>
<path d="M173.316 319.731C173.412 326.823 151.655 304.248 150.121 282.971C148.588 261.693 161.455 253.308 168.715 252.108C175.975 250.908 174.102 250.521 173.699 275.686C173.468 290.19 173.159 308.133 173.316 319.731Z" fill="#42C3CE"/>
<path d="M171.876 259.712C168.422 261.914 158.516 258.828 163.587 254.71C168.658 250.593 176.387 249.904 181.517 249.36C187.93 248.68 184.398 252.983 181.754 253.938C177.707 255.4 175.33 257.51 171.876 259.712Z" fill="#42C3CE"/>
<path d="M171.346 269.449C167.406 270.567 158.801 264.769 164.841 262.279C170.88 259.79 178.482 261.348 183.552 262.299C189.891 263.488 185.273 266.596 182.466 266.753C178.169 266.992 175.286 268.331 171.346 269.449Z" fill="#42C3CE"/>
<path d="M172.07 280.17C168.04 280.902 160.038 274.297 166.291 272.404C172.543 270.512 179.958 272.799 184.912 274.237C191.105 276.034 186.208 278.681 183.399 278.564C179.1 278.386 176.101 279.439 172.07 280.17Z" fill="#42C3CE"/>
<path d="M169.35 291.802C165.32 292.533 161.615 285.247 167.868 283.355C174.12 281.462 179.715 283.514 185.488 285.483C191.591 287.565 186.784 289.927 183.975 289.811C179.675 289.633 173.38 291.071 169.35 291.802Z" fill="#42C3CE"/>
<path d="M496.415 28.033L443.19 13C436.012 35.9629 425.205 47.1016 395.248 58.9112C408.249 63.5158 434.372 73.6171 452.128 78.6165C473.052 84.5077 490.591 46.7224 496.415 28.033Z" fill="#D4DBEB"/>
<path d="M441.973 49.5662L385.701 31.283C383.468 39.8152 381.539 53.8322 395.251 58.9109C408.963 63.9895 434.457 72.928 452.131 78.6162C440.145 74.5531 438.723 57.692 441.973 49.5662Z" fill="#9EACC8"/>
<path d="M61.9062 123.234C76.9338 104.138 92.6475 87.4574 113.921 76.3369L151.77 165.723C132.778 178.597 117.306 190.443 99.7541 212.62L61.9062 123.234Z" fill="url(#paint8_linear)"/>
<path d="M61.9059 123.233C44.3882 108.794 33.2488 102.944 11.7676 95.2544L49.6157 184.64C66.8736 191.696 78.0838 198.208 99.7537 212.62L61.9059 123.233Z" fill="#F6F8FC"/>
<path d="M61.9062 123.234C76.9338 104.138 108.361 85.2815 126.734 78.2707L164.582 167.657C136.539 179.744 117.306 188.025 99.7541 212.62L61.9062 123.234Z" fill="#F6F8FC"/>
<path d="M61.9062 123.234L136.312 85.067C138.194 84.1018 140.499 84.9384 141.324 86.8859L176.326 169.552C177.07 171.307 176.332 173.339 174.636 174.209L99.7543 212.62L61.9062 123.234Z" fill="#FFE1D2"/>
<path d="M61.9072 123.234L12.709 106.36C9.73213 105.339 6.95061 108.323 8.17771 111.221L42.2146 191.606C42.6177 192.558 43.4069 193.294 44.3849 193.629L99.7552 212.62L61.9072 123.234Z" fill="url(#paint9_linear)"/>
<defs>
<radialGradient id="paint0_radial" cx="0" cy="0" r="1" gradientUnits="userSpaceOnUse" gradientTransform="translate(237.376 417.222) rotate(-34.7854) scale(138.317 122.076)">
<stop stop-color="#223252"/>
<stop offset="1" stop-color="#485776"/>
</radialGradient>
<radialGradient id="paint1_radial" cx="0" cy="0" r="1" gradientUnits="userSpaceOnUse" gradientTransform="translate(270.96 128.939) rotate(90) scale(28.8298 47.7526)">
<stop stop-color="#F6F8FC"/>
<stop offset="1" stop-color="#D8E1F4"/>
</radialGradient>
<linearGradient id="paint2_linear" x1="271.345" y1="198.558" x2="272.751" y2="338.246" gradientUnits="userSpaceOnUse">
<stop stop-color="#C9D4E8"/>
<stop offset="1" stop-color="#B0BFD9"/>
</linearGradient>
<linearGradient id="paint3_linear" x1="233.644" y1="378.717" x2="200.477" y2="365.022" gradientUnits="userSpaceOnUse">
<stop stop-color="#FFBF9F"/>
<stop offset="1" stop-color="#FFBF9F" stop-opacity="0"/>
</linearGradient>
<linearGradient id="paint4_linear" x1="225.261" y1="219.619" x2="230.513" y2="288.588" gradientUnits="userSpaceOnUse">
<stop stop-color="white"/>
<stop offset="1" stop-color="#E8EEFB"/>
</linearGradient>
<linearGradient id="paint5_linear" x1="218.513" y1="237.679" x2="218.513" y2="370.537" gradientUnits="userSpaceOnUse">
<stop stop-color="#DF6B60"/>
<stop offset="1" stop-color="#DB4F42"/>
</linearGradient>
<linearGradient id="paint6_linear" x1="285.391" y1="351.652" x2="285.391" y2="450.202" gradientUnits="userSpaceOnUse">
<stop stop-color="#AEBAD4"/>
<stop offset="1" stop-color="white"/>
</linearGradient>
<linearGradient id="paint7_linear" x1="229.394" y1="443.792" x2="229.394" y2="488.078" gradientUnits="userSpaceOnUse">
<stop stop-color="#F2F5FB"/>
<stop offset="1" stop-color="white"/>
</linearGradient>
<linearGradient id="paint8_linear" x1="106.838" y1="76.3369" x2="106.838" y2="212.62" gradientUnits="userSpaceOnUse">
<stop stop-color="#F6F8FC"/>
<stop offset="1" stop-color="#CED7E9"/>
</linearGradient>
<linearGradient id="paint9_linear" x1="58.6815" y1="126.175" x2="58.6815" y2="210.58" gradientUnits="userSpaceOnUse">
<stop stop-color="#FFE1D2"/>
<stop offset="1" stop-color="#FFCBB1"/>
</linearGradient>
</defs>
</svg>
