<svg width="24" height="24" viewBox="0 0 24 24" fill="none" xmlns="http://www.w3.org/2000/svg">
<path d="M18.2349 23.9897C18.2349 23.8591 18.2349 23.7447 18.2349 23.6302C18.2349 21.0363 18.2467 18.4425 18.2267 15.8486C18.2216 15.1933 18.1664 14.5284 18.0447 13.886C17.8065 12.6246 17.1006 12.0325 15.8697 11.9747C15.0753 11.9372 14.3351 12.0993 13.7621 12.7246C13.2765 13.2548 13.0648 13.925 12.9928 14.6375C12.9381 15.1767 12.9115 15.7218 12.9094 16.2643C12.9007 18.7335 12.9059 21.2022 12.9059 23.6714C12.9059 23.7757 12.9059 23.88 12.9059 23.9998C11.3115 23.9998 9.7483 23.9998 8.16211 23.9998C8.16211 18.6629 8.16211 13.3318 8.16211 7.98413C9.67469 7.98413 11.177 7.98413 12.7177 7.98413C12.7177 8.70307 12.7177 9.40703 12.7177 10.111C12.7361 10.1158 12.7551 10.1201 12.7735 10.1249C12.8128 10.0736 12.8568 10.0254 12.89 9.97031C13.7125 8.60357 14.9271 7.875 16.4243 7.64392C17.5003 7.47755 18.5661 7.57652 19.6069 7.91726C21.1036 8.40672 22.0166 9.49476 22.4986 11.0198C22.8503 12.1319 22.9761 13.2847 22.9838 14.446C23.0042 17.5743 22.9976 20.7031 23.0011 23.8319C23.0011 23.8757 22.995 23.9196 22.9894 23.9897C21.4149 23.9897 19.8466 23.9897 18.2349 23.9897Z" fill="white"/>
<path d="M0.40332 7.98633C1.99053 7.98633 3.55474 7.98633 5.13275 7.98633C5.13275 13.3302 5.13275 18.6554 5.13275 23.9983C3.55372 23.9983 1.99002 23.9983 0.40332 23.9983C0.40332 18.6672 0.40332 13.3351 0.40332 7.98633Z" fill="white"/>
<path d="M5.51563 2.88114C5.5187 4.48378 4.2888 5.77295 2.75782 5.77241C1.22991 5.77241 -0.0040793 4.47682 1.0135e-05 2.87793C0.00409957 1.28759 1.22735 0.00644307 2.7476 2.3957e-05C4.27858 -0.00639516 5.51308 1.27796 5.51563 2.88114Z" fill="white"/>
</svg>
