<svg width="500" height="500" viewBox="0 0 500 500" fill="none" xmlns="http://www.w3.org/2000/svg">
<path opacity="0.15" fill-rule="evenodd" clip-rule="evenodd" d="M262.378 207.531C382.292 226.378 474.09 212.42 467.413 176.355C460.737 140.29 358.115 95.775 238.2 76.9279C118.286 58.0809 26.4882 72.0388 33.1645 108.104C39.8409 144.169 142.463 188.684 262.378 207.531ZM256.187 170.726C362.346 187.411 444.847 181.717 440.458 158.007C436.068 134.297 346.452 101.551 240.293 84.866C134.134 68.1809 51.6333 73.8754 56.0224 97.585C60.4115 121.295 150.028 154.041 256.187 170.726Z" fill="#14CABF"/>
<path d="M122.37 267.329C116.867 258.982 110.491 246.947 106.868 239.536C102.741 225.41 132.965 213.852 138.698 224.263L146.303 240.93C147.692 244.28 151.684 245.679 154.86 243.929L211.201 212.884C234.251 200.183 271.823 209.449 287.612 230.501L320.853 274.822C324.71 279.966 331.356 282.173 337.524 280.359L368.66 271.345C375.845 269.295 380.637 276.884 383.537 285.583C386.215 293.618 383.51 300.832 379.318 303.028C365.853 308.763 353.13 312.269 338.66 313.82C327.729 314.992 316.056 310.691 309.643 302.196C303.229 293.701 271.886 255.381 269.79 252.68C267.694 249.979 263.477 302.307 261.548 329.137C258.71 368.609 175.548 337.856 182.695 314.033C186.742 300.544 214.361 241.748 209.466 244.789C194.385 255.486 178.748 264.99 154.664 275.707C141.803 281.429 127.874 275.676 122.37 267.329Z" fill="#485776"/>
<path d="M137.779 231.326L144.335 244.338C145.724 247.688 149.717 249.087 152.893 247.337L209.234 216.292C232.283 203.591 269.856 212.857 285.645 233.909L318.886 278.23C322.743 283.373 329.389 285.58 335.557 283.766L365.427 274.981C365.427 274.981 368.7 271.409 369.643 271.105L337.523 280.359C331.355 282.173 324.709 279.966 320.852 274.822L287.611 230.501C271.822 209.449 234.25 200.183 211.2 212.884L154.859 243.929C151.683 245.679 147.69 244.28 146.301 240.93L138.88 224.55C139.855 227.244 138.88 229.457 137.779 231.326Z" fill="#677593"/>
<path d="M118.057 223.117C138.655 213.593 149.704 229.354 125.763 240.178C102.612 250.645 100.207 231.37 118.057 223.117Z" fill="url(#paint0_linear)"/>
<path d="M383.536 283.88C389.065 304.767 371.204 313.081 365.084 288.819C359.165 265.359 378.914 266.416 383.536 283.88Z" fill="url(#paint1_linear)"/>
<path d="M106.665 219.544C107.691 220.383 109.624 223.517 114.288 234.127C117.786 238.558 133.759 231.096 131.077 225.499C128.481 220.081 125.28 214.911 122.33 209.682C119.264 204.258 116.345 199.094 115.293 197.041L115.275 197.006C112.945 192.462 109.789 186.31 100.718 184.333C91.6241 182.35 86.6106 180.252 82.8795 175.122C78.4808 169.074 74.3349 174.106 76.2336 179.202C78.4489 185.149 87.1961 188.763 91.1214 190.162C79.7299 191.529 68.0868 192.235 56.6165 192.235C51.0878 192.235 51.111 198.573 56.8139 198.998C62.2061 199.4 74.2673 198.872 82.1829 198.382C82.7592 198.346 83.2642 198.741 83.3745 199.308C83.5047 199.977 83.0415 200.63 82.3621 200.685C74.7455 201.304 58.2167 202.251 52.8156 202.14C47.2881 202.025 47.1803 208.362 52.8731 208.905C59.7212 209.558 78.5132 208.29 85.0085 207.736C85.4428 207.699 85.8396 207.955 85.9918 208.364C86.2039 208.933 85.8563 209.561 85.2558 209.653C77.8149 210.786 63.8955 211.783 58.443 211.783C52.9143 211.783 52.9376 218.121 58.6405 218.546C65.7174 219.073 81.0144 217.957 88.8463 216.8C89.3102 216.731 89.7647 216.965 89.9766 217.383C90.2903 218.002 89.9538 218.757 89.2759 218.905C82.5061 220.385 72.5092 221.088 67.4087 221.186C62.2939 221.284 62.4276 227.147 67.7111 227.439C81.6569 228.211 94.0262 224.834 106.665 219.544Z" fill="#FFAD00"/>
<path opacity="0.57" d="M75.6836 191.599C80.8562 191.255 86.0164 190.775 91.126 190.162C87.2007 188.763 78.4535 185.149 76.2382 179.202C74.3395 174.106 78.4854 169.074 82.8841 175.122C86.6152 180.252 91.6287 182.35 100.723 184.333C109.794 186.31 112.949 192.462 115.279 197.006L115.297 197.041C115.429 197.299 115.591 197.605 115.778 197.955C112.433 198.701 108.666 199.11 104.587 199.11C93.5883 199.11 82.9181 196.133 75.6836 191.599Z" fill="#E87931"/>
<path fill-rule="evenodd" clip-rule="evenodd" d="M397.14 286.436C395.814 286.417 388.78 289.303 378.377 294.414C372.848 295.549 365.438 279.551 371.095 276.998C373.445 275.937 382.566 272.414 390.868 269.208L390.868 269.208L390.868 269.207L390.868 269.207L390.869 269.207L390.869 269.207C397.173 266.772 403.004 264.52 405.038 263.667L405.074 263.652C409.784 261.678 416.161 259.005 424.372 263.337C432.605 267.68 437.791 269.304 443.95 267.785C451.211 265.993 451.14 272.512 446.404 275.187C440.879 278.308 431.86 275.437 427.957 273.978C428.367 274.417 428.763 274.846 429.143 275.26C429.251 275.347 429.357 275.448 429.458 275.566C431.853 278.347 448.013 293.584 453.01 297.793C457.239 301.355 453.138 306.187 448.502 302.839C443.928 299.534 434.452 290.776 428.765 285.324C428.189 285.811 427.589 286.291 426.968 286.764C431.821 291.648 445.08 304.218 449.536 307.817C453.837 311.291 449.837 316.207 445.134 312.954C439.245 308.883 424.805 294.888 420.792 290.839C420.243 291.156 419.686 291.469 419.12 291.777C423.738 297.246 434.622 307.863 439.019 311.567C443.248 315.129 439.147 319.961 434.511 316.612C428.562 312.314 417.021 301.007 412.016 295.225C411.362 295.509 410.701 295.788 410.036 296.06C414.087 301.686 422.007 309.395 426.104 312.983C429.953 316.353 426.073 320.751 421.844 317.57C415.95 313.138 406.596 303.842 403.349 297.979C403.293 297.878 403.24 297.778 403.189 297.678C402.02 295.591 399.269 290.584 397.14 286.436Z" fill="#FFAD00"/>
<path d="M226.375 314.646C280.275 326.453 264.48 350.263 219.352 340.66C162.794 328.624 172.274 302.795 226.375 314.646Z" fill="#313D56"/>
<path d="M224.977 317.746C269.068 326.438 256.148 343.964 219.233 336.895C172.968 328.035 180.723 309.023 224.977 317.746Z" fill="#FFAD00"/>
<path d="M257.082 422.212C341.263 411.952 391.972 368.552 368.653 340.336C345.334 312.121 261.069 339.811 220.578 331.242C176.506 321.914 101.42 260.643 66.4408 286.236C39.373 306.042 95.9162 372.05 134.703 405.785C140.415 411.277 171.828 380.59 165.89 375.975C140.784 354.677 98.3672 312.824 111.446 310.488C130.814 307.03 173.707 342.668 217.08 349.431C248.86 354.386 324.298 346.644 335.54 356.426C348.973 368.115 281.535 381.183 248.888 385.147C239.201 386.142 247.625 422.71 257.082 422.212Z" fill="#DF6B60"/>
<path d="M373.963 351.631C367.396 377.768 320.785 406.95 254.064 415.082C252.75 415.309 251.506 415.174 250.342 414.746C251.357 418.326 252.889 422.174 256.852 422.212C330.432 413.244 378.353 379.006 373.963 351.631Z" fill="#DB4F42"/>
<path d="M142.536 401.564C110.543 373.739 62.5615 322.015 61.0263 292.963C50.1853 318.409 99.3648 375.199 134.536 405.788C136.303 407.488 140.524 405.723 145.334 402.339C144.16 402.434 143.198 402.202 142.536 401.564Z" fill="#DB4F42"/>
<path d="M109.238 312.149C108.641 309.774 109.046 308.009 110.706 307.041C119.799 301.737 137.088 310.311 157.776 320.57C176.212 329.713 197.346 340.193 217.783 343.384C232.864 345.739 254.402 345.654 274.944 345.574C302.133 345.467 327.575 345.367 333.979 350.94C336.815 353.408 337.874 355.896 337.027 358.376C336.771 357.723 336.281 357.072 335.539 356.426C329.025 350.758 300.958 350.974 272.319 351.193C251.533 351.353 230.445 351.515 217.08 349.431C194.684 345.939 172.417 334.749 153.45 325.217C135.683 316.289 120.813 308.816 111.445 310.488C110.235 310.704 109.52 311.275 109.238 312.149Z" fill="#DB4F42"/>
<path d="M145.112 384.212C165.859 365.843 177.103 376.286 152.987 397.398C129.667 417.813 127.132 400.131 145.112 384.212Z" fill="#CA493D"/>
<path d="M260.565 401.269C254.277 377.807 239.087 379.978 246.535 407.075C253.737 433.278 266.014 421.602 260.565 401.269Z" fill="#CA493D"/>
<path d="M301.602 49.3841C304.263 43.404 306.217 36.7053 307.441 30.7908C307.828 28.9213 310.513 28.6546 311.083 30.4768C318.165 53.1453 319.82 83.0429 302.786 109.137C302.638 109.363 302.438 109.558 302.203 109.692C292.665 115.119 279.279 108.869 278.135 98.3806C276.017 80.1468 252.376 52.4256 215.845 35.161C214.221 34.3937 214.509 32.0253 216.293 31.8162C233.61 29.7854 246.883 34.4297 255.264 37.2968C256.784 37.8167 258.03 36.2944 257.123 34.9689C249.26 23.4821 233.823 14.4523 225.226 9.42386L225.042 9.31611C223.541 8.43833 224.065 6.47215 225.8 6.58128C245.741 7.83546 283.644 21.6343 298.295 49.3862C299.011 50.7417 300.979 50.7846 301.602 49.3841Z" fill="#32E4E1"/>
<path d="M301.693 67.4673C303.985 63.0549 306.141 58.7347 307.526 54.6193C307.827 53.7262 309.573 53.8122 309.644 54.7519C310.461 65.555 309.531 82.4634 298.018 104.768C295.459 109.546 286.81 112.095 285.825 103.061C283.991 87.2756 276.755 65.0002 249.114 45.9961C248.433 45.5275 248.784 44.5492 249.595 44.7098C255.932 45.9641 265.486 49.7905 273.885 55.5789C275.303 56.5563 277.184 55.3339 276.616 53.7077C273.331 44.3009 266.593 34.3586 260.734 26.9893C260.181 26.2933 260.984 25.3343 261.752 25.7834C279.417 36.1237 290.062 48.1676 298.32 67.3151C298.939 68.7509 300.972 68.8549 301.693 67.4673Z" fill="#42C3CE"/>
<path d="M240.125 211.352C241.264 206.971 243.892 198.191 243.892 198.191L267.728 204.766C267.728 204.766 264.82 215.41 263.961 218.75C263.103 222.09 238.986 215.733 240.125 211.352Z" fill="#313D56"/>
<path d="M318.228 169.125C311.308 199.768 280.419 216.798 254.117 207.757C223.63 197.277 211.031 175.109 217.952 144.467C224.872 113.825 254.87 92.0185 282.678 98.2988C313.297 105.214 325.149 138.483 318.228 169.125Z" fill="#FFE5A0"/>
<path d="M316.282 172.367C309.621 201.86 279.019 216.432 254.236 207.85C225.51 197.903 211.091 178.15 217.752 148.657C224.413 119.165 255.437 96.5623 281.653 102.483C310.519 109.002 322.943 142.874 316.282 172.367Z" fill="url(#paint2_radial)"/>
<path opacity="0.5" d="M257.109 188.702C253.331 187.43 254.924 181.748 258.713 182.604C262.559 183.473 261.014 190.016 257.109 188.702Z" fill="#FFD875"/>
<path opacity="0.5" d="M289.052 191.25C285.275 189.978 286.867 184.296 290.656 185.152C294.503 186.021 292.957 192.564 289.052 191.25Z" fill="#FFD875"/>
<path opacity="0.5" d="M259.636 169.531C255.859 168.259 257.451 162.577 261.24 163.433C265.087 164.302 263.541 170.845 259.636 169.531Z" fill="#FFD875"/>
<path opacity="0.5" d="M228.105 171.949C224.327 170.677 225.92 164.996 229.709 165.852C233.555 166.72 232.01 173.264 228.105 171.949Z" fill="#FFD875"/>
<path opacity="0.5" d="M236.882 189.603C233.105 188.331 234.697 182.65 238.487 183.505C242.333 184.374 240.787 190.918 236.882 189.603Z" fill="#FFD875"/>
<path opacity="0.5" d="M271.575 203.416C267.798 202.144 269.391 196.463 273.18 197.319C277.026 198.187 275.48 204.731 271.575 203.416Z" fill="#FFD875"/>
<path opacity="0.5" d="M277.999 121.18C274.222 119.908 275.814 114.226 279.604 115.082C283.45 115.951 281.904 122.494 277.999 121.18Z" fill="#FFD875"/>
<path opacity="0.5" d="M297.597 120.859C293.819 119.587 295.412 113.905 299.201 114.761C303.047 115.63 301.502 122.173 297.597 120.859Z" fill="#FFD875"/>
<path opacity="0.5" d="M264.187 111.543C260.409 110.271 262.002 104.59 265.791 105.445C269.637 106.314 268.092 112.857 264.187 111.543Z" fill="#FFD875"/>
<path d="M200.662 405.857C192.267 398.861 171.247 383.833 165.27 378.584C159.293 373.334 132.742 397.793 136.821 403.068C146.512 415.601 145.025 420.086 137.33 439.674C132.707 451.443 131.858 464.219 146.349 467.035C162.747 470.222 208.662 412.524 200.662 405.857Z" fill="url(#paint3_linear)"/>
<path d="M190.691 398.085C194.529 400.974 198.073 403.698 200.663 405.856C208.663 412.523 162.749 470.221 146.351 467.035C134.216 464.676 132.838 455.334 135.425 445.448C141.721 435.621 151.786 426.935 160.977 421.793C165.884 419.048 170.794 414.374 175.556 409.84C180.855 404.796 185.97 399.927 190.691 398.085Z" fill="white"/>
<path d="M202.156 408.427C202.103 404.79 195.401 402.961 188.615 406.916C181.828 410.871 172.868 423.74 165.184 428.157C152.362 435.528 120.499 462.011 146.35 467.035C162.748 470.222 202.351 421.592 202.156 408.427Z" fill="url(#paint4_linear)"/>
<path fill-rule="evenodd" clip-rule="evenodd" d="M307.409 191.299C311.538 185.96 314.651 179.583 316.297 172.293C319.664 157.386 318.142 141.357 312.077 128.315L249.344 107.889C234.292 115.992 221.722 131.071 217.767 148.585C216.625 153.641 216.104 158.41 216.17 162.893C217.007 163.391 217.901 163.822 218.845 164.175L241.387 172.589C247.966 175.045 255.379 173.051 259.838 167.625L260.061 167.354C262.184 164.77 266.377 166.188 266.534 169.529C266.867 176.614 271.708 182.72 278.541 184.626L300.809 190.837C303.02 191.454 305.259 191.588 307.409 191.299Z" fill="#E87931"/>
<path d="M320.833 131.166L239.004 104.522C230.37 101.711 221.092 106.431 218.281 115.064L209.175 143.032C206.364 151.666 211.084 160.943 219.717 163.754L241.766 170.934C248.038 172.976 254.924 171.072 259.255 166.097L261.043 164.044C263.159 161.613 267.158 162.915 267.438 166.126L267.674 168.838C268.246 175.41 272.69 181.002 278.962 183.045L300.368 190.014C308.745 192.742 317.783 188.381 320.861 180.126L331.147 152.542C334.415 143.78 329.725 134.061 320.833 131.166Z" fill="url(#paint5_linear)"/>
<path d="M227.526 120.474C228.775 116.637 232.899 114.539 236.736 115.789L255.563 121.919C259.4 123.168 261.498 127.292 260.249 131.129L252.592 154.644C251.343 158.481 247.219 160.579 243.382 159.33L224.555 153.199C220.718 151.95 218.62 147.827 219.869 143.989L227.526 120.474Z" fill="#2FE4E1"/>
<path d="M286.727 139.751C287.976 135.913 292.1 133.816 295.937 135.065L314.764 141.195C318.602 142.445 320.699 146.568 319.45 150.405L311.793 173.921C310.544 177.758 306.42 179.855 302.583 178.606L283.756 172.476C279.919 171.226 277.821 167.103 279.07 163.266L286.727 139.751Z" fill="#DB4F42"/>
<path d="M199.358 390.705C203.994 389.303 240.399 387.906 248.328 387.207C256.256 386.507 262.402 417.758 256.023 419.853C240.399 424.983 237.368 440.607 229.439 472.554C226.171 485.724 216.129 500.433 202.623 494.007C173.707 480.249 189.331 393.736 199.358 390.705Z" fill="white"/>
<path d="M215.762 493.758C189.839 480.195 200.513 404.911 210.164 389.487C217.018 388.98 225.881 388.503 233.493 388.094C240.081 387.74 245.731 387.436 248.328 387.207C256.256 386.507 262.402 417.758 256.023 419.853C241.246 424.705 237.734 438.944 230.689 467.501C230.285 469.138 229.869 470.822 229.439 472.554C227.353 480.96 222.507 489.994 215.762 493.758Z" fill="url(#paint6_linear)"/>
<path d="M224.364 425.342C231.229 430.508 234.335 433.986 238.931 440.694" stroke="#F6F8FC" stroke-width="3.63879" stroke-linecap="round"/>
<path d="M230.63 414.488C235.151 417.808 240.771 424.167 244.024 429.638" stroke="#F6F8FC" stroke-width="3.63879" stroke-linecap="round"/>
<path d="M154.7 404.777C149.363 407.33 146.801 409.157 142.807 412.779" stroke="#F6F8FC" stroke-width="3" stroke-linecap="round"/>
<path d="M149.66 397.724C146.366 399.311 142.005 402.715 139.265 405.832" stroke="#F6F8FC" stroke-width="3" stroke-linecap="round"/>
<ellipse cx="158.687" cy="69.4634" rx="24.7386" ry="24.328" transform="rotate(15 158.687 69.4634)" fill="url(#paint7_radial)"/>
<ellipse opacity="0.57" cx="155.228" cy="82.3667" rx="17.4399" ry="9.84033" transform="rotate(15 155.228 82.3667)" fill="#2C9FB8"/>
<ellipse cx="151.392" cy="50.7888" rx="2.26018" ry="3.83475" transform="rotate(71.2271 151.392 50.7888)" fill="#ADFFF7"/>
<ellipse rx="3.53154" ry="3.53154" transform="matrix(-4.37114e-08 1 1 4.37114e-08 166.371 63.6336)" fill="#F6F8FC"/>
<path d="M155.766 67.844C153.306 67.0992 150.652 67.8313 148.87 69.7461L147.118 71.6288C144.158 74.8097 145.663 80.1323 149.808 81.1411C151.679 81.5965 153.643 80.9992 154.983 79.567L163.076 70.9207C163.361 70.6157 163.232 70.1044 162.839 69.9854L155.766 67.844Z" fill="#DAE3F5"/>
<path d="M155.678 73.131C153.186 73.8979 150.474 73.2285 148.63 71.3918L146.817 69.5859C143.754 66.5348 145.2 61.3219 149.401 60.2698C151.298 59.7948 153.306 60.3443 154.693 61.718L163.067 70.0106C163.362 70.3031 163.238 70.8037 162.84 70.9262L155.678 73.131Z" fill="#F6F8FC"/>
<ellipse cx="394.889" cy="194.973" rx="48.9274" ry="48.1153" transform="rotate(15 394.889 194.973)" fill="url(#paint8_radial)"/>
<ellipse opacity="0.57" cx="388.051" cy="220.492" rx="34.4922" ry="19.4619" transform="rotate(15 388.051 220.492)" fill="#2C9FB8"/>
<ellipse cx="380.461" cy="158.039" rx="4.47013" ry="7.58426" transform="rotate(71.2271 380.461 158.039)" fill="#ADFFF7"/>
<path d="M394.423 225.835C393.806 225.619 394.014 225.472 394.898 224.882C395.453 224.508 397.316 223.1 398.352 220.492C399.533 217.535 399.073 214.779 398.838 213.451C398.551 211.687 398.814 210.643 399.004 210.188C399.272 209.501 399.916 207.918 402.024 206.914C407.25 204.416 410.377 208.865 410.166 209.466C410.082 209.714 407.76 212.146 404.282 213.222C403.659 213.41 402.528 214.794 406.756 214.256C408.4 214.039 409.684 213.657 410.165 213.499C410.924 213.247 411.127 213.183 411.344 213.444C411.813 214.025 411.141 217.541 410.33 218.741C410.301 218.784 410.273 218.827 410.249 218.854C409.874 219.31 406.224 219.328 404.434 218.764C404.25 218.698 404.061 218.647 403.839 218.655C402.284 218.728 403.471 220.345 407.063 221.612C407.417 221.74 407.834 221.886 407.492 222.216C407.375 222.337 406.217 223.258 404.734 224.008C402.417 225.159 402.417 225.159 400.812 223.531C400.415 223.121 399.808 223.498 399.749 223.719C399.592 224.368 400.782 225.278 399.95 225.612C399.314 225.846 395.289 226.067 394.423 225.835ZM398.656 199.582C395.642 198.74 395.073 194.69 397.767 193.201C400.541 191.666 403.852 194.173 403.037 197.212C402.616 198.787 400.817 200.144 398.656 199.582ZM386.865 187.411C388.567 180.24 394.544 177.269 396.357 180.201C397.535 182.103 396.42 187.019 386.865 187.411ZM411.866 191.343C410.069 190.996 407.841 190.433 404.879 188.829C417.45 182.849 422.744 177.636 423.147 170.842C429.991 181.89 425.75 193.814 411.866 191.343ZM420.039 165.504C420.009 165.614 419.951 165.767 419.989 165.879C421.957 172.953 415.141 179.75 399.726 186.082C402.514 181.092 400.54 174.792 394.651 174.918C390.135 166.013 376.912 179.277 376.821 179.489C376.53 180.136 376.878 180.601 377.365 180.546C377.781 180.505 378.2 180.01 378.541 179.747C381.542 177.362 389.202 173.525 390.549 176.181C388.918 177.988 386.719 179.205 385.281 181.233C384.815 181.901 383.224 184.31 382.579 187.41C381.534 192.446 383.793 192.326 387.221 192.13C390.442 191.947 392.454 191.305 393.431 190.993C390.252 194.546 390.295 201.628 397.602 204.21C396.853 205.494 395.632 206.399 394.969 207.74C393.003 211.736 395.797 216.045 394.148 220.058C392.924 223.054 389.91 224.288 388.499 224.518C387.844 224.629 387.087 224.747 387.204 225.318C387.695 227.644 396.563 228.805 402.495 227.323C417.921 223.475 419.287 208.738 410.721 203.49C408.662 202.229 406.776 202.028 406.054 201.952C407.657 199.496 408.46 198.26 407.956 195.357C422.698 199.915 434.809 189.795 426.545 173.592C424.416 169.444 420.827 165.395 420.039 165.504Z" fill="#F6F8FC"/>
<ellipse cx="107.317" cy="151.931" rx="40.7103" ry="40.0345" transform="rotate(15 107.317 151.931)" fill="url(#paint9_radial)"/>
<ellipse opacity="0.57" cx="101.628" cy="173.164" rx="28.6993" ry="16.1934" transform="rotate(15 101.628 173.164)" fill="#2C9FB8"/>
<ellipse cx="95.312" cy="121.2" rx="3.71939" ry="6.31051" transform="rotate(71.2271 95.312 121.2)" fill="#ADFFF7"/>
<path d="M102.024 165.863C102.874 165.894 105.162 165.971 104.358 165.306C103.477 164.58 102.349 164.317 101.406 163.699C101.36 163.668 101.298 163.622 101.252 163.591C101.391 161.628 101.762 160.206 102.534 158.862C104.822 160.036 107.495 160.067 109.875 158.97C110.648 160.392 111.019 161.829 111.081 163.807C110.091 164.379 108.963 164.704 108.005 165.337C107.897 165.414 107.789 165.739 108.113 165.801C108.33 165.847 109.303 165.971 110.911 165.894C111.081 166.914 110.014 170.051 110.014 170.066C110.014 170.066 109.072 170.592 107.99 170.963C107.572 171.102 107.696 171.364 107.866 171.457C107.866 171.457 108.345 171.565 109.334 171.643C106.954 176.233 104.93 176.202 102.735 171.565H102.751C103.662 171.55 104.281 171.442 104.281 171.442C104.636 171.334 104.42 171.055 104.42 171.04C103.802 170.329 102.612 170.746 102.071 169.865C102.071 169.85 101.483 168.258 101.267 165.816C101.452 165.832 101.731 165.847 102.024 165.863ZM88.7334 155.292C87.1261 154.967 86.9097 153.314 87.0334 153.205C87.2652 153.005 87.9297 153.097 88.4243 153.159C91.3452 153.515 94.2506 153.175 95.2088 153.051C94.3433 153.715 91.6697 155.771 88.7334 155.292ZM124.232 155.493C122.718 155.663 120.755 155.524 117.556 153.205C120.647 153.576 122.718 153.607 124.959 153.314C124.959 153.314 125.391 153.267 125.716 153.345C126.52 153.545 125.453 154.874 125.175 155.091C124.99 155.23 124.665 155.431 124.232 155.493ZM106.243 156.265C100.68 155.956 100.788 149.512 103.462 147.225C106.336 144.752 111.127 146.931 110.926 151.706C110.802 154.411 108.871 156.281 106.243 156.265ZM87.9915 148.801C80.7279 147.395 82.0416 141.692 82.2116 141.043C86.3843 143.855 90.9897 145.926 98.6088 148.415C94.3588 149.187 90.8815 149.311 87.9915 148.801ZM125.036 149.002C123.784 149.203 120.446 149.713 114.048 148.538C120.631 146.575 125.979 144.597 130.615 141.29C130.785 141.955 132.083 147.796 125.036 149.002ZM106.336 141.754C104.373 141.63 102.921 139.683 104.373 138.4C104.698 138.106 105.842 137.195 106.707 137.426C106.722 137.426 108.979 138.199 108.917 139.667C108.855 141.027 107.542 141.769 106.336 141.754ZM110.88 131.461C110.864 131.461 109.334 132.095 108.392 135.093C108.314 135.124 108.206 135.17 108.129 135.185C106.413 134.135 105.981 134.258 104.25 135.402C102.503 132.017 101.344 129.776 100.819 132.28C100.68 132.929 100.989 133.084 101.391 133.3C102.874 134.073 103.292 134.892 103.74 135.757C98.6552 139.636 102.302 143.361 102.735 143.763C102.009 144.211 101.576 144.551 100.973 145.185C97.3106 143.995 89.707 141.491 84.7461 138.075C83.8961 137.488 83.7261 137.365 83.247 137.426C80.6506 137.766 78.1316 143.268 80.3416 147.874C81.5316 150.362 83.4479 151.289 84.267 151.691C82.5979 156.111 86.7552 161.288 93.6015 158.414C96.1824 157.332 98.1297 155.493 98.9488 154.704C99.2733 155.554 99.5361 155.987 99.8606 156.497C93.8488 174.347 104.497 179.339 108.5 177.16C113.26 174.564 117.154 163.962 112.611 156.775C113.09 156.126 113.291 155.786 113.631 155.06C121.404 159.835 121.404 159.835 124.511 159.372C127.138 158.97 129.641 155.987 128.946 152.726C128.884 152.402 128.776 152.139 128.714 151.954C136.163 148.353 132.794 138.385 129.765 137.689C129.209 137.565 129.07 137.658 128.173 138.307C123.351 141.831 115.825 144.072 111.791 145.262C109.968 143.855 109.968 143.855 109.952 143.84C110.138 143.67 114.372 139.698 108.84 135.665C109.52 134.444 111.142 134.258 111.776 132.975C112.008 132.419 111.529 131.43 110.88 131.461Z" fill="#F6F8FC"/>
<defs>
<linearGradient id="paint0_linear" x1="117.777" y1="225.774" x2="117.777" y2="243.498" gradientUnits="userSpaceOnUse">
<stop stop-color="#313D56"/>
<stop offset="1" stop-color="#485776"/>
</linearGradient>
<linearGradient id="paint1_linear" x1="374.168" y1="271.797" x2="361.176" y2="293.732" gradientUnits="userSpaceOnUse">
<stop stop-color="#313D56"/>
<stop offset="1" stop-color="#485776"/>
</linearGradient>
<radialGradient id="paint2_radial" cx="0" cy="0" r="1" gradientUnits="userSpaceOnUse" gradientTransform="translate(284.581 105.4) rotate(105.745) scale(122.387 109.216)">
<stop offset="0.580133" stop-color="#FEBF15"/>
<stop offset="1" stop-color="#DB4F42"/>
</radialGradient>
<linearGradient id="paint3_linear" x1="153.215" y1="392.067" x2="178.489" y2="411.509" gradientUnits="userSpaceOnUse">
<stop stop-color="#485776"/>
<stop offset="1" stop-color="#677593"/>
</linearGradient>
<linearGradient id="paint4_linear" x1="194.578" y1="401.34" x2="144.78" y2="468.364" gradientUnits="userSpaceOnUse">
<stop stop-color="#B0BFD9"/>
<stop offset="1" stop-color="#D8E1F4"/>
</linearGradient>
<linearGradient id="paint5_linear" x1="281.283" y1="115.468" x2="257.485" y2="178.747" gradientUnits="userSpaceOnUse">
<stop stop-color="white"/>
<stop offset="1" stop-color="#F6F8FC"/>
</linearGradient>
<linearGradient id="paint6_linear" x1="238.435" y1="396.604" x2="212.837" y2="483.119" gradientUnits="userSpaceOnUse">
<stop stop-color="#485776"/>
<stop offset="1" stop-color="#677593"/>
</linearGradient>
<radialGradient id="paint7_radial" cx="0" cy="0" r="1" gradientUnits="userSpaceOnUse" gradientTransform="translate(149.543 53.2294) rotate(69.1793) scale(40.6209 41.3065)">
<stop stop-color="#32E4E1"/>
<stop offset="1" stop-color="#1EB8C6"/>
</radialGradient>
<radialGradient id="paint8_radial" cx="0" cy="0" r="1" gradientUnits="userSpaceOnUse" gradientTransform="translate(376.803 162.865) rotate(69.1793) scale(80.339 81.695)">
<stop stop-color="#32E4E1"/>
<stop offset="1" stop-color="#1EB8C6"/>
</radialGradient>
<radialGradient id="paint9_radial" cx="0" cy="0" r="1" gradientUnits="userSpaceOnUse" gradientTransform="translate(92.2686 125.216) rotate(69.1793) scale(66.8464 67.9747)">
<stop stop-color="#32E4E1"/>
<stop offset="1" stop-color="#1EB8C6"/>
</radialGradient>
</defs>
</svg>
