<svg width="27" height="26" viewBox="0 0 27 26" fill="none" xmlns="http://www.w3.org/2000/svg">
<path d="M23.979 9.97769C23.1374 9.97769 22.3968 10.3255 21.8526 10.8698C19.8496 9.48397 17.151 8.5919 14.1606 8.49652L15.7147 1.49464L20.6632 2.60551C20.6632 3.81738 21.6506 4.80482 22.8625 4.80482C24.0968 4.80482 25.0898 3.78932 25.0898 2.57746C25.0898 1.3656 24.1024 0.350098 22.8625 0.350098C21.9985 0.350098 21.2523 0.871873 20.882 1.5844L15.4174 0.37254C15.1425 0.299603 14.8731 0.49597 14.8002 0.770884L13.0946 8.49091C10.1267 8.61434 7.45609 9.50641 5.44753 10.8922C4.90332 10.3255 4.13468 9.97769 3.29311 9.97769C0.173678 9.97769 -0.84743 14.1631 2.00831 15.5938C1.90732 16.037 1.86243 16.5083 1.86243 16.9796C1.86243 21.6812 7.15873 25.4907 13.6613 25.4907C20.1919 25.4907 25.4882 21.6812 25.4882 16.9796C25.4882 16.5083 25.4377 16.0146 25.3143 15.5713C28.1139 14.1351 27.0816 9.97769 23.979 9.97769ZM6.53597 15.8911C6.53597 14.6568 7.52341 13.6638 8.76333 13.6638C9.97519 13.6638 10.9626 14.6512 10.9626 15.8911C10.9626 17.103 9.97519 18.0905 8.76333 18.0905C7.52902 18.0961 6.53597 17.103 6.53597 15.8911ZM18.5592 21.1369C16.517 23.1792 10.7551 23.1792 8.71284 21.1369C8.48842 20.9406 8.48842 20.5927 8.71284 20.3683C8.9092 20.1719 9.25705 20.1719 9.45342 20.3683C11.0131 21.9673 16.186 21.9953 17.813 20.3683C18.0094 20.1719 18.3573 20.1719 18.5536 20.3683C18.7837 20.5927 18.7837 20.9406 18.5592 21.1369ZM18.5144 18.0961C17.3025 18.0961 16.315 17.1086 16.315 15.8968C16.315 14.6624 17.3025 13.6694 18.5144 13.6694C19.7487 13.6694 20.7417 14.6568 20.7417 15.8968C20.7361 17.103 19.7487 18.0961 18.5144 18.0961Z" fill="white"/>
</svg>
