<svg width="30" height="21" viewBox="0 0 30 21" fill="none" xmlns="http://www.w3.org/2000/svg">
<path fill-rule="evenodd" clip-rule="evenodd" d="M26.7229 0.627264C28.0145 0.973 29.0295 1.98798 29.3752 3.27955C30 5.61821 30 10.5005 30 10.5005C30 10.5005 30 15.3828 29.3727 17.7214C29.027 19.013 28.012 20.028 26.7204 20.3737C24.3818 21.001 15 21.001 15 21.001C15 21.001 5.61821 21.001 3.27955 20.3737C1.98798 20.028 0.973 19.013 0.627264 17.7214C0 15.3828 0 10.5005 0 10.5005C0 10.5005 0 5.61821 0.627264 3.27955C0.973 1.98798 1.98798 0.973 3.27955 0.627264C5.61821 0 15 0 15 0C15 0 24.3818 0 26.7229 0.627264ZM19.7959 10.5005L11.9995 15V6.00098L19.7959 10.5005Z" fill="white"/>
</svg>
