<svg width="862" height="200" viewBox="0 0 862 200" fill="none" xmlns="http://www.w3.org/2000/svg">
<g clip-path="url(#clip0_859_5372)">
<rect width="862" height="200" fill="#40A1AC"/>
<path d="M0 0H862V200H0V0Z" fill="#111F3B"/>
<g opacity="0.2" filter="url(#filter0_d_859_5372)">
<path d="M237.473 145.042C240.996 139 250.004 134.867 261.104 134.199L314.849 130.967C325.948 130.299 337.453 133.199 345.029 138.573L381.714 164.597C389.29 169.972 391.786 177.005 388.263 183.047L371.202 212.304C367.679 218.346 358.671 222.479 347.571 223.147L293.826 226.379C282.727 227.047 271.222 224.147 263.646 218.773L226.961 192.749C219.385 187.374 216.889 180.341 220.412 174.299L237.473 145.042Z" fill="url(#paint0_radial_859_5372)"/>
</g>
<g opacity="0.2" filter="url(#filter1_d_859_5372)">
<path d="M204.473 46.0424C207.996 40.0002 217.004 35.8669 228.104 35.1993L281.849 31.9667C292.948 31.2991 304.453 34.1987 312.029 39.5732L348.714 65.5972C356.29 70.9718 358.786 78.0047 355.263 84.0469L338.202 113.304C334.679 119.346 325.671 123.479 314.571 124.147L260.826 127.379C249.727 128.047 238.222 125.147 230.646 119.773L193.961 93.7487C186.385 88.3741 183.889 81.3412 187.412 75.299L204.473 46.0424Z" fill="url(#paint1_radial_859_5372)"/>
</g>
<g opacity="0.2" filter="url(#filter2_d_859_5372)">
<path d="M45.4726 5.04239C48.996 -0.999751 58.0041 -5.13313 69.1037 -5.80073L122.849 -9.03333C133.948 -9.70094 145.453 -6.80134 153.029 -1.4268L189.714 24.5972C197.29 29.9718 199.786 37.0047 196.263 43.0469L179.202 72.3035C175.679 78.3457 166.671 82.479 155.571 83.1466L101.826 86.3792C90.7267 87.0468 79.222 84.1472 71.6458 78.7727L34.9613 52.7487C27.3852 47.3741 24.8886 40.3412 28.412 34.299L45.4726 5.04239Z" fill="url(#paint2_radial_859_5372)"/>
</g>
<g opacity="0.2" filter="url(#filter3_d_859_5372)">
<path d="M78.4726 104.042C81.996 98.0002 91.0041 93.8669 102.104 93.1993L155.849 89.9667C166.948 89.2991 178.453 92.1987 186.029 97.5732L222.714 123.597C230.29 128.972 232.786 136.005 229.263 142.047L212.202 171.304C208.679 177.346 199.671 181.479 188.571 182.147L134.826 185.379C123.727 186.047 112.222 183.147 104.646 177.773L67.9613 151.749C60.3852 146.374 57.8886 139.341 61.412 133.299L78.4726 104.042Z" fill="url(#paint3_radial_859_5372)"/>
</g>
<g opacity="0.2" filter="url(#filter4_d_859_5372)">
<path d="M397.473 191.042C400.996 185 410.004 180.867 421.104 180.199L474.849 176.967C485.948 176.299 497.453 179.199 505.029 184.573L541.714 210.597C549.29 215.972 551.786 223.005 548.263 229.047L531.202 258.304C527.679 264.346 518.671 268.479 507.571 269.147L453.826 272.379C442.727 273.047 431.222 270.147 423.646 264.773L386.961 238.749C379.385 233.374 376.889 226.341 380.412 220.299L397.473 191.042Z" fill="url(#paint4_radial_859_5372)"/>
</g>
<g opacity="0.2" filter="url(#filter5_d_859_5372)">
<path d="M523.473 129.042C526.996 123 536.004 118.867 547.104 118.199L600.849 114.967C611.948 114.299 623.453 117.199 631.029 122.573L667.714 148.597C675.29 153.972 677.786 161.005 674.263 167.047L657.202 196.304C653.679 202.346 644.671 206.479 633.571 207.147L579.826 210.379C568.727 211.047 557.222 208.147 549.646 202.773L512.961 176.749C505.385 171.374 502.889 164.341 506.412 158.299L523.473 129.042Z" fill="url(#paint5_radial_859_5372)"/>
</g>
<g opacity="0.2" filter="url(#filter6_d_859_5372)">
<path d="M648.473 71.0424C651.996 65.0002 661.004 60.8669 672.104 60.1993L725.849 56.9667C736.948 56.2991 748.453 59.1987 756.029 64.5732L792.714 90.5972C800.29 95.9718 802.786 103.005 799.263 109.047L782.202 138.304C778.679 144.346 769.671 148.479 758.571 149.147L704.826 152.379C693.727 153.047 682.222 150.147 674.646 144.773L637.961 118.749C630.385 113.374 627.889 106.341 631.412 100.299L648.473 71.0424Z" fill="url(#paint6_radial_859_5372)"/>
</g>
<g opacity="0.2" filter="url(#filter7_d_859_5372)">
<path d="M491.473 30.0424C494.996 24.0002 504.004 19.8669 515.104 19.1993L568.849 15.9667C579.948 15.2991 591.453 18.1987 599.029 23.5732L635.714 49.5972C643.29 54.9718 645.786 62.0047 642.263 68.0469L625.202 97.3035C621.679 103.346 612.671 107.479 601.571 108.147L547.826 111.379C536.727 112.047 525.222 109.147 517.646 103.773L480.961 77.7487C473.385 72.3741 470.889 65.3412 474.412 59.299L491.473 30.0424Z" fill="url(#paint7_radial_859_5372)"/>
</g>
<g opacity="0.2" filter="url(#filter8_d_859_5372)">
<path d="M333.473 -8.95761C336.996 -14.9998 346.004 -19.1331 357.104 -19.8007L410.849 -23.0333C421.948 -23.7009 433.453 -20.8013 441.029 -15.4268L477.714 10.5972C485.29 15.9718 487.786 23.0047 484.263 29.0469L467.202 58.3035C463.679 64.3457 454.671 68.479 443.571 69.1466L389.826 72.3792C378.727 73.0468 367.222 70.1472 359.646 64.7727L322.961 38.7487C315.385 33.3741 312.889 26.3412 316.412 20.299L333.473 -8.95761Z" fill="url(#paint8_radial_859_5372)"/>
</g>
<g opacity="0.2" filter="url(#filter9_d_859_5372)">
<path d="M774.473 15.0424C777.996 9.00025 787.004 4.86687 798.104 4.19927L851.849 0.966669C862.948 0.299063 874.453 3.19866 882.029 8.5732L918.714 34.5972C926.29 39.9718 928.786 47.0047 925.263 53.0469L908.202 82.3035C904.679 88.3457 895.671 92.479 884.571 93.1466L830.826 96.3792C819.727 97.0468 808.222 94.1472 800.646 88.7727L763.961 62.7487C756.385 57.3741 753.889 50.3412 757.412 44.299L774.473 15.0424Z" fill="url(#paint9_radial_859_5372)"/>
</g>
<g opacity="0.2" filter="url(#filter10_d_859_5372)">
<path d="M681.473 171.042C684.996 165 694.004 160.867 705.104 160.199L758.849 156.967C769.948 156.299 781.453 159.199 789.029 164.573L825.714 190.597C833.29 195.972 835.786 203.005 832.263 209.047L815.202 238.304C811.679 244.346 802.671 248.479 791.571 249.147L737.826 252.379C726.727 253.047 715.222 250.147 707.646 244.773L670.961 218.749C663.385 213.374 660.889 206.341 664.412 200.299L681.473 171.042Z" fill="url(#paint10_radial_859_5372)"/>
</g>
<g opacity="0.3" filter="url(#filter11_f_859_5372)">
<path fill-rule="evenodd" clip-rule="evenodd" d="M456.285 81.0933L372.501 86.1327L345.905 131.741L403.093 172.31L486.876 167.271L513.472 121.662L456.285 81.0933ZM365.952 67.683C354.852 68.3506 345.844 72.484 342.321 78.5261L315.725 124.135C312.201 130.177 314.698 137.21 322.274 142.584L379.462 183.153C387.038 188.528 398.543 191.427 409.642 190.76L493.426 185.72C504.525 185.053 513.533 180.919 517.057 174.877L543.653 129.269C547.176 123.227 544.68 116.194 537.103 110.819L479.916 70.2502C472.34 64.8757 460.835 61.9761 449.735 62.6437L365.952 67.683Z" fill="#0FC1B7"/>
</g>
<g opacity="0.36">
<path d="M361.754 90.2626C365.277 84.2205 374.285 80.0871 385.385 79.4195L439.13 76.1869C450.229 75.5193 461.734 78.4189 469.31 83.7934L505.995 109.817C513.571 115.192 516.068 122.225 512.544 128.267L495.484 157.524C491.96 163.566 482.952 167.699 471.852 168.367L418.107 171.599C407.008 172.267 395.503 169.367 387.927 163.993L351.242 137.969C343.666 132.594 341.17 125.561 344.693 119.519L361.754 90.2626Z" fill="#111F3B"/>
<path fill-rule="evenodd" clip-rule="evenodd" d="M439.634 77.6061L385.889 80.8387C375.643 81.4549 367.328 85.2704 364.075 90.8477L347.015 120.104C343.762 125.682 346.067 132.174 353.06 137.135L389.745 163.159C396.738 168.12 407.358 170.796 417.604 170.18L471.349 166.948C481.594 166.331 489.91 162.516 493.162 156.939L510.223 127.682C513.475 122.105 511.17 115.613 504.177 110.652L467.493 84.6275C460.499 79.6664 449.879 76.9898 439.634 77.6061ZM385.385 79.4195C374.285 80.0871 365.277 84.2205 361.754 90.2626L344.693 119.519C341.17 125.561 343.666 132.594 351.242 137.969L387.927 163.993C395.503 169.367 407.008 172.267 418.107 171.599L471.852 168.367C482.952 167.699 491.96 163.566 495.484 157.524L512.544 128.267C516.068 122.225 513.571 115.192 505.995 109.817L469.31 83.7934C461.734 78.4189 450.229 75.5193 439.13 76.1869L385.385 79.4195Z" fill="url(#paint11_linear_859_5372)" fill-opacity="0.3"/>
</g>
<path d="M363.992 66.3673C367.516 60.3252 376.524 56.1918 387.623 55.5242L441.368 52.2916C452.468 51.624 463.973 54.5236 471.549 59.8981L508.233 85.9222C515.81 91.2967 518.306 98.3297 514.783 104.372L497.722 133.628C494.199 139.671 485.191 143.804 474.091 144.472L420.346 147.704C409.246 148.372 397.742 145.472 390.166 140.098L353.481 114.074C345.905 108.699 343.408 101.666 346.932 95.624L363.992 66.3673Z" fill="url(#paint12_radial_859_5372)"/>
<path fill-rule="evenodd" clip-rule="evenodd" d="M442.124 54.4204L388.379 57.653C378.56 58.2436 370.592 61.9 367.475 67.245L350.414 96.5017C347.297 101.847 349.506 108.068 356.208 112.822L392.892 138.847C399.594 143.601 409.771 146.166 419.59 145.575L473.335 142.343C483.154 141.752 491.123 138.096 494.24 132.751L511.3 103.494C514.417 98.1492 512.209 91.9277 505.507 87.1733L468.822 61.1493C462.12 56.3949 451.943 53.8299 442.124 54.4204ZM387.623 55.5242C376.524 56.1918 367.516 60.3252 363.992 66.3673L346.932 95.624C343.408 101.666 345.905 108.699 353.481 114.074L390.166 140.098C397.742 145.472 409.246 148.372 420.346 147.704L474.091 144.472C485.191 143.804 494.199 139.671 497.722 133.628L514.783 104.372C518.306 98.3297 515.81 91.2967 508.233 85.9222L471.549 59.8981C463.973 54.5236 452.468 51.624 441.368 52.2916L387.623 55.5242Z" fill="#0FC1B7"/>
<g filter="url(#filter12_d_859_5372)">
<path d="M366.324 41.476C369.848 35.4338 378.856 31.3005 389.955 30.6329L443.7 27.4003C454.8 26.7327 466.305 29.6323 473.881 35.0068L510.565 61.0308C518.141 66.4054 520.638 73.4383 517.115 79.4805L500.054 108.737C496.53 114.779 487.522 118.913 476.423 119.58L422.678 122.813C411.578 123.48 400.073 120.581 392.497 115.206L355.813 89.1823C348.237 83.8077 345.74 76.7748 349.263 70.7326L366.324 41.476Z" fill="#D7E1F4"/>
<path fill-rule="evenodd" clip-rule="evenodd" d="M444.456 29.5291L390.711 32.7617C380.892 33.3522 372.923 37.0087 369.806 42.3537L352.746 71.6103C349.629 76.9553 351.838 83.1767 358.539 87.9311L395.224 113.955C401.926 118.71 412.103 121.275 421.922 120.684L475.667 117.451C485.486 116.861 493.455 113.204 496.572 107.859L513.632 78.6028C516.749 73.2578 514.54 67.0364 507.838 62.282L471.154 36.2579C464.452 31.5035 454.275 28.9385 444.456 29.5291ZM389.955 30.6329C378.856 31.3005 369.848 35.4338 366.324 41.476L349.263 70.7326C345.74 76.7748 348.237 83.8077 355.813 89.1823L392.497 115.206C400.073 120.581 411.578 123.48 422.678 122.813L476.423 119.58C487.522 118.913 496.53 114.779 500.054 108.737L517.115 79.4805C520.638 73.4383 518.141 66.4054 510.565 61.0308L473.881 35.0068C466.305 29.6323 454.8 26.7327 443.7 27.4003L389.955 30.6329Z" fill="#D7E1F4"/>
</g>
<path d="M0 0H862V200H0V0Z" fill="url(#paint13_radial_859_5372)"/>
<path fill-rule="evenodd" clip-rule="evenodd" d="M861 1H1V199H861V1ZM0 0V200H862V0H0Z" fill="#293856"/>
<path fill-rule="evenodd" clip-rule="evenodd" d="M861 1H1V199H861V1ZM0 0V200H862V0H0Z" fill="#293858"/>
<g filter="url(#filter13_d_859_5372)">
<path opacity="0.7" d="M364.927 42.3141C368.378 36.2363 377.285 31.9348 388.321 31.0163L440.55 26.6692C451.668 25.7439 463.255 28.3922 470.928 33.6121L511.273 61.0616C516.868 64.8682 519.84 69.6831 519.553 74.4766L516.65 123.005C516.551 124.66 516.064 126.283 515.203 127.829L497.832 159.026C494.252 165.456 484.602 169.896 472.84 170.525L416.342 173.546C405.281 174.137 394.045 171.264 386.778 165.984L348.435 138.128C343.029 134.201 340.341 129.314 340.951 124.521L347.224 75.1756C347.408 73.7301 347.889 72.3158 348.657 70.9623L364.927 42.3141Z" fill="url(#paint14_linear_859_5372)"/>
</g>
<path fill-rule="evenodd" clip-rule="evenodd" d="M207.293 48.2929C206.902 48.6834 206.902 49.3166 207.293 49.7071L208.993 51.4071C209.383 51.7976 210.017 51.7976 210.407 51.4071C210.798 51.0166 210.798 50.3834 210.407 49.9929L208.707 48.2929C208.317 47.9024 207.683 47.9024 207.293 48.2929ZM212.393 53.3929C212.002 53.7834 212.002 54.4166 212.393 54.8071L215.793 58.2071C216.183 58.5976 216.817 58.5976 217.207 58.2071C217.598 57.8166 217.598 57.1834 217.207 56.7929L213.807 53.3929C213.417 53.0024 212.783 53.0024 212.393 53.3929ZM219.193 60.1929C218.802 60.5834 218.802 61.2166 219.193 61.6071L222.593 65.0071C222.983 65.3976 223.617 65.3976 224.007 65.0071C224.398 64.6166 224.398 63.9834 224.007 63.5929L220.607 60.1929C220.217 59.8024 219.583 59.8024 219.193 60.1929ZM225.993 66.9929C225.602 67.3834 225.602 68.0166 225.993 68.4071L229.393 71.8071C229.783 72.1976 230.417 72.1976 230.807 71.8071C231.198 71.4166 231.198 70.7834 230.807 70.3929L227.407 66.9929C227.017 66.6024 226.383 66.6024 225.993 66.9929ZM232.793 73.7929C232.402 74.1834 232.402 74.8166 232.793 75.2071L236.193 78.6071C236.583 78.9976 237.217 78.9976 237.607 78.6071C237.998 78.2166 237.998 77.5834 237.607 77.1929L234.207 73.7929C233.817 73.4024 233.183 73.4024 232.793 73.7929ZM239.593 80.5929C239.202 80.9834 239.202 81.6166 239.593 82.0071L241.293 83.7071C241.48 83.8946 241.735 84 242 84H244.448C245 84 245.448 83.5523 245.448 83C245.448 82.4477 245 82 244.448 82H242.414L241.007 80.5929C240.617 80.2024 239.983 80.2024 239.593 80.5929ZM360.5 83C360.5 82.4477 360.052 82 359.5 82H357.052C356.5 82 356.052 82.4477 356.052 83C356.052 83.5523 356.5 84 357.052 84H359.5C360.052 84 360.5 83.5523 360.5 83ZM353.156 83C353.156 82.4477 352.709 82 352.156 82H347.26C346.708 82 346.26 82.4477 346.26 83C346.26 83.5523 346.708 84 347.26 84H352.156C352.709 84 353.156 83.5523 353.156 83ZM343.365 83C343.365 82.4477 342.917 82 342.365 82H337.469C336.916 82 336.469 82.4477 336.469 83C336.469 83.5523 336.916 84 337.469 84H342.365C342.917 84 343.365 83.5523 343.365 83ZM333.573 83C333.573 82.4477 333.125 82 332.573 82H327.677C327.125 82 326.677 82.4477 326.677 83C326.677 83.5523 327.125 84 327.677 84H332.573C333.125 84 333.573 83.5523 333.573 83ZM323.781 83C323.781 82.4477 323.334 82 322.781 82H317.885C317.333 82 316.885 82.4477 316.885 83C316.885 83.5523 317.333 84 317.885 84H322.781C323.334 84 323.781 83.5523 323.781 83ZM313.99 83C313.99 82.4477 313.542 82 312.99 82H308.094C307.541 82 307.094 82.4477 307.094 83C307.094 83.5523 307.541 84 308.094 84H312.99C313.542 84 313.99 83.5523 313.99 83ZM304.198 83C304.198 82.4477 303.75 82 303.198 82H298.302C297.75 82 297.302 82.4477 297.302 83C297.302 83.5523 297.75 84 298.302 84H303.198C303.75 84 304.198 83.5523 304.198 83ZM294.406 83C294.406 82.4477 293.959 82 293.406 82H288.51C287.958 82 287.51 82.4477 287.51 83C287.51 83.5523 287.958 84 288.51 84H293.406C293.959 84 294.406 83.5523 294.406 83ZM284.615 83C284.615 82.4477 284.167 82 283.615 82H278.719C278.166 82 277.719 82.4477 277.719 83C277.719 83.5523 278.166 84 278.719 84H283.615C284.167 84 284.615 83.5523 284.615 83ZM274.823 83C274.823 82.4477 274.375 82 273.823 82H268.927C268.375 82 267.927 82.4477 267.927 83C267.927 83.5523 268.375 84 268.927 84H273.823C274.375 84 274.823 83.5523 274.823 83ZM265.031 83C265.031 82.4477 264.584 82 264.031 82H259.135C258.583 82 258.135 82.4477 258.135 83C258.135 83.5523 258.583 84 259.135 84H264.031C264.584 84 265.031 83.5523 265.031 83ZM255.24 83C255.24 82.4477 254.792 82 254.24 82H249.344C248.791 82 248.344 82.4477 248.344 83C248.344 83.5523 248.791 84 249.344 84H254.24C254.792 84 255.24 83.5523 255.24 83Z" fill="#D7E1F4"/>
<path fill-rule="evenodd" clip-rule="evenodd" d="M499 127C499 126.448 499.448 126 500 126H502.448C503 126 503.448 126.448 503.448 127C503.448 127.552 503 128 502.448 128H500C499.448 128 499 127.552 499 127ZM506.344 127C506.344 126.448 506.791 126 507.344 126H512.24C512.792 126 513.24 126.448 513.24 127C513.24 127.552 512.792 128 512.24 128H507.344C506.791 128 506.344 127.552 506.344 127ZM516.135 127C516.135 126.448 516.583 126 517.135 126H522.031C522.584 126 523.031 126.448 523.031 127C523.031 127.552 522.584 128 522.031 128H517.135C516.583 128 516.135 127.552 516.135 127ZM525.927 127C525.927 126.448 526.375 126 526.927 126H531.823C532.375 126 532.823 126.448 532.823 127C532.823 127.552 532.375 128 531.823 128H526.927C526.375 128 525.927 127.552 525.927 127ZM535.719 127C535.719 126.448 536.166 126 536.719 126H541.615C542.167 126 542.615 126.448 542.615 127C542.615 127.552 542.167 128 541.615 128H536.719C536.166 128 535.719 127.552 535.719 127ZM545.51 127C545.51 126.448 545.958 126 546.51 126H551.406C551.959 126 552.406 126.448 552.406 127C552.406 127.552 551.959 128 551.406 128H546.51C545.958 128 545.51 127.552 545.51 127ZM555.302 127C555.302 126.448 555.75 126 556.302 126H561.198C561.75 126 562.198 126.448 562.198 127C562.198 127.552 561.75 128 561.198 128H556.302C555.75 128 555.302 127.552 555.302 127ZM565.094 127C565.094 126.448 565.541 126 566.094 126H570.99C571.542 126 571.99 126.448 571.99 127C571.99 127.552 571.542 128 570.99 128H566.094C565.541 128 565.094 127.552 565.094 127ZM574.885 127C574.885 126.448 575.333 126 575.885 126H580.781C581.334 126 581.781 126.448 581.781 127C581.781 127.552 581.334 128 580.781 128H575.885C575.333 128 574.885 127.552 574.885 127ZM584.677 127C584.677 126.448 585.125 126 585.677 126H590.573C591.125 126 591.573 126.448 591.573 127C591.573 127.552 591.125 128 590.573 128H585.677C585.125 128 584.677 127.552 584.677 127ZM594.469 127C594.469 126.448 594.916 126 595.469 126H600.365C600.917 126 601.365 126.448 601.365 127C601.365 127.552 600.917 128 600.365 128H595.469C594.916 128 594.469 127.552 594.469 127ZM604.26 127C604.26 126.448 604.708 126 605.26 126H610.156C610.709 126 611.156 126.448 611.156 127C611.156 127.552 610.709 128 610.156 128H605.26C604.708 128 604.26 127.552 604.26 127ZM614.052 127C614.052 126.448 614.5 126 615.052 126H617.5C618.052 126 618.5 126.448 618.5 127C618.5 127.552 618.052 128 617.5 128H615.052C614.5 128 614.052 127.552 614.052 127Z" fill="#0FBEB5"/>
<path d="M655 126.5C655 136.717 646.941 145 637 145C627.059 145 619 136.717 619 126.5C619 116.283 627.059 108 637 108C646.941 108 655 116.283 655 126.5Z" fill="#111F3B"/>
<path fill-rule="evenodd" clip-rule="evenodd" d="M637 143C645.785 143 653 135.665 653 126.5C653 117.335 645.785 110 637 110C628.215 110 621 117.335 621 126.5C621 135.665 628.215 143 637 143ZM637 145C646.941 145 655 136.717 655 126.5C655 116.283 646.941 108 637 108C627.059 108 619 116.283 619 126.5C619 136.717 627.059 145 637 145Z" fill="#31C2BE"/>
<path d="M223 45.5C223 54.0604 216.284 61 208 61C199.716 61 193 54.0604 193 45.5C193 36.9396 199.716 30 208 30C216.284 30 223 36.9396 223 45.5Z" fill="#111F3B"/>
<path fill-rule="evenodd" clip-rule="evenodd" d="M208 59C215.118 59 221 53.0182 221 45.5C221 37.9818 215.118 32 208 32C200.882 32 195 37.9818 195 45.5C195 53.0182 200.882 59 208 59ZM208 61C216.284 61 223 54.0604 223 45.5C223 36.9396 216.284 30 208 30C199.716 30 193 36.9396 193 45.5C193 54.0604 199.716 61 208 61Z" fill="#D7E1F4"/>
</g>
<defs>
<filter id="filter0_d_859_5372" x="194.841" y="110.872" width="218.993" height="143.602" filterUnits="userSpaceOnUse" color-interpolation-filters="sRGB">
<feFlood flood-opacity="0" result="BackgroundImageFix"/>
<feColorMatrix in="SourceAlpha" type="matrix" values="0 0 0 0 0 0 0 0 0 0 0 0 0 0 0 0 0 0 127 0" result="hardAlpha"/>
<feOffset dy="4"/>
<feGaussianBlur stdDeviation="12"/>
<feComposite in2="hardAlpha" operator="out"/>
<feColorMatrix type="matrix" values="0 0 0 0 0.0666667 0 0 0 0 0.121569 0 0 0 0 0.231373 0 0 0 1 0"/>
<feBlend mode="normal" in2="BackgroundImageFix" result="effect1_dropShadow_859_5372"/>
<feBlend mode="normal" in="SourceGraphic" in2="effect1_dropShadow_859_5372" result="shape"/>
</filter>
<filter id="filter1_d_859_5372" x="161.841" y="11.8721" width="218.993" height="143.602" filterUnits="userSpaceOnUse" color-interpolation-filters="sRGB">
<feFlood flood-opacity="0" result="BackgroundImageFix"/>
<feColorMatrix in="SourceAlpha" type="matrix" values="0 0 0 0 0 0 0 0 0 0 0 0 0 0 0 0 0 0 127 0" result="hardAlpha"/>
<feOffset dy="4"/>
<feGaussianBlur stdDeviation="12"/>
<feComposite in2="hardAlpha" operator="out"/>
<feColorMatrix type="matrix" values="0 0 0 0 0.0666667 0 0 0 0 0.121569 0 0 0 0 0.231373 0 0 0 1 0"/>
<feBlend mode="normal" in2="BackgroundImageFix" result="effect1_dropShadow_859_5372"/>
<feBlend mode="normal" in="SourceGraphic" in2="effect1_dropShadow_859_5372" result="shape"/>
</filter>
<filter id="filter2_d_859_5372" x="2.84094" y="-29.1279" width="218.993" height="143.602" filterUnits="userSpaceOnUse" color-interpolation-filters="sRGB">
<feFlood flood-opacity="0" result="BackgroundImageFix"/>
<feColorMatrix in="SourceAlpha" type="matrix" values="0 0 0 0 0 0 0 0 0 0 0 0 0 0 0 0 0 0 127 0" result="hardAlpha"/>
<feOffset dy="4"/>
<feGaussianBlur stdDeviation="12"/>
<feComposite in2="hardAlpha" operator="out"/>
<feColorMatrix type="matrix" values="0 0 0 0 0.0666667 0 0 0 0 0.121569 0 0 0 0 0.231373 0 0 0 1 0"/>
<feBlend mode="normal" in2="BackgroundImageFix" result="effect1_dropShadow_859_5372"/>
<feBlend mode="normal" in="SourceGraphic" in2="effect1_dropShadow_859_5372" result="shape"/>
</filter>
<filter id="filter3_d_859_5372" x="35.8409" y="69.8721" width="218.993" height="143.602" filterUnits="userSpaceOnUse" color-interpolation-filters="sRGB">
<feFlood flood-opacity="0" result="BackgroundImageFix"/>
<feColorMatrix in="SourceAlpha" type="matrix" values="0 0 0 0 0 0 0 0 0 0 0 0 0 0 0 0 0 0 127 0" result="hardAlpha"/>
<feOffset dy="4"/>
<feGaussianBlur stdDeviation="12"/>
<feComposite in2="hardAlpha" operator="out"/>
<feColorMatrix type="matrix" values="0 0 0 0 0.0666667 0 0 0 0 0.121569 0 0 0 0 0.231373 0 0 0 1 0"/>
<feBlend mode="normal" in2="BackgroundImageFix" result="effect1_dropShadow_859_5372"/>
<feBlend mode="normal" in="SourceGraphic" in2="effect1_dropShadow_859_5372" result="shape"/>
</filter>
<filter id="filter4_d_859_5372" x="354.841" y="156.872" width="218.993" height="143.602" filterUnits="userSpaceOnUse" color-interpolation-filters="sRGB">
<feFlood flood-opacity="0" result="BackgroundImageFix"/>
<feColorMatrix in="SourceAlpha" type="matrix" values="0 0 0 0 0 0 0 0 0 0 0 0 0 0 0 0 0 0 127 0" result="hardAlpha"/>
<feOffset dy="4"/>
<feGaussianBlur stdDeviation="12"/>
<feComposite in2="hardAlpha" operator="out"/>
<feColorMatrix type="matrix" values="0 0 0 0 0.0666667 0 0 0 0 0.121569 0 0 0 0 0.231373 0 0 0 1 0"/>
<feBlend mode="normal" in2="BackgroundImageFix" result="effect1_dropShadow_859_5372"/>
<feBlend mode="normal" in="SourceGraphic" in2="effect1_dropShadow_859_5372" result="shape"/>
</filter>
<filter id="filter5_d_859_5372" x="480.841" y="94.8721" width="218.993" height="143.602" filterUnits="userSpaceOnUse" color-interpolation-filters="sRGB">
<feFlood flood-opacity="0" result="BackgroundImageFix"/>
<feColorMatrix in="SourceAlpha" type="matrix" values="0 0 0 0 0 0 0 0 0 0 0 0 0 0 0 0 0 0 127 0" result="hardAlpha"/>
<feOffset dy="4"/>
<feGaussianBlur stdDeviation="12"/>
<feComposite in2="hardAlpha" operator="out"/>
<feColorMatrix type="matrix" values="0 0 0 0 0.0666667 0 0 0 0 0.121569 0 0 0 0 0.231373 0 0 0 1 0"/>
<feBlend mode="normal" in2="BackgroundImageFix" result="effect1_dropShadow_859_5372"/>
<feBlend mode="normal" in="SourceGraphic" in2="effect1_dropShadow_859_5372" result="shape"/>
</filter>
<filter id="filter6_d_859_5372" x="605.841" y="36.8721" width="218.993" height="143.602" filterUnits="userSpaceOnUse" color-interpolation-filters="sRGB">
<feFlood flood-opacity="0" result="BackgroundImageFix"/>
<feColorMatrix in="SourceAlpha" type="matrix" values="0 0 0 0 0 0 0 0 0 0 0 0 0 0 0 0 0 0 127 0" result="hardAlpha"/>
<feOffset dy="4"/>
<feGaussianBlur stdDeviation="12"/>
<feComposite in2="hardAlpha" operator="out"/>
<feColorMatrix type="matrix" values="0 0 0 0 0.0666667 0 0 0 0 0.121569 0 0 0 0 0.231373 0 0 0 1 0"/>
<feBlend mode="normal" in2="BackgroundImageFix" result="effect1_dropShadow_859_5372"/>
<feBlend mode="normal" in="SourceGraphic" in2="effect1_dropShadow_859_5372" result="shape"/>
</filter>
<filter id="filter7_d_859_5372" x="448.841" y="-4.12793" width="218.993" height="143.602" filterUnits="userSpaceOnUse" color-interpolation-filters="sRGB">
<feFlood flood-opacity="0" result="BackgroundImageFix"/>
<feColorMatrix in="SourceAlpha" type="matrix" values="0 0 0 0 0 0 0 0 0 0 0 0 0 0 0 0 0 0 127 0" result="hardAlpha"/>
<feOffset dy="4"/>
<feGaussianBlur stdDeviation="12"/>
<feComposite in2="hardAlpha" operator="out"/>
<feColorMatrix type="matrix" values="0 0 0 0 0.0666667 0 0 0 0 0.121569 0 0 0 0 0.231373 0 0 0 1 0"/>
<feBlend mode="normal" in2="BackgroundImageFix" result="effect1_dropShadow_859_5372"/>
<feBlend mode="normal" in="SourceGraphic" in2="effect1_dropShadow_859_5372" result="shape"/>
</filter>
<filter id="filter8_d_859_5372" x="290.841" y="-43.1279" width="218.993" height="143.602" filterUnits="userSpaceOnUse" color-interpolation-filters="sRGB">
<feFlood flood-opacity="0" result="BackgroundImageFix"/>
<feColorMatrix in="SourceAlpha" type="matrix" values="0 0 0 0 0 0 0 0 0 0 0 0 0 0 0 0 0 0 127 0" result="hardAlpha"/>
<feOffset dy="4"/>
<feGaussianBlur stdDeviation="12"/>
<feComposite in2="hardAlpha" operator="out"/>
<feColorMatrix type="matrix" values="0 0 0 0 0.0666667 0 0 0 0 0.121569 0 0 0 0 0.231373 0 0 0 1 0"/>
<feBlend mode="normal" in2="BackgroundImageFix" result="effect1_dropShadow_859_5372"/>
<feBlend mode="normal" in="SourceGraphic" in2="effect1_dropShadow_859_5372" result="shape"/>
</filter>
<filter id="filter9_d_859_5372" x="731.841" y="-19.1279" width="218.993" height="143.602" filterUnits="userSpaceOnUse" color-interpolation-filters="sRGB">
<feFlood flood-opacity="0" result="BackgroundImageFix"/>
<feColorMatrix in="SourceAlpha" type="matrix" values="0 0 0 0 0 0 0 0 0 0 0 0 0 0 0 0 0 0 127 0" result="hardAlpha"/>
<feOffset dy="4"/>
<feGaussianBlur stdDeviation="12"/>
<feComposite in2="hardAlpha" operator="out"/>
<feColorMatrix type="matrix" values="0 0 0 0 0.0666667 0 0 0 0 0.121569 0 0 0 0 0.231373 0 0 0 1 0"/>
<feBlend mode="normal" in2="BackgroundImageFix" result="effect1_dropShadow_859_5372"/>
<feBlend mode="normal" in="SourceGraphic" in2="effect1_dropShadow_859_5372" result="shape"/>
</filter>
<filter id="filter10_d_859_5372" x="638.841" y="136.872" width="218.993" height="143.602" filterUnits="userSpaceOnUse" color-interpolation-filters="sRGB">
<feFlood flood-opacity="0" result="BackgroundImageFix"/>
<feColorMatrix in="SourceAlpha" type="matrix" values="0 0 0 0 0 0 0 0 0 0 0 0 0 0 0 0 0 0 127 0" result="hardAlpha"/>
<feOffset dy="4"/>
<feGaussianBlur stdDeviation="12"/>
<feComposite in2="hardAlpha" operator="out"/>
<feColorMatrix type="matrix" values="0 0 0 0 0.0666667 0 0 0 0 0.121569 0 0 0 0 0.231373 0 0 0 1 0"/>
<feBlend mode="normal" in2="BackgroundImageFix" result="effect1_dropShadow_859_5372"/>
<feBlend mode="normal" in="SourceGraphic" in2="effect1_dropShadow_859_5372" result="shape"/>
</filter>
<filter id="filter11_f_859_5372" x="269.154" y="17.5491" width="321.07" height="218.305" filterUnits="userSpaceOnUse" color-interpolation-filters="sRGB">
<feFlood flood-opacity="0" result="BackgroundImageFix"/>
<feBlend mode="normal" in="SourceGraphic" in2="BackgroundImageFix" result="shape"/>
<feGaussianBlur stdDeviation="22.5" result="effect1_foregroundBlur_859_5372"/>
</filter>
<filter id="filter12_d_859_5372" x="323.692" y="7.30566" width="218.993" height="143.602" filterUnits="userSpaceOnUse" color-interpolation-filters="sRGB">
<feFlood flood-opacity="0" result="BackgroundImageFix"/>
<feColorMatrix in="SourceAlpha" type="matrix" values="0 0 0 0 0 0 0 0 0 0 0 0 0 0 0 0 0 0 127 0" result="hardAlpha"/>
<feOffset dy="4"/>
<feGaussianBlur stdDeviation="12"/>
<feComposite in2="hardAlpha" operator="out"/>
<feColorMatrix type="matrix" values="0 0 0 0 0.0666667 0 0 0 0 0.121569 0 0 0 0 0.231373 0 0 0 1 0"/>
<feBlend mode="normal" in2="BackgroundImageFix" result="effect1_dropShadow_859_5372"/>
<feBlend mode="normal" in="SourceGraphic" in2="effect1_dropShadow_859_5372" result="shape"/>
</filter>
<filter id="filter13_d_859_5372" x="316.866" y="6.4873" width="226.706" height="195.135" filterUnits="userSpaceOnUse" color-interpolation-filters="sRGB">
<feFlood flood-opacity="0" result="BackgroundImageFix"/>
<feColorMatrix in="SourceAlpha" type="matrix" values="0 0 0 0 0 0 0 0 0 0 0 0 0 0 0 0 0 0 127 0" result="hardAlpha"/>
<feOffset dy="4"/>
<feGaussianBlur stdDeviation="12"/>
<feComposite in2="hardAlpha" operator="out"/>
<feColorMatrix type="matrix" values="0 0 0 0 0.0666667 0 0 0 0 0.121569 0 0 0 0 0.231373 0 0 0 1 0"/>
<feBlend mode="normal" in2="BackgroundImageFix" result="effect1_dropShadow_859_5372"/>
<feBlend mode="normal" in="SourceGraphic" in2="effect1_dropShadow_859_5372" result="shape"/>
</filter>
<radialGradient id="paint0_radial_859_5372" cx="0" cy="0" r="1" gradientUnits="userSpaceOnUse" gradientTransform="translate(304.338 178.673) rotate(34.302) scale(107.935 93.4741)">
<stop offset="0.236935" stop-color="#D7E1F4"/>
<stop offset="1" stop-color="#D7E1F4" stop-opacity="0"/>
</radialGradient>
<radialGradient id="paint1_radial_859_5372" cx="0" cy="0" r="1" gradientUnits="userSpaceOnUse" gradientTransform="translate(271.338 79.673) rotate(34.302) scale(107.935 93.4741)">
<stop offset="0.236935" stop-color="#D7E1F4"/>
<stop offset="1" stop-color="#D7E1F4" stop-opacity="0"/>
</radialGradient>
<radialGradient id="paint2_radial_859_5372" cx="0" cy="0" r="1" gradientUnits="userSpaceOnUse" gradientTransform="translate(112.338 38.673) rotate(34.302) scale(107.935 93.4741)">
<stop offset="0.236935" stop-color="#D7E1F4"/>
<stop offset="1" stop-color="#D7E1F4" stop-opacity="0"/>
</radialGradient>
<radialGradient id="paint3_radial_859_5372" cx="0" cy="0" r="1" gradientUnits="userSpaceOnUse" gradientTransform="translate(145.338 137.673) rotate(34.302) scale(107.935 93.4741)">
<stop offset="0.236935" stop-color="#D7E1F4"/>
<stop offset="1" stop-color="#D7E1F4" stop-opacity="0"/>
</radialGradient>
<radialGradient id="paint4_radial_859_5372" cx="0" cy="0" r="1" gradientUnits="userSpaceOnUse" gradientTransform="translate(464.338 224.673) rotate(34.302) scale(107.935 93.4741)">
<stop offset="0.236935" stop-color="#D7E1F4"/>
<stop offset="1" stop-color="#D7E1F4" stop-opacity="0"/>
</radialGradient>
<radialGradient id="paint5_radial_859_5372" cx="0" cy="0" r="1" gradientUnits="userSpaceOnUse" gradientTransform="translate(590.338 162.673) rotate(34.302) scale(107.935 93.4741)">
<stop offset="0.236935" stop-color="#D7E1F4"/>
<stop offset="1" stop-color="#D7E1F4" stop-opacity="0"/>
</radialGradient>
<radialGradient id="paint6_radial_859_5372" cx="0" cy="0" r="1" gradientUnits="userSpaceOnUse" gradientTransform="translate(715.338 104.673) rotate(34.302) scale(107.935 93.4741)">
<stop offset="0.236935" stop-color="#D7E1F4"/>
<stop offset="1" stop-color="#D7E1F4" stop-opacity="0"/>
</radialGradient>
<radialGradient id="paint7_radial_859_5372" cx="0" cy="0" r="1" gradientUnits="userSpaceOnUse" gradientTransform="translate(558.338 63.673) rotate(34.302) scale(107.935 93.4741)">
<stop offset="0.236935" stop-color="#D7E1F4"/>
<stop offset="1" stop-color="#D7E1F4" stop-opacity="0"/>
</radialGradient>
<radialGradient id="paint8_radial_859_5372" cx="0" cy="0" r="1" gradientUnits="userSpaceOnUse" gradientTransform="translate(400.338 24.673) rotate(34.302) scale(107.935 93.4741)">
<stop offset="0.236935" stop-color="#D7E1F4"/>
<stop offset="1" stop-color="#D7E1F4" stop-opacity="0"/>
</radialGradient>
<radialGradient id="paint9_radial_859_5372" cx="0" cy="0" r="1" gradientUnits="userSpaceOnUse" gradientTransform="translate(841.338 48.673) rotate(34.302) scale(107.935 93.4741)">
<stop offset="0.236935" stop-color="#D7E1F4"/>
<stop offset="1" stop-color="#D7E1F4" stop-opacity="0"/>
</radialGradient>
<radialGradient id="paint10_radial_859_5372" cx="0" cy="0" r="1" gradientUnits="userSpaceOnUse" gradientTransform="translate(748.338 204.673) rotate(34.302) scale(107.935 93.4741)">
<stop offset="0.236935" stop-color="#D7E1F4"/>
<stop offset="1" stop-color="#D7E1F4" stop-opacity="0"/>
</radialGradient>
<linearGradient id="paint11_linear_859_5372" x1="367.448" y1="80.4983" x2="421.623" y2="198.566" gradientUnits="userSpaceOnUse">
<stop stop-color="#0FC1B7"/>
<stop offset="1" stop-color="#D7E1F4" stop-opacity="0"/>
</linearGradient>
<radialGradient id="paint12_radial_859_5372" cx="0" cy="0" r="1" gradientUnits="userSpaceOnUse" gradientTransform="translate(430.857 99.9979) rotate(35.352) scale(75 64.9519)">
<stop offset="0.37094" stop-color="#0FC1B7" stop-opacity="0"/>
<stop offset="0.860777" stop-color="#0FC1B7"/>
</radialGradient>
<radialGradient id="paint13_radial_859_5372" cx="0" cy="0" r="1" gradientUnits="userSpaceOnUse" gradientTransform="translate(431 100) rotate(90) scale(100 431)">
<stop offset="0.514152" stop-color="#111F3B" stop-opacity="0"/>
<stop offset="1" stop-color="#111F3B"/>
</radialGradient>
<linearGradient id="paint14_linear_859_5372" x1="445" y1="31.5" x2="376.179" y2="108.266" gradientUnits="userSpaceOnUse">
<stop stop-color="#0FC1B7"/>
<stop offset="1" stop-color="#D7E1F4" stop-opacity="0"/>
</linearGradient>
<clipPath id="clip0_859_5372">
<rect width="862" height="200" fill="white"/>
</clipPath>
</defs>
</svg>
