<svg width="24" height="24" viewBox="0 0 24 24" fill="none" xmlns="http://www.w3.org/2000/svg">
<path fill-rule="evenodd" clip-rule="evenodd" d="M6 3C4.34315 3 3 4.34315 3 6V10C3 11.6569 4.34315 13 6 13H8C9.65685 13 11 11.6569 11 10V6C11 4.34315 9.65685 3 8 3H6ZM5 6C5 5.44772 5.44772 5 6 5H8C8.55228 5 9 5.44772 9 6V10C9 10.5523 8.55228 11 8 11H6C5.44772 11 5 10.5523 5 10V6Z" fill="black"/>
<path fill-rule="evenodd" clip-rule="evenodd" d="M6 14C4.34315 14 3 15.3431 3 17V18C3 19.6569 4.34315 21 6 21H8C9.65685 21 11 19.6569 11 18V17C11 15.3431 9.65685 14 8 14H6ZM5 17C5 16.4477 5.44772 16 6 16H8C8.55228 16 9 16.4477 9 17V18C9 18.5523 8.55228 19 8 19H6C5.44772 19 5 18.5523 5 18V17Z" fill="black"/>
<path fill-rule="evenodd" clip-rule="evenodd" d="M12 6C12 4.34315 13.3431 3 15 3H18C19.6569 3 21 4.34315 21 6V7C21 8.65685 19.6569 10 18 10H15C13.3431 10 12 8.65685 12 7V6ZM15 5C14.4477 5 14 5.44772 14 6V7C14 7.55228 14.4477 8 15 8H18C18.5523 8 19 7.55228 19 7V6C19 5.44772 18.5523 5 18 5H15Z" fill="black"/>
<path fill-rule="evenodd" clip-rule="evenodd" d="M15 11C13.3431 11 12 12.3431 12 14V18C12 19.6569 13.3431 21 15 21H18C19.6569 21 21 19.6569 21 18V14C21 12.3431 19.6569 11 18 11H15ZM14 14C14 13.4477 14.4477 13 15 13H18C18.5523 13 19 13.4477 19 14V18C19 18.5523 18.5523 19 18 19H15C14.4477 19 14 18.5523 14 18V14Z" fill="black"/>
</svg>
