<?xml version="1.0" encoding="UTF-8" standalone="no"?>
<svg
   xmlns:dc="http://purl.org/dc/elements/1.1/"
   xmlns:cc="http://creativecommons.org/ns#"
   xmlns:rdf="http://www.w3.org/1999/02/22-rdf-syntax-ns#"
   xmlns:svg="http://www.w3.org/2000/svg"
   xmlns="http://www.w3.org/2000/svg"
   xmlns:sodipodi="http://sodipodi.sourceforge.net/DTD/sodipodi-0.dtd"
   xmlns:inkscape="http://www.inkscape.org/namespaces/inkscape"
   inkscape:version="1.0beta2 (2b71d25, 2019-12-03)"
   sodipodi:docname="Bee.svg"
   id="svg835"
   version="1.1"
   fill="none"
   viewBox="0 0 34 23"
   height="23"
   width="34">
  <metadata
     id="metadata841">
    <rdf:RDF>
      <cc:Work
         rdf:about="">
        <dc:format>image/svg+xml</dc:format>
        <dc:type
           rdf:resource="http://purl.org/dc/dcmitype/StillImage" />
      </cc:Work>
    </rdf:RDF>
  </metadata>
  <defs
     id="defs839" />
  <sodipodi:namedview
     inkscape:current-layer="svg835"
     inkscape:window-maximized="0"
     inkscape:window-y="0"
     inkscape:window-x="0"
     inkscape:cy="11.5"
     inkscape:cx="17"
     inkscape:zoom="27.411765"
     showgrid="false"
     id="namedview837"
     inkscape:window-height="1120"
     inkscape:window-width="1792"
     inkscape:pageshadow="2"
     inkscape:pageopacity="0"
     guidetolerance="10"
     gridtolerance="10"
     objecttolerance="10"
     borderopacity="1"
     inkscape:document-rotation="0"
     bordercolor="#666666"
     pagecolor="#ffffff" />
  <path
     style="fill:#000000;fill-opacity:1"
     id="path833"
     fill="#485776"
     d="M20.1883 4.20801C20.1883 3.39055 19.4532 2.73172 18.689 2.26765C18.825 2.09713 18.9705 1.93907 19.1255 1.79984C19.6048 1.38819 20.1883 1.18236 20.7926 1.0177C20.8343 1.0177 20.876 0.997116 20.9176 0.976533C21.1677 0.832454 21.2511 0.503131 21.1052 0.256139C20.9593 0.00914697 20.6259 -0.0731826 20.3758 0.0708963C20.0424 0.235558 19.7507 0.441383 19.4589 0.667793C19.1672 0.894202 18.9171 1.16178 18.7088 1.47052C18.5848 1.67457 18.47 1.87862 18.3762 2.08862C18.152 1.96743 17.9336 1.86366 17.7393 1.77826C17.2687 1.57141 16.735 1.58141 16.2701 1.8006C16.05 1.9044 15.7984 2.03238 15.5425 2.18161C15.4471 1.93284 15.3248 1.68977 15.1662 1.47053C14.9578 1.16179 14.7078 0.894215 14.416 0.667806C14.1243 0.441401 13.8117 0.256161 13.4992 0.0709208C13.4783 0.0606295 13.4575 0.0554717 13.4366 0.0503253C13.4158 0.0451789 13.3949 0.0400325 13.3741 0.0297412C13.0824 -0.0525895 12.8115 0.112076 12.7281 0.400233C12.6448 0.688391 12.8115 0.955961 13.1032 1.03829C13.7075 1.20295 14.291 1.40878 14.7703 1.82044C14.9454 1.97767 15.1083 2.15893 15.2591 2.35504C14.523 2.82886 13.8325 3.46997 13.8325 4.20801C13.8325 5.07938 14.3031 5.85643 15.0336 6.3619C14.6912 6.55496 14.3838 6.79831 14.1199 7.08347C14.1008 7.07803 14.0814 7.07318 14.0618 7.06896C10.4359 6.26624 5.12206 5.31944 1.97544 4.82545C0.850165 4.66079 0.183333 5.31944 0.0374631 6.03983C-0.129245 6.86314 0.266688 7.91285 1.10023 8.88024C1.99628 9.88879 3.24659 10.6504 4.62193 10.9797C4.85603 11.0405 5.09924 11.0906 5.34939 11.1309C5.30487 11.2971 5.28503 11.4681 5.28878 11.6383C5.30962 13.1409 6.85167 14.17 8.20617 14.17C10.4587 14.17 12.2837 12.7844 13.4565 11.577C13.5987 11.8851 13.7785 12.1691 13.9908 12.4238C13.4013 13.3508 13.0823 14.5667 13.0823 15.9401C13.0823 18.8835 14.5827 23 17.0208 23C19.4589 23 20.9593 18.8835 20.9176 15.9401C20.9176 14.5778 20.6053 13.3763 20.0246 12.4549C20.237 12.2057 20.4178 11.9276 20.5622 11.6257C21.7363 12.8282 23.5457 14.17 25.773 14.17C27.1275 14.17 28.6696 13.1203 28.6904 11.6384C28.6904 11.469 28.6677 11.2989 28.6213 11.1335C28.88 11.0927 29.1328 11.0419 29.3781 10.9797C30.7534 10.6504 32.0037 9.88886 32.8998 8.88031C33.7333 7.93351 34.1292 6.86321 33.9625 6.0399C33.8167 5.29892 33.1498 4.64028 32.0246 4.82552C28.8779 5.31951 23.585 6.26631 19.9382 7.06904C19.93 7.07081 19.9218 7.07269 19.9136 7.07469C19.65 6.79165 19.3433 6.55014 19.002 6.35851C19.7328 5.8495 20.2002 5.06934 20.1883 4.20801ZM18.7243 13.4369C18.2144 13.6707 17.6389 13.7995 17.0208 13.7995C16.3859 13.7995 15.7957 13.6636 15.2756 13.4175C14.9421 14.0003 14.7499 14.7673 14.7139 15.6372L14.7912 15.6828C15.0251 15.8208 15.2534 15.9555 15.4996 16.0636C15.7079 16.1846 15.9234 16.2843 16.1461 16.3668C16.271 16.4131 16.2648 16.5962 16.1331 16.6173C15.8779 16.6583 15.6197 16.6811 15.3538 16.6811C15.1484 16.6908 14.9431 16.6868 14.74 16.6799C14.799 17.3694 14.9357 18.046 15.1212 18.6618C15.2677 18.7483 15.4129 18.8303 15.5621 18.904C15.7621 19.0151 15.9695 19.1113 16.1843 19.1928C16.3063 19.2391 16.3011 19.4147 16.1725 19.4376C15.9291 19.4809 15.6792 19.5089 15.4371 19.5215L15.4273 19.522C15.8901 20.6343 16.4967 21.3946 17 21.3946C17.5011 21.3946 18.1047 20.6408 18.5667 19.5361C18.3345 19.512 18.1087 19.481 17.8895 19.4398C17.7612 19.4156 17.7563 19.2392 17.8786 19.194C18.0934 19.1145 18.3006 19.0233 18.5004 18.9246C18.6212 18.8649 18.7392 18.7999 18.8575 18.7314C19.0536 18.0977 19.1985 17.3968 19.2598 16.6819C19.0772 16.6875 18.893 16.6898 18.7088 16.6811C18.4459 16.6811 18.1829 16.6588 17.929 16.6187C17.7974 16.5979 17.7929 16.4175 17.9185 16.3734C18.1508 16.2918 18.371 16.1954 18.5837 16.0842C18.8098 15.966 19.0359 15.8394 19.2674 15.7098L19.2882 15.6981C19.2582 14.8132 19.0628 14.0375 18.7243 13.4369ZM17.393 3.22139C17.1534 3.13134 16.8899 3.13667 16.653 3.23352C16.191 3.42245 15.4579 3.78554 15.4579 4.18742C15.4579 4.77422 16.1665 5.34005 17.0208 5.34005C17.8544 5.34005 18.5837 4.87822 18.5837 4.18742C18.5959 3.74411 17.8591 3.39656 17.393 3.22139ZM17.0208 7.48065C15.6663 7.48065 14.7286 8.44804 14.7286 9.82708C14.7286 11.2061 15.6663 12.1735 17.0208 12.1735C18.3753 12.1735 19.3131 11.2061 19.3131 9.82708C19.3131 8.44804 18.3753 7.48065 17.0208 7.48065ZM28.9405 9.2508C26.4398 9.8477 22.7097 9.08614 20.9593 8.67448C24.3768 7.95409 29.1905 7.08962 32.1913 6.61621C32.0246 7.27486 30.9826 8.75682 28.9405 9.2508ZM22.4805 10.9591C23.3557 11.7001 24.5019 12.3794 25.773 12.3794C26.2523 12.3794 26.5857 12.1324 26.7524 11.9059C26.8774 11.7413 26.8774 11.6178 26.8774 11.5766C26.8566 11.556 26.7107 11.4531 26.3148 11.4325C25.127 11.412 23.8767 11.2473 22.4805 10.9591ZM1.7879 6.61614C1.93377 7.27479 2.97569 8.75675 5.0387 9.25073C7.51848 9.84763 11.2694 9.08607 13.0198 8.67441C9.60233 7.95402 4.78864 7.08955 1.7879 6.61614ZM7.66437 11.4325C8.85217 11.3913 10.1025 11.2473 11.4987 10.9591C10.6234 11.7207 9.47732 12.3793 8.20617 12.3793C7.74773 12.3793 7.39347 12.1323 7.22676 11.9059C7.10173 11.7207 7.10173 11.5972 7.10173 11.5766C7.12257 11.5354 7.26844 11.4531 7.66437 11.4325Z"
     clip-rule="evenodd"
     fill-rule="evenodd" />
</svg>
