<?xml version="1.0" encoding="UTF-8" standalone="no"?>
<svg
   xmlns:dc="http://purl.org/dc/elements/1.1/"
   xmlns:cc="http://creativecommons.org/ns#"
   xmlns:rdf="http://www.w3.org/1999/02/22-rdf-syntax-ns#"
   xmlns:svg="http://www.w3.org/2000/svg"
   xmlns="http://www.w3.org/2000/svg"
   xmlns:sodipodi="http://sodipodi.sourceforge.net/DTD/sodipodi-0.dtd"
   xmlns:inkscape="http://www.inkscape.org/namespaces/inkscape"
   inkscape:version="1.0beta2 (2b71d25, 2019-12-03)"
   sodipodi:docname="Union.svg"
   id="svg841"
   version="1.1"
   fill="none"
   viewBox="0 0 22 22"
   height="22"
   width="22">
  <metadata
     id="metadata847">
    <rdf:RDF>
      <cc:Work
         rdf:about="">
        <dc:format>image/svg+xml</dc:format>
        <dc:type
           rdf:resource="http://purl.org/dc/dcmitype/StillImage" />
      </cc:Work>
    </rdf:RDF>
  </metadata>
  <defs
     id="defs845" />
  <sodipodi:namedview
     inkscape:current-layer="svg841"
     inkscape:window-maximized="0"
     inkscape:window-y="0"
     inkscape:window-x="0"
     inkscape:cy="11"
     inkscape:cx="11"
     inkscape:zoom="30.545455"
     showgrid="false"
     id="namedview843"
     inkscape:window-height="1120"
     inkscape:window-width="1792"
     inkscape:pageshadow="2"
     inkscape:pageopacity="0"
     guidetolerance="10"
     gridtolerance="10"
     objecttolerance="10"
     borderopacity="1"
     inkscape:document-rotation="0"
     bordercolor="#666666"
     pagecolor="#ffffff" />
  <path
     style="fill:#000000;fill-opacity:1"
     id="path833"
     fill="#485776"
     d="M3.66667 0C1.64162 0 0 1.64162 0 3.66667V8.55556C0 10.5806 1.64162 12.2222 3.66667 12.2222H6.11111C8.13616 12.2222 9.77778 10.5806 9.77778 8.55556V3.66667C9.77778 1.64162 8.13616 0 6.11111 0H3.66667ZM2.44444 3.66667C2.44444 2.99165 2.99165 2.44444 3.66667 2.44444H6.11111C6.78613 2.44444 7.33333 2.99165 7.33333 3.66667V8.55556C7.33333 9.23057 6.78613 9.77778 6.11111 9.77778H3.66667C2.99165 9.77778 2.44444 9.23057 2.44444 8.55556V3.66667Z"
     clip-rule="evenodd"
     fill-rule="evenodd" />
  <path
     style="fill:#000000;fill-opacity:1"
     id="path835"
     fill="#485776"
     d="M3.66667 13.4444C1.64162 13.4444 0 15.0861 0 17.1111V18.3333C0 20.3584 1.64162 22 3.66667 22H6.11111C8.13616 22 9.77778 20.3584 9.77778 18.3333V17.1111C9.77778 15.0861 8.13616 13.4444 6.11111 13.4444H3.66667ZM2.44444 17.1111C2.44444 16.4361 2.99165 15.8889 3.66667 15.8889H6.11111C6.78613 15.8889 7.33333 16.4361 7.33333 17.1111V18.3333C7.33333 19.0083 6.78613 19.5556 6.11111 19.5556H3.66667C2.99165 19.5556 2.44444 19.0083 2.44444 18.3333V17.1111Z"
     clip-rule="evenodd"
     fill-rule="evenodd" />
  <path
     style="fill:#000000;fill-opacity:1"
     id="path837"
     fill="#485776"
     d="M11 3.66667C11 1.64162 12.6416 0 14.6667 0H18.3333C20.3584 0 22 1.64162 22 3.66667V4.88889C22 6.91393 20.3584 8.55556 18.3333 8.55556H14.6667C12.6416 8.55556 11 6.91393 11 4.88889V3.66667ZM14.6667 2.44444C13.9917 2.44444 13.4444 2.99165 13.4444 3.66667V4.88889C13.4444 5.5639 13.9917 6.11111 14.6667 6.11111H18.3333C19.0083 6.11111 19.5556 5.5639 19.5556 4.88889V3.66667C19.5556 2.99165 19.0083 2.44444 18.3333 2.44444H14.6667Z"
     clip-rule="evenodd"
     fill-rule="evenodd" />
  <path
     style="fill:#000000;fill-opacity:1"
     id="path839"
     fill="#485776"
     d="M14.6667 9.77778C12.6416 9.77778 11 11.4194 11 13.4444V18.3333C11 20.3584 12.6416 22 14.6667 22H18.3333C20.3584 22 22 20.3584 22 18.3333V13.4444C22 11.4194 20.3584 9.77778 18.3333 9.77778H14.6667ZM13.4444 13.4444C13.4444 12.7694 13.9917 12.2222 14.6667 12.2222H18.3333C19.0083 12.2222 19.5556 12.7694 19.5556 13.4444V18.3333C19.5556 19.0083 19.0083 19.5556 18.3333 19.5556H14.6667C13.9917 19.5556 13.4444 19.0083 13.4444 18.3333V13.4444Z"
     clip-rule="evenodd"
     fill-rule="evenodd" />
</svg>
