<?xml version="1.0" encoding="UTF-8" standalone="no"?>
<svg
   xmlns:dc="http://purl.org/dc/elements/1.1/"
   xmlns:cc="http://creativecommons.org/ns#"
   xmlns:rdf="http://www.w3.org/1999/02/22-rdf-syntax-ns#"
   xmlns:svg="http://www.w3.org/2000/svg"
   xmlns="http://www.w3.org/2000/svg"
   xmlns:sodipodi="http://sodipodi.sourceforge.net/DTD/sodipodi-0.dtd"
   xmlns:inkscape="http://www.inkscape.org/namespaces/inkscape"
   inkscape:version="1.0beta2 (2b71d25, 2019-12-03)"
   sodipodi:docname="Union Kopie 3.svg"
   id="svg837"
   version="1.1"
   fill="none"
   viewBox="0 0 28 30"
   height="30"
   width="28">
  <metadata
     id="metadata843">
    <rdf:RDF>
      <cc:Work
         rdf:about="">
        <dc:format>image/svg+xml</dc:format>
        <dc:type
           rdf:resource="http://purl.org/dc/dcmitype/StillImage" />
      </cc:Work>
    </rdf:RDF>
  </metadata>
  <defs
     id="defs841" />
  <sodipodi:namedview
     inkscape:current-layer="svg837"
     inkscape:window-maximized="0"
     inkscape:window-y="0"
     inkscape:window-x="0"
     inkscape:cy="15"
     inkscape:cx="14"
     inkscape:zoom="22.4"
     showgrid="false"
     id="namedview839"
     inkscape:window-height="1120"
     inkscape:window-width="1792"
     inkscape:pageshadow="2"
     inkscape:pageopacity="0"
     guidetolerance="10"
     gridtolerance="10"
     objecttolerance="10"
     borderopacity="1"
     inkscape:document-rotation="0"
     bordercolor="#666666"
     pagecolor="#ffffff" />
  <path
     style="fill:#000000;fill-opacity:1"
     id="path833"
     fill="#485776"
     d="M18.4708 19.0283C19.4154 18.5229 20 17.5721 20 16.5412V13.4588C20 12.4279 19.4154 11.4771 18.4708 10.9717L15.4708 9.3665C14.5576 8.87783 13.4424 8.87783 12.5292 9.3665L9.52916 10.9717C8.58456 11.4771 8 12.4279 8 13.4588V16.5412C8 17.5721 8.58456 18.5229 9.52916 19.0283L12.5292 20.6335C13.4424 21.1222 14.5576 21.1222 15.4708 20.6335L18.4708 19.0283ZM18 13.4588V16.5412C18 16.799 17.8534 17.0904 17.5273 17.2649L14.5273 18.8701C14.2035 19.0433 13.7965 19.0433 13.4727 18.8701L10.4727 17.2649C10.1466 17.0904 10 16.799 10 16.5412V13.4588C10 13.201 10.1466 12.9096 10.4727 12.7351L13.4727 11.1299C13.7965 10.9567 14.2035 10.9567 14.5273 11.1299L17.5273 12.7351C17.8534 12.9096 18 13.201 18 13.4588Z"
     clip-rule="evenodd"
     fill-rule="evenodd" />
  <path
     style="fill:#000000;fill-opacity:1"
     id="path835"
     fill="#485776"
     d="M25.2675 24.1524C26.6499 23.3481 27.5 21.872 27.5 20.2758V9.72417C27.5 8.12799 26.6499 6.65192 25.2675 5.84762L16.2675 0.611405C14.8663 -0.203801 13.1337 -0.203802 11.7325 0.611404L2.73249 5.84762C1.35006 6.65192 0.5 8.12799 0.5 9.72417V20.2758C0.5 21.872 1.35006 23.3481 2.73249 24.1524L11.7325 29.3886C13.1337 30.2038 14.8663 30.2038 16.2675 29.3886L25.2675 24.1524ZM25.5 9.72417V20.2758C25.5 21.1581 25.0302 21.9766 24.2617 22.4237L15.2617 27.6599C14.4823 28.1134 13.5177 28.1134 12.7383 27.6599L3.73826 22.4237C2.96985 21.9766 2.5 21.1581 2.5 20.2758V9.72417C2.5 8.84191 2.96985 8.02339 3.73826 7.57633L12.7383 2.34011C13.5177 1.88663 14.4823 1.88663 15.2617 2.34011L24.2617 7.57633C25.0302 8.02339 25.5 8.84191 25.5 9.72417Z"
     clip-rule="evenodd"
     fill-rule="evenodd" />
</svg>
