<?xml version="1.0" encoding="UTF-8" standalone="no"?>
<svg
   xmlns:dc="http://purl.org/dc/elements/1.1/"
   xmlns:cc="http://creativecommons.org/ns#"
   xmlns:rdf="http://www.w3.org/1999/02/22-rdf-syntax-ns#"
   xmlns:svg="http://www.w3.org/2000/svg"
   xmlns="http://www.w3.org/2000/svg"
   xmlns:sodipodi="http://sodipodi.sourceforge.net/DTD/sodipodi-0.dtd"
   xmlns:inkscape="http://www.inkscape.org/namespaces/inkscape"
   inkscape:version="1.0beta2 (2b71d25, 2019-12-03)"
   sodipodi:docname="Vector.svg"
   id="svg835"
   version="1.1"
   fill="none"
   viewBox="0 0 28 32"
   height="32"
   width="28">
  <metadata
     id="metadata841">
    <rdf:RDF>
      <cc:Work
         rdf:about="">
        <dc:format>image/svg+xml</dc:format>
        <dc:type
           rdf:resource="http://purl.org/dc/dcmitype/StillImage" />
      </cc:Work>
    </rdf:RDF>
  </metadata>
  <defs
     id="defs839" />
  <sodipodi:namedview
     inkscape:current-layer="svg835"
     inkscape:window-maximized="0"
     inkscape:window-y="0"
     inkscape:window-x="0"
     inkscape:cy="16"
     inkscape:cx="14"
     inkscape:zoom="21"
     showgrid="false"
     id="namedview837"
     inkscape:window-height="1120"
     inkscape:window-width="1792"
     inkscape:pageshadow="2"
     inkscape:pageopacity="0"
     guidetolerance="10"
     gridtolerance="10"
     objecttolerance="10"
     borderopacity="1"
     inkscape:document-rotation="0"
     bordercolor="#666666"
     pagecolor="#ffffff" />
  <path
     style="fill:#000000;fill-opacity:1"
     id="path833"
     fill="#485776"
     d="M23.2481 12.4399C25.6843 10.8769 27.2472 8.35372 27.7988 5.16069C28.1895 2.79382 27.8908 0.895869 27.8908 0.806554C27.8448 0.471621 27.615 0.203674 27.2932 0.0697008C26.9714 -0.0642725 26.6037 0.00271419 26.3509 0.203674L11.5724 11.3011C11.8253 10.3187 11.6414 9.31386 11.0438 8.51002C10.0785 7.2596 8.44668 7.03631 7.1596 7.52755L6.97573 7.4159C6.0334 6.81302 5.04511 6.67905 4.05682 7.03631C2.14918 7.72851 0.655253 10.1847 0.011714 12.3059C-0.0342531 12.4846 0.0576811 12.6855 0.24155 12.7525C0.287517 12.7748 0.333484 12.7748 0.402435 12.7748C0.540336 12.7748 0.678237 12.7078 0.747188 12.5739C1.75846 10.5866 3.43626 8.86728 4.65439 8.577C4.99915 8.48769 5.29793 8.53235 5.55075 8.68865L5.6197 8.73331C4.97616 9.51482 4.58544 10.5196 4.44754 11.703C4.30964 12.9311 4.49351 14.2709 4.90721 15.1864C5.0681 15.5436 5.41285 15.7446 5.80357 15.7446C5.8955 15.7446 6.01042 15.7222 6.10236 15.6999C6.99871 15.4096 8.44668 14.8514 9.64182 13.9806C9.48094 14.3155 9.389 14.6728 9.36602 15.0524C9.29707 15.9232 9.57287 16.7717 10.1475 17.4416C10.722 18.1114 11.5495 18.5357 12.4458 18.6027C12.5378 18.6027 12.6527 18.625 12.7446 18.625C12.7676 18.625 12.8136 18.625 12.8365 18.625C12.0091 19.7638 11.7103 21.3715 12.4918 23.1354C14.1926 26.9313 12.0551 29.4545 10.5382 30.3477C10.1934 30.5486 10.0096 30.9505 10.1245 31.3301C10.2394 31.7097 10.5841 31.9777 10.9979 32C11.1358 32 11.2737 32 11.4116 32C16.8816 32 19.2949 29.3875 20.2602 27.8022C21.8001 25.2567 21.7312 21.9743 20.0764 19.2502C19.226 17.8435 17.5711 16.6824 15.7095 16.928C15.9393 16.5261 16.0772 16.1018 16.1232 15.6329C16.1692 15.1194 16.1002 14.6281 15.8933 14.1592C16.33 14.2039 16.7667 14.2262 17.2264 14.2262C19.0881 14.1592 21.2255 13.7573 23.2481 12.4399ZM6.42413 13.534C6.33219 13.0428 6.28622 12.4622 6.35517 11.8594C6.44711 11.0778 6.72291 10.0284 7.59629 9.4255C7.80314 9.2692 8.12491 9.17988 8.44668 9.17988C8.81441 9.17988 9.20514 9.31386 9.45795 9.64879C9.91763 10.274 9.71077 11.1002 9.29707 11.6361C8.74546 12.3283 7.73419 13.0205 6.42413 13.534ZM12.5837 16.6824C12.193 16.6601 11.8482 16.4814 11.5954 16.1912C11.3426 15.9009 11.2277 15.5436 11.2507 15.164C11.2737 14.7844 11.4575 14.4495 11.7563 14.2039C12.0091 13.9806 12.3539 13.8689 12.6757 13.8689C12.7216 13.8689 12.7676 13.8689 12.7906 13.8689C13.1813 13.8913 13.526 14.0699 13.7789 14.3602C14.0317 14.6505 14.1466 15.0077 14.1236 15.3873C14.1006 15.7669 13.9168 16.1018 13.618 16.3475C13.3422 16.5931 12.9744 16.7047 12.5837 16.6824ZM16.2151 18.625C16.8127 18.625 17.4562 18.8706 18.0308 19.4958C18.0998 19.5628 18.0998 19.6521 18.0768 19.7191C17.732 20.4336 16.9966 21.3045 16.2841 21.751C16.1692 21.818 16.1232 21.9743 16.1692 22.086C16.2151 22.22 16.376 22.2869 16.5139 22.2646C17.0885 22.153 17.9159 21.8404 18.6054 21.4161C18.6744 21.3715 18.7203 21.3491 18.7893 21.3045C18.9042 21.2152 19.0881 21.2821 19.134 21.4161C19.4328 22.2423 19.5707 23.0908 19.5477 23.9169C19.5477 24.0063 19.4788 24.0956 19.3868 24.1179C18.6514 24.3635 17.778 24.4975 17.0885 24.3859C16.9276 24.3635 16.7667 24.4082 16.7208 24.5645C16.6518 24.7208 16.7437 24.8548 16.8816 24.9441C17.3873 25.2344 18.1457 25.547 18.9502 25.7256C19.0881 25.7479 19.18 25.9042 19.111 26.0159C18.9961 26.3061 18.8582 26.5741 18.6973 26.842C18.4445 27.2663 18.1457 27.6459 17.801 27.9808C17.732 28.0478 17.6171 28.0701 17.5252 28.0255C17.1574 27.8468 16.8127 27.6235 16.5599 27.4226C16.4679 27.3333 16.33 27.3333 16.2381 27.4226C16.1462 27.4896 16.1002 27.6459 16.1692 27.7575C16.2841 27.9808 16.4909 28.2711 16.7208 28.5837C16.7897 28.6953 16.7667 28.8293 16.6748 28.8963C15.9393 29.3429 15.1119 29.6778 14.1696 29.9011C13.9627 29.9457 13.8248 29.7448 13.9168 29.5662C15.3188 27.3556 15.1809 24.5645 14.2156 22.3986C13.4571 20.7016 14.2155 19.3842 15.2498 18.8929C15.4796 18.7143 15.8244 18.625 16.2151 18.625ZM14.0547 11.837L26.0521 2.81615C26.0291 5.00438 25.4545 8.75564 22.1679 10.8769C19.2719 12.7302 15.9623 12.3283 14.0547 11.837Z" />
</svg>
