<?xml version="1.0" encoding="UTF-8" standalone="no"?>
<svg
   xmlns:dc="http://purl.org/dc/elements/1.1/"
   xmlns:cc="http://creativecommons.org/ns#"
   xmlns:rdf="http://www.w3.org/1999/02/22-rdf-syntax-ns#"
   xmlns:svg="http://www.w3.org/2000/svg"
   xmlns="http://www.w3.org/2000/svg"
   xmlns:sodipodi="http://sodipodi.sourceforge.net/DTD/sodipodi-0.dtd"
   xmlns:inkscape="http://www.inkscape.org/namespaces/inkscape"
   inkscape:version="1.0beta2 (2b71d25, 2019-12-03)"
   sodipodi:docname="Group 2748.svg"
   id="svg839"
   version="1.1"
   fill="none"
   viewBox="0 0 27 27"
   height="27"
   width="27">
  <metadata
     id="metadata845">
    <rdf:RDF>
      <cc:Work
         rdf:about="">
        <dc:format>image/svg+xml</dc:format>
        <dc:type
           rdf:resource="http://purl.org/dc/dcmitype/StillImage" />
      </cc:Work>
    </rdf:RDF>
  </metadata>
  <defs
     id="defs843" />
  <sodipodi:namedview
     inkscape:current-layer="svg839"
     inkscape:window-maximized="0"
     inkscape:window-y="0"
     inkscape:window-x="0"
     inkscape:cy="13.5"
     inkscape:cx="13.5"
     inkscape:zoom="24.888889"
     showgrid="false"
     id="namedview841"
     inkscape:window-height="1120"
     inkscape:window-width="1792"
     inkscape:pageshadow="2"
     inkscape:pageopacity="0"
     guidetolerance="10"
     gridtolerance="10"
     objecttolerance="10"
     borderopacity="1"
     inkscape:document-rotation="0"
     bordercolor="#666666"
     pagecolor="#ffffff" />
  <path
     style="fill:#000000;fill-opacity:1"
     id="path833"
     fill="#485776"
     d="M0 1.0652C0 0.476906 0.47594 0 1.06304 0H13.0223C15.6978 0 18.1878 0.809651 20.2576 2.19796C20.7455 2.5252 20.8763 3.1868 20.5497 3.67568C20.2231 4.16455 19.5628 4.29558 19.075 3.96834C17.3441 2.80742 15.2637 2.1304 13.0223 2.1304H1.06304C0.47594 2.1304 0 1.65349 0 1.0652ZM21.8391 4.88273C22.3035 4.5229 22.9712 4.6085 23.3303 5.07392C25.0316 7.27904 26.0445 10.0468 26.0445 13.0487C26.0445 18.2311 23.0294 22.7058 18.6658 24.8114C18.1369 25.0666 17.5016 24.8439 17.2468 24.3138C16.9921 23.7838 17.2144 23.1472 17.7434 22.892C21.3992 21.1279 23.9185 17.3821 23.9185 13.0487C23.9185 10.5348 23.0719 8.22212 21.6483 6.37697C21.2892 5.91155 21.3746 5.24256 21.8391 4.88273ZM0 25.0322C0 24.4439 0.47594 23.967 1.06304 23.967H14.6168C15.2039 23.967 15.6799 24.4439 15.6799 25.0322C15.6799 25.6205 15.2039 26.0974 14.6168 26.0974H1.06304C0.47594 26.0974 0 25.6205 0 25.0322Z"
     clip-rule="evenodd"
     fill-rule="evenodd" />
  <path
     style="fill:#000000;fill-opacity:1"
     id="path835"
     fill="#485776"
     d="M2.125 5.85817C2.125 5.26987 2.60094 4.79297 3.18804 4.79297H13.0212C15.8122 4.79297 18.2787 6.18462 19.7672 8.30841C20.1046 8.78983 19.9887 9.45419 19.5083 9.79231C19.0278 10.1304 18.3648 10.0142 18.0274 9.53282C16.9198 7.9526 15.0904 6.92337 13.0212 6.92337H3.18804C2.60094 6.92337 2.125 6.44646 2.125 5.85817ZM20.1967 11.9831C20.7838 11.9831 21.2598 12.46 21.2598 13.0483C21.2598 17.6075 17.5712 21.3035 13.0212 21.3035H3.18804C2.60094 21.3035 2.125 20.8266 2.125 20.2383C2.125 19.6501 2.60094 19.1732 3.18804 19.1732H13.0212C16.397 19.1732 19.1337 16.4309 19.1337 13.0483C19.1337 12.46 19.6096 11.9831 20.1967 11.9831Z"
     clip-rule="evenodd"
     fill-rule="evenodd" />
  <path
     style="fill:#000000;fill-opacity:1"
     id="path837"
     fill="#485776"
     d="M3.7207 10.3855C3.7207 9.79722 4.19664 9.32031 4.78375 9.32031H12.4908C14.5457 9.32031 16.2114 10.9895 16.2114 13.0485C16.2114 15.1075 14.5457 16.7767 12.4908 16.7767C11.9037 16.7767 11.4278 16.2998 11.4278 15.7115C11.4278 15.1232 11.9037 14.6463 12.4908 14.6463C13.3715 14.6463 14.0854 13.9309 14.0854 13.0485C14.0854 12.1661 13.3715 11.4507 12.4908 11.4507H4.78375C4.19664 11.4507 3.7207 10.9738 3.7207 10.3855ZM3.7207 15.7115C3.7207 15.1232 4.19664 14.6463 4.78375 14.6463H8.50439C9.0915 14.6463 9.56744 15.1232 9.56744 15.7115C9.56744 16.2998 9.0915 16.7767 8.50439 16.7767H4.78375C4.19664 16.7767 3.7207 16.2998 3.7207 15.7115Z"
     clip-rule="evenodd"
     fill-rule="evenodd" />
</svg>
