<?xml version="1.0" encoding="UTF-8" standalone="no"?>
<svg
   xmlns:dc="http://purl.org/dc/elements/1.1/"
   xmlns:cc="http://creativecommons.org/ns#"
   xmlns:rdf="http://www.w3.org/1999/02/22-rdf-syntax-ns#"
   xmlns:svg="http://www.w3.org/2000/svg"
   xmlns="http://www.w3.org/2000/svg"
   xmlns:sodipodi="http://sodipodi.sourceforge.net/DTD/sodipodi-0.dtd"
   xmlns:inkscape="http://www.inkscape.org/namespaces/inkscape"
   inkscape:version="1.0beta2 (2b71d25, 2019-12-03)"
   sodipodi:docname="iota_mark.svg"
   id="svg941"
   version="1.1"
   fill="none"
   viewBox="0 0 32 32"
   height="32"
   width="32">
  <metadata
     id="metadata947">
    <rdf:RDF>
      <cc:Work
         rdf:about="">
        <dc:format>image/svg+xml</dc:format>
        <dc:type
           rdf:resource="http://purl.org/dc/dcmitype/StillImage" />
      </cc:Work>
    </rdf:RDF>
  </metadata>
  <defs
     id="defs945" />
  <sodipodi:namedview
     inkscape:current-layer="svg941"
     inkscape:window-maximized="0"
     inkscape:window-y="0"
     inkscape:window-x="0"
     inkscape:cy="16"
     inkscape:cx="16"
     inkscape:zoom="21"
     showgrid="false"
     id="namedview943"
     inkscape:window-height="1120"
     inkscape:window-width="1792"
     inkscape:pageshadow="2"
     inkscape:pageopacity="0"
     guidetolerance="10"
     gridtolerance="10"
     objecttolerance="10"
     borderopacity="1"
     inkscape:document-rotation="0"
     bordercolor="#666666"
     pagecolor="#ffffff" />
  <path
     style="fill:#000000;fill-opacity:1"
     id="path833"
     fill="#485776"
     d="M21.5481 6.87793C22.3449 6.87793 22.9908 6.23368 22.9908 5.43896C22.9908 4.64425 22.3449 4 21.5481 4C20.7514 4 20.1055 4.64425 20.1055 5.43896C20.1055 6.23368 20.7514 6.87793 21.5481 6.87793Z" />
  <path
     style="fill:#000000;fill-opacity:1"
     id="path835"
     fill="#485776"
     d="M23.1712 27.2036C23.968 27.2036 24.6139 26.5594 24.6139 25.7646C24.6139 24.9699 23.968 24.3257 23.1712 24.3257C22.3744 24.3257 21.7285 24.9699 21.7285 25.7646C21.7285 26.5594 22.3744 27.2036 23.1712 27.2036Z" />
  <path
     style="fill:#000000;fill-opacity:1"
     id="path837"
     fill="#485776"
     d="M21.9608 10.4755C22.6295 10.4755 23.1716 9.93475 23.1716 9.26776C23.1716 8.60076 22.6295 8.06006 21.9608 8.06006C21.2921 8.06006 20.75 8.60076 20.75 9.26776C20.75 9.93475 21.2921 10.4755 21.9608 10.4755Z" />
  <path
     style="fill:#000000;fill-opacity:1"
     id="path839"
     fill="#485776"
     d="M25.1796 10.9379C25.8483 10.9379 26.3904 10.3972 26.3904 9.73016C26.3904 9.06317 25.8483 8.52246 25.1796 8.52246C24.5109 8.52246 23.9688 9.06317 23.9688 9.73016C23.9688 10.3972 24.5109 10.9379 25.1796 10.9379Z" />
  <path
     style="fill:#000000;fill-opacity:1"
     id="path841"
     fill="#485776"
     d="M21.5481 13.5332C22.1172 13.5332 22.5786 13.073 22.5786 12.5054C22.5786 11.9377 22.1172 11.4775 21.5481 11.4775C20.9789 11.4775 20.5176 11.9377 20.5176 12.5054C20.5176 13.073 20.9789 13.5332 21.5481 13.5332Z" />
  <path
     style="fill:#000000;fill-opacity:1"
     id="path843"
     fill="#485776"
     d="M24.7688 13.9702C25.3379 13.9702 25.7993 13.51 25.7993 12.9424C25.7993 12.3747 25.3379 11.9146 24.7688 11.9146C24.1996 11.9146 23.7383 12.3747 23.7383 12.9424C23.7383 13.51 24.1996 13.9702 24.7688 13.9702Z" />
  <path
     style="fill:#000000;fill-opacity:1"
     id="path845"
     fill="#485776"
     d="M27.3449 14.9722C27.9141 14.9722 28.3754 14.512 28.3754 13.9443C28.3754 13.3767 27.9141 12.9165 27.3449 12.9165C26.7758 12.9165 26.3145 13.3767 26.3145 13.9443C26.3145 14.512 26.7758 14.9722 27.3449 14.9722Z" />
  <path
     style="fill:#000000;fill-opacity:1"
     id="path847"
     fill="#485776"
     d="M23.8157 16.4369C24.3137 16.4369 24.7174 16.0342 24.7174 15.5375C24.7174 15.0408 24.3137 14.6382 23.8157 14.6382C23.3178 14.6382 22.9141 15.0408 22.9141 15.5375C22.9141 16.0342 23.3178 16.4369 23.8157 16.4369Z" />
  <path
     style="fill:#000000;fill-opacity:1"
     id="path849"
     fill="#485776"
     d="M20.595 15.9999C21.093 15.9999 21.4967 15.5972 21.4967 15.1005C21.4967 14.6038 21.093 14.2012 20.595 14.2012C20.0971 14.2012 19.6934 14.6038 19.6934 15.1005C19.6934 15.5972 20.0971 15.9999 20.595 15.9999Z" />
  <path
     style="fill:#000000;fill-opacity:1"
     id="path851"
     fill="#485776"
     d="M26.4173 17.4388C26.9153 17.4388 27.319 17.0362 27.319 16.5395C27.319 16.0428 26.9153 15.6401 26.4173 15.6401C25.9193 15.6401 25.5156 16.0428 25.5156 16.5395C25.5156 17.0362 25.9193 17.4388 26.4173 17.4388Z" />
  <path
     style="fill:#000000;fill-opacity:1"
     id="path853"
     fill="#485776"
     d="M22.5268 18.3123C22.9536 18.3123 23.2996 17.9671 23.2996 17.5414C23.2996 17.1156 22.9536 16.7705 22.5268 16.7705C22.0999 16.7705 21.7539 17.1156 21.7539 17.5414C21.7539 17.9671 22.0999 18.3123 22.5268 18.3123Z" />
  <path
     style="fill:#000000;fill-opacity:1"
     id="path855"
     fill="#485776"
     d="M25.1283 19.2888C25.5552 19.2888 25.9012 18.9437 25.9012 18.5179C25.9012 18.0922 25.5552 17.7471 25.1283 17.7471C24.7015 17.7471 24.3555 18.0922 24.3555 18.5179C24.3555 18.9437 24.7015 19.2888 25.1283 19.2888Z" />
  <path
     style="fill:#000000;fill-opacity:1"
     id="path857"
     fill="#485776"
     d="M19.3315 17.8498C19.7583 17.8498 20.1043 17.5047 20.1043 17.079C20.1043 16.6532 19.7583 16.3081 19.3315 16.3081C18.9046 16.3081 18.5586 16.6532 18.5586 17.079C18.5586 17.5047 18.9046 17.8498 19.3315 17.8498Z" />
  <path
     style="fill:#000000;fill-opacity:1"
     id="path859"
     fill="#485776"
     d="M21.1089 19.5719C21.4646 19.5719 21.753 19.2843 21.753 18.9295C21.753 18.5747 21.4646 18.2871 21.1089 18.2871C20.7532 18.2871 20.4648 18.5747 20.4648 18.9295C20.4648 19.2843 20.7532 19.5719 21.1089 19.5719Z" />
  <path
     style="fill:#000000;fill-opacity:1"
     id="path861"
     fill="#485776"
     d="M22.2172 21.3445C22.5302 21.3445 22.7839 21.0914 22.7839 20.7792C22.7839 20.467 22.5302 20.2139 22.2172 20.2139C21.9041 20.2139 21.6504 20.467 21.6504 20.7792C21.6504 21.0914 21.9041 21.3445 22.2172 21.3445Z" />
  <path
     style="fill:#000000;fill-opacity:1"
     id="path863"
     fill="#485776"
     d="M20.8524 21.7048C21.1085 21.7048 21.3161 21.4978 21.3161 21.2423C21.3161 20.9869 21.1085 20.7798 20.8524 20.7798C20.5963 20.7798 20.3887 20.9869 20.3887 21.2423C20.3887 21.4978 20.5963 21.7048 20.8524 21.7048Z" />
  <path
     style="fill:#000000;fill-opacity:1"
     id="path865"
     fill="#485776"
     d="M19.641 20.3684C19.954 20.3684 20.2078 20.1153 20.2078 19.8031C20.2078 19.4909 19.954 19.2378 19.641 19.2378C19.328 19.2378 19.0742 19.4909 19.0742 19.8031C19.0742 20.1153 19.328 20.3684 19.641 20.3684Z" />
  <path
     style="fill:#000000;fill-opacity:1"
     id="path867"
     fill="#485776"
     d="M17.8901 19.1349C18.2458 19.1349 18.5342 18.8473 18.5342 18.4925C18.5342 18.1377 18.2458 17.8501 17.8901 17.8501C17.5344 17.8501 17.2461 18.1377 17.2461 18.4925C17.2461 18.8473 17.5344 19.1349 17.8901 19.1349Z" />
  <path
     style="fill:#000000;fill-opacity:1"
     id="path869"
     fill="#485776"
     d="M17.8628 14.3038C18.2185 14.3038 18.5069 14.0162 18.5069 13.6614C18.5069 13.3067 18.2185 13.019 17.8628 13.019C17.5071 13.019 17.2188 13.3067 17.2188 13.6614C17.2188 14.0162 17.5071 14.3038 17.8628 14.3038Z" />
  <path
     style="fill:#000000;fill-opacity:1"
     id="path871"
     fill="#485776"
     d="M18.1468 12.0427C18.4599 12.0427 18.7136 11.7896 18.7136 11.4774C18.7136 11.1652 18.4599 10.9121 18.1468 10.9121C17.8338 10.9121 17.5801 11.1652 17.5801 11.4774C17.5801 11.7896 17.8338 12.0427 18.1468 12.0427Z" />
  <path
     style="fill:#000000;fill-opacity:1"
     id="path873"
     fill="#485776"
     d="M18.7665 10.1926C19.0226 10.1926 19.2302 9.98555 19.2302 9.7301C19.2302 9.47466 19.0226 9.26758 18.7665 9.26758C18.5104 9.26758 18.3027 9.47466 18.3027 9.7301C18.3027 9.98555 18.5104 10.1926 18.7665 10.1926Z" />
  <path
     style="fill:#000000;fill-opacity:1"
     id="path875"
     fill="#485776"
     d="M17.684 9.31909C17.997 9.31909 18.2507 9.06599 18.2507 8.75378C18.2507 8.44157 17.997 8.18848 17.684 8.18848C17.3709 8.18848 17.1172 8.44157 17.1172 8.75378C17.1172 9.06599 17.3709 9.31909 17.684 9.31909Z" />
  <path
     style="fill:#000000;fill-opacity:1"
     id="path877"
     fill="#485776"
     d="M23.6851 20.548C24.0408 20.548 24.3291 20.2604 24.3291 19.9056C24.3291 19.5508 24.0408 19.2632 23.6851 19.2632C23.3294 19.2632 23.041 19.5508 23.041 19.9056C23.041 20.2604 23.3294 20.548 23.6851 20.548Z" />
  <path
     style="fill:#000000;fill-opacity:1"
     id="path879"
     fill="#485776"
     d="M16.2144 8.57385C16.5701 8.57385 16.8584 8.28624 16.8584 7.93146C16.8584 7.57667 16.5701 7.28906 16.2144 7.28906C15.8587 7.28906 15.5703 7.57667 15.5703 7.93146C15.5703 8.28624 15.8587 8.57385 16.2144 8.57385Z" />
  <path
     style="fill:#000000;fill-opacity:1"
     id="path881"
     fill="#485776"
     d="M16.6538 11.2975C17.0095 11.2975 17.2979 11.0099 17.2979 10.6551C17.2979 10.3003 17.0095 10.0127 16.6538 10.0127C16.2981 10.0127 16.0098 10.3003 16.0098 10.6551C16.0098 11.0099 16.2981 11.2975 16.6538 11.2975Z" />
  <path
     style="fill:#000000;fill-opacity:1"
     id="path883"
     fill="#485776"
     d="M15.9311 13.8928C16.3579 13.8928 16.7039 13.5477 16.7039 13.1219C16.7039 12.6962 16.3579 12.3511 15.9311 12.3511C15.5042 12.3511 15.1582 12.6962 15.1582 13.1219C15.1582 13.5477 15.5042 13.8928 15.9311 13.8928Z" />
  <path
     style="fill:#000000;fill-opacity:1"
     id="path885"
     fill="#485776"
     d="M13.5872 13.8925C14.0852 13.8925 14.4889 13.4898 14.4889 12.9931C14.4889 12.4964 14.0852 12.0938 13.5872 12.0938C13.0892 12.0938 12.6855 12.4964 12.6855 12.9931C12.6855 13.4898 13.0892 13.8925 13.5872 13.8925Z" />
  <path
     style="fill:#000000;fill-opacity:1"
     id="path887"
     fill="#485776"
     d="M10.8567 14.5098C11.4258 14.5098 11.8871 14.0496 11.8871 13.4819C11.8871 12.9143 11.4258 12.4541 10.8567 12.4541C10.2875 12.4541 9.82617 12.9143 9.82617 13.4819C9.82617 14.0496 10.2875 14.5098 10.8567 14.5098Z" />
  <path
     style="fill:#000000;fill-opacity:1"
     id="path889"
     fill="#485776"
     d="M7.86903 15.9745C8.53775 15.9745 9.07985 15.4338 9.07985 14.7668C9.07985 14.0998 8.53775 13.5591 7.86903 13.5591C7.20031 13.5591 6.6582 14.0998 6.6582 14.7668C6.6582 15.4338 7.20031 15.9745 7.86903 15.9745Z" />
  <path
     style="fill:#000000;fill-opacity:1"
     id="path891"
     fill="#485776"
     d="M4.77667 18.4409C5.57344 18.4409 6.21935 17.7967 6.21935 17.002C6.21935 16.2072 5.57344 15.563 4.77667 15.563C3.9799 15.563 3.33398 16.2072 3.33398 17.002C3.33398 17.7967 3.9799 18.4409 4.77667 18.4409Z" />
  <path
     style="fill:#000000;fill-opacity:1"
     id="path893"
     fill="#485776"
     d="M6.65809 12.9681C7.32681 12.9681 7.86891 12.4274 7.86891 11.7604C7.86891 11.0934 7.32681 10.5527 6.65809 10.5527C5.98937 10.5527 5.44727 11.0934 5.44727 11.7604C5.44727 12.4274 5.98937 12.9681 6.65809 12.9681Z" />
  <path
     style="fill:#000000;fill-opacity:1"
     id="path895"
     fill="#485776"
     d="M9.64572 11.5029C10.2148 11.5029 10.6762 11.0428 10.6762 10.4751C10.6762 9.90744 10.2148 9.44727 9.64572 9.44727C9.0766 9.44727 8.61523 9.90744 8.61523 10.4751C8.61523 11.0428 9.0766 11.5029 9.64572 11.5029Z" />
  <path
     style="fill:#000000;fill-opacity:1"
     id="path897"
     fill="#485776"
     d="M9.20822 8.7793C9.77734 8.7793 10.2387 8.31912 10.2387 7.75146C10.2387 7.18381 9.77734 6.72363 9.20822 6.72363C8.6391 6.72363 8.17773 7.18381 8.17773 7.75146C8.17773 8.31912 8.6391 8.7793 9.20822 8.7793Z" />
  <path
     style="fill:#000000;fill-opacity:1"
     id="path899"
     fill="#485776"
     d="M11.9388 8.16248C12.4368 8.16248 12.8405 7.75982 12.8405 7.26312C12.8405 6.76642 12.4368 6.36377 11.9388 6.36377C11.4408 6.36377 11.0371 6.76642 11.0371 7.26312C11.0371 7.75982 11.4408 8.16248 11.9388 8.16248Z" />
  <path
     style="fill:#000000;fill-opacity:1"
     id="path901"
     fill="#485776"
     d="M14.2826 8.16284C14.7095 8.16284 15.0555 7.81771 15.0555 7.39197C15.0555 6.96623 14.7095 6.62109 14.2826 6.62109C13.8558 6.62109 13.5098 6.96623 13.5098 7.39197C13.5098 7.81771 13.8558 8.16284 14.2826 8.16284Z" />
  <path
     style="fill:#000000;fill-opacity:1"
     id="path903"
     fill="#485776"
     d="M14.7201 10.8865C15.147 10.8865 15.493 10.5413 15.493 10.1156C15.493 9.68986 15.147 9.34473 14.7201 9.34473C14.2933 9.34473 13.9473 9.68986 13.9473 10.1156C13.9473 10.5413 14.2933 10.8865 14.7201 10.8865Z" />
  <path
     style="fill:#000000;fill-opacity:1"
     id="path905"
     fill="#485776"
     d="M12.3763 10.912C12.8743 10.912 13.278 10.5093 13.278 10.0126C13.278 9.51593 12.8743 9.11328 12.3763 9.11328C11.8783 9.11328 11.4746 9.51593 11.4746 10.0126C11.4746 10.5093 11.8783 10.912 12.3763 10.912Z" />
  <path
     style="fill:#000000;fill-opacity:1"
     id="path907"
     fill="#485776"
     d="M9.82505 17.7473C10.0812 17.7473 10.2888 17.5402 10.2888 17.2848C10.2888 17.0293 10.0812 16.8223 9.82505 16.8223C9.56894 16.8223 9.36133 17.0293 9.36133 17.2848C9.36133 17.5402 9.56894 17.7473 9.82505 17.7473Z" />
  <path
     style="fill:#000000;fill-opacity:1"
     id="path909"
     fill="#485776"
     d="M11.68 17.5159C11.9931 17.5159 12.2468 17.2628 12.2468 16.9506C12.2468 16.6383 11.9931 16.3853 11.68 16.3853C11.367 16.3853 11.1133 16.6383 11.1133 16.9506C11.1133 17.2628 11.367 17.5159 11.68 17.5159Z" />
  <path
     style="fill:#000000;fill-opacity:1"
     id="path911"
     fill="#485776"
     d="M13.7163 16.7452C14.072 16.7452 14.3604 16.4576 14.3604 16.1028C14.3604 15.7481 14.072 15.4604 13.7163 15.4604C13.3606 15.4604 13.0723 15.7481 13.0723 16.1028C13.0723 16.4576 13.3606 16.7452 13.7163 16.7452Z" />
  <path
     style="fill:#000000;fill-opacity:1"
     id="path913"
     fill="#485776"
     d="M14.2065 18.801C14.6333 18.801 14.9793 18.4559 14.9793 18.0302C14.9793 17.6044 14.6333 17.2593 14.2065 17.2593C13.7796 17.2593 13.4336 17.6044 13.4336 18.0302C13.4336 18.4559 13.7796 18.801 14.2065 18.801Z" />
  <path
     style="fill:#000000;fill-opacity:1"
     id="path915"
     fill="#485776"
     d="M11.7319 19.2887C12.0876 19.2887 12.376 19.0011 12.376 18.6463C12.376 18.2915 12.0876 18.0039 11.7319 18.0039C11.3762 18.0039 11.0879 18.2915 11.0879 18.6463C11.0879 19.0011 11.3762 19.2887 11.7319 19.2887Z" />
  <path
     style="fill:#000000;fill-opacity:1"
     id="path917"
     fill="#485776"
     d="M9.54333 19.2629C9.85635 19.2629 10.1101 19.0098 10.1101 18.6976C10.1101 18.3854 9.85635 18.1323 9.54333 18.1323C9.23031 18.1323 8.97656 18.3854 8.97656 18.6976C8.97656 19.0098 9.23031 19.2629 9.54333 19.2629Z" />
  <path
     style="fill:#000000;fill-opacity:1"
     id="path919"
     fill="#485776"
     d="M9.56788 21.0363C9.92359 21.0363 10.2119 20.7486 10.2119 20.3939C10.2119 20.0391 9.92359 19.7515 9.56788 19.7515C9.21218 19.7515 8.92383 20.0391 8.92383 20.3939C8.92383 20.7486 9.21218 21.0363 9.56788 21.0363Z" />
  <path
     style="fill:#000000;fill-opacity:1"
     id="path921"
     fill="#485776"
     d="M12.1967 21.3704C12.6235 21.3704 12.9696 21.0252 12.9696 20.5995C12.9696 20.1737 12.6235 19.8286 12.1967 19.8286C11.7699 19.8286 11.4238 20.1737 11.4238 20.5995C11.4238 21.0252 11.7699 21.3704 12.1967 21.3704Z" />
  <path
     style="fill:#000000;fill-opacity:1"
     id="path923"
     fill="#485776"
     d="M15.263 21.0365C15.761 21.0365 16.1647 20.6338 16.1647 20.1371C16.1647 19.6404 15.761 19.2378 15.263 19.2378C14.765 19.2378 14.3613 19.6404 14.3613 20.1371C14.3613 20.6338 14.765 21.0365 15.263 21.0365Z" />
  <path
     style="fill:#000000;fill-opacity:1"
     id="path925"
     fill="#485776"
     d="M17.0656 23.2715C17.6348 23.2715 18.0961 22.8113 18.0961 22.2437C18.0961 21.676 17.6348 21.2158 17.0656 21.2158C16.4965 21.2158 16.0352 21.676 16.0352 22.2437C16.0352 22.8113 16.4965 23.2715 17.0656 23.2715Z" />
  <path
     style="fill:#000000;fill-opacity:1"
     id="path927"
     fill="#485776"
     d="M13.2786 23.58C13.7766 23.58 14.1803 23.1773 14.1803 22.6806C14.1803 22.1839 13.7766 21.7812 13.2786 21.7812C12.7806 21.7812 12.377 22.1839 12.377 22.6806C12.377 23.1773 12.7806 23.58 13.2786 23.58Z" />
  <path
     style="fill:#000000;fill-opacity:1"
     id="path929"
     fill="#485776"
     d="M11.14 25.3275C11.6379 25.3275 12.0416 24.9249 12.0416 24.4282C12.0416 23.9315 11.6379 23.5288 11.14 23.5288C10.642 23.5288 10.2383 23.9315 10.2383 24.4282C10.2383 24.9249 10.642 25.3275 11.14 25.3275Z" />
  <path
     style="fill:#000000;fill-opacity:1"
     id="path931"
     fill="#485776"
     d="M12.9172 27.5889C13.4863 27.5889 13.9477 27.1287 13.9477 26.561C13.9477 25.9934 13.4863 25.5332 12.9172 25.5332C12.3481 25.5332 11.8867 25.9934 11.8867 26.561C11.8867 27.1287 12.3481 27.5889 12.9172 27.5889Z" />
  <path
     style="fill:#000000;fill-opacity:1"
     id="path933"
     fill="#485776"
     d="M17.6581 27.9999C18.3268 27.9999 18.8689 27.4592 18.8689 26.7922C18.8689 26.1252 18.3268 25.5845 17.6581 25.5845C16.9894 25.5845 16.4473 26.1252 16.4473 26.7922C16.4473 27.4592 16.9894 27.9999 17.6581 27.9999Z" />
  <path
     style="fill:#000000;fill-opacity:1"
     id="path935"
     fill="#485776"
     d="M15.0559 25.8413C15.625 25.8413 16.0864 25.3811 16.0864 24.8135C16.0864 24.2458 15.625 23.7856 15.0559 23.7856C14.4868 23.7856 14.0254 24.2458 14.0254 24.8135C14.0254 25.3811 14.4868 25.8413 15.0559 25.8413Z" />
  <path
     style="fill:#000000;fill-opacity:1"
     id="path937"
     fill="#485776"
     d="M19.6425 25.4305C20.3112 25.4305 20.8533 24.8898 20.8533 24.2228C20.8533 23.5558 20.3112 23.0151 19.6425 23.0151C18.9737 23.0151 18.4316 23.5558 18.4316 24.2228C18.4316 24.8898 18.9737 25.4305 19.6425 25.4305Z" />
  <path
     style="fill:#000000;fill-opacity:1"
     id="path939"
     fill="#485776"
     d="M10.058 23.1179C10.4849 23.1179 10.8309 22.7728 10.8309 22.347C10.8309 21.9213 10.4849 21.5762 10.058 21.5762C9.63118 21.5762 9.28516 21.9213 9.28516 22.347C9.28516 22.7728 9.63118 23.1179 10.058 23.1179Z" />
</svg>
