<?xml version="1.0" encoding="UTF-8" standalone="no"?>
<svg
   xmlns:dc="http://purl.org/dc/elements/1.1/"
   xmlns:cc="http://creativecommons.org/ns#"
   xmlns:rdf="http://www.w3.org/1999/02/22-rdf-syntax-ns#"
   xmlns:svg="http://www.w3.org/2000/svg"
   xmlns="http://www.w3.org/2000/svg"
   xmlns:sodipodi="http://sodipodi.sourceforge.net/DTD/sodipodi-0.dtd"
   xmlns:inkscape="http://www.inkscape.org/namespaces/inkscape"
   inkscape:version="1.0beta2 (2b71d25, 2019-12-03)"
   sodipodi:docname="Union Kopie 2.svg"
   id="svg841"
   version="1.1"
   fill="none"
   viewBox="0 0 28 30"
   height="30"
   width="28">
  <metadata
     id="metadata847">
    <rdf:RDF>
      <cc:Work
         rdf:about="">
        <dc:format>image/svg+xml</dc:format>
        <dc:type
           rdf:resource="http://purl.org/dc/dcmitype/StillImage" />
      </cc:Work>
    </rdf:RDF>
  </metadata>
  <defs
     id="defs845" />
  <sodipodi:namedview
     inkscape:current-layer="svg841"
     inkscape:window-maximized="0"
     inkscape:window-y="0"
     inkscape:window-x="0"
     inkscape:cy="15"
     inkscape:cx="14"
     inkscape:zoom="22.4"
     showgrid="false"
     id="namedview843"
     inkscape:window-height="1120"
     inkscape:window-width="1792"
     inkscape:pageshadow="2"
     inkscape:pageopacity="0"
     guidetolerance="10"
     gridtolerance="10"
     objecttolerance="10"
     borderopacity="1"
     inkscape:document-rotation="0"
     bordercolor="#666666"
     pagecolor="#ffffff" />
  <path
     style="fill:#000000;fill-opacity:1"
     id="path833"
     fill="#485776"
     d="M6.14731 17.7899H11.9358V16.1238H8.98999V16.0788L9.69698 15.4784C11.4166 14.0188 11.8548 13.2608 11.8548 12.3715C11.8548 10.9381 10.7022 10 8.89426 10C7.13783 10 5.99633 10.9944 6.00002 12.6116H7.94424C7.94056 11.9662 8.32719 11.606 8.89426 11.606C9.45764 11.606 9.859 11.9625 9.859 12.5516C9.859 13.0957 9.51655 13.4484 8.96054 13.9175L6.14731 16.2889V17.7899Z" />
  <path
     style="fill:#000000;fill-opacity:1"
     id="path835"
     fill="#485776"
     d="M13.7851 17.9099C14.3263 17.9099 14.8087 17.4447 14.8161 16.8593C14.8087 16.2889 14.3263 15.8236 13.7851 15.8236C13.2143 15.8236 12.7467 16.2889 12.754 16.8593C12.7467 17.4447 13.2143 17.9099 13.7851 17.9099Z" />
  <path
     style="fill:#000000;fill-opacity:1"
     id="path837"
     fill="#485776"
     d="M22 13.9625C21.9963 16.5066 20.7223 18.0038 18.6713 18C16.6166 17.9962 15.3351 16.4953 15.3425 13.9625C15.3499 11.4259 16.6166 10 18.6713 10C20.7223 10 22.0037 11.4334 22 13.9625ZM17.4635 13.9625C17.4561 15.5797 17.9643 16.3039 18.6713 16.3039C19.3782 16.3039 19.8827 15.5797 19.879 13.9625C19.8753 12.3827 19.3782 11.6811 18.6713 11.6811C17.9643 11.6811 17.4708 12.3827 17.4635 13.9625Z"
     clip-rule="evenodd"
     fill-rule="evenodd" />
  <path
     style="fill:#000000;fill-opacity:1"
     id="path839"
     fill="#485776"
     d="M25.6848 24.1524C27.1185 23.3481 28 21.872 28 20.2758V9.72417C28 8.12799 27.1185 6.65192 25.6848 5.84762L16.3515 0.611405C14.8984 -0.203801 13.1016 -0.203802 11.6485 0.611404L2.31518 5.84762C0.881548 6.65192 0 8.12799 0 9.72417V20.2758C0 21.872 0.881547 23.3481 2.31518 24.1524L11.6485 29.3886C13.1016 30.2038 14.8984 30.2038 16.3515 29.3886L25.6848 24.1524ZM26 9.72417V20.2758C26 21.1222 25.5324 21.9446 24.7063 22.4081L15.3729 27.6443C14.5277 28.1186 13.4723 28.1186 12.6271 27.6443L3.29374 22.4081C2.46758 21.9446 2 21.1222 2 20.2758V9.72417C2 8.87776 2.46758 8.05536 3.29374 7.59187L12.6271 2.35566C13.4723 1.88145 14.5277 1.88145 15.3729 2.35566L24.7063 7.59187C25.5324 8.05536 26 8.87776 26 9.72417Z"
     clip-rule="evenodd"
     fill-rule="evenodd" />
</svg>
