<?xml version="1.0" encoding="UTF-8" standalone="no"?>
<svg
   xmlns:dc="http://purl.org/dc/elements/1.1/"
   xmlns:cc="http://creativecommons.org/ns#"
   xmlns:rdf="http://www.w3.org/1999/02/22-rdf-syntax-ns#"
   xmlns:svg="http://www.w3.org/2000/svg"
   xmlns="http://www.w3.org/2000/svg"
   xmlns:sodipodi="http://sodipodi.sourceforge.net/DTD/sodipodi-0.dtd"
   xmlns:inkscape="http://www.inkscape.org/namespaces/inkscape"
   inkscape:version="1.0beta2 (2b71d25, 2019-12-03)"
   sodipodi:docname="Subtract.svg"
   id="svg835"
   version="1.1"
   fill="none"
   viewBox="0 0 26 28"
   height="28"
   width="26">
  <metadata
     id="metadata841">
    <rdf:RDF>
      <cc:Work
         rdf:about="">
        <dc:format>image/svg+xml</dc:format>
        <dc:type
           rdf:resource="http://purl.org/dc/dcmitype/StillImage" />
      </cc:Work>
    </rdf:RDF>
  </metadata>
  <defs
     id="defs839" />
  <sodipodi:namedview
     inkscape:current-layer="svg835"
     inkscape:window-maximized="0"
     inkscape:window-y="0"
     inkscape:window-x="0"
     inkscape:cy="14"
     inkscape:cx="13"
     inkscape:zoom="24"
     showgrid="false"
     id="namedview837"
     inkscape:window-height="1120"
     inkscape:window-width="1792"
     inkscape:pageshadow="2"
     inkscape:pageopacity="0"
     guidetolerance="10"
     gridtolerance="10"
     objecttolerance="10"
     borderopacity="1"
     inkscape:document-rotation="0"
     bordercolor="#666666"
     pagecolor="#ffffff" />
  <path
     style="fill:#000000;fill-opacity:1"
     id="path833"
     fill="#485776"
     d="M17.315 2.70568C17.3507 2.25583 17.1152 1.82604 16.709 1.59962L14.5511 0.396863C13.6017 -0.132287 12.4299 -0.132288 11.4805 0.396862L9.4999 1.5008C9.09367 1.72721 8.85819 2.157 8.89391 2.60685L9.03188 4.3445C9.06628 4.77772 8.84909 5.19383 8.46713 5.42652L6.90895 6.37575C6.30003 6.7467 5.49092 6.53402 5.16345 5.91696L4.93145 5.47979C4.61267 4.87911 3.83429 4.65859 3.22719 4.99696L1.52397 5.94627C0.424179 6.55925 -0.166205 7.76182 0.0410418 8.96689L1.80189 19.2056C2.08697 20.8632 3.09691 22.3244 4.57663 23.22L12.0254 27.7286C12.6295 28.0942 13.3994 28.0901 13.9993 27.7182L21.2978 23.1929C22.7189 22.3117 23.6968 20.9048 23.9993 19.3062L25.9505 8.99587C26.1812 7.77712 25.5914 6.55031 24.476 5.92864L22.9473 5.07661C22.3402 4.73823 21.5618 4.95875 21.2431 5.55944L21.0533 5.91697C20.7258 6.53404 19.9167 6.74671 19.3078 6.37577L17.7496 5.42654C17.3677 5.19385 17.1505 4.77774 17.1849 4.34452L17.315 2.70568ZM14.3568 15.8419C15.3713 15.3692 16.0707 14.3703 16.0707 13.2145C16.0707 11.6027 14.7104 10.2961 13.0325 10.2961C11.3545 10.2961 9.99423 11.6027 9.99423 13.2145C9.99423 14.3102 10.6227 15.2648 11.5523 15.7639V19.1263C11.5523 19.8702 12.1801 20.4733 12.9546 20.4733C13.729 20.4733 14.3568 19.8702 14.3568 19.1263V15.8419Z"
     clip-rule="evenodd"
     fill-rule="evenodd" />
</svg>
