<?xml version="1.0" encoding="UTF-8" standalone="no"?>
<svg
   xmlns:dc="http://purl.org/dc/elements/1.1/"
   xmlns:cc="http://creativecommons.org/ns#"
   xmlns:rdf="http://www.w3.org/1999/02/22-rdf-syntax-ns#"
   xmlns:svg="http://www.w3.org/2000/svg"
   xmlns="http://www.w3.org/2000/svg"
   xmlns:sodipodi="http://sodipodi.sourceforge.net/DTD/sodipodi-0.dtd"
   xmlns:inkscape="http://www.inkscape.org/namespaces/inkscape"
   inkscape:version="1.0beta2 (2b71d25, 2019-12-03)"
   sodipodi:docname="Union Kopie.svg"
   id="svg835"
   version="1.1"
   fill="none"
   viewBox="0 0 22 31"
   height="31"
   width="22">
  <metadata
     id="metadata841">
    <rdf:RDF>
      <cc:Work
         rdf:about="">
        <dc:format>image/svg+xml</dc:format>
        <dc:type
           rdf:resource="http://purl.org/dc/dcmitype/StillImage" />
      </cc:Work>
    </rdf:RDF>
  </metadata>
  <defs
     id="defs839" />
  <sodipodi:namedview
     inkscape:current-layer="svg835"
     inkscape:window-maximized="0"
     inkscape:window-y="0"
     inkscape:window-x="0"
     inkscape:cy="15.5"
     inkscape:cx="11"
     inkscape:zoom="21.677419"
     showgrid="false"
     id="namedview837"
     inkscape:window-height="1120"
     inkscape:window-width="1792"
     inkscape:pageshadow="2"
     inkscape:pageopacity="0"
     guidetolerance="10"
     gridtolerance="10"
     objecttolerance="10"
     borderopacity="1"
     inkscape:document-rotation="0"
     bordercolor="#666666"
     pagecolor="#ffffff" />
  <path
     style="fill:#000000;fill-opacity:1"
     id="path833"
     fill="#485776"
     d="M10.1237 4.03759C9.69954 4.03759 9.30832 4.15836 8.97888 4.36974C8.83417 4.08114 8.66989 3.7979 8.48536 3.52125C7.90606 2.65279 7.29447 2.11048 6.60693 1.61391C5.13365 0.620788 3.12114 -0.00838652 1.99063 8.44822e-05C0.860125 0.00855549 0.719813 2.03814 2.08885 1.98634C4.79585 1.88391 7.01633 2.39092 8.65802 4.62263C8.23066 5.03195 7.96727 5.62409 7.96727 6.29501C7.96727 7.41462 8.70073 8.31485 9.70572 8.51215C9.25545 8.71099 8.84723 9.00461 8.39713 9.34257C8.37607 9.36233 8.30124 9.42375 8.18175 9.52182C7.03762 10.4608 1.80005 14.7595 0.456173 18.0391C-0.96528 21.4412 1.35942 24.4681 1.68663 24.8942C1.7011 24.913 1.71166 24.9267 1.71782 24.9352C2.12027 25.4744 3.08688 25.4146 3.35054 24.7959L8.52346 13.6123C8.73552 13.8187 8.98071 13.9981 9.25194 14.1444C9.62839 14.4694 9.85754 14.9221 9.85754 15.289C9.85754 15.6933 9.71502 15.7967 9.07745 16.2594L8.97828 16.3315C8.93995 16.3593 8.9187 16.3856 8.91272 16.4104C8.05618 17.02 7.45134 18.0072 7.31847 19.1872C7.31643 19.2052 7.31479 19.2233 7.31354 19.2415C7.1557 21.5284 7.1388 25.0014 7.90947 27.5629C7.91308 27.5749 7.91687 27.5868 7.92084 27.5987C8.23522 28.5391 8.6091 29.3351 9.05733 29.9181C9.50039 30.4943 10.1299 31 10.9366 31C11.7432 31 12.3727 30.4943 12.8158 29.9181C13.2613 29.3387 13.6333 28.5488 13.9465 27.6159C14.894 25.0235 14.8733 21.5373 14.6366 19.2255C14.545 17.801 13.7111 16.7043 12.623 16.1494C12.0977 15.7767 12.0266 15.6589 12.0266 15.289C12.0266 14.8699 12.5638 14.3467 13.0554 14.0018C13.0861 13.9803 13.0955 13.9602 13.0863 13.9415C13.227 13.8432 13.3584 13.735 13.4792 13.6181L18.6495 24.7959C18.9131 25.4146 19.8797 25.4744 20.2822 24.9352C20.2883 24.9268 20.2987 24.9132 20.313 24.8946L20.3134 24.8942C20.6406 24.4681 22.9653 21.4412 21.5438 18.0391C20.1513 14.6408 14.6566 10.1786 13.7199 9.41792C13.681 9.38629 13.6499 9.36106 13.6274 9.34257C13.298 9.07272 12.8245 8.74348 12.2752 8.51572C13.2898 8.32593 14.0323 7.42151 14.0323 6.29501C14.0323 5.6186 13.7646 5.02226 13.331 4.61262C14.972 2.3894 17.1899 1.88406 19.8928 1.98634C21.2618 2.03814 21.1215 0.0085571 19.991 8.58868e-05C18.8605 -0.00838533 16.848 0.620789 15.3747 1.61391C14.6872 2.11048 14.0756 2.65279 13.4963 3.52125C13.3136 3.79514 13.1508 4.07549 13.0071 4.36111C12.6805 4.15508 12.2942 4.03759 11.8758 4.03759L10.1237 4.03759ZM12.2181 10.8916L12.1245 10.6893C11.9096 10.33 11.4754 10.0701 11.0043 10.0701C10.3364 10.0701 9.74265 10.5925 9.74265 11.1803V11.6374C9.74265 12.2251 10.3364 12.7476 11.0043 12.7476C11.6722 12.7476 12.2659 12.2251 12.2659 11.6374V11.1803C12.2659 11.0815 12.2492 10.9845 12.2181 10.8916ZM2.31154 18.7357C2.90525 17.2728 4.46376 15.5314 6.02226 13.9989L2.31154 22.0792C2.01468 21.1737 1.79203 19.9198 2.31154 18.7357ZM15.9777 13.9989C17.5362 15.5314 19.0947 17.2728 19.6885 18.7357C20.208 19.9198 19.9853 21.1737 19.6885 22.0792L15.9777 13.9989ZM10.0337 5.8885C9.88511 5.8885 9.73648 6.09178 9.73648 6.29506C9.73648 6.49833 9.88511 6.70161 10.0337 6.70161L11.9658 6.70161C12.1145 6.70161 12.2631 6.49833 12.2631 6.29506C12.2631 6.09178 12.1145 5.88851 11.9658 5.88851L10.0337 5.8885ZM9.46008 23.4755C9.41764 22.7752 9.40452 22.0652 9.41223 21.3808L10.5265 22.1298C10.815 22.3238 11.1851 22.3238 11.4736 22.1298L12.5838 21.3835C12.5994 22.0678 12.5869 22.778 12.5368 23.4776L11 24.5108L9.46008 23.4755ZM9.74494 25.8476C9.81173 26.189 9.89009 26.5155 9.98138 26.8214C10.2498 27.6201 10.5169 28.1307 10.7396 28.4203C10.8301 28.5381 10.8962 28.5987 10.9366 28.629C10.9769 28.5987 11.043 28.5381 11.1335 28.4203C11.3579 28.1286 11.6273 27.6125 11.8978 26.8034C11.9016 26.7918 11.9057 26.7803 11.9099 26.7688C12.0103 26.4959 12.0978 26.2057 12.1735 25.9024L11.4736 26.373C11.1851 26.5669 10.815 26.5669 10.5265 26.373L9.74494 25.8476ZM11 20.2676L9.52021 19.2728C9.6802 18.596 10.2514 18.0977 10.9755 18.0977C11.7815 18.0977 12.3576 18.6728 12.4484 19.2939L11 20.2676Z"
     clip-rule="evenodd"
     fill-rule="evenodd" />
</svg>
