<svg width="862" height="200" viewBox="0 0 862 200" fill="none" xmlns="http://www.w3.org/2000/svg">
<g clip-path="url(#clip0_256_4255)">
<rect width="862" height="200" fill="#40A1AC"/>
<rect x="0.5" y="0.5" width="861" height="199" fill="#111F3B" stroke="#293856"/>
<path d="M549.938 78.1702C546.201 66.3704 540.189 55.9941 531.078 48.3543C484.73 9.49055 484.503 41.1178 496.4 51.0296C499.595 53.6913 502.615 56.0137 505.432 58.1802C518.537 68.2593 527.253 74.9622 528.777 96.7405C521.874 85.4182 512.793 76.4953 500.902 71.9612C444.702 50.5322 458.526 80.623 468.084 83.4799C468.819 83.6996 469.546 83.9156 470.264 84.129C487.822 89.3483 500.34 93.0694 508.909 113.306C505.366 110.637 501.58 108.328 497.544 106.456C455.339 86.8855 454.556 110.933 468.009 113.399C492.229 117.839 497.242 136.364 502.86 157.124C504.21 162.113 505.595 167.231 507.29 172.313C515.256 196.204 529.16 219.747 551.434 213.763C551.614 207.335 551.031 199.538 549.616 191.078C549.534 184.819 549.254 177.881 548.673 170.58C549.369 167.483 550.043 164.245 550.676 160.896C554 166.025 558.767 169.288 565.353 169.422C576.492 139.529 584.716 73.5396 557.494 37.6541C533.603 6.1601 521.858 26.453 531.183 37.2527C532.154 38.3767 533.179 39.4875 534.229 40.6258C541.137 48.1116 549.138 56.7831 549.938 78.1702Z" fill="url(#paint0_linear_256_4255)"/>
<path d="M589.077 98.6445C598.704 118.744 589.188 137.8 583.974 155.483C569.348 172.454 539.208 157.401 537.163 155.426C535.119 153.451 530.635 137.273 533.564 125.538C536.406 114.148 542.985 105.272 551.36 97.1469C559.502 89.2488 561.791 78.2548 560.345 73.0244C558.474 51.1958 549.955 38.6518 564.782 37.2667C582.476 35.6137 578.38 76.3091 589.077 98.6445Z" fill="url(#paint1_linear_256_4255)"/>
<path d="M317.06 78.1702C320.796 66.3704 326.809 55.9941 335.92 48.3543C382.267 9.49055 382.494 41.1178 370.597 51.0296C367.402 53.6913 364.383 56.0137 361.566 58.1802C348.46 68.2593 339.745 74.9622 338.22 96.7405C345.123 85.4182 354.204 76.4953 366.095 71.9612C422.295 50.5322 408.471 80.623 398.913 83.4799C398.178 83.6996 397.451 83.9156 396.733 84.129C379.176 89.3483 366.658 93.0694 358.088 113.306C361.631 110.637 365.417 108.328 369.453 106.456C411.658 86.8855 412.441 110.933 398.988 113.399C374.768 117.839 369.755 136.364 364.137 157.124C362.787 162.113 361.402 167.231 359.707 172.313C351.741 196.204 337.838 219.747 315.563 213.763C315.384 207.335 315.966 199.538 317.382 191.078C317.463 184.819 317.743 177.881 318.324 170.58C317.628 167.483 316.955 164.245 316.321 160.896C312.997 166.025 308.23 169.288 301.644 169.422C290.505 139.529 282.282 73.5396 309.503 37.6541C333.394 6.1601 345.139 26.453 335.814 37.2527C334.843 38.3767 333.818 39.4875 332.768 40.6258C325.861 48.1116 317.859 56.7831 317.06 78.1702Z" fill="url(#paint2_linear_256_4255)"/>
<path d="M277.92 98.6445C268.294 118.744 277.809 137.8 283.023 155.483C297.649 172.454 327.789 157.401 329.834 155.426C331.879 153.451 336.362 137.273 333.434 125.538C330.591 114.148 324.013 105.272 315.637 97.1469C307.495 89.2488 305.206 78.2548 306.652 73.0244C308.523 51.1958 317.042 38.6518 302.216 37.2667C284.521 35.6137 288.618 76.3091 277.92 98.6445Z" fill="url(#paint3_linear_256_4255)"/>
<path d="M423 24.1962C428.569 20.9808 435.431 20.9808 441 24.1962L475.828 44.3038C481.397 47.5192 484.828 53.4615 484.828 59.8923V100.108C484.828 106.538 481.397 112.481 475.828 115.696L441 135.804C435.431 139.019 428.569 139.019 423 135.804L388.172 115.696C382.603 112.481 379.172 106.538 379.172 100.108V59.8923C379.172 53.4615 382.603 47.5192 388.172 44.3038L423 24.1962Z" fill="#111F3B"/>
<path d="M428.222 65.7539C429.941 64.7487 432.059 64.7487 433.778 65.7539L442.222 70.6902C443.941 71.6955 445 73.5532 445 75.5637V85.4363C445 87.4468 443.941 89.3045 442.222 90.3098L433.778 95.2461C432.059 96.2513 429.941 96.2513 428.222 95.2461L419.778 90.3098C418.059 89.3045 417 87.4468 417 85.4363V75.5637C417 73.5532 418.059 71.6955 419.778 70.6902L428.222 65.7539Z" fill="#0FC1B7"/>
<path fill-rule="evenodd" clip-rule="evenodd" d="M473.833 44.749L441.149 26.0552C435.178 22.6399 427.822 22.6399 421.851 26.0552L389.167 44.749C383.196 48.1642 379.517 54.4758 379.517 61.3062V98.6938C379.517 105.524 383.196 111.836 389.167 115.251L421.851 133.945C427.822 137.36 435.178 137.36 441.149 133.945L473.833 115.251C479.804 111.836 483.483 105.524 483.483 98.6938V61.3062C483.483 54.4758 479.804 48.1642 473.833 44.749ZM442.408 23.8955C435.658 20.0348 427.342 20.0348 420.592 23.8955L387.908 42.5893C381.158 46.45 377 53.5848 377 61.3062V98.6938C377 106.415 381.158 113.55 387.908 117.411L420.592 136.104C427.342 139.965 435.658 139.965 442.408 136.104L475.092 117.411C481.842 113.55 486 106.415 486 98.6938V61.3062C486 53.5848 481.842 46.45 475.092 42.5893L442.408 23.8955Z" fill="#0FC1B7"/>
<path fill-rule="evenodd" clip-rule="evenodd" d="M174.307 40.2707L159.015 31.3991C156.221 29.7783 152.779 29.7783 149.985 31.3991L134.693 40.2707C131.899 41.8915 130.178 44.8868 130.178 48.1284V65.8716C130.178 69.1132 131.899 72.1085 134.693 73.7293L149.985 82.6009C152.779 84.2217 156.221 84.2217 159.015 82.6009L174.307 73.7293C177.101 72.1085 178.822 69.1132 178.822 65.8716V48.1284C178.822 44.8868 177.101 41.8915 174.307 40.2707ZM159.604 30.3741C156.446 28.542 152.554 28.542 149.396 30.3741L134.104 39.2458C130.946 41.078 129 44.464 129 48.1284V65.8716C129 69.536 130.946 72.922 134.104 74.7542L149.396 83.6259C152.554 85.458 156.446 85.458 159.604 83.6259L174.896 74.7542C178.054 72.922 180 69.536 180 65.8716V48.1284C180 44.464 178.054 41.078 174.896 39.2458L159.604 30.3741Z" fill="#D7E1F4"/>
<path fill-rule="evenodd" clip-rule="evenodd" d="M89.3073 131.271L74.0149 122.399C71.2211 120.778 67.7789 120.778 64.9851 122.399L49.6927 131.271C46.8989 132.891 45.1778 135.887 45.1778 139.128V156.872C45.1778 160.113 46.8989 163.109 49.6927 164.729L64.9851 173.601C67.7789 175.222 71.2211 175.222 74.0149 173.601L89.3073 164.729C92.1011 163.109 93.8222 160.113 93.8222 156.872V139.128C93.8222 135.887 92.1011 132.891 89.3073 131.271ZM74.6038 121.374C71.4455 119.542 67.5545 119.542 64.3962 121.374L49.1038 130.246C45.9455 132.078 44 135.464 44 139.128V156.872C44 160.536 45.9455 163.922 49.1038 165.754L64.3962 174.626C67.5545 176.458 71.4455 176.458 74.6038 174.626L89.8962 165.754C93.0545 163.922 95 160.536 95 156.872V139.128C95 135.464 93.0545 132.078 89.8962 130.246L74.6038 121.374Z" fill="#D7E1F4"/>
<path fill-rule="evenodd" clip-rule="evenodd" d="M167.102 116.824L162.005 113.814C161.074 113.264 159.926 113.264 158.995 113.814L153.898 116.824C152.966 117.374 152.393 118.39 152.393 119.49V125.51C152.393 126.61 152.966 127.626 153.898 128.176L158.995 131.186C159.926 131.736 161.074 131.736 162.005 131.186L167.102 128.176C168.034 127.626 168.607 126.61 168.607 125.51V119.49C168.607 118.39 168.034 117.374 167.102 116.824ZM162.201 113.466C161.149 112.845 159.851 112.845 158.799 113.466L153.701 116.476C152.649 117.098 152 118.247 152 119.49V125.51C152 126.753 152.649 127.902 153.701 128.524L158.799 131.534C159.851 132.155 161.149 132.155 162.201 131.534L167.299 128.524C168.351 127.902 169 126.753 169 125.51V119.49C169 118.247 168.351 117.098 167.299 116.476L162.201 113.466Z" fill="#D7E1F4"/>
<path fill-rule="evenodd" clip-rule="evenodd" d="M71.2095 46.8366L63.7132 42.2424C62.3437 41.403 60.6563 41.403 59.2868 42.2424L51.7905 46.8366C50.421 47.6759 49.5774 49.2271 49.5774 50.9058V60.0942C49.5774 61.7729 50.421 63.3241 51.7905 64.1634L59.2868 68.7576C60.6563 69.597 62.3437 69.597 63.7132 68.7576L71.2095 64.1634C72.579 63.3241 73.4226 61.7729 73.4226 60.0942V50.9058C73.4226 49.2271 72.579 47.6759 71.2095 46.8366ZM64.0019 41.7116C62.4537 40.7628 60.5463 40.7628 58.9981 41.7116L51.5019 46.3058C49.9537 47.2547 49 49.0081 49 50.9058V60.0942C49 61.9919 49.9537 63.7453 51.5019 64.6942L58.9981 69.2884C60.5463 70.2372 62.4537 70.2372 64.0019 69.2884L71.4981 64.6942C73.0463 63.7453 74 61.9919 74 60.0942V50.9058C74 49.0081 73.0463 47.2547 71.4981 46.3058L64.0019 41.7116Z" fill="#D7E1F4"/>
<path fill-rule="evenodd" clip-rule="evenodd" d="M673.549 164.818L669.651 162.6C668.939 162.195 668.061 162.195 667.349 162.6L663.451 164.818C662.739 165.223 662.3 165.972 662.3 166.782V171.218C662.3 172.028 662.739 172.777 663.451 173.182L667.349 175.4C668.061 175.805 668.939 175.805 669.651 175.4L673.549 173.182C674.261 172.777 674.7 172.028 674.7 171.218V166.782C674.7 165.972 674.261 165.223 673.549 164.818ZM669.801 162.344C668.996 161.885 668.004 161.885 667.199 162.344L663.301 164.561C662.496 165.019 662 165.866 662 166.782V171.218C662 172.134 662.496 172.981 663.301 173.439L667.199 175.656C668.004 176.115 668.996 176.115 669.801 175.656L673.699 173.439C674.504 172.981 675 172.134 675 171.218V166.782C675 165.866 674.504 165.019 673.699 164.561L669.801 162.344Z" fill="#D7E1F4"/>
<path fill-rule="evenodd" clip-rule="evenodd" d="M688.307 40.2707L673.015 31.3991C670.221 29.7783 666.779 29.7783 663.985 31.3991L648.693 40.2707C645.899 41.8915 644.178 44.8868 644.178 48.1284V65.8716C644.178 69.1132 645.899 72.1085 648.693 73.7293L663.985 82.6009C666.779 84.2217 670.221 84.2217 673.015 82.6009L688.307 73.7293C691.101 72.1085 692.822 69.1132 692.822 65.8716V48.1284C692.822 44.8868 691.101 41.8915 688.307 40.2707ZM673.604 30.3741C670.446 28.542 666.554 28.542 663.396 30.3741L648.104 39.2458C644.946 41.078 643 44.464 643 48.1284V65.8716C643 69.536 644.946 72.922 648.104 74.7542L663.396 83.6259C666.554 85.458 670.446 85.458 673.604 83.6259L688.896 74.7542C692.054 72.922 694 69.536 694 65.8716V48.1284C694 44.464 692.054 41.078 688.896 39.2458L673.604 30.3741Z" fill="#D7E1F4"/>
<path fill-rule="evenodd" clip-rule="evenodd" d="M791.647 128.453L779.953 121.799C777.816 120.584 775.184 120.584 773.047 121.799L761.353 128.453C759.217 129.669 757.901 131.915 757.901 134.346V147.654C757.901 150.085 759.217 152.331 761.353 153.547L773.047 160.201C775.184 161.416 777.816 161.416 779.953 160.201L791.647 153.547C793.783 152.331 795.099 150.085 795.099 147.654V134.346C795.099 131.915 793.783 129.669 791.647 128.453ZM780.403 121.031C777.988 119.656 775.012 119.656 772.597 121.031L760.903 127.684C758.488 129.058 757 131.598 757 134.346V147.654C757 150.402 758.488 152.942 760.903 154.316L772.597 160.969C775.012 162.344 777.988 162.344 780.403 160.969L792.097 154.316C794.512 152.942 796 150.402 796 147.654V134.346C796 131.598 794.512 129.058 792.097 127.684L780.403 121.031Z" fill="#D7E1F4"/>
<path fill-rule="evenodd" clip-rule="evenodd" d="M771.647 92.453L759.953 85.7993C757.816 84.5837 755.184 84.5837 753.047 85.7993L741.353 92.453C739.217 93.6686 737.901 95.9151 737.901 98.3463V111.654C737.901 114.085 739.217 116.331 741.353 117.547L753.047 124.201C755.184 125.416 757.816 125.416 759.953 124.201L771.647 117.547C773.783 116.331 775.099 114.085 775.099 111.654V98.3463C775.099 95.9151 773.783 93.6686 771.647 92.453ZM760.403 85.0306C757.988 83.6565 755.012 83.6565 752.597 85.0306L740.903 91.6843C738.488 93.0585 737 95.598 737 98.3463V111.654C737 114.402 738.488 116.942 740.903 118.316L752.597 124.969C755.012 126.344 757.988 126.344 760.403 124.969L772.097 118.316C774.512 116.942 776 114.402 776 111.654V98.3463C776 95.598 774.512 93.0585 772.097 91.6843L760.403 85.0306Z" fill="#D7E1F4"/>
<path fill-rule="evenodd" clip-rule="evenodd" d="M839.647 23.453L827.953 16.7993C825.816 15.5837 823.184 15.5837 821.047 16.7993L809.353 23.453C807.217 24.6686 805.901 26.9151 805.901 29.3463V42.6537C805.901 45.0849 807.217 47.3314 809.353 48.547L821.047 55.2007C823.184 56.4163 825.816 56.4163 827.953 55.2007L839.647 48.547C841.783 47.3314 843.099 45.0849 843.099 42.6537V29.3463C843.099 26.9151 841.783 24.6686 839.647 23.453ZM828.403 16.0306C825.988 14.6565 823.012 14.6565 820.597 16.0306L808.903 22.6843C806.488 24.0585 805 26.598 805 29.3463V42.6537C805 45.402 806.488 47.9415 808.903 49.3157L820.597 55.9694C823.012 57.3435 825.988 57.3435 828.403 55.9694L840.097 49.3157C842.512 47.9415 844 45.402 844 42.6537V29.3463C844 26.598 842.512 24.0585 840.097 22.6843L828.403 16.0306Z" fill="#D7E1F4"/>
<path d="M602.521 149.145L631 198.828C582.5 198.828 548 199.215 514 198.828C532.581 152.006 570.367 140.885 592 142.085C596.503 142.335 600.278 145.233 602.521 149.145Z" fill="#D7E1F4" stroke="url(#paint4_linear_256_4255)" stroke-width="2"/>
<path d="M263.479 149.145L235 198.828C283.5 198.828 318 199.215 352 198.828C333.419 152.006 295.633 140.885 274 142.085C269.497 142.335 265.722 145.233 263.479 149.145Z" fill="#D7E1F4" stroke="url(#paint5_linear_256_4255)" stroke-width="2"/>
<rect x="0.5" y="0.5" width="861" height="199" stroke="#293856"/>
</g>
<defs>
<linearGradient id="paint0_linear_256_4255" x1="469.844" y1="55.6131" x2="593.187" y2="167.898" gradientUnits="userSpaceOnUse">
<stop stop-color="#0FC1B7"/>
<stop offset="1" stop-color="#4F75B7" stop-opacity="0"/>
</linearGradient>
<linearGradient id="paint1_linear_256_4255" x1="542.717" y1="62.9065" x2="583.441" y2="109.79" gradientUnits="userSpaceOnUse">
<stop stop-color="#0FC1B7"/>
<stop offset="1" stop-color="#1D3C5E"/>
</linearGradient>
<linearGradient id="paint2_linear_256_4255" x1="397.154" y1="55.6131" x2="273.81" y2="167.898" gradientUnits="userSpaceOnUse">
<stop stop-color="#0FC1B7"/>
<stop offset="1" stop-color="#4F75B7" stop-opacity="0"/>
</linearGradient>
<linearGradient id="paint3_linear_256_4255" x1="324.28" y1="62.9065" x2="283.556" y2="109.79" gradientUnits="userSpaceOnUse">
<stop stop-color="#0FC1B7"/>
<stop offset="1" stop-color="#1D3C5E"/>
</linearGradient>
<linearGradient id="paint4_linear_256_4255" x1="572.5" y1="142" x2="572.5" y2="199" gradientUnits="userSpaceOnUse">
<stop stop-color="#0FC1B7"/>
<stop offset="1" stop-color="#D7E1F4"/>
</linearGradient>
<linearGradient id="paint5_linear_256_4255" x1="293.5" y1="142" x2="293.5" y2="199" gradientUnits="userSpaceOnUse">
<stop stop-color="#0FC1B7"/>
<stop offset="1" stop-color="#D7E1F4"/>
</linearGradient>
<clipPath id="clip0_256_4255">
<rect width="862" height="200" fill="white"/>
</clipPath>
</defs>
</svg>
