<svg width="862" height="200" viewBox="0 0 862 200" fill="none" xmlns="http://www.w3.org/2000/svg">
<g clip-path="url(#clip0_291_5676)">
<rect width="862" height="200" fill="#40A1AC"/>
<path d="M0 0H862V200H0V0Z" fill="#111F3B"/>
<path d="M679 99.5C679 236.19 568.19 347 431.5 347C294.81 347 184 236.19 184 99.5C184 -37.1905 294.81 -148 431.5 -148C568.19 -148 679 -37.1905 679 99.5Z" fill="url(#paint0_radial_291_5676)" fill-opacity="0.49"/>
<path fill-rule="evenodd" clip-rule="evenodd" d="M430.5 24.3773L364.589 62.2112V137.789L430.5 175.623L496.411 137.789V62.2112L430.5 24.3773ZM505.411 57L430.5 14L355.589 57V143L430.5 186L505.411 143V57Z" fill="#0FC1B7"/>
<path d="M372.5 70.5V133.5L380 137.5V95.5L394 146L401 149.5V52.5L391.5 57.5V101L380 66L372.5 70.5Z" fill="#D7E1F4"/>
<path d="M409 46.5V154L418 160V105.5H451V94H418V51.5L430.5 44.5L453 57.5L458 49.5L430.5 33.5L409 46.5Z" fill="#D7E1F4"/>
<path d="M479 141L469.5 146V67L458 59.5L462.5 52.5L491 70.5V81L479 73.5V141Z" fill="#D7E1F4"/>
<path fill-rule="evenodd" clip-rule="evenodd" d="M430.495 32.9187L458.698 49.3274L453.168 58.1745L430.496 45.0752L418.5 51.7931V93.5H451.5V106H418.5V160.934L408.5 154.268V46.218L430.495 32.9187ZM430.505 34.0813L409.5 46.782V153.732L417.5 159.066V105H450.5V94.5H417.5V51.2069L430.504 43.9248L452.832 56.8255L457.302 49.6726L430.505 34.0813ZM401.5 51.6718V150.309L393.578 146.348L380.5 99.1752V138.333L372 133.8V70.2169L380.28 65.2492L391 97.8765V57.1981L401.5 51.6718ZM462.348 51.8124L491.5 70.2244V81.9021L479.5 74.4021V141.302L469 146.828V67.2708L457.311 59.6475L462.348 51.8124ZM392 57.8019V101L391.025 101.156L379.72 66.7508L373 70.7831V133.2L379.5 136.667V95.5L380.482 95.3664L394.422 145.652L400.5 148.691V53.3282L392 57.8019ZM462.652 53.1876L458.689 59.3525L470 66.7292V145.172L478.5 140.698V72.5979L490.5 80.0979V70.7756L462.652 53.1876Z" fill="#D7E1F4"/>
<path fill-rule="evenodd" clip-rule="evenodd" d="M861 1H1V199H861V1ZM0 0V200H862V0H0Z" fill="#293856"/>
</g>
<defs>
<radialGradient id="paint0_radial_291_5676" cx="0" cy="0" r="1" gradientUnits="userSpaceOnUse" gradientTransform="translate(431.5 99.5) rotate(90) scale(227.5)">
<stop stop-color="#0FC1B7" stop-opacity="0.72"/>
<stop offset="1" stop-color="#0FC1B7" stop-opacity="0"/>
</radialGradient>
<clipPath id="clip0_291_5676">
<rect width="862" height="200" fill="white"/>
</clipPath>
</defs>
</svg>
