<svg width="862" height="200" viewBox="0 0 862 200" fill="none" xmlns="http://www.w3.org/2000/svg">
<g clip-path="url(#clip0_859_6712)">
<rect width="862" height="200" fill="#40A1AC"/>
<path d="M0 0H862V200H0V0Z" fill="#111F3B"/>
<g filter="url(#filter0_di_859_6712)">
<path d="M469.097 94.7528C480.086 96.4528 488.67 101.408 491.614 107.753L505.871 138.473C508.816 144.818 505.674 151.587 497.63 156.232L458.678 178.72C450.633 183.365 438.908 185.179 427.92 183.479L374.71 175.247C363.721 173.547 355.138 168.592 352.194 162.247L337.936 131.527C334.992 125.182 338.133 118.413 346.178 113.768L385.13 91.2796C393.174 86.6352 404.899 84.8213 415.888 86.5213L469.097 94.7528Z" fill="url(#paint0_radial_859_6712)"/>
</g>
<g style="mix-blend-mode:color-dodge" filter="url(#filter1_d_859_6712)">
<path d="M447.062 117.092C443.714 115.159 443.714 112.025 447.062 110.092L451.551 107.5C454.899 105.567 460.328 105.567 463.676 107.5L468.165 110.092C471.513 112.025 471.513 115.159 468.165 117.092L463.676 119.684C460.328 121.617 454.899 121.617 451.551 119.684L447.062 117.092Z" fill="url(#paint1_radial_859_6712)"/>
<path d="M447.062 115.092C443.714 113.159 443.714 110.025 447.062 108.092L451.551 105.5C454.899 103.567 460.328 103.567 463.676 105.5L468.165 108.092C471.513 110.025 471.513 113.159 468.165 115.092L463.676 117.684C460.328 119.617 454.899 119.617 451.551 117.684L447.062 115.092Z" fill="url(#paint2_linear_859_6712)"/>
<path fill-rule="evenodd" clip-rule="evenodd" d="M451.984 105.75L447.495 108.342C444.386 110.137 444.386 113.047 447.495 114.842L451.984 117.434C455.093 119.228 460.134 119.228 463.243 117.434L467.732 114.842C470.841 113.047 470.841 110.137 467.732 108.342L463.243 105.75C460.134 103.955 455.093 103.955 451.984 105.75ZM447.062 108.092C443.714 110.025 443.714 113.159 447.062 115.092L451.551 117.684C454.899 119.617 460.328 119.617 463.676 117.684L468.165 115.092C471.513 113.159 471.513 110.025 468.165 108.092L463.676 105.5C460.328 103.567 454.899 103.567 451.551 105.5L447.062 108.092Z" fill="url(#paint3_linear_859_6712)"/>
<g filter="url(#filter2_f_859_6712)">
<path d="M447.062 115.092C443.714 113.159 443.714 110.025 447.062 108.092L451.551 105.5C454.899 103.567 460.328 103.567 463.676 105.5L468.165 108.092C471.513 110.025 471.513 113.159 468.165 115.092L463.676 117.684C460.328 119.617 454.899 119.617 451.551 117.684L447.062 115.092Z" fill="url(#paint4_linear_859_6712)"/>
</g>
</g>
<g filter="url(#filter3_d_859_6712)">
<g filter="url(#filter4_i_859_6712)">
<path d="M469.098 28.7529C480.087 30.4529 488.67 35.4085 491.614 41.7529L505.872 72.4733C508.816 78.8177 505.674 85.5872 497.63 90.2316L458.678 112.721C450.634 117.365 438.909 119.179 427.92 117.479L374.71 109.247C363.722 107.547 355.138 102.592 352.194 96.2474L337.936 65.527C334.992 59.1825 338.134 52.4131 346.178 47.7686L385.13 25.2797C393.174 20.6353 404.899 18.8214 415.888 20.5214L469.098 28.7529Z" fill="url(#paint5_radial_859_6712)"/>
</g>
</g>
<path d="M469.021 24.247C479.945 25.937 488.321 30.8442 491.161 36.9634L505.418 67.6838C506.827 70.72 506.78 73.8444 505.418 76.7795C504.05 79.7272 501.34 82.5122 497.38 84.7986L458.428 107.288C450.501 111.864 438.895 113.671 427.996 111.985L374.787 103.753C363.862 102.063 355.487 97.1561 352.647 91.0369L338.39 60.3165C336.981 57.2803 337.028 54.1558 338.39 51.2208C339.758 48.273 342.468 45.488 346.428 43.2016L385.38 20.7127C393.307 16.1359 404.912 14.3294 415.812 16.0155L469.021 24.247Z" fill="url(#paint6_radial_859_6712)" stroke="url(#paint7_linear_859_6712)"/>
<g style="mix-blend-mode:color-dodge" filter="url(#filter5_d_859_6712)">
<path d="M416.062 167.936C412.714 166.003 412.714 162.869 416.062 160.936L429.482 153.188C432.83 151.255 438.258 151.255 441.607 153.188L455.026 160.936C458.375 162.869 458.375 166.003 455.026 167.936L441.607 175.684C438.258 177.617 432.83 177.617 429.482 175.684L416.062 167.936Z" fill="url(#paint8_radial_859_6712)"/>
<path d="M416.062 160.248C412.714 158.315 412.714 155.181 416.062 153.248L429.482 145.5C432.83 143.567 438.258 143.567 441.607 145.5L455.026 153.248C458.375 155.181 458.375 158.315 455.026 160.248L441.607 167.996C438.258 169.929 432.83 169.929 429.482 167.996L416.062 160.248Z" fill="url(#paint9_linear_859_6712)"/>
<path fill-rule="evenodd" clip-rule="evenodd" d="M429.915 145.75L416.495 153.498C413.386 155.293 413.386 158.203 416.495 159.998L429.915 167.746C433.024 169.541 438.065 169.541 441.174 167.746L454.593 159.998C457.702 158.203 457.702 155.293 454.593 153.498L441.173 145.75C438.065 143.955 433.024 143.955 429.915 145.75ZM416.062 153.248C412.714 155.181 412.714 158.315 416.062 160.248L429.482 167.996C432.83 169.929 438.258 169.929 441.607 167.996L455.026 160.248C458.375 158.315 458.375 155.181 455.026 153.248L441.607 145.5C438.258 143.567 432.83 143.567 429.482 145.5L416.062 153.248Z" fill="url(#paint10_linear_859_6712)"/>
<g filter="url(#filter6_f_859_6712)">
<path d="M416.062 164.86C412.714 162.927 412.714 159.793 416.062 157.86L429.482 150.112C432.83 148.179 438.258 148.179 441.607 150.112L455.026 157.86C458.375 159.793 458.375 162.927 455.026 164.86L441.607 172.608C438.258 174.541 432.83 174.541 429.482 172.608L416.062 164.86Z" fill="url(#paint11_linear_859_6712)"/>
</g>
</g>
<g style="mix-blend-mode:color-dodge" filter="url(#filter7_d_859_6712)">
<path d="M474.062 153.092C470.714 151.159 470.714 148.025 474.062 146.092L478.551 143.5C481.899 141.567 487.328 141.567 490.676 143.5L495.165 146.092C498.513 148.025 498.513 151.159 495.165 153.092L490.676 155.684C487.328 157.617 481.899 157.617 478.551 155.684L474.062 153.092Z" fill="url(#paint12_radial_859_6712)"/>
<path d="M474.062 151.092C470.714 149.159 470.714 146.025 474.062 144.092L478.551 141.5C481.899 139.567 487.328 139.567 490.676 141.5L495.165 144.092C498.513 146.025 498.513 149.159 495.165 151.092L490.676 153.684C487.328 155.617 481.899 155.617 478.551 153.684L474.062 151.092Z" fill="url(#paint13_linear_859_6712)"/>
<path fill-rule="evenodd" clip-rule="evenodd" d="M478.984 141.75L474.495 144.342C471.386 146.137 471.386 149.047 474.495 150.842L478.984 153.434C482.093 155.228 487.134 155.228 490.243 153.434L494.732 150.842C497.841 149.047 497.841 146.137 494.732 144.342L490.243 141.75C487.134 139.955 482.093 139.955 478.984 141.75ZM474.062 144.092C470.714 146.025 470.714 149.159 474.062 151.092L478.551 153.684C481.899 155.617 487.328 155.617 490.676 153.684L495.165 151.092C498.513 149.159 498.513 146.025 495.165 144.092L490.676 141.5C487.328 139.567 481.899 139.567 478.551 141.5L474.062 144.092Z" fill="url(#paint14_linear_859_6712)"/>
<g filter="url(#filter8_f_859_6712)">
<path d="M474.062 151.092C470.714 149.159 470.714 146.025 474.062 144.092L478.551 141.5C481.899 139.567 487.328 139.567 490.676 141.5L495.165 144.092C498.513 146.025 498.513 149.159 495.165 151.092L490.676 153.684C487.328 155.617 481.899 155.617 478.551 153.684L474.062 151.092Z" fill="url(#paint15_linear_859_6712)"/>
</g>
</g>
<g style="mix-blend-mode:color-dodge" filter="url(#filter9_d_859_6712)">
<path d="M364.062 166.092C360.714 164.159 360.714 161.025 364.062 159.092L368.551 156.5C371.899 154.567 377.328 154.567 380.676 156.5L385.165 159.092C388.513 161.025 388.513 164.159 385.165 166.092L380.676 168.684C377.328 170.617 371.899 170.617 368.551 168.684L364.062 166.092Z" fill="url(#paint16_radial_859_6712)"/>
<path d="M364.062 164.092C360.714 162.159 360.714 159.025 364.062 157.092L368.551 154.5C371.899 152.567 377.328 152.567 380.676 154.5L385.165 157.092C388.513 159.025 388.513 162.159 385.165 164.092L380.676 166.684C377.328 168.617 371.899 168.617 368.551 166.684L364.062 164.092Z" fill="url(#paint17_linear_859_6712)"/>
<path fill-rule="evenodd" clip-rule="evenodd" d="M368.984 154.75L364.495 157.342C361.386 159.137 361.386 162.047 364.495 163.842L368.984 166.434C372.093 168.228 377.134 168.228 380.243 166.434L384.732 163.842C387.841 162.047 387.841 159.137 384.732 157.342L380.243 154.75C377.134 152.955 372.093 152.955 368.984 154.75ZM364.062 157.092C360.714 159.025 360.714 162.159 364.062 164.092L368.551 166.684C371.899 168.617 377.328 168.617 380.676 166.684L385.165 164.092C388.513 162.159 388.513 159.025 385.165 157.092L380.676 154.5C377.328 152.567 371.899 152.567 368.551 154.5L364.062 157.092Z" fill="url(#paint18_linear_859_6712)"/>
<g filter="url(#filter10_f_859_6712)">
<path d="M364.062 164.092C360.714 162.159 360.714 159.025 364.062 157.092L368.551 154.5C371.899 152.567 377.328 152.567 380.676 154.5L385.165 157.092C388.513 159.025 388.513 162.159 385.165 164.092L380.676 166.684C377.328 168.617 371.899 168.617 368.551 166.684L364.062 164.092Z" fill="url(#paint19_linear_859_6712)"/>
</g>
</g>
<g style="mix-blend-mode:color-dodge" filter="url(#filter11_d_859_6712)">
<path d="M348.062 135.516C344.714 133.583 344.714 130.449 348.062 128.516L360.438 121.371C363.786 119.438 369.214 119.438 372.562 121.371L384.938 128.516C388.286 130.449 388.286 133.583 384.938 135.516L372.562 142.661C369.214 144.594 363.786 144.594 360.438 142.661L348.062 135.516Z" fill="url(#paint20_radial_859_6712)"/>
<path d="M348.062 126.668C344.714 124.735 344.714 121.601 348.062 119.668L360.438 112.523C363.786 110.59 369.214 110.59 372.562 112.523L384.938 119.668C388.286 121.601 388.286 124.735 384.938 126.668L372.562 133.813C369.214 135.746 363.786 135.746 360.438 133.813L348.062 126.668Z" fill="url(#paint21_linear_859_6712)"/>
<path fill-rule="evenodd" clip-rule="evenodd" d="M360.871 112.773L348.495 119.918C345.386 121.713 345.386 124.623 348.495 126.418L360.871 133.563C363.98 135.358 369.02 135.358 372.129 133.563L384.505 126.418C387.614 124.623 387.614 121.713 384.505 119.918L372.129 112.773C369.02 110.978 363.98 110.978 360.871 112.773ZM348.062 119.668C344.714 121.601 344.714 124.735 348.062 126.668L360.438 133.813C363.786 135.746 369.214 135.746 372.562 133.813L384.938 126.668C388.286 124.735 388.286 121.601 384.938 119.668L372.562 112.523C369.214 110.59 363.786 110.59 360.438 112.523L348.062 119.668Z" fill="url(#paint22_linear_859_6712)"/>
<g filter="url(#filter12_f_859_6712)">
<path d="M348.062 132.566C344.714 130.633 344.714 127.499 348.062 125.566L360.438 118.421C363.786 116.488 369.214 116.488 372.562 118.421L384.938 125.566C388.286 127.499 388.286 130.633 384.938 132.566L372.562 139.711C369.214 141.644 363.786 141.644 360.438 139.711L348.062 132.566Z" fill="url(#paint23_linear_859_6712)"/>
</g>
</g>
<g opacity="0.4">
<path d="M308.097 118.753C319.086 120.453 327.67 125.408 330.614 131.753L344.871 162.473C347.816 168.818 344.674 175.587 336.63 180.232L297.678 202.72C289.633 207.365 277.908 209.179 266.92 207.479L213.71 199.247C202.721 197.547 194.138 192.592 191.194 186.247L176.936 155.527C173.992 149.182 177.133 142.413 185.178 137.768L224.13 115.28C232.174 110.635 243.899 108.821 254.888 110.521L308.097 118.753Z" fill="url(#paint24_radial_859_6712)"/>
</g>
<g opacity="0.4">
<path d="M628.097 68.7528C639.086 70.4528 647.67 75.4083 650.614 81.7528L664.871 112.473C667.816 118.818 664.674 125.587 656.63 130.232L617.678 152.72C609.633 157.365 597.908 159.179 586.92 157.479L533.71 149.247C522.721 147.547 514.138 142.592 511.194 136.247L496.936 105.527C493.992 99.1824 497.133 92.413 505.178 87.7685L544.13 65.2796C552.174 60.6352 563.899 58.8213 574.888 60.5213L628.097 68.7528Z" fill="url(#paint25_radial_859_6712)"/>
</g>
<g opacity="0.4">
<path d="M787.097 44.7528C798.086 46.4528 806.67 51.4083 809.614 57.7528L823.871 88.4732C826.816 94.8176 823.674 101.587 815.63 106.232L776.678 128.72C768.633 133.365 756.908 135.179 745.92 133.479L692.71 125.247C681.721 123.547 673.138 118.592 670.194 112.247L655.936 81.5268C652.992 75.1824 656.133 68.413 664.178 63.7685L703.13 41.2796C711.174 36.6352 722.899 34.8213 733.888 36.5213L787.097 44.7528Z" fill="url(#paint26_radial_859_6712)"/>
</g>
<g opacity="0.4">
<path d="M745.097 138.753C756.086 140.453 764.67 145.408 767.614 151.753L781.871 182.473C784.816 188.818 781.674 195.587 773.63 200.232L734.678 222.72C726.633 227.365 714.908 229.179 703.92 227.479L650.71 219.247C639.721 217.547 631.138 212.592 628.194 206.247L613.936 175.527C610.992 169.182 614.133 162.413 622.178 157.768L661.13 135.28C669.174 130.635 680.899 128.821 691.888 130.521L745.097 138.753Z" fill="url(#paint27_radial_859_6712)"/>
</g>
<g opacity="0.4">
<path d="M146.097 140.753C157.086 142.453 165.67 147.408 168.614 153.753L182.871 184.473C185.816 190.818 182.674 197.587 174.63 202.232L135.678 224.72C127.633 229.365 115.908 231.179 104.92 229.479L51.7102 221.247C40.7213 219.547 32.138 214.592 29.1936 208.247L14.9362 177.527C11.9917 171.182 15.1334 164.413 23.1779 159.768L62.1298 137.28C70.1742 132.635 81.8992 130.821 92.8881 132.521L146.097 140.753Z" fill="url(#paint28_radial_859_6712)"/>
</g>
<g opacity="0.4">
<path d="M193.097 47.7528C204.086 49.4528 212.67 54.4083 215.614 60.7528L229.871 91.4732C232.816 97.8176 229.674 104.587 221.63 109.232L182.678 131.72C174.633 136.365 162.908 138.179 151.92 136.479L98.7102 128.247C87.7214 126.547 79.138 121.592 76.1936 115.247L61.9362 84.5268C58.9917 78.1824 62.1334 71.413 70.1779 66.7685L109.13 44.2796C117.174 39.6352 128.899 37.8213 139.888 39.5213L193.097 47.7528Z" fill="url(#paint29_radial_859_6712)"/>
</g>
<g opacity="0.4">
<path d="M353.097 24.7528C364.086 26.4528 372.67 31.4083 375.614 37.7528L389.871 68.4732C392.816 74.8176 389.674 81.5871 381.63 86.2315L342.678 108.72C334.633 113.365 322.908 115.179 311.92 113.479L258.71 105.247C247.721 103.547 239.138 98.5917 236.194 92.2472L221.936 61.5268C218.992 55.1824 222.133 48.413 230.178 43.7685L269.13 21.2796C277.174 16.6352 288.899 14.8213 299.888 16.5213L353.097 24.7528Z" fill="url(#paint30_radial_859_6712)"/>
</g>
<g opacity="0.4">
<path d="M671.097 -26.2472C682.086 -24.5472 690.67 -19.5917 693.614 -13.2472L707.871 17.4732C710.816 23.8176 707.674 30.5871 699.63 35.2315L660.678 57.7204C652.633 62.3649 640.908 64.1787 629.92 62.4787L576.71 54.2472C565.721 52.5472 557.138 47.5917 554.194 41.2472L539.936 10.5268C536.992 4.18239 540.133 -2.58705 548.178 -7.2315L587.13 -29.7204C595.174 -34.3648 606.899 -36.1787 617.888 -34.4787L671.097 -26.2472Z" fill="url(#paint31_radial_859_6712)"/>
</g>
<path d="M0 0H862V200H0V0Z" fill="url(#paint32_radial_859_6712)"/>
<path fill-rule="evenodd" clip-rule="evenodd" d="M861 1H1V199H861V1ZM0 0V200H862V0H0Z" fill="#293856"/>
<path fill-rule="evenodd" clip-rule="evenodd" d="M861 1H1V199H861V1ZM0 0V200H862V0H0Z" fill="#293858"/>
</g>
<defs>
<filter id="filter0_di_859_6712" x="312.85" y="65.8945" width="218.107" height="146.211" filterUnits="userSpaceOnUse" color-interpolation-filters="sRGB">
<feFlood flood-opacity="0" result="BackgroundImageFix"/>
<feColorMatrix in="SourceAlpha" type="matrix" values="0 0 0 0 0 0 0 0 0 0 0 0 0 0 0 0 0 0 127 0" result="hardAlpha"/>
<feOffset dy="4"/>
<feGaussianBlur stdDeviation="12"/>
<feComposite in2="hardAlpha" operator="out"/>
<feColorMatrix type="matrix" values="0 0 0 0 0.0666667 0 0 0 0 0.121569 0 0 0 0 0.231373 0 0 0 1 0"/>
<feBlend mode="normal" in2="BackgroundImageFix" result="effect1_dropShadow_859_6712"/>
<feBlend mode="normal" in="SourceGraphic" in2="effect1_dropShadow_859_6712" result="shape"/>
<feColorMatrix in="SourceAlpha" type="matrix" values="0 0 0 0 0 0 0 0 0 0 0 0 0 0 0 0 0 0 127 0" result="hardAlpha"/>
<feOffset dy="6"/>
<feComposite in2="hardAlpha" operator="arithmetic" k2="-1" k3="1"/>
<feColorMatrix type="matrix" values="0 0 0 0 0 0 0 0 0 0 0 0 0 0 0 0 0 0 0.25 0"/>
<feBlend mode="normal" in2="shape" result="effect2_innerShadow_859_6712"/>
</filter>
<filter id="filter1_d_859_6712" x="442.551" y="103.05" width="30.1245" height="21.083" filterUnits="userSpaceOnUse" color-interpolation-filters="sRGB">
<feFlood flood-opacity="0" result="BackgroundImageFix"/>
<feColorMatrix in="SourceAlpha" type="matrix" values="0 0 0 0 0 0 0 0 0 0 0 0 0 0 0 0 0 0 127 0" result="hardAlpha"/>
<feOffset dy="1"/>
<feGaussianBlur stdDeviation="1"/>
<feComposite in2="hardAlpha" operator="out"/>
<feColorMatrix type="matrix" values="0 0 0 0 0 0 0 0 0 0 0 0 0 0 0 0 0 0 0.25 0"/>
<feBlend mode="normal" in2="BackgroundImageFix" result="effect1_dropShadow_859_6712"/>
<feBlend mode="normal" in="SourceGraphic" in2="effect1_dropShadow_859_6712" result="shape"/>
</filter>
<filter id="filter2_f_859_6712" x="438.551" y="98.0503" width="38.1245" height="27.083" filterUnits="userSpaceOnUse" color-interpolation-filters="sRGB">
<feFlood flood-opacity="0" result="BackgroundImageFix"/>
<feBlend mode="normal" in="SourceGraphic" in2="BackgroundImageFix" result="shape"/>
<feGaussianBlur stdDeviation="3" result="effect1_foregroundBlur_859_6712"/>
</filter>
<filter id="filter3_d_859_6712" x="312.851" y="-0.105469" width="218.107" height="146.211" filterUnits="userSpaceOnUse" color-interpolation-filters="sRGB">
<feFlood flood-opacity="0" result="BackgroundImageFix"/>
<feColorMatrix in="SourceAlpha" type="matrix" values="0 0 0 0 0 0 0 0 0 0 0 0 0 0 0 0 0 0 127 0" result="hardAlpha"/>
<feOffset dy="4"/>
<feGaussianBlur stdDeviation="12"/>
<feComposite in2="hardAlpha" operator="out"/>
<feColorMatrix type="matrix" values="0 0 0 0 0.0666667 0 0 0 0 0.121569 0 0 0 0 0.231373 0 0 0 1 0"/>
<feBlend mode="normal" in2="BackgroundImageFix" result="effect1_dropShadow_859_6712"/>
<feBlend mode="normal" in="SourceGraphic" in2="effect1_dropShadow_859_6712" result="shape"/>
</filter>
<filter id="filter4_i_859_6712" x="336.851" y="16.8945" width="170.107" height="101.211" filterUnits="userSpaceOnUse" color-interpolation-filters="sRGB">
<feFlood flood-opacity="0" result="BackgroundImageFix"/>
<feBlend mode="normal" in="SourceGraphic" in2="BackgroundImageFix" result="shape"/>
<feColorMatrix in="SourceAlpha" type="matrix" values="0 0 0 0 0 0 0 0 0 0 0 0 0 0 0 0 0 0 127 0" result="hardAlpha"/>
<feOffset dy="-3"/>
<feGaussianBlur stdDeviation="25.5"/>
<feComposite in2="hardAlpha" operator="arithmetic" k2="-1" k3="1"/>
<feColorMatrix type="matrix" values="0 0 0 0 0.0627451 0 0 0 0 0.121569 0 0 0 0 0.231373 0 0 0 1 0"/>
<feBlend mode="normal" in2="shape" result="effect1_innerShadow_859_6712"/>
</filter>
<filter id="filter5_d_859_6712" x="411.551" y="143.05" width="47.9864" height="37.083" filterUnits="userSpaceOnUse" color-interpolation-filters="sRGB">
<feFlood flood-opacity="0" result="BackgroundImageFix"/>
<feColorMatrix in="SourceAlpha" type="matrix" values="0 0 0 0 0 0 0 0 0 0 0 0 0 0 0 0 0 0 127 0" result="hardAlpha"/>
<feOffset dy="1"/>
<feGaussianBlur stdDeviation="1"/>
<feComposite in2="hardAlpha" operator="out"/>
<feColorMatrix type="matrix" values="0 0 0 0 0 0 0 0 0 0 0 0 0 0 0 0 0 0 0.25 0"/>
<feBlend mode="normal" in2="BackgroundImageFix" result="effect1_dropShadow_859_6712"/>
<feBlend mode="normal" in="SourceGraphic" in2="effect1_dropShadow_859_6712" result="shape"/>
</filter>
<filter id="filter6_f_859_6712" x="407.551" y="142.663" width="55.9864" height="37.3955" filterUnits="userSpaceOnUse" color-interpolation-filters="sRGB">
<feFlood flood-opacity="0" result="BackgroundImageFix"/>
<feBlend mode="normal" in="SourceGraphic" in2="BackgroundImageFix" result="shape"/>
<feGaussianBlur stdDeviation="3" result="effect1_foregroundBlur_859_6712"/>
</filter>
<filter id="filter7_d_859_6712" x="469.551" y="139.05" width="30.1245" height="21.083" filterUnits="userSpaceOnUse" color-interpolation-filters="sRGB">
<feFlood flood-opacity="0" result="BackgroundImageFix"/>
<feColorMatrix in="SourceAlpha" type="matrix" values="0 0 0 0 0 0 0 0 0 0 0 0 0 0 0 0 0 0 127 0" result="hardAlpha"/>
<feOffset dy="1"/>
<feGaussianBlur stdDeviation="1"/>
<feComposite in2="hardAlpha" operator="out"/>
<feColorMatrix type="matrix" values="0 0 0 0 0 0 0 0 0 0 0 0 0 0 0 0 0 0 0.25 0"/>
<feBlend mode="normal" in2="BackgroundImageFix" result="effect1_dropShadow_859_6712"/>
<feBlend mode="normal" in="SourceGraphic" in2="effect1_dropShadow_859_6712" result="shape"/>
</filter>
<filter id="filter8_f_859_6712" x="465.551" y="134.05" width="38.1245" height="27.083" filterUnits="userSpaceOnUse" color-interpolation-filters="sRGB">
<feFlood flood-opacity="0" result="BackgroundImageFix"/>
<feBlend mode="normal" in="SourceGraphic" in2="BackgroundImageFix" result="shape"/>
<feGaussianBlur stdDeviation="3" result="effect1_foregroundBlur_859_6712"/>
</filter>
<filter id="filter9_d_859_6712" x="359.551" y="152.05" width="30.1245" height="21.083" filterUnits="userSpaceOnUse" color-interpolation-filters="sRGB">
<feFlood flood-opacity="0" result="BackgroundImageFix"/>
<feColorMatrix in="SourceAlpha" type="matrix" values="0 0 0 0 0 0 0 0 0 0 0 0 0 0 0 0 0 0 127 0" result="hardAlpha"/>
<feOffset dy="1"/>
<feGaussianBlur stdDeviation="1"/>
<feComposite in2="hardAlpha" operator="out"/>
<feColorMatrix type="matrix" values="0 0 0 0 0 0 0 0 0 0 0 0 0 0 0 0 0 0 0.25 0"/>
<feBlend mode="normal" in2="BackgroundImageFix" result="effect1_dropShadow_859_6712"/>
<feBlend mode="normal" in="SourceGraphic" in2="effect1_dropShadow_859_6712" result="shape"/>
</filter>
<filter id="filter10_f_859_6712" x="355.551" y="147.05" width="38.1245" height="27.083" filterUnits="userSpaceOnUse" color-interpolation-filters="sRGB">
<feFlood flood-opacity="0" result="BackgroundImageFix"/>
<feBlend mode="normal" in="SourceGraphic" in2="BackgroundImageFix" result="shape"/>
<feGaussianBlur stdDeviation="3" result="effect1_foregroundBlur_859_6712"/>
</filter>
<filter id="filter11_d_859_6712" x="343.551" y="110.073" width="45.8977" height="37.0374" filterUnits="userSpaceOnUse" color-interpolation-filters="sRGB">
<feFlood flood-opacity="0" result="BackgroundImageFix"/>
<feColorMatrix in="SourceAlpha" type="matrix" values="0 0 0 0 0 0 0 0 0 0 0 0 0 0 0 0 0 0 127 0" result="hardAlpha"/>
<feOffset dy="1"/>
<feGaussianBlur stdDeviation="1"/>
<feComposite in2="hardAlpha" operator="out"/>
<feColorMatrix type="matrix" values="0 0 0 0 0 0 0 0 0 0 0 0 0 0 0 0 0 0 0.25 0"/>
<feBlend mode="normal" in2="BackgroundImageFix" result="effect1_dropShadow_859_6712"/>
<feBlend mode="normal" in="SourceGraphic" in2="effect1_dropShadow_859_6712" result="shape"/>
</filter>
<filter id="filter12_f_859_6712" x="339.551" y="110.972" width="53.8977" height="36.1895" filterUnits="userSpaceOnUse" color-interpolation-filters="sRGB">
<feFlood flood-opacity="0" result="BackgroundImageFix"/>
<feBlend mode="normal" in="SourceGraphic" in2="BackgroundImageFix" result="shape"/>
<feGaussianBlur stdDeviation="3" result="effect1_foregroundBlur_859_6712"/>
</filter>
<radialGradient id="paint0_radial_859_6712" cx="0" cy="0" r="1" gradientUnits="userSpaceOnUse" gradientTransform="translate(421.904 135) rotate(117.923) scale(114.89 240.306)">
<stop stop-color="#3CDCD6"/>
<stop offset="1" stop-color="#D7E1F4" stop-opacity="0"/>
</radialGradient>
<radialGradient id="paint1_radial_859_6712" cx="0" cy="0" r="1" gradientUnits="userSpaceOnUse" gradientTransform="translate(457.613 113.592) rotate(86.7486) scale(24.4476 21.1722)">
<stop stop-color="#2A8E89"/>
<stop offset="1" stop-color="#378D88" stop-opacity="0"/>
</radialGradient>
<linearGradient id="paint2_linear_859_6712" x1="449.307" y1="106.796" x2="466.35" y2="127.84" gradientUnits="userSpaceOnUse">
<stop stop-color="#3AEEE4"/>
<stop offset="1" stop-color="#0FC1B7" stop-opacity="0"/>
</linearGradient>
<linearGradient id="paint3_linear_859_6712" x1="460" y1="109.5" x2="451.456" y2="122.567" gradientUnits="userSpaceOnUse">
<stop stop-color="#35E7DC"/>
<stop offset="1" stop-color="#35E7DC" stop-opacity="0"/>
</linearGradient>
<linearGradient id="paint4_linear_859_6712" x1="449.307" y1="106.796" x2="466.35" y2="127.84" gradientUnits="userSpaceOnUse">
<stop stop-color="#3AEEE4"/>
<stop offset="1" stop-color="#0FC1B7" stop-opacity="0"/>
</linearGradient>
<radialGradient id="paint5_radial_859_6712" cx="0" cy="0" r="1" gradientUnits="userSpaceOnUse" gradientTransform="translate(422 103) rotate(-92.8025) scale(143.171 299.461)">
<stop offset="0.141504" stop-color="#D7E1F4"/>
<stop offset="1" stop-color="#D7E1F4" stop-opacity="0"/>
</radialGradient>
<radialGradient id="paint6_radial_859_6712" cx="0" cy="0" r="1" gradientUnits="userSpaceOnUse" gradientTransform="translate(421.904 64.0002) rotate(150) scale(75 64.9519)">
<stop stop-color="#D7E1F4"/>
<stop offset="1" stop-color="#D7E1F4" stop-opacity="0"/>
</radialGradient>
<linearGradient id="paint7_linear_859_6712" x1="467" y1="97" x2="465" y2="53.5" gradientUnits="userSpaceOnUse">
<stop stop-color="#7886A0"/>
<stop offset="1" stop-color="white" stop-opacity="0"/>
</linearGradient>
<radialGradient id="paint8_radial_859_6712" cx="0" cy="0" r="1" gradientUnits="userSpaceOnUse" gradientTransform="translate(435.544 164.436) rotate(86.7486) scale(37.5899 32.5538)">
<stop stop-color="#2A8E89"/>
<stop offset="1" stop-color="#378D88" stop-opacity="0"/>
</radialGradient>
<linearGradient id="paint9_linear_859_6712" x1="422.772" y1="149.374" x2="448.978" y2="181.731" gradientUnits="userSpaceOnUse">
<stop stop-color="#3AEEE4"/>
<stop offset="1" stop-color="#0FC1B7" stop-opacity="0"/>
</linearGradient>
<linearGradient id="paint10_linear_859_6712" x1="439.214" y1="153.532" x2="426.076" y2="173.623" gradientUnits="userSpaceOnUse">
<stop stop-color="#35E7DC"/>
<stop offset="1" stop-color="#35E7DC" stop-opacity="0"/>
</linearGradient>
<linearGradient id="paint11_linear_859_6712" x1="422.772" y1="153.986" x2="448.978" y2="186.343" gradientUnits="userSpaceOnUse">
<stop stop-color="#3AEEE4"/>
<stop offset="1" stop-color="#0FC1B7" stop-opacity="0"/>
</linearGradient>
<radialGradient id="paint12_radial_859_6712" cx="0" cy="0" r="1" gradientUnits="userSpaceOnUse" gradientTransform="translate(484.613 149.592) rotate(86.7486) scale(24.4476 21.1722)">
<stop stop-color="#2A8E89"/>
<stop offset="1" stop-color="#378D88" stop-opacity="0"/>
</radialGradient>
<linearGradient id="paint13_linear_859_6712" x1="476.307" y1="142.796" x2="493.35" y2="163.84" gradientUnits="userSpaceOnUse">
<stop stop-color="#3AEEE4"/>
<stop offset="1" stop-color="#0FC1B7" stop-opacity="0"/>
</linearGradient>
<linearGradient id="paint14_linear_859_6712" x1="487" y1="145.5" x2="478.456" y2="158.567" gradientUnits="userSpaceOnUse">
<stop stop-color="#35E7DC"/>
<stop offset="1" stop-color="#35E7DC" stop-opacity="0"/>
</linearGradient>
<linearGradient id="paint15_linear_859_6712" x1="476.307" y1="142.796" x2="493.35" y2="163.84" gradientUnits="userSpaceOnUse">
<stop stop-color="#3AEEE4"/>
<stop offset="1" stop-color="#0FC1B7" stop-opacity="0"/>
</linearGradient>
<radialGradient id="paint16_radial_859_6712" cx="0" cy="0" r="1" gradientUnits="userSpaceOnUse" gradientTransform="translate(374.613 162.592) rotate(86.7486) scale(24.4476 21.1722)">
<stop stop-color="#2A8E89"/>
<stop offset="1" stop-color="#378D88" stop-opacity="0"/>
</radialGradient>
<linearGradient id="paint17_linear_859_6712" x1="366.307" y1="155.796" x2="383.35" y2="176.84" gradientUnits="userSpaceOnUse">
<stop stop-color="#3AEEE4"/>
<stop offset="1" stop-color="#0FC1B7" stop-opacity="0"/>
</linearGradient>
<linearGradient id="paint18_linear_859_6712" x1="377" y1="158.5" x2="368.456" y2="171.567" gradientUnits="userSpaceOnUse">
<stop stop-color="#35E7DC"/>
<stop offset="1" stop-color="#35E7DC" stop-opacity="0"/>
</linearGradient>
<linearGradient id="paint19_linear_859_6712" x1="366.307" y1="155.796" x2="383.35" y2="176.84" gradientUnits="userSpaceOnUse">
<stop stop-color="#3AEEE4"/>
<stop offset="1" stop-color="#0FC1B7" stop-opacity="0"/>
</linearGradient>
<radialGradient id="paint20_radial_859_6712" cx="0" cy="0" r="1" gradientUnits="userSpaceOnUse" gradientTransform="translate(366.5 132.016) rotate(86.7486) scale(36.0531 31.2229)">
<stop stop-color="#2A8E89"/>
<stop offset="1" stop-color="#378D88" stop-opacity="0"/>
</radialGradient>
<linearGradient id="paint21_linear_859_6712" x1="354.25" y1="116.095" x2="379.384" y2="147.129" gradientUnits="userSpaceOnUse">
<stop stop-color="#3AEEE4"/>
<stop offset="1" stop-color="#0FC1B7" stop-opacity="0"/>
</linearGradient>
<linearGradient id="paint22_linear_859_6712" x1="370.02" y1="120.083" x2="357.419" y2="139.353" gradientUnits="userSpaceOnUse">
<stop stop-color="#35E7DC"/>
<stop offset="1" stop-color="#35E7DC" stop-opacity="0"/>
</linearGradient>
<linearGradient id="paint23_linear_859_6712" x1="354.25" y1="121.994" x2="379.384" y2="153.028" gradientUnits="userSpaceOnUse">
<stop stop-color="#3AEEE4"/>
<stop offset="1" stop-color="#0FC1B7" stop-opacity="0"/>
</linearGradient>
<radialGradient id="paint24_radial_859_6712" cx="0" cy="0" r="1" gradientUnits="userSpaceOnUse" gradientTransform="translate(261.5 156) rotate(-94.0472) scale(106.265 222.267)">
<stop stop-color="#D7E1F4" stop-opacity="0.63"/>
<stop offset="0.723958" stop-color="#D7E1F4" stop-opacity="0"/>
</radialGradient>
<radialGradient id="paint25_radial_859_6712" cx="0" cy="0" r="1" gradientUnits="userSpaceOnUse" gradientTransform="translate(581.5 106) rotate(-94.0472) scale(106.265 222.267)">
<stop stop-color="#D7E1F4" stop-opacity="0.63"/>
<stop offset="0.723958" stop-color="#D7E1F4" stop-opacity="0"/>
</radialGradient>
<radialGradient id="paint26_radial_859_6712" cx="0" cy="0" r="1" gradientUnits="userSpaceOnUse" gradientTransform="translate(740.5 82) rotate(-94.0472) scale(106.265 222.267)">
<stop stop-color="#D7E1F4" stop-opacity="0.63"/>
<stop offset="0.723958" stop-color="#D7E1F4" stop-opacity="0"/>
</radialGradient>
<radialGradient id="paint27_radial_859_6712" cx="0" cy="0" r="1" gradientUnits="userSpaceOnUse" gradientTransform="translate(698.5 176) rotate(-94.0472) scale(106.265 222.267)">
<stop stop-color="#D7E1F4" stop-opacity="0.63"/>
<stop offset="0.723958" stop-color="#D7E1F4" stop-opacity="0"/>
</radialGradient>
<radialGradient id="paint28_radial_859_6712" cx="0" cy="0" r="1" gradientUnits="userSpaceOnUse" gradientTransform="translate(99.5 178) rotate(-94.0472) scale(106.265 222.267)">
<stop stop-color="#D7E1F4" stop-opacity="0.63"/>
<stop offset="0.723958" stop-color="#D7E1F4" stop-opacity="0"/>
</radialGradient>
<radialGradient id="paint29_radial_859_6712" cx="0" cy="0" r="1" gradientUnits="userSpaceOnUse" gradientTransform="translate(146.5 85) rotate(-94.0472) scale(106.265 222.267)">
<stop stop-color="#D7E1F4" stop-opacity="0.63"/>
<stop offset="0.723958" stop-color="#D7E1F4" stop-opacity="0"/>
</radialGradient>
<radialGradient id="paint30_radial_859_6712" cx="0" cy="0" r="1" gradientUnits="userSpaceOnUse" gradientTransform="translate(306.5 62) rotate(-94.0472) scale(106.265 222.267)">
<stop stop-color="#D7E1F4" stop-opacity="0.63"/>
<stop offset="0.723958" stop-color="#D7E1F4" stop-opacity="0"/>
</radialGradient>
<radialGradient id="paint31_radial_859_6712" cx="0" cy="0" r="1" gradientUnits="userSpaceOnUse" gradientTransform="translate(624.5 11) rotate(-94.0472) scale(106.265 222.267)">
<stop stop-color="#D7E1F4" stop-opacity="0.63"/>
<stop offset="0.723958" stop-color="#D7E1F4" stop-opacity="0"/>
</radialGradient>
<radialGradient id="paint32_radial_859_6712" cx="0" cy="0" r="1" gradientUnits="userSpaceOnUse" gradientTransform="translate(431 96) rotate(90) scale(120.5 419.031)">
<stop offset="0.702297" stop-color="#111F3B" stop-opacity="0"/>
<stop offset="1" stop-color="#111F3B"/>
</radialGradient>
<clipPath id="clip0_859_6712">
<rect width="862" height="200" fill="white"/>
</clipPath>
</defs>
</svg>
