<svg width="862" height="200" viewBox="0 0 862 200" fill="none" xmlns="http://www.w3.org/2000/svg">
<g clip-path="url(#clip0_291_3532)">
<rect width="862" height="200" fill="#40A1AC"/>
<path d="M0 0H862V200H0V0Z" fill="#111F3B"/>
<path fill-rule="evenodd" clip-rule="evenodd" d="M861 1H1V199H861V1ZM0 0V200H862V0H0Z" fill="#293856"/>
<path fill-rule="evenodd" clip-rule="evenodd" d="M482.03 55.5786L511.368 72.6902C514.977 74.7948 517.198 78.6828 517.198 82.8884V117.112C517.198 121.317 514.977 125.205 511.368 127.31L482.03 144.421C478.421 146.526 473.974 146.526 470.365 144.421L441.027 127.31C437.419 125.205 435.198 121.317 435.198 117.112V82.8884C435.198 78.6828 437.419 74.7948 441.027 72.6902L470.365 55.5786C473.974 53.4738 478.421 53.4738 482.03 55.5786ZM481.503 56.4942C478.22 54.5795 474.175 54.5795 470.893 56.4942L441.554 73.6058C438.271 75.5205 436.249 79.059 436.249 82.8884V117.112C436.249 120.941 438.271 124.479 441.554 126.394L470.893 143.506C474.175 145.42 478.22 145.42 481.503 143.506L510.841 126.394C514.124 124.479 516.146 120.941 516.146 117.112V82.8884C516.146 79.059 514.124 75.5205 510.841 73.6058L481.503 56.4942Z" fill="#0FC1B7"/>
<path fill-rule="evenodd" clip-rule="evenodd" d="M524.03 130.579L553.368 147.69C556.977 149.795 559.198 153.683 559.198 157.888V192.112C559.198 196.317 556.977 200.205 553.368 202.31L524.03 219.421C520.421 221.526 515.974 221.526 512.365 219.421L483.027 202.31C479.419 200.205 477.198 196.317 477.198 192.112V157.888C477.198 153.683 479.419 149.795 483.027 147.69L512.365 130.579C515.974 128.474 520.421 128.474 524.03 130.579ZM523.503 131.494C520.22 129.58 516.175 129.58 512.893 131.494L483.554 148.606C480.271 150.521 478.249 154.059 478.249 157.888V192.112C478.249 195.941 480.271 199.479 483.554 201.394L512.893 218.506C516.175 220.42 520.22 220.42 523.503 218.506L552.841 201.394C556.124 199.479 558.146 195.941 558.146 192.112V157.888C558.146 154.059 556.124 150.521 552.841 148.606L523.503 131.494Z" fill="#0FC1B7"/>
<path fill-rule="evenodd" clip-rule="evenodd" d="M178.03 131.579L207.368 148.69C210.977 150.795 213.198 154.683 213.198 158.888V193.112C213.198 197.317 210.977 201.205 207.368 203.31L178.03 220.421C174.421 222.526 169.974 222.526 166.365 220.421L137.027 203.31C133.419 201.205 131.198 197.317 131.198 193.112V158.888C131.198 154.683 133.419 150.795 137.027 148.69L166.365 131.579C169.974 129.474 174.421 129.474 178.03 131.579ZM177.503 132.494C174.22 130.58 170.175 130.58 166.893 132.494L137.554 149.606C134.271 151.521 132.249 155.059 132.249 158.888V193.112C132.249 196.941 134.271 200.479 137.554 202.394L166.893 219.506C170.175 221.42 174.22 221.42 177.503 219.506L206.841 202.394C210.124 200.479 212.146 196.941 212.146 193.112V158.888C212.146 155.059 210.124 151.521 206.841 149.606L177.503 132.494Z" fill="#0FC1B7"/>
<path fill-rule="evenodd" clip-rule="evenodd" d="M699.03 -19.4214L728.368 -2.30977C731.977 -0.2052 734.198 3.68282 734.198 7.88839V42.1116C734.198 46.3172 731.977 50.2052 728.368 52.3098L699.03 69.4214C695.421 71.5262 690.974 71.5262 687.365 69.4214L658.027 52.3098C654.419 50.2052 652.198 46.3172 652.198 42.1116V7.88839C652.198 3.68282 654.419 -0.205198 658.027 -2.30977L687.365 -19.4214C690.974 -21.5262 695.421 -21.5262 699.03 -19.4214ZM698.503 -18.5058C695.22 -20.4205 691.175 -20.4205 687.893 -18.5058L658.554 -1.39418C655.271 0.520508 653.249 4.05901 653.249 7.88839V42.1116C653.249 45.941 655.271 49.4795 658.554 51.3942L687.893 68.5058C691.175 70.4205 695.22 70.4205 698.503 68.5058L727.841 51.3942C731.124 49.4795 733.146 45.941 733.146 42.1116V7.88839C733.146 4.05901 731.124 0.520506 727.841 -1.39418L698.503 -18.5058Z" fill="#0FC1B7"/>
<path fill-rule="evenodd" clip-rule="evenodd" d="M353.03 -19.4214L382.368 -2.30977C385.977 -0.2052 388.198 3.68282 388.198 7.88839V42.1116C388.198 46.3172 385.977 50.2052 382.368 52.3098L353.03 69.4214C349.421 71.5262 344.974 71.5262 341.365 69.4214L312.027 52.3098C308.419 50.2052 306.198 46.3172 306.198 42.1116V7.88839C306.198 3.68282 308.419 -0.205198 312.027 -2.30977L341.365 -19.4214C344.974 -21.5262 349.421 -21.5262 353.03 -19.4214ZM352.503 -18.5058C349.22 -20.4205 345.175 -20.4205 341.893 -18.5058L312.554 -1.39418C309.271 0.520508 307.249 4.05901 307.249 7.88839V42.1116C307.249 45.941 309.271 49.4795 312.554 51.3942L341.893 68.5058C345.175 70.4205 349.22 70.4205 352.503 68.5058L381.841 51.3942C385.124 49.4795 387.146 45.941 387.146 42.1116V7.88839C387.146 4.05901 385.124 0.520506 381.841 -1.39418L352.503 -18.5058Z" fill="#0FC1B7"/>
<g opacity="0.5">
<path fill-rule="evenodd" clip-rule="evenodd" d="M612.03 -19.4214L641.368 -2.30977C644.977 -0.2052 647.198 3.68282 647.198 7.88839V42.1116C647.198 46.3172 644.977 50.2052 641.368 52.3098L612.03 69.4214C608.421 71.5262 603.974 71.5262 600.365 69.4214L571.027 52.3098C567.419 50.2052 565.198 46.3172 565.198 42.1116V7.88839C565.198 3.68282 567.419 -0.205198 571.027 -2.30977L600.365 -19.4214C603.974 -21.5262 608.421 -21.5262 612.03 -19.4214ZM611.503 -18.5058C608.22 -20.4205 604.175 -20.4205 600.893 -18.5058L571.554 -1.39418C568.271 0.520508 566.249 4.05901 566.249 7.88839V42.1116C566.249 45.941 568.271 49.4795 571.554 51.3942L600.893 68.5058C604.175 70.4205 608.22 70.4205 611.503 68.5058L640.841 51.3942C644.124 49.4795 646.146 45.941 646.146 42.1116V7.88839C646.146 4.05901 644.124 0.520506 640.841 -1.39418L611.503 -18.5058Z" fill="#0FC1B7"/>
</g>
<path fill-rule="evenodd" clip-rule="evenodd" d="M525.03 -19.4214L554.368 -2.30977C557.977 -0.2052 560.198 3.68282 560.198 7.88839V42.1116C560.198 46.3172 557.977 50.2052 554.368 52.3098L525.03 69.4214C521.421 71.5262 516.974 71.5262 513.365 69.4214L484.027 52.3098C480.419 50.2052 478.198 46.3172 478.198 42.1116V7.88839C478.198 3.68282 480.419 -0.205198 484.027 -2.30977L513.365 -19.4214C516.974 -21.5262 521.421 -21.5262 525.03 -19.4214ZM524.503 -18.5058C521.22 -20.4205 517.175 -20.4205 513.893 -18.5058L484.554 -1.39418C481.271 0.520508 479.249 4.05901 479.249 7.88839V42.1116C479.249 45.941 481.271 49.4795 484.554 51.3942L513.893 68.5058C517.175 70.4205 521.22 70.4205 524.503 68.5058L553.841 51.3942C557.124 49.4795 559.146 45.941 559.146 42.1116V7.88839C559.146 4.05901 557.124 0.520506 553.841 -1.39418L524.503 -18.5058Z" fill="#0FC1B7"/>
<path fill-rule="evenodd" clip-rule="evenodd" d="M351.03 130.579L380.368 147.69C383.977 149.795 386.198 153.683 386.198 157.888V192.112C386.198 196.317 383.977 200.205 380.368 202.31L351.03 219.421C347.421 221.526 342.974 221.526 339.365 219.421L310.027 202.31C306.419 200.205 304.198 196.317 304.198 192.112V157.888C304.198 153.683 306.419 149.795 310.027 147.69L339.365 130.579C342.974 128.474 347.421 128.474 351.03 130.579ZM350.503 131.494C347.22 129.58 343.175 129.58 339.893 131.494L310.554 148.606C307.271 150.521 305.249 154.059 305.249 157.888V192.112C305.249 195.941 307.271 199.479 310.554 201.394L339.893 218.506C343.175 220.42 347.22 220.42 350.503 218.506L379.841 201.394C383.124 199.479 385.146 195.941 385.146 192.112V157.888C385.146 154.059 383.124 150.521 379.841 148.606L350.503 131.494Z" fill="#0FC1B7"/>
<g opacity="0.5">
<path fill-rule="evenodd" clip-rule="evenodd" d="M438.03 130.579L467.368 147.69C470.977 149.795 473.198 153.683 473.198 157.888V192.112C473.198 196.317 470.977 200.205 467.368 202.31L438.03 219.421C434.421 221.526 429.974 221.526 426.365 219.421L397.027 202.31C393.419 200.205 391.198 196.317 391.198 192.112V157.888C391.198 153.683 393.419 149.795 397.027 147.69L426.365 130.579C429.974 128.474 434.421 128.474 438.03 130.579ZM437.503 131.494C434.22 129.58 430.175 129.58 426.893 131.494L397.554 148.606C394.271 150.521 392.249 154.059 392.249 157.888V192.112C392.249 195.941 394.271 199.479 397.554 201.394L426.893 218.506C430.175 220.42 434.22 220.42 437.503 218.506L466.841 201.394C470.124 199.479 472.146 195.941 472.146 192.112V157.888C472.146 154.059 470.124 150.521 466.841 148.606L437.503 131.494Z" fill="#0FC1B7"/>
</g>
<path fill-rule="evenodd" clip-rule="evenodd" d="M568.601 55.5786L598.297 72.6902C601.95 74.7948 604.198 78.6828 604.198 82.8884V117.112C604.198 121.317 601.95 125.205 598.297 127.31L568.601 144.421C564.948 146.526 560.447 146.526 556.794 144.421L527.098 127.31C523.446 125.205 521.198 121.317 521.198 117.112V82.8884C521.198 78.6828 523.446 74.7948 527.098 72.6902L556.794 55.5786C560.447 53.4738 564.948 53.4738 568.601 55.5786ZM568.067 56.4942C564.745 54.5795 560.651 54.5795 557.328 56.4942L527.632 73.6058C524.309 75.5205 522.262 79.059 522.262 82.8884V117.112C522.262 120.941 524.309 124.479 527.632 126.394L557.328 143.506C560.651 145.42 564.745 145.42 568.067 143.506L597.764 126.394C601.087 124.479 603.134 120.941 603.134 117.112V82.8884C603.134 79.059 601.087 75.5205 597.764 73.6058L568.067 56.4942Z" fill="#0FC1B7"/>
<g opacity="0.5">
<path fill-rule="evenodd" clip-rule="evenodd" d="M308.601 55.5786L338.297 72.6902C341.95 74.7948 344.198 78.6828 344.198 82.8884V117.112C344.198 121.317 341.95 125.205 338.297 127.31L308.601 144.421C304.948 146.526 300.447 146.526 296.794 144.421L267.098 127.31C263.446 125.205 261.198 121.317 261.198 117.112V82.8884C261.198 78.6828 263.446 74.7948 267.098 72.6902L296.794 55.5786C300.447 53.4738 304.948 53.4738 308.601 55.5786ZM308.067 56.4942C304.745 54.5795 300.651 54.5795 297.328 56.4942L267.632 73.6058C264.309 75.5205 262.262 79.059 262.262 82.8884V117.112C262.262 120.941 264.309 124.479 267.632 126.394L297.328 143.506C300.651 145.42 304.745 145.42 308.067 143.506L337.764 126.394C341.087 124.479 343.134 120.941 343.134 117.112V82.8884C343.134 79.059 341.087 75.5205 337.764 73.6058L308.067 56.4942Z" fill="#0FC1B7"/>
</g>
<path fill-rule="evenodd" clip-rule="evenodd" d="M655.601 55.5786L685.297 72.6902C688.95 74.7948 691.198 78.6828 691.198 82.8884V117.112C691.198 121.317 688.95 125.205 685.297 127.31L655.601 144.421C651.948 146.526 647.447 146.526 643.794 144.421L614.098 127.31C610.446 125.205 608.198 121.317 608.198 117.112V82.8884C608.198 78.6828 610.446 74.7948 614.098 72.6902L643.794 55.5786C647.447 53.4738 651.948 53.4738 655.601 55.5786ZM655.067 56.4942C651.745 54.5795 647.651 54.5795 644.328 56.4942L614.632 73.6058C611.309 75.5205 609.262 79.059 609.262 82.8884V117.112C609.262 120.941 611.309 124.479 614.632 126.394L644.328 143.506C647.651 145.42 651.745 145.42 655.067 143.506L684.764 126.394C688.087 124.479 690.134 120.941 690.134 117.112V82.8884C690.134 79.059 688.087 75.5205 684.764 73.6058L655.067 56.4942Z" fill="#0FC1B7"/>
<path fill-rule="evenodd" clip-rule="evenodd" d="M395.601 55.5786L425.297 72.6902C428.95 74.7948 431.198 78.6828 431.198 82.8884V117.112C431.198 121.317 428.95 125.205 425.297 127.31L395.601 144.421C391.948 146.526 387.447 146.526 383.794 144.421L354.098 127.31C350.446 125.205 348.198 121.317 348.198 117.112V82.8884C348.198 78.6828 350.446 74.7948 354.098 72.6902L383.794 55.5786C387.447 53.4738 391.948 53.4738 395.601 55.5786ZM395.067 56.4942C391.745 54.5795 387.651 54.5795 384.328 56.4942L354.632 73.6058C351.309 75.5205 349.262 79.059 349.262 82.8884V117.112C349.262 120.941 351.309 124.479 354.632 126.394L384.328 143.506C387.651 145.42 391.745 145.42 395.067 143.506L424.764 126.394C428.087 124.479 430.134 120.941 430.134 117.112V82.8884C430.134 79.059 428.087 75.5205 424.764 73.6058L395.067 56.4942Z" fill="#0FC1B7"/>
<path fill-rule="evenodd" clip-rule="evenodd" d="M439.601 -20.4214L469.297 -3.30977C472.95 -1.2052 475.198 2.68282 475.198 6.88839V41.1116C475.198 45.3172 472.95 49.2052 469.297 51.3098L439.601 68.4214C435.948 70.5262 431.447 70.5262 427.794 68.4214L398.098 51.3098C394.446 49.2052 392.198 45.3172 392.198 41.1116V6.88839C392.198 2.68282 394.446 -1.2052 398.098 -3.30977L427.794 -20.4214C431.447 -22.5262 435.948 -22.5262 439.601 -20.4214ZM439.067 -19.5058C435.745 -21.4205 431.651 -21.4205 428.328 -19.5058L398.632 -2.39418C395.309 -0.479492 393.262 3.05901 393.262 6.88839V41.1116C393.262 44.941 395.309 48.4795 398.632 50.3942L428.328 67.5058C431.651 69.4205 435.745 69.4205 439.067 67.5058L468.764 50.3942C472.087 48.4795 474.134 44.941 474.134 41.1116V6.88839C474.134 3.05901 472.087 -0.479494 468.764 -2.39418L439.067 -19.5058Z" fill="#0FC1B7"/>
<path fill-rule="evenodd" clip-rule="evenodd" d="M220.601 55.5786L250.297 72.6902C253.95 74.7948 256.198 78.6828 256.198 82.8884V117.112C256.198 121.317 253.95 125.205 250.297 127.31L220.601 144.421C216.948 146.526 212.447 146.526 208.794 144.421L179.098 127.31C175.446 125.205 173.198 121.317 173.198 117.112V82.8884C173.198 78.6828 175.446 74.7948 179.098 72.6902L208.794 55.5786C212.447 53.4738 216.948 53.4738 220.601 55.5786ZM220.067 56.4942C216.745 54.5795 212.651 54.5795 209.328 56.4942L179.632 73.6058C176.309 75.5205 174.262 79.059 174.262 82.8884V117.112C174.262 120.941 176.309 124.479 179.632 126.394L209.328 143.506C212.651 145.42 216.745 145.42 220.067 143.506L249.764 126.394C253.087 124.479 255.134 120.941 255.134 117.112V82.8884C255.134 79.059 253.087 75.5205 249.764 73.6058L220.067 56.4942Z" fill="#0FC1B7"/>
<path fill-rule="evenodd" clip-rule="evenodd" d="M611.601 131.579L641.297 148.69C644.95 150.795 647.198 154.683 647.198 158.888V193.112C647.198 197.317 644.95 201.205 641.297 203.31L611.601 220.421C607.948 222.526 603.447 222.526 599.794 220.421L570.098 203.31C566.446 201.205 564.198 197.317 564.198 193.112V158.888C564.198 154.683 566.446 150.795 570.098 148.69L599.794 131.579C603.447 129.474 607.948 129.474 611.601 131.579ZM611.067 132.494C607.745 130.58 603.651 130.58 600.328 132.494L570.632 149.606C567.309 151.521 565.262 155.059 565.262 158.888V193.112C565.262 196.941 567.309 200.479 570.632 202.394L600.328 219.506C603.651 221.42 607.745 221.42 611.067 219.506L640.764 202.394C644.087 200.479 646.134 196.941 646.134 193.112V158.888C646.134 155.059 644.087 151.521 640.764 149.606L611.067 132.494Z" fill="#0FC1B7"/>
<path fill-rule="evenodd" clip-rule="evenodd" d="M264.601 130.579L294.297 147.69C297.95 149.795 300.198 153.683 300.198 157.888V192.112C300.198 196.317 297.95 200.205 294.297 202.31L264.601 219.421C260.948 221.526 256.447 221.526 252.794 219.421L223.098 202.31C219.446 200.205 217.198 196.317 217.198 192.112V157.888C217.198 153.683 219.446 149.795 223.098 147.69L252.794 130.579C256.447 128.474 260.948 128.474 264.601 130.579ZM264.067 131.494C260.745 129.58 256.651 129.58 253.328 131.494L223.632 148.606C220.309 150.521 218.262 154.059 218.262 157.888V192.112C218.262 195.941 220.309 199.479 223.632 201.394L253.328 218.506C256.651 220.42 260.745 220.42 264.067 218.506L293.764 201.394C297.087 199.479 299.134 195.941 299.134 192.112V157.888C299.134 154.059 297.087 150.521 293.764 148.606L264.067 131.494Z" fill="#0FC1B7"/>
<path d="M473.215 76.6498C474.751 75.7834 476.644 75.7834 478.18 76.6498L494.715 85.9748C496.251 86.8411 497.198 88.4423 497.198 90.175V108.825C497.198 110.558 496.251 112.159 494.715 113.025L478.18 122.35C476.644 123.217 474.751 123.217 473.215 122.35L456.68 113.025C455.144 112.159 454.198 110.558 454.198 108.825V90.175C454.198 88.4423 455.144 86.8411 456.68 85.9748L473.215 76.6498Z" fill="#0FC1B7"/>
<path d="M515.215 151.65C516.751 150.783 518.644 150.783 520.18 151.65L536.715 160.975C538.251 161.841 539.198 163.442 539.198 165.175V183.825C539.198 185.558 538.251 187.159 536.715 188.025L520.18 197.35C518.644 198.217 516.751 198.217 515.215 197.35L498.68 188.025C497.144 187.159 496.198 185.558 496.198 183.825V165.175C496.198 163.442 497.144 161.841 498.68 160.975L515.215 151.65Z" fill="#0FC1B7"/>
<path d="M169.215 152.65C170.751 151.783 172.644 151.783 174.18 152.65L190.715 161.975C192.251 162.841 193.198 164.442 193.198 166.175V184.825C193.198 186.558 192.251 188.159 190.715 189.025L174.18 198.35C172.644 199.217 170.751 199.217 169.215 198.35L152.68 189.025C151.144 188.159 150.198 186.558 150.198 184.825V166.175C150.198 164.442 151.144 162.841 152.68 161.975L169.215 152.65Z" fill="#0FC1B7"/>
<path d="M690.215 1.64978C691.751 0.783405 693.644 0.783405 695.18 1.64978L711.715 10.9748C713.251 11.8411 714.198 13.4423 714.198 15.175V33.825C714.198 35.5577 713.251 37.1589 711.715 38.0252L695.18 47.3502C693.644 48.2166 691.751 48.2166 690.215 47.3502L673.68 38.0252C672.144 37.1589 671.198 35.5577 671.198 33.825V15.175C671.198 13.4423 672.144 11.8411 673.68 10.9748L690.215 1.64978Z" fill="#0FC1B7"/>
<path d="M344.215 1.64978C345.751 0.783405 347.644 0.783405 349.18 1.64978L365.715 10.9748C367.251 11.8411 368.198 13.4423 368.198 15.175V33.825C368.198 35.5577 367.251 37.1589 365.715 38.0252L349.18 47.3502C347.644 48.2166 345.751 48.2166 344.215 47.3502L327.68 38.0252C326.144 37.1589 325.198 35.5577 325.198 33.825V15.175C325.198 13.4423 326.144 11.8411 327.68 10.9748L344.215 1.64978Z" fill="#D7E1F4"/>
<path opacity="0.5" d="M603.215 1.64978C604.751 0.783405 606.644 0.783405 608.18 1.64978L624.715 10.9748C626.251 11.8411 627.198 13.4423 627.198 15.175V33.825C627.198 35.5577 626.251 37.1589 624.715 38.0252L608.18 47.3502C606.644 48.2166 604.751 48.2166 603.215 47.3502L586.68 38.0252C585.144 37.1589 584.198 35.5577 584.198 33.825V15.175C584.198 13.4423 585.144 11.8411 586.68 10.9748L603.215 1.64978Z" fill="#D7E1F4"/>
<path d="M516.215 1.64978C517.751 0.783405 519.644 0.783405 521.18 1.64978L537.715 10.9748C539.251 11.8411 540.198 13.4423 540.198 15.175V33.825C540.198 35.5577 539.251 37.1589 537.715 38.0252L521.18 47.3502C519.644 48.2166 517.751 48.2166 516.215 47.3502L499.68 38.0252C498.144 37.1589 497.198 35.5577 497.198 33.825V15.175C497.198 13.4423 498.144 11.8411 499.68 10.9748L516.215 1.64978Z" fill="#D7E1F4"/>
<path d="M342.215 151.65C343.751 150.783 345.644 150.783 347.18 151.65L363.715 160.975C365.251 161.841 366.198 163.442 366.198 165.175V183.825C366.198 185.558 365.251 187.159 363.715 188.025L347.18 197.35C345.644 198.217 343.751 198.217 342.215 197.35L325.68 188.025C324.144 187.159 323.198 185.558 323.198 183.825V165.175C323.198 163.442 324.144 161.841 325.68 160.975L342.215 151.65Z" fill="#D7E1F4"/>
<path opacity="0.5" d="M429.215 151.65C430.751 150.783 432.644 150.783 434.18 151.65L450.715 160.975C452.251 161.841 453.198 163.442 453.198 165.175V183.825C453.198 185.558 452.251 187.159 450.715 188.025L434.18 197.35C432.644 198.217 430.751 198.217 429.215 197.35L412.68 188.025C411.144 187.159 410.198 185.558 410.198 183.825V165.175C410.198 163.442 411.144 161.841 412.68 160.975L429.215 151.65Z" fill="#D7E1F4"/>
<path d="M560.908 82.4839C562.015 81.8387 563.38 81.8387 564.487 82.4839L576.408 89.428C577.515 90.0732 578.198 91.2655 578.198 92.5559V106.444C578.198 107.734 577.515 108.927 576.408 109.572L564.487 116.516C563.38 117.161 562.015 117.161 560.908 116.516L548.987 109.572C547.88 108.927 547.198 107.734 547.198 106.444V92.5559C547.198 91.2655 547.88 90.0732 548.987 89.428L560.908 82.4839Z" fill="#D7E1F4"/>
<path opacity="0.5" d="M300.908 82.4839C302.015 81.8387 303.38 81.8387 304.487 82.4839L316.408 89.428C317.515 90.0732 318.198 91.2655 318.198 92.5559V106.444C318.198 107.734 317.515 108.927 316.408 109.572L304.487 116.516C303.38 117.161 302.015 117.161 300.908 116.516L288.987 109.572C287.88 108.927 287.198 107.734 287.198 106.444V92.5559C287.198 91.2655 287.88 90.0732 288.987 89.428L300.908 82.4839Z" fill="#D7E1F4"/>
<path d="M647.908 82.4839C649.015 81.8387 650.38 81.8387 651.487 82.4839L663.408 89.428C664.515 90.0732 665.198 91.2655 665.198 92.5559V106.444C665.198 107.734 664.515 108.927 663.408 109.572L651.487 116.516C650.38 117.161 649.015 117.161 647.908 116.516L635.987 109.572C634.88 108.927 634.198 107.734 634.198 106.444V92.5559C634.198 91.2655 634.88 90.0732 635.987 89.428L647.908 82.4839Z" fill="#D7E1F4"/>
<path d="M388.139 85.4148C389.103 84.8617 390.292 84.8617 391.256 85.4148L401.639 91.3669C402.603 91.9199 403.198 92.9419 403.198 94.0479V105.952C403.198 107.058 402.603 108.08 401.639 108.633L391.256 114.585C390.292 115.138 389.103 115.138 388.139 114.585L377.756 108.633C376.792 108.08 376.198 107.058 376.198 105.952V94.0479C376.198 92.9419 376.792 91.9199 377.756 91.3669L388.139 85.4148Z" fill="#D7E1F4"/>
<path d="M432.139 9.41476C433.103 8.86175 434.292 8.86175 435.256 9.41476L445.639 15.3669C446.603 15.9199 447.198 16.9419 447.198 18.0479V29.9521C447.198 31.0581 446.603 32.0801 445.639 32.6331L435.256 38.5852C434.292 39.1383 433.103 39.1383 432.139 38.5852L421.756 32.6331C420.792 32.0801 420.198 31.0581 420.198 29.9521V18.0479C420.198 16.9419 420.792 15.9199 421.756 15.3669L432.139 9.41476Z" fill="#D7E1F4"/>
<path d="M213.139 85.4148C214.103 84.8617 215.292 84.8617 216.256 85.4148L226.639 91.3669C227.603 91.9199 228.198 92.9419 228.198 94.0479V105.952C228.198 107.058 227.603 108.08 226.639 108.633L216.256 114.585C215.292 115.138 214.103 115.138 213.139 114.585L202.756 108.633C201.792 108.08 201.198 107.058 201.198 105.952V94.0479C201.198 92.9419 201.792 91.9199 202.756 91.3669L213.139 85.4148Z" fill="#D7E1F4"/>
<path d="M604.139 161.415C605.103 160.862 606.292 160.862 607.256 161.415L617.639 167.367C618.603 167.92 619.198 168.942 619.198 170.048V181.952C619.198 183.058 618.603 184.08 617.639 184.633L607.256 190.585C606.292 191.138 605.103 191.138 604.139 190.585L593.756 184.633C592.792 184.08 592.198 183.058 592.198 181.952V170.048C592.198 168.942 592.792 167.92 593.756 167.367L604.139 161.415Z" fill="#D7E1F4"/>
<path d="M257.139 160.415C258.103 159.862 259.292 159.862 260.256 160.415L270.639 166.367C271.603 166.92 272.198 167.942 272.198 169.048V180.952C272.198 182.058 271.603 183.08 270.639 183.633L260.256 189.585C259.292 190.138 258.103 190.138 257.139 189.585L246.756 183.633C245.792 183.08 245.198 182.058 245.198 180.952V169.048C245.198 167.942 245.792 166.92 246.756 166.367L257.139 160.415Z" fill="#D7E1F4"/>
<path fill-rule="evenodd" clip-rule="evenodd" d="M861 1H1V199H861V1ZM0 0V200H862V0H0Z" fill="#293858"/>
</g>
<defs>
<clipPath id="clip0_291_3532">
<rect width="862" height="200" fill="white"/>
</clipPath>
</defs>
</svg>
