<svg width="862" height="200" viewBox="0 0 862 200" fill="none" xmlns="http://www.w3.org/2000/svg">
<g clip-path="url(#clip0_280_4541)">
<rect width="862" height="200" fill="#40A1AC"/>
<path d="M0 0H862V200H0V0Z" fill="#111F3B"/>
<path fill-rule="evenodd" clip-rule="evenodd" d="M342.293 88.5594C340.93 73.4732 350.603 59.144 365.794 55.0895C380.985 51.035 396.555 58.6272 402.948 72.3709L410.834 70.2661C434.87 63.851 459.577 78.059 466.017 102.001L481.376 159.096C487.817 183.037 473.552 207.646 449.516 214.061L373.088 234.46C349.052 240.875 324.346 226.667 317.906 202.725L302.546 145.63C296.106 121.688 310.37 97.0794 334.406 90.6643L342.293 88.5594ZM394.083 141.511C391.474 145.977 385.709 147.515 381.208 144.947C376.707 142.38 375.173 136.678 377.782 132.213C380.392 127.747 386.156 126.209 390.657 128.777C395.159 131.344 396.692 137.046 394.083 141.511ZM344.457 165.576L341.36 163.809C331.638 158.263 331.771 144.318 341.6 138.888C346.037 136.436 351.44 136.46 355.838 138.951L382.385 153.993C382.992 154.337 383.217 155.017 383.05 155.608C383.045 155.831 382.987 156.059 382.864 156.275L367.86 182.769C365.375 187.158 360.753 189.945 355.681 190.114C344.448 190.488 337.133 178.596 342.609 168.86L344.457 165.576Z" fill="url(#paint0_linear_280_4541)"/>
<path fill-rule="evenodd" clip-rule="evenodd" d="M441.314 224.234C438.617 224.234 435.982 223.965 433.437 223.453L454.156 217.923C459.627 216.463 464.625 214.123 469.039 211.098H520.438C535.004 211.098 546.813 199.337 546.813 184.828H523.735C507.348 184.828 494.063 171.596 494.063 155.273C494.063 138.95 507.348 125.718 523.735 125.718H546.813C546.813 111.209 535.004 99.4475 520.438 99.4475H472.291L471.845 97.7912C469.317 88.3925 464.163 80.393 457.38 74.3661C461.746 65.8625 470.629 60.0413 480.876 60.0413C495.442 60.0413 507.251 71.8031 507.251 86.3121H520.438C542.288 86.3121 560 103.955 560 125.718V184.828C560 206.591 542.288 224.234 520.438 224.234H441.314ZM523.735 138.854H546.813V171.692H523.735C514.631 171.692 507.251 164.341 507.251 155.273C507.251 146.205 514.631 138.854 523.735 138.854Z" fill="url(#paint1_linear_280_4541)"/>
<path fill-rule="evenodd" clip-rule="evenodd" d="M403.49 71.1912C396.683 57.4936 380.921 50.0173 365.536 54.1234C350.152 58.2293 340.253 72.5541 341.232 87.8076L334.148 89.6981C309.581 96.255 294.996 121.411 301.581 145.89L316.94 202.985C323.524 227.462 348.78 241.982 373.346 235.426L449.774 215.028C474.342 208.471 488.927 183.315 482.342 158.836L466.983 101.741C460.398 77.2635 435.142 62.7434 410.576 69.2999L403.49 71.1912ZM402.041 72.7927C395.85 59.4834 380.768 52.1279 366.052 56.0557C351.336 59.9832 341.969 73.8624 343.289 88.4695L343.364 89.3084L334.664 91.6305C311.159 97.9038 297.216 121.966 303.512 145.37L318.871 202.465C325.168 225.871 349.324 239.767 372.831 233.493L449.258 213.095C472.763 206.822 486.706 182.76 480.41 159.356L465.051 102.26C458.755 78.8544 434.598 64.9585 411.092 71.2323L402.395 73.5535L402.041 72.7927ZM456.49 73.9094C461.022 65.0839 470.241 59.0413 480.876 59.0413C495.655 59.0413 507.704 70.7107 508.233 85.3121H520.438C542.836 85.3121 561 103.399 561 125.718V184.828C561 207.147 542.836 225.234 520.438 225.234H441.314C438.55 225.234 435.85 224.958 433.239 224.433L433.179 222.486L453.898 216.957C459.258 215.526 464.152 213.235 468.474 210.274L468.73 210.098H520.438C534.119 210.098 545.266 199.317 545.793 185.828H523.735C506.799 185.828 493.063 172.152 493.063 155.273C493.063 138.394 506.799 124.718 523.735 124.718H545.793C545.266 111.229 534.119 100.447 520.438 100.447H471.524L470.88 98.051C468.404 88.8469 463.357 81.0152 456.715 75.1137L456.136 74.5989L456.49 73.9094ZM458.629 74.1472C465.265 80.2356 470.304 88.2104 472.811 97.5315L473.057 98.4475H520.438C535.553 98.4475 547.813 110.653 547.813 125.718V126.718H523.735C507.896 126.718 495.063 139.506 495.063 155.273C495.063 171.04 507.896 183.828 523.735 183.828H547.813V184.828C547.813 199.893 535.553 212.098 520.438 212.098H469.347C464.904 215.102 459.89 217.427 454.414 218.889L438.509 223.134C439.435 223.2 440.371 223.234 441.314 223.234H520.438C541.739 223.234 559 206.035 559 184.828V125.718C559 104.511 541.739 87.3121 520.438 87.3121H506.251V86.3121C506.251 72.3591 494.894 61.0413 480.876 61.0413C471.29 61.0413 462.946 66.3343 458.629 74.1472ZM376.919 131.708C379.806 126.768 386.177 125.07 391.153 127.908C396.136 130.75 397.837 137.068 394.946 142.016C392.059 146.956 385.688 148.654 380.713 145.816C375.73 142.974 374.028 136.656 376.919 131.708ZM390.162 129.645C386.135 127.348 380.978 128.727 378.646 132.717C376.318 136.701 377.684 141.786 381.704 144.079C385.73 146.376 390.888 144.997 393.22 141.007C395.547 137.023 394.181 131.938 390.162 129.645ZM341.116 138.012C345.857 135.393 351.629 135.418 356.331 138.081L382.878 153.123C383.873 153.687 384.262 154.784 384.043 155.756C384.018 156.101 383.917 156.445 383.734 156.768L368.73 183.262C366.072 187.956 361.132 190.933 355.714 191.113C343.717 191.513 335.872 178.798 341.737 168.37L343.098 165.952L340.865 164.678C330.458 158.741 330.611 143.816 341.116 138.012ZM355.345 139.822C351.251 137.502 346.218 137.478 342.083 139.763C332.932 144.819 332.818 157.785 341.856 162.941L345.815 165.2L343.481 169.351C338.394 178.393 345.179 189.463 355.648 189.114C360.375 188.957 364.678 186.359 366.99 182.276L381.994 155.782C382.034 155.712 382.049 155.647 382.05 155.589L382.052 155.46L382.087 155.336C382.139 155.154 382.069 154.963 381.892 154.863L355.345 139.822ZM506.251 155.273C506.251 145.649 514.082 137.854 523.735 137.854H547.813V172.692H523.735C514.082 172.692 506.251 164.897 506.251 155.273ZM523.735 139.854C515.179 139.854 508.251 146.761 508.251 155.273C508.251 163.785 515.179 170.692 523.735 170.692H545.813V139.854H523.735Z" fill="#0FC1B7"/>
<path fill-rule="evenodd" clip-rule="evenodd" d="M861 1H1V199H861V1ZM0 0V200H862V0H0Z" fill="#293856"/>
<path fill-rule="evenodd" clip-rule="evenodd" d="M861 1H1V199H861V1ZM0 0V200H862V0H0Z" fill="#293856"/>
<path d="M469 34.5C469 38.0899 466.09 41 462.5 41C458.91 41 456 38.0899 456 34.5C456 30.9101 458.91 28 462.5 28C466.09 28 469 30.9101 469 34.5Z" fill="#0FC1B7"/>
<path opacity="0.49" d="M607 42.5C607 45.5376 604.538 48 601.5 48C598.462 48 596 45.5376 596 42.5C596 39.4624 598.462 37 601.5 37C604.538 37 607 39.4624 607 42.5Z" fill="#0FC1B7"/>
<path opacity="0.49" d="M596 105.5C596 108.538 593.538 111 590.5 111C587.462 111 585 108.538 585 105.5C585 102.462 587.462 100 590.5 100C593.538 100 596 102.462 596 105.5Z" fill="#0FC1B7"/>
<path opacity="0.49" d="M541 31C541 32.6569 539.657 34 538 34C536.343 34 535 32.6569 535 31C535 29.3431 536.343 28 538 28C539.657 28 541 29.3431 541 31Z" fill="#0FC1B7"/>
<path opacity="0.49" d="M330 74C330 75.6569 328.657 77 327 77C325.343 77 324 75.6569 324 74C324 72.3431 325.343 71 327 71C328.657 71 330 72.3431 330 74Z" fill="#0FC1B7"/>
<path d="M389 26C389 29.3137 386.314 32 383 32C379.686 32 377 29.3137 377 26C377 22.6863 379.686 20 383 20C386.314 20 389 22.6863 389 26Z" fill="#D7E1F4"/>
<path d="M227 65C227 68.3137 224.314 71 221 71C217.686 71 215 68.3137 215 65C215 61.6863 217.686 59 221 59C224.314 59 227 61.6863 227 65Z" fill="#D7E1F4"/>
<path d="M240 131C240 134.314 237.314 137 234 137C230.686 137 228 134.314 228 131C228 127.686 230.686 125 234 125C237.314 125 240 127.686 240 131Z" fill="#D7E1F4"/>
<path d="M633 137C633 140.314 630.314 143 627 143C623.686 143 621 140.314 621 137C621 133.686 623.686 131 627 131C630.314 131 633 133.686 633 137Z" fill="#D7E1F4"/>
<path d="M318 42.5C318 48.299 313.299 53 307.5 53C301.701 53 297 48.299 297 42.5C297 36.701 301.701 32 307.5 32C313.299 32 318 36.701 318 42.5Z" fill="#0FC1B7"/>
<path opacity="0.6" d="M266 88C266 90.7614 263.761 93 261 93C258.239 93 256 90.7614 256 88C256 85.2386 258.239 83 261 83C263.761 83 266 85.2386 266 88Z" fill="#0FC1B7"/>
</g>
<defs>
<linearGradient id="paint0_linear_280_4541" x1="397" y1="78" x2="430.5" y2="236" gradientUnits="userSpaceOnUse">
<stop stop-color="#111F3B"/>
<stop offset="0.743994" stop-color="#0FC1B7" stop-opacity="0"/>
</linearGradient>
<linearGradient id="paint1_linear_280_4541" x1="397" y1="78" x2="430.5" y2="236" gradientUnits="userSpaceOnUse">
<stop stop-color="#111F3B"/>
<stop offset="0.743994" stop-color="#0FC1B7" stop-opacity="0"/>
</linearGradient>
<clipPath id="clip0_280_4541">
<rect width="862" height="200" fill="white"/>
</clipPath>
</defs>
</svg>
