<svg width="862" height="200" viewBox="0 0 862 200" fill="none" xmlns="http://www.w3.org/2000/svg">
<g clip-path="url(#clip0_291_5408)">
<rect width="862" height="200" fill="#40A1AC"/>
<path d="M0 0H862V200H0V0Z" fill="#111F3B"/>
<path fill-rule="evenodd" clip-rule="evenodd" d="M861 1H1V199H861V1ZM0 0V200H862V0H0Z" fill="#293856"/>
<path d="M296.5 82.5C229.306 96.8448 213.667 177.333 166 200.5L457 212.5C442.833 211.833 690.9 215.773 676 200.5C626.67 149.935 708.961 120.273 761 72.5C791.5 44.5 626 26.5 573.5 5C531.5 -12.2 398 -9.83333 336.5 -6.49999L313 -1.99999C303.333 10 341 73 296.5 82.5Z" fill="url(#paint0_angular_291_5408)" fill-opacity="0.2"/>
<path opacity="0.5" d="M296.5 82.3613C229.306 96.7061 213.667 177.195 166 200.361L457 212.361C442.833 211.695 424.4 200.634 409.5 185.361C360.17 134.796 514.066 149.82 578.5 120.861C623 100.861 626 26.3613 573.5 4.86133C531.5 -12.3387 398 -9.972 336.5 -6.63867L313 -2.13867C303.333 9.86133 341 72.8613 296.5 82.3613Z" fill="url(#paint1_angular_291_5408)"/>
<path opacity="0.5" fill-rule="evenodd" clip-rule="evenodd" d="M336.561 -6.14123L313.279 -1.68309C312.261 -0.316 311.824 1.78402 311.841 4.54476C311.858 7.38696 312.356 10.8326 313.093 14.6973C313.615 17.4372 314.259 20.3896 314.932 23.4726C316.147 29.0425 317.455 35.0387 318.307 40.9778C319.633 50.2165 319.884 59.4642 316.958 67.0185C314.014 74.6196 307.879 80.4434 296.604 82.8503C263.203 89.981 242.59 113.548 224.33 138.35C221.594 142.065 218.91 145.81 216.243 149.532C210.023 158.211 203.896 166.759 197.434 174.488C188.641 185.007 179.187 194.06 167.943 199.941L448.916 211.528C443.897 210.169 438.597 207.844 433.275 204.772C424.989 199.989 416.62 193.376 409.142 185.71C402.952 179.365 399.86 173.964 399.458 169.303C399.051 164.587 401.402 160.761 405.741 157.619C410.064 154.487 416.415 151.988 424.174 149.885C431.942 147.78 441.165 146.062 451.263 144.515C461.174 142.996 471.941 141.64 483.014 140.246L483.642 140.167C494.94 138.744 506.547 137.277 517.899 135.551C540.613 132.098 562.254 127.615 578.295 120.405C600.325 110.504 612.123 87.0886 611.875 63.4291C611.627 39.784 599.345 15.9859 573.311 5.32404C562.879 1.05212 546.719 -2.01954 527.343 -4.16358C507.98 -6.30622 485.449 -7.51818 462.3 -8.08882C416.021 -9.22967 367.303 -7.80657 336.561 -6.14123ZM456.979 212.861L457.023 211.862C450.05 211.534 441.979 208.641 433.775 203.906C425.577 199.174 417.28 192.62 409.858 185.012C403.716 178.716 400.826 173.526 400.454 169.217C400.087 164.963 402.169 161.441 406.327 158.428C410.502 155.405 416.712 152.943 424.436 150.85C432.15 148.76 441.331 147.048 451.414 145.503C461.311 143.987 472.066 142.633 483.144 141.238L483.767 141.159C495.063 139.737 506.683 138.268 518.049 136.54C540.771 133.086 562.53 128.587 578.705 121.317C601.175 111.219 613.127 87.3841 612.875 63.4186C612.623 39.4387 600.155 15.2368 573.689 4.39863C563.121 0.0705395 546.843 -3.01196 527.453 -5.15751C508.051 -7.30445 485.489 -8.51749 462.325 -9.08852C415.996 -10.2306 367.233 -8.80514 336.473 -7.13793L336.439 -7.1361L312.726 -2.59523L312.611 -2.45233C311.291 -0.814026 310.823 1.62976 310.841 4.55095C310.859 7.48805 311.371 11.0072 312.11 14.8847C312.643 17.6773 313.293 20.6541 313.968 23.7484C315.178 29.2904 316.469 35.209 317.318 41.1199C318.638 50.3187 318.855 59.3522 316.026 66.6573C313.215 73.9156 307.371 79.5293 296.396 81.8724C262.603 89.0865 241.799 112.936 223.525 137.757C220.771 141.496 218.077 145.255 215.405 148.984C209.195 157.649 203.104 166.147 196.667 173.847C187.468 184.851 177.607 194.164 165.781 199.912L165.979 200.861L456.979 212.861Z" fill="#0FC1B7"/>
<path d="M353 56.5C353 57.8807 351.881 59 350.5 59C349.119 59 348 57.8807 348 56.5C348 55.1193 349.119 54 350.5 54C351.881 54 353 55.1193 353 56.5Z" fill="#D7E1F4"/>
<g style="mix-blend-mode:overlay" opacity="0.7">
<path d="M620 97.5C620 98.8807 618.881 100 617.5 100C616.119 100 615 98.8807 615 97.5C615 96.1193 616.119 95 617.5 95C618.881 95 620 96.1193 620 97.5Z" fill="#D7E1F4"/>
</g>
<path d="M454 74.5C454 75.8807 452.881 77 451.5 77C450.119 77 449 75.8807 449 74.5C449 73.1193 450.119 72 451.5 72C452.881 72 454 73.1193 454 74.5Z" fill="#D7E1F4"/>
<path d="M275 87.5C275 88.8807 273.881 90 272.5 90C271.119 90 270 88.8807 270 87.5C270 86.1193 271.119 85 272.5 85C273.881 85 275 86.1193 275 87.5Z" fill="#D7E1F4"/>
<path d="M465.624 33.7656C466.068 35.0728 465.369 36.4929 464.062 36.9374C462.755 37.382 461.334 36.6828 460.89 35.3756C460.445 34.0684 461.145 32.6483 462.452 32.2037C463.759 31.7592 465.179 32.4584 465.624 33.7656Z" fill="#D7E1F4"/>
<path d="M216 51.5C216 52.8807 214.881 54 213.5 54C212.119 54 211 52.8807 211 51.5C211 50.1193 212.119 49 213.5 49C214.881 49 216 50.1193 216 51.5Z" fill="#D7E1F4"/>
<path d="M398.174 18.6806C398.619 19.9878 397.919 21.4079 396.612 21.8524C395.305 22.297 393.885 21.5978 393.44 20.2906C392.996 18.9834 393.695 17.5633 395.002 17.1187C396.309 16.6742 397.729 17.3734 398.174 18.6806Z" fill="#D7E1F4"/>
<path d="M190 117C190 119.761 187.761 122 185 122C182.239 122 180 119.761 180 117C180 114.239 182.239 112 185 112C187.761 112 190 114.239 190 117Z" fill="#D7E1F4"/>
<path d="M394.649 89.064C395.539 91.6784 394.14 94.5185 391.526 95.4077C388.911 96.2969 386.071 94.8983 385.182 92.284C384.293 89.6696 385.691 86.8295 388.306 85.9403C390.92 85.0511 393.76 86.4497 394.649 89.064Z" fill="#D7E1F4"/>
<path d="M285 25C285 27.7614 282.761 30 280 30C277.239 30 275 27.7614 275 25C275 22.2386 277.239 20 280 20C282.761 20 285 22.2386 285 25Z" fill="#D7E1F4"/>
<path d="M285 155C285 157.761 282.761 160 280 160C277.239 160 275 157.761 275 155C275 152.239 277.239 150 280 150C282.761 150 285 152.239 285 155Z" fill="#D7E1F4"/>
<path d="M496.826 94.4507C497.715 97.0651 496.316 99.9052 493.702 100.794C491.088 101.684 488.247 100.285 487.358 97.6707C486.469 95.0563 487.868 92.2161 490.482 91.327C493.096 90.4378 495.937 91.8364 496.826 94.4507Z" fill="#D7E1F4"/>
<path d="M331 120C331 122.761 328.761 125 326 125C323.239 125 321 122.761 321 120C321 117.239 323.239 115 326 115C328.761 115 331 117.239 331 120Z" fill="#D7E1F4"/>
<g style="mix-blend-mode:overlay" opacity="0.7">
<path d="M661 42C661 44.7614 658.761 47 656 47C653.239 47 651 44.7614 651 42C651 39.2386 653.239 37 656 37C658.761 37 661 39.2386 661 42Z" fill="#D7E1F4"/>
</g>
<path d="M529.106 46.503C529.995 49.1173 528.597 51.9575 525.982 52.8467C523.368 53.7358 520.528 52.3373 519.639 49.7229C518.749 47.1086 520.148 44.2684 522.762 43.3793C525.377 42.4901 528.217 43.8886 529.106 46.503Z" fill="#D7E1F4"/>
<g style="mix-blend-mode:overlay" opacity="0.7">
<path d="M760.077 63.7337C760.967 66.3481 759.568 69.1882 756.954 70.0774C754.339 70.9666 751.499 69.568 750.61 66.9537C749.721 64.3393 751.119 61.4991 753.734 60.61C756.348 59.7208 759.188 61.1194 760.077 63.7337Z" fill="#D7E1F4"/>
</g>
<path d="M134 35C134 37.7614 131.761 40 129 40C126.239 40 124 37.7614 124 35C124 32.2386 126.239 30 129 30C131.761 30 134 32.2386 134 35Z" fill="#D7E1F4"/>
<path d="M102 124.5C102 125.881 100.881 127 99.5 127C98.1193 127 97 125.881 97 124.5C97 123.119 98.1193 122 99.5 122C100.881 122 102 123.119 102 124.5Z" fill="#D7E1F4"/>
<path d="M216 181.5C216 182.881 214.881 184 213.5 184C212.119 184 211 182.881 211 181.5C211 180.119 212.119 179 213.5 179C214.881 179 216 180.119 216 181.5Z" fill="#D7E1F4"/>
<path d="M440.033 141.757C440.478 143.064 439.779 144.484 438.472 144.929C437.164 145.373 435.744 144.674 435.3 143.367C434.855 142.06 435.554 140.64 436.862 140.195C438.169 139.751 439.589 140.45 440.033 141.757Z" fill="#D7E1F4"/>
<g style="mix-blend-mode:overlay" opacity="0.7">
<path d="M699.539 69.3668C699.983 70.674 699.284 72.0941 697.977 72.5387C696.67 72.9833 695.25 72.284 694.805 70.9768C694.36 69.6696 695.06 68.2496 696.367 67.805C697.674 67.3604 699.094 68.0597 699.539 69.3668Z" fill="#D7E1F4"/>
</g>
<path fill-rule="evenodd" clip-rule="evenodd" d="M861 1H1V199H861V1ZM0 0V200H862V0H0Z" fill="#293858"/>
</g>
<defs>
<radialGradient id="paint0_angular_291_5408" cx="0" cy="0" r="1" gradientUnits="userSpaceOnUse" gradientTransform="translate(260.25 82.5) rotate(106.875) scale(124.877 216.308)">
<stop stop-color="#D7E1F4"/>
<stop offset="0.512148" stop-color="#0FC1B7"/>
<stop offset="1" stop-color="#D7E1F4"/>
</radialGradient>
<radialGradient id="paint1_angular_291_5408" cx="0" cy="0" r="1" gradientUnits="userSpaceOnUse" gradientTransform="translate(392.5 91) rotate(171.34) scale(252.377 229.535)">
<stop stop-color="#D7E1F4" stop-opacity="0"/>
<stop offset="0.46875" stop-color="#138E87"/>
<stop offset="1" stop-color="#D7E1F4" stop-opacity="0"/>
</radialGradient>
<clipPath id="clip0_291_5408">
<rect width="862" height="200" fill="white"/>
</clipPath>
</defs>
</svg>
