<svg width="862" height="200" viewBox="0 0 862 200" fill="none" xmlns="http://www.w3.org/2000/svg">
<rect width="862" height="200" fill="#40A1AC"/>
<path d="M0 0H862V200H0V0Z" fill="#111F3B"/>
<path fill-rule="evenodd" clip-rule="evenodd" d="M861 1H1V199H861V1ZM0 0V200H862V0H0Z" fill="#293856"/>
<path fill-rule="evenodd" clip-rule="evenodd" d="M861 1H1V199H861V1ZM0 0V200H862V0H0Z" fill="#293856"/>
<path fill-rule="evenodd" clip-rule="evenodd" d="M261.941 39.5709L306.059 64.7083C309.735 66.8028 312 70.6736 312 74.8626V125.137C312 129.326 309.735 133.197 306.059 135.292L261.941 160.429C258.265 162.524 253.735 162.524 250.059 160.429L205.941 135.292C202.265 133.197 200 129.326 200 125.137V74.8626C200 70.6736 202.265 66.8028 205.941 64.7083L250.059 39.5709C253.735 37.4764 258.265 37.4764 261.941 39.5709ZM260.951 41.2633C257.887 39.5178 254.113 39.5178 251.049 41.2633L206.931 66.4007C203.867 68.1461 201.98 71.3718 201.98 74.8626V125.137C201.98 128.628 203.867 131.854 206.931 133.599L251.049 158.737C254.113 160.482 257.887 160.482 260.951 158.737L305.069 133.599C308.133 131.854 310.02 128.628 310.02 125.137V74.8626C310.02 71.3718 308.133 68.1461 305.069 66.4007L260.951 41.2633Z" fill="#D7E1F4"/>
<path fill-rule="evenodd" clip-rule="evenodd" d="M262.931 37.8332L307.049 62.9705C311.342 65.4164 314 69.9461 314 74.8626V125.137C314 130.054 311.342 134.584 307.049 137.029L262.931 162.167C258.641 164.611 253.359 164.611 249.069 162.167L204.951 137.029C200.658 134.584 198 130.054 198 125.137V74.8626C198 69.9461 200.658 65.4164 204.951 62.9705L249.069 37.8332C253.359 35.3889 258.641 35.3889 262.931 37.8332ZM259.96 43.001C257.511 41.6053 254.489 41.6053 252.04 43.001L207.921 68.1384C205.474 69.5325 203.98 72.0993 203.98 74.8626V125.137C203.98 127.901 205.474 130.468 207.921 131.862L252.04 156.999C254.489 158.395 257.511 158.395 259.96 156.999L304.079 131.862C306.526 130.468 308.02 127.901 308.02 125.137V74.8626C308.02 72.0993 306.526 69.5325 304.079 68.1384L259.96 43.001ZM261.941 39.5709C261.934 39.5672 261.928 39.5635 261.921 39.5598C258.255 37.4801 253.745 37.4801 250.079 39.5598C250.072 39.5635 250.066 39.5672 250.059 39.5709L205.941 64.7083C202.265 66.8028 200 70.6736 200 74.8626V125.137C200 129.326 202.265 133.197 205.941 135.292L250.059 160.429C250.066 160.433 250.072 160.437 250.079 160.44C253.745 162.52 258.255 162.52 261.921 160.44C261.928 160.437 261.934 160.433 261.941 160.429L306.059 135.292C309.735 133.197 312 129.326 312 125.137V74.8626C312 70.6736 309.735 66.8028 306.059 64.7083L261.941 39.5709ZM251.049 41.2633C254.113 39.5178 257.887 39.5178 260.951 41.2633L305.069 66.4007C305.076 66.4044 305.082 66.4081 305.089 66.4118C308.141 68.1598 310.02 71.3792 310.02 74.8626V125.137C310.02 128.621 308.141 131.84 305.089 133.588C305.082 133.592 305.076 133.596 305.069 133.599L260.951 158.737C257.887 160.482 254.113 160.482 251.049 158.737L206.931 133.599C206.924 133.596 206.918 133.592 206.911 133.588C203.859 131.84 201.98 128.621 201.98 125.137V74.8626C201.98 71.3792 203.859 68.1598 206.911 66.4118C206.918 66.4081 206.924 66.4044 206.931 66.4007L251.049 41.2633Z" fill="#D7E1F4"/>
<path fill-rule="evenodd" clip-rule="evenodd" d="M611.941 39.5709L656.059 64.7083C659.735 66.8028 662 70.6736 662 74.8626V125.137C662 129.326 659.735 133.197 656.059 135.292L611.941 160.429C608.265 162.524 603.735 162.524 600.059 160.429L555.941 135.292C552.265 133.197 550 129.326 550 125.137V74.8626C550 70.6736 552.265 66.8028 555.941 64.7083L600.059 39.5709C603.735 37.4764 608.265 37.4764 611.941 39.5709ZM610.951 41.2633C607.887 39.5178 604.113 39.5178 601.049 41.2633L556.931 66.4007C553.867 68.1461 551.98 71.3718 551.98 74.8626V125.137C551.98 128.628 553.867 131.854 556.931 133.599L601.049 158.737C604.113 160.482 607.887 160.482 610.951 158.737L655.069 133.599C658.133 131.854 660.02 128.628 660.02 125.137V74.8626C660.02 71.3718 658.133 68.1461 655.069 66.4007L610.951 41.2633Z" fill="#D7E1F4"/>
<path fill-rule="evenodd" clip-rule="evenodd" d="M612.931 37.8332L657.049 62.9705C661.342 65.4164 664 69.9461 664 74.8626V125.137C664 130.054 661.342 134.584 657.049 137.029L612.931 162.167C608.641 164.611 603.359 164.611 599.069 162.167L554.951 137.029C550.658 134.584 548 130.054 548 125.137V74.8626C548 69.9461 550.658 65.4164 554.951 62.9705L599.069 37.8332C603.359 35.3889 608.641 35.3889 612.931 37.8332ZM609.96 43.001C607.511 41.6053 604.489 41.6053 602.04 43.001L557.921 68.1384C555.474 69.5325 553.98 72.0993 553.98 74.8626V125.137C553.98 127.901 555.474 130.468 557.921 131.862L602.04 156.999C604.489 158.395 607.511 158.395 609.96 156.999L654.079 131.862C656.526 130.468 658.02 127.901 658.02 125.137V74.8626C658.02 72.0993 656.526 69.5325 654.079 68.1384L609.96 43.001ZM611.941 39.5709C611.934 39.5672 611.928 39.5635 611.921 39.5598C608.255 37.4801 603.745 37.4801 600.079 39.5598C600.072 39.5635 600.066 39.5672 600.059 39.5709L555.941 64.7083C552.265 66.8028 550 70.6736 550 74.8626V125.137C550 129.326 552.265 133.197 555.941 135.292L600.059 160.429C600.066 160.433 600.072 160.437 600.079 160.44C603.745 162.52 608.255 162.52 611.921 160.44C611.928 160.437 611.934 160.433 611.941 160.429L656.059 135.292C659.735 133.197 662 129.326 662 125.137V74.8626C662 70.6736 659.735 66.8028 656.059 64.7083L611.941 39.5709ZM601.049 41.2633C604.113 39.5178 607.887 39.5178 610.951 41.2633L655.069 66.4007C655.076 66.4044 655.082 66.4081 655.089 66.4118C658.141 68.1598 660.02 71.3792 660.02 74.8626V125.137C660.02 128.621 658.141 131.84 655.089 133.588C655.082 133.592 655.076 133.596 655.069 133.599L610.951 158.737C607.887 160.482 604.113 160.482 601.049 158.737L556.931 133.599C556.924 133.596 556.918 133.592 556.911 133.588C553.859 131.84 551.98 128.621 551.98 125.137V74.8626C551.98 71.3792 553.859 68.1598 556.911 66.4118C556.918 66.4081 556.924 66.4044 556.931 66.4007L601.049 41.2633Z" fill="#D7E1F4"/>
<path fill-rule="evenodd" clip-rule="evenodd" d="M675.384 56.54C674.43 55.6069 673.347 54.7868 672.15 54.1085L669.721 52.7316L669.434 53.2367L669.399 53.2164L668.412 54.9563L670.842 56.3331C671.839 56.8984 672.742 57.5818 673.536 58.3594L673.951 57.9361C673.962 57.9472 673.974 57.9583 673.985 57.9694L675.384 56.54ZM677.383 130.79H680V133.543C680 134.916 679.814 136.262 679.46 137.552L678.868 137.39C678.866 137.398 678.864 137.406 678.862 137.414L676.933 136.884C677.228 135.809 677.383 134.687 677.383 133.543V130.79ZM673.536 142.641L673.951 143.064C673.962 143.053 673.974 143.042 673.985 143.031L675.384 144.46C674.43 145.393 673.347 146.213 672.15 146.892L669.721 148.268L669.434 147.763L669.399 147.784L668.412 146.044L670.842 144.667C671.839 144.102 672.742 143.418 673.536 142.641ZM663.554 148.797L663.84 149.302L663.876 149.282L664.862 151.022L660.004 153.776L659.718 153.271L659.682 153.291L658.696 151.551L663.554 148.797ZM653.837 154.305L654.124 154.81L654.16 154.789L655.146 156.529L650.287 159.283L650.001 158.778L649.965 158.798L648.979 157.058L653.837 154.305ZM644.121 159.812L644.407 160.317L644.443 160.297L645.429 162.036L640.571 164.79L640.285 164.285L640.249 164.305L639.262 162.565L644.121 159.812ZM634.404 165.319L634.69 165.824L634.726 165.804L635.713 167.544L630.854 170.297L630.568 169.792L630.532 169.813L629.546 168.073L634.404 165.319ZM624.688 170.826L624.974 171.331L625.01 171.311L625.996 173.051L621.138 175.805L620.851 175.3L620.815 175.32L619.829 173.58L624.688 170.826ZM614.971 176.334L615.257 176.839L615.293 176.818L616.279 178.558L613.85 179.935C612.644 180.618 611.369 181.132 610.059 181.476L609.914 180.923C609.906 180.925 609.898 180.927 609.891 180.929L609.382 178.995C610.474 178.708 611.537 178.28 612.542 177.71L614.971 176.334ZM602.618 178.995L602.109 180.929C602.102 180.927 602.094 180.925 602.086 180.923L601.941 181.476C600.631 181.132 599.356 180.618 598.15 179.935L595.721 178.558L596.707 176.818L596.743 176.839L597.029 176.334L599.458 177.71C600.463 178.28 601.526 178.708 602.618 178.995ZM592.171 173.58L591.185 175.32L591.149 175.3L590.862 175.805L586.004 173.051L586.99 171.311L587.026 171.331L587.312 170.826L592.171 173.58ZM582.454 168.073L577.596 165.319L577.31 165.824L577.274 165.804L576.287 167.544L581.146 170.297L581.432 169.792L581.468 169.813L582.454 168.073ZM571.429 164.79L571.715 164.285L571.751 164.305L572.738 162.565L567.879 159.812L567.593 160.317L567.557 160.297L566.571 162.036L571.429 164.79ZM561.713 159.283L561.999 158.778L562.035 158.798L563.021 157.058L558.163 154.305L557.876 154.81L557.84 154.789L556.854 156.529L561.713 159.283ZM551.996 153.776L552.282 153.271L552.318 153.291L553.304 151.551L548.446 148.797L548.16 149.302L548.124 149.282L547.138 151.022L551.996 153.776ZM542.279 148.268L542.566 147.763L542.601 147.784L543.588 146.044L541.158 144.667C540.161 144.102 539.258 143.418 538.464 142.641L538.049 143.064C538.038 143.053 538.026 143.042 538.015 143.031L536.616 144.46C537.57 145.393 538.653 146.213 539.85 146.892L542.279 148.268ZM532.54 137.553L533.132 137.39C533.134 137.398 533.136 137.406 533.138 137.414L535.067 136.884C534.772 135.809 534.617 134.687 534.617 133.544V130.79H532V133.544C532 134.916 532.186 136.262 532.54 137.553ZM532 125.283H534.617V119.775H532V125.283ZM532 114.268H534.617V108.761H532V114.268ZM532 103.254H534.617V97.7464H532V103.254ZM532 92.2391H534.617V86.7319H532V92.2391ZM532 81.2246H534.617V75.7174H532V81.2246ZM532 70.2101H534.617V67.4565C534.617 66.313 534.772 65.1911 535.067 64.1157L533.138 63.5863C533.136 63.5942 533.134 63.602 533.132 63.6099L532.54 63.4475C532.186 64.7381 532 66.0843 532 67.4565V70.2101ZM536.616 56.54L538.015 57.9694C538.026 57.9583 538.038 57.9472 538.049 57.9361L538.464 58.3594C539.258 57.5818 540.161 56.8984 541.158 56.3331L543.588 54.9563L542.601 53.2164L542.566 53.2367L542.279 52.7316L539.85 54.1085C538.653 54.7868 537.57 55.6069 536.616 56.54ZM547.138 49.978L548.124 51.718L548.16 51.6976L548.446 52.2027L553.304 49.4491L552.318 47.7091L552.282 47.7295L551.996 47.2244L547.138 49.978ZM556.854 44.4708L557.84 46.2107L557.876 46.1904L558.163 46.6954L563.021 43.9418L562.035 42.2019L561.999 42.2222L561.713 41.7171L556.854 44.4708ZM566.571 38.9635L567.557 40.7035L567.593 40.6831L567.879 41.1882L572.738 38.4346L571.751 36.6946L571.715 36.715L571.429 36.2099L566.571 38.9635ZM576.287 33.4563L577.274 35.1962L577.31 35.1759L577.596 35.6809L582.454 32.9273L581.468 31.1874L581.432 31.2077L581.146 30.7026L576.287 33.4563ZM586.004 27.949L586.99 29.689L587.026 29.6686L587.312 30.1737L592.171 27.4201L591.185 25.6801L591.149 25.7005L590.862 25.1954L586.004 27.949ZM595.721 22.4418L596.707 24.1817L596.743 24.1614L597.029 24.6664L599.458 23.2896C600.463 22.7201 601.526 22.292 602.618 22.0052L602.109 20.0708C602.102 20.0728 602.094 20.0748 602.086 20.0769L601.941 19.5236C600.631 19.8678 599.356 20.3815 598.15 21.0649L595.721 22.4418ZM610.059 19.5236L609.914 20.0769C609.906 20.0748 609.898 20.0728 609.891 20.0708L609.382 22.0052C610.474 22.292 611.537 22.7201 612.542 23.2896L614.971 24.6664L615.257 24.1614L615.293 24.1817L616.279 22.4418L613.85 21.0649C612.644 20.3815 611.369 19.8678 610.059 19.5236ZM621.138 25.1954L620.851 25.7005L620.815 25.6801L619.829 27.4201L624.688 30.1737L624.974 29.6686L625.01 29.689L625.996 27.949L621.138 25.1954ZM630.854 30.7026L630.568 31.2077L630.532 31.1874L629.546 32.9273L634.404 35.6809L634.69 35.1759L634.726 35.1962L635.713 33.4563L630.854 30.7026ZM640.571 36.2099L640.285 36.715L640.249 36.6946L639.262 38.4346L644.121 41.1882L644.407 40.6831L644.443 40.7035L645.429 38.9635L640.571 36.2099ZM650.287 41.7171L650.001 42.2222L649.965 42.2019L648.979 43.9418L653.837 46.6954L654.124 46.1904L654.16 46.2107L655.146 44.4708L650.287 41.7171ZM660.004 47.2244L659.718 47.7295L659.682 47.7091L658.696 49.4491L663.554 52.2027L663.84 51.6976L663.876 51.718L664.862 49.978L660.004 47.2244ZM680 70.2101H677.383V67.4565C677.383 66.313 677.228 65.1911 676.933 64.1157L678.862 63.5863C678.864 63.5942 678.866 63.602 678.868 63.6099L679.46 63.4475C679.814 64.7381 680 66.0843 680 67.4565V70.2101ZM680 75.7174H677.383V81.2246H680V75.7174ZM680 86.7319H677.383V92.2391H680V86.7319ZM680 97.7464H677.383V103.254H680V97.7464ZM680 108.761H677.383V114.268H680V108.761ZM680 119.775H677.383V125.283H680V119.775Z" fill="#0FC1B7"/>
<path fill-rule="evenodd" clip-rule="evenodd" d="M325.384 56.54C324.43 55.6069 323.347 54.7868 322.15 54.1085L319.721 52.7316L319.434 53.2367L319.399 53.2164L318.412 54.9563L320.842 56.3331C321.839 56.8984 322.742 57.5818 323.536 58.3594L323.951 57.9361C323.962 57.9472 323.974 57.9583 323.985 57.9694L325.384 56.54ZM327.383 130.79H330V133.543C330 134.916 329.814 136.262 329.46 137.552L328.868 137.39C328.866 137.398 328.864 137.406 328.862 137.414L326.933 136.884C327.228 135.809 327.383 134.687 327.383 133.543V130.79ZM323.536 142.641L323.951 143.064C323.962 143.053 323.974 143.042 323.985 143.031L325.384 144.46C324.43 145.393 323.347 146.213 322.15 146.892L319.721 148.268L319.434 147.763L319.399 147.784L318.412 146.044L320.842 144.667C321.839 144.102 322.742 143.418 323.536 142.641ZM313.554 148.797L313.84 149.302L313.876 149.282L314.862 151.022L310.004 153.776L309.718 153.271L309.682 153.291L308.696 151.551L313.554 148.797ZM303.837 154.305L304.124 154.81L304.16 154.789L305.146 156.529L300.287 159.283L300.001 158.778L299.965 158.798L298.979 157.058L303.837 154.305ZM294.121 159.812L294.407 160.317L294.443 160.297L295.429 162.036L290.571 164.79L290.285 164.285L290.249 164.305L289.262 162.565L294.121 159.812ZM284.404 165.319L284.69 165.824L284.726 165.804L285.713 167.544L280.854 170.297L280.568 169.792L280.532 169.813L279.546 168.073L284.404 165.319ZM274.688 170.826L274.974 171.331L275.01 171.311L275.996 173.051L271.138 175.805L270.851 175.3L270.815 175.32L269.829 173.58L274.688 170.826ZM264.971 176.334L265.257 176.839L265.293 176.818L266.279 178.558L263.85 179.935C262.644 180.618 261.369 181.132 260.059 181.476L259.914 180.923C259.906 180.925 259.898 180.927 259.891 180.929L259.382 178.995C260.474 178.708 261.537 178.28 262.542 177.71L264.971 176.334ZM252.618 178.995L252.109 180.929C252.102 180.927 252.094 180.925 252.086 180.923L251.941 181.476C250.631 181.132 249.356 180.618 248.15 179.935L245.721 178.558L246.707 176.818L246.743 176.839L247.029 176.334L249.458 177.71C250.463 178.28 251.526 178.708 252.618 178.995ZM242.171 173.58L241.185 175.32L241.149 175.3L240.862 175.805L236.004 173.051L236.99 171.311L237.026 171.331L237.312 170.826L242.171 173.58ZM232.454 168.073L227.596 165.319L227.31 165.824L227.274 165.804L226.287 167.544L231.146 170.297L231.432 169.792L231.468 169.813L232.454 168.073ZM221.429 164.79L221.715 164.285L221.751 164.305L222.738 162.565L217.879 159.812L217.593 160.317L217.557 160.297L216.571 162.036L221.429 164.79ZM211.713 159.283L211.999 158.778L212.035 158.798L213.021 157.058L208.163 154.305L207.876 154.81L207.84 154.789L206.854 156.529L211.713 159.283ZM201.996 153.776L202.282 153.271L202.318 153.291L203.304 151.551L198.446 148.797L198.16 149.302L198.124 149.282L197.138 151.022L201.996 153.776ZM192.279 148.268L192.566 147.763L192.601 147.784L193.588 146.044L191.158 144.667C190.161 144.102 189.258 143.418 188.464 142.641L188.049 143.064C188.038 143.053 188.026 143.042 188.015 143.031L186.616 144.46C187.57 145.393 188.653 146.213 189.85 146.892L192.279 148.268ZM182.54 137.553L183.132 137.39C183.134 137.398 183.136 137.406 183.138 137.414L185.067 136.884C184.772 135.809 184.617 134.687 184.617 133.544V130.79H182V133.544C182 134.916 182.186 136.262 182.54 137.553ZM182 125.283H184.617V119.775H182V125.283ZM182 114.268H184.617V108.761H182V114.268ZM182 103.254H184.617V97.7464H182V103.254ZM182 92.2391H184.617V86.7319H182V92.2391ZM182 81.2246H184.617V75.7174H182V81.2246ZM182 70.2101H184.617V67.4565C184.617 66.313 184.772 65.1911 185.067 64.1157L183.138 63.5863C183.136 63.5942 183.134 63.602 183.132 63.6099L182.54 63.4475C182.186 64.7381 182 66.0843 182 67.4565V70.2101ZM186.616 56.54L188.015 57.9694C188.026 57.9583 188.038 57.9472 188.049 57.9361L188.464 58.3594C189.258 57.5818 190.161 56.8984 191.158 56.3331L193.588 54.9563L192.601 53.2164L192.566 53.2367L192.279 52.7316L189.85 54.1085C188.653 54.7868 187.57 55.6069 186.616 56.54ZM197.138 49.978L198.124 51.718L198.16 51.6976L198.446 52.2027L203.304 49.4491L202.318 47.7091L202.282 47.7295L201.996 47.2244L197.138 49.978ZM206.854 44.4708L207.84 46.2107L207.876 46.1904L208.163 46.6954L213.021 43.9418L212.035 42.2019L211.999 42.2222L211.713 41.7171L206.854 44.4708ZM216.571 38.9635L217.557 40.7035L217.593 40.6831L217.879 41.1882L222.738 38.4346L221.751 36.6946L221.715 36.715L221.429 36.2099L216.571 38.9635ZM226.287 33.4563L227.274 35.1962L227.31 35.1759L227.596 35.6809L232.454 32.9273L231.468 31.1874L231.432 31.2077L231.146 30.7026L226.287 33.4563ZM236.004 27.949L236.99 29.689L237.026 29.6686L237.312 30.1737L242.171 27.4201L241.185 25.6801L241.149 25.7005L240.862 25.1954L236.004 27.949ZM245.721 22.4418L246.707 24.1817L246.743 24.1614L247.029 24.6664L249.458 23.2896C250.463 22.7201 251.526 22.292 252.618 22.0052L252.109 20.0708C252.102 20.0728 252.094 20.0748 252.086 20.0769L251.941 19.5236C250.631 19.8678 249.356 20.3815 248.15 21.0649L245.721 22.4418ZM260.059 19.5236L259.914 20.0769C259.906 20.0748 259.898 20.0728 259.891 20.0708L259.382 22.0052C260.474 22.292 261.537 22.7201 262.542 23.2896L264.971 24.6664L265.257 24.1614L265.293 24.1817L266.279 22.4418L263.85 21.0649C262.644 20.3815 261.369 19.8678 260.059 19.5236ZM271.138 25.1954L270.851 25.7005L270.815 25.6801L269.829 27.4201L274.688 30.1737L274.974 29.6686L275.01 29.689L275.996 27.949L271.138 25.1954ZM280.854 30.7026L280.568 31.2077L280.532 31.1874L279.546 32.9273L284.404 35.6809L284.69 35.1759L284.726 35.1962L285.713 33.4563L280.854 30.7026ZM290.571 36.2099L290.285 36.715L290.249 36.6946L289.262 38.4346L294.121 41.1882L294.407 40.6831L294.443 40.7035L295.429 38.9635L290.571 36.2099ZM300.287 41.7171L300.001 42.2222L299.965 42.2019L298.979 43.9418L303.837 46.6954L304.124 46.1904L304.16 46.2107L305.146 44.4708L300.287 41.7171ZM310.004 47.2244L309.718 47.7295L309.682 47.7091L308.696 49.4491L313.554 52.2027L313.84 51.6976L313.876 51.718L314.862 49.978L310.004 47.2244ZM330 70.2101H327.383V67.4565C327.383 66.313 327.228 65.1911 326.933 64.1157L328.862 63.5863C328.864 63.5942 328.866 63.602 328.868 63.6099L329.46 63.4475C329.814 64.7381 330 66.0843 330 67.4565V70.2101ZM330 75.7174H327.383V81.2246H330V75.7174ZM330 86.7319H327.383V92.2391H330V86.7319ZM330 97.7464H327.383V103.254H330V97.7464ZM330 108.761H327.383V114.268H330V108.761ZM330 119.775H327.383V125.283H330V119.775Z" fill="#0FC1B7"/>
<path d="M594.552 86.7761H618.612V119.373H594.552V86.7761Z" fill="#111F3B"/>
<path fill-rule="evenodd" clip-rule="evenodd" d="M594.612 87.6119H618.254V119.313H594.612V87.6119ZM593 87.6119C593 86.7217 593.722 86 594.612 86H618.254C619.144 86 619.866 86.7217 619.866 87.6119V119.313C619.866 120.204 619.144 120.925 618.254 120.925H594.612C593.722 120.925 593 120.204 593 119.313V87.6119ZM596.761 94.0597H616.104V92.9851H596.761V94.0597ZM596.761 106.955H616.104V105.881H596.761V106.955ZM616.104 98.3582H596.761V97.2836H616.104V98.3582ZM596.761 111.254H609.657V110.179H596.761V111.254ZM616.104 102.657H596.761V101.582H616.104V102.657Z" fill="#D7E1F4"/>
<path d="M594.552 79.7761H618.612V112.373H594.552V79.7761Z" fill="#111F3B"/>
<path fill-rule="evenodd" clip-rule="evenodd" d="M594.612 80.6119H618.254V112.313H594.612V80.6119ZM593 80.6119C593 79.7217 593.722 79 594.612 79H618.254C619.144 79 619.866 79.7217 619.866 80.6119V112.313C619.866 113.204 619.144 113.925 618.254 113.925H594.612C593.722 113.925 593 113.204 593 112.313V80.6119ZM596.761 87.0597H616.104V85.9851H596.761V87.0597ZM596.761 99.9552H616.104V98.8806H596.761V99.9552ZM616.104 91.3582H596.761V90.2836H616.104V91.3582ZM596.761 104.254H609.657V103.179H596.761V104.254ZM616.104 95.6567H596.761V94.5821H616.104V95.6567Z" fill="#D7E1F4"/>
<path fill-rule="evenodd" clip-rule="evenodd" d="M230.612 92.6866H254.254V124.388H230.612V92.6866ZM229 92.6866C229 91.7963 229.722 91.0746 230.612 91.0746H254.254C255.144 91.0746 255.866 91.7963 255.866 92.6866V124.388C255.866 125.278 255.144 126 254.254 126H230.612C229.722 126 229 125.278 229 124.388V92.6866ZM232.761 99.1343H252.104V98.0597H232.761V99.1343ZM232.761 112.03H252.104V110.955H232.761V112.03ZM252.104 103.433H232.761V102.358H252.104V103.433ZM232.761 116.328H245.657V115.254H232.761V116.328ZM252.104 107.731H232.761V106.657H252.104V107.731Z" fill="#D7E1F4"/>
<path d="M244.522 83.3134H268.582V115.91H244.522V83.3134Z" fill="#111F3B"/>
<path fill-rule="evenodd" clip-rule="evenodd" d="M244.582 84.1493H268.224V115.851H244.582V84.1493ZM242.97 84.1493C242.97 83.259 243.692 82.5373 244.582 82.5373H268.224C269.114 82.5373 269.836 83.259 269.836 84.1493V115.851C269.836 116.741 269.114 117.463 268.224 117.463H244.582C243.692 117.463 242.97 116.741 242.97 115.851V84.1493ZM246.731 90.597H266.075V89.5224H246.731V90.597ZM246.731 103.493H266.075V102.418H246.731V103.493ZM266.075 94.8955H246.731V93.8209H266.075V94.8955ZM246.731 107.791H259.627V106.716H246.731V107.791ZM266.075 99.194H246.731V98.1194H266.075V99.194Z" fill="#D7E1F4"/>
<path d="M256.94 74.7761H281V107.373H256.94V74.7761Z" fill="#111F3B"/>
<path fill-rule="evenodd" clip-rule="evenodd" d="M257 75.6119H280.642V107.313H257V75.6119ZM255.388 75.6119C255.388 74.7217 256.11 74 257 74H280.642C281.532 74 282.254 74.7217 282.254 75.6119V107.313C282.254 108.204 281.532 108.925 280.642 108.925H257C256.11 108.925 255.388 108.204 255.388 107.313V75.6119ZM259.149 82.0597H278.493V80.9851H259.149V82.0597ZM259.149 94.9552H278.493V93.8806H259.149V94.9552ZM278.493 86.3582H259.149V85.2836H278.493V86.3582ZM259.149 99.2537H272.045V98.1791H259.149V99.2537ZM278.493 90.6567H259.149V89.5821H278.493V90.6567Z" fill="#D7E1F4"/>
<path d="M461.552 104.776H485.612V137.373H461.552V104.776Z" fill="#111F3B"/>
<path fill-rule="evenodd" clip-rule="evenodd" d="M461.612 105.612H485.254V137.313H461.612V105.612ZM460 105.612C460 104.722 460.722 104 461.612 104H485.254C486.144 104 486.866 104.722 486.866 105.612V137.313C486.866 138.204 486.144 138.925 485.254 138.925H461.612C460.722 138.925 460 138.204 460 137.313V105.612ZM463.761 112.06H483.104V110.985H463.761V112.06ZM463.761 124.955H483.104V123.881H463.761V124.955ZM483.104 116.358H463.761V115.284H483.104V116.358ZM463.761 129.254H476.657V128.179H463.761V129.254ZM483.104 120.657H463.761V119.582H483.104V120.657Z" fill="#0FC1B7"/>
<path d="M386.552 61.7761H410.612V94.3731H386.552V61.7761Z" fill="#111F3B"/>
<path fill-rule="evenodd" clip-rule="evenodd" d="M386.612 62.6119H410.254V94.3134H386.612V62.6119ZM385 62.6119C385 61.7217 385.722 61 386.612 61H410.254C411.144 61 411.866 61.7217 411.866 62.6119V94.3134C411.866 95.2037 411.144 95.9254 410.254 95.9254H386.612C385.722 95.9254 385 95.2037 385 94.3134V62.6119ZM388.761 69.0597H408.104V67.9851H388.761V69.0597ZM388.761 81.9552H408.104V80.8806H388.761V81.9552ZM408.104 73.3582H388.761V72.2836H408.104V73.3582ZM388.761 86.2537H401.657V85.1791H388.761V86.2537ZM408.104 77.6567H388.761V76.5821H408.104V77.6567Z" fill="#0FC1B7"/>
<path fill-rule="evenodd" clip-rule="evenodd" d="M329.857 80H328V78H329.857V80ZM337.286 80H333.571V78H337.286V80ZM344.714 80H341V78H344.714V80ZM352.143 80H348.429V78H352.143V80ZM359.571 80H355.857V78H359.571V80ZM367 80H363.286V78H367V80ZM374.429 80H370.714V78H374.429V80ZM380 80H378.143V78H380V80Z" fill="#0FC1B7"/>
<path fill-rule="evenodd" clip-rule="evenodd" d="M329.984 123H328V121H329.984V123ZM337.922 123H333.953V121H337.922V123ZM345.859 123H341.891V121H345.859V123ZM353.797 123H349.828V121H353.797V123ZM361.734 123H357.766V121H361.734V123ZM369.672 123H365.703V121H369.672V123ZM377.609 123H373.641V121H377.609V123ZM385.547 123H381.578V121H385.547V123ZM393.484 123H389.516V121H393.484V123ZM401.422 123H397.453V121H401.422V123ZM409.359 123H405.391V121H409.359V123ZM417.297 123H413.328V121H417.297V123ZM425.234 123H421.266V121H425.234V123ZM433.172 123H429.203V121H433.172V123ZM441.109 123H437.141V121H441.109V123ZM449.047 123H445.078V121H449.047V123ZM455 123H453.016V121H455V123Z" fill="#0FC1B7"/>
<path fill-rule="evenodd" clip-rule="evenodd" d="M417.967 80L416 80L416 78L417.967 78L417.967 80ZM425.833 80L421.9 80L421.9 78L425.833 78L425.833 80ZM433.7 80L429.767 80L429.767 78L433.7 78L433.7 80ZM441.567 80L437.633 80L437.633 78L441.567 78L441.567 80ZM449.433 80L445.5 80L445.5 78L449.433 78L449.433 80ZM457.3 80L453.367 80L453.367 78L457.3 78L457.3 80ZM465.167 80L461.233 80L461.233 78L465.167 78L465.167 80ZM473.033 80L469.1 80L469.1 78L473.033 78L473.033 80ZM480.9 80L476.967 80L476.967 78L480.9 78L480.9 80ZM488.767 80L484.833 80L484.833 78L488.767 78L488.767 80ZM496.633 80L492.7 80L492.7 78L496.633 78L496.633 80ZM504.5 80L500.567 80L500.567 78L504.5 78L504.5 80ZM512.367 80L508.433 80L508.433 78L512.367 78L512.367 80ZM520.233 80L516.3 80L516.3 78L520.233 78L520.233 80ZM528.1 80L524.167 80L524.167 78L528.1 78L528.1 80ZM534 80L532.033 80L532.033 78L534 78L534 80Z" fill="#0FC1B7"/>
<path fill-rule="evenodd" clip-rule="evenodd" d="M494.1 123H492V121H494.1V123ZM502.5 123H498.3V121H502.5V123ZM510.9 123H506.7V121H510.9V123ZM519.3 123H515.1V121H519.3V123ZM527.7 123H523.5V121H527.7V123ZM534 123H531.9V121H534V123Z" fill="#0FC1B7"/>
</svg>
