<svg width="830" height="250" viewBox="0 0 830 250" fill="none" xmlns="http://www.w3.org/2000/svg">
<g clip-path="url(#clip0_70_3289)">
<rect width="830" height="250" fill="black"/>
<rect x="-5.96046e-08" y="1" width="434.13" height="639.273" transform="matrix(0.866025 0.5 -0.866025 0.5 264.225 -87.2308)" stroke="#38FFFA" stroke-width="2"/>
<rect x="1.73205" y="-5.96046e-08" width="375.08" height="282.037" transform="matrix(0.866025 0.5 0.866025 -0.5 288.631 -103.054)" stroke="#38FFFA" stroke-width="2"/>
<rect x="-5.96046e-08" y="1" width="31.0048" height="241.718" transform="matrix(0.866025 0.5 -0.866025 0.5 280.109 -73.3893)" stroke="#38FFFA" stroke-width="2"/>
<rect x="1.73205" y="-5.96046e-08" width="31.0048" height="98.0586" transform="matrix(0.866025 0.5 0.866025 -0.5 -37.057 107.995)" stroke="#38FFFA" stroke-width="2"/>
<rect x="-5.96046e-08" y="1" width="442.345" height="511.934" transform="matrix(0.866025 0.5 -0.866025 0.5 957.424 -27.4092)" stroke="#38FFFA" stroke-width="2"/>
<rect x="358" y="100" width="200" height="50" fill="#0101FF"/>
<path d="M388.489 118.364C388.335 117.068 387.713 116.062 386.622 115.347C385.531 114.631 384.193 114.273 382.608 114.273C381.449 114.273 380.435 114.46 379.565 114.835C378.705 115.21 378.031 115.726 377.545 116.382C377.068 117.038 376.83 117.784 376.83 118.619C376.83 119.318 376.996 119.919 377.328 120.422C377.669 120.916 378.104 121.33 378.632 121.662C379.161 121.986 379.714 122.254 380.294 122.467C380.874 122.672 381.406 122.838 381.892 122.966L384.551 123.682C385.233 123.861 385.991 124.108 386.827 124.423C387.67 124.739 388.476 125.169 389.243 125.714C390.018 126.251 390.658 126.942 391.161 127.786C391.663 128.629 391.915 129.665 391.915 130.892C391.915 132.307 391.544 133.585 390.803 134.727C390.07 135.869 388.996 136.777 387.581 137.45C386.175 138.124 384.466 138.46 382.455 138.46C380.58 138.46 378.956 138.158 377.584 137.553C376.22 136.947 375.146 136.104 374.362 135.021C373.587 133.939 373.148 132.682 373.045 131.25H376.318C376.403 132.239 376.736 133.057 377.315 133.705C377.903 134.344 378.645 134.821 379.54 135.136C380.443 135.443 381.415 135.597 382.455 135.597C383.665 135.597 384.751 135.401 385.714 135.009C386.678 134.608 387.44 134.054 388.003 133.347C388.565 132.631 388.847 131.795 388.847 130.841C388.847 129.972 388.604 129.264 388.118 128.719C387.632 128.173 386.993 127.73 386.2 127.389C385.408 127.048 384.551 126.75 383.631 126.494L380.409 125.574C378.364 124.986 376.744 124.146 375.551 123.055C374.358 121.964 373.761 120.537 373.761 118.773C373.761 117.307 374.158 116.028 374.95 114.938C375.751 113.838 376.825 112.986 378.172 112.381C379.527 111.767 381.04 111.46 382.71 111.46C384.398 111.46 385.898 111.763 387.21 112.368C388.523 112.964 389.563 113.783 390.33 114.822C391.105 115.862 391.514 117.043 391.557 118.364H388.489ZM398.201 138H394.877L404.491 111.818H407.764L417.377 138H414.054L406.23 115.96H406.025L398.201 138ZM399.429 127.773H412.826V130.585H399.429V127.773ZM442.217 111.818V138H439.149L424.882 117.443H424.626V138H421.456V111.818H424.524L438.842 132.426H439.098V111.818H442.217ZM456.641 138H448.561V111.818H456.999C459.538 111.818 461.712 112.342 463.518 113.391C465.325 114.43 466.71 115.926 467.673 117.878C468.636 119.821 469.118 122.148 469.118 124.858C469.118 127.585 468.632 129.933 467.661 131.902C466.689 133.862 465.274 135.371 463.416 136.428C461.558 137.476 459.3 138 456.641 138ZM451.732 135.188H456.436C458.601 135.188 460.395 134.77 461.818 133.935C463.241 133.099 464.303 131.911 465.001 130.368C465.7 128.825 466.05 126.989 466.05 124.858C466.05 122.744 465.705 120.925 465.014 119.399C464.324 117.865 463.293 116.689 461.92 115.871C460.548 115.044 458.839 114.631 456.794 114.631H451.732V135.188ZM474.436 138V111.818H483.589C485.413 111.818 486.918 112.134 488.102 112.764C489.287 113.386 490.169 114.226 490.749 115.283C491.328 116.331 491.618 117.494 491.618 118.773C491.618 119.898 491.418 120.827 491.017 121.56C490.625 122.293 490.105 122.872 489.457 123.298C488.818 123.724 488.124 124.04 487.374 124.244V124.5C488.175 124.551 488.98 124.832 489.79 125.344C490.599 125.855 491.277 126.588 491.822 127.543C492.368 128.497 492.641 129.665 492.641 131.045C492.641 132.358 492.342 133.538 491.746 134.587C491.149 135.635 490.207 136.466 488.92 137.08C487.634 137.693 485.959 138 483.896 138H474.436ZM477.607 135.188H483.896C485.967 135.188 487.438 134.787 488.307 133.986C489.185 133.176 489.624 132.196 489.624 131.045C489.624 130.159 489.398 129.341 488.946 128.591C488.494 127.832 487.851 127.227 487.016 126.776C486.18 126.315 485.192 126.085 484.05 126.085H477.607V135.188ZM477.607 123.324H483.487C484.442 123.324 485.303 123.136 486.07 122.761C486.845 122.386 487.459 121.858 487.911 121.176C488.371 120.494 488.601 119.693 488.601 118.773C488.601 117.622 488.2 116.646 487.399 115.845C486.598 115.036 485.328 114.631 483.589 114.631H477.607V123.324ZM519.941 124.909C519.941 127.67 519.442 130.057 518.445 132.068C517.448 134.08 516.08 135.631 514.342 136.722C512.603 137.812 510.617 138.358 508.384 138.358C506.151 138.358 504.165 137.812 502.427 136.722C500.688 135.631 499.32 134.08 498.323 132.068C497.326 130.057 496.827 127.67 496.827 124.909C496.827 122.148 497.326 119.761 498.323 117.75C499.32 115.739 500.688 114.188 502.427 113.097C504.165 112.006 506.151 111.46 508.384 111.46C510.617 111.46 512.603 112.006 514.342 113.097C516.08 114.188 517.448 115.739 518.445 117.75C519.442 119.761 519.941 122.148 519.941 124.909ZM516.873 124.909C516.873 122.642 516.494 120.729 515.735 119.169C514.985 117.609 513.967 116.429 512.68 115.628C511.401 114.827 509.969 114.426 508.384 114.426C506.799 114.426 505.363 114.827 504.076 115.628C502.798 116.429 501.779 117.609 501.021 119.169C500.271 120.729 499.896 122.642 499.896 124.909C499.896 127.176 500.271 129.089 501.021 130.649C501.779 132.209 502.798 133.389 504.076 134.19C505.363 134.991 506.799 135.392 508.384 135.392C509.969 135.392 511.401 134.991 512.68 134.19C513.967 133.389 514.985 132.209 515.735 130.649C516.494 129.089 516.873 127.176 516.873 124.909ZM526.384 111.818L533.134 122.71H533.339L540.089 111.818H543.822L535.589 124.909L543.822 138H540.089L533.339 127.312H533.134L526.384 138H522.651L531.089 124.909L522.651 111.818H526.384Z" fill="white"/>
<path d="M276.341 111.818V138H273.17V111.818H276.341ZM304.789 124.909C304.789 127.67 304.29 130.057 303.293 132.068C302.296 134.08 300.928 135.631 299.189 136.722C297.451 137.812 295.465 138.358 293.232 138.358C290.999 138.358 289.013 137.812 287.275 136.722C285.536 135.631 284.168 134.08 283.171 132.068C282.174 130.057 281.675 127.67 281.675 124.909C281.675 122.148 282.174 119.761 283.171 117.75C284.168 115.739 285.536 114.188 287.275 113.097C289.013 112.006 290.999 111.46 293.232 111.46C295.465 111.46 297.451 112.006 299.189 113.097C300.928 114.188 302.296 115.739 303.293 117.75C304.29 119.761 304.789 122.148 304.789 124.909ZM301.721 124.909C301.721 122.642 301.341 120.729 300.583 119.169C299.833 117.609 298.814 116.429 297.527 115.628C296.249 114.827 294.817 114.426 293.232 114.426C291.647 114.426 290.211 114.827 288.924 115.628C287.645 116.429 286.627 117.609 285.868 119.169C285.118 120.729 284.743 122.642 284.743 124.909C284.743 127.176 285.118 129.089 285.868 130.649C286.627 132.209 287.645 133.389 288.924 134.19C290.211 134.991 291.647 135.392 293.232 135.392C294.817 135.392 296.249 134.991 297.527 134.19C298.814 133.389 299.833 132.209 300.583 130.649C301.341 129.089 301.721 127.176 301.721 124.909ZM307.598 114.631V111.818H327.234V114.631H319.001V138H315.831V114.631H307.598ZM330.143 138H326.819L336.433 111.818H339.705L349.319 138H345.995L338.171 115.96H337.967L330.143 138ZM331.37 127.773H344.768V130.585H331.37V127.773Z" fill="white"/>
<rect width="120.447" height="48.1788" transform="matrix(0.866025 0.5 -2.20305e-08 1 -14.4971 132.197)" fill="url(#paint0_linear_70_3289)"/>
<rect width="120.447" height="96.5112" transform="matrix(0.866025 -0.5 2.20305e-08 1 90 192.223)" fill="url(#paint1_linear_70_3289)"/>
<rect width="120.447" height="120.447" transform="matrix(0.866025 0.5 -0.866025 0.5 89.6899 72)" fill="#0101FF"/>
<path d="M127.365 126.618C129.382 127.782 132.648 127.785 134.66 126.623C136.672 125.462 136.667 123.576 134.65 122.412C132.634 121.247 129.368 121.245 127.356 122.406C125.344 123.568 125.349 125.453 127.365 126.618Z" fill="white"/>
<path d="M80.0232 158.695C82.0401 159.859 85.3059 159.862 87.3176 158.7C89.3292 157.539 89.325 155.653 87.3081 154.489C85.2913 153.324 82.0255 153.322 80.0138 154.483C78.0021 155.645 78.0063 157.53 80.0232 158.695Z" fill="white"/>
<path d="M119.302 132.478C120.995 133.455 123.736 133.457 125.424 132.483C127.113 131.508 127.109 129.925 125.417 128.948C123.724 127.971 120.983 127.969 119.294 128.943C117.606 129.918 117.61 131.501 119.302 132.478Z" fill="white"/>
<path d="M126.284 137.86C127.977 138.838 130.718 138.84 132.406 137.865C134.095 136.89 134.091 135.308 132.398 134.33C130.706 133.353 127.965 133.351 126.276 134.326C124.588 135.301 124.592 136.883 126.284 137.86Z" fill="white"/>
<path d="M110.519 136.345C111.96 137.176 114.293 137.178 115.729 136.349C117.166 135.519 117.163 134.172 115.723 133.34C114.282 132.509 111.949 132.507 110.512 133.336C109.076 134.166 109.079 135.513 110.519 136.345Z" fill="white"/>
<path d="M117.564 141.689C119.004 142.521 121.337 142.523 122.774 141.693C124.211 140.863 124.208 139.517 122.767 138.685C121.327 137.853 118.994 137.851 117.557 138.681C116.12 139.511 116.123 140.857 117.564 141.689Z" fill="white"/>
<path d="M121.549 146.919C122.99 147.75 125.322 147.752 126.759 146.923C128.196 146.093 128.193 144.746 126.753 143.914C125.312 143.083 122.979 143.081 121.542 143.911C120.105 144.74 120.108 146.087 121.549 146.919Z" fill="white"/>
<path d="M108.907 143.901C110.168 144.629 112.209 144.631 113.466 143.905C114.723 143.179 114.721 142 113.46 141.272C112.2 140.545 110.158 140.543 108.901 141.269C107.644 141.995 107.647 143.173 108.907 143.901Z" fill="white"/>
<path d="M101.863 138.556C103.123 139.284 105.164 139.286 106.422 138.56C107.679 137.834 107.676 136.655 106.416 135.928C105.155 135.2 103.114 135.198 101.857 135.924C100.599 136.65 100.602 137.829 101.863 138.556Z" fill="white"/>
<path d="M112.957 149.168C114.218 149.896 116.259 149.897 117.516 149.171C118.774 148.446 118.771 147.267 117.51 146.539C116.25 145.812 114.209 145.81 112.951 146.536C111.694 147.262 111.697 148.44 112.957 149.168Z" fill="white"/>
<path d="M100.899 144.76C101.98 145.384 103.729 145.385 104.807 144.763C105.885 144.141 105.883 143.131 104.802 142.507C103.722 141.883 101.972 141.882 100.894 142.504C99.8167 143.126 99.8189 144.136 100.899 144.76Z" fill="white"/>
<path d="M105.014 149.99C106.094 150.614 107.844 150.615 108.921 149.993C109.999 149.371 109.997 148.361 108.916 147.737C107.836 147.113 106.086 147.112 105.009 147.734C103.931 148.356 103.933 149.366 105.014 149.99Z" fill="white"/>
<path d="M93.9839 139.415C95.0644 140.038 96.8139 140.04 97.8916 139.418C98.9693 138.795 98.967 137.785 97.8865 137.161C96.8061 136.538 95.0565 136.536 93.9789 137.159C92.9012 137.781 92.9034 138.791 93.9839 139.415Z" fill="white"/>
<path d="M94.1247 144.529C95.0251 145.049 96.483 145.05 97.3811 144.532C98.2792 144.013 98.2773 143.172 97.3769 142.652C96.4765 142.132 95.0185 142.131 94.1205 142.649C93.2224 143.168 93.2243 144.01 94.1247 144.529Z" fill="white"/>
<path d="M92.4409 148.739C93.2332 149.197 94.5162 149.198 95.3065 148.742C96.0968 148.285 96.0952 147.545 95.3028 147.087C94.5105 146.63 93.2275 146.629 92.4372 147.085C91.6469 147.541 91.6485 148.282 92.4409 148.739Z" fill="white"/>
<path d="M88.0734 147.27C88.7217 147.644 89.7714 147.645 90.4181 147.272C91.0647 146.898 91.0633 146.292 90.415 145.918C89.7668 145.544 88.717 145.543 88.0704 145.916C87.4238 146.29 87.4252 146.896 88.0734 147.27Z" fill="white"/>
<path d="M88.3911 143.547C89.1834 144.005 90.4664 144.005 91.2567 143.549C92.047 143.093 92.0454 142.352 91.253 141.895C90.4607 141.437 89.1777 141.436 88.3874 141.893C87.5971 142.349 87.5987 143.09 88.3911 143.547Z" fill="white"/>
<path d="M87.0793 139.185C87.9797 139.705 89.4376 139.706 90.3357 139.187C91.2338 138.669 91.2319 137.827 90.3315 137.307C89.4311 136.788 87.9731 136.786 87.0751 137.305C86.177 137.823 86.1789 138.665 87.0793 139.185Z" fill="white"/>
<path d="M99.2423 132.087C100.143 132.606 101.601 132.607 102.499 132.089C103.397 131.57 103.395 130.729 102.495 130.209C101.594 129.689 100.136 129.688 99.2381 130.206C98.3401 130.725 98.3419 131.567 99.2423 132.087Z" fill="white"/>
<path d="M105.684 129.196C106.476 129.653 107.759 129.654 108.549 129.198C109.34 128.742 109.338 128.001 108.546 127.544C107.753 127.086 106.47 127.085 105.68 127.541C104.89 127.998 104.891 128.738 105.684 129.196Z" fill="white"/>
<path d="M111.932 127.396C112.581 127.77 113.63 127.771 114.277 127.398C114.924 127.024 114.922 126.418 114.274 126.044C113.626 125.67 112.576 125.669 111.929 126.042C111.283 126.416 111.284 127.022 111.932 127.396Z" fill="white"/>
<path d="M111.404 124.538C112.197 124.995 113.48 124.996 114.27 124.54C115.06 124.084 115.059 123.343 114.266 122.886C113.474 122.428 112.191 122.427 111.401 122.884C110.61 123.34 110.612 124.081 111.404 124.538Z" fill="white"/>
<path d="M98.175 149.721C99.0754 150.241 100.533 150.242 101.431 149.723C102.329 149.205 102.328 148.363 101.427 147.843C100.527 147.323 99.0688 147.322 98.1708 147.841C97.2727 148.359 97.2746 149.201 98.175 149.721Z" fill="white"/>
<path d="M109.573 121.303C110.474 121.823 111.932 121.824 112.83 121.305C113.728 120.787 113.726 119.945 112.826 119.425C111.925 118.905 110.467 118.904 109.569 119.423C108.671 119.941 108.673 120.783 109.573 121.303Z" fill="white"/>
<path d="M103.787 125.924C104.688 126.444 106.146 126.445 107.044 125.926C107.942 125.408 107.94 124.566 107.039 124.046C106.139 123.526 104.681 123.525 103.783 124.044C102.885 124.562 102.887 125.404 103.787 125.924Z" fill="white"/>
<path d="M95.3926 128.662C96.4731 129.286 98.2226 129.287 99.3003 128.665C100.378 128.043 100.376 127.033 99.2952 126.409C98.2148 125.785 96.4652 125.784 95.3875 126.406C94.3099 127.028 94.3121 128.039 95.3926 128.662Z" fill="white"/>
<path d="M89.4578 125.236C90.7184 125.963 92.7595 125.965 94.0168 125.239C95.2741 124.513 95.2715 123.335 94.011 122.607C92.7504 121.879 90.7093 121.878 89.452 122.604C88.1947 123.329 88.1973 124.508 89.4578 125.236Z" fill="white"/>
<path d="M80.9845 122.147C82.4252 122.979 84.7579 122.98 86.1948 122.151C87.6317 121.321 87.6287 119.974 86.1881 119.143C84.7475 118.311 82.4147 118.309 80.9778 119.139C79.5409 119.968 79.5439 121.315 80.9845 122.147Z" fill="white"/>
<path d="M69.7116 119.92C71.4043 120.897 74.1453 120.899 75.8336 119.925C77.522 118.95 77.5185 117.367 75.8257 116.39C74.133 115.413 71.392 115.411 69.7037 116.385C68.0153 117.36 68.0188 118.943 69.7116 119.92Z" fill="white"/>
<path d="M55.6423 119.007C57.6592 120.171 60.925 120.174 62.9367 119.012C64.9484 117.851 64.9442 115.965 62.9273 114.801C60.9104 113.636 57.6446 113.634 55.6329 114.795C53.6212 115.957 53.6254 117.842 55.6423 119.007Z" fill="white"/>
<path d="M74.2579 113.757C75.9507 114.734 78.6916 114.736 80.38 113.761C82.0684 112.787 82.0649 111.204 80.3721 110.227C78.6794 109.25 75.9384 109.247 74.25 110.222C72.5617 111.197 72.5652 112.78 74.2579 113.757Z" fill="white"/>
<path d="M85.5295 115.983C86.9701 116.815 89.3028 116.816 90.7397 115.987C92.1767 115.157 92.1736 113.81 90.733 112.979C89.2924 112.147 86.9597 112.145 85.5227 112.975C84.0858 113.804 84.0888 115.151 85.5295 115.983Z" fill="white"/>
<path d="M91.3156 111.362C92.7562 112.194 95.0889 112.195 96.5259 111.366C97.9628 110.536 97.9598 109.189 96.5191 108.358C95.0785 107.526 92.7458 107.524 91.3089 108.354C89.8719 109.183 89.875 110.53 91.3156 111.362Z" fill="white"/>
<path d="M99.7894 114.452C101.05 115.18 103.091 115.181 104.348 114.456C105.606 113.73 105.603 112.551 104.342 111.823C103.082 111.096 101.041 111.094 99.7835 111.82C98.5262 112.546 98.5288 113.724 99.7894 114.452Z" fill="white"/>
<path d="M105.723 117.878C106.804 118.502 108.553 118.503 109.631 117.881C110.709 117.259 110.706 116.249 109.626 115.625C108.545 115.001 106.796 115 105.718 115.622C104.64 116.244 104.643 117.254 105.723 117.878Z" fill="white"/>
<path d="M99.938 122.499C101.018 123.122 102.768 123.124 103.846 122.502C104.923 121.879 104.921 120.869 103.841 120.245C102.76 119.622 101.011 119.62 99.9329 120.243C98.8553 120.865 98.8575 121.875 99.938 122.499Z" fill="white"/>
<path d="M93.9378 119.111C95.1984 119.838 97.2395 119.84 98.4968 119.114C99.7541 118.388 99.7515 117.21 98.4909 116.482C97.2304 115.754 95.1892 115.753 93.9319 116.478C92.6746 117.204 92.6773 118.383 93.9378 119.111Z" fill="white"/>
<path d="M70.1799 125.372C70.8282 125.746 71.8779 125.747 72.5245 125.374C73.1711 125 73.1698 124.394 72.5215 124.02C71.8732 123.646 70.8235 123.645 70.1769 124.018C69.5302 124.392 69.5316 124.998 70.1799 125.372Z" fill="white"/>
<path d="M75.4604 127.745C76.2528 128.203 77.5358 128.204 78.3261 127.747C79.1164 127.291 79.1147 126.55 78.3224 126.093C77.53 125.635 76.247 125.634 75.4567 126.091C74.6664 126.547 74.6681 127.288 75.4604 127.745Z" fill="white"/>
<path d="M82.5632 129.593C83.4635 130.113 84.9215 130.114 85.8196 129.595C86.7176 129.077 86.7158 128.235 85.8154 127.715C84.915 127.195 83.457 127.194 82.5589 127.713C81.6609 128.231 81.6628 129.073 82.5632 129.593Z" fill="white"/>
<path d="M78.5991 133.312C79.6796 133.936 81.4291 133.937 82.5068 133.315C83.5845 132.693 83.5823 131.683 82.5018 131.059C81.4213 130.435 79.6718 130.434 78.5941 131.056C77.5164 131.678 77.5186 132.688 78.5991 133.312Z" fill="white"/>
<path d="M71.1042 130.412C72.0046 130.931 73.4625 130.933 74.3606 130.414C75.2587 129.896 75.2568 129.054 74.3564 128.534C73.456 128.014 71.998 128.013 71.1 128.531C70.2019 129.05 70.2038 129.892 71.1042 130.412Z" fill="white"/>
<path d="M65.6254 127.173C66.4178 127.631 67.7008 127.632 68.4911 127.176C69.2814 126.719 69.2798 125.979 68.4874 125.521C67.6951 125.064 66.4121 125.063 65.6218 125.519C64.8314 125.975 64.8331 126.716 65.6254 127.173Z" fill="white"/>
<path d="M61.2018 129.802C62.1022 130.322 63.5602 130.323 64.4582 129.805C65.3563 129.286 65.3544 128.445 64.454 127.925C63.5536 127.405 62.0957 127.404 61.1976 127.922C60.2995 128.441 60.3014 129.282 61.2018 129.802Z" fill="white"/>
<path d="M67.0083 134.131C68.0888 134.755 69.8383 134.756 70.916 134.134C71.9937 133.512 71.9914 132.502 70.911 131.878C69.8305 131.254 68.0809 131.253 67.0033 131.875C65.9256 132.497 65.9278 133.507 67.0083 134.131Z" fill="white"/>
<path d="M75.6151 138.123C76.8756 138.851 78.9168 138.853 80.1741 138.127C81.4314 137.401 81.4287 136.222 80.1682 135.495C78.9076 134.767 76.8665 134.765 75.6092 135.491C74.3519 136.217 74.3545 137.396 75.6151 138.123Z" fill="white"/>
<path d="M74.5202 144.025C75.9608 144.857 78.2935 144.859 79.7304 144.029C81.1674 143.199 81.1644 141.853 79.7237 141.021C78.2831 140.189 75.9504 140.187 74.5135 141.017C73.0765 141.847 73.0795 143.193 74.5202 144.025Z" fill="white"/>
<path d="M64.1537 138.942C65.4142 139.67 67.4553 139.671 68.7126 138.945C69.9699 138.219 69.9673 137.041 68.7068 136.313C67.4462 135.585 65.4051 135.584 64.1478 136.31C62.8905 137.036 62.8931 138.214 64.1537 138.942Z" fill="white"/>
<path d="M54.3182 138.37C55.5788 139.098 57.6199 139.1 58.8772 138.374C60.1345 137.648 60.1319 136.469 58.8713 135.742C57.6107 135.014 55.5696 135.012 54.3123 135.738C53.055 136.464 53.0576 137.643 54.3182 138.37Z" fill="white"/>
<path d="M53.0934 144.273C54.5341 145.105 56.8668 145.106 58.3037 144.277C59.7406 143.447 59.7376 142.1 58.297 141.269C56.8563 140.437 54.5236 140.435 53.0867 141.265C51.6498 142.094 51.6528 143.441 53.0934 144.273Z" fill="white"/>
<path d="M64.0519 151.802C65.7446 152.779 68.4856 152.781 70.174 151.806C71.8623 150.832 71.8588 149.249 70.1661 148.272C68.4733 147.295 65.7324 147.293 64.044 148.267C62.3556 149.242 62.3591 150.825 64.0519 151.802Z" fill="white"/>
<path d="M62.9294 144.844C64.37 145.676 66.7027 145.678 68.1396 144.848C69.5766 144.019 69.5735 142.672 68.1329 141.84C66.6923 141.008 64.3596 141.007 62.9226 141.836C61.4857 142.666 61.4887 144.013 62.9294 144.844Z" fill="white"/>
<path d="M75.5773 150.946C77.27 151.923 80.011 151.925 81.6993 150.95C83.3877 149.976 83.3842 148.393 81.6914 147.416C79.9987 146.439 77.2578 146.437 75.5694 147.411C73.881 148.386 73.8845 149.969 75.5773 150.946Z" fill="white"/>
<path d="M57.1724 133.56C58.2529 134.184 60.0024 134.185 61.0801 133.563C62.1578 132.94 62.1555 131.93 61.075 131.307C59.9946 130.683 58.245 130.681 57.1673 131.304C56.0896 131.926 56.0919 132.936 57.1724 133.56Z" fill="white"/>
<rect width="47.8181" height="47.8181" transform="matrix(0.866025 0.5 -0.866025 0.5 -14.5884 180.622)" fill="#0101FF"/>
<rect width="36.241" height="36.241" transform="matrix(0.866025 0.5 -0.866025 0.5 -14.5884 228.208)" fill="#14CABF"/>
<rect width="22.5475" height="22.5475" transform="matrix(0.866025 0.5 -0.866025 0.5 70.0791 229.243)" fill="#E73333"/>
<rect width="27.9722" height="12.2667" transform="matrix(0.866025 0.5 -2.20305e-08 1 698.627 97.8463)" fill="#38FFFA"/>
<rect width="77.5399" height="92.0914" transform="matrix(0.866025 0.5 -2.20305e-08 1 689.08 158.51)" fill="url(#paint2_linear_70_3289)"/>
<rect width="77.3649" height="92.8821" transform="matrix(-0.866025 0.5 2.20305e-08 1 823 158.53)" fill="url(#paint3_linear_70_3289)"/>
<rect width="51.1849" height="12.7223" transform="matrix(0.866025 0.5 -2.20305e-08 1 756.398 58.6714)" fill="url(#paint4_linear_70_3289)"/>
<rect width="77.5399" height="77.5399" transform="matrix(0.866025 0.5 -0.866025 0.5 756.152 119.62)" fill="#2559F5"/>
<rect width="51.1849" height="51.1849" transform="matrix(0.866025 0.5 -0.866025 0.5 800.673 33)" fill="#E73333"/>
<path fill-rule="evenodd" clip-rule="evenodd" d="M805.221 61.6027C802.23 63.3295 797.381 63.3295 794.39 61.6027C791.399 59.8759 791.399 57.0762 794.39 55.3494C797.381 53.6226 802.23 53.6226 805.221 55.3494C808.212 57.0762 808.212 59.8759 805.221 61.6027ZM802.513 60.0394C801.018 60.9028 798.593 60.9028 797.097 60.0394C795.602 59.176 795.602 57.7761 797.097 56.9127C798.593 56.0493 801.018 56.0493 802.513 56.9127C804.008 57.7761 804.008 59.176 802.513 60.0394Z" fill="white"/>
<path fill-rule="evenodd" clip-rule="evenodd" d="M818.727 55.0959C818.029 53.5929 815.649 52.5569 812.955 52.583L812.848 52.5841C812.294 52.5895 811.64 52.43 811.042 52.0858C810.452 51.7456 810.18 51.3742 810.19 51.0503L810.192 50.9876C810.237 49.4319 808.442 48.0579 805.839 47.6552L804.163 47.3958C801.559 46.9931 798.815 47.665 797.507 49.0254L797.454 49.0804C797.183 49.3627 796.621 49.6082 795.813 49.7332C795.005 49.8583 794.306 49.8078 793.826 49.6417L793.733 49.6094C791.422 48.8088 788.464 49.0191 786.558 50.1193L785.331 50.8279C783.425 51.9282 783.061 53.6361 784.448 54.9703L784.503 55.024C784.792 55.3018 784.879 55.7018 784.662 56.1669C784.442 56.6375 784.014 56.9643 783.529 57.1197L783.436 57.1495C781.08 57.9048 779.916 59.489 780.614 60.992L781.063 61.9599C781.761 63.4629 784.14 64.4989 786.835 64.4727L786.942 64.4717C787.496 64.4663 788.15 64.6257 788.747 64.9698C789.338 65.31 789.609 65.6814 789.6 66.0052L789.598 66.0678C789.553 67.6236 791.347 68.9976 793.95 69.4003L795.627 69.6596C798.23 70.0624 800.974 69.3905 802.282 68.0301L802.335 67.9754C802.606 67.6929 803.168 67.4474 803.976 67.3224C804.785 67.1973 805.484 67.2478 805.963 67.414L806.056 67.4462C808.367 68.2468 811.326 68.0366 813.231 66.9363L814.459 66.2277C816.364 65.1274 816.729 63.4195 815.342 62.0853L815.286 62.0316C814.997 61.7538 814.911 61.3539 815.128 60.8888C815.347 60.4183 815.775 60.0916 816.26 59.9362L816.353 59.9062C818.71 59.151 819.873 57.5668 819.176 56.0638L818.727 55.0959ZM813.019 54.7936C813.957 54.7845 814.785 55.145 815.028 55.6681L815.477 56.636C815.72 57.1591 815.315 57.7104 814.495 57.9732L814.401 58.0032C812.773 58.5251 811.839 59.437 811.43 60.3138C811.018 61.1973 811.046 62.2492 812.002 63.169L812.058 63.2228C812.541 63.6871 812.414 64.2815 811.751 64.6644L810.524 65.373C809.86 65.7559 808.831 65.829 808.027 65.5504L807.933 65.5181C806.34 64.9661 804.512 64.9506 802.985 65.1868C801.458 65.4231 799.889 65.9641 798.987 66.9023L798.934 66.957C798.479 67.4304 797.524 67.6642 796.618 67.5241L794.941 67.2647C794.035 67.1246 793.411 66.6464 793.427 66.105L793.429 66.0424C793.46 64.9698 792.574 64.0507 791.452 63.4045C790.338 62.7632 788.74 62.243 786.877 62.2611L786.771 62.2622C785.833 62.2713 785.005 61.9107 784.762 61.3877L784.313 60.4197C784.07 59.8967 784.475 59.3454 785.295 59.0825L785.388 59.0527C787.016 58.5308 787.95 57.6188 788.359 56.7419C788.772 55.8583 788.743 54.8064 787.787 53.8865L787.731 53.8328C787.249 53.3685 787.375 52.7741 788.039 52.3912L789.266 51.6827C789.929 51.2998 790.959 51.2266 791.763 51.5052L791.856 51.5375C793.45 52.0895 795.277 52.105 796.804 51.8688C798.331 51.6326 799.901 51.0916 800.803 50.1535L800.855 50.0985C801.311 49.625 802.266 49.3912 803.171 49.5314L804.848 49.7907C805.754 49.9309 806.378 50.409 806.363 50.9505L806.361 51.0131C806.33 52.0858 807.216 53.005 808.338 53.6512C809.452 54.2925 811.05 54.8127 812.912 54.7946L813.019 54.7936Z" fill="white"/>
<rect width="27.9722" height="27.9722" transform="matrix(0.866025 0.5 -0.866025 0.5 722.823 83.8173)" fill="#0F1728"/>
<path fill-rule="evenodd" clip-rule="evenodd" d="M721.364 102.613C719.279 102.462 717.261 101.924 715.66 101C711.834 98.7909 711.834 95.2091 715.66 93C719.487 90.7909 725.69 90.7909 729.517 93C733.343 95.2091 733.343 98.7909 729.517 101C727.916 101.924 725.899 102.462 723.813 102.613L723.813 106C723.813 106.391 723.265 106.707 722.589 106.707C721.912 106.707 721.364 106.391 721.364 106L721.364 102.613ZM727.785 100C724.915 101.657 720.262 101.657 717.392 100C714.523 98.3431 714.523 95.6569 717.392 94C720.262 92.3431 724.915 92.3431 727.785 94C730.655 95.6569 730.655 98.3431 727.785 100Z" fill="white"/>
<rect width="30.0334" height="35.6696" transform="matrix(0.866025 0.5 -2.20305e-08 1 593.031 193.063)" fill="url(#paint5_linear_70_3289)"/>
<rect width="30.0334" height="36.411" transform="matrix(0.866025 -0.5 2.20305e-08 1 619.11 208.083)" fill="url(#paint6_linear_70_3289)"/>
<rect width="30.0334" height="30.0334" transform="matrix(0.866025 0.5 -0.866025 0.5 619.01 178)" fill="#2559F5"/>
<rect width="51.8616" height="61.5942" transform="matrix(0.866025 0.5 -2.20305e-08 1 169.053 198.011)" fill="url(#paint7_linear_70_3289)"/>
<rect width="51.8616" height="61.5942" transform="matrix(0.866025 -0.5 2.20305e-08 1 214.086 223.948)" fill="url(#paint8_linear_70_3289)"/>
<rect width="51.8616" height="51.8616" transform="matrix(0.866025 0.5 -0.866025 0.5 213.914 172)" fill="#1D283A"/>
<rect width="22.4734" height="39.8803" transform="matrix(0.866025 0.5 -2.20305e-08 1 670.023 222.271)" fill="url(#paint9_linear_70_3289)"/>
<rect width="22.4734" height="42.9495" transform="matrix(0.866025 -0.5 2.20305e-08 1 689.537 233.511)" fill="url(#paint10_linear_70_3289)"/>
<rect width="22.4734" height="22.4734" transform="matrix(0.866025 0.5 -0.866025 0.5 689.462 211)" fill="#1D283A"/>
<path opacity="0.5" d="M755.561 145.995L774.614 156.995L771.15 158.995L752.097 147.995L755.561 145.995ZM748.633 149.995L767.686 160.995L764.222 162.995L745.169 151.995L748.633 149.995ZM741.705 153.995L760.757 164.995L757.293 166.995L738.241 155.995L741.705 153.995Z" fill="white"/>
<path d="M773.663 142.044C775.532 142.334 777.236 142.902 778.604 143.691C779.972 144.481 780.956 145.465 781.457 146.544L786.722 157.888C787.223 158.967 787.223 160.103 786.722 161.182C786.221 162.261 785.237 163.245 783.869 164.035L769.486 172.339C768.118 173.129 766.414 173.697 764.545 173.986C762.676 174.275 760.708 174.275 758.839 173.986L739.192 170.946C737.323 170.657 735.618 170.089 734.25 169.299C732.882 168.509 731.898 167.525 731.397 166.446L726.133 155.103C725.632 154.024 725.632 152.888 726.133 151.809C726.634 150.73 727.617 149.746 728.986 148.956L743.368 140.652C744.737 139.862 746.441 139.294 748.31 139.005C750.179 138.716 752.147 138.716 754.015 139.005L773.663 142.044Z" stroke="white" stroke-width="5"/>
</g>
<defs>
<linearGradient id="paint0_linear_70_3289" x1="60.2235" y1="0" x2="60.2235" y2="48.1788" gradientUnits="userSpaceOnUse">
<stop stop-color="#1D283A"/>
<stop offset="1" stop-color="#0F1729" stop-opacity="0"/>
</linearGradient>
<linearGradient id="paint1_linear_70_3289" x1="60.2235" y1="0" x2="60.2235" y2="96.5112" gradientUnits="userSpaceOnUse">
<stop stop-color="#0101AB"/>
<stop offset="1" stop-color="#0101FF" stop-opacity="0"/>
</linearGradient>
<linearGradient id="paint2_linear_70_3289" x1="38.7699" y1="0" x2="38.7699" y2="92.0914" gradientUnits="userSpaceOnUse">
<stop stop-color="#0F1729"/>
<stop offset="1" stop-color="#0F1729" stop-opacity="0"/>
</linearGradient>
<linearGradient id="paint3_linear_70_3289" x1="38.6825" y1="0" x2="38.6825" y2="92.8821" gradientUnits="userSpaceOnUse">
<stop stop-color="#0101F5"/>
<stop offset="1" stop-color="#000069"/>
</linearGradient>
<linearGradient id="paint4_linear_70_3289" x1="25.5925" y1="0" x2="25.5925" y2="20.0324" gradientUnits="userSpaceOnUse">
<stop stop-color="#1D283A"/>
<stop offset="1"/>
</linearGradient>
<linearGradient id="paint5_linear_70_3289" x1="15.0167" y1="0" x2="15.0167" y2="35.6696" gradientUnits="userSpaceOnUse">
<stop stop-color="#0F1728"/>
<stop offset="1"/>
</linearGradient>
<linearGradient id="paint6_linear_70_3289" x1="15.0167" y1="0" x2="15.0167" y2="36.411" gradientUnits="userSpaceOnUse">
<stop stop-color="#0101F5"/>
<stop offset="1"/>
</linearGradient>
<linearGradient id="paint7_linear_70_3289" x1="25.9308" y1="0" x2="25.9308" y2="61.5942" gradientUnits="userSpaceOnUse">
<stop stop-color="#0F1729"/>
<stop offset="1" stop-color="#0F1729" stop-opacity="0"/>
</linearGradient>
<linearGradient id="paint8_linear_70_3289" x1="25.9308" y1="0" x2="25.9308" y2="61.5942" gradientUnits="userSpaceOnUse">
<stop stop-color="#0101F5"/>
<stop offset="1" stop-color="#000069"/>
</linearGradient>
<linearGradient id="paint9_linear_70_3289" x1="11.2367" y1="0" x2="11.2367" y2="39.8803" gradientUnits="userSpaceOnUse">
<stop stop-color="#0F1729"/>
<stop offset="1" stop-color="#0F1729" stop-opacity="0"/>
</linearGradient>
<linearGradient id="paint10_linear_70_3289" x1="11.2367" y1="0" x2="11.2367" y2="42.9495" gradientUnits="userSpaceOnUse">
<stop stop-color="#0101F5"/>
<stop offset="1" stop-color="#000069"/>
</linearGradient>
<clipPath id="clip0_70_3289">
<rect width="830" height="250" fill="white"/>
</clipPath>
</defs>
</svg>
