<svg width="862" height="200" viewBox="0 0 862 200" fill="none" xmlns="http://www.w3.org/2000/svg">
<g clip-path="url(#clip0_859_5372)">
<rect width="862" height="200" fill="#40A1AC"/>
<path d="M0 0H862V200H0V0Z" fill="#111F3B"/>
<g opacity="0.2" filter="url(#filter0_d_859_5372)">
<path d="M237.473 145.042C240.996 139 250.004 134.867 261.104 134.199L314.849 130.967C325.948 130.299 337.453 133.199 345.029 138.573L381.714 164.597C389.29 169.972 391.786 177.005 388.263 183.047L371.202 212.304C367.679 218.346 358.671 222.479 347.571 223.147L293.826 226.379C282.727 227.047 271.222 224.147 263.646 218.773L226.961 192.749C219.385 187.374 216.889 180.341 220.412 174.299L237.473 145.042Z" fill="url(#paint0_radial_859_5372)"/>
</g>
<g opacity="0.2" filter="url(#filter1_d_859_5372)">
<path d="M204.473 46.0424C207.996 40.0003 217.004 35.8669 228.104 35.1993L281.849 31.9667C292.948 31.2991 304.453 34.1987 312.029 39.5732L348.714 65.5973C356.29 70.9718 358.786 78.0048 355.263 84.0469L338.202 113.304C334.679 119.346 325.671 123.479 314.571 124.147L260.826 127.379C249.727 128.047 238.222 125.147 230.646 119.773L193.961 93.7487C186.385 88.3742 183.889 81.3412 187.412 75.2991L204.473 46.0424Z" fill="url(#paint1_radial_859_5372)"/>
</g>
<g opacity="0.2" filter="url(#filter2_d_859_5372)">
<path d="M45.4726 5.04243C48.996 -0.999715 58.0041 -5.13309 69.1037 -5.80069L122.849 -9.03329C133.948 -9.7009 145.453 -6.80131 153.029 -1.42677L189.714 24.5973C197.29 29.9718 199.786 37.0048 196.263 43.0469L179.202 72.3035C175.679 78.3457 166.671 82.4791 155.571 83.1467L101.826 86.3793C90.7267 87.0469 79.222 84.1473 71.6458 78.7727L34.9613 52.7487C27.3852 47.3742 24.8886 40.3412 28.412 34.2991L45.4726 5.04243Z" fill="url(#paint2_radial_859_5372)"/>
</g>
<g opacity="0.2" filter="url(#filter3_d_859_5372)">
<path d="M78.4726 104.042C81.996 98.0003 91.0041 93.8669 102.104 93.1993L155.849 89.9667C166.948 89.2991 178.453 92.1987 186.029 97.5732L222.714 123.597C230.29 128.972 232.786 136.005 229.263 142.047L212.202 171.304C208.679 177.346 199.671 181.479 188.571 182.147L134.826 185.379C123.727 186.047 112.222 183.147 104.646 177.773L67.9613 151.749C60.3852 146.374 57.8886 139.341 61.412 133.299L78.4726 104.042Z" fill="url(#paint3_radial_859_5372)"/>
</g>
<g opacity="0.2" filter="url(#filter4_d_859_5372)">
<path d="M397.473 191.042C400.996 185 410.004 180.867 421.104 180.199L474.849 176.967C485.948 176.299 497.453 179.199 505.029 184.573L541.714 210.597C549.29 215.972 551.786 223.005 548.263 229.047L531.202 258.304C527.679 264.346 518.671 268.479 507.571 269.147L453.826 272.379C442.727 273.047 431.222 270.147 423.646 264.773L386.961 238.749C379.385 233.374 376.889 226.341 380.412 220.299L397.473 191.042Z" fill="url(#paint4_radial_859_5372)"/>
</g>
<g opacity="0.2" filter="url(#filter5_d_859_5372)">
<path d="M523.473 129.042C526.996 123 536.004 118.867 547.104 118.199L600.849 114.967C611.948 114.299 623.453 117.199 631.029 122.573L667.714 148.597C675.29 153.972 677.786 161.005 674.263 167.047L657.202 196.304C653.679 202.346 644.671 206.479 633.571 207.147L579.826 210.379C568.727 211.047 557.222 208.147 549.646 202.773L512.961 176.749C505.385 171.374 502.889 164.341 506.412 158.299L523.473 129.042Z" fill="url(#paint5_radial_859_5372)"/>
</g>
<g opacity="0.2" filter="url(#filter6_d_859_5372)">
<path d="M648.473 71.0424C651.996 65.0003 661.004 60.8669 672.104 60.1993L725.849 56.9667C736.948 56.2991 748.453 59.1987 756.029 64.5732L792.714 90.5973C800.29 95.9718 802.786 103.005 799.263 109.047L782.202 138.304C778.679 144.346 769.671 148.479 758.571 149.147L704.826 152.379C693.727 153.047 682.222 150.147 674.646 144.773L637.961 118.749C630.385 113.374 627.889 106.341 631.412 100.299L648.473 71.0424Z" fill="url(#paint6_radial_859_5372)"/>
</g>
<g opacity="0.2" filter="url(#filter7_d_859_5372)">
<path d="M491.473 30.0424C494.996 24.0003 504.004 19.8669 515.104 19.1993L568.849 15.9667C579.948 15.2991 591.453 18.1987 599.029 23.5732L635.714 49.5973C643.29 54.9718 645.786 62.0048 642.263 68.0469L625.202 97.3035C621.679 103.346 612.671 107.479 601.571 108.147L547.826 111.379C536.727 112.047 525.222 109.147 517.646 103.773L480.961 77.7487C473.385 72.3742 470.889 65.3412 474.412 59.2991L491.473 30.0424Z" fill="url(#paint7_radial_859_5372)"/>
</g>
<g opacity="0.2" filter="url(#filter8_d_859_5372)">
<path d="M333.473 -8.95757C336.996 -14.9997 346.004 -19.1331 357.104 -19.8007L410.849 -23.0333C421.948 -23.7009 433.453 -20.8013 441.029 -15.4268L477.714 10.5973C485.29 15.9718 487.786 23.0048 484.263 29.0469L467.202 58.3035C463.679 64.3457 454.671 68.4791 443.571 69.1467L389.826 72.3793C378.727 73.0469 367.222 70.1473 359.646 64.7727L322.961 38.7487C315.385 33.3742 312.889 26.3412 316.412 20.2991L333.473 -8.95757Z" fill="url(#paint8_radial_859_5372)"/>
</g>
<g opacity="0.2" filter="url(#filter9_d_859_5372)">
<path d="M774.473 15.0424C777.996 9.00029 787.004 4.86691 798.104 4.19931L851.849 0.966706C862.948 0.299099 874.453 3.19869 882.029 8.57323L918.714 34.5973C926.29 39.9718 928.786 47.0048 925.263 53.0469L908.202 82.3035C904.679 88.3457 895.671 92.4791 884.571 93.1467L830.826 96.3793C819.727 97.0469 808.222 94.1473 800.646 88.7727L763.961 62.7487C756.385 57.3742 753.889 50.3412 757.412 44.2991L774.473 15.0424Z" fill="url(#paint9_radial_859_5372)"/>
</g>
<g opacity="0.2" filter="url(#filter10_d_859_5372)">
<path d="M681.473 171.042C684.996 165 694.004 160.867 705.104 160.199L758.849 156.967C769.948 156.299 781.453 159.199 789.029 164.573L825.714 190.597C833.29 195.972 835.786 203.005 832.263 209.047L815.202 238.304C811.679 244.346 802.671 248.479 791.571 249.147L737.826 252.379C726.727 253.047 715.222 250.147 707.646 244.773L670.961 218.749C663.385 213.374 660.889 206.341 664.412 200.299L681.473 171.042Z" fill="url(#paint10_radial_859_5372)"/>
</g>
<g opacity="0.3" filter="url(#filter11_f_859_5372)">
<path d="M357.411 82.3294C359.172 79.3084 363.677 77.2417 369.226 76.9079L453.01 71.8685C458.56 71.5347 464.312 72.9845 468.1 75.6718L525.288 116.241C529.076 118.928 530.324 122.445 528.563 125.466L501.967 171.074C500.205 174.095 495.701 176.162 490.151 176.496L406.367 181.535C400.818 181.869 395.065 180.419 391.277 177.732L334.09 137.163C330.301 134.475 329.053 130.959 330.815 127.938L357.411 82.3294Z" stroke="#0FC1B7" stroke-width="26" stroke-linecap="round"/>
</g>
<g opacity="0.36">
<path d="M361.754 90.2626C365.277 84.2205 374.285 80.0871 385.385 79.4195L439.13 76.1869C450.229 75.5193 461.734 78.4189 469.31 83.7934L505.995 109.817C513.571 115.192 516.068 122.225 512.544 128.267L495.484 157.524C491.96 163.566 482.952 167.699 471.852 168.367L418.107 171.599C407.008 172.267 395.503 169.367 387.927 163.993L351.242 137.969C343.666 132.594 341.17 125.561 344.693 119.519L361.754 90.2626Z" fill="#111F3B"/>
<path d="M362.915 90.5552C366.302 84.7454 374.964 80.771 385.637 80.1291L439.382 76.8965C450.054 76.2546 461.117 79.0427 468.401 84.2105L505.086 110.235C512.371 115.402 514.771 122.165 511.383 127.975L494.323 157.231C490.935 163.041 482.273 167.015 471.601 167.657L417.855 170.89C407.183 171.532 396.121 168.744 388.836 163.576L352.151 137.552C344.867 132.384 342.466 125.622 345.854 119.812L362.915 90.5552Z" stroke="url(#paint11_linear_859_5372)" stroke-opacity="0.3" stroke-width="2" stroke-linecap="round"/>
</g>
<path d="M365.733 66.806C369.054 61.1124 377.542 57.2175 388.001 56.5884L441.746 53.3558C452.205 52.7267 463.046 55.459 470.186 60.5235L506.87 86.5475C514.009 91.612 516.362 98.2392 513.041 103.933L495.981 133.189C492.661 138.883 484.172 142.778 473.713 143.407L419.968 146.64C409.509 147.269 398.668 144.536 391.529 139.472L354.844 113.448C347.705 108.383 345.353 101.756 348.673 96.0626L365.733 66.806Z" fill="url(#paint12_radial_859_5372)" stroke="#0FC1B7" stroke-width="3"/>
<g filter="url(#filter12_d_859_5372)">
<path d="M368.065 41.9149C371.385 36.2213 379.874 32.3264 390.333 31.6973L444.078 28.4647C454.537 27.8356 465.378 30.5679 472.517 35.6324L509.202 61.6564C516.341 66.7209 518.693 73.3481 515.373 79.0417L498.313 108.298C494.993 113.992 486.504 117.887 476.045 118.516L422.3 121.748C411.841 122.378 401 119.645 393.861 114.581L357.176 88.5567C350.037 83.4923 347.685 76.8651 351.005 71.1715L368.065 41.9149Z" fill="#D7E1F4" stroke="#D7E1F4" stroke-width="3"/>
</g>
<rect x="0.5" y="0.5" width="861" height="199" fill="url(#paint13_radial_859_5372)" stroke="#293856"/>
<path fill-rule="evenodd" clip-rule="evenodd" d="M861 1H1V199H861V1ZM0 0V200H862V0H0Z" fill="#293858"/>
<g filter="url(#filter13_d_859_5372)">
<path opacity="0.7" d="M364.927 42.3141C368.378 36.2363 377.285 31.9349 388.321 31.0163L440.551 26.6693C451.668 25.7439 463.255 28.3922 470.928 33.6122L511.273 61.0617C516.868 64.8683 519.84 69.6832 519.553 74.4767L516.65 123.005C516.551 124.66 516.064 126.283 515.203 127.829L497.832 159.027C494.252 165.456 484.602 169.896 472.84 170.525L416.343 173.546C405.281 174.137 394.046 171.264 386.778 165.984L348.435 138.128C343.03 134.201 340.342 129.314 340.951 124.521L347.224 75.1757C347.408 73.7301 347.889 72.3158 348.657 70.9624L364.927 42.3141Z" fill="url(#paint14_linear_859_5372)"/>
</g>
<path d="M359.5 83H242L208 49" stroke="#D7E1F4" stroke-width="2" stroke-linecap="round" stroke-linejoin="round" stroke-dasharray="5 5"/>
<path d="M500 127H617.5" stroke="#0FBEB5" stroke-width="2" stroke-linecap="round" stroke-linejoin="round" stroke-dasharray="5 5"/>
<path d="M654 126.5C654 136.191 646.363 144 637 144C627.637 144 620 136.191 620 126.5C620 116.809 627.637 109 637 109C646.363 109 654 116.809 654 126.5Z" fill="#111F3B" stroke="#31C2BE" stroke-width="2"/>
<path d="M222 45.5C222 53.5393 215.701 60 208 60C200.299 60 194 53.5393 194 45.5C194 37.4607 200.299 31 208 31C215.701 31 222 37.4607 222 45.5Z" fill="#111F3B" stroke="#D7E1F4" stroke-width="2"/>
</g>
<defs>
<filter id="filter0_d_859_5372" x="194.841" y="110.872" width="218.993" height="143.602" filterUnits="userSpaceOnUse" color-interpolation-filters="sRGB">
<feFlood flood-opacity="0" result="BackgroundImageFix"/>
<feColorMatrix in="SourceAlpha" type="matrix" values="0 0 0 0 0 0 0 0 0 0 0 0 0 0 0 0 0 0 127 0" result="hardAlpha"/>
<feOffset dy="4"/>
<feGaussianBlur stdDeviation="12"/>
<feComposite in2="hardAlpha" operator="out"/>
<feColorMatrix type="matrix" values="0 0 0 0 0.0666667 0 0 0 0 0.121569 0 0 0 0 0.231373 0 0 0 1 0"/>
<feBlend mode="normal" in2="BackgroundImageFix" result="effect1_dropShadow_859_5372"/>
<feBlend mode="normal" in="SourceGraphic" in2="effect1_dropShadow_859_5372" result="shape"/>
</filter>
<filter id="filter1_d_859_5372" x="161.841" y="11.8721" width="218.993" height="143.602" filterUnits="userSpaceOnUse" color-interpolation-filters="sRGB">
<feFlood flood-opacity="0" result="BackgroundImageFix"/>
<feColorMatrix in="SourceAlpha" type="matrix" values="0 0 0 0 0 0 0 0 0 0 0 0 0 0 0 0 0 0 127 0" result="hardAlpha"/>
<feOffset dy="4"/>
<feGaussianBlur stdDeviation="12"/>
<feComposite in2="hardAlpha" operator="out"/>
<feColorMatrix type="matrix" values="0 0 0 0 0.0666667 0 0 0 0 0.121569 0 0 0 0 0.231373 0 0 0 1 0"/>
<feBlend mode="normal" in2="BackgroundImageFix" result="effect1_dropShadow_859_5372"/>
<feBlend mode="normal" in="SourceGraphic" in2="effect1_dropShadow_859_5372" result="shape"/>
</filter>
<filter id="filter2_d_859_5372" x="2.84094" y="-29.1279" width="218.993" height="143.602" filterUnits="userSpaceOnUse" color-interpolation-filters="sRGB">
<feFlood flood-opacity="0" result="BackgroundImageFix"/>
<feColorMatrix in="SourceAlpha" type="matrix" values="0 0 0 0 0 0 0 0 0 0 0 0 0 0 0 0 0 0 127 0" result="hardAlpha"/>
<feOffset dy="4"/>
<feGaussianBlur stdDeviation="12"/>
<feComposite in2="hardAlpha" operator="out"/>
<feColorMatrix type="matrix" values="0 0 0 0 0.0666667 0 0 0 0 0.121569 0 0 0 0 0.231373 0 0 0 1 0"/>
<feBlend mode="normal" in2="BackgroundImageFix" result="effect1_dropShadow_859_5372"/>
<feBlend mode="normal" in="SourceGraphic" in2="effect1_dropShadow_859_5372" result="shape"/>
</filter>
<filter id="filter3_d_859_5372" x="35.8409" y="69.8721" width="218.993" height="143.602" filterUnits="userSpaceOnUse" color-interpolation-filters="sRGB">
<feFlood flood-opacity="0" result="BackgroundImageFix"/>
<feColorMatrix in="SourceAlpha" type="matrix" values="0 0 0 0 0 0 0 0 0 0 0 0 0 0 0 0 0 0 127 0" result="hardAlpha"/>
<feOffset dy="4"/>
<feGaussianBlur stdDeviation="12"/>
<feComposite in2="hardAlpha" operator="out"/>
<feColorMatrix type="matrix" values="0 0 0 0 0.0666667 0 0 0 0 0.121569 0 0 0 0 0.231373 0 0 0 1 0"/>
<feBlend mode="normal" in2="BackgroundImageFix" result="effect1_dropShadow_859_5372"/>
<feBlend mode="normal" in="SourceGraphic" in2="effect1_dropShadow_859_5372" result="shape"/>
</filter>
<filter id="filter4_d_859_5372" x="354.841" y="156.872" width="218.993" height="143.602" filterUnits="userSpaceOnUse" color-interpolation-filters="sRGB">
<feFlood flood-opacity="0" result="BackgroundImageFix"/>
<feColorMatrix in="SourceAlpha" type="matrix" values="0 0 0 0 0 0 0 0 0 0 0 0 0 0 0 0 0 0 127 0" result="hardAlpha"/>
<feOffset dy="4"/>
<feGaussianBlur stdDeviation="12"/>
<feComposite in2="hardAlpha" operator="out"/>
<feColorMatrix type="matrix" values="0 0 0 0 0.0666667 0 0 0 0 0.121569 0 0 0 0 0.231373 0 0 0 1 0"/>
<feBlend mode="normal" in2="BackgroundImageFix" result="effect1_dropShadow_859_5372"/>
<feBlend mode="normal" in="SourceGraphic" in2="effect1_dropShadow_859_5372" result="shape"/>
</filter>
<filter id="filter5_d_859_5372" x="480.841" y="94.8721" width="218.993" height="143.602" filterUnits="userSpaceOnUse" color-interpolation-filters="sRGB">
<feFlood flood-opacity="0" result="BackgroundImageFix"/>
<feColorMatrix in="SourceAlpha" type="matrix" values="0 0 0 0 0 0 0 0 0 0 0 0 0 0 0 0 0 0 127 0" result="hardAlpha"/>
<feOffset dy="4"/>
<feGaussianBlur stdDeviation="12"/>
<feComposite in2="hardAlpha" operator="out"/>
<feColorMatrix type="matrix" values="0 0 0 0 0.0666667 0 0 0 0 0.121569 0 0 0 0 0.231373 0 0 0 1 0"/>
<feBlend mode="normal" in2="BackgroundImageFix" result="effect1_dropShadow_859_5372"/>
<feBlend mode="normal" in="SourceGraphic" in2="effect1_dropShadow_859_5372" result="shape"/>
</filter>
<filter id="filter6_d_859_5372" x="605.841" y="36.8721" width="218.993" height="143.602" filterUnits="userSpaceOnUse" color-interpolation-filters="sRGB">
<feFlood flood-opacity="0" result="BackgroundImageFix"/>
<feColorMatrix in="SourceAlpha" type="matrix" values="0 0 0 0 0 0 0 0 0 0 0 0 0 0 0 0 0 0 127 0" result="hardAlpha"/>
<feOffset dy="4"/>
<feGaussianBlur stdDeviation="12"/>
<feComposite in2="hardAlpha" operator="out"/>
<feColorMatrix type="matrix" values="0 0 0 0 0.0666667 0 0 0 0 0.121569 0 0 0 0 0.231373 0 0 0 1 0"/>
<feBlend mode="normal" in2="BackgroundImageFix" result="effect1_dropShadow_859_5372"/>
<feBlend mode="normal" in="SourceGraphic" in2="effect1_dropShadow_859_5372" result="shape"/>
</filter>
<filter id="filter7_d_859_5372" x="448.841" y="-4.12793" width="218.993" height="143.602" filterUnits="userSpaceOnUse" color-interpolation-filters="sRGB">
<feFlood flood-opacity="0" result="BackgroundImageFix"/>
<feColorMatrix in="SourceAlpha" type="matrix" values="0 0 0 0 0 0 0 0 0 0 0 0 0 0 0 0 0 0 127 0" result="hardAlpha"/>
<feOffset dy="4"/>
<feGaussianBlur stdDeviation="12"/>
<feComposite in2="hardAlpha" operator="out"/>
<feColorMatrix type="matrix" values="0 0 0 0 0.0666667 0 0 0 0 0.121569 0 0 0 0 0.231373 0 0 0 1 0"/>
<feBlend mode="normal" in2="BackgroundImageFix" result="effect1_dropShadow_859_5372"/>
<feBlend mode="normal" in="SourceGraphic" in2="effect1_dropShadow_859_5372" result="shape"/>
</filter>
<filter id="filter8_d_859_5372" x="290.841" y="-43.1279" width="218.993" height="143.602" filterUnits="userSpaceOnUse" color-interpolation-filters="sRGB">
<feFlood flood-opacity="0" result="BackgroundImageFix"/>
<feColorMatrix in="SourceAlpha" type="matrix" values="0 0 0 0 0 0 0 0 0 0 0 0 0 0 0 0 0 0 127 0" result="hardAlpha"/>
<feOffset dy="4"/>
<feGaussianBlur stdDeviation="12"/>
<feComposite in2="hardAlpha" operator="out"/>
<feColorMatrix type="matrix" values="0 0 0 0 0.0666667 0 0 0 0 0.121569 0 0 0 0 0.231373 0 0 0 1 0"/>
<feBlend mode="normal" in2="BackgroundImageFix" result="effect1_dropShadow_859_5372"/>
<feBlend mode="normal" in="SourceGraphic" in2="effect1_dropShadow_859_5372" result="shape"/>
</filter>
<filter id="filter9_d_859_5372" x="731.841" y="-19.1279" width="218.993" height="143.602" filterUnits="userSpaceOnUse" color-interpolation-filters="sRGB">
<feFlood flood-opacity="0" result="BackgroundImageFix"/>
<feColorMatrix in="SourceAlpha" type="matrix" values="0 0 0 0 0 0 0 0 0 0 0 0 0 0 0 0 0 0 127 0" result="hardAlpha"/>
<feOffset dy="4"/>
<feGaussianBlur stdDeviation="12"/>
<feComposite in2="hardAlpha" operator="out"/>
<feColorMatrix type="matrix" values="0 0 0 0 0.0666667 0 0 0 0 0.121569 0 0 0 0 0.231373 0 0 0 1 0"/>
<feBlend mode="normal" in2="BackgroundImageFix" result="effect1_dropShadow_859_5372"/>
<feBlend mode="normal" in="SourceGraphic" in2="effect1_dropShadow_859_5372" result="shape"/>
</filter>
<filter id="filter10_d_859_5372" x="638.841" y="136.872" width="218.993" height="143.602" filterUnits="userSpaceOnUse" color-interpolation-filters="sRGB">
<feFlood flood-opacity="0" result="BackgroundImageFix"/>
<feColorMatrix in="SourceAlpha" type="matrix" values="0 0 0 0 0 0 0 0 0 0 0 0 0 0 0 0 0 0 127 0" result="hardAlpha"/>
<feOffset dy="4"/>
<feGaussianBlur stdDeviation="12"/>
<feComposite in2="hardAlpha" operator="out"/>
<feColorMatrix type="matrix" values="0 0 0 0 0.0666667 0 0 0 0 0.121569 0 0 0 0 0.231373 0 0 0 1 0"/>
<feBlend mode="normal" in2="BackgroundImageFix" result="effect1_dropShadow_859_5372"/>
<feBlend mode="normal" in="SourceGraphic" in2="effect1_dropShadow_859_5372" result="shape"/>
</filter>
<filter id="filter11_f_859_5372" x="269.154" y="17.5491" width="321.07" height="218.305" filterUnits="userSpaceOnUse" color-interpolation-filters="sRGB">
<feFlood flood-opacity="0" result="BackgroundImageFix"/>
<feBlend mode="normal" in="SourceGraphic" in2="BackgroundImageFix" result="shape"/>
<feGaussianBlur stdDeviation="22.5" result="effect1_foregroundBlur_859_5372"/>
</filter>
<filter id="filter12_d_859_5372" x="323.692" y="7.30566" width="218.993" height="143.602" filterUnits="userSpaceOnUse" color-interpolation-filters="sRGB">
<feFlood flood-opacity="0" result="BackgroundImageFix"/>
<feColorMatrix in="SourceAlpha" type="matrix" values="0 0 0 0 0 0 0 0 0 0 0 0 0 0 0 0 0 0 127 0" result="hardAlpha"/>
<feOffset dy="4"/>
<feGaussianBlur stdDeviation="12"/>
<feComposite in2="hardAlpha" operator="out"/>
<feColorMatrix type="matrix" values="0 0 0 0 0.0666667 0 0 0 0 0.121569 0 0 0 0 0.231373 0 0 0 1 0"/>
<feBlend mode="normal" in2="BackgroundImageFix" result="effect1_dropShadow_859_5372"/>
<feBlend mode="normal" in="SourceGraphic" in2="effect1_dropShadow_859_5372" result="shape"/>
</filter>
<filter id="filter13_d_859_5372" x="316.866" y="6.4873" width="226.706" height="195.135" filterUnits="userSpaceOnUse" color-interpolation-filters="sRGB">
<feFlood flood-opacity="0" result="BackgroundImageFix"/>
<feColorMatrix in="SourceAlpha" type="matrix" values="0 0 0 0 0 0 0 0 0 0 0 0 0 0 0 0 0 0 127 0" result="hardAlpha"/>
<feOffset dy="4"/>
<feGaussianBlur stdDeviation="12"/>
<feComposite in2="hardAlpha" operator="out"/>
<feColorMatrix type="matrix" values="0 0 0 0 0.0666667 0 0 0 0 0.121569 0 0 0 0 0.231373 0 0 0 1 0"/>
<feBlend mode="normal" in2="BackgroundImageFix" result="effect1_dropShadow_859_5372"/>
<feBlend mode="normal" in="SourceGraphic" in2="effect1_dropShadow_859_5372" result="shape"/>
</filter>
<radialGradient id="paint0_radial_859_5372" cx="0" cy="0" r="1" gradientUnits="userSpaceOnUse" gradientTransform="translate(304.338 178.673) rotate(34.302) scale(107.935 93.4741)">
<stop offset="0.236935" stop-color="#D7E1F4"/>
<stop offset="1" stop-color="#D7E1F4" stop-opacity="0"/>
</radialGradient>
<radialGradient id="paint1_radial_859_5372" cx="0" cy="0" r="1" gradientUnits="userSpaceOnUse" gradientTransform="translate(271.338 79.673) rotate(34.302) scale(107.935 93.4741)">
<stop offset="0.236935" stop-color="#D7E1F4"/>
<stop offset="1" stop-color="#D7E1F4" stop-opacity="0"/>
</radialGradient>
<radialGradient id="paint2_radial_859_5372" cx="0" cy="0" r="1" gradientUnits="userSpaceOnUse" gradientTransform="translate(112.338 38.673) rotate(34.302) scale(107.935 93.4741)">
<stop offset="0.236935" stop-color="#D7E1F4"/>
<stop offset="1" stop-color="#D7E1F4" stop-opacity="0"/>
</radialGradient>
<radialGradient id="paint3_radial_859_5372" cx="0" cy="0" r="1" gradientUnits="userSpaceOnUse" gradientTransform="translate(145.338 137.673) rotate(34.302) scale(107.935 93.4741)">
<stop offset="0.236935" stop-color="#D7E1F4"/>
<stop offset="1" stop-color="#D7E1F4" stop-opacity="0"/>
</radialGradient>
<radialGradient id="paint4_radial_859_5372" cx="0" cy="0" r="1" gradientUnits="userSpaceOnUse" gradientTransform="translate(464.338 224.673) rotate(34.302) scale(107.935 93.4741)">
<stop offset="0.236935" stop-color="#D7E1F4"/>
<stop offset="1" stop-color="#D7E1F4" stop-opacity="0"/>
</radialGradient>
<radialGradient id="paint5_radial_859_5372" cx="0" cy="0" r="1" gradientUnits="userSpaceOnUse" gradientTransform="translate(590.338 162.673) rotate(34.302) scale(107.935 93.4741)">
<stop offset="0.236935" stop-color="#D7E1F4"/>
<stop offset="1" stop-color="#D7E1F4" stop-opacity="0"/>
</radialGradient>
<radialGradient id="paint6_radial_859_5372" cx="0" cy="0" r="1" gradientUnits="userSpaceOnUse" gradientTransform="translate(715.338 104.673) rotate(34.302) scale(107.935 93.4741)">
<stop offset="0.236935" stop-color="#D7E1F4"/>
<stop offset="1" stop-color="#D7E1F4" stop-opacity="0"/>
</radialGradient>
<radialGradient id="paint7_radial_859_5372" cx="0" cy="0" r="1" gradientUnits="userSpaceOnUse" gradientTransform="translate(558.338 63.673) rotate(34.302) scale(107.935 93.4741)">
<stop offset="0.236935" stop-color="#D7E1F4"/>
<stop offset="1" stop-color="#D7E1F4" stop-opacity="0"/>
</radialGradient>
<radialGradient id="paint8_radial_859_5372" cx="0" cy="0" r="1" gradientUnits="userSpaceOnUse" gradientTransform="translate(400.338 24.673) rotate(34.302) scale(107.935 93.4741)">
<stop offset="0.236935" stop-color="#D7E1F4"/>
<stop offset="1" stop-color="#D7E1F4" stop-opacity="0"/>
</radialGradient>
<radialGradient id="paint9_radial_859_5372" cx="0" cy="0" r="1" gradientUnits="userSpaceOnUse" gradientTransform="translate(841.338 48.673) rotate(34.302) scale(107.935 93.4741)">
<stop offset="0.236935" stop-color="#D7E1F4"/>
<stop offset="1" stop-color="#D7E1F4" stop-opacity="0"/>
</radialGradient>
<radialGradient id="paint10_radial_859_5372" cx="0" cy="0" r="1" gradientUnits="userSpaceOnUse" gradientTransform="translate(748.338 204.673) rotate(34.302) scale(107.935 93.4741)">
<stop offset="0.236935" stop-color="#D7E1F4"/>
<stop offset="1" stop-color="#D7E1F4" stop-opacity="0"/>
</radialGradient>
<linearGradient id="paint11_linear_859_5372" x1="367.448" y1="80.4984" x2="421.623" y2="198.566" gradientUnits="userSpaceOnUse">
<stop stop-color="#0FC1B7"/>
<stop offset="1" stop-color="#D7E1F4" stop-opacity="0"/>
</linearGradient>
<radialGradient id="paint12_radial_859_5372" cx="0" cy="0" r="1" gradientUnits="userSpaceOnUse" gradientTransform="translate(430.857 99.9977) rotate(35.352) scale(75 64.9519)">
<stop offset="0.37094" stop-color="#0FC1B7" stop-opacity="0"/>
<stop offset="0.860777" stop-color="#0FC1B7"/>
</radialGradient>
<radialGradient id="paint13_radial_859_5372" cx="0" cy="0" r="1" gradientUnits="userSpaceOnUse" gradientTransform="translate(431 100) rotate(90) scale(100 431)">
<stop offset="0.514152" stop-color="#111F3B" stop-opacity="0"/>
<stop offset="1" stop-color="#111F3B"/>
</radialGradient>
<linearGradient id="paint14_linear_859_5372" x1="445" y1="31.5" x2="376.179" y2="108.266" gradientUnits="userSpaceOnUse">
<stop stop-color="#0FC1B7"/>
<stop offset="1" stop-color="#D7E1F4" stop-opacity="0"/>
</linearGradient>
<clipPath id="clip0_859_5372">
<rect width="862" height="200" fill="white"/>
</clipPath>
</defs>
</svg>
