<svg xmlns="http://www.w3.org/2000/svg" viewBox="0 0 48 48">
  <path d="M33.352 41.984v-.539c0-3.89.02-7.78-.012-11.672-.008-.984-.09-1.98-.274-2.945-.355-1.89-1.414-2.777-3.261-2.867-1.192-.055-2.301.187-3.16 1.125-.73.797-1.047 1.8-1.157 2.871a25.416 25.416 0 0 0-.125 2.441c-.011 3.704-.004 7.407-.004 11.11V42h-7.117V17.977h6.836v3.191c.027.008.055.012.082.02.059-.079.125-.149.176-.231 1.23-2.05 3.055-3.145 5.3-3.492 1.614-.25 3.212-.102 4.774.41 2.246.734 3.613 2.367 4.336 4.656.527 1.668.719 3.395.73 5.137.028 4.695.02 9.387.024 14.078 0 .066-.008.133-.016.238h-7.132ZM6.605 17.98H13.7v24.016H6.605V17.98Zm7.668-7.66c.004 2.407-1.84 4.34-4.136 4.34-2.293 0-4.145-1.945-4.137-4.344C6.008 7.93 7.84 6.008 10.121 6c2.297-.008 4.149 1.918 4.152 4.32Zm0 0"/>
</svg>
