<svg width="862" height="489" viewBox="0 0 862 489" fill="none" xmlns="http://www.w3.org/2000/svg">
<rect x="0.5" y="0.5" width="861" height="488" fill="#111F3B" stroke="#293856"/>
<path d="M335 74H527V99C527 101.761 524.761 104 522 104H340C337.239 104 335 101.761 335 99V74Z" fill="#C56550"/>
<path d="M335 236H527V261C527 263.761 524.761 266 522 266H340C337.239 266 335 263.761 335 261V236Z" fill="#4EA793"/>
<path d="M597 236H789V261C789 263.761 786.761 266 784 266H602C599.239 266 597 263.761 597 261V236Z" fill="#485A68"/>
<path d="M658 407H789V432C789 434.761 786.761 437 784 437H663C660.239 437 658 434.761 658 432V407Z" fill="#41698A"/>
<path d="M73 407H204V432C204 434.761 201.761 437 199 437H78C75.2386 437 73 434.761 73 432V407Z" fill="#41698A"/>
<path d="M365 407H496V432C496 434.761 493.761 437 491 437H370C367.239 437 365 434.761 365 432V407Z" fill="#41698A"/>
<path d="M511 407H642V432C642 434.761 639.761 437 637 437H516C513.239 437 511 434.761 511 432V407Z" fill="#41698A"/>
<path d="M219 407H350V432C350 434.761 347.761 437 345 437H224C221.239 437 219 434.761 219 432V407Z" fill="#41698A"/>
<path d="M73 236H265V261C265 263.761 262.761 266 260 266H78C75.2386 266 73 263.761 73 261V236Z" fill="#3C7266"/>
<path d="M526.5 50.0417H527V52.125H526.5V54.2083H527V56.2917H526.5V58.375H527V60.4583H526.5V62.5417H527V64.625H526.5V66.7083H527V68.7917H526.5V70.875H527V72.9583H526.5V73.5H526V74H524V73.5H522V74H520V73.5H518V74H516V73.5H514V74H512V73.5H510V74H508V73.5H506V74H504V73.5H502V74H500V73.5H498V74H496V73.5H494V74H492V73.5H490V74H488V73.5H486V74H484V73.5H482V74H480V73.5H478V74H476V73.5H474V74H472V73.5H470V74H468V73.5H466V74H464V73.5H462V74H460V73.5H458V74H456V73.5H454V74H452V73.5H450V74H448V73.5H446V74H444V73.5H442V74H440V73.5H438V74H436V73.5H434V74H432V73.5H430V74H428V73.5H426V74H424V73.5H422V74H420V73.5H418V74H416V73.5H414V74H412V73.5H410V74H408V73.5H406V74H404V73.5H402V74H400V73.5H398V74H396V73.5H394V74H392V73.5H390V74H388V73.5H386V74H384V73.5H382V74H380V73.5H378V74H376V73.5H374V74H372V73.5H370V74H368V73.5H366V74H364V73.5H362V74H360V73.5H358V74H356V73.5H354V74H352V73.5H350V74H348V73.5H346V74H344V73.5H342V74H340V73.5H338V74H336V73.5H335.5V72.9583H335V70.875H335.5V68.7917H335V66.7083H335.5V64.625H335V62.5417H335.5V60.4583H335V58.375H335.5V56.2917H335V54.2083H335.5V52.125H335V50.0417H335.5V49C335.5 48.6988 335.53 48.405 335.586 48.1212L335.095 48.0242C335.225 47.3682 335.483 46.7584 335.842 46.2219L336.258 46.5001C336.586 46.0091 337.009 45.5863 337.5 45.2577L337.222 44.8422C337.758 44.483 338.368 44.2249 339.024 44.0952L339.121 44.5857C339.405 44.5295 339.699 44.5 340 44.5H340.989V44H342.967V44.5H344.946V44H346.924V44.5H348.902V44H350.88V44.5H352.859V44H354.837V44.5H356.815V44H358.793V44.5H360.772V44H362.75V44.5H364.728V44H366.706V44.5H368.685V44H370.663V44.5H372.641V44H374.62V44.5H376.598V44H378.576V44.5H380.554V44H382.533V44.5H384.511V44H386.489V44.5H388.467V44H390.446V44.5H392.424V44H394.402V44.5H396.38V44H398.359V44.5H400.337V44H402.315V44.5H404.293V44H406.272V44.5H408.25V44H410.228V44.5H412.206V44H414.185V44.5H416.163V44H418.141V44.5H420.12V44H422.098V44.5H424.076V44H426.054V44.5H428.033V44H430.011V44.5H431.989V44H433.967V44.5H435.946V44H437.924V44.5H439.902V44H441.88V44.5H443.859V44H445.837V44.5H447.815V44H449.793V44.5H451.772V44H453.75V44.5H455.728V44H457.707V44.5H459.685V44H461.663V44.5H463.641V44H465.62V44.5H467.598V44H469.576V44.5H471.554V44H473.533V44.5H475.511V44H477.489V44.5H479.467V44H481.446V44.5H483.424V44H485.402V44.5H487.38V44H489.359V44.5H491.337V44H493.315V44.5H495.293V44H497.272V44.5H499.25V44H501.228V44.5H503.207V44H505.185V44.5H507.163V44H509.141V44.5H511.12V44H513.098V44.5H515.076V44H517.054V44.5H519.033V44H521.011V44.5H522C522.301 44.5 522.595 44.5295 522.879 44.5857L522.976 44.0952C523.632 44.2249 524.242 44.483 524.778 44.8422L524.5 45.2577C524.991 45.5863 525.414 46.0091 525.742 46.5001L526.158 46.2219C526.517 46.7584 526.775 47.3682 526.905 48.0242L526.414 48.1212C526.47 48.405 526.5 48.6988 526.5 49V50.0417Z" stroke="#C56550" stroke-dasharray="2 2"/>
<path d="M526.5 212.042H527V214.125H526.5V216.208H527V218.292H526.5V220.375H527V222.458H526.5V224.542H527V226.625H526.5V228.708H527V230.792H526.5V232.875H527V234.958H526.5V235.5H526V236H524V235.5H522V236H520V235.5H518V236H516V235.5H514V236H512V235.5H510V236H508V235.5H506V236H504V235.5H502V236H500V235.5H498V236H496V235.5H494V236H492V235.5H490V236H488V235.5H486V236H484V235.5H482V236H480V235.5H478V236H476V235.5H474V236H472V235.5H470V236H468V235.5H466V236H464V235.5H462V236H460V235.5H458V236H456V235.5H454V236H452V235.5H450V236H448V235.5H446V236H444V235.5H442V236H440V235.5H438V236H436V235.5H434V236H432V235.5H430V236H428V235.5H426V236H424V235.5H422V236H420V235.5H418V236H416V235.5H414V236H412V235.5H410V236H408V235.5H406V236H404V235.5H402V236H400V235.5H398V236H396V235.5H394V236H392V235.5H390V236H388V235.5H386V236H384V235.5H382V236H380V235.5H378V236H376V235.5H374V236H372V235.5H370V236H368V235.5H366V236H364V235.5H362V236H360V235.5H358V236H356V235.5H354V236H352V235.5H350V236H348V235.5H346V236H344V235.5H342V236H340V235.5H338V236H336V235.5H335.5V234.958H335V232.875H335.5V230.792H335V228.708H335.5V226.625H335V224.542H335.5V222.458H335V220.375H335.5V218.292H335V216.208H335.5V214.125H335V212.042H335.5V211C335.5 210.699 335.53 210.405 335.586 210.121L335.095 210.024C335.225 209.368 335.483 208.758 335.842 208.222L336.258 208.5C336.586 208.009 337.009 207.586 337.5 207.258L337.222 206.842C337.758 206.483 338.368 206.225 339.024 206.095L339.121 206.586C339.405 206.53 339.699 206.5 340 206.5H340.989V206H342.967V206.5H344.946V206H346.924V206.5H348.902V206H350.88V206.5H352.859V206H354.837V206.5H356.815V206H358.793V206.5H360.772V206H362.75V206.5H364.728V206H366.706V206.5H368.685V206H370.663V206.5H372.641V206H374.62V206.5H376.598V206H378.576V206.5H380.554V206H382.533V206.5H384.511V206H386.489V206.5H388.467V206H390.446V206.5H392.424V206H394.402V206.5H396.38V206H398.359V206.5H400.337V206H402.315V206.5H404.293V206H406.272V206.5H408.25V206H410.228V206.5H412.206V206H414.185V206.5H416.163V206H418.141V206.5H420.12V206H422.098V206.5H424.076V206H426.054V206.5H428.033V206H430.011V206.5H431.989V206H433.967V206.5H435.946V206H437.924V206.5H439.902V206H441.88V206.5H443.859V206H445.837V206.5H447.815V206H449.793V206.5H451.772V206H453.75V206.5H455.728V206H457.707V206.5H459.685V206H461.663V206.5H463.641V206H465.62V206.5H467.598V206H469.576V206.5H471.554V206H473.533V206.5H475.511V206H477.489V206.5H479.467V206H481.446V206.5H483.424V206H485.402V206.5H487.38V206H489.359V206.5H491.337V206H493.315V206.5H495.293V206H497.272V206.5H499.25V206H501.228V206.5H503.207V206H505.185V206.5H507.163V206H509.141V206.5H511.12V206H513.098V206.5H515.076V206H517.054V206.5H519.033V206H521.011V206.5H522C522.301 206.5 522.595 206.53 522.879 206.586L522.976 206.095C523.632 206.225 524.242 206.483 524.778 206.842L524.5 207.258C524.991 207.586 525.414 208.009 525.742 208.5L526.158 208.222C526.517 208.758 526.775 209.368 526.905 210.024L526.414 210.121C526.47 210.405 526.5 210.699 526.5 211V212.042Z" stroke="#4EA793" stroke-dasharray="2 2"/>
<path d="M788.5 212.042H789V214.125H788.5V216.208H789V218.292H788.5V220.375H789V222.458H788.5V224.542H789V226.625H788.5V228.708H789V230.792H788.5V232.875H789V234.958H788.5V235.5H788V236H786V235.5H784V236H782V235.5H780V236H778V235.5H776V236H774V235.5H772V236H770V235.5H768V236H766V235.5H764V236H762V235.5H760V236H758V235.5H756V236H754V235.5H752V236H750V235.5H748V236H746V235.5H744V236H742V235.5H740V236H738V235.5H736V236H734V235.5H732V236H730V235.5H728V236H726V235.5H724V236H722V235.5H720V236H718V235.5H716V236H714V235.5H712V236H710V235.5H708V236H706V235.5H704V236H702V235.5H700V236H698V235.5H696V236H694V235.5H692V236H690V235.5H688V236H686V235.5H684V236H682V235.5H680V236H678V235.5H676V236H674V235.5H672V236H670V235.5H668V236H666V235.5H664V236H662V235.5H660V236H658V235.5H656V236H654V235.5H652V236H650V235.5H648V236H646V235.5H644V236H642V235.5H640V236H638V235.5H636V236H634V235.5H632V236H630V235.5H628V236H626V235.5H624V236H622V235.5H620V236H618V235.5H616V236H614V235.5H612V236H610V235.5H608V236H606V235.5H604V236H602V235.5H600V236H598V235.5H597.5V234.958H597V232.875H597.5V230.792H597V228.708H597.5V226.625H597V224.542H597.5V222.458H597V220.375H597.5V218.292H597V216.208H597.5V214.125H597V212.042H597.5V211C597.5 210.699 597.53 210.405 597.586 210.121L597.095 210.024C597.225 209.368 597.483 208.758 597.842 208.222L598.258 208.5C598.586 208.009 599.009 207.586 599.5 207.258L599.222 206.842C599.758 206.483 600.368 206.225 601.024 206.095L601.121 206.586C601.405 206.53 601.699 206.5 602 206.5H602.989V206H604.967V206.5H606.946V206H608.924V206.5H610.902V206H612.88V206.5H614.859V206H616.837V206.5H618.815V206H620.793V206.5H622.772V206H624.75V206.5H626.728V206H628.706V206.5H630.685V206H632.663V206.5H634.641V206H636.62V206.5H638.598V206H640.576V206.5H642.554V206H644.533V206.5H646.511V206H648.489V206.5H650.467V206H652.446V206.5H654.424V206H656.402V206.5H658.38V206H660.359V206.5H662.337V206H664.315V206.5H666.293V206H668.272V206.5H670.25V206H672.228V206.5H674.206V206H676.185V206.5H678.163V206H680.141V206.5H682.12V206H684.098V206.5H686.076V206H688.054V206.5H690.033V206H692.011V206.5H693.989V206H695.967V206.5H697.946V206H699.924V206.5H701.902V206H703.88V206.5H705.859V206H707.837V206.5H709.815V206H711.793V206.5H713.772V206H715.75V206.5H717.728V206H719.707V206.5H721.685V206H723.663V206.5H725.641V206H727.62V206.5H729.598V206H731.576V206.5H733.554V206H735.533V206.5H737.511V206H739.489V206.5H741.467V206H743.446V206.5H745.424V206H747.402V206.5H749.38V206H751.359V206.5H753.337V206H755.315V206.5H757.293V206H759.272V206.5H761.25V206H763.228V206.5H765.207V206H767.185V206.5H769.163V206H771.141V206.5H773.12V206H775.098V206.5H777.076V206H779.054V206.5H781.033V206H783.011V206.5H784C784.301 206.5 784.595 206.53 784.879 206.586L784.976 206.095C785.632 206.225 786.242 206.483 786.778 206.842L786.5 207.258C786.991 207.586 787.414 208.009 787.742 208.5L788.158 208.222C788.517 208.758 788.775 209.368 788.905 210.024L788.414 210.121C788.47 210.405 788.5 210.699 788.5 211V212.042Z" stroke="#485A68" stroke-dasharray="2 2"/>
<path d="M788.5 383.042H789V385.125H788.5V387.208H789V389.292H788.5V391.375H789V393.458H788.5V395.542H789V397.625H788.5V399.708H789V401.792H788.5V403.875H789V405.958H788.5V406.5H788.008V407H786.023V406.5H784.038V407H782.053V406.5H780.068V407H778.083V406.5H776.098V407H774.114V406.5H772.129V407H770.144V406.5H768.159V407H766.174V406.5H764.189V407H762.205V406.5H760.22V407H758.235V406.5H756.25V407H754.265V406.5H752.28V407H750.295V406.5H748.311V407H746.326V406.5H744.341V407H742.356V406.5H740.371V407H738.386V406.5H736.402V407H734.417V406.5H732.432V407H730.447V406.5H728.462V407H726.477V406.5H724.492V407H722.508V406.5H720.523V407H718.538V406.5H716.553V407H714.568V406.5H712.583V407H710.598V406.5H708.614V407H706.629V406.5H704.644V407H702.659V406.5H700.674V407H698.689V406.5H696.705V407H694.72V406.5H692.735V407H690.75V406.5H688.765V407H686.78V406.5H684.795V407H682.811V406.5H680.826V407H678.841V406.5H676.856V407H674.871V406.5H672.886V407H670.902V406.5H668.917V407H666.932V406.5H664.947V407H662.962V406.5H660.977V407H658.992V406.5H658.5V405.958H658V403.875H658.5V401.792H658V399.708H658.5V397.625H658V395.542H658.5V393.458H658V391.375H658.5V389.292H658V387.208H658.5V385.125H658V383.042H658.5V382C658.5 381.699 658.53 381.405 658.586 381.121L658.095 381.024C658.225 380.368 658.483 379.758 658.842 379.222L659.258 379.5C659.586 379.009 660.009 378.586 660.5 378.258L660.222 377.842C660.758 377.483 661.368 377.225 662.024 377.095L662.121 377.586C662.405 377.53 662.699 377.5 663 377.5H664.008V377H666.025V377.5H668.042V377H670.058V377.5H672.075V377H674.092V377.5H676.108V377H678.125V377.5H680.142V377H682.158V377.5H684.175V377H686.192V377.5H688.208V377H690.225V377.5H692.242V377H694.258V377.5H696.275V377H698.292V377.5H700.308V377H702.325V377.5H704.342V377H706.358V377.5H708.375V377H710.392V377.5H712.408V377H714.425V377.5H716.442V377H718.458V377.5H720.475V377H722.492V377.5H724.508V377H726.525V377.5H728.542V377H730.558V377.5H732.575V377H734.592V377.5H736.608V377H738.625V377.5H740.642V377H742.658V377.5H744.675V377H746.692V377.5H748.708V377H750.725V377.5H752.742V377H754.758V377.5H756.775V377H758.792V377.5H760.808V377H762.825V377.5H764.842V377H766.858V377.5H768.875V377H770.892V377.5H772.908V377H774.925V377.5H776.942V377H778.958V377.5H780.975V377H782.992V377.5H784C784.301 377.5 784.595 377.53 784.879 377.586L784.976 377.095C785.632 377.225 786.242 377.483 786.778 377.842L786.5 378.258C786.991 378.586 787.414 379.009 787.742 379.5L788.158 379.222C788.517 379.758 788.775 380.368 788.905 381.024L788.414 381.121C788.47 381.405 788.5 381.699 788.5 382V383.042Z" stroke="#41698A" stroke-dasharray="2 2"/>
<path d="M203.5 383.042H204V385.125H203.5V387.208H204V389.292H203.5V391.375H204V393.458H203.5V395.542H204V397.625H203.5V399.708H204V401.792H203.5V403.875H204V405.958H203.5V406.5H203.008V407H201.023V406.5H199.038V407H197.053V406.5H195.068V407H193.083V406.5H191.098V407H189.114V406.5H187.129V407H185.144V406.5H183.159V407H181.174V406.5H179.189V407H177.205V406.5H175.22V407H173.235V406.5H171.25V407H169.265V406.5H167.28V407H165.295V406.5H163.311V407H161.326V406.5H159.341V407H157.356V406.5H155.371V407H153.386V406.5H151.402V407H149.417V406.5H147.432V407H145.447V406.5H143.462V407H141.477V406.5H139.492V407H137.508V406.5H135.523V407H133.538V406.5H131.553V407H129.568V406.5H127.583V407H125.598V406.5H123.614V407H121.629V406.5H119.644V407H117.659V406.5H115.674V407H113.689V406.5H111.705V407H109.72V406.5H107.735V407H105.75V406.5H103.765V407H101.78V406.5H99.7955V407H97.8106V406.5H95.8258V407H93.8409V406.5H91.8561V407H89.8712V406.5H87.8864V407H85.9015V406.5H83.9167V407H81.9318V406.5H79.947V407H77.9621V406.5H75.9773V407H73.9924V406.5H73.5V405.958H73V403.875H73.5V401.792H73V399.708H73.5V397.625H73V395.542H73.5V393.458H73V391.375H73.5V389.292H73V387.208H73.5V385.125H73V383.042H73.5V382C73.5 381.699 73.5295 381.405 73.5857 381.121L73.0952 381.024C73.2249 380.368 73.483 379.758 73.8422 379.222L74.2577 379.5C74.5863 379.009 75.0091 378.586 75.5001 378.258L75.2219 377.842C75.7584 377.483 76.3682 377.225 77.0242 377.095L77.1212 377.586C77.405 377.53 77.6988 377.5 78 377.5H79.0082V377H81.0249V377.5H83.0416V377H85.0582V377.5H87.0749V377H89.0916V377.5H91.1083V377H93.1249V377.5H95.1416V377H97.1583V377.5H99.1749V377H101.192V377.5H103.208V377H105.225V377.5H107.242V377H109.258V377.5H111.275V377H113.292V377.5H115.308V377H117.325V377.5H119.342V377H121.358V377.5H123.375V377H125.392V377.5H127.408V377H129.425V377.5H131.442V377H133.458V377.5H135.475V377H137.492V377.5H139.508V377H141.525V377.5H143.542V377H145.558V377.5H147.575V377H149.592V377.5H151.608V377H153.625V377.5H155.642V377H157.658V377.5H159.675V377H161.692V377.5H163.708V377H165.725V377.5H167.742V377H169.758V377.5H171.775V377H173.792V377.5H175.808V377H177.825V377.5H179.842V377H181.858V377.5H183.875V377H185.892V377.5H187.908V377H189.925V377.5H191.942V377H193.958V377.5H195.975V377H197.992V377.5H199C199.301 377.5 199.595 377.53 199.879 377.586L199.976 377.095C200.632 377.225 201.242 377.483 201.778 377.842L201.5 378.258C201.991 378.586 202.414 379.009 202.742 379.5L203.158 379.222C203.517 379.758 203.775 380.368 203.905 381.024L203.414 381.121C203.47 381.405 203.5 381.699 203.5 382V383.042Z" stroke="#41698A" stroke-dasharray="2 2"/>
<path d="M495.5 383.042H496V385.125H495.5V387.208H496V389.292H495.5V391.375H496V393.458H495.5V395.542H496V397.625H495.5V399.708H496V401.792H495.5V403.875H496V405.958H495.5V406.5H495.008V407H493.023V406.5H491.038V407H489.053V406.5H487.068V407H485.083V406.5H483.098V407H481.114V406.5H479.129V407H477.144V406.5H475.159V407H473.174V406.5H471.189V407H469.205V406.5H467.22V407H465.235V406.5H463.25V407H461.265V406.5H459.28V407H457.295V406.5H455.311V407H453.326V406.5H451.341V407H449.356V406.5H447.371V407H445.386V406.5H443.402V407H441.417V406.5H439.432V407H437.447V406.5H435.462V407H433.477V406.5H431.492V407H429.508V406.5H427.523V407H425.538V406.5H423.553V407H421.568V406.5H419.583V407H417.598V406.5H415.614V407H413.629V406.5H411.644V407H409.659V406.5H407.674V407H405.689V406.5H403.705V407H401.72V406.5H399.735V407H397.75V406.5H395.765V407H393.78V406.5H391.795V407H389.811V406.5H387.826V407H385.841V406.5H383.856V407H381.871V406.5H379.886V407H377.902V406.5H375.917V407H373.932V406.5H371.947V407H369.962V406.5H367.977V407H365.992V406.5H365.5V405.958H365V403.875H365.5V401.792H365V399.708H365.5V397.625H365V395.542H365.5V393.458H365V391.375H365.5V389.292H365V387.208H365.5V385.125H365V383.042H365.5V382C365.5 381.699 365.53 381.405 365.586 381.121L365.095 381.024C365.225 380.368 365.483 379.758 365.842 379.222L366.258 379.5C366.586 379.009 367.009 378.586 367.5 378.258L367.222 377.842C367.758 377.483 368.368 377.225 369.024 377.095L369.121 377.586C369.405 377.53 369.699 377.5 370 377.5H371.008V377H373.025V377.5H375.042V377H377.058V377.5H379.075V377H381.092V377.5H383.108V377H385.125V377.5H387.142V377H389.158V377.5H391.175V377H393.192V377.5H395.208V377H397.225V377.5H399.242V377H401.258V377.5H403.275V377H405.292V377.5H407.308V377H409.325V377.5H411.342V377H413.358V377.5H415.375V377H417.392V377.5H419.408V377H421.425V377.5H423.442V377H425.458V377.5H427.475V377H429.492V377.5H431.508V377H433.525V377.5H435.542V377H437.558V377.5H439.575V377H441.592V377.5H443.608V377H445.625V377.5H447.642V377H449.658V377.5H451.675V377H453.692V377.5H455.708V377H457.725V377.5H459.742V377H461.758V377.5H463.775V377H465.792V377.5H467.808V377H469.825V377.5H471.842V377H473.858V377.5H475.875V377H477.892V377.5H479.908V377H481.925V377.5H483.942V377H485.958V377.5H487.975V377H489.992V377.5H491C491.301 377.5 491.595 377.53 491.879 377.586L491.976 377.095C492.632 377.225 493.242 377.483 493.778 377.842L493.5 378.258C493.991 378.586 494.414 379.009 494.742 379.5L495.158 379.222C495.517 379.758 495.775 380.368 495.905 381.024L495.414 381.121C495.47 381.405 495.5 381.699 495.5 382V383.042Z" stroke="#41698A" stroke-dasharray="2 2"/>
<path d="M641.5 383.042H642V385.125H641.5V387.208H642V389.292H641.5V391.375H642V393.458H641.5V395.542H642V397.625H641.5V399.708H642V401.792H641.5V403.875H642V405.958H641.5V406.5H641.008V407H639.023V406.5H637.038V407H635.053V406.5H633.068V407H631.083V406.5H629.098V407H627.114V406.5H625.129V407H623.144V406.5H621.159V407H619.174V406.5H617.189V407H615.205V406.5H613.22V407H611.235V406.5H609.25V407H607.265V406.5H605.28V407H603.295V406.5H601.311V407H599.326V406.5H597.341V407H595.356V406.5H593.371V407H591.386V406.5H589.402V407H587.417V406.5H585.432V407H583.447V406.5H581.462V407H579.477V406.5H577.492V407H575.508V406.5H573.523V407H571.538V406.5H569.553V407H567.568V406.5H565.583V407H563.598V406.5H561.614V407H559.629V406.5H557.644V407H555.659V406.5H553.674V407H551.689V406.5H549.705V407H547.72V406.5H545.735V407H543.75V406.5H541.765V407H539.78V406.5H537.795V407H535.811V406.5H533.826V407H531.841V406.5H529.856V407H527.871V406.5H525.886V407H523.902V406.5H521.917V407H519.932V406.5H517.947V407H515.962V406.5H513.977V407H511.992V406.5H511.5V405.958H511V403.875H511.5V401.792H511V399.708H511.5V397.625H511V395.542H511.5V393.458H511V391.375H511.5V389.292H511V387.208H511.5V385.125H511V383.042H511.5V382C511.5 381.699 511.53 381.405 511.586 381.121L511.095 381.024C511.225 380.368 511.483 379.758 511.842 379.222L512.258 379.5C512.586 379.009 513.009 378.586 513.5 378.258L513.222 377.842C513.758 377.483 514.368 377.225 515.024 377.095L515.121 377.586C515.405 377.53 515.699 377.5 516 377.5H517.008V377H519.025V377.5H521.042V377H523.058V377.5H525.075V377H527.092V377.5H529.108V377H531.125V377.5H533.142V377H535.158V377.5H537.175V377H539.192V377.5H541.208V377H543.225V377.5H545.242V377H547.258V377.5H549.275V377H551.292V377.5H553.308V377H555.325V377.5H557.342V377H559.358V377.5H561.375V377H563.392V377.5H565.408V377H567.425V377.5H569.442V377H571.458V377.5H573.475V377H575.492V377.5H577.508V377H579.525V377.5H581.542V377H583.558V377.5H585.575V377H587.592V377.5H589.608V377H591.625V377.5H593.642V377H595.658V377.5H597.675V377H599.692V377.5H601.708V377H603.725V377.5H605.742V377H607.758V377.5H609.775V377H611.792V377.5H613.808V377H615.825V377.5H617.842V377H619.858V377.5H621.875V377H623.892V377.5H625.908V377H627.925V377.5H629.942V377H631.958V377.5H633.975V377H635.992V377.5H637C637.301 377.5 637.595 377.53 637.879 377.586L637.976 377.095C638.632 377.225 639.242 377.483 639.778 377.842L639.5 378.258C639.991 378.586 640.414 379.009 640.742 379.5L641.158 379.222C641.517 379.758 641.775 380.368 641.905 381.024L641.414 381.121C641.47 381.405 641.5 381.699 641.5 382V383.042Z" stroke="#41698A" stroke-dasharray="2 2"/>
<path d="M349.5 383.042H350V385.125H349.5V387.208H350V389.292H349.5V391.375H350V393.458H349.5V395.542H350V397.625H349.5V399.708H350V401.792H349.5V403.875H350V405.958H349.5V406.5H349.008V407H347.023V406.5H345.038V407H343.053V406.5H341.068V407H339.083V406.5H337.098V407H335.114V406.5H333.129V407H331.144V406.5H329.159V407H327.174V406.5H325.189V407H323.205V406.5H321.22V407H319.235V406.5H317.25V407H315.265V406.5H313.28V407H311.295V406.5H309.311V407H307.326V406.5H305.341V407H303.356V406.5H301.371V407H299.386V406.5H297.402V407H295.417V406.5H293.432V407H291.447V406.5H289.462V407H287.477V406.5H285.492V407H283.508V406.5H281.523V407H279.538V406.5H277.553V407H275.568V406.5H273.583V407H271.598V406.5H269.614V407H267.629V406.5H265.644V407H263.659V406.5H261.674V407H259.689V406.5H257.705V407H255.72V406.5H253.735V407H251.75V406.5H249.765V407H247.78V406.5H245.795V407H243.811V406.5H241.826V407H239.841V406.5H237.856V407H235.871V406.5H233.886V407H231.902V406.5H229.917V407H227.932V406.5H225.947V407H223.962V406.5H221.977V407H219.992V406.5H219.5V405.958H219V403.875H219.5V401.792H219V399.708H219.5V397.625H219V395.542H219.5V393.458H219V391.375H219.5V389.292H219V387.208H219.5V385.125H219V383.042H219.5V382C219.5 381.699 219.53 381.405 219.586 381.121L219.095 381.024C219.225 380.368 219.483 379.758 219.842 379.222L220.258 379.5C220.586 379.009 221.009 378.586 221.5 378.258L221.222 377.842C221.758 377.483 222.368 377.225 223.024 377.095L223.121 377.586C223.405 377.53 223.699 377.5 224 377.5H225.008V377H227.025V377.5H229.042V377H231.058V377.5H233.075V377H235.092V377.5H237.108V377H239.125V377.5H241.142V377H243.158V377.5H245.175V377H247.192V377.5H249.208V377H251.225V377.5H253.242V377H255.258V377.5H257.275V377H259.292V377.5H261.308V377H263.325V377.5H265.342V377H267.358V377.5H269.375V377H271.392V377.5H273.408V377H275.425V377.5H277.442V377H279.458V377.5H281.475V377H283.492V377.5H285.508V377H287.525V377.5H289.542V377H291.558V377.5H293.575V377H295.592V377.5H297.608V377H299.625V377.5H301.642V377H303.658V377.5H305.675V377H307.692V377.5H309.708V377H311.725V377.5H313.742V377H315.758V377.5H317.775V377H319.792V377.5H321.808V377H323.825V377.5H325.842V377H327.858V377.5H329.875V377H331.892V377.5H333.908V377H335.925V377.5H337.942V377H339.958V377.5H341.975V377H343.992V377.5H345C345.301 377.5 345.595 377.53 345.879 377.586L345.976 377.095C346.632 377.225 347.242 377.483 347.778 377.842L347.5 378.258C347.991 378.586 348.414 379.009 348.742 379.5L349.158 379.222C349.517 379.758 349.775 380.368 349.905 381.024L349.414 381.121C349.47 381.405 349.5 381.699 349.5 382V383.042Z" stroke="#41698A" stroke-dasharray="2 2"/>
<path d="M264.5 212.042H265V214.125H264.5V216.208H265V218.292H264.5V220.375H265V222.458H264.5V224.542H265V226.625H264.5V228.708H265V230.792H264.5V232.875H265V234.958H264.5V235.5H264V236H262V235.5H260V236H258V235.5H256V236H254V235.5H252V236H250V235.5H248V236H246V235.5H244V236H242V235.5H240V236H238V235.5H236V236H234V235.5H232V236H230V235.5H228V236H226V235.5H224V236H222V235.5H220V236H218V235.5H216V236H214V235.5H212V236H210V235.5H208V236H206V235.5H204V236H202V235.5H200V236H198V235.5H196V236H194V235.5H192V236H190V235.5H188V236H186V235.5H184V236H182V235.5H180V236H178V235.5H176V236H174V235.5H172V236H170V235.5H168V236H166V235.5H164V236H162V235.5H160V236H158V235.5H156V236H154V235.5H152V236H150V235.5H148V236H146V235.5H144V236H142V235.5H140V236H138V235.5H136V236H134V235.5H132V236H130V235.5H128V236H126V235.5H124V236H122V235.5H120V236H118V235.5H116V236H114V235.5H112V236H110V235.5H108V236H106V235.5H104V236H102V235.5H100V236H98V235.5H96V236H94V235.5H92V236H90V235.5H88V236H86V235.5H84V236H82V235.5H80V236H78V235.5H76V236H74V235.5H73.5V234.958H73V232.875H73.5V230.792H73V228.708H73.5V226.625H73V224.542H73.5V222.458H73V220.375H73.5V218.292H73V216.208H73.5V214.125H73V212.042H73.5V211C73.5 210.699 73.5295 210.405 73.5857 210.121L73.0952 210.024C73.2249 209.368 73.483 208.758 73.8422 208.222L74.2577 208.5C74.5863 208.009 75.0091 207.586 75.5001 207.258L75.2219 206.842C75.7584 206.483 76.3682 206.225 77.0242 206.095L77.1212 206.586C77.405 206.53 77.6988 206.5 78 206.5H78.9892V206H80.9674V206.5H82.9457V206H84.9239V206.5H86.9022V206H88.8804V206.5H90.8587V206H92.837V206.5H94.8152V206H96.7935V206.5H98.7717V206H100.75V206.5H102.728V206H104.706V206.5H106.685V206H108.663V206.5H110.641V206H112.62V206.5H114.598V206H116.576V206.5H118.554V206H120.533V206.5H122.511V206H124.489V206.5H126.467V206H128.446V206.5H130.424V206H132.402V206.5H134.38V206H136.359V206.5H138.337V206H140.315V206.5H142.293V206H144.272V206.5H146.25V206H148.228V206.5H150.206V206H152.185V206.5H154.163V206H156.141V206.5H158.12V206H160.098V206.5H162.076V206H164.054V206.5H166.033V206H168.011V206.5H169.989V206H171.967V206.5H173.946V206H175.924V206.5H177.902V206H179.88V206.5H181.859V206H183.837V206.5H185.815V206H187.793V206.5H189.772V206H191.75V206.5H193.728V206H195.707V206.5H197.685V206H199.663V206.5H201.641V206H203.62V206.5H205.598V206H207.576V206.5H209.554V206H211.533V206.5H213.511V206H215.489V206.5H217.467V206H219.446V206.5H221.424V206H223.402V206.5H225.38V206H227.359V206.5H229.337V206H231.315V206.5H233.293V206H235.272V206.5H237.25V206H239.228V206.5H241.207V206H243.185V206.5H245.163V206H247.141V206.5H249.12V206H251.098V206.5H253.076V206H255.054V206.5H257.033V206H259.011V206.5H260C260.301 206.5 260.595 206.53 260.879 206.586L260.976 206.095C261.632 206.225 262.242 206.483 262.778 206.842L262.5 207.258C262.991 207.586 263.414 208.009 263.742 208.5L264.158 208.222C264.517 208.758 264.775 209.368 264.905 210.024L264.414 210.121C264.47 210.405 264.5 210.699 264.5 211V212.042Z" stroke="#3C7266" stroke-dasharray="2 2"/>
<path d="M389.089 88.9091C389.089 85.6875 387.2 83.679 384.595 83.679C381.99 83.679 380.101 85.6875 380.101 88.9091C380.101 92.1307 381.99 94.1392 384.595 94.1392C387.2 94.1392 389.089 92.1307 389.089 88.9091ZM387.896 88.9091C387.896 91.554 386.445 92.9858 384.595 92.9858C382.746 92.9858 381.294 91.554 381.294 88.9091C381.294 86.2642 382.746 84.8324 384.595 84.8324C386.445 84.8324 387.896 86.2642 387.896 88.9091ZM395.816 90.8778C395.816 92.3097 394.722 92.9659 393.847 92.9659C392.873 92.9659 392.177 92.25 392.177 91.1364V86.3636H391.004V91.2159C391.004 93.1648 392.038 94.0994 393.469 94.0994C394.623 94.0994 395.379 93.483 395.737 92.7074H395.816V94H396.989V86.3636H395.816V90.8778ZM402.459 86.3636H400.829V84.5341H399.655V86.3636H398.502V87.358H399.655V92.1307C399.655 93.4631 400.729 94.0994 401.724 94.0994C402.161 94.0994 402.439 94.0199 402.599 93.9602L402.36 92.9062C402.26 92.9261 402.101 92.9659 401.843 92.9659C401.326 92.9659 400.829 92.8068 400.829 91.8125V87.358H402.459V86.3636ZM404.224 96.8636H405.398V92.8267H405.497C405.756 93.2443 406.253 94.1591 407.724 94.1591C409.633 94.1591 410.966 92.6278 410.966 90.2017C410.966 87.7955 409.633 86.2642 407.704 86.2642C406.213 86.2642 405.756 87.179 405.497 87.5767H405.358V86.3636H404.224V96.8636ZM405.378 90.1818C405.378 88.4716 406.133 87.3182 407.565 87.3182C409.057 87.3182 409.792 88.571 409.792 90.1818C409.792 91.8125 409.037 93.1051 407.565 93.1051C406.153 93.1051 405.378 91.9119 405.378 90.1818ZM417.568 90.8778C417.568 92.3097 416.474 92.9659 415.599 92.9659C414.625 92.9659 413.929 92.25 413.929 91.1364V86.3636H412.756V91.2159C412.756 93.1648 413.79 94.0994 415.221 94.0994C416.375 94.0994 417.131 93.483 417.488 92.7074H417.568V94H418.741V86.3636H417.568V90.8778ZM424.211 86.3636H422.581V84.5341H421.407V86.3636H420.254V87.358H421.407V92.1307C421.407 93.4631 422.481 94.0994 423.475 94.0994C423.913 94.0994 424.191 94.0199 424.35 93.9602L424.112 92.9062C424.012 92.9261 423.853 92.9659 423.595 92.9659C423.078 92.9659 422.581 92.8068 422.581 91.8125V87.358H424.211V86.3636ZM430.49 94L431.515 91.1165H435.631L436.655 94H437.948L434.209 83.8182H432.936L429.198 94H430.49ZM431.902 90.0227L433.533 85.429H433.613L435.243 90.0227H431.902ZM443.789 90.9176H449.914V89.8438H443.789V90.9176ZM443.789 87.9744H449.914V86.9006H443.789V87.9744ZM460.038 83.8182H458.805L456.259 85.5085V86.7614L458.745 85.1108H458.805V94H460.038V83.8182ZM466.287 94.1392C468.534 94.1392 469.827 92.2351 469.827 88.9091C469.827 85.608 468.514 83.679 466.287 83.679C464.06 83.679 462.747 85.608 462.747 88.9091C462.747 92.2351 464.04 94.1392 466.287 94.1392ZM466.287 93.0455C464.806 93.0455 463.941 91.5589 463.941 88.9091C463.941 86.2642 464.816 84.7528 466.287 84.7528C467.759 84.7528 468.634 86.2642 468.634 88.9091C468.634 91.5589 467.769 93.0455 466.287 93.0455ZM475.037 94.1392C477.284 94.1392 478.577 92.2351 478.577 88.9091C478.577 85.608 477.264 83.679 475.037 83.679C472.81 83.679 471.497 85.608 471.497 88.9091C471.497 92.2351 472.79 94.1392 475.037 94.1392ZM475.037 93.0455C473.556 93.0455 472.691 91.5589 472.691 88.9091C472.691 86.2642 473.566 84.7528 475.037 84.7528C476.509 84.7528 477.384 86.2642 477.384 88.9091C477.384 91.5589 476.519 93.0455 475.037 93.0455ZM480.486 94H481.659V86.3636H480.486V94ZM481.083 85.0909C481.54 85.0909 481.918 84.733 481.918 84.2955C481.918 83.858 481.54 83.5 481.083 83.5C480.625 83.5 480.247 83.858 480.247 84.2955C480.247 84.733 480.625 85.0909 481.083 85.0909Z" fill="white"/>
<path d="M391.899 250.909C391.899 247.688 390.01 245.679 387.405 245.679C384.8 245.679 382.91 247.688 382.91 250.909C382.91 254.131 384.8 256.139 387.405 256.139C390.01 256.139 391.899 254.131 391.899 250.909ZM390.706 250.909C390.706 253.554 389.254 254.986 387.405 254.986C385.555 254.986 384.104 253.554 384.104 250.909C384.104 248.264 385.555 246.832 387.405 246.832C389.254 246.832 390.706 248.264 390.706 250.909ZM398.626 252.878C398.626 254.31 397.532 254.966 396.657 254.966C395.682 254.966 394.986 254.25 394.986 253.136V248.364H393.813V253.216C393.813 255.165 394.847 256.099 396.279 256.099C397.432 256.099 398.188 255.483 398.546 254.707H398.626V256H399.799V248.364H398.626V252.878ZM405.269 248.364H403.638V246.534H402.465V248.364H401.312V249.358H402.465V254.131C402.465 255.463 403.539 256.099 404.533 256.099C404.971 256.099 405.249 256.02 405.408 255.96L405.169 254.906C405.07 254.926 404.911 254.966 404.652 254.966C404.135 254.966 403.638 254.807 403.638 253.812V249.358H405.269V248.364ZM407.034 258.864H408.207V254.827H408.307C408.565 255.244 409.062 256.159 410.534 256.159C412.443 256.159 413.775 254.628 413.775 252.202C413.775 249.795 412.443 248.264 410.514 248.264C409.022 248.264 408.565 249.179 408.307 249.577H408.167V248.364H407.034V258.864ZM408.187 252.182C408.187 250.472 408.943 249.318 410.375 249.318C411.866 249.318 412.602 250.571 412.602 252.182C412.602 253.812 411.846 255.105 410.375 255.105C408.963 255.105 408.187 253.912 408.187 252.182ZM420.378 252.878C420.378 254.31 419.284 254.966 418.409 254.966C417.434 254.966 416.738 254.25 416.738 253.136V248.364H415.565V253.216C415.565 255.165 416.599 256.099 418.031 256.099C419.184 256.099 419.94 255.483 420.298 254.707H420.378V256H421.551V248.364H420.378V252.878ZM427.021 248.364H425.39V246.534H424.217V248.364H423.063V249.358H424.217V254.131C424.217 255.463 425.291 256.099 426.285 256.099C426.723 256.099 427.001 256.02 427.16 255.96L426.921 254.906C426.822 254.926 426.663 254.966 426.404 254.966C425.887 254.966 425.39 254.807 425.39 253.812V249.358H427.021V248.364ZM441.076 249C440.698 246.912 439.027 245.679 436.979 245.679C434.374 245.679 432.485 247.688 432.485 250.909C432.485 254.131 434.374 256.139 436.979 256.139C439.027 256.139 440.698 254.906 441.076 252.818H439.843C439.544 254.23 438.331 254.986 436.979 254.986C435.13 254.986 433.678 253.554 433.678 250.909C433.678 248.264 435.13 246.832 436.979 246.832C438.331 246.832 439.544 247.588 439.843 249H441.076ZM447.324 252.918H453.449V251.844H447.324V252.918ZM447.324 249.974H453.449V248.901H447.324V249.974ZM463.433 256.139C465.407 256.139 466.873 254.901 466.873 253.236C466.873 251.943 466.108 251.004 464.825 250.79V250.71C465.854 250.397 466.495 249.552 466.495 248.403C466.495 246.962 465.357 245.679 463.473 245.679C461.713 245.679 460.251 246.763 460.191 248.364H461.384C461.429 247.349 462.394 246.753 463.453 246.753C464.576 246.753 465.302 247.434 465.302 248.463C465.302 249.537 464.462 250.233 463.254 250.233H462.438V251.327H463.254C464.8 251.327 465.66 252.112 465.66 253.236C465.66 254.315 464.72 255.045 463.413 255.045C462.235 255.045 461.3 254.439 461.225 253.455H459.973C460.047 255.055 461.459 256.139 463.433 256.139ZM472.228 256.139C474.475 256.139 475.767 254.235 475.767 250.909C475.767 247.608 474.455 245.679 472.228 245.679C470 245.679 468.688 247.608 468.688 250.909C468.688 254.235 469.98 256.139 472.228 256.139ZM472.228 255.045C470.746 255.045 469.881 253.559 469.881 250.909C469.881 248.264 470.756 246.753 472.228 246.753C473.699 246.753 474.574 248.264 474.574 250.909C474.574 253.559 473.709 255.045 472.228 255.045ZM477.676 256H478.85V248.364H477.676V256ZM478.273 247.091C478.73 247.091 479.108 246.733 479.108 246.295C479.108 245.858 478.73 245.5 478.273 245.5C477.816 245.5 477.438 245.858 477.438 246.295C477.438 246.733 477.816 247.091 478.273 247.091Z" fill="white"/>
<path d="M654.159 250.909C654.159 247.688 652.27 245.679 649.665 245.679C647.059 245.679 645.17 247.688 645.17 250.909C645.17 254.131 647.059 256.139 649.665 256.139C652.27 256.139 654.159 254.131 654.159 250.909ZM652.966 250.909C652.966 253.554 651.514 254.986 649.665 254.986C647.815 254.986 646.363 253.554 646.363 250.909C646.363 248.264 647.815 246.832 649.665 246.832C651.514 246.832 652.966 248.264 652.966 250.909ZM660.885 252.878C660.885 254.31 659.792 254.966 658.917 254.966C657.942 254.966 657.246 254.25 657.246 253.136V248.364H656.073V253.216C656.073 255.165 657.107 256.099 658.539 256.099C659.692 256.099 660.448 255.483 660.806 254.707H660.885V256H662.059V248.364H660.885V252.878ZM667.529 248.364H665.898V246.534H664.725V248.364H663.571V249.358H664.725V254.131C664.725 255.463 665.799 256.099 666.793 256.099C667.23 256.099 667.509 256.02 667.668 255.96L667.429 254.906C667.33 254.926 667.171 254.966 666.912 254.966C666.395 254.966 665.898 254.807 665.898 253.812V249.358H667.529V248.364ZM669.294 258.864H670.467V254.827H670.566C670.825 255.244 671.322 256.159 672.794 256.159C674.703 256.159 676.035 254.628 676.035 252.202C676.035 249.795 674.703 248.264 672.774 248.264C671.282 248.264 670.825 249.179 670.566 249.577H670.427V248.364H669.294V258.864ZM670.447 252.182C670.447 250.472 671.203 249.318 672.634 249.318C674.126 249.318 674.862 250.571 674.862 252.182C674.862 253.812 674.106 255.105 672.634 255.105C671.223 255.105 670.447 253.912 670.447 252.182ZM682.637 252.878C682.637 254.31 681.544 254.966 680.669 254.966C679.694 254.966 678.998 254.25 678.998 253.136V248.364H677.825V253.216C677.825 255.165 678.859 256.099 680.291 256.099C681.444 256.099 682.2 255.483 682.558 254.707H682.637V256H683.811V248.364H682.637V252.878ZM689.281 248.364H687.65V246.534H686.477V248.364H685.323V249.358H686.477V254.131C686.477 255.463 687.551 256.099 688.545 256.099C688.982 256.099 689.261 256.02 689.42 255.96L689.181 254.906C689.082 254.926 688.923 254.966 688.664 254.966C688.147 254.966 687.65 254.807 687.65 253.812V249.358H689.281V248.364ZM698.284 256C701.386 256 703.136 254.071 703.136 250.889C703.136 247.727 701.386 245.818 698.423 245.818H695.142V256H698.284ZM696.375 254.906V246.912H698.344C700.73 246.912 701.943 248.423 701.943 250.889C701.943 253.375 700.73 254.906 698.205 254.906H696.375ZM709.46 252.918H715.585V251.844H709.46V252.918ZM709.46 249.974H715.585V248.901H709.46V249.974ZM725.311 256.139C727.25 256.139 728.672 254.707 728.672 252.759C728.672 250.785 727.3 249.338 725.43 249.338C724.744 249.338 724.078 249.582 723.66 249.915H723.601L723.959 246.912H728.214V245.818H722.925L722.308 250.83L723.462 250.969C723.884 250.665 724.605 250.447 725.231 250.452C726.529 250.462 727.479 251.446 727.479 252.778C727.479 254.086 726.564 255.045 725.311 255.045C724.267 255.045 723.437 254.374 723.342 253.455H722.149C722.224 255.006 723.561 256.139 725.311 256.139ZM733.968 256.139C736.215 256.139 737.508 254.235 737.508 250.909C737.508 247.608 736.195 245.679 733.968 245.679C731.741 245.679 730.428 247.608 730.428 250.909C730.428 254.235 731.721 256.139 733.968 256.139ZM733.968 255.045C732.486 255.045 731.621 253.559 731.621 250.909C731.621 248.264 732.496 246.753 733.968 246.753C735.439 246.753 736.314 248.264 736.314 250.909C736.314 253.559 735.449 255.045 733.968 255.045ZM739.417 256H740.59V248.364H739.417V256ZM740.013 247.091C740.471 247.091 740.848 246.733 740.848 246.295C740.848 245.858 740.471 245.5 740.013 245.5C739.556 245.5 739.178 245.858 739.178 246.295C739.178 246.733 739.556 247.091 740.013 247.091Z" fill="white"/>
<path d="M698.659 421.909C698.659 418.688 696.77 416.679 694.165 416.679C691.559 416.679 689.67 418.688 689.67 421.909C689.67 425.131 691.559 427.139 694.165 427.139C696.77 427.139 698.659 425.131 698.659 421.909ZM697.466 421.909C697.466 424.554 696.014 425.986 694.165 425.986C692.315 425.986 690.863 424.554 690.863 421.909C690.863 419.264 692.315 417.832 694.165 417.832C696.014 417.832 697.466 419.264 697.466 421.909ZM705.385 423.878C705.385 425.31 704.292 425.966 703.417 425.966C702.442 425.966 701.746 425.25 701.746 424.136V419.364H700.573V424.216C700.573 426.165 701.607 427.099 703.039 427.099C704.192 427.099 704.948 426.483 705.306 425.707H705.385V427H706.559V419.364H705.385V423.878ZM712.029 419.364H710.398V417.534H709.225V419.364H708.071V420.358H709.225V425.131C709.225 426.463 710.299 427.099 711.293 427.099C711.73 427.099 712.009 427.02 712.168 426.96L711.929 425.906C711.83 425.926 711.671 425.966 711.412 425.966C710.895 425.966 710.398 425.807 710.398 424.812V420.358H712.029V419.364ZM713.794 429.864H714.967V425.827H715.066C715.325 426.244 715.822 427.159 717.294 427.159C719.203 427.159 720.535 425.628 720.535 423.202C720.535 420.795 719.203 419.264 717.274 419.264C715.782 419.264 715.325 420.179 715.066 420.577H714.927V419.364H713.794V429.864ZM714.947 423.182C714.947 421.472 715.703 420.318 717.134 420.318C718.626 420.318 719.362 421.571 719.362 423.182C719.362 424.812 718.606 426.105 717.134 426.105C715.723 426.105 714.947 424.912 714.947 423.182ZM727.137 423.878C727.137 425.31 726.044 425.966 725.169 425.966C724.194 425.966 723.498 425.25 723.498 424.136V419.364H722.325V424.216C722.325 426.165 723.359 427.099 724.791 427.099C725.944 427.099 726.7 426.483 727.058 425.707H727.137V427H728.311V419.364H727.137V423.878ZM733.781 419.364H732.15V417.534H730.977V419.364H729.823V420.358H730.977V425.131C730.977 426.463 732.051 427.099 733.045 427.099C733.482 427.099 733.761 427.02 733.92 426.96L733.681 425.906C733.582 425.926 733.423 425.966 733.164 425.966C732.647 425.966 732.15 425.807 732.15 424.812V420.358H733.781V419.364ZM740.338 427.08C740.83 427.08 741.233 426.677 741.233 426.185C741.233 425.692 740.83 425.29 740.338 425.29C739.846 425.29 739.443 425.692 739.443 426.185C739.443 426.677 739.846 427.08 740.338 427.08ZM744.194 427.08C744.686 427.08 745.089 426.677 745.089 426.185C745.089 425.692 744.686 425.29 744.194 425.29C743.701 425.29 743.299 425.692 743.299 426.185C743.299 426.677 743.701 427.08 744.194 427.08ZM748.049 427.08C748.541 427.08 748.944 426.677 748.944 426.185C748.944 425.692 748.541 425.29 748.049 425.29C747.557 425.29 747.154 425.692 747.154 426.185C747.154 426.677 747.557 427.08 748.049 427.08ZM752.223 422.406C752.223 421.074 753.048 420.318 754.172 420.318C755.26 420.318 755.922 421.029 755.922 422.227V427H757.095V422.148C757.095 420.199 756.056 419.264 754.51 419.264C753.356 419.264 752.64 419.781 752.282 420.557H752.183V419.364H751.049V427H752.223V422.406Z" fill="white"/>
<path d="M113.659 421.909C113.659 418.688 111.77 416.679 109.165 416.679C106.559 416.679 104.67 418.688 104.67 421.909C104.67 425.131 106.559 427.139 109.165 427.139C111.77 427.139 113.659 425.131 113.659 421.909ZM112.466 421.909C112.466 424.554 111.014 425.986 109.165 425.986C107.315 425.986 105.863 424.554 105.863 421.909C105.863 419.264 107.315 417.832 109.165 417.832C111.014 417.832 112.466 419.264 112.466 421.909ZM120.385 423.878C120.385 425.31 119.292 425.966 118.417 425.966C117.442 425.966 116.746 425.25 116.746 424.136V419.364H115.573V424.216C115.573 426.165 116.607 427.099 118.039 427.099C119.192 427.099 119.948 426.483 120.306 425.707H120.385V427H121.559V419.364H120.385V423.878ZM127.029 419.364H125.398V417.534H124.225V419.364H123.071V420.358H124.225V425.131C124.225 426.463 125.299 427.099 126.293 427.099C126.73 427.099 127.009 427.02 127.168 426.96L126.929 425.906C126.83 425.926 126.671 425.966 126.412 425.966C125.895 425.966 125.398 425.807 125.398 424.812V420.358H127.029V419.364ZM128.794 429.864H129.967V425.827H130.066C130.325 426.244 130.822 427.159 132.294 427.159C134.203 427.159 135.535 425.628 135.535 423.202C135.535 420.795 134.203 419.264 132.274 419.264C130.782 419.264 130.325 420.179 130.066 420.577H129.927V419.364H128.794V429.864ZM129.947 423.182C129.947 421.472 130.703 420.318 132.134 420.318C133.626 420.318 134.362 421.571 134.362 423.182C134.362 424.812 133.606 426.105 132.134 426.105C130.723 426.105 129.947 424.912 129.947 423.182ZM142.137 423.878C142.137 425.31 141.044 425.966 140.169 425.966C139.194 425.966 138.498 425.25 138.498 424.136V419.364H137.325V424.216C137.325 426.165 138.359 427.099 139.791 427.099C140.944 427.099 141.7 426.483 142.058 425.707H142.137V427H143.311V419.364H142.137V423.878ZM148.781 419.364H147.15V417.534H145.977V419.364H144.823V420.358H145.977V425.131C145.977 426.463 147.051 427.099 148.045 427.099C148.482 427.099 148.761 427.02 148.92 426.96L148.681 425.906C148.582 425.926 148.423 425.966 148.164 425.966C147.647 425.966 147.15 425.807 147.15 424.812V420.358H148.781V419.364ZM155.338 427.08C155.83 427.08 156.233 426.677 156.233 426.185C156.233 425.692 155.83 425.29 155.338 425.29C154.846 425.29 154.443 425.692 154.443 426.185C154.443 426.677 154.846 427.08 155.338 427.08ZM159.194 427.08C159.686 427.08 160.089 426.677 160.089 426.185C160.089 425.692 159.686 425.29 159.194 425.29C158.701 425.29 158.299 425.692 158.299 426.185C158.299 426.677 158.701 427.08 159.194 427.08ZM163.049 427.08C163.541 427.08 163.944 426.677 163.944 426.185C163.944 425.692 163.541 425.29 163.049 425.29C162.557 425.29 162.154 425.692 162.154 426.185C162.154 426.677 162.557 427.08 163.049 427.08ZM167.223 422.406C167.223 421.074 168.048 420.318 169.172 420.318C170.26 420.318 170.922 421.029 170.922 422.227V427H172.095V422.148C172.095 420.199 171.056 419.264 169.51 419.264C168.356 419.264 167.64 419.781 167.282 420.557H167.183V419.364H166.049V427H167.223V422.406Z" fill="white"/>
<path d="M405.659 421.909C405.659 418.688 403.77 416.679 401.165 416.679C398.559 416.679 396.67 418.688 396.67 421.909C396.67 425.131 398.559 427.139 401.165 427.139C403.77 427.139 405.659 425.131 405.659 421.909ZM404.466 421.909C404.466 424.554 403.014 425.986 401.165 425.986C399.315 425.986 397.863 424.554 397.863 421.909C397.863 419.264 399.315 417.832 401.165 417.832C403.014 417.832 404.466 419.264 404.466 421.909ZM412.385 423.878C412.385 425.31 411.292 425.966 410.417 425.966C409.442 425.966 408.746 425.25 408.746 424.136V419.364H407.573V424.216C407.573 426.165 408.607 427.099 410.039 427.099C411.192 427.099 411.948 426.483 412.306 425.707H412.385V427H413.559V419.364H412.385V423.878ZM419.029 419.364H417.398V417.534H416.225V419.364H415.071V420.358H416.225V425.131C416.225 426.463 417.299 427.099 418.293 427.099C418.73 427.099 419.009 427.02 419.168 426.96L418.929 425.906C418.83 425.926 418.671 425.966 418.412 425.966C417.895 425.966 417.398 425.807 417.398 424.812V420.358H419.029V419.364ZM420.794 429.864H421.967V425.827H422.066C422.325 426.244 422.822 427.159 424.294 427.159C426.203 427.159 427.535 425.628 427.535 423.202C427.535 420.795 426.203 419.264 424.274 419.264C422.782 419.264 422.325 420.179 422.066 420.577H421.927V419.364H420.794V429.864ZM421.947 423.182C421.947 421.472 422.703 420.318 424.134 420.318C425.626 420.318 426.362 421.571 426.362 423.182C426.362 424.812 425.606 426.105 424.134 426.105C422.723 426.105 421.947 424.912 421.947 423.182ZM434.137 423.878C434.137 425.31 433.044 425.966 432.169 425.966C431.194 425.966 430.498 425.25 430.498 424.136V419.364H429.325V424.216C429.325 426.165 430.359 427.099 431.791 427.099C432.944 427.099 433.7 426.483 434.058 425.707H434.137V427H435.311V419.364H434.137V423.878ZM440.781 419.364H439.15V417.534H437.977V419.364H436.823V420.358H437.977V425.131C437.977 426.463 439.051 427.099 440.045 427.099C440.482 427.099 440.761 427.02 440.92 426.96L440.681 425.906C440.582 425.926 440.423 425.966 440.164 425.966C439.647 425.966 439.15 425.807 439.15 424.812V420.358H440.781V419.364ZM447.338 427.08C447.83 427.08 448.233 426.677 448.233 426.185C448.233 425.692 447.83 425.29 447.338 425.29C446.846 425.29 446.443 425.692 446.443 426.185C446.443 426.677 446.846 427.08 447.338 427.08ZM451.194 427.08C451.686 427.08 452.089 426.677 452.089 426.185C452.089 425.692 451.686 425.29 451.194 425.29C450.701 425.29 450.299 425.692 450.299 426.185C450.299 426.677 450.701 427.08 451.194 427.08ZM455.049 427.08C455.541 427.08 455.944 426.677 455.944 426.185C455.944 425.692 455.541 425.29 455.049 425.29C454.557 425.29 454.154 425.692 454.154 426.185C454.154 426.677 454.557 427.08 455.049 427.08ZM459.223 422.406C459.223 421.074 460.048 420.318 461.172 420.318C462.26 420.318 462.922 421.029 462.922 422.227V427H464.095V422.148C464.095 420.199 463.056 419.264 461.51 419.264C460.356 419.264 459.64 419.781 459.282 420.557H459.183V419.364H458.049V427H459.223V422.406Z" fill="white"/>
<path d="M551.659 421.909C551.659 418.688 549.77 416.679 547.165 416.679C544.559 416.679 542.67 418.688 542.67 421.909C542.67 425.131 544.559 427.139 547.165 427.139C549.77 427.139 551.659 425.131 551.659 421.909ZM550.466 421.909C550.466 424.554 549.014 425.986 547.165 425.986C545.315 425.986 543.863 424.554 543.863 421.909C543.863 419.264 545.315 417.832 547.165 417.832C549.014 417.832 550.466 419.264 550.466 421.909ZM558.385 423.878C558.385 425.31 557.292 425.966 556.417 425.966C555.442 425.966 554.746 425.25 554.746 424.136V419.364H553.573V424.216C553.573 426.165 554.607 427.099 556.039 427.099C557.192 427.099 557.948 426.483 558.306 425.707H558.385V427H559.559V419.364H558.385V423.878ZM565.029 419.364H563.398V417.534H562.225V419.364H561.071V420.358H562.225V425.131C562.225 426.463 563.299 427.099 564.293 427.099C564.73 427.099 565.009 427.02 565.168 426.96L564.929 425.906C564.83 425.926 564.671 425.966 564.412 425.966C563.895 425.966 563.398 425.807 563.398 424.812V420.358H565.029V419.364ZM566.794 429.864H567.967V425.827H568.066C568.325 426.244 568.822 427.159 570.294 427.159C572.203 427.159 573.535 425.628 573.535 423.202C573.535 420.795 572.203 419.264 570.274 419.264C568.782 419.264 568.325 420.179 568.066 420.577H567.927V419.364H566.794V429.864ZM567.947 423.182C567.947 421.472 568.703 420.318 570.134 420.318C571.626 420.318 572.362 421.571 572.362 423.182C572.362 424.812 571.606 426.105 570.134 426.105C568.723 426.105 567.947 424.912 567.947 423.182ZM580.137 423.878C580.137 425.31 579.044 425.966 578.169 425.966C577.194 425.966 576.498 425.25 576.498 424.136V419.364H575.325V424.216C575.325 426.165 576.359 427.099 577.791 427.099C578.944 427.099 579.7 426.483 580.058 425.707H580.137V427H581.311V419.364H580.137V423.878ZM586.781 419.364H585.15V417.534H583.977V419.364H582.823V420.358H583.977V425.131C583.977 426.463 585.051 427.099 586.045 427.099C586.482 427.099 586.761 427.02 586.92 426.96L586.681 425.906C586.582 425.926 586.423 425.966 586.164 425.966C585.647 425.966 585.15 425.807 585.15 424.812V420.358H586.781V419.364ZM593.338 427.08C593.83 427.08 594.233 426.677 594.233 426.185C594.233 425.692 593.83 425.29 593.338 425.29C592.846 425.29 592.443 425.692 592.443 426.185C592.443 426.677 592.846 427.08 593.338 427.08ZM597.194 427.08C597.686 427.08 598.089 426.677 598.089 426.185C598.089 425.692 597.686 425.29 597.194 425.29C596.701 425.29 596.299 425.692 596.299 426.185C596.299 426.677 596.701 427.08 597.194 427.08ZM601.049 427.08C601.541 427.08 601.944 426.677 601.944 426.185C601.944 425.692 601.541 425.29 601.049 425.29C600.557 425.29 600.154 425.692 600.154 426.185C600.154 426.677 600.557 427.08 601.049 427.08ZM605.223 422.406C605.223 421.074 606.048 420.318 607.172 420.318C608.26 420.318 608.922 421.029 608.922 422.227V427H610.095V422.148C610.095 420.199 609.056 419.264 607.51 419.264C606.356 419.264 605.64 419.781 605.282 420.557H605.183V419.364H604.049V427H605.223V422.406Z" fill="white"/>
<path d="M259.659 421.909C259.659 418.688 257.77 416.679 255.165 416.679C252.559 416.679 250.67 418.688 250.67 421.909C250.67 425.131 252.559 427.139 255.165 427.139C257.77 427.139 259.659 425.131 259.659 421.909ZM258.466 421.909C258.466 424.554 257.014 425.986 255.165 425.986C253.315 425.986 251.863 424.554 251.863 421.909C251.863 419.264 253.315 417.832 255.165 417.832C257.014 417.832 258.466 419.264 258.466 421.909ZM266.385 423.878C266.385 425.31 265.292 425.966 264.417 425.966C263.442 425.966 262.746 425.25 262.746 424.136V419.364H261.573V424.216C261.573 426.165 262.607 427.099 264.039 427.099C265.192 427.099 265.948 426.483 266.306 425.707H266.385V427H267.559V419.364H266.385V423.878ZM273.029 419.364H271.398V417.534H270.225V419.364H269.071V420.358H270.225V425.131C270.225 426.463 271.299 427.099 272.293 427.099C272.73 427.099 273.009 427.02 273.168 426.96L272.929 425.906C272.83 425.926 272.671 425.966 272.412 425.966C271.895 425.966 271.398 425.807 271.398 424.812V420.358H273.029V419.364ZM274.794 429.864H275.967V425.827H276.066C276.325 426.244 276.822 427.159 278.294 427.159C280.203 427.159 281.535 425.628 281.535 423.202C281.535 420.795 280.203 419.264 278.274 419.264C276.782 419.264 276.325 420.179 276.066 420.577H275.927V419.364H274.794V429.864ZM275.947 423.182C275.947 421.472 276.703 420.318 278.134 420.318C279.626 420.318 280.362 421.571 280.362 423.182C280.362 424.812 279.606 426.105 278.134 426.105C276.723 426.105 275.947 424.912 275.947 423.182ZM288.137 423.878C288.137 425.31 287.044 425.966 286.169 425.966C285.194 425.966 284.498 425.25 284.498 424.136V419.364H283.325V424.216C283.325 426.165 284.359 427.099 285.791 427.099C286.944 427.099 287.7 426.483 288.058 425.707H288.137V427H289.311V419.364H288.137V423.878ZM294.781 419.364H293.15V417.534H291.977V419.364H290.823V420.358H291.977V425.131C291.977 426.463 293.051 427.099 294.045 427.099C294.482 427.099 294.761 427.02 294.92 426.96L294.681 425.906C294.582 425.926 294.423 425.966 294.164 425.966C293.647 425.966 293.15 425.807 293.15 424.812V420.358H294.781V419.364ZM301.338 427.08C301.83 427.08 302.233 426.677 302.233 426.185C302.233 425.692 301.83 425.29 301.338 425.29C300.846 425.29 300.443 425.692 300.443 426.185C300.443 426.677 300.846 427.08 301.338 427.08ZM305.194 427.08C305.686 427.08 306.089 426.677 306.089 426.185C306.089 425.692 305.686 425.29 305.194 425.29C304.701 425.29 304.299 425.692 304.299 426.185C304.299 426.677 304.701 427.08 305.194 427.08ZM309.049 427.08C309.541 427.08 309.944 426.677 309.944 426.185C309.944 425.692 309.541 425.29 309.049 425.29C308.557 425.29 308.154 425.692 308.154 426.185C308.154 426.677 308.557 427.08 309.049 427.08ZM313.223 422.406C313.223 421.074 314.048 420.318 315.172 420.318C316.26 420.318 316.922 421.029 316.922 422.227V427H318.095V422.148C318.095 420.199 317.056 419.264 315.51 419.264C314.356 419.264 313.64 419.781 313.282 420.557H313.183V419.364H312.049V427H313.223V422.406Z" fill="white"/>
<path d="M130.658 250.909C130.658 247.688 128.769 245.679 126.164 245.679C123.558 245.679 121.669 247.688 121.669 250.909C121.669 254.131 123.558 256.139 126.164 256.139C128.769 256.139 130.658 254.131 130.658 250.909ZM129.465 250.909C129.465 253.554 128.013 254.986 126.164 254.986C124.314 254.986 122.862 253.554 122.862 250.909C122.862 248.264 124.314 246.832 126.164 246.832C128.013 246.832 129.465 248.264 129.465 250.909ZM137.384 252.878C137.384 254.31 136.291 254.966 135.416 254.966C134.441 254.966 133.745 254.25 133.745 253.136V248.364H132.572V253.216C132.572 255.165 133.606 256.099 135.038 256.099C136.191 256.099 136.947 255.483 137.305 254.707H137.384V256H138.558V248.364H137.384V252.878ZM144.028 248.364H142.397V246.534H141.224V248.364H140.07V249.358H141.224V254.131C141.224 255.463 142.298 256.099 143.292 256.099C143.729 256.099 144.008 256.02 144.167 255.96L143.928 254.906C143.829 254.926 143.67 254.966 143.411 254.966C142.894 254.966 142.397 254.807 142.397 253.812V249.358H144.028V248.364ZM145.793 258.864H146.966V254.827H147.065C147.324 255.244 147.821 256.159 149.293 256.159C151.202 256.159 152.534 254.628 152.534 252.202C152.534 249.795 151.202 248.264 149.273 248.264C147.781 248.264 147.324 249.179 147.065 249.577H146.926V248.364H145.793V258.864ZM146.946 252.182C146.946 250.472 147.702 249.318 149.134 249.318C150.625 249.318 151.361 250.571 151.361 252.182C151.361 253.812 150.605 255.105 149.134 255.105C147.722 255.105 146.946 253.912 146.946 252.182ZM159.136 252.878C159.136 254.31 158.043 254.966 157.168 254.966C156.193 254.966 155.497 254.25 155.497 253.136V248.364H154.324V253.216C154.324 255.165 155.358 256.099 156.79 256.099C157.943 256.099 158.699 255.483 159.057 254.707H159.136V256H160.31V248.364H159.136V252.878ZM165.78 248.364H164.149V246.534H162.976V248.364H161.822V249.358H162.976V254.131C162.976 255.463 164.05 256.099 165.044 256.099C165.481 256.099 165.76 256.02 165.919 255.96L165.68 254.906C165.581 254.926 165.422 254.966 165.163 254.966C164.646 254.966 164.149 254.807 164.149 253.812V249.358H165.78V248.364ZM171.641 256H175.32C177.726 256 178.721 254.827 178.721 253.295C178.721 251.685 177.607 250.81 176.672 250.75V250.651C177.547 250.412 178.323 249.835 178.323 248.523C178.323 247.031 177.329 245.818 175.201 245.818H171.641V256ZM172.874 254.906V251.366H175.38C176.712 251.366 177.547 252.261 177.547 253.295C177.547 254.19 176.931 254.906 175.32 254.906H172.874ZM172.874 250.293V246.912H175.201C176.553 246.912 177.15 247.628 177.15 248.523C177.15 249.597 176.275 250.293 175.161 250.293H172.874ZM185.002 252.918H191.127V251.844H185.002V252.918ZM185.002 249.974H191.127V248.901H185.002V249.974ZM197.671 256H204.094V254.906H199.362V254.827L201.648 252.381C203.398 250.506 203.915 249.631 203.915 248.503C203.915 246.932 202.643 245.679 200.853 245.679C199.068 245.679 197.711 246.892 197.711 248.682H198.884C198.884 247.523 199.635 246.753 200.813 246.753C201.917 246.753 202.762 247.429 202.762 248.503C202.762 249.442 202.21 250.138 201.032 251.426L197.671 255.105V256ZM209.469 256.139C211.716 256.139 213.009 254.235 213.009 250.909C213.009 247.608 211.696 245.679 209.469 245.679C207.241 245.679 205.929 247.608 205.929 250.909C205.929 254.235 207.222 256.139 209.469 256.139ZM209.469 255.045C207.987 255.045 207.122 253.559 207.122 250.909C207.122 248.264 207.997 246.753 209.469 246.753C210.94 246.753 211.815 248.264 211.815 250.909C211.815 253.559 210.95 255.045 209.469 255.045ZM214.918 256H216.091V248.364H214.918V256ZM215.514 247.091C215.972 247.091 216.349 246.733 216.349 246.295C216.349 245.858 215.972 245.5 215.514 245.5C215.057 245.5 214.679 245.858 214.679 246.295C214.679 246.733 215.057 247.091 215.514 247.091Z" fill="white"/>
<path d="M373.219 64L374.243 61.1165H378.36L379.384 64H380.676L376.938 53.8182H375.665L371.926 64H373.219ZM374.631 60.0227L376.262 55.429H376.341L377.972 60.0227H374.631ZM383.276 53.8182H382.103V64H383.276V53.8182ZM385.425 64H386.599V56.3636H385.425V64ZM386.022 55.0909C386.479 55.0909 386.857 54.733 386.857 54.2955C386.857 53.858 386.479 53.5 386.022 53.5C385.565 53.5 385.187 53.858 385.187 54.2955C385.187 54.733 385.565 55.0909 386.022 55.0909ZM391.85 64.1591C393.54 64.1591 394.654 63.125 394.853 61.7727H393.68C393.461 62.608 392.765 63.1051 391.85 63.1051C390.458 63.1051 389.563 61.9517 389.563 60.1818C389.563 58.4517 390.478 57.3182 391.85 57.3182C392.884 57.3182 393.501 57.9545 393.68 58.6506H394.853C394.654 57.2188 393.441 56.2642 391.83 56.2642C389.762 56.2642 388.39 57.8949 388.39 60.2216C388.39 62.5085 389.702 64.1591 391.85 64.1591ZM399.77 64.1591C401.321 64.1591 402.454 63.3835 402.812 62.2301L401.679 61.9119C401.381 62.7074 400.689 63.1051 399.77 63.1051C398.393 63.1051 397.443 62.2152 397.388 60.5795H402.932V60.0824C402.932 57.2386 401.241 56.2642 399.65 56.2642C397.582 56.2642 396.21 57.8949 396.21 60.2415C396.21 62.5881 397.562 64.1591 399.77 64.1591ZM397.388 59.5653C397.468 58.3771 398.308 57.3182 399.65 57.3182C400.923 57.3182 401.738 58.2727 401.738 59.5653H397.388ZM405.751 53.8182H404.637V54.733C404.637 55.4688 404.279 56.1051 403.861 56.7017L404.498 57.2188C405.293 56.5824 405.751 55.5284 405.751 54.7131V53.8182ZM411.629 58.0739C411.262 56.9901 410.436 56.2642 408.925 56.2642C407.314 56.2642 406.121 57.179 406.121 58.4716C406.121 59.5256 406.747 60.2315 408.149 60.5597L409.422 60.858C410.193 61.0369 410.556 61.4048 410.556 61.9318C410.556 62.5881 409.86 63.125 408.766 63.125C407.806 63.125 407.205 62.7124 406.996 61.892L405.882 62.1705C406.156 63.468 407.225 64.1591 408.786 64.1591C410.561 64.1591 411.769 63.1896 411.769 61.8722C411.769 60.8082 411.102 60.1371 409.74 59.804L408.607 59.5256C407.702 59.3018 407.294 58.9986 407.294 58.4119C407.294 57.7557 407.99 57.2784 408.925 57.2784C409.949 57.2784 410.372 57.8452 410.575 58.3722L411.629 58.0739ZM418.049 64L419.073 61.1165H423.19L424.214 64H425.506L421.768 53.8182H420.495L416.756 64H418.049ZM419.461 60.0227L421.092 55.429H421.171L422.802 60.0227H419.461ZM429.817 64.1591C431.288 64.1591 431.786 63.2443 432.044 62.8267H432.183V64H433.317V53.8182H432.143V57.5767H432.044C431.786 57.179 431.328 56.2642 429.837 56.2642C427.908 56.2642 426.575 57.7955 426.575 60.2017C426.575 62.6278 427.908 64.1591 429.817 64.1591ZM429.976 63.1051C428.504 63.1051 427.749 61.8125 427.749 60.1818C427.749 58.571 428.484 57.3182 429.976 57.3182C431.408 57.3182 432.163 58.4716 432.163 60.1818C432.163 61.9119 431.388 63.1051 429.976 63.1051ZM438.512 64.1591C439.984 64.1591 440.481 63.2443 440.739 62.8267H440.879V64H442.012V53.8182H440.839V57.5767H440.739C440.481 57.179 440.023 56.2642 438.532 56.2642C436.603 56.2642 435.271 57.7955 435.271 60.2017C435.271 62.6278 436.603 64.1591 438.512 64.1591ZM438.671 63.1051C437.2 63.1051 436.444 61.8125 436.444 60.1818C436.444 58.571 437.18 57.3182 438.671 57.3182C440.103 57.3182 440.859 58.4716 440.859 60.1818C440.859 61.9119 440.083 63.1051 438.671 63.1051ZM444.324 64H445.497V59.1676C445.497 58.1335 446.312 57.3778 447.426 57.3778C447.739 57.3778 448.062 57.4375 448.142 57.4574V56.2642C448.008 56.2543 447.7 56.2443 447.526 56.2443C446.611 56.2443 445.815 56.7614 445.537 57.517H445.457V56.3636H444.324V64ZM452.502 64.1591C454.053 64.1591 455.187 63.3835 455.545 62.2301L454.411 61.9119C454.113 62.7074 453.422 63.1051 452.502 63.1051C451.125 63.1051 450.175 62.2152 450.121 60.5795H455.664V60.0824C455.664 57.2386 453.974 56.2642 452.383 56.2642C450.315 56.2642 448.942 57.8949 448.942 60.2415C448.942 62.5881 450.295 64.1591 452.502 64.1591ZM450.121 59.5653C450.2 58.3771 451.04 57.3182 452.383 57.3182C453.656 57.3182 454.471 58.2727 454.471 59.5653H450.121ZM462.858 58.0739C462.49 56.9901 461.665 56.2642 460.153 56.2642C458.543 56.2642 457.349 57.179 457.349 58.4716C457.349 59.5256 457.976 60.2315 459.378 60.5597L460.651 60.858C461.421 61.0369 461.784 61.4048 461.784 61.9318C461.784 62.5881 461.088 63.125 459.994 63.125C459.035 63.125 458.433 62.7124 458.224 61.892L457.111 62.1705C457.384 63.468 458.453 64.1591 460.014 64.1591C461.789 64.1591 462.997 63.1896 462.997 61.8722C462.997 60.8082 462.331 60.1371 460.969 59.804L459.835 59.5256C458.93 59.3018 458.523 58.9986 458.523 58.4119C458.523 57.7557 459.219 57.2784 460.153 57.2784C461.178 57.2784 461.6 57.8452 461.804 58.3722L462.858 58.0739ZM470.172 58.0739C469.805 56.9901 468.979 56.2642 467.468 56.2642C465.857 56.2642 464.664 57.179 464.664 58.4716C464.664 59.5256 465.29 60.2315 466.692 60.5597L467.965 60.858C468.736 61.0369 469.099 61.4048 469.099 61.9318C469.099 62.5881 468.403 63.125 467.309 63.125C466.349 63.125 465.748 62.7124 465.539 61.892L464.425 62.1705C464.699 63.468 465.768 64.1591 467.329 64.1591C469.104 64.1591 470.312 63.1896 470.312 61.8722C470.312 60.8082 469.645 60.1371 468.283 59.804L467.15 59.5256C466.245 59.3018 465.837 58.9986 465.837 58.4119C465.837 57.7557 466.533 57.2784 467.468 57.2784C468.492 57.2784 468.915 57.8452 469.118 58.3722L470.172 58.0739ZM476.771 53.8182H475.319L478.6 58.9091L475.319 64H476.771L479.396 59.8438H479.475L482.1 64H483.552L480.35 58.9091L483.552 53.8182H482.1L479.475 58.054H479.396L476.771 53.8182ZM488.557 53.8182H487.324L484.779 55.5085V56.7614L487.265 55.1108H487.324V64H488.557V53.8182Z" fill="#C56550"/>
<path d="M369.65 226H375.616V224.906H370.883V215.818H369.65V226ZM377.366 226H378.539V218.364H377.366V226ZM377.962 217.091C378.42 217.091 378.798 216.733 378.798 216.295C378.798 215.858 378.42 215.5 377.962 215.5C377.505 215.5 377.127 215.858 377.127 216.295C377.127 216.733 377.505 217.091 377.962 217.091ZM381.861 221.406C381.861 220.074 382.687 219.318 383.81 219.318C384.899 219.318 385.56 220.029 385.56 221.227V226H386.734V221.148C386.734 219.199 385.695 218.264 384.148 218.264C382.995 218.264 382.279 218.781 381.921 219.557H381.822V218.364H380.688V226H381.861V221.406ZM391.761 226.159C393.233 226.159 393.73 225.244 393.988 224.827H394.128V226H395.261V215.818H394.088V219.577H393.988C393.73 219.179 393.272 218.264 391.781 218.264C389.852 218.264 388.52 219.795 388.52 222.202C388.52 224.628 389.852 226.159 391.761 226.159ZM391.92 225.105C390.449 225.105 389.693 223.812 389.693 222.182C389.693 220.571 390.429 219.318 391.92 219.318C393.352 219.318 394.108 220.472 394.108 222.182C394.108 223.912 393.332 225.105 391.92 225.105ZM399.82 226.179C401.152 226.179 401.848 225.463 402.087 224.966H402.147V226H403.32V220.969C403.32 218.543 401.471 218.264 400.496 218.264C399.343 218.264 398.03 218.662 397.434 220.054L398.547 220.452C398.806 219.895 399.417 219.298 400.536 219.298C401.615 219.298 402.147 219.87 402.147 220.849V220.889C402.147 221.456 401.57 221.406 400.178 221.585C398.761 221.769 397.215 222.082 397.215 223.832C397.215 225.324 398.368 226.179 399.82 226.179ZM399.999 225.125C399.064 225.125 398.388 224.707 398.388 223.892C398.388 222.997 399.204 222.719 400.118 222.599C400.616 222.54 401.948 222.401 402.147 222.162V223.236C402.147 224.19 401.391 225.125 399.999 225.125ZM406.496 215.818H405.382V216.733C405.382 217.469 405.024 218.105 404.606 218.702L405.243 219.219C406.038 218.582 406.496 217.528 406.496 216.713V215.818ZM412.375 220.074C412.007 218.99 411.181 218.264 409.67 218.264C408.059 218.264 406.866 219.179 406.866 220.472C406.866 221.526 407.492 222.232 408.894 222.56L410.167 222.858C410.938 223.037 411.301 223.405 411.301 223.932C411.301 224.588 410.605 225.125 409.511 225.125C408.551 225.125 407.95 224.712 407.741 223.892L406.627 224.17C406.901 225.468 407.97 226.159 409.531 226.159C411.306 226.159 412.514 225.19 412.514 223.872C412.514 222.808 411.848 222.137 410.485 221.804L409.352 221.526C408.447 221.302 408.039 220.999 408.039 220.412C408.039 219.756 408.735 219.278 409.67 219.278C410.694 219.278 411.117 219.845 411.321 220.372L412.375 220.074ZM418.794 226L419.818 223.116H423.935L424.959 226H426.252L422.513 215.818H421.24L417.502 226H418.794ZM420.206 222.023L421.837 217.429H421.916L423.547 222.023H420.206ZM430.562 226.159C432.033 226.159 432.531 225.244 432.789 224.827H432.928V226H434.062V215.818H432.889V219.577H432.789C432.531 219.179 432.073 218.264 430.582 218.264C428.653 218.264 427.32 219.795 427.32 222.202C427.32 224.628 428.653 226.159 430.562 226.159ZM430.721 225.105C429.249 225.105 428.494 223.812 428.494 222.182C428.494 220.571 429.229 219.318 430.721 219.318C432.153 219.318 432.908 220.472 432.908 222.182C432.908 223.912 432.133 225.105 430.721 225.105ZM439.257 226.159C440.729 226.159 441.226 225.244 441.484 224.827H441.624V226H442.757V215.818H441.584V219.577H441.484C441.226 219.179 440.769 218.264 439.277 218.264C437.348 218.264 436.016 219.795 436.016 222.202C436.016 224.628 437.348 226.159 439.257 226.159ZM439.416 225.105C437.945 225.105 437.189 223.812 437.189 222.182C437.189 220.571 437.925 219.318 439.416 219.318C440.848 219.318 441.604 220.472 441.604 222.182C441.604 223.912 440.828 225.105 439.416 225.105ZM445.069 226H446.242V221.168C446.242 220.134 447.058 219.378 448.171 219.378C448.484 219.378 448.808 219.438 448.887 219.457V218.264C448.753 218.254 448.445 218.244 448.271 218.244C447.356 218.244 446.56 218.761 446.282 219.517H446.203V218.364H445.069V226ZM453.247 226.159C454.798 226.159 455.932 225.384 456.29 224.23L455.156 223.912C454.858 224.707 454.167 225.105 453.247 225.105C451.87 225.105 450.921 224.215 450.866 222.58H456.409V222.082C456.409 219.239 454.719 218.264 453.128 218.264C451.06 218.264 449.688 219.895 449.688 222.241C449.688 224.588 451.04 226.159 453.247 226.159ZM450.866 221.565C450.945 220.377 451.786 219.318 453.128 219.318C454.401 219.318 455.216 220.273 455.216 221.565H450.866ZM463.603 220.074C463.235 218.99 462.41 218.264 460.899 218.264C459.288 218.264 458.095 219.179 458.095 220.472C458.095 221.526 458.721 222.232 460.123 222.56L461.396 222.858C462.166 223.037 462.529 223.405 462.529 223.932C462.529 224.588 461.833 225.125 460.739 225.125C459.78 225.125 459.178 224.712 458.97 223.892L457.856 224.17C458.129 225.468 459.198 226.159 460.759 226.159C462.534 226.159 463.742 225.19 463.742 223.872C463.742 222.808 463.076 222.137 461.714 221.804L460.58 221.526C459.676 221.302 459.268 220.999 459.268 220.412C459.268 219.756 459.964 219.278 460.899 219.278C461.923 219.278 462.345 219.845 462.549 220.372L463.603 220.074ZM470.918 220.074C470.55 218.99 469.724 218.264 468.213 218.264C466.602 218.264 465.409 219.179 465.409 220.472C465.409 221.526 466.035 222.232 467.437 222.56L468.71 222.858C469.481 223.037 469.844 223.405 469.844 223.932C469.844 224.588 469.148 225.125 468.054 225.125C467.094 225.125 466.493 224.712 466.284 223.892L465.17 224.17C465.444 225.468 466.513 226.159 468.074 226.159C469.849 226.159 471.057 225.19 471.057 223.872C471.057 222.808 470.391 222.137 469.028 221.804L467.895 221.526C466.99 221.302 466.582 220.999 466.582 220.412C466.582 219.756 467.278 219.278 468.213 219.278C469.237 219.278 469.66 219.845 469.864 220.372L470.918 220.074ZM477.516 215.818H476.064L479.346 220.909L476.064 226H477.516L480.141 221.844H480.221L482.846 226H484.297L481.096 220.909L484.297 215.818H482.846L480.221 220.054H480.141L477.516 215.818ZM489.163 226.139C491.137 226.139 492.604 224.901 492.604 223.236C492.604 221.943 491.838 221.004 490.555 220.79V220.71C491.584 220.397 492.226 219.552 492.226 218.403C492.226 216.962 491.087 215.679 489.203 215.679C487.443 215.679 485.981 216.763 485.922 218.364H487.115C487.16 217.349 488.124 216.753 489.183 216.753C490.307 216.753 491.033 217.434 491.033 218.463C491.033 219.537 490.192 220.233 488.984 220.233H488.169V221.327H488.984C490.53 221.327 491.391 222.112 491.391 223.236C491.391 224.315 490.451 225.045 489.143 225.045C487.965 225.045 487.03 224.439 486.956 223.455H485.703C485.778 225.055 487.19 226.139 489.163 226.139Z" fill="#4EA793"/>
<path d="M635.219 226L636.243 223.116H640.36L641.384 226H642.676L638.938 215.818H637.665L633.926 226H635.219ZM636.631 222.023L638.262 217.429H638.341L639.972 222.023H636.631ZM645.276 215.818H644.103V226H645.276V215.818ZM647.425 226H648.599V218.364H647.425V226ZM648.022 217.091C648.479 217.091 648.857 216.733 648.857 216.295C648.857 215.858 648.479 215.5 648.022 215.5C647.565 215.5 647.187 215.858 647.187 216.295C647.187 216.733 647.565 217.091 648.022 217.091ZM653.85 226.159C655.54 226.159 656.654 225.125 656.853 223.773H655.68C655.461 224.608 654.765 225.105 653.85 225.105C652.458 225.105 651.563 223.952 651.563 222.182C651.563 220.452 652.478 219.318 653.85 219.318C654.884 219.318 655.501 219.955 655.68 220.651H656.853C656.654 219.219 655.441 218.264 653.83 218.264C651.762 218.264 650.39 219.895 650.39 222.222C650.39 224.509 651.702 226.159 653.85 226.159ZM661.77 226.159C663.321 226.159 664.454 225.384 664.812 224.23L663.679 223.912C663.381 224.707 662.689 225.105 661.77 225.105C660.393 225.105 659.443 224.215 659.388 222.58H664.932V222.082C664.932 219.239 663.241 218.264 661.65 218.264C659.582 218.264 658.21 219.895 658.21 222.241C658.21 224.588 659.562 226.159 661.77 226.159ZM659.388 221.565C659.468 220.377 660.308 219.318 661.65 219.318C662.923 219.318 663.738 220.273 663.738 221.565H659.388ZM667.751 215.818H666.637V216.733C666.637 217.469 666.279 218.105 665.861 218.702L666.498 219.219C667.293 218.582 667.751 217.528 667.751 216.713V215.818ZM673.629 220.074C673.262 218.99 672.436 218.264 670.925 218.264C669.314 218.264 668.121 219.179 668.121 220.472C668.121 221.526 668.747 222.232 670.149 222.56L671.422 222.858C672.193 223.037 672.556 223.405 672.556 223.932C672.556 224.588 671.86 225.125 670.766 225.125C669.806 225.125 669.205 224.712 668.996 223.892L667.882 224.17C668.156 225.468 669.225 226.159 670.786 226.159C672.561 226.159 673.769 225.19 673.769 223.872C673.769 222.808 673.102 222.137 671.74 221.804L670.607 221.526C669.702 221.302 669.294 220.999 669.294 220.412C669.294 219.756 669.99 219.278 670.925 219.278C671.949 219.278 672.372 219.845 672.575 220.372L673.629 220.074ZM680.049 226L681.073 223.116H685.19L686.214 226H687.506L683.768 215.818H682.495L678.756 226H680.049ZM681.461 222.023L683.092 217.429H683.171L684.802 222.023H681.461ZM691.817 226.159C693.288 226.159 693.786 225.244 694.044 224.827H694.183V226H695.317V215.818H694.143V219.577H694.044C693.786 219.179 693.328 218.264 691.837 218.264C689.908 218.264 688.575 219.795 688.575 222.202C688.575 224.628 689.908 226.159 691.817 226.159ZM691.976 225.105C690.504 225.105 689.749 223.812 689.749 222.182C689.749 220.571 690.484 219.318 691.976 219.318C693.408 219.318 694.163 220.472 694.163 222.182C694.163 223.912 693.388 225.105 691.976 225.105ZM700.512 226.159C701.984 226.159 702.481 225.244 702.739 224.827H702.879V226H704.012V215.818H702.839V219.577H702.739C702.481 219.179 702.023 218.264 700.532 218.264C698.603 218.264 697.271 219.795 697.271 222.202C697.271 224.628 698.603 226.159 700.512 226.159ZM700.671 225.105C699.2 225.105 698.444 223.812 698.444 222.182C698.444 220.571 699.18 219.318 700.671 219.318C702.103 219.318 702.859 220.472 702.859 222.182C702.859 223.912 702.083 225.105 700.671 225.105ZM706.324 226H707.497V221.168C707.497 220.134 708.312 219.378 709.426 219.378C709.739 219.378 710.062 219.438 710.142 219.457V218.264C710.008 218.254 709.7 218.244 709.526 218.244C708.611 218.244 707.815 218.761 707.537 219.517H707.457V218.364H706.324V226ZM714.502 226.159C716.053 226.159 717.187 225.384 717.545 224.23L716.411 223.912C716.113 224.707 715.422 225.105 714.502 225.105C713.125 225.105 712.175 224.215 712.121 222.58H717.664V222.082C717.664 219.239 715.974 218.264 714.383 218.264C712.315 218.264 710.942 219.895 710.942 222.241C710.942 224.588 712.295 226.159 714.502 226.159ZM712.121 221.565C712.2 220.377 713.04 219.318 714.383 219.318C715.656 219.318 716.471 220.273 716.471 221.565H712.121ZM724.858 220.074C724.49 218.99 723.665 218.264 722.153 218.264C720.543 218.264 719.349 219.179 719.349 220.472C719.349 221.526 719.976 222.232 721.378 222.56L722.651 222.858C723.421 223.037 723.784 223.405 723.784 223.932C723.784 224.588 723.088 225.125 721.994 225.125C721.035 225.125 720.433 224.712 720.224 223.892L719.111 224.17C719.384 225.468 720.453 226.159 722.014 226.159C723.789 226.159 724.997 225.19 724.997 223.872C724.997 222.808 724.331 222.137 722.969 221.804L721.835 221.526C720.93 221.302 720.523 220.999 720.523 220.412C720.523 219.756 721.219 219.278 722.153 219.278C723.178 219.278 723.6 219.845 723.804 220.372L724.858 220.074ZM732.172 220.074C731.805 218.99 730.979 218.264 729.468 218.264C727.857 218.264 726.664 219.179 726.664 220.472C726.664 221.526 727.29 222.232 728.692 222.56L729.965 222.858C730.736 223.037 731.099 223.405 731.099 223.932C731.099 224.588 730.403 225.125 729.309 225.125C728.349 225.125 727.748 224.712 727.539 223.892L726.425 224.17C726.699 225.468 727.768 226.159 729.329 226.159C731.104 226.159 732.312 225.19 732.312 223.872C732.312 222.808 731.645 222.137 730.283 221.804L729.15 221.526C728.245 221.302 727.837 220.999 727.837 220.412C727.837 219.756 728.533 219.278 729.468 219.278C730.492 219.278 730.915 219.845 731.118 220.372L732.172 220.074ZM738.771 215.818H737.319L740.6 220.909L737.319 226H738.771L741.396 221.844H741.475L744.1 226H745.552L742.35 220.909L745.552 215.818H744.1L741.475 220.054H741.396L738.771 215.818ZM750.557 215.818H749.324L746.779 217.509V218.761L749.265 217.111H749.324V226H750.557V215.818Z" fill="#485A68"/>
<path d="M111.738 226H112.971V222.281H115.198C117.57 222.281 118.638 220.839 118.638 219.04C118.638 217.24 117.57 215.818 115.178 215.818H111.738V226ZM112.971 221.188V216.912H115.138C116.794 216.912 117.425 217.817 117.425 219.04C117.425 220.263 116.794 221.188 115.158 221.188H112.971ZM122.713 226.179C124.045 226.179 124.741 225.463 124.98 224.966H125.039V226H126.213V220.969C126.213 218.543 124.363 218.264 123.389 218.264C122.235 218.264 120.923 218.662 120.326 220.054L121.44 220.452C121.698 219.895 122.31 219.298 123.429 219.298C124.507 219.298 125.039 219.87 125.039 220.849V220.889C125.039 221.456 124.463 221.406 123.071 221.585C121.654 221.769 120.108 222.082 120.108 223.832C120.108 225.324 121.261 226.179 122.713 226.179ZM122.892 225.125C121.957 225.125 121.281 224.707 121.281 223.892C121.281 222.997 122.096 222.719 123.011 222.599C123.508 222.54 124.84 222.401 125.039 222.162V223.236C125.039 224.19 124.284 225.125 122.892 225.125ZM133.167 222.878C133.167 224.31 132.073 224.966 131.198 224.966C130.223 224.966 129.527 224.25 129.527 223.136V218.364H128.354V223.216C128.354 225.165 129.388 226.099 130.82 226.099C131.973 226.099 132.729 225.483 133.087 224.707H133.167V226H134.34V218.364H133.167V222.878ZM137.662 215.818H136.489V226H137.662V215.818ZM140.845 215.818H139.732V216.733C139.732 217.469 139.374 218.105 138.956 218.702L139.592 219.219C140.388 218.582 140.845 217.528 140.845 216.713V215.818ZM146.724 220.074C146.356 218.99 145.531 218.264 144.02 218.264C142.409 218.264 141.216 219.179 141.216 220.472C141.216 221.526 141.842 222.232 143.244 222.56L144.517 222.858C145.287 223.037 145.65 223.405 145.65 223.932C145.65 224.588 144.954 225.125 143.861 225.125C142.901 225.125 142.299 224.712 142.091 223.892L140.977 224.17C141.25 225.468 142.319 226.159 143.88 226.159C145.655 226.159 146.863 225.19 146.863 223.872C146.863 222.808 146.197 222.137 144.835 221.804L143.701 221.526C142.797 221.302 142.389 220.999 142.389 220.412C142.389 219.756 143.085 219.278 144.02 219.278C145.044 219.278 145.466 219.845 145.67 220.372L146.724 220.074ZM153.144 226L154.168 223.116H158.284L159.309 226H160.601L156.862 215.818H155.59L151.851 226H153.144ZM154.556 222.023L156.186 217.429H156.266L157.897 222.023H154.556ZM164.911 226.159C166.383 226.159 166.88 225.244 167.139 224.827H167.278V226H168.411V215.818H167.238V219.577H167.139C166.88 219.179 166.423 218.264 164.931 218.264C163.002 218.264 161.67 219.795 161.67 222.202C161.67 224.628 163.002 226.159 164.911 226.159ZM165.071 225.105C163.599 225.105 162.843 223.812 162.843 222.182C162.843 220.571 163.579 219.318 165.071 219.318C166.502 219.318 167.258 220.472 167.258 222.182C167.258 223.912 166.483 225.105 165.071 225.105ZM173.607 226.159C175.078 226.159 175.576 225.244 175.834 224.827H175.973V226H177.107V215.818H175.934V219.577H175.834C175.576 219.179 175.118 218.264 173.627 218.264C171.698 218.264 170.365 219.795 170.365 222.202C170.365 224.628 171.698 226.159 173.607 226.159ZM173.766 225.105C172.294 225.105 171.539 223.812 171.539 222.182C171.539 220.571 172.274 219.318 173.766 219.318C175.198 219.318 175.953 220.472 175.953 222.182C175.953 223.912 175.178 225.105 173.766 225.105ZM179.419 226H180.592V221.168C180.592 220.134 181.407 219.378 182.521 219.378C182.834 219.378 183.157 219.438 183.237 219.457V218.264C183.103 218.254 182.794 218.244 182.62 218.244C181.706 218.244 180.91 218.761 180.632 219.517H180.552V218.364H179.419V226ZM187.597 226.159C189.148 226.159 190.282 225.384 190.639 224.23L189.506 223.912C189.208 224.707 188.517 225.105 187.597 225.105C186.22 225.105 185.27 224.215 185.215 222.58H190.759V222.082C190.759 219.239 189.068 218.264 187.478 218.264C185.409 218.264 184.037 219.895 184.037 222.241C184.037 224.588 185.389 226.159 187.597 226.159ZM185.215 221.565C185.295 220.377 186.135 219.318 187.478 219.318C188.75 219.318 189.566 220.273 189.566 221.565H185.215ZM197.953 220.074C197.585 218.99 196.759 218.264 195.248 218.264C193.637 218.264 192.444 219.179 192.444 220.472C192.444 221.526 193.071 222.232 194.473 222.56L195.745 222.858C196.516 223.037 196.879 223.405 196.879 223.932C196.879 224.588 196.183 225.125 195.089 225.125C194.13 225.125 193.528 224.712 193.319 223.892L192.206 224.17C192.479 225.468 193.548 226.159 195.109 226.159C196.884 226.159 198.092 225.19 198.092 223.872C198.092 222.808 197.426 222.137 196.063 221.804L194.93 221.526C194.025 221.302 193.617 220.999 193.617 220.412C193.617 219.756 194.313 219.278 195.248 219.278C196.272 219.278 196.695 219.845 196.899 220.372L197.953 220.074ZM205.267 220.074C204.899 218.99 204.074 218.264 202.563 218.264C200.952 218.264 199.759 219.179 199.759 220.472C199.759 221.526 200.385 222.232 201.787 222.56L203.06 222.858C203.83 223.037 204.193 223.405 204.193 223.932C204.193 224.588 203.497 225.125 202.403 225.125C201.444 225.125 200.842 224.712 200.634 223.892L199.52 224.17C199.793 225.468 200.862 226.159 202.423 226.159C204.198 226.159 205.406 225.19 205.406 223.872C205.406 222.808 204.74 222.137 203.378 221.804L202.244 221.526C201.34 221.302 200.932 220.999 200.932 220.412C200.932 219.756 201.628 219.278 202.563 219.278C203.587 219.278 204.009 219.845 204.213 220.372L205.267 220.074ZM211.866 215.818H210.414L213.695 220.909L210.414 226H211.866L214.491 221.844H214.57L217.195 226H218.647L215.445 220.909L218.647 215.818H217.195L214.57 220.054H214.491L211.866 215.818ZM220.073 226H226.496V224.906H221.763V224.827L224.05 222.381C225.8 220.506 226.317 219.631 226.317 218.503C226.317 216.932 225.044 215.679 223.254 215.679C221.47 215.679 220.112 216.892 220.112 218.682H221.286C221.286 217.523 222.036 216.753 223.215 216.753C224.318 216.753 225.163 217.429 225.163 218.503C225.163 219.442 224.612 220.138 223.433 221.426L220.073 225.105V226Z" fill="#3C7266"/>
<line x1="26" y1="324.5" x2="802" y2="324.5" stroke="#293856" stroke-width="5" stroke-dasharray="25 25"/>
<line x1="26" y1="153.5" x2="802" y2="153.5" stroke="#293856" stroke-width="5" stroke-dasharray="25 25"/>
<path d="M27.9152 58H34.433V56.2251H30.0679V47.8182H27.9152V58ZM35.8586 58H42.7393V56.2251H38.0113V53.794H42.3664V52.0192H38.0113V49.593H42.7194V47.8182H35.8586V58ZM48.0402 58C51.1425 58 53.0218 56.081 53.0218 52.8991C53.0218 49.7273 51.1425 47.8182 48.07 47.8182H44.4308V58H48.0402ZM46.5835 56.1555V49.6626H47.9557C49.8648 49.6626 50.874 50.6371 50.874 52.8991C50.874 55.1712 49.8648 56.1555 47.9507 56.1555H46.5835ZM61.3678 51.1094H63.5553C63.2769 49.0959 61.502 47.679 59.2002 47.679C56.5106 47.679 54.4374 49.6179 54.4374 52.919C54.4374 56.1406 56.3763 58.1392 59.2449 58.1392C61.8153 58.1392 63.6498 56.5135 63.6498 53.8338V52.5511H59.3891V54.1719H61.5766C61.5468 55.4347 60.6867 56.2351 59.2549 56.2351C57.6391 56.2351 56.6199 55.027 56.6199 52.8991C56.6199 50.7812 57.6789 49.5831 59.235 49.5831C60.3437 49.5831 61.0944 50.1548 61.3678 51.1094ZM65.2668 58H72.1475V56.2251H67.4195V53.794H71.7746V52.0192H67.4195V49.593H72.1276V47.8182H65.2668V58ZM73.839 58H75.9917V54.3906H77.5628L79.4917 58H81.8682L79.7055 54.0426C80.8639 53.5455 81.5052 52.5362 81.5052 51.1442C81.5052 49.1207 80.1679 47.8182 77.8561 47.8182H73.839V58ZM75.9917 52.6605V49.5781H77.4434C78.6863 49.5781 79.2879 50.13 79.2879 51.1442C79.2879 52.1534 78.6863 52.6605 77.4534 52.6605H75.9917ZM91.7902 50.7464H93.8534C93.8236 48.9318 92.3321 47.679 90.0651 47.679C87.8328 47.679 86.1972 48.9119 86.2071 50.7614C86.2021 52.2628 87.2611 53.1229 88.9813 53.5355L90.0899 53.8139C91.1986 54.0824 91.8151 54.4006 91.82 55.0866C91.8151 55.8324 91.1091 56.3395 90.0154 56.3395C88.8968 56.3395 88.0914 55.8224 88.0218 54.8033H85.9387C85.9933 57.0057 87.5693 58.1442 90.0402 58.1442C92.526 58.1442 93.9877 56.956 93.9926 55.0916C93.9877 53.3963 92.71 52.4964 90.9401 52.0987L90.0253 51.88C89.1404 51.6761 88.3996 51.348 88.4145 50.6172C88.4145 49.9609 88.9962 49.4787 90.0502 49.4787C91.0793 49.4787 91.7107 49.946 91.7902 50.7464ZM95.0528 49.593H98.17V58H100.298V49.593H103.415V47.8182H95.0528V49.593ZM105.289 58L106.045 55.6783H109.719L110.475 58H112.782L109.272 47.8182H106.497L102.983 58H105.289ZM106.592 53.9979L107.845 50.1449H107.924L109.177 53.9979H106.592ZM112.361 49.593H115.479V58H117.606V49.593H120.724V47.8182H112.361V49.593ZM122.101 58H128.981V56.2251H124.253V53.794H128.609V52.0192H124.253V49.593H128.962V47.8182H122.101V58ZM137.731 58H139.322L139.735 55.4744H141.127L141.391 53.8835H139.998L140.317 51.9347H141.709L141.977 50.3438H140.58L140.993 47.8182H139.402L138.989 50.3438H137.001L137.413 47.8182H135.822L135.41 50.3438H134.023L133.754 51.9347H135.146L134.828 53.8835H133.436L133.172 55.4744H134.565L134.152 58H135.743L136.155 55.4744H138.144L137.731 58ZM136.419 53.8835L136.737 51.9347H138.726L138.408 53.8835H136.419ZM147.375 47.8182H145.352L142.831 49.4141V51.3232L145.163 49.8615H145.222V58H147.375V47.8182Z" fill="#293856"/>
<path d="M652.801 49.593H655.918V58H658.046V49.593H661.163V47.8182H652.801V49.593ZM671.446 52.9091C671.446 49.5781 669.377 47.679 666.678 47.679C663.963 47.679 661.91 49.5781 661.91 52.9091C661.91 56.2251 663.963 58.1392 666.678 58.1392C669.377 58.1392 671.446 56.2401 671.446 52.9091ZM669.263 52.9091C669.263 55.0668 668.239 56.2351 666.678 56.2351C665.112 56.2351 664.093 55.0668 664.093 52.9091C664.093 50.7514 665.112 49.5831 666.678 49.5831C668.239 49.5831 669.263 50.7514 669.263 52.9091ZM672.201 49.593H675.318V58H677.446V49.593H680.563V47.8182H672.201V49.593ZM682.438 58L683.193 55.6783H686.867L687.623 58H689.93L686.42 47.8182H683.646L680.131 58H682.438ZM683.74 53.9979L684.993 50.1449H685.073L686.326 53.9979H683.74ZM691.155 58H697.673V56.2251H693.308V47.8182H691.155V58ZM707.862 50.7464H709.926C709.896 48.9318 708.404 47.679 706.137 47.679C703.905 47.679 702.269 48.9119 702.279 50.7614C702.274 52.2628 703.333 53.1229 705.054 53.5355L706.162 53.8139C707.271 54.0824 707.887 54.4006 707.892 55.0866C707.887 55.8324 707.181 56.3395 706.088 56.3395C704.969 56.3395 704.164 55.8224 704.094 54.8033H702.011C702.066 57.0057 703.642 58.1442 706.112 58.1442C708.598 58.1442 710.06 56.956 710.065 55.0916C710.06 53.3963 708.782 52.4964 707.012 52.0987L706.098 51.88C705.213 51.6761 704.472 51.348 704.487 50.6172C704.487 49.9609 705.068 49.4787 706.122 49.4787C707.152 49.4787 707.783 49.946 707.862 50.7464ZM717.802 47.8182V54.2464C717.802 55.4098 716.987 56.25 715.734 56.25C714.486 56.25 713.666 55.4098 713.666 54.2464V47.8182H711.513V54.4304C711.513 56.6577 713.193 58.1442 715.734 58.1442C718.264 58.1442 719.955 56.6577 719.955 54.4304V47.8182H717.802ZM721.726 58H723.878V54.6989H725.688C728.03 54.6989 729.392 53.3018 729.392 51.2685C729.392 49.245 728.055 47.8182 725.743 47.8182H721.726V58ZM723.878 52.9737V49.5781H725.33C726.573 49.5781 727.175 50.2543 727.175 51.2685C727.175 52.2777 726.573 52.9737 725.34 52.9737H723.878ZM730.79 58H732.943V54.6989H734.753C737.094 54.6989 738.456 53.3018 738.456 51.2685C738.456 49.245 737.119 47.8182 734.807 47.8182H730.79V58ZM732.943 52.9737V49.5781H734.395C735.638 49.5781 736.239 50.2543 736.239 51.2685C736.239 52.2777 735.638 52.9737 734.405 52.9737H732.943ZM739.855 58H746.372V56.2251H742.007V47.8182H739.855V58ZM745.903 47.8182L749.616 54.4006V58H751.754V54.4006L755.468 47.8182H753.057L750.735 52.2031H750.636L748.314 47.8182H745.903ZM760.321 55.4396H767.187V53.6747H760.321V55.4396ZM760.321 52.1385H767.187V50.3736H760.321V52.1385ZM777.01 47.8182H774.986L772.466 49.4141V51.3232L774.797 49.8615H774.857V58H777.01V47.8182ZM783.422 58.2237C785.982 58.2237 787.528 56.2749 787.533 52.919C787.538 49.5881 785.972 47.679 783.422 47.679C780.867 47.679 779.315 49.5831 779.31 52.919C779.301 56.2649 780.857 58.2188 783.422 58.2237ZM783.422 56.4389C782.254 56.4389 781.498 55.2656 781.503 52.919C781.508 50.6072 782.259 49.4439 783.422 49.4439C784.58 49.4439 785.336 50.6072 785.336 52.919C785.341 55.2656 784.585 56.4389 783.422 56.4389ZM793.061 58.2237C795.621 58.2237 797.167 56.2749 797.172 52.919C797.177 49.5881 795.611 47.679 793.061 47.679C790.505 47.679 788.954 49.5831 788.949 52.919C788.939 56.2649 790.495 58.2188 793.061 58.2237ZM793.061 56.4389C791.892 56.4389 791.137 55.2656 791.142 52.919C791.147 50.6072 791.897 49.4439 793.061 49.4439C794.219 49.4439 794.975 50.6072 794.975 52.919C794.98 55.2656 794.224 56.4389 793.061 56.4389ZM798.727 58H800.845V50.3636H798.727V58ZM799.791 49.3793C800.422 49.3793 800.939 48.897 800.939 48.3054C800.939 47.7188 800.422 47.2365 799.791 47.2365C799.165 47.2365 798.647 47.7188 798.647 48.3054C798.647 48.897 799.165 49.3793 799.791 49.3793Z" fill="#293856"/>
<path d="M27.2258 180H33.7435V178.225H29.3785V169.818H27.2258V180ZM35.1691 180H42.0498V178.225H37.3218V175.794H41.6769V174.019H37.3218V171.593H42.0299V169.818H35.1691V180ZM47.3508 180C50.453 180 52.3323 178.081 52.3323 174.899C52.3323 171.727 50.453 169.818 47.3806 169.818H43.7414V180H47.3508ZM45.8941 178.156V171.663H47.2662C49.1753 171.663 50.1846 172.637 50.1846 174.899C50.1846 177.171 49.1753 178.156 47.2613 178.156H45.8941ZM60.6784 173.109H62.8659C62.5874 171.096 60.8126 169.679 58.5107 169.679C55.8211 169.679 53.748 171.618 53.748 174.919C53.748 178.141 55.6869 180.139 58.5555 180.139C61.1258 180.139 62.9603 178.513 62.9603 175.834V174.551H58.6997V176.172H60.8872C60.8573 177.435 59.9972 178.235 58.5654 178.235C56.9497 178.235 55.9305 177.027 55.9305 174.899C55.9305 172.781 56.9894 171.583 58.5455 171.583C59.6542 171.583 60.4049 172.155 60.6784 173.109ZM64.5773 180H71.458V178.225H66.73V175.794H71.0851V174.019H66.73V171.593H71.4381V169.818H64.5773V180ZM73.1496 180H75.3023V176.391H76.8733L78.8023 180H81.1787L79.0161 176.043C80.1744 175.545 80.8158 174.536 80.8158 173.144C80.8158 171.121 79.4784 169.818 77.1666 169.818H73.1496V180ZM75.3023 174.661V171.578H76.754C77.9969 171.578 78.5985 172.13 78.5985 173.144C78.5985 174.153 77.9969 174.661 76.7639 174.661H75.3023ZM91.1008 172.746H93.164C93.1341 170.932 91.6427 169.679 89.3756 169.679C87.1434 169.679 85.5077 170.912 85.5177 172.761C85.5127 174.263 86.5716 175.123 88.2918 175.536L89.4005 175.814C90.5091 176.082 91.1256 176.401 91.1306 177.087C91.1256 177.832 90.4197 178.339 89.3259 178.339C88.2073 178.339 87.4019 177.822 87.3323 176.803H85.2492C85.3039 179.006 86.8799 180.144 89.3508 180.144C91.8366 180.144 93.2982 178.956 93.3032 177.092C93.2982 175.396 92.0205 174.496 90.2506 174.099L89.3358 173.88C88.4509 173.676 87.7101 173.348 87.7251 172.617C87.7251 171.961 88.3067 171.479 89.3607 171.479C90.3898 171.479 91.0212 171.946 91.1008 172.746ZM94.3634 171.593H97.4806V180H99.6084V171.593H102.726V169.818H94.3634V171.593ZM104.6 180L105.356 177.678H109.03L109.785 180H112.092L108.582 169.818H105.808L102.293 180H104.6ZM105.902 175.998L107.155 172.145H107.235L108.488 175.998H105.902ZM111.672 171.593H114.789V180H116.917V171.593H120.034V169.818H111.672V171.593ZM121.411 180H128.292V178.225H123.564V175.794H127.919V174.019H123.564V171.593H128.272V169.818H121.411V180ZM137.042 180H138.633L139.046 177.474H140.438L140.701 175.884H139.309L139.627 173.935H141.019L141.288 172.344H139.891L140.303 169.818H138.712L138.3 172.344H136.311L136.724 169.818H135.133L134.72 172.344H133.333L133.065 173.935H134.457L134.139 175.884H132.747L132.483 177.474H133.875L133.462 180H135.053L135.466 177.474H137.455L137.042 180ZM135.729 175.884L136.048 173.935H138.036L137.718 175.884H135.729ZM146.019 180.139C148.306 180.139 149.942 178.881 149.937 177.141C149.942 175.874 149.137 174.969 147.64 174.78V174.7C148.779 174.496 149.564 173.691 149.559 172.548C149.564 170.942 148.157 169.679 146.049 169.679C143.961 169.679 142.39 170.902 142.36 172.662H144.424C144.448 171.886 145.159 171.384 146.039 171.384C146.909 171.384 147.491 171.911 147.486 172.677C147.491 173.477 146.81 174.019 145.831 174.019H144.881V175.6H145.831C146.984 175.6 147.705 176.177 147.7 176.997C147.705 177.808 147.009 178.364 146.024 178.364C145.075 178.364 144.364 177.867 144.324 177.121H142.157C142.191 178.901 143.782 180.139 146.019 180.139Z" fill="#293856"/>
<path d="M652.801 171.593H655.918V180H658.046V171.593H661.163V169.818H652.801V171.593ZM671.446 174.909C671.446 171.578 669.377 169.679 666.678 169.679C663.963 169.679 661.91 171.578 661.91 174.909C661.91 178.225 663.963 180.139 666.678 180.139C669.377 180.139 671.446 178.24 671.446 174.909ZM669.263 174.909C669.263 177.067 668.239 178.235 666.678 178.235C665.112 178.235 664.093 177.067 664.093 174.909C664.093 172.751 665.112 171.583 666.678 171.583C668.239 171.583 669.263 172.751 669.263 174.909ZM672.201 171.593H675.318V180H677.446V171.593H680.563V169.818H672.201V171.593ZM682.438 180L683.193 177.678H686.867L687.623 180H689.93L686.42 169.818H683.646L680.131 180H682.438ZM683.74 175.998L684.993 172.145H685.073L686.326 175.998H683.74ZM691.155 180H697.673V178.225H693.308V169.818H691.155V180ZM707.862 172.746H709.926C709.896 170.932 708.404 169.679 706.137 169.679C703.905 169.679 702.269 170.912 702.279 172.761C702.274 174.263 703.333 175.123 705.054 175.536L706.162 175.814C707.271 176.082 707.887 176.401 707.892 177.087C707.887 177.832 707.181 178.339 706.088 178.339C704.969 178.339 704.164 177.822 704.094 176.803H702.011C702.066 179.006 703.642 180.144 706.112 180.144C708.598 180.144 710.06 178.956 710.065 177.092C710.06 175.396 708.782 174.496 707.012 174.099L706.098 173.88C705.213 173.676 704.472 173.348 704.487 172.617C704.487 171.961 705.068 171.479 706.122 171.479C707.152 171.479 707.783 171.946 707.862 172.746ZM717.802 169.818V176.246C717.802 177.41 716.987 178.25 715.734 178.25C714.486 178.25 713.666 177.41 713.666 176.246V169.818H711.513V176.43C711.513 178.658 713.193 180.144 715.734 180.144C718.264 180.144 719.955 178.658 719.955 176.43V169.818H717.802ZM721.726 180H723.878V176.699H725.688C728.03 176.699 729.392 175.302 729.392 173.268C729.392 171.245 728.055 169.818 725.743 169.818H721.726V180ZM723.878 174.974V171.578H725.33C726.573 171.578 727.175 172.254 727.175 173.268C727.175 174.278 726.573 174.974 725.34 174.974H723.878ZM730.79 180H732.943V176.699H734.753C737.094 176.699 738.456 175.302 738.456 173.268C738.456 171.245 737.119 169.818 734.807 169.818H730.79V180ZM732.943 174.974V171.578H734.395C735.638 171.578 736.239 172.254 736.239 173.268C736.239 174.278 735.638 174.974 734.405 174.974H732.943ZM739.855 180H746.372V178.225H742.007V169.818H739.855V180ZM745.903 169.818L749.616 176.401V180H751.754V176.401L755.468 169.818H753.057L750.735 174.203H750.636L748.314 169.818H745.903ZM760.321 177.44H767.187V175.675H760.321V177.44ZM760.321 174.138H767.187V172.374H760.321V174.138ZM777.01 169.818H774.986L772.466 171.414V173.323L774.797 171.862H774.857V180H777.01V169.818ZM783.422 180.224C785.982 180.224 787.528 178.275 787.533 174.919C787.538 171.588 785.972 169.679 783.422 169.679C780.867 169.679 779.315 171.583 779.31 174.919C779.301 178.265 780.857 180.219 783.422 180.224ZM783.422 178.439C782.254 178.439 781.498 177.266 781.503 174.919C781.508 172.607 782.259 171.444 783.422 171.444C784.58 171.444 785.336 172.607 785.336 174.919C785.341 177.266 784.585 178.439 783.422 178.439ZM793.061 180.224C795.621 180.224 797.167 178.275 797.172 174.919C797.177 171.588 795.611 169.679 793.061 169.679C790.505 169.679 788.954 171.583 788.949 174.919C788.939 178.265 790.495 180.219 793.061 180.224ZM793.061 178.439C791.892 178.439 791.137 177.266 791.142 174.919C791.147 172.607 791.897 171.444 793.061 171.444C794.219 171.444 794.975 172.607 794.975 174.919C794.98 177.266 794.224 178.439 793.061 178.439ZM798.727 180H800.845V172.364H798.727V180ZM799.791 171.379C800.422 171.379 800.939 170.897 800.939 170.305C800.939 169.719 800.422 169.237 799.791 169.237C799.165 169.237 798.647 169.719 798.647 170.305C798.647 170.897 799.165 171.379 799.791 171.379Z" fill="#293856"/>
<path d="M26.9855 351H33.5033V349.225H29.1382V340.818H26.9855V351ZM34.9289 351H41.8096V349.225H37.0816V346.794H41.4367V345.019H37.0816V342.593H41.7897V340.818H34.9289V351ZM47.1105 351C50.2128 351 52.0921 349.081 52.0921 345.899C52.0921 342.727 50.2128 340.818 47.1404 340.818H43.5012V351H47.1105ZM45.6539 349.156V342.663H47.026C48.9351 342.663 49.9443 343.637 49.9443 345.899C49.9443 348.171 48.9351 349.156 47.021 349.156H45.6539ZM60.4381 344.109H62.6256C62.3472 342.096 60.5724 340.679 58.2705 340.679C55.5809 340.679 53.5077 342.618 53.5077 345.919C53.5077 349.141 55.4466 351.139 58.3153 351.139C60.8856 351.139 62.7201 349.513 62.7201 346.834V345.551H58.4594V347.172H60.6469C60.6171 348.435 59.757 349.235 58.3252 349.235C56.7094 349.235 55.6903 348.027 55.6903 345.899C55.6903 343.781 56.7492 342.583 58.3053 342.583C59.414 342.583 60.1647 343.155 60.4381 344.109ZM64.3371 351H71.2178V349.225H66.4898V346.794H70.8449V345.019H66.4898V342.593H71.1979V340.818H64.3371V351ZM72.9094 351H75.0621V347.391H76.6331L78.5621 351H80.9385L78.7758 347.043C79.9342 346.545 80.5756 345.536 80.5756 344.144C80.5756 342.121 79.2382 340.818 76.9264 340.818H72.9094V351ZM75.0621 345.661V342.578H76.5138C77.7567 342.578 78.3582 343.13 78.3582 344.144C78.3582 345.153 77.7567 345.661 76.5237 345.661H75.0621ZM90.8605 343.746H92.9237C92.8939 341.932 91.4024 340.679 89.1354 340.679C86.9031 340.679 85.2675 341.912 85.2774 343.761C85.2725 345.263 86.3314 346.123 88.0516 346.536L89.1602 346.814C90.2689 347.082 90.8854 347.401 90.8904 348.087C90.8854 348.832 90.1794 349.339 89.0857 349.339C87.9671 349.339 87.1617 348.822 87.0921 347.803H85.009C85.0637 350.006 86.6396 351.144 89.1105 351.144C91.5963 351.144 93.058 349.956 93.0629 348.092C93.058 346.396 91.7803 345.496 90.0104 345.099L89.0956 344.88C88.2107 344.676 87.4699 344.348 87.4848 343.617C87.4848 342.961 88.0665 342.479 89.1205 342.479C90.1496 342.479 90.781 342.946 90.8605 343.746ZM94.1231 342.593H97.2403V351H99.3682V342.593H102.485V340.818H94.1231V342.593ZM104.36 351L105.115 348.678H108.789L109.545 351H111.852L108.342 340.818H105.568L102.053 351H104.36ZM105.662 346.998L106.915 343.145H106.995L108.247 346.998H105.662ZM111.432 342.593H114.549V351H116.677V342.593H119.794V340.818H111.432V342.593ZM121.171 351H128.052V349.225H123.324V346.794H127.679V345.019H123.324V342.593H128.032V340.818H121.171V351ZM136.802 351H138.393L138.805 348.474H140.197L140.461 346.884H139.069L139.387 344.935H140.779L141.047 343.344H139.65L140.063 340.818H138.472L138.06 343.344H136.071L136.484 340.818H134.893L134.48 343.344H133.093L132.824 344.935H134.217L133.898 346.884H132.506L132.243 348.474H133.635L133.222 351H134.813L135.226 348.474H137.214L136.802 351ZM135.489 346.884L135.807 344.935H137.796L137.478 346.884H135.489ZM144.153 346.585C144.158 345.601 144.745 345.024 145.6 345.024C146.45 345.024 146.962 345.581 146.957 346.516V351H149.075V346.138C149.075 344.358 148.031 343.264 146.44 343.264C145.307 343.264 144.487 343.821 144.144 344.711H144.054V343.364H142.036V351H144.153V346.585Z" fill="#293856"/>
<path d="M652.801 342.593H655.918V351H658.046V342.593H661.163V340.818H652.801V342.593ZM671.446 345.909C671.446 342.578 669.377 340.679 666.678 340.679C663.963 340.679 661.91 342.578 661.91 345.909C661.91 349.225 663.963 351.139 666.678 351.139C669.377 351.139 671.446 349.24 671.446 345.909ZM669.263 345.909C669.263 348.067 668.239 349.235 666.678 349.235C665.112 349.235 664.093 348.067 664.093 345.909C664.093 343.751 665.112 342.583 666.678 342.583C668.239 342.583 669.263 343.751 669.263 345.909ZM672.201 342.593H675.318V351H677.446V342.593H680.563V340.818H672.201V342.593ZM682.438 351L683.193 348.678H686.867L687.623 351H689.93L686.42 340.818H683.646L680.131 351H682.438ZM683.74 346.998L684.993 343.145H685.073L686.326 346.998H683.74ZM691.155 351H697.673V349.225H693.308V340.818H691.155V351ZM707.862 343.746H709.926C709.896 341.932 708.404 340.679 706.137 340.679C703.905 340.679 702.269 341.912 702.279 343.761C702.274 345.263 703.333 346.123 705.054 346.536L706.162 346.814C707.271 347.082 707.887 347.401 707.892 348.087C707.887 348.832 707.181 349.339 706.088 349.339C704.969 349.339 704.164 348.822 704.094 347.803H702.011C702.066 350.006 703.642 351.144 706.112 351.144C708.598 351.144 710.06 349.956 710.065 348.092C710.06 346.396 708.782 345.496 707.012 345.099L706.098 344.88C705.213 344.676 704.472 344.348 704.487 343.617C704.487 342.961 705.068 342.479 706.122 342.479C707.152 342.479 707.783 342.946 707.862 343.746ZM717.802 340.818V347.246C717.802 348.41 716.987 349.25 715.734 349.25C714.486 349.25 713.666 348.41 713.666 347.246V340.818H711.513V347.43C711.513 349.658 713.193 351.144 715.734 351.144C718.264 351.144 719.955 349.658 719.955 347.43V340.818H717.802ZM721.726 351H723.878V347.699H725.688C728.03 347.699 729.392 346.302 729.392 344.268C729.392 342.245 728.055 340.818 725.743 340.818H721.726V351ZM723.878 345.974V342.578H725.33C726.573 342.578 727.175 343.254 727.175 344.268C727.175 345.278 726.573 345.974 725.34 345.974H723.878ZM730.79 351H732.943V347.699H734.753C737.094 347.699 738.456 346.302 738.456 344.268C738.456 342.245 737.119 340.818 734.807 340.818H730.79V351ZM732.943 345.974V342.578H734.395C735.638 342.578 736.239 343.254 736.239 344.268C736.239 345.278 735.638 345.974 734.405 345.974H732.943ZM739.855 351H746.372V349.225H742.007V340.818H739.855V351ZM745.903 340.818L749.616 347.401V351H751.754V347.401L755.468 340.818H753.057L750.735 345.203H750.636L748.314 340.818H745.903ZM760.321 348.44H767.187V346.675H760.321V348.44ZM760.321 345.138H767.187V343.374H760.321V345.138ZM777.01 340.818H774.986L772.466 342.414V344.323L774.797 342.862H774.857V351H777.01V340.818ZM783.422 351.224C785.982 351.224 787.528 349.275 787.533 345.919C787.538 342.588 785.972 340.679 783.422 340.679C780.867 340.679 779.315 342.583 779.31 345.919C779.301 349.265 780.857 351.219 783.422 351.224ZM783.422 349.439C782.254 349.439 781.498 348.266 781.503 345.919C781.508 343.607 782.259 342.444 783.422 342.444C784.58 342.444 785.336 343.607 785.336 345.919C785.341 348.266 784.585 349.439 783.422 349.439ZM793.061 351.224C795.621 351.224 797.167 349.275 797.172 345.919C797.177 342.588 795.611 340.679 793.061 340.679C790.505 340.679 788.954 342.583 788.949 345.919C788.939 349.265 790.495 351.219 793.061 351.224ZM793.061 349.439C791.892 349.439 791.137 348.266 791.142 345.919C791.147 343.607 791.897 342.444 793.061 342.444C794.219 342.444 794.975 343.607 794.975 345.919C794.98 348.266 794.224 349.439 793.061 349.439ZM798.727 351H800.845V343.364H798.727V351ZM799.791 342.379C800.422 342.379 800.939 341.897 800.939 341.305C800.939 340.719 800.422 340.237 799.791 340.237C799.165 340.237 798.647 340.719 798.647 341.305C798.647 341.897 799.165 342.379 799.791 342.379Z" fill="#293856"/>
<path d="M631 87.5H632V86.5H631V87.5ZM631 206.5L636.774 196.5H625.226L631 206.5ZM527 88.5H631V86.5H527V88.5ZM630 87.5V197.5H632V87.5H630Z" fill="#C56550"/>
<path d="M231 87.5H230V86.5H231V87.5ZM231 206.5L225.226 196.5H236.774L231 206.5ZM335 88.5H231V86.5H335V88.5ZM232 87.5V197.5H230V87.5H232Z" fill="#C56550"/>
<path d="M435 206L440.773 196L429.226 196L435 206ZM434 104L434 197L436 197L436 104L434 104Z" fill="#C56550"/>
</svg>
