<?xml version="1.0" encoding="UTF-8"?>
<svg xmlns="http://www.w3.org/2000/svg" xmlns:xlink="http://www.w3.org/1999/xlink" width="48pt" height="48pt" viewBox="0 0 48 48" version="1.1">
<g id="surface1">
<path style=" stroke:none;fill-rule:evenodd;fill:black;fill-opacity:1;" d="M 42.757812 9.003906 C 44.824219 9.558594 46.445312 11.179688 47 13.246094 C 48 16.988281 48 24.800781 48 24.800781 C 48 24.800781 48 32.613281 46.996094 36.355469 C 46.441406 38.421875 44.820312 40.042969 42.753906 40.597656 C 39.011719 41.601562 24 41.601562 24 41.601562 C 24 41.601562 8.988281 41.601562 5.246094 40.597656 C 3.179688 40.042969 1.558594 38.421875 1.003906 36.355469 C 0 32.613281 0 24.800781 0 24.800781 C 0 24.800781 0 16.988281 1.003906 13.246094 C 1.558594 11.179688 3.179688 9.558594 5.246094 9.003906 C 8.988281 8 24 8 24 8 C 24 8 39.011719 8 42.757812 9.003906 Z M 31.675781 24.800781 L 19.199219 32 L 19.199219 17.601562 Z M 31.675781 24.800781 "/>
</g>
</svg>
