<svg width="862" height="575" viewBox="0 0 862 575" fill="none" xmlns="http://www.w3.org/2000/svg">
<rect x="0.5" y="0.5" width="861" height="574" fill="#111F3B" stroke="#293856"/>
<rect x="182" y="44" width="639" height="55" rx="5" fill="#41698A"/>
<rect x="182" y="107" width="639" height="55" rx="5" fill="#3C7266"/>
<rect x="182" y="233" width="639" height="55" rx="5" fill="#4EA793"/>
<rect x="182" y="325" width="639" height="55" rx="5" fill="#C56550"/>
<rect x="182" y="410" width="639" height="55" rx="5" stroke="#369FAB" stroke-width="3"/>
<rect x="182" y="482" width="270" height="55" rx="5" fill="#499785"/>
<rect x="551" y="482" width="270" height="55" rx="5" fill="#B7784A"/>
<rect x="182" y="170" width="639" height="55" rx="5" fill="#636650"/>
<path d="M453.172 56.1818H451.223V55.5234C451.223 54.8587 451.491 54.4688 452.29 54.4688C452.616 54.4688 452.948 54.5391 453.166 54.6094L453.645 52.5639C453.306 52.4616 452.559 52.2955 451.721 52.2955C449.874 52.2955 448.5 53.3374 448.5 55.4723V56.1818H447.112V58.2273H448.5V66H451.223V58.2273H453.172V56.1818ZM454.836 66H457.559V56.1818H454.836V66ZM456.204 54.9162C457.015 54.9162 457.68 54.2962 457.68 53.5355C457.68 52.7812 457.015 52.1612 456.204 52.1612C455.398 52.1612 454.733 52.7812 454.733 53.5355C454.733 54.2962 455.398 54.9162 456.204 54.9162ZM459.74 66H462.463V60.4453C462.463 59.2372 463.345 58.4062 464.547 58.4062C464.924 58.4062 465.442 58.4702 465.697 58.5533V56.1371C465.454 56.0795 465.116 56.0412 464.841 56.0412C463.741 56.0412 462.84 56.6804 462.482 57.8949H462.38V56.1818H459.74V66ZM471.123 66.1918C473.552 66.1918 475.188 65.0092 475.571 63.1875L473.053 63.0213C472.778 63.7692 472.075 64.1591 471.167 64.1591C469.806 64.1591 468.943 63.2578 468.943 61.794V61.7876H475.629V61.0398C475.629 57.7031 473.609 56.054 471.014 56.054C468.125 56.054 466.252 58.1058 466.252 61.1357C466.252 64.2486 468.099 66.1918 471.123 66.1918ZM468.943 60.1001C469 58.9815 469.851 58.0866 471.059 58.0866C472.241 58.0866 473.059 58.9304 473.066 60.1001H468.943ZM482.686 56.1818H480.736V55.5234C480.736 54.8587 481.005 54.4688 481.804 54.4688C482.13 54.4688 482.462 54.5391 482.679 54.6094L483.159 52.5639C482.82 52.4616 482.072 52.2955 481.235 52.2955C479.388 52.2955 478.013 53.3374 478.013 55.4723V56.1818H476.626V58.2273H478.013V66H480.736V58.2273H482.686V56.1818ZM487.072 52.9091H484.349V66H487.072V52.9091ZM490.935 69.6818C492.961 69.6818 494.035 68.6463 494.591 67.0611L498.407 56.1946L495.524 56.1818L493.472 63.392H493.37L491.337 56.1818H488.474L491.996 66.2812L491.836 66.6967C491.478 67.6172 490.794 67.6619 489.835 67.3679L489.222 69.4006C489.612 69.5668 490.244 69.6818 490.935 69.6818ZM505.903 66H508.78L510.467 59.8253H510.589L512.276 66H515.159L517.824 56.1818H515.076L513.58 62.7401H513.497L511.886 56.1818H509.182L507.597 62.7784H507.508L505.986 56.1818H503.231L505.903 66ZM522.077 66.1854C523.528 66.1854 524.467 65.5526 524.947 64.6385H525.024V66H527.606V59.3778C527.606 57.0384 525.624 56.054 523.438 56.054C521.086 56.054 519.539 57.179 519.162 58.9688L521.68 59.1733C521.866 58.5213 522.448 58.0419 523.426 58.0419C524.352 58.0419 524.883 58.5085 524.883 59.3139V59.3523C524.883 59.9851 524.212 60.0682 522.505 60.2344C520.562 60.4134 518.817 61.0653 518.817 63.2578C518.817 65.201 520.204 66.1854 522.077 66.1854ZM522.857 64.3061C522.019 64.3061 521.418 63.9162 521.418 63.1683C521.418 62.4013 522.051 62.0241 523.01 61.8899C523.604 61.8068 524.576 61.6662 524.902 61.4489V62.4908C524.902 63.5199 524.052 64.3061 522.857 64.3061ZM532.441 52.9091H529.718V66H532.441V52.9091ZM537.346 52.9091H534.623V66H537.346V52.9091ZM544.002 66.1918C546.43 66.1918 548.067 65.0092 548.45 63.1875L545.932 63.0213C545.657 63.7692 544.954 64.1591 544.046 64.1591C542.685 64.1591 541.822 63.2578 541.822 61.794V61.7876H548.508V61.0398C548.508 57.7031 546.488 56.054 543.893 56.054C541.004 56.054 539.131 58.1058 539.131 61.1357C539.131 64.2486 540.978 66.1918 544.002 66.1918ZM541.822 60.1001C541.879 58.9815 542.729 58.0866 543.938 58.0866C545.12 58.0866 545.938 58.9304 545.945 60.1001H541.822ZM555.507 56.1818H553.66V53.8295H550.937V56.1818H549.595V58.2273H550.937V63.3409C550.924 65.2649 552.234 66.2173 554.21 66.1342C554.913 66.1087 555.411 65.968 555.686 65.8786L555.258 63.8523C555.124 63.8778 554.836 63.9418 554.58 63.9418C554.037 63.9418 553.66 63.7372 553.66 62.983V58.2273H555.507V56.1818ZM401.212 90.6591H404.996V89.4062H402.644V75.5483H404.996V74.2955H401.212V90.6591ZM410.77 88.2045C413.429 88.2045 415.219 86.1847 415.219 83.142C415.219 80.0739 413.429 78.054 410.77 78.054C408.111 78.054 406.321 80.0739 406.321 83.142C406.321 86.1847 408.111 88.2045 410.77 88.2045ZM410.77 86.8494C408.75 86.8494 407.829 85.1108 407.829 83.142C407.829 81.1733 408.75 79.4091 410.77 79.4091C412.79 79.4091 413.71 81.1733 413.71 83.142C413.71 85.1108 412.79 86.8494 410.77 86.8494ZM421.893 78.1818H419.695V77.1847C419.695 76.2131 420.104 75.7017 421.101 75.7017C421.536 75.7017 421.791 75.804 421.945 75.8551L422.379 74.5511C422.149 74.4489 421.689 74.2955 420.947 74.2955C419.541 74.2955 418.186 75.1392 418.186 76.8267V78.1818H416.601V79.4602H418.186V88H419.695V79.4602H421.893V78.1818ZM428.38 78.1818H426.181V77.1847C426.181 76.2131 426.59 75.7017 427.587 75.7017C428.022 75.7017 428.278 75.804 428.431 75.8551L428.866 74.5511C428.635 74.4489 428.175 74.2955 427.434 74.2955C426.028 74.2955 424.672 75.1392 424.672 76.8267V78.1818H423.087V79.4602H424.672V88H426.181V79.4602H428.38V78.1818ZM430.494 88H432.002V78.1818H430.494V88ZM431.261 76.5455C431.849 76.5455 432.335 76.0852 432.335 75.5227C432.335 74.9602 431.849 74.5 431.261 74.5C430.673 74.5 430.187 74.9602 430.187 75.5227C430.187 76.0852 430.673 76.5455 431.261 76.5455ZM438.754 88.2045C440.927 88.2045 442.359 86.875 442.615 85.1364H441.106C440.825 86.2102 439.93 86.8494 438.754 86.8494C436.964 86.8494 435.814 85.3665 435.814 83.0909C435.814 80.8665 436.99 79.4091 438.754 79.4091C440.084 79.4091 440.876 80.2273 441.106 81.1222H442.615C442.359 79.2812 440.8 78.054 438.729 78.054C436.069 78.054 434.305 80.1506 434.305 83.142C434.305 86.0824 435.993 88.2045 438.754 88.2045ZM444.82 88H446.329V78.1818H444.82V88ZM445.587 76.5455C446.175 76.5455 446.661 76.0852 446.661 75.5227C446.661 74.9602 446.175 74.5 445.587 74.5C444.999 74.5 444.513 74.9602 444.513 75.5227C444.513 76.0852 444.999 76.5455 445.587 76.5455ZM451.981 88.2301C453.694 88.2301 454.589 87.3097 454.896 86.6705H454.972V88H456.481V81.5312C456.481 78.4119 454.103 78.054 452.85 78.054C451.367 78.054 449.68 78.5653 448.913 80.3551L450.344 80.8665C450.677 80.1506 451.463 79.3835 452.901 79.3835C454.288 79.3835 454.972 80.1186 454.972 81.3778V81.429C454.972 82.1577 454.231 82.0938 452.441 82.3239C450.619 82.5604 448.631 82.9631 448.631 85.2131C448.631 87.1307 450.114 88.2301 451.981 88.2301ZM452.211 86.875C451.009 86.875 450.14 86.3381 450.14 85.2898C450.14 84.1392 451.188 83.7812 452.364 83.6278C453.004 83.5511 454.717 83.3722 454.972 83.0653V84.446C454.972 85.6733 454.001 86.875 452.211 86.875ZM460.743 74.9091H459.234V88H460.743V74.9091ZM470.793 88H472.276L474.423 80.4574H474.577L476.724 88H478.207L481.199 78.1818H479.614L477.491 85.6733H477.389L475.318 78.1818H473.707L471.611 85.6989H471.509L469.386 78.1818H467.801L470.793 88ZM486.082 88.2301C487.795 88.2301 488.69 87.3097 488.997 86.6705H489.074V88H490.582V81.5312C490.582 78.4119 488.205 78.054 486.952 78.054C485.469 78.054 483.781 78.5653 483.014 80.3551L484.446 80.8665C484.778 80.1506 485.565 79.3835 487.003 79.3835C488.39 79.3835 489.074 80.1186 489.074 81.3778V81.429C489.074 82.1577 488.332 82.0938 486.543 82.3239C484.721 82.5604 482.733 82.9631 482.733 85.2131C482.733 87.1307 484.216 88.2301 486.082 88.2301ZM486.312 86.875C485.111 86.875 484.241 86.3381 484.241 85.2898C484.241 84.1392 485.29 83.7812 486.466 83.6278C487.105 83.5511 488.818 83.3722 489.074 83.0653V84.446C489.074 85.6733 488.102 86.875 486.312 86.875ZM494.844 74.9091H493.336V88H494.844V74.9091ZM499.116 74.9091H497.607V88H499.116V74.9091ZM505.995 88.2045C507.99 88.2045 509.447 87.2074 509.907 85.7244L508.45 85.3153C508.066 86.3381 507.178 86.8494 505.995 86.8494C504.225 86.8494 503.004 85.7053 502.933 83.6023H510.061V82.9631C510.061 79.3068 507.887 78.054 505.842 78.054C503.183 78.054 501.419 80.1506 501.419 83.1676C501.419 86.1847 503.157 88.2045 505.995 88.2045ZM502.933 82.2983C503.036 80.7706 504.116 79.4091 505.842 79.4091C507.478 79.4091 508.526 80.6364 508.526 82.2983H502.933ZM516.625 78.1818H514.529V75.8295H513.02V78.1818H511.537V79.4602H513.02V85.5966C513.02 87.3097 514.401 88.1278 515.679 88.1278C516.242 88.1278 516.6 88.0256 516.804 87.9489L516.497 86.5938C516.369 86.6193 516.165 86.6705 515.833 86.6705C515.168 86.6705 514.529 86.4659 514.529 85.1875V79.4602H516.625V78.1818ZM530.911 80.3807C530.438 78.9872 529.377 78.054 527.434 78.054C525.363 78.054 523.829 79.2301 523.829 80.892C523.829 82.2472 524.634 83.1548 526.437 83.5767L528.073 83.9602C529.064 84.1903 529.531 84.6634 529.531 85.3409C529.531 86.1847 528.636 86.875 527.23 86.875C525.996 86.875 525.222 86.3445 524.954 85.2898L523.522 85.6477C523.874 87.3161 525.248 88.2045 527.255 88.2045C529.537 88.2045 531.09 86.9581 531.09 85.2642C531.09 83.8963 530.234 83.0334 528.482 82.6051L527.025 82.2472C525.862 81.9595 525.338 81.5696 525.338 80.8153C525.338 79.9716 526.232 79.358 527.434 79.358C528.751 79.358 529.294 80.0866 529.556 80.7642L530.911 80.3807ZM537.35 88.2045C540.009 88.2045 541.799 86.1847 541.799 83.142C541.799 80.0739 540.009 78.054 537.35 78.054C534.691 78.054 532.901 80.0739 532.901 83.142C532.901 86.1847 534.691 88.2045 537.35 88.2045ZM537.35 86.8494C535.33 86.8494 534.409 85.1108 534.409 83.142C534.409 81.1733 535.33 79.4091 537.35 79.4091C539.37 79.4091 540.29 81.1733 540.29 83.142C540.29 85.1108 539.37 86.8494 537.35 86.8494ZM548.474 78.1818H546.275V77.1847C546.275 76.2131 546.684 75.7017 547.681 75.7017C548.116 75.7017 548.371 75.804 548.525 75.8551L548.959 74.5511C548.729 74.4489 548.269 74.2955 547.528 74.2955C546.121 74.2955 544.766 75.1392 544.766 76.8267V78.1818H543.181V79.4602H544.766V88H546.275V79.4602H548.474V78.1818ZM554.858 78.1818H552.761V75.8295H551.252V78.1818H549.77V79.4602H551.252V85.5966C551.252 87.3097 552.633 88.1278 553.912 88.1278C554.474 88.1278 554.832 88.0256 555.037 87.9489L554.73 86.5938C554.602 86.6193 554.397 86.6705 554.065 86.6705C553.4 86.6705 552.761 86.4659 552.761 85.1875V79.4602H554.858V78.1818ZM559.351 88H560.834L562.982 80.4574H563.135L565.283 88H566.766L569.757 78.1818H568.172L566.05 85.6733H565.948L563.877 78.1818H562.266L560.169 85.6989H560.067L557.945 78.1818H556.36L559.351 88ZM574.641 88.2301C576.354 88.2301 577.249 87.3097 577.556 86.6705H577.632V88H579.141V81.5312C579.141 78.4119 576.763 78.054 575.51 78.054C574.027 78.054 572.34 78.5653 571.573 80.3551L573.005 80.8665C573.337 80.1506 574.123 79.3835 575.561 79.3835C576.949 79.3835 577.632 80.1186 577.632 81.3778V81.429C577.632 82.1577 576.891 82.0938 575.101 82.3239C573.279 82.5604 571.292 82.9631 571.292 85.2131C571.292 87.1307 572.775 88.2301 574.641 88.2301ZM574.871 86.875C573.669 86.875 572.8 86.3381 572.8 85.2898C572.8 84.1392 573.848 83.7812 575.025 83.6278C575.664 83.5511 577.377 83.3722 577.632 83.0653V84.446C577.632 85.6733 576.661 86.875 574.871 86.875ZM581.894 88H583.403V81.7869C583.403 80.4574 584.451 79.4858 585.883 79.4858C586.286 79.4858 586.701 79.5625 586.803 79.5881V78.054C586.631 78.0412 586.235 78.0284 586.011 78.0284C584.835 78.0284 583.812 78.6932 583.454 79.6648H583.352V78.1818H581.894V88ZM592.409 88.2045C594.404 88.2045 595.861 87.2074 596.321 85.7244L594.864 85.3153C594.48 86.3381 593.592 86.8494 592.409 86.8494C590.639 86.8494 589.418 85.7053 589.347 83.6023H596.475V82.9631C596.475 79.3068 594.301 78.054 592.256 78.054C589.597 78.054 587.833 80.1506 587.833 83.1676C587.833 86.1847 589.571 88.2045 592.409 88.2045ZM589.347 82.2983C589.45 80.7706 590.53 79.4091 592.256 79.4091C593.892 79.4091 594.941 80.6364 594.941 82.2983H589.347ZM601.786 74.2955H598.002V75.5483H600.355V89.4062H598.002V90.6591H601.786V74.2955Z" fill="white"/>
<path d="M466.449 129H469.326L471.013 122.825H471.135L472.822 129H475.705L478.37 119.182H475.622L474.126 125.74H474.043L472.432 119.182H469.728L468.143 125.778H468.054L466.532 119.182H463.777L466.449 129ZM482.623 129.185C484.074 129.185 485.013 128.553 485.493 127.638H485.569V129H488.152V122.378C488.152 120.038 486.17 119.054 483.984 119.054C481.632 119.054 480.085 120.179 479.708 121.969L482.226 122.173C482.412 121.521 482.993 121.042 483.971 121.042C484.898 121.042 485.429 121.509 485.429 122.314V122.352C485.429 122.985 484.758 123.068 483.051 123.234C481.108 123.413 479.363 124.065 479.363 126.258C479.363 128.201 480.75 129.185 482.623 129.185ZM483.403 127.306C482.565 127.306 481.964 126.916 481.964 126.168C481.964 125.401 482.597 125.024 483.556 124.89C484.15 124.807 485.122 124.666 485.448 124.449V125.491C485.448 126.52 484.598 127.306 483.403 127.306ZM492.987 115.909H490.264V129H492.987V115.909ZM497.892 115.909H495.169V129H497.892V115.909ZM504.547 129.192C506.976 129.192 508.613 128.009 508.996 126.188L506.478 126.021C506.203 126.769 505.5 127.159 504.592 127.159C503.231 127.159 502.368 126.258 502.368 124.794V124.788H509.054V124.04C509.054 120.703 507.034 119.054 504.439 119.054C501.55 119.054 499.677 121.106 499.677 124.136C499.677 127.249 501.524 129.192 504.547 129.192ZM502.368 123.1C502.425 121.982 503.275 121.087 504.483 121.087C505.666 121.087 506.484 121.93 506.491 123.1H502.368ZM516.053 119.182H514.206V116.83H511.483V119.182H510.14V121.227H511.483V126.341C511.47 128.265 512.78 129.217 514.756 129.134C515.459 129.109 515.957 128.968 516.232 128.879L515.804 126.852C515.67 126.878 515.382 126.942 515.126 126.942C514.583 126.942 514.206 126.737 514.206 125.983V121.227H516.053V119.182ZM519.419 129.166C520.237 129.166 520.946 128.482 520.953 127.632C520.946 126.795 520.237 126.111 519.419 126.111C518.575 126.111 517.878 126.795 517.884 127.632C517.878 128.482 518.575 129.166 519.419 129.166ZM523.188 129H525.911V123.445C525.911 122.237 526.793 121.406 527.995 121.406C528.372 121.406 528.89 121.47 529.146 121.553V119.137C528.903 119.08 528.564 119.041 528.289 119.041C527.19 119.041 526.288 119.68 525.93 120.895H525.828V119.182H523.188V129ZM538.722 121.982C538.48 120.173 537.022 119.054 534.542 119.054C532.03 119.054 530.374 120.217 530.381 122.109C530.374 123.58 531.301 124.532 533.219 124.915L534.919 125.254C535.776 125.427 536.166 125.74 536.178 126.232C536.166 126.814 535.533 127.229 534.58 127.229C533.609 127.229 532.963 126.814 532.797 126.015L530.119 126.156C530.374 128.035 531.972 129.192 534.574 129.192C537.118 129.192 538.94 127.894 538.946 125.957C538.94 124.538 538.013 123.688 536.108 123.298L534.331 122.94C533.417 122.742 533.078 122.429 533.085 121.956C533.078 121.368 533.743 120.984 534.587 120.984C535.533 120.984 536.095 121.502 536.23 122.135L538.722 121.982ZM411.82 153.659H415.604V152.406H413.252V138.548H415.604V137.295H411.82V153.659ZM421.378 151.205C424.037 151.205 425.827 149.185 425.827 146.142C425.827 143.074 424.037 141.054 421.378 141.054C418.719 141.054 416.929 143.074 416.929 146.142C416.929 149.185 418.719 151.205 421.378 151.205ZM421.378 149.849C419.358 149.849 418.438 148.111 418.438 146.142C418.438 144.173 419.358 142.409 421.378 142.409C423.398 142.409 424.318 144.173 424.318 146.142C424.318 148.111 423.398 149.849 421.378 149.849ZM432.502 141.182H430.303V140.185C430.303 139.213 430.712 138.702 431.709 138.702C432.144 138.702 432.4 138.804 432.553 138.855L432.988 137.551C432.758 137.449 432.297 137.295 431.556 137.295C430.15 137.295 428.794 138.139 428.794 139.827V141.182H427.209V142.46H428.794V151H430.303V142.46H432.502V141.182ZM438.988 141.182H436.789V140.185C436.789 139.213 437.198 138.702 438.196 138.702C438.63 138.702 438.886 138.804 439.039 138.855L439.474 137.551C439.244 137.449 438.784 137.295 438.042 137.295C436.636 137.295 435.281 138.139 435.281 139.827V141.182H433.696V142.46H435.281V151H436.789V142.46H438.988V141.182ZM441.102 151H442.611V141.182H441.102V151ZM441.869 139.545C442.457 139.545 442.943 139.085 442.943 138.523C442.943 137.96 442.457 137.5 441.869 137.5C441.281 137.5 440.796 137.96 440.796 138.523C440.796 139.085 441.281 139.545 441.869 139.545ZM449.362 151.205C451.536 151.205 452.968 149.875 453.223 148.136H451.715C451.434 149.21 450.539 149.849 449.362 149.849C447.573 149.849 446.422 148.366 446.422 146.091C446.422 143.866 447.598 142.409 449.362 142.409C450.692 142.409 451.485 143.227 451.715 144.122H453.223C452.968 142.281 451.408 141.054 449.337 141.054C446.678 141.054 444.914 143.151 444.914 146.142C444.914 149.082 446.601 151.205 449.362 151.205ZM455.429 151H456.937V141.182H455.429V151ZM456.196 139.545C456.784 139.545 457.269 139.085 457.269 138.523C457.269 137.96 456.784 137.5 456.196 137.5C455.608 137.5 455.122 137.96 455.122 138.523C455.122 139.085 455.608 139.545 456.196 139.545ZM462.589 151.23C464.302 151.23 465.197 150.31 465.504 149.67H465.581V151H467.089V144.531C467.089 141.412 464.711 141.054 463.459 141.054C461.976 141.054 460.288 141.565 459.521 143.355L460.953 143.866C461.285 143.151 462.071 142.384 463.51 142.384C464.897 142.384 465.581 143.119 465.581 144.378V144.429C465.581 145.158 464.839 145.094 463.049 145.324C461.228 145.56 459.24 145.963 459.24 148.213C459.24 150.131 460.723 151.23 462.589 151.23ZM462.819 149.875C461.618 149.875 460.748 149.338 460.748 148.29C460.748 147.139 461.797 146.781 462.973 146.628C463.612 146.551 465.325 146.372 465.581 146.065V147.446C465.581 148.673 464.609 149.875 462.819 149.875ZM471.351 137.909H469.843V151H471.351V137.909ZM481.401 151H482.884L485.032 143.457H485.185L487.333 151H488.816L491.807 141.182H490.222L488.1 148.673H487.998L485.927 141.182H484.316L482.219 148.699H482.117L479.995 141.182H478.41L481.401 151ZM496.691 151.23C498.404 151.23 499.299 150.31 499.606 149.67H499.682V151H501.191V144.531C501.191 141.412 498.813 141.054 497.56 141.054C496.077 141.054 494.39 141.565 493.623 143.355L495.054 143.866C495.387 143.151 496.173 142.384 497.611 142.384C498.998 142.384 499.682 143.119 499.682 144.378V144.429C499.682 145.158 498.941 145.094 497.151 145.324C495.329 145.56 493.341 145.963 493.341 148.213C493.341 150.131 494.824 151.23 496.691 151.23ZM496.921 149.875C495.719 149.875 494.85 149.338 494.85 148.29C494.85 147.139 495.898 146.781 497.074 146.628C497.714 146.551 499.427 146.372 499.682 146.065V147.446C499.682 148.673 498.711 149.875 496.921 149.875ZM505.453 137.909H503.944V151H505.453V137.909ZM509.724 137.909H508.216V151H509.724V137.909ZM516.604 151.205C518.598 151.205 520.055 150.207 520.516 148.724L519.058 148.315C518.675 149.338 517.786 149.849 516.604 149.849C514.833 149.849 513.612 148.705 513.542 146.602H520.669V145.963C520.669 142.307 518.496 141.054 516.45 141.054C513.791 141.054 512.027 143.151 512.027 146.168C512.027 149.185 513.766 151.205 516.604 151.205ZM513.542 145.298C513.644 143.771 514.724 142.409 516.45 142.409C518.087 142.409 519.135 143.636 519.135 145.298H513.542ZM527.234 141.182H525.137V138.83H523.628V141.182H522.146V142.46H523.628V148.597C523.628 150.31 525.009 151.128 526.288 151.128C526.85 151.128 527.208 151.026 527.413 150.949L527.106 149.594C526.978 149.619 526.773 149.67 526.441 149.67C525.776 149.67 525.137 149.466 525.137 148.188V142.46H527.234V141.182ZM536.074 137.909H534.565V151H536.074V137.909ZM538.837 151H540.345V141.182H538.837V151ZM539.604 139.545C540.192 139.545 540.678 139.085 540.678 138.523C540.678 137.96 540.192 137.5 539.604 137.5C539.016 137.5 538.53 137.96 538.53 138.523C538.53 139.085 539.016 139.545 539.604 139.545ZM543.313 151H544.77V149.491H544.949C545.282 150.028 545.921 151.205 547.813 151.205C550.267 151.205 551.98 149.236 551.98 146.116C551.98 143.023 550.267 141.054 547.787 141.054C545.87 141.054 545.282 142.23 544.949 142.741H544.821V137.909H543.313V151ZM544.796 146.091C544.796 143.892 545.767 142.409 547.608 142.409C549.526 142.409 550.472 144.02 550.472 146.091C550.472 148.188 549.5 149.849 547.608 149.849C545.793 149.849 544.796 148.315 544.796 146.091ZM554.288 151H555.796V144.787C555.796 143.457 556.845 142.486 558.277 142.486C558.679 142.486 559.095 142.562 559.197 142.588V141.054C559.024 141.041 558.628 141.028 558.404 141.028C557.228 141.028 556.206 141.693 555.848 142.665H555.745V141.182H554.288V151ZM563.874 151.23C565.587 151.23 566.482 150.31 566.789 149.67H566.866V151H568.374V144.531C568.374 141.412 565.997 141.054 564.744 141.054C563.261 141.054 561.573 141.565 560.806 143.355L562.238 143.866C562.57 143.151 563.357 142.384 564.795 142.384C566.182 142.384 566.866 143.119 566.866 144.378V144.429C566.866 145.158 566.124 145.094 564.335 145.324C562.513 145.56 560.525 145.963 560.525 148.213C560.525 150.131 562.008 151.23 563.874 151.23ZM564.104 149.875C562.903 149.875 562.033 149.338 562.033 148.29C562.033 147.139 563.082 146.781 564.258 146.628C564.897 146.551 566.61 146.372 566.866 146.065V147.446C566.866 148.673 565.894 149.875 564.104 149.875ZM571.128 151H572.636V144.787C572.636 143.457 573.685 142.486 575.116 142.486C575.519 142.486 575.935 142.562 576.037 142.588V141.054C575.864 141.041 575.468 141.028 575.244 141.028C574.068 141.028 573.045 141.693 572.687 142.665H572.585V141.182H571.128V151ZM579.095 154.682C580.457 154.682 581.416 153.96 581.985 152.432L586.165 141.207L584.516 141.182L581.806 149.006H581.703L578.993 141.182H577.357L580.987 151.051L580.706 151.818C580.157 153.314 579.479 153.455 578.38 153.173L577.996 154.503C578.149 154.58 578.584 154.682 579.095 154.682ZM591.178 137.295H587.394V138.548H589.746V152.406H587.394V153.659H591.178V137.295Z" fill="white"/>
<path d="M451.21 184.982C450.967 183.173 449.509 182.054 447.029 182.054C444.517 182.054 442.862 183.217 442.868 185.109C442.862 186.58 443.789 187.532 445.706 187.915L447.407 188.254C448.263 188.427 448.653 188.74 448.666 189.232C448.653 189.814 448.02 190.229 447.068 190.229C446.096 190.229 445.451 189.814 445.284 189.015L442.606 189.156C442.862 191.035 444.46 192.192 447.061 192.192C449.605 192.192 451.427 190.894 451.434 188.957C451.427 187.538 450.5 186.688 448.595 186.298L446.818 185.94C445.904 185.742 445.566 185.429 445.572 184.956C445.566 184.368 446.23 183.984 447.074 183.984C448.02 183.984 448.583 184.502 448.717 185.135L451.21 184.982ZM458.37 182.182H456.523V179.83H453.8V182.182H452.458V184.227H453.8V189.341C453.787 191.265 455.098 192.217 457.073 192.134C457.776 192.109 458.275 191.968 458.549 191.879L458.121 189.852C457.987 189.878 457.699 189.942 457.444 189.942C456.9 189.942 456.523 189.737 456.523 188.983V184.227H458.37V182.182ZM460.144 192H462.867V186.445C462.867 185.237 463.749 184.406 464.951 184.406C465.328 184.406 465.846 184.47 466.102 184.553V182.137C465.859 182.08 465.52 182.041 465.245 182.041C464.146 182.041 463.244 182.68 462.886 183.895H462.784V182.182H460.144V192ZM471.489 192.192C474.467 192.192 476.321 190.153 476.321 187.129C476.321 184.087 474.467 182.054 471.489 182.054C468.51 182.054 466.656 184.087 466.656 187.129C466.656 190.153 468.51 192.192 471.489 192.192ZM471.501 190.082C470.127 190.082 469.424 188.823 469.424 187.11C469.424 185.397 470.127 184.131 471.501 184.131C472.85 184.131 473.553 185.397 473.553 187.11C473.553 188.823 472.85 190.082 471.501 190.082ZM480.815 186.324C480.821 185.058 481.575 184.317 482.675 184.317C483.768 184.317 484.426 185.033 484.42 186.234V192H487.143V185.749C487.143 183.46 485.8 182.054 483.755 182.054C482.297 182.054 481.243 182.77 480.802 183.914H480.687V182.182H478.092V192H480.815V186.324ZM493.712 195.886C496.518 195.886 498.513 194.608 498.513 192.096V182.182H495.809V183.831H495.706C495.342 183.032 494.543 182.054 492.9 182.054C490.746 182.054 488.924 183.729 488.924 187.072C488.924 190.338 490.695 191.859 492.907 191.859C494.473 191.859 495.348 191.073 495.706 190.261H495.821V192.058C495.821 193.406 494.959 193.93 493.776 193.93C492.574 193.93 491.967 193.406 491.743 192.812L489.225 193.151C489.551 194.697 491.066 195.886 493.712 195.886ZM493.77 189.814C492.434 189.814 491.705 188.753 491.705 187.059C491.705 185.391 492.421 184.221 493.77 184.221C495.093 184.221 495.834 185.339 495.834 187.059C495.834 188.791 495.08 189.814 493.77 189.814ZM503.402 186.324C503.409 185.058 504.182 184.317 505.294 184.317C506.4 184.317 507.052 185.026 507.046 186.234V192H509.769V185.749C509.775 183.447 508.42 182.054 506.375 182.054C504.885 182.054 503.888 182.757 503.441 183.914H503.326V178.909H500.679V192H503.402V186.324ZM516.348 192.192C519.327 192.192 521.18 190.153 521.18 187.129C521.18 184.087 519.327 182.054 516.348 182.054C513.369 182.054 511.516 184.087 511.516 187.129C511.516 190.153 513.369 192.192 516.348 192.192ZM516.361 190.082C514.986 190.082 514.283 188.823 514.283 187.11C514.283 185.397 514.986 184.131 516.361 184.131C517.709 184.131 518.413 185.397 518.413 187.11C518.413 188.823 517.709 190.082 516.361 190.082ZM525.674 178.909H522.951V192H525.674V178.909ZM531.473 192.16C533.058 192.16 533.883 191.246 534.26 190.428H534.375V192H537.06V178.909H534.343V183.831H534.26C533.896 183.032 533.109 182.054 531.467 182.054C529.313 182.054 527.491 183.729 527.491 187.104C527.491 190.389 529.236 192.16 531.473 192.16ZM532.336 189.993C531 189.993 530.271 188.804 530.271 187.091C530.271 185.391 530.987 184.221 532.336 184.221C533.659 184.221 534.401 185.339 534.401 187.091C534.401 188.842 533.646 189.993 532.336 189.993ZM540.89 192.166C541.708 192.166 542.418 191.482 542.424 190.632C542.418 189.795 541.708 189.111 540.89 189.111C540.046 189.111 539.35 189.795 539.356 190.632C539.35 191.482 540.046 192.166 540.89 192.166ZM544.66 192H547.383V186.445C547.383 185.237 548.265 184.406 549.467 184.406C549.844 184.406 550.362 184.47 550.617 184.553V182.137C550.374 182.08 550.036 182.041 549.761 182.041C548.661 182.041 547.76 182.68 547.402 183.895H547.3V182.182H544.66V192ZM560.194 184.982C559.951 183.173 558.494 182.054 556.014 182.054C553.502 182.054 551.846 183.217 551.853 185.109C551.846 186.58 552.773 187.532 554.691 187.915L556.391 188.254C557.247 188.427 557.637 188.74 557.65 189.232C557.637 189.814 557.005 190.229 556.052 190.229C555.081 190.229 554.435 189.814 554.269 189.015L551.59 189.156C551.846 191.035 553.444 192.192 556.046 192.192C558.59 192.192 560.411 190.894 560.418 188.957C560.411 187.538 559.485 186.688 557.58 186.298L555.803 185.94C554.889 185.742 554.55 185.429 554.556 184.956C554.55 184.368 555.215 183.984 556.059 183.984C557.005 183.984 557.567 184.502 557.701 185.135L560.194 184.982ZM354.067 216.659H357.852V215.406H355.499V201.548H357.852V200.295H354.067V216.659ZM366.802 206.381C366.329 204.987 365.268 204.054 363.325 204.054C361.254 204.054 359.72 205.23 359.72 206.892C359.72 208.247 360.525 209.155 362.328 209.577L363.964 209.96C364.955 210.19 365.421 210.663 365.421 211.341C365.421 212.185 364.526 212.875 363.12 212.875C361.887 212.875 361.113 212.344 360.845 211.29L359.413 211.648C359.764 213.316 361.139 214.205 363.146 214.205C365.428 214.205 366.981 212.958 366.981 211.264C366.981 209.896 366.124 209.033 364.373 208.605L362.916 208.247C361.752 207.96 361.228 207.57 361.228 206.815C361.228 205.972 362.123 205.358 363.325 205.358C364.642 205.358 365.185 206.087 365.447 206.764L366.802 206.381ZM373.368 214.205C375.363 214.205 376.82 213.207 377.28 211.724L375.823 211.315C375.439 212.338 374.551 212.849 373.368 212.849C371.598 212.849 370.377 211.705 370.306 209.602H377.434V208.963C377.434 205.307 375.26 204.054 373.215 204.054C370.556 204.054 368.792 206.151 368.792 209.168C368.792 212.185 370.53 214.205 373.368 214.205ZM370.306 208.298C370.409 206.771 371.489 205.409 373.215 205.409C374.851 205.409 375.9 206.636 375.9 208.298H370.306ZM383.717 214.205C385.89 214.205 387.322 212.875 387.578 211.136H386.069C385.788 212.21 384.893 212.849 383.717 212.849C381.927 212.849 380.777 211.366 380.777 209.091C380.777 206.866 381.953 205.409 383.717 205.409C385.047 205.409 385.839 206.227 386.069 207.122H387.578C387.322 205.281 385.762 204.054 383.691 204.054C381.032 204.054 379.268 206.151 379.268 209.142C379.268 212.082 380.956 214.205 383.717 214.205ZM395.971 209.986C395.971 211.827 394.564 212.67 393.439 212.67C392.186 212.67 391.292 211.75 391.292 210.318V204.182H389.783V210.42C389.783 212.926 391.113 214.128 392.953 214.128C394.436 214.128 395.408 213.335 395.868 212.338H395.971V214H397.479V204.182H395.971V209.986ZM400.242 214H401.751V207.787C401.751 206.457 402.799 205.486 404.231 205.486C404.633 205.486 405.049 205.562 405.151 205.588V204.054C404.979 204.041 404.582 204.028 404.358 204.028C403.182 204.028 402.16 204.693 401.802 205.665H401.699V204.182H400.242V214ZM410.757 214.205C412.751 214.205 414.209 213.207 414.669 211.724L413.211 211.315C412.828 212.338 411.939 212.849 410.757 212.849C408.986 212.849 407.765 211.705 407.695 209.602H414.822V208.963C414.822 205.307 412.649 204.054 410.604 204.054C407.944 204.054 406.18 206.151 406.18 209.168C406.18 212.185 407.919 214.205 410.757 214.205ZM407.695 208.298C407.797 206.771 408.878 205.409 410.604 205.409C412.24 205.409 413.288 206.636 413.288 208.298H407.695ZM422.18 214H423.688V204.182H422.18V214ZM422.947 202.545C423.535 202.545 424.02 202.085 424.02 201.523C424.02 200.96 423.535 200.5 422.947 200.5C422.358 200.5 421.873 200.96 421.873 201.523C421.873 202.085 422.358 202.545 422.947 202.545ZM433.406 206.381C432.933 204.987 431.871 204.054 429.928 204.054C427.857 204.054 426.323 205.23 426.323 206.892C426.323 208.247 427.129 209.155 428.931 209.577L430.567 209.96C431.558 210.19 432.025 210.663 432.025 211.341C432.025 212.185 431.13 212.875 429.724 212.875C428.49 212.875 427.717 212.344 427.448 211.29L426.016 211.648C426.368 213.316 427.742 214.205 429.749 214.205C432.031 214.205 433.585 212.958 433.585 211.264C433.585 209.896 432.728 209.033 430.977 208.605L429.519 208.247C428.356 207.96 427.832 207.57 427.832 206.815C427.832 205.972 428.727 205.358 429.928 205.358C431.245 205.358 431.788 206.087 432.05 206.764L433.406 206.381ZM439.844 214.205C442.503 214.205 444.293 212.185 444.293 209.142C444.293 206.074 442.503 204.054 439.844 204.054C437.185 204.054 435.395 206.074 435.395 209.142C435.395 212.185 437.185 214.205 439.844 214.205ZM439.844 212.849C437.824 212.849 436.904 211.111 436.904 209.142C436.904 207.173 437.824 205.409 439.844 205.409C441.864 205.409 442.784 207.173 442.784 209.142C442.784 211.111 441.864 212.849 439.844 212.849ZM448.104 200.909H446.596V214H448.104V200.909ZM453.756 214.23C455.469 214.23 456.364 213.31 456.671 212.67H456.748V214H458.256V207.531C458.256 204.412 455.878 204.054 454.626 204.054C453.143 204.054 451.455 204.565 450.688 206.355L452.12 206.866C452.452 206.151 453.238 205.384 454.677 205.384C456.064 205.384 456.748 206.119 456.748 207.378V207.429C456.748 208.158 456.006 208.094 454.216 208.324C452.395 208.56 450.407 208.963 450.407 211.213C450.407 213.131 451.89 214.23 453.756 214.23ZM453.986 212.875C452.785 212.875 451.915 212.338 451.915 211.29C451.915 210.139 452.964 209.781 454.14 209.628C454.779 209.551 456.492 209.372 456.748 209.065V210.446C456.748 211.673 455.776 212.875 453.986 212.875ZM465.279 204.182H463.183V201.83H461.674V204.182H460.191V205.46H461.674V211.597C461.674 213.31 463.055 214.128 464.333 214.128C464.896 214.128 465.254 214.026 465.458 213.949L465.152 212.594C465.024 212.619 464.819 212.67 464.487 212.67C463.822 212.67 463.183 212.466 463.183 211.188V205.46H465.279V204.182ZM467.549 214H469.057V204.182H467.549V214ZM468.316 202.545C468.904 202.545 469.39 202.085 469.39 201.523C469.39 200.96 468.904 200.5 468.316 200.5C467.728 200.5 467.242 200.96 467.242 201.523C467.242 202.085 467.728 202.545 468.316 202.545ZM475.809 214.205C478.468 214.205 480.258 212.185 480.258 209.142C480.258 206.074 478.468 204.054 475.809 204.054C473.15 204.054 471.36 206.074 471.36 209.142C471.36 212.185 473.15 214.205 475.809 214.205ZM475.809 212.849C473.789 212.849 472.868 211.111 472.868 209.142C472.868 207.173 473.789 205.409 475.809 205.409C477.829 205.409 478.749 207.173 478.749 209.142C478.749 211.111 477.829 212.849 475.809 212.849ZM484.069 208.094C484.069 206.381 485.13 205.409 486.575 205.409C487.974 205.409 488.825 206.323 488.825 207.864V214H490.333V207.761C490.333 205.256 488.997 204.054 487.009 204.054C485.526 204.054 484.606 204.719 484.146 205.716H484.018V204.182H482.56V214H484.069V208.094ZM501.041 214.23C502.754 214.23 503.649 213.31 503.956 212.67H504.033V214H505.541V207.531C505.541 204.412 503.164 204.054 501.911 204.054C500.428 204.054 498.74 204.565 497.973 206.355L499.405 206.866C499.737 206.151 500.524 205.384 501.962 205.384C503.349 205.384 504.033 206.119 504.033 207.378V207.429C504.033 208.158 503.291 208.094 501.502 208.324C499.68 208.56 497.692 208.963 497.692 211.213C497.692 213.131 499.175 214.23 501.041 214.23ZM501.271 212.875C500.07 212.875 499.2 212.338 499.2 211.29C499.2 210.139 500.249 209.781 501.425 209.628C502.064 209.551 503.777 209.372 504.033 209.065V210.446C504.033 211.673 503.061 212.875 501.271 212.875ZM509.803 208.094C509.803 206.381 510.864 205.409 512.309 205.409C513.709 205.409 514.559 206.323 514.559 207.864V214H516.067V207.761C516.067 205.256 514.732 204.054 512.744 204.054C511.261 204.054 510.34 204.719 509.88 205.716H509.752V204.182H508.295V214H509.803V208.094ZM522.531 214.205C524.423 214.205 525.063 213.028 525.395 212.491H525.574V214H527.031V200.909H525.523V205.741H525.395C525.063 205.23 524.475 204.054 522.557 204.054C520.077 204.054 518.364 206.023 518.364 209.116C518.364 212.236 520.077 214.205 522.531 214.205ZM522.736 212.849C520.844 212.849 519.872 211.188 519.872 209.091C519.872 207.02 520.818 205.409 522.736 205.409C524.577 205.409 525.548 206.892 525.548 209.091C525.548 211.315 524.551 212.849 522.736 212.849ZM542.021 206.381C541.548 204.987 540.487 204.054 538.544 204.054C536.472 204.054 534.938 205.23 534.938 206.892C534.938 208.247 535.744 209.155 537.546 209.577L539.183 209.96C540.173 210.19 540.64 210.663 540.64 211.341C540.64 212.185 539.745 212.875 538.339 212.875C537.105 212.875 536.332 212.344 536.063 211.29L534.632 211.648C534.983 213.316 536.357 214.205 538.365 214.205C540.646 214.205 542.2 212.958 542.2 211.264C542.2 209.896 541.343 209.033 539.592 208.605L538.134 208.247C536.971 207.96 536.447 207.57 536.447 206.815C536.447 205.972 537.342 205.358 538.544 205.358C539.86 205.358 540.404 206.087 540.666 206.764L542.021 206.381ZM548.74 204.182H546.644V201.83H545.135V204.182H543.652V205.46H545.135V211.597C545.135 213.31 546.516 214.128 547.794 214.128C548.357 214.128 548.715 214.026 548.919 213.949L548.613 212.594C548.485 212.619 548.28 212.67 547.948 212.67C547.283 212.67 546.644 212.466 546.644 211.188V205.46H548.74V204.182ZM554.893 214.205C557.552 214.205 559.342 212.185 559.342 209.142C559.342 206.074 557.552 204.054 554.893 204.054C552.234 204.054 550.444 206.074 550.444 209.142C550.444 212.185 552.234 214.205 554.893 214.205ZM554.893 212.849C552.873 212.849 551.952 211.111 551.952 209.142C551.952 207.173 552.873 205.409 554.893 205.409C556.913 205.409 557.833 207.173 557.833 209.142C557.833 211.111 556.913 212.849 554.893 212.849ZM561.644 214H563.153V207.787C563.153 206.457 564.201 205.486 565.633 205.486C566.036 205.486 566.451 205.562 566.553 205.588V204.054C566.381 204.041 565.985 204.028 565.761 204.028C564.585 204.028 563.562 204.693 563.204 205.665H563.102V204.182H561.644V214ZM571.231 214.23C572.944 214.23 573.839 213.31 574.146 212.67H574.222V214H575.731V207.531C575.731 204.412 573.353 204.054 572.1 204.054C570.617 204.054 568.93 204.565 568.163 206.355L569.594 206.866C569.927 206.151 570.713 205.384 572.151 205.384C573.538 205.384 574.222 206.119 574.222 207.378V207.429C574.222 208.158 573.481 208.094 571.691 208.324C569.869 208.56 567.881 208.963 567.881 211.213C567.881 213.131 569.364 214.23 571.231 214.23ZM571.461 212.875C570.259 212.875 569.39 212.338 569.39 211.29C569.39 210.139 570.438 209.781 571.614 209.628C572.254 209.551 573.967 209.372 574.222 209.065V210.446C574.222 211.673 573.251 212.875 571.461 212.875ZM582.447 217.886C584.8 217.886 586.692 216.812 586.692 214.281V204.182H585.234V205.741H585.081C584.748 205.23 584.135 204.054 582.217 204.054C579.737 204.054 578.024 206.023 578.024 209.04C578.024 212.108 579.814 213.847 582.192 213.847C584.109 213.847 584.723 212.722 585.055 212.185H585.183V214.179C585.183 215.815 584.032 216.557 582.447 216.557C580.664 216.557 580.037 215.617 579.635 215.074L578.433 215.918C579.047 216.947 580.255 217.886 582.447 217.886ZM582.396 212.491C580.504 212.491 579.532 211.06 579.532 209.014C579.532 207.02 580.479 205.409 582.396 205.409C584.237 205.409 585.209 206.892 585.209 209.014C585.209 211.188 584.211 212.491 582.396 212.491ZM593.569 214.205C595.564 214.205 597.021 213.207 597.481 211.724L596.024 211.315C595.64 212.338 594.752 212.849 593.569 212.849C591.799 212.849 590.578 211.705 590.508 209.602H597.635V208.963C597.635 205.307 595.461 204.054 593.416 204.054C590.757 204.054 588.993 206.151 588.993 209.168C588.993 212.185 590.731 214.205 593.569 214.205ZM590.508 208.298C590.61 206.771 591.69 205.409 593.416 205.409C595.052 205.409 596.101 206.636 596.101 208.298H590.508ZM606.501 200.909H604.992V214H606.501V200.909ZM612.153 214.23C613.866 214.23 614.761 213.31 615.067 212.67H615.144V214H616.653V207.531C616.653 204.412 614.275 204.054 613.022 204.054C611.539 204.054 609.852 204.565 609.085 206.355L610.516 206.866C610.849 206.151 611.635 205.384 613.073 205.384C614.46 205.384 615.144 206.119 615.144 207.378V207.429C615.144 208.158 614.403 208.094 612.613 208.324C610.791 208.56 608.803 208.963 608.803 211.213C608.803 213.131 610.286 214.23 612.153 214.23ZM612.383 212.875C611.181 212.875 610.312 212.338 610.312 211.29C610.312 210.139 611.36 209.781 612.536 209.628C613.175 209.551 614.888 209.372 615.144 209.065V210.446C615.144 211.673 614.173 212.875 612.383 212.875ZM620.026 217.682C621.388 217.682 622.346 216.96 622.915 215.432L627.096 204.207L625.447 204.182L622.736 212.006H622.634L619.924 204.182H618.287L621.918 214.051L621.637 214.818C621.087 216.314 620.41 216.455 619.31 216.173L618.927 217.503C619.08 217.58 619.515 217.682 620.026 217.682ZM632.857 214.205C634.851 214.205 636.308 213.207 636.768 211.724L635.311 211.315C634.928 212.338 634.039 212.849 632.857 212.849C631.086 212.849 629.865 211.705 629.795 209.602H636.922V208.963C636.922 205.307 634.749 204.054 632.703 204.054C630.044 204.054 628.28 206.151 628.28 209.168C628.28 212.185 630.018 214.205 632.857 214.205ZM629.795 208.298C629.897 206.771 630.977 205.409 632.703 205.409C634.339 205.409 635.388 206.636 635.388 208.298H629.795ZM639.217 214H640.725V207.787C640.725 206.457 641.773 205.486 643.205 205.486C643.608 205.486 644.023 205.562 644.126 205.588V204.054C643.953 204.041 643.557 204.028 643.333 204.028C642.157 204.028 641.134 204.693 640.776 205.665H640.674V204.182H639.217V214ZM648.931 200.295H645.147V201.548H647.499V215.406H645.147V216.659H648.931V200.295Z" fill="white"/>
<path d="M448.17 419.909H445.415V428.142H445.3L439.65 419.909H437.221V433H439.989V424.761H440.084L445.78 433H448.17V419.909ZM454.842 433.192C457.821 433.192 459.674 431.153 459.674 428.129C459.674 425.087 457.821 423.054 454.842 423.054C451.863 423.054 450.01 425.087 450.01 428.129C450.01 431.153 451.863 433.192 454.842 433.192ZM454.855 431.082C453.481 431.082 452.777 429.823 452.777 428.11C452.777 426.397 453.481 425.131 454.855 425.131C456.204 425.131 456.907 426.397 456.907 428.11C456.907 429.823 456.204 431.082 454.855 431.082ZM465.063 433.16C466.648 433.16 467.473 432.246 467.85 431.428H467.965V433H470.65V419.909H467.933V424.831H467.85C467.486 424.032 466.699 423.054 465.057 423.054C462.902 423.054 461.081 424.729 461.081 428.104C461.081 431.389 462.826 433.16 465.063 433.16ZM465.926 430.993C464.59 430.993 463.861 429.804 463.861 428.091C463.861 426.391 464.577 425.221 465.926 425.221C467.249 425.221 467.991 426.339 467.991 428.091C467.991 429.842 467.236 430.993 465.926 430.993ZM477.363 433.192C479.792 433.192 481.428 432.009 481.812 430.188L479.293 430.021C479.018 430.769 478.315 431.159 477.408 431.159C476.046 431.159 475.183 430.258 475.183 428.794V428.788H481.869V428.04C481.869 424.703 479.849 423.054 477.254 423.054C474.365 423.054 472.492 425.106 472.492 428.136C472.492 431.249 474.339 433.192 477.363 433.192ZM475.183 427.1C475.241 425.982 476.091 425.087 477.299 425.087C478.481 425.087 479.3 425.93 479.306 427.1H475.183ZM494.965 423.674H497.618C497.579 421.341 495.662 419.73 492.747 419.73C489.877 419.73 487.774 421.315 487.787 423.693C487.78 425.624 489.142 426.729 491.353 427.26L492.779 427.618C494.204 427.963 494.997 428.372 495.003 429.254C494.997 430.213 494.089 430.865 492.683 430.865C491.245 430.865 490.209 430.2 490.12 428.89H487.441C487.512 431.722 489.538 433.185 492.715 433.185C495.911 433.185 497.79 431.658 497.797 429.261C497.79 427.081 496.147 425.924 493.872 425.413L492.696 425.131C491.558 424.869 490.606 424.447 490.625 423.508C490.625 422.664 491.373 422.044 492.728 422.044C494.051 422.044 494.863 422.645 494.965 423.674ZM504.043 433.192C507.022 433.192 508.876 431.153 508.876 428.129C508.876 425.087 507.022 423.054 504.043 423.054C501.065 423.054 499.211 425.087 499.211 428.129C499.211 431.153 501.065 433.192 504.043 433.192ZM504.056 431.082C502.682 431.082 501.979 429.823 501.979 428.11C501.979 426.397 502.682 425.131 504.056 425.131C505.405 425.131 506.108 426.397 506.108 428.11C506.108 429.823 505.405 431.082 504.056 431.082ZM515.926 423.182H513.976V422.523C513.976 421.859 514.245 421.469 515.044 421.469C515.37 421.469 515.702 421.539 515.92 421.609L516.399 419.564C516.06 419.462 515.312 419.295 514.475 419.295C512.628 419.295 511.253 420.337 511.253 422.472V423.182H509.866V425.227H511.253V433H513.976V425.227H515.926V423.182ZM522.812 423.182H520.965V420.83H518.242V423.182H516.899V425.227H518.242V430.341C518.229 432.265 519.539 433.217 521.514 433.134C522.217 433.109 522.716 432.968 522.991 432.879L522.563 430.852C522.428 430.878 522.141 430.942 521.885 430.942C521.342 430.942 520.965 430.737 520.965 429.983V425.227H522.812V423.182ZM526.522 433H529.399L531.086 426.825H531.208L532.895 433H535.778L538.444 423.182H535.695L534.199 429.74H534.116L532.505 423.182H529.802L528.216 429.778H528.127L526.606 423.182H523.851L526.522 433ZM542.696 433.185C544.147 433.185 545.087 432.553 545.566 431.638H545.643V433H548.225V426.378C548.225 424.038 546.244 423.054 544.057 423.054C541.705 423.054 540.158 424.179 539.781 425.969L542.3 426.173C542.485 425.521 543.067 425.042 544.045 425.042C544.972 425.042 545.502 425.509 545.502 426.314V426.352C545.502 426.985 544.831 427.068 543.124 427.234C541.181 427.413 539.436 428.065 539.436 430.258C539.436 432.201 540.823 433.185 542.696 433.185ZM543.476 431.306C542.638 431.306 542.038 430.916 542.038 430.168C542.038 429.401 542.67 429.024 543.629 428.89C544.224 428.807 545.195 428.666 545.521 428.449V429.491C545.521 430.52 544.671 431.306 543.476 431.306ZM550.338 433H553.061V427.445C553.061 426.237 553.943 425.406 555.144 425.406C555.522 425.406 556.039 425.47 556.295 425.553V423.137C556.052 423.08 555.713 423.041 555.438 423.041C554.339 423.041 553.438 423.68 553.08 424.895H552.978V423.182H550.338V433ZM561.72 433.192C564.149 433.192 565.786 432.009 566.169 430.188L563.651 430.021C563.376 430.769 562.673 431.159 561.765 431.159C560.403 431.159 559.541 430.258 559.541 428.794V428.788H566.227V428.04C566.227 424.703 564.207 423.054 561.612 423.054C558.722 423.054 556.85 425.106 556.85 428.136C556.85 431.249 558.697 433.192 561.72 433.192ZM559.541 427.1C559.598 425.982 560.448 425.087 561.656 425.087C562.839 425.087 563.657 425.93 563.663 427.1H559.541ZM438.548 456.636H442.332V455.384H439.98V441.526H442.332V440.273H438.548V456.636ZM449.595 455H451.18V449.145H458.16V455H459.746V441.909H458.16V447.739H451.18V441.909H449.595V455ZM466.703 455.205C469.362 455.205 471.152 453.185 471.152 450.142C471.152 447.074 469.362 445.054 466.703 445.054C464.044 445.054 462.254 447.074 462.254 450.142C462.254 453.185 464.044 455.205 466.703 455.205ZM466.703 453.849C464.683 453.849 463.763 452.111 463.763 450.142C463.763 448.173 464.683 446.409 466.703 446.409C468.723 446.409 469.644 448.173 469.644 450.142C469.644 452.111 468.723 453.849 466.703 453.849ZM473.455 455H474.963V448.787C474.963 447.457 476.012 446.486 477.444 446.486C477.846 446.486 478.262 446.562 478.364 446.588V445.054C478.191 445.041 477.795 445.028 477.571 445.028C476.395 445.028 475.373 445.693 475.015 446.665H474.912V445.182H473.455V455ZM481.661 449.094C481.661 447.381 482.722 446.409 484.166 446.409C485.566 446.409 486.416 447.323 486.416 448.864V455H487.925V448.761C487.925 446.256 486.589 445.054 484.601 445.054C483.118 445.054 482.198 445.719 481.737 446.716H481.61V445.182H480.152V455H481.661V449.094ZM494.798 455.205C496.792 455.205 498.25 454.207 498.71 452.724L497.252 452.315C496.869 453.338 495.98 453.849 494.798 453.849C493.027 453.849 491.806 452.705 491.736 450.602H498.863V449.963C498.863 446.307 496.69 445.054 494.645 445.054C491.985 445.054 490.221 447.151 490.221 450.168C490.221 453.185 491.96 455.205 494.798 455.205ZM491.736 449.298C491.838 447.771 492.919 446.409 494.645 446.409C496.281 446.409 497.329 447.636 497.329 449.298H491.736ZM505.428 445.182H503.331V442.83H501.823V445.182H500.34V446.46H501.823V452.597C501.823 454.31 503.203 455.128 504.482 455.128C505.044 455.128 505.402 455.026 505.607 454.949L505.3 453.594C505.172 453.619 504.968 453.67 504.635 453.67C503.971 453.67 503.331 453.466 503.331 452.188V446.46H505.428V445.182ZM514.958 437.69H513.68V459.219H514.958V437.69ZM523.915 455H528.645C531.739 455 533.018 453.491 533.018 451.523C533.018 449.452 531.586 448.327 530.384 448.25V448.122C531.509 447.815 532.506 447.074 532.506 445.386C532.506 443.469 531.228 441.909 528.492 441.909H523.915V455ZM525.501 453.594V449.043H528.722C530.435 449.043 531.509 450.193 531.509 451.523C531.509 452.673 530.716 453.594 528.645 453.594H525.501ZM525.501 447.662V443.315H528.492C530.231 443.315 530.998 444.236 530.998 445.386C530.998 446.767 529.873 447.662 528.441 447.662H525.501ZM539.534 455.205C541.529 455.205 542.986 454.207 543.446 452.724L541.989 452.315C541.605 453.338 540.717 453.849 539.534 453.849C537.764 453.849 536.543 452.705 536.472 450.602H543.6V449.963C543.6 446.307 541.426 445.054 539.381 445.054C536.722 445.054 534.958 447.151 534.958 450.168C534.958 453.185 536.696 455.205 539.534 455.205ZM536.472 449.298C536.575 447.771 537.655 446.409 539.381 446.409C541.017 446.409 542.066 447.636 542.066 449.298H536.472ZM550.011 455.205C552.005 455.205 553.463 454.207 553.923 452.724L552.465 452.315C552.082 453.338 551.193 453.849 550.011 453.849C548.24 453.849 547.019 452.705 546.949 450.602H554.076V449.963C554.076 446.307 551.903 445.054 549.857 445.054C547.198 445.054 545.434 447.151 545.434 450.168C545.434 453.185 547.173 455.205 550.011 455.205ZM546.949 449.298C547.051 447.771 548.132 446.409 549.857 446.409C551.494 446.409 552.542 447.636 552.542 449.298H546.949ZM564.45 441.295H560.666V442.548H563.019V456.406H560.666V457.659H564.45V441.295Z" fill="#369FAB"/>
<path d="M282.155 502.909V516H284.84V507.447H284.949L288.336 515.936H290.165L293.552 507.479H293.661V516H296.346V502.909H292.932L289.327 511.705H289.174L285.569 502.909H282.155ZM301.375 516.185C302.826 516.185 303.765 515.553 304.245 514.638H304.321V516H306.904V509.378C306.904 507.038 304.922 506.054 302.736 506.054C300.384 506.054 298.837 507.179 298.46 508.969L300.978 509.173C301.164 508.521 301.745 508.042 302.723 508.042C303.65 508.042 304.181 508.509 304.181 509.314V509.352C304.181 509.985 303.51 510.068 301.803 510.234C299.86 510.413 298.115 511.065 298.115 513.258C298.115 515.201 299.502 516.185 301.375 516.185ZM302.154 514.306C301.317 514.306 300.716 513.916 300.716 513.168C300.716 512.401 301.349 512.024 302.308 511.89C302.902 511.807 303.874 511.666 304.2 511.449V512.491C304.2 513.52 303.35 514.306 302.154 514.306ZM309.016 516H311.739V506.182H309.016V516ZM310.384 504.916C311.196 504.916 311.861 504.296 311.861 503.536C311.861 502.781 311.196 502.161 310.384 502.161C309.579 502.161 308.914 502.781 308.914 503.536C308.914 504.296 309.579 504.916 310.384 504.916ZM316.644 510.324C316.65 509.058 317.404 508.317 318.504 508.317C319.597 508.317 320.255 509.033 320.249 510.234V516H322.972V509.749C322.972 507.46 321.629 506.054 319.584 506.054C318.127 506.054 317.072 506.77 316.631 507.914H316.516V506.182H313.921V516H316.644V510.324ZM327.841 510.324C327.847 509.058 328.602 508.317 329.701 508.317C330.794 508.317 331.452 509.033 331.446 510.234V516H334.169V509.749C334.169 507.46 332.827 506.054 330.781 506.054C329.324 506.054 328.269 506.77 327.828 507.914H327.713V506.182H325.118V516H327.841V510.324ZM340.79 516.192C343.219 516.192 344.855 515.009 345.238 513.188L342.72 513.021C342.445 513.769 341.742 514.159 340.834 514.159C339.473 514.159 338.61 513.258 338.61 511.794V511.788H345.296V511.04C345.296 507.703 343.276 506.054 340.681 506.054C337.792 506.054 335.919 508.106 335.919 511.136C335.919 514.249 337.766 516.192 340.79 516.192ZM338.61 510.1C338.667 508.982 339.518 508.087 340.726 508.087C341.908 508.087 342.726 508.93 342.733 510.1H338.61ZM352.295 506.182H350.448V503.83H347.725V506.182H346.383V508.227H347.725V513.341C347.712 515.265 349.023 516.217 350.998 516.134C351.701 516.109 352.199 515.968 352.474 515.879L352.046 513.852C351.912 513.878 351.624 513.942 351.368 513.942C350.825 513.942 350.448 513.737 350.448 512.983V508.227H352.295V506.182Z" fill="white"/>
<path d="M660.243 516C664.232 516 666.648 513.533 666.648 509.442C666.648 505.364 664.232 502.909 660.282 502.909H655.603V516H660.243ZM658.37 513.629V505.281H660.135C662.589 505.281 663.887 506.533 663.887 509.442C663.887 512.363 662.589 513.629 660.128 513.629H658.37ZM673.122 516.192C675.551 516.192 677.187 515.009 677.57 513.188L675.052 513.021C674.777 513.769 674.074 514.159 673.166 514.159C671.805 514.159 670.942 513.258 670.942 511.794V511.788H677.628V511.04C677.628 507.703 675.608 506.054 673.013 506.054C670.124 506.054 668.251 508.106 668.251 511.136C668.251 514.249 670.098 516.192 673.122 516.192ZM670.942 510.1C670.999 508.982 671.85 508.087 673.058 508.087C674.24 508.087 675.058 508.93 675.065 510.1H670.942ZM688.277 506.182H685.394L683.362 513.207H683.259L681.22 506.182H678.344L681.776 516H684.845L688.277 506.182ZM692.394 510.324C692.4 509.058 693.154 508.317 694.254 508.317C695.347 508.317 696.005 509.033 695.999 510.234V516H698.722V509.749C698.722 507.46 697.379 506.054 695.334 506.054C693.877 506.054 692.822 506.77 692.381 507.914H692.266V506.182H689.671V516H692.394V510.324ZM705.342 516.192C707.771 516.192 709.408 515.009 709.791 513.188L707.273 513.021C706.998 513.769 706.295 514.159 705.387 514.159C704.026 514.159 703.163 513.258 703.163 511.794V511.788H709.849V511.04C709.849 507.703 707.829 506.054 705.234 506.054C702.344 506.054 700.472 508.106 700.472 511.136C700.472 514.249 702.319 516.192 705.342 516.192ZM703.163 510.1C703.22 508.982 704.07 508.087 705.278 508.087C706.461 508.087 707.279 508.93 707.286 510.1H703.163ZM716.848 506.182H715.001V503.83H712.278V506.182H710.935V508.227H712.278V513.341C712.265 515.265 713.575 516.217 715.55 516.134C716.254 516.109 716.752 515.968 717.027 515.879L716.599 513.852C716.464 513.878 716.177 513.942 715.921 513.942C715.378 513.942 715.001 513.737 715.001 512.983V508.227H716.848V506.182Z" fill="white"/>
<path d="M474.479 256H477.202V246.182H474.479V256ZM475.847 244.916C476.659 244.916 477.324 244.296 477.324 243.536C477.324 242.781 476.659 242.161 475.847 242.161C475.042 242.161 474.377 242.781 474.377 243.536C474.377 244.296 475.042 244.916 475.847 244.916ZM483.82 256.192C486.798 256.192 488.652 254.153 488.652 251.129C488.652 248.087 486.798 246.054 483.82 246.054C480.841 246.054 478.987 248.087 478.987 251.129C478.987 254.153 480.841 256.192 483.82 256.192ZM483.832 254.082C482.458 254.082 481.755 252.823 481.755 251.11C481.755 249.397 482.458 248.131 483.832 248.131C485.181 248.131 485.884 249.397 485.884 251.11C485.884 252.823 485.181 254.082 483.832 254.082ZM495.645 246.182H493.798V243.83H491.075V246.182H489.732V248.227H491.075V253.341C491.062 255.265 492.372 256.217 494.347 256.134C495.05 256.109 495.549 255.968 495.824 255.879L495.396 253.852C495.261 253.878 494.974 253.942 494.718 253.942C494.175 253.942 493.798 253.737 493.798 252.983V248.227H495.645V246.182ZM500.218 256.185C501.669 256.185 502.609 255.553 503.088 254.638H503.165V256H505.748V249.378C505.748 247.038 503.766 246.054 501.58 246.054C499.228 246.054 497.681 247.179 497.304 248.969L499.822 249.173C500.007 248.521 500.589 248.042 501.567 248.042C502.494 248.042 503.025 248.509 503.025 249.314V249.352C503.025 249.985 502.353 250.068 500.647 250.234C498.703 250.413 496.958 251.065 496.958 253.258C496.958 255.201 498.346 256.185 500.218 256.185ZM500.998 254.306C500.161 254.306 499.56 253.916 499.56 253.168C499.56 252.401 500.193 252.024 501.152 251.89C501.746 251.807 502.718 251.666 503.044 251.449V252.491C503.044 253.52 502.194 254.306 500.998 254.306ZM509.452 256.166C510.27 256.166 510.979 255.482 510.986 254.632C510.979 253.795 510.27 253.111 509.452 253.111C508.608 253.111 507.911 253.795 507.918 254.632C507.911 255.482 508.608 256.166 509.452 256.166ZM513.221 256H515.944V250.445C515.944 249.237 516.827 248.406 518.028 248.406C518.405 248.406 518.923 248.47 519.179 248.553V246.137C518.936 246.08 518.597 246.041 518.322 246.041C517.223 246.041 516.322 246.68 515.964 247.895H515.861V246.182H513.221V256ZM528.756 248.982C528.513 247.173 527.055 246.054 524.575 246.054C522.063 246.054 520.408 247.217 520.414 249.109C520.408 250.58 521.335 251.532 523.252 251.915L524.952 252.254C525.809 252.427 526.199 252.74 526.212 253.232C526.199 253.814 525.566 254.229 524.614 254.229C523.642 254.229 522.996 253.814 522.83 253.015L520.152 253.156C520.408 255.035 522.006 256.192 524.607 256.192C527.151 256.192 528.973 254.894 528.979 252.957C528.973 251.538 528.046 250.688 526.141 250.298L524.364 249.94C523.45 249.742 523.112 249.429 523.118 248.956C523.112 248.368 523.776 247.984 524.62 247.984C525.566 247.984 526.129 248.502 526.263 249.135L528.756 248.982ZM413.912 280.659H417.696V279.406H415.344V265.548H417.696V264.295H413.912V280.659ZM423.47 278.205C426.129 278.205 427.919 276.185 427.919 273.142C427.919 270.074 426.129 268.054 423.47 268.054C420.811 268.054 419.021 270.074 419.021 273.142C419.021 276.185 420.811 278.205 423.47 278.205ZM423.47 276.849C421.45 276.849 420.53 275.111 420.53 273.142C420.53 271.173 421.45 269.409 423.47 269.409C425.49 269.409 426.41 271.173 426.41 273.142C426.41 275.111 425.49 276.849 423.47 276.849ZM434.594 268.182H432.395V267.185C432.395 266.213 432.804 265.702 433.801 265.702C434.236 265.702 434.491 265.804 434.645 265.855L435.079 264.551C434.849 264.449 434.389 264.295 433.648 264.295C432.241 264.295 430.886 265.139 430.886 266.827V268.182H429.301V269.46H430.886V278H432.395V269.46H434.594V268.182ZM441.08 268.182H438.881V267.185C438.881 266.213 439.29 265.702 440.287 265.702C440.722 265.702 440.978 265.804 441.131 265.855L441.566 264.551C441.336 264.449 440.875 264.295 440.134 264.295C438.728 264.295 437.373 265.139 437.373 266.827V268.182H435.787V269.46H437.373V278H438.881V269.46H441.08V268.182ZM443.194 278H444.703V268.182H443.194V278ZM443.961 266.545C444.549 266.545 445.035 266.085 445.035 265.523C445.035 264.96 444.549 264.5 443.961 264.5C443.373 264.5 442.887 264.96 442.887 265.523C442.887 266.085 443.373 266.545 443.961 266.545ZM451.454 278.205C453.628 278.205 455.059 276.875 455.315 275.136H453.807C453.525 276.21 452.63 276.849 451.454 276.849C449.665 276.849 448.514 275.366 448.514 273.091C448.514 270.866 449.69 269.409 451.454 269.409C452.784 269.409 453.576 270.227 453.807 271.122H455.315C455.059 269.281 453.5 268.054 451.429 268.054C448.77 268.054 447.005 270.151 447.005 273.142C447.005 276.082 448.693 278.205 451.454 278.205ZM457.52 278H459.029V268.182H457.52V278ZM458.287 266.545C458.875 266.545 459.361 266.085 459.361 265.523C459.361 264.96 458.875 264.5 458.287 264.5C457.699 264.5 457.214 264.96 457.214 265.523C457.214 266.085 457.699 266.545 458.287 266.545ZM464.681 278.23C466.394 278.23 467.289 277.31 467.596 276.67H467.672V278H469.181V271.531C469.181 268.412 466.803 268.054 465.55 268.054C464.067 268.054 462.38 268.565 461.613 270.355L463.045 270.866C463.377 270.151 464.163 269.384 465.601 269.384C466.989 269.384 467.672 270.119 467.672 271.378V271.429C467.672 272.158 466.931 272.094 465.141 272.324C463.32 272.56 461.332 272.963 461.332 275.213C461.332 277.131 462.815 278.23 464.681 278.23ZM464.911 276.875C463.709 276.875 462.84 276.338 462.84 275.29C462.84 274.139 463.888 273.781 465.065 273.628C465.704 273.551 467.417 273.372 467.672 273.065V274.446C467.672 275.673 466.701 276.875 464.911 276.875ZM473.443 264.909H471.934V278H473.443V264.909ZM485.257 278.205C487.43 278.205 488.862 276.875 489.118 275.136H487.609C487.328 276.21 486.433 276.849 485.257 276.849C483.467 276.849 482.317 275.366 482.317 273.091C482.317 270.866 483.493 269.409 485.257 269.409C486.587 269.409 487.379 270.227 487.609 271.122H489.118C488.862 269.281 487.302 268.054 485.231 268.054C482.572 268.054 480.808 270.151 480.808 273.142C480.808 276.082 482.496 278.205 485.257 278.205ZM492.832 264.909H491.323V278H492.832V264.909ZM495.595 278H497.103V268.182H495.595V278ZM496.362 266.545C496.95 266.545 497.435 266.085 497.435 265.523C497.435 264.96 496.95 264.5 496.362 264.5C495.774 264.5 495.288 264.96 495.288 265.523C495.288 266.085 495.774 266.545 496.362 266.545ZM503.983 278.205C505.977 278.205 507.434 277.207 507.894 275.724L506.437 275.315C506.054 276.338 505.165 276.849 503.983 276.849C502.212 276.849 500.991 275.705 500.921 273.602H508.048V272.963C508.048 269.307 505.875 268.054 503.829 268.054C501.17 268.054 499.406 270.151 499.406 273.168C499.406 276.185 501.144 278.205 503.983 278.205ZM500.921 272.298C501.023 270.771 502.103 269.409 503.829 269.409C505.465 269.409 506.514 270.636 506.514 272.298H500.921ZM511.851 272.094C511.851 270.381 512.912 269.409 514.357 269.409C515.757 269.409 516.607 270.323 516.607 271.864V278H518.115V271.761C518.115 269.256 516.779 268.054 514.791 268.054C513.309 268.054 512.388 268.719 511.928 269.716H511.8V268.182H510.343V278H511.851V272.094ZM525.142 268.182H523.045V265.83H521.537V268.182H520.054V269.46H521.537V275.597C521.537 277.31 522.917 278.128 524.196 278.128C524.758 278.128 525.116 278.026 525.321 277.949L525.014 276.594C524.886 276.619 524.682 276.67 524.349 276.67C523.684 276.67 523.045 276.466 523.045 275.188V269.46H525.142V268.182ZM533.982 264.909H532.473V278H533.982V264.909ZM536.745 278H538.253V268.182H536.745V278ZM537.512 266.545C538.1 266.545 538.586 266.085 538.586 265.523C538.586 264.96 538.1 264.5 537.512 264.5C536.924 264.5 536.438 264.96 536.438 265.523C536.438 266.085 536.924 266.545 537.512 266.545ZM541.221 278H542.678V276.491H542.857C543.19 277.028 543.829 278.205 545.721 278.205C548.176 278.205 549.889 276.236 549.889 273.116C549.889 270.023 548.176 268.054 545.695 268.054C543.778 268.054 543.19 269.23 542.857 269.741H542.729V264.909H541.221V278ZM542.704 273.091C542.704 270.892 543.676 269.409 545.516 269.409C547.434 269.409 548.38 271.02 548.38 273.091C548.38 275.188 547.408 276.849 545.516 276.849C543.701 276.849 542.704 275.315 542.704 273.091ZM552.196 278H553.705V271.787C553.705 270.457 554.753 269.486 556.185 269.486C556.587 269.486 557.003 269.562 557.105 269.588V268.054C556.933 268.041 556.536 268.028 556.313 268.028C555.136 268.028 554.114 268.693 553.756 269.665H553.653V268.182H552.196V278ZM561.783 278.23C563.496 278.23 564.391 277.31 564.697 276.67H564.774V278H566.283V271.531C566.283 268.412 563.905 268.054 562.652 268.054C561.169 268.054 559.481 268.565 558.714 270.355L560.146 270.866C560.479 270.151 561.265 269.384 562.703 269.384C564.09 269.384 564.774 270.119 564.774 271.378V271.429C564.774 272.158 564.033 272.094 562.243 272.324C560.421 272.56 558.433 272.963 558.433 275.213C558.433 277.131 559.916 278.23 561.783 278.23ZM562.013 276.875C560.811 276.875 559.942 276.338 559.942 275.29C559.942 274.139 560.99 273.781 562.166 273.628C562.805 273.551 564.518 273.372 564.774 273.065V274.446C564.774 275.673 563.802 276.875 562.013 276.875ZM569.036 278H570.544V271.787C570.544 270.457 571.593 269.486 573.025 269.486C573.427 269.486 573.843 269.562 573.945 269.588V268.054C573.772 268.041 573.376 268.028 573.152 268.028C571.976 268.028 570.954 268.693 570.596 269.665H570.493V268.182H569.036V278ZM577.004 281.682C578.365 281.682 579.324 280.96 579.893 279.432L584.073 268.207L582.424 268.182L579.714 276.006H579.612L576.901 268.182H575.265L578.896 278.051L578.614 278.818C578.065 280.314 577.387 280.455 576.288 280.173L575.904 281.503C576.058 281.58 576.492 281.682 577.004 281.682ZM589.086 264.295H585.302V265.548H587.654V279.406H585.302V280.659H589.086V264.295Z" fill="white"/>
<path d="M414.834 348.192C417.449 348.192 419.091 346.658 419.219 344.401H416.65C416.49 345.45 415.799 346.038 414.866 346.038C413.594 346.038 412.77 344.97 412.77 343.091C412.77 341.237 413.601 340.176 414.866 340.176C415.863 340.176 416.503 340.835 416.65 341.812H419.219C419.104 339.543 417.385 338.054 414.821 338.054C411.843 338.054 410.002 340.119 410.002 343.129C410.002 346.114 411.811 348.192 414.834 348.192ZM425.399 348.192C428.377 348.192 430.231 346.153 430.231 343.129C430.231 340.087 428.377 338.054 425.399 338.054C422.42 338.054 420.566 340.087 420.566 343.129C420.566 346.153 422.42 348.192 425.399 348.192ZM425.411 346.082C424.037 346.082 423.334 344.823 423.334 343.11C423.334 341.397 424.037 340.131 425.411 340.131C426.76 340.131 427.463 341.397 427.463 343.11C427.463 344.823 426.76 346.082 425.411 346.082ZM432.002 348H434.725V342.107C434.725 341.02 435.415 340.298 436.323 340.298C437.218 340.298 437.818 340.911 437.818 341.876V348H440.458V342.004C440.458 340.988 441.04 340.298 442.031 340.298C442.9 340.298 443.552 340.841 443.552 341.934V348H446.269V341.397C446.269 339.268 445.003 338.054 443.175 338.054C441.737 338.054 440.618 338.789 440.215 339.914H440.113C439.8 338.776 438.796 338.054 437.448 338.054C436.125 338.054 435.121 338.757 434.712 339.914H434.597V338.182H432.002V348ZM448.42 348H451.143V342.107C451.143 341.02 451.833 340.298 452.741 340.298C453.636 340.298 454.236 340.911 454.236 341.876V348H456.876V342.004C456.876 340.988 457.458 340.298 458.449 340.298C459.318 340.298 459.97 340.841 459.97 341.934V348H462.687V341.397C462.687 339.268 461.421 338.054 459.593 338.054C458.155 338.054 457.036 338.789 456.633 339.914H456.531C456.218 338.776 455.214 338.054 453.866 338.054C452.543 338.054 451.539 338.757 451.13 339.914H451.015V338.182H448.42V348ZM471.134 343.82C471.14 345.136 470.239 345.827 469.261 345.827C468.232 345.827 467.567 345.104 467.561 343.947V338.182H464.838V344.433C464.844 346.728 466.186 348.128 468.161 348.128C469.638 348.128 470.699 347.367 471.14 346.217H471.242V348H473.857V338.182H471.134V343.82ZM478.758 342.324C478.764 341.058 479.519 340.317 480.618 340.317C481.711 340.317 482.369 341.033 482.363 342.234V348H485.086V341.749C485.086 339.46 483.744 338.054 481.698 338.054C480.241 338.054 479.186 338.77 478.745 339.914H478.63V338.182H476.035V348H478.758V342.324ZM487.232 348H489.955V338.182H487.232V348ZM488.6 336.916C489.412 336.916 490.077 336.296 490.077 335.536C490.077 334.781 489.412 334.161 488.6 334.161C487.795 334.161 487.13 334.781 487.13 335.536C487.13 336.296 487.795 336.916 488.6 336.916ZM496.573 348.192C499.187 348.192 500.83 346.658 500.957 344.401H498.388C498.228 345.45 497.538 346.038 496.604 346.038C495.332 346.038 494.508 344.97 494.508 343.091C494.508 341.237 495.339 340.176 496.604 340.176C497.602 340.176 498.241 340.835 498.388 341.812H500.957C500.842 339.543 499.123 338.054 496.56 338.054C493.581 338.054 491.74 340.119 491.74 343.129C491.74 346.114 493.549 348.192 496.573 348.192ZM505.501 348.185C506.952 348.185 507.891 347.553 508.371 346.638H508.447V348H511.03V341.378C511.03 339.038 509.048 338.054 506.862 338.054C504.51 338.054 502.963 339.179 502.586 340.969L505.104 341.173C505.29 340.521 505.871 340.042 506.849 340.042C507.776 340.042 508.307 340.509 508.307 341.314V341.352C508.307 341.985 507.636 342.068 505.929 342.234C503.986 342.413 502.241 343.065 502.241 345.258C502.241 347.201 503.628 348.185 505.501 348.185ZM506.28 346.306C505.443 346.306 504.842 345.916 504.842 345.168C504.842 344.401 505.475 344.024 506.434 343.89C507.028 343.807 508 343.666 508.326 343.449V344.491C508.326 345.52 507.476 346.306 506.28 346.306ZM518.365 338.182H516.517V335.83H513.794V338.182H512.452V340.227H513.794V345.341C513.782 347.265 515.092 348.217 517.067 348.134C517.77 348.109 518.269 347.968 518.544 347.879L518.115 345.852C517.981 345.878 517.693 345.942 517.438 345.942C516.894 345.942 516.517 345.737 516.517 344.983V340.227H518.365V338.182ZM520.138 348H522.861V338.182H520.138V348ZM521.506 336.916C522.318 336.916 522.983 336.296 522.983 335.536C522.983 334.781 522.318 334.161 521.506 334.161C520.701 334.161 520.036 334.781 520.036 335.536C520.036 336.296 520.701 336.916 521.506 336.916ZM529.479 348.192C532.457 348.192 534.311 346.153 534.311 343.129C534.311 340.087 532.457 338.054 529.479 338.054C526.5 338.054 524.646 340.087 524.646 343.129C524.646 346.153 526.5 348.192 529.479 348.192ZM529.492 346.082C528.117 346.082 527.414 344.823 527.414 343.11C527.414 341.397 528.117 340.131 529.492 340.131C530.84 340.131 531.543 341.397 531.543 343.11C531.543 344.823 530.84 346.082 529.492 346.082ZM538.805 342.324C538.811 341.058 539.565 340.317 540.665 340.317C541.758 340.317 542.416 341.033 542.41 342.234V348H545.133V341.749C545.133 339.46 543.791 338.054 541.745 338.054C540.288 338.054 539.233 338.77 538.792 339.914H538.677V338.182H536.082V348H538.805V342.324ZM554.168 334.909H551.445V348H554.168V334.909ZM559.149 348.185C560.6 348.185 561.54 347.553 562.019 346.638H562.096V348H564.678V341.378C564.678 339.038 562.697 338.054 560.511 338.054C558.158 338.054 556.611 339.179 556.234 340.969L558.753 341.173C558.938 340.521 559.52 340.042 560.498 340.042C561.425 340.042 561.955 340.509 561.955 341.314V341.352C561.955 341.985 561.284 342.068 559.577 342.234C557.634 342.413 555.889 343.065 555.889 345.258C555.889 347.201 557.276 348.185 559.149 348.185ZM559.929 346.306C559.092 346.306 558.491 345.916 558.491 345.168C558.491 344.401 559.123 344.024 560.082 343.89C560.677 343.807 561.648 343.666 561.974 343.449V344.491C561.974 345.52 561.124 346.306 559.929 346.306ZM568.12 351.682C570.147 351.682 571.22 350.646 571.777 349.061L575.593 338.195L572.71 338.182L570.658 345.392H570.556L568.523 338.182H565.659L569.181 348.281L569.022 348.697C568.664 349.617 567.98 349.662 567.021 349.368L566.407 351.401C566.797 351.567 567.43 351.682 568.12 351.682ZM581.127 348.192C583.555 348.192 585.192 347.009 585.575 345.188L583.057 345.021C582.782 345.769 582.079 346.159 581.171 346.159C579.81 346.159 578.947 345.258 578.947 343.794V343.788H585.633V343.04C585.633 339.703 583.613 338.054 581.018 338.054C578.129 338.054 576.256 340.106 576.256 343.136C576.256 346.249 578.103 348.192 581.127 348.192ZM578.947 342.1C579.004 340.982 579.854 340.087 581.063 340.087C582.245 340.087 583.063 340.93 583.07 342.1H578.947ZM587.41 348H590.133V342.445C590.133 341.237 591.015 340.406 592.217 340.406C592.594 340.406 593.112 340.47 593.367 340.553V338.137C593.124 338.08 592.786 338.041 592.511 338.041C591.411 338.041 590.51 338.68 590.152 339.895H590.05V338.182H587.41V348ZM462.568 372.659H466.353V371.406H464V357.548H466.353V356.295H462.568V372.659ZM469.857 364.094C469.857 362.381 470.918 361.409 472.363 361.409C473.763 361.409 474.613 362.323 474.613 363.864V370H476.121V363.761C476.121 361.256 474.785 360.054 472.797 360.054C471.314 360.054 470.394 360.719 469.934 361.716H469.806V360.182H468.348V370H469.857V364.094ZM482.994 370.205C484.989 370.205 486.446 369.207 486.906 367.724L485.449 367.315C485.065 368.338 484.177 368.849 482.994 368.849C481.224 368.849 480.003 367.705 479.932 365.602H487.06V364.963C487.06 361.307 484.886 360.054 482.841 360.054C480.182 360.054 478.418 362.151 478.418 365.168C478.418 368.185 480.156 370.205 482.994 370.205ZM479.932 364.298C480.035 362.771 481.115 361.409 482.841 361.409C484.477 361.409 485.525 362.636 485.525 364.298H479.932ZM493.624 360.182H491.528V357.83H490.019V360.182H488.536V361.46H490.019V367.597C490.019 369.31 491.4 370.128 492.678 370.128C493.241 370.128 493.599 370.026 493.803 369.949L493.496 368.594C493.369 368.619 493.164 368.67 492.832 368.67C492.167 368.67 491.528 368.466 491.528 367.188V361.46H493.624V360.182ZM498.118 370H499.601L501.748 362.457H501.902L504.05 370H505.533L508.524 360.182H506.939L504.817 367.673H504.714L502.643 360.182H501.033L498.936 367.699H498.834L496.712 360.182H495.126L498.118 370ZM514.173 370.205C516.832 370.205 518.622 368.185 518.622 365.142C518.622 362.074 516.832 360.054 514.173 360.054C511.514 360.054 509.724 362.074 509.724 365.142C509.724 368.185 511.514 370.205 514.173 370.205ZM514.173 368.849C512.153 368.849 511.233 367.111 511.233 365.142C511.233 363.173 512.153 361.409 514.173 361.409C516.193 361.409 517.113 363.173 517.113 365.142C517.113 367.111 516.193 368.849 514.173 368.849ZM520.925 370H522.433V363.787C522.433 362.457 523.481 361.486 524.913 361.486C525.316 361.486 525.731 361.562 525.834 361.588V360.054C525.661 360.041 525.265 360.028 525.041 360.028C523.865 360.028 522.842 360.693 522.484 361.665H522.382V360.182H520.925V370ZM527.622 370H529.13V366.325L530.185 365.347L533.861 370H535.778L531.323 364.375L535.471 360.182H533.605L529.309 364.554H529.13V356.909H527.622V370ZM540.43 356.295H536.646V357.548H538.998V371.406H536.646V372.659H540.43V356.295Z" fill="white"/>
<rect x="18.5" y="22.5" width="826" height="288" rx="8.5" stroke="#4079A2" stroke-width="3" stroke-dasharray="6 6"/>
<rect x="18.5" y="394.5" width="826" height="160" rx="8.5" stroke="#4079A2" stroke-width="3" stroke-dasharray="6 6"/>
<path d="M39.7418 59L40.7134 56.0149H45.4371L46.4087 59H49.3746L44.8619 45.9091H41.2951L36.7759 59H39.7418ZM41.4165 53.8544L43.0273 48.9006H43.1296L44.7404 53.8544H41.4165ZM50.8991 62.6818H53.6222V57.4276H53.7053C54.0824 58.2457 54.907 59.1598 56.4922 59.1598C58.7294 59.1598 60.4744 57.3892 60.4744 54.1037C60.4744 50.7287 58.6527 49.054 56.4986 49.054C54.8558 49.054 54.0696 50.032 53.7053 50.831H53.5838V49.1818H50.8991V62.6818ZM53.5646 54.0909C53.5646 52.3395 54.3061 51.2209 55.6293 51.2209C56.978 51.2209 57.6939 52.3906 57.6939 54.0909C57.6939 55.804 56.9652 56.9929 55.6293 56.9929C54.3189 56.9929 53.5646 55.8423 53.5646 54.0909ZM62.2898 62.6818H65.0128V57.4276H65.0959C65.473 58.2457 66.2976 59.1598 67.8828 59.1598C70.12 59.1598 71.8651 57.3892 71.8651 54.1037C71.8651 50.7287 70.0433 49.054 67.8892 49.054C66.2464 49.054 65.4602 50.032 65.0959 50.831H64.9744V49.1818L62.2898 49.1818V62.6818ZM64.9553 54.0909C64.9553 52.3395 65.6967 51.2209 67.0199 51.2209C68.3686 51.2209 69.0845 52.3906 69.0845 54.0909C69.0845 55.804 68.3558 56.9929 67.0199 56.9929C65.7095 56.9929 64.9553 55.8423 64.9553 54.0909ZM76.4034 45.9091H73.6804V59H76.4034V45.9091ZM78.5847 59H81.3077V49.1818H78.5847V59ZM79.9526 47.9162C80.7644 47.9162 81.4292 47.2962 81.4292 46.5355C81.4292 45.7813 80.7644 45.1612 79.9526 45.1612C79.1472 45.1612 78.4824 45.7813 78.4824 46.5355C78.4824 47.2962 79.1472 47.9162 79.9526 47.9162ZM87.9251 59.1918C90.5394 59.1918 92.1822 57.6577 92.31 55.4013H89.7404C89.5806 56.4496 88.8903 57.0376 87.957 57.0376C86.685 57.0376 85.8604 55.9702 85.8604 54.0909C85.8604 52.2372 86.6914 51.1761 87.957 51.1761C88.9542 51.1761 89.5934 51.8345 89.7404 52.8125H92.31C92.195 50.5433 90.4755 49.054 87.9123 49.054C84.9336 49.054 83.0927 51.1186 83.0927 54.1293C83.0927 57.1143 84.9016 59.1918 87.9251 59.1918ZM96.8532 59.1854C98.3042 59.1854 99.2438 58.5526 99.7232 57.6385H99.7999V59H102.382V52.3778C102.382 50.0384 100.401 49.054 98.2147 49.054C95.8624 49.054 94.3155 50.179 93.9384 51.9688L96.4569 52.1733C96.6422 51.5213 97.2239 51.0419 98.2019 51.0419C99.1287 51.0419 99.6593 51.5085 99.6593 52.3139V52.3523C99.6593 52.9851 98.9881 53.0682 97.2814 53.2344C95.3382 53.4134 93.5932 54.0653 93.5932 56.2578C93.5932 58.201 94.9803 59.1854 96.8532 59.1854ZM97.633 57.3061C96.7956 57.3061 96.1948 56.9162 96.1948 56.1683C96.1948 55.4013 96.8276 55.0241 97.7864 54.8899C98.3809 54.8068 99.3525 54.6662 99.6784 54.4489V55.4908C99.6784 56.5199 98.8283 57.3061 97.633 57.3061ZM109.717 49.1818H107.87V46.8295H105.147V49.1818H103.805V51.2273H105.147V56.3409C105.134 58.2649 106.444 59.2173 108.42 59.1342C109.123 59.1087 109.621 58.968 109.896 58.8786L109.468 56.8523C109.334 56.8778 109.046 56.9418 108.79 56.9418C108.247 56.9418 107.87 56.7372 107.87 55.983V51.2273H109.717V49.1818ZM111.491 59H114.214V49.1818H111.491V59ZM112.859 47.9162C113.671 47.9162 114.335 47.2962 114.335 46.5355C114.335 45.7813 113.671 45.1612 112.859 45.1612C112.053 45.1612 111.389 45.7813 111.389 46.5355C111.389 47.2962 112.053 47.9162 112.859 47.9162ZM120.831 59.1918C123.81 59.1918 125.664 57.1527 125.664 54.1293C125.664 51.0866 123.81 49.054 120.831 49.054C117.853 49.054 115.999 51.0866 115.999 54.1293C115.999 57.1527 117.853 59.1918 120.831 59.1918ZM120.844 57.0824C119.47 57.0824 118.767 55.8232 118.767 54.1101C118.767 52.397 119.47 51.1314 120.844 51.1314C122.193 51.1314 122.896 52.397 122.896 54.1101C122.896 55.8232 122.193 57.0824 120.844 57.0824ZM130.157 53.3239C130.164 52.0582 130.918 51.3168 132.017 51.3168C133.11 51.3168 133.769 52.0327 133.762 53.2344V59H136.485V52.7486C136.485 50.4602 135.143 49.054 133.098 49.054C131.64 49.054 130.586 49.7699 130.145 50.9141H130.029V49.1818H127.434V59H130.157V53.3239ZM146.801 51.9815C146.558 50.1726 145.1 49.054 142.62 49.054C140.108 49.054 138.453 50.2173 138.459 52.1094C138.453 53.5795 139.379 54.532 141.297 54.9155L142.997 55.2543C143.854 55.4268 144.244 55.7401 144.257 56.2322C144.244 56.8139 143.611 57.2294 142.659 57.2294C141.687 57.2294 141.041 56.8139 140.875 56.0149L138.197 56.1555C138.453 58.0348 140.051 59.1918 142.652 59.1918C145.196 59.1918 147.018 57.8942 147.024 55.9574C147.018 54.5384 146.091 53.6882 144.186 53.2983L142.409 52.9403C141.495 52.7422 141.156 52.429 141.163 51.956C141.156 51.3679 141.821 50.9844 142.665 50.9844C143.611 50.9844 144.173 51.5021 144.308 52.1349L146.801 51.9815Z" fill="#4079A2"/>
<path d="M40.1468 414.909H37.379V428H40.1468V414.909ZM54.4537 421.455C54.4537 417.172 51.7947 414.73 48.3238 414.73C44.8337 414.73 42.1938 417.172 42.1938 421.455C42.1938 425.718 44.8337 428.179 48.3238 428.179C51.7947 428.179 54.4537 425.737 54.4537 421.455ZM51.6476 421.455C51.6476 424.229 50.3309 425.731 48.3238 425.731C46.3103 425.731 44.9999 424.229 44.9999 421.455C44.9999 418.68 46.3103 417.178 48.3238 417.178C50.3309 417.178 51.6476 418.68 51.6476 421.455ZM55.4253 417.191H59.4332V428H62.1689V417.191H66.1768V414.909H55.4253V417.191ZM68.5866 428L69.5582 425.015H74.2819L75.2535 428H78.2194L73.7066 414.909H70.1398L65.6206 428H68.5866ZM70.2613 422.854L71.8721 417.901H71.9743L73.5851 422.854H70.2613ZM94.9106 414.909H92.1556V423.142H92.0406L86.39 414.909H83.961V428H86.7288V419.761H86.8247L92.52 428H94.9106V414.909ZM101.621 428.192C104.05 428.192 105.686 427.009 106.07 425.188L103.551 425.021C103.276 425.769 102.573 426.159 101.665 426.159C100.304 426.159 99.441 425.258 99.441 423.794V423.788H106.127V423.04C106.127 419.703 104.107 418.054 101.512 418.054C98.6228 418.054 96.7499 420.106 96.7499 423.136C96.7499 426.249 98.5972 428.192 101.621 428.192ZM99.441 422.1C99.4985 420.982 100.349 420.087 101.557 420.087C102.739 420.087 103.557 420.93 103.564 422.1H99.441ZM113.126 418.182H111.279V415.83H108.556V418.182H107.214V420.227H108.556V425.341C108.543 427.265 109.854 428.217 111.829 428.134C112.532 428.109 113.03 427.968 113.305 427.879L112.877 425.852C112.743 425.878 112.455 425.942 112.199 425.942C111.656 425.942 111.279 425.737 111.279 424.983V420.227H113.126V418.182ZM116.837 428H119.713L121.401 421.825H121.522L123.21 428H126.093L128.758 418.182H126.009L124.514 424.74H124.431L122.82 418.182H120.116L118.531 424.778H118.441L116.92 418.182H114.165L116.837 428ZM134.401 428.192C137.379 428.192 139.233 426.153 139.233 423.129C139.233 420.087 137.379 418.054 134.401 418.054C131.422 418.054 129.568 420.087 129.568 423.129C129.568 426.153 131.422 428.192 134.401 428.192ZM134.413 426.082C133.039 426.082 132.336 424.823 132.336 423.11C132.336 421.397 133.039 420.131 134.413 420.131C135.762 420.131 136.465 421.397 136.465 423.11C136.465 424.823 135.762 426.082 134.413 426.082ZM141.004 428H143.727V422.445C143.727 421.237 144.609 420.406 145.81 420.406C146.188 420.406 146.705 420.47 146.961 420.553V418.137C146.718 418.08 146.379 418.041 146.104 418.041C145.005 418.041 144.104 418.68 143.746 419.895H143.644V418.182H141.004V428ZM148.369 428H151.092V424.881L151.827 424.043L154.505 428H157.695L153.866 422.433L157.509 418.182H154.384L151.239 421.908H151.092V414.909H148.369V428Z" fill="#4079A2"/>
</svg>
