<svg width="862" height="575" viewBox="0 0 862 575" fill="none" xmlns="http://www.w3.org/2000/svg">
<rect x="0.5" y="0.5" width="861" height="574" fill="#111F3B" stroke="#293856"/>
<rect x="180" y="44" width="312" height="55" rx="5" fill="#485A68"/>
<rect x="511" y="44" width="308" height="55" rx="5" fill="#485A68"/>
<rect x="180" y="107" width="639" height="55" rx="5" fill="#3C7266"/>
<rect x="180" y="233" width="639" height="55" rx="5" fill="#4EA793"/>
<rect x="180" y="325" width="639" height="55" rx="5" fill="#C56550"/>
<rect x="180" y="410" width="639" height="55" rx="5" stroke="#369FAB" stroke-width="3"/>
<rect x="180" y="482" width="270" height="55" rx="5" fill="#499785"/>
<rect x="549" y="482" width="270" height="55" rx="5" fill="#B7784A"/>
<rect x="180" y="170" width="312" height="55" rx="5" fill="#636650"/>
<rect x="511" y="170" width="308" height="55" rx="5" fill="#A5AC7E"/>
<path d="M307.404 60.3239C307.411 59.0582 308.165 58.3168 309.264 58.3168C310.358 58.3168 311.016 59.0327 311.009 60.2344V66H313.733V59.7486C313.733 57.4602 312.39 56.054 310.345 56.054C308.887 56.054 307.833 56.7699 307.392 57.9141H307.277V56.1818H304.681V66H307.404V60.3239ZM320.315 66.1918C323.293 66.1918 325.147 64.1527 325.147 61.1293C325.147 58.0866 323.293 56.054 320.315 56.054C317.336 56.054 315.482 58.0866 315.482 61.1293C315.482 64.1527 317.336 66.1918 320.315 66.1918ZM320.328 64.0824C318.953 64.0824 318.25 62.8232 318.25 61.1101C318.25 59.397 318.953 58.1314 320.328 58.1314C321.676 58.1314 322.379 59.397 322.379 61.1101C322.379 62.8232 321.676 64.0824 320.328 64.0824ZM330.536 66.1598C332.121 66.1598 332.945 65.2457 333.323 64.4276H333.438V66H336.122V52.9091H333.406V57.831H333.323C332.958 57.032 332.172 56.054 330.529 56.054C328.375 56.054 326.553 57.7287 326.553 61.1037C326.553 64.3892 328.298 66.1598 330.536 66.1598ZM331.399 63.9929C330.063 63.9929 329.334 62.804 329.334 61.0909C329.334 59.3906 330.05 58.2209 331.399 58.2209C332.722 58.2209 333.463 59.3395 333.463 61.0909C333.463 62.8423 332.709 63.9929 331.399 63.9929ZM342.835 66.1918C345.264 66.1918 346.901 65.0092 347.284 63.1875L344.766 63.0213C344.491 63.7692 343.788 64.1591 342.88 64.1591C341.519 64.1591 340.656 63.2578 340.656 61.794V61.7876H347.342V61.0398C347.342 57.7031 345.322 56.054 342.727 56.054C339.838 56.054 337.965 58.1058 337.965 61.1357C337.965 64.2486 339.812 66.1918 342.835 66.1918ZM340.656 60.1001C340.713 58.9815 341.563 58.0866 342.772 58.0866C343.954 58.0866 344.772 58.9304 344.779 60.1001H340.656ZM350.71 66.1662C351.529 66.1662 352.238 65.4822 352.245 64.6321C352.238 63.7947 351.529 63.1108 350.71 63.1108C349.867 63.1108 349.17 63.7947 349.176 64.6321C349.17 65.4822 349.867 66.1662 350.71 66.1662ZM354.48 56.1818V66.4411C354.48 67.1825 354.167 67.5533 353.291 67.5533C353.176 67.5533 353.074 67.5533 352.933 67.5405V69.669C353.131 69.6754 353.291 69.6818 353.483 69.6818C355.797 69.6818 357.203 68.7614 357.203 66.4858V56.1818H354.48ZM355.835 54.9162C356.647 54.9162 357.312 54.2962 357.312 53.5355C357.312 52.7812 356.647 52.1612 355.835 52.1612C355.03 52.1612 354.365 52.7812 354.365 53.5355C354.365 54.2962 355.03 54.9162 355.835 54.9162ZM367.554 58.9815C367.311 57.1726 365.853 56.054 363.373 56.054C360.861 56.054 359.206 57.2173 359.212 59.1094C359.206 60.5795 360.132 61.532 362.05 61.9155L363.75 62.2543C364.607 62.4268 364.997 62.7401 365.009 63.2322C364.997 63.8139 364.364 64.2294 363.411 64.2294C362.44 64.2294 361.794 63.8139 361.628 63.0149L358.95 63.1555C359.206 65.0348 360.804 66.1918 363.405 66.1918C365.949 66.1918 367.771 64.8942 367.777 62.9574C367.771 61.5384 366.844 60.6882 364.939 60.2983L363.162 59.9403C362.248 59.7422 361.909 59.429 361.916 58.956C361.909 58.3679 362.574 57.9844 363.418 57.9844C364.364 57.9844 364.926 58.5021 365.061 59.1349L367.554 58.9815ZM306.12 88H307.578V86.4915H307.757C308.089 87.0284 308.728 88.2045 310.62 88.2045C313.075 88.2045 314.788 86.2358 314.788 83.1165C314.788 80.0227 313.075 78.054 310.595 78.054C308.677 78.054 308.089 79.2301 307.757 79.7415H307.629V74.9091H306.12V88ZM307.603 83.0909C307.603 80.892 308.575 79.4091 310.416 79.4091C312.333 79.4091 313.279 81.0199 313.279 83.0909C313.279 85.1875 312.308 86.8494 310.416 86.8494C308.6 86.8494 307.603 85.3153 307.603 83.0909ZM317.096 88H318.604V78.1818H317.096V88ZM317.863 76.5455C318.451 76.5455 318.936 76.0852 318.936 75.5227C318.936 74.9602 318.451 74.5 317.863 74.5C317.275 74.5 316.789 74.9602 316.789 75.5227C316.789 76.0852 317.275 76.5455 317.863 76.5455ZM322.876 82.0938C322.876 80.3807 323.937 79.4091 325.381 79.4091C326.781 79.4091 327.631 80.3232 327.631 81.8636V88H329.14V81.7614C329.14 79.2557 327.804 78.054 325.816 78.054C324.333 78.054 323.412 78.7188 322.952 79.7159H322.824V78.1818H321.367V88H322.876V82.0938ZM335.604 88.2045C337.496 88.2045 338.135 87.0284 338.467 86.4915H338.646V88H340.104V74.9091H338.595V79.7415H338.467C338.135 79.2301 337.547 78.054 335.629 78.054C333.149 78.054 331.436 80.0227 331.436 83.1165C331.436 86.2358 333.149 88.2045 335.604 88.2045ZM335.808 86.8494C333.916 86.8494 332.945 85.1875 332.945 83.0909C332.945 81.0199 333.891 79.4091 335.808 79.4091C337.649 79.4091 338.621 80.892 338.621 83.0909C338.621 85.3153 337.624 86.8494 335.808 86.8494ZM343.076 88H344.585V78.1818H343.076V88ZM343.843 76.5455C344.431 76.5455 344.917 76.0852 344.917 75.5227C344.917 74.9602 344.431 74.5 343.843 74.5C343.255 74.5 342.769 74.9602 342.769 75.5227C342.769 76.0852 343.255 76.5455 343.843 76.5455ZM348.856 82.0938C348.856 80.3807 349.917 79.4091 351.362 79.4091C352.762 79.4091 353.612 80.3232 353.612 81.8636V88H355.12V81.7614C355.12 79.2557 353.784 78.054 351.796 78.054C350.313 78.054 349.393 78.7188 348.933 79.7159H348.805V78.1818H347.347V88H348.856V82.0938ZM361.84 91.8864C364.192 91.8864 366.084 90.8125 366.084 88.2812V78.1818H364.627V79.7415H364.473C364.141 79.2301 363.527 78.054 361.61 78.054C359.13 78.054 357.417 80.0227 357.417 83.0398C357.417 86.108 359.206 87.8466 361.584 87.8466C363.502 87.8466 364.115 86.7216 364.448 86.1847H364.576V88.179C364.576 89.8153 363.425 90.5568 361.84 90.5568C360.056 90.5568 359.43 89.6172 359.027 89.0739L357.826 89.9176C358.439 90.9467 359.647 91.8864 361.84 91.8864ZM361.789 86.4915C359.897 86.4915 358.925 85.0597 358.925 83.0142C358.925 81.0199 359.871 79.4091 361.789 79.4091C363.63 79.4091 364.601 80.892 364.601 83.0142C364.601 85.1875 363.604 86.4915 361.789 86.4915Z" fill="white"/>
<path d="M634.947 69.6818H637.67V64.4276H637.753C638.13 65.2457 638.955 66.1598 640.54 66.1598C642.777 66.1598 644.522 64.3892 644.522 61.1037C644.522 57.7287 642.701 56.054 640.546 56.054C638.904 56.054 638.117 57.032 637.753 57.831H637.632V56.1818H634.947V69.6818ZM637.612 61.0909C637.612 59.3395 638.354 58.2209 639.677 58.2209C641.026 58.2209 641.742 59.3906 641.742 61.0909C641.742 62.804 641.013 63.9929 639.677 63.9929C638.367 63.9929 637.612 62.8423 637.612 61.0909ZM647.685 69.6818C649.711 69.6818 650.785 68.6463 651.341 67.0611L655.157 56.1946L652.274 56.1818L650.222 63.392H650.12L648.087 56.1818H645.224L648.746 66.2812L648.586 66.6967C648.228 67.6172 647.544 67.6619 646.585 67.3679L645.972 69.4006C646.362 69.5668 646.994 69.6818 647.685 69.6818ZM661.773 56.1818H659.926V53.8295H657.203V56.1818H655.86V58.2273H657.203V63.3409C657.19 65.2649 658.5 66.2173 660.475 66.1342C661.178 66.1087 661.677 65.968 661.952 65.8786L661.524 63.8523C661.389 63.8778 661.102 63.9418 660.846 63.9418C660.303 63.9418 659.926 63.7372 659.926 62.983V58.2273H661.773V56.1818ZM666.481 60.3239C666.487 59.0582 667.26 58.3168 668.373 58.3168C669.478 58.3168 670.13 59.0263 670.124 60.2344V66H672.847V59.7486C672.853 57.4474 671.498 56.054 669.453 56.054C667.964 56.054 666.966 56.7571 666.519 57.9141H666.404V52.9091H663.758V66H666.481V60.3239ZM679.426 66.1918C682.405 66.1918 684.258 64.1527 684.258 61.1293C684.258 58.0866 682.405 56.054 679.426 56.054C676.447 56.054 674.594 58.0866 674.594 61.1293C674.594 64.1527 676.447 66.1918 679.426 66.1918ZM679.439 64.0824C678.065 64.0824 677.361 62.8232 677.361 61.1101C677.361 59.397 678.065 58.1314 679.439 58.1314C680.788 58.1314 681.491 59.397 681.491 61.1101C681.491 62.8232 680.788 64.0824 679.439 64.0824ZM688.752 60.3239C688.758 59.0582 689.513 58.3168 690.612 58.3168C691.705 58.3168 692.364 59.0327 692.357 60.2344V66H695.08V59.7486C695.08 57.4602 693.738 56.054 691.692 56.054C690.235 56.054 689.18 56.7699 688.739 57.9141H688.624V56.1818H686.029V66H688.752V60.3239ZM635.12 88H636.578V86.4915H636.757C637.089 87.0284 637.728 88.2045 639.62 88.2045C642.075 88.2045 643.788 86.2358 643.788 83.1165C643.788 80.0227 642.075 78.054 639.595 78.054C637.677 78.054 637.089 79.2301 636.757 79.7415H636.629V74.9091H635.12V88ZM636.603 83.0909C636.603 80.892 637.575 79.4091 639.416 79.4091C641.333 79.4091 642.279 81.0199 642.279 83.0909C642.279 85.1875 641.308 86.8494 639.416 86.8494C637.6 86.8494 636.603 85.3153 636.603 83.0909ZM646.096 88H647.604V78.1818H646.096V88ZM646.863 76.5455C647.451 76.5455 647.936 76.0852 647.936 75.5227C647.936 74.9602 647.451 74.5 646.863 74.5C646.275 74.5 645.789 74.9602 645.789 75.5227C645.789 76.0852 646.275 76.5455 646.863 76.5455ZM651.876 82.0938C651.876 80.3807 652.937 79.4091 654.381 79.4091C655.781 79.4091 656.631 80.3232 656.631 81.8636V88H658.14V81.7614C658.14 79.2557 656.804 78.054 654.816 78.054C653.333 78.054 652.412 78.7188 651.952 79.7159H651.824V78.1818H650.367V88H651.876V82.0938ZM664.604 88.2045C666.496 88.2045 667.135 87.0284 667.467 86.4915H667.646V88H669.104V74.9091H667.595V79.7415H667.467C667.135 79.2301 666.547 78.054 664.629 78.054C662.149 78.054 660.436 80.0227 660.436 83.1165C660.436 86.2358 662.149 88.2045 664.604 88.2045ZM664.808 86.8494C662.916 86.8494 661.945 85.1875 661.945 83.0909C661.945 81.0199 662.891 79.4091 664.808 79.4091C666.649 79.4091 667.621 80.892 667.621 83.0909C667.621 85.3153 666.624 86.8494 664.808 86.8494ZM672.076 88H673.585V78.1818H672.076V88ZM672.843 76.5455C673.431 76.5455 673.917 76.0852 673.917 75.5227C673.917 74.9602 673.431 74.5 672.843 74.5C672.255 74.5 671.769 74.9602 671.769 75.5227C671.769 76.0852 672.255 76.5455 672.843 76.5455ZM677.856 82.0938C677.856 80.3807 678.917 79.4091 680.362 79.4091C681.762 79.4091 682.612 80.3232 682.612 81.8636V88H684.12V81.7614C684.12 79.2557 682.784 78.054 680.796 78.054C679.313 78.054 678.393 78.7188 677.933 79.7159H677.805V78.1818H676.347V88H677.856V82.0938ZM690.84 91.8864C693.192 91.8864 695.084 90.8125 695.084 88.2812V78.1818H693.627V79.7415H693.473C693.141 79.2301 692.527 78.054 690.61 78.054C688.13 78.054 686.417 80.0227 686.417 83.0398C686.417 86.108 688.206 87.8466 690.584 87.8466C692.502 87.8466 693.115 86.7216 693.448 86.1847H693.576V88.179C693.576 89.8153 692.425 90.5568 690.84 90.5568C689.056 90.5568 688.43 89.6172 688.027 89.0739L686.826 89.9176C687.439 90.9467 688.647 91.8864 690.84 91.8864ZM690.789 86.4915C688.897 86.4915 687.925 85.0597 687.925 83.0142C687.925 81.0199 688.871 79.4091 690.789 79.4091C692.63 79.4091 693.601 80.892 693.601 83.0142C693.601 85.1875 692.604 86.4915 690.789 86.4915Z" fill="white"/>
<path d="M464.449 129H467.326L469.013 122.825H469.135L470.822 129H473.705L476.37 119.182H473.622L472.126 125.74H472.043L470.432 119.182H467.728L466.143 125.778H466.054L464.532 119.182H461.777L464.449 129ZM480.623 129.185C482.074 129.185 483.013 128.553 483.493 127.638H483.569V129H486.152V122.378C486.152 120.038 484.17 119.054 481.984 119.054C479.632 119.054 478.085 120.179 477.708 121.969L480.226 122.173C480.412 121.521 480.993 121.042 481.971 121.042C482.898 121.042 483.429 121.509 483.429 122.314V122.352C483.429 122.985 482.758 123.068 481.051 123.234C479.108 123.413 477.363 124.065 477.363 126.258C477.363 128.201 478.75 129.185 480.623 129.185ZM481.403 127.306C480.565 127.306 479.964 126.916 479.964 126.168C479.964 125.401 480.597 125.024 481.556 124.89C482.15 124.807 483.122 124.666 483.448 124.449V125.491C483.448 126.52 482.598 127.306 481.403 127.306ZM490.987 115.909H488.264V129H490.987V115.909ZM495.892 115.909H493.169V129H495.892V115.909ZM502.547 129.192C504.976 129.192 506.613 128.009 506.996 126.188L504.478 126.021C504.203 126.769 503.5 127.159 502.592 127.159C501.231 127.159 500.368 126.258 500.368 124.794V124.788H507.054V124.04C507.054 120.703 505.034 119.054 502.439 119.054C499.55 119.054 497.677 121.106 497.677 124.136C497.677 127.249 499.524 129.192 502.547 129.192ZM500.368 123.1C500.425 121.982 501.275 121.087 502.483 121.087C503.666 121.087 504.484 121.93 504.491 123.1H500.368ZM514.053 119.182H512.206V116.83H509.483V119.182H508.14V121.227H509.483V126.341C509.47 128.265 510.78 129.217 512.756 129.134C513.459 129.109 513.957 128.968 514.232 128.879L513.804 126.852C513.67 126.878 513.382 126.942 513.126 126.942C512.583 126.942 512.206 126.737 512.206 125.983V121.227H514.053V119.182ZM517.419 129.166C518.237 129.166 518.946 128.482 518.953 127.632C518.946 126.795 518.237 126.111 517.419 126.111C516.575 126.111 515.878 126.795 515.884 127.632C515.878 128.482 516.575 129.166 517.419 129.166ZM521.188 129H523.911V123.445C523.911 122.237 524.793 121.406 525.995 121.406C526.372 121.406 526.89 121.47 527.146 121.553V119.137C526.903 119.08 526.564 119.041 526.289 119.041C525.19 119.041 524.288 119.68 523.93 120.895H523.828V119.182H521.188V129ZM536.722 121.982C536.48 120.173 535.022 119.054 532.542 119.054C530.03 119.054 528.374 120.217 528.381 122.109C528.374 123.58 529.301 124.532 531.219 124.915L532.919 125.254C533.776 125.427 534.166 125.74 534.178 126.232C534.166 126.814 533.533 127.229 532.58 127.229C531.609 127.229 530.963 126.814 530.797 126.015L528.119 126.156C528.374 128.035 529.972 129.192 532.574 129.192C535.118 129.192 536.94 127.894 536.946 125.957C536.94 124.538 536.013 123.688 534.108 123.298L532.331 122.94C531.417 122.742 531.078 122.429 531.085 121.956C531.078 121.368 531.743 120.984 532.587 120.984C533.533 120.984 534.095 121.502 534.23 122.135L536.722 121.982ZM409.82 153.659H413.604V152.406H411.252V138.548H413.604V137.295H409.82V153.659ZM419.378 151.205C422.037 151.205 423.827 149.185 423.827 146.142C423.827 143.074 422.037 141.054 419.378 141.054C416.719 141.054 414.929 143.074 414.929 146.142C414.929 149.185 416.719 151.205 419.378 151.205ZM419.378 149.849C417.358 149.849 416.438 148.111 416.438 146.142C416.438 144.173 417.358 142.409 419.378 142.409C421.398 142.409 422.318 144.173 422.318 146.142C422.318 148.111 421.398 149.849 419.378 149.849ZM430.502 141.182H428.303V140.185C428.303 139.213 428.712 138.702 429.709 138.702C430.144 138.702 430.4 138.804 430.553 138.855L430.988 137.551C430.758 137.449 430.297 137.295 429.556 137.295C428.15 137.295 426.794 138.139 426.794 139.827V141.182H425.209V142.46H426.794V151H428.303V142.46H430.502V141.182ZM436.988 141.182H434.789V140.185C434.789 139.213 435.198 138.702 436.196 138.702C436.63 138.702 436.886 138.804 437.039 138.855L437.474 137.551C437.244 137.449 436.784 137.295 436.042 137.295C434.636 137.295 433.281 138.139 433.281 139.827V141.182H431.696V142.46H433.281V151H434.789V142.46H436.988V141.182ZM439.102 151H440.611V141.182H439.102V151ZM439.869 139.545C440.457 139.545 440.943 139.085 440.943 138.523C440.943 137.96 440.457 137.5 439.869 137.5C439.281 137.5 438.796 137.96 438.796 138.523C438.796 139.085 439.281 139.545 439.869 139.545ZM447.362 151.205C449.536 151.205 450.968 149.875 451.223 148.136H449.715C449.434 149.21 448.539 149.849 447.362 149.849C445.573 149.849 444.422 148.366 444.422 146.091C444.422 143.866 445.598 142.409 447.362 142.409C448.692 142.409 449.485 143.227 449.715 144.122H451.223C450.968 142.281 449.408 141.054 447.337 141.054C444.678 141.054 442.914 143.151 442.914 146.142C442.914 149.082 444.601 151.205 447.362 151.205ZM453.429 151H454.937V141.182H453.429V151ZM454.196 139.545C454.784 139.545 455.269 139.085 455.269 138.523C455.269 137.96 454.784 137.5 454.196 137.5C453.608 137.5 453.122 137.96 453.122 138.523C453.122 139.085 453.608 139.545 454.196 139.545ZM460.589 151.23C462.302 151.23 463.197 150.31 463.504 149.67H463.581V151H465.089V144.531C465.089 141.412 462.711 141.054 461.459 141.054C459.976 141.054 458.288 141.565 457.521 143.355L458.953 143.866C459.285 143.151 460.071 142.384 461.51 142.384C462.897 142.384 463.581 143.119 463.581 144.378V144.429C463.581 145.158 462.839 145.094 461.049 145.324C459.228 145.56 457.24 145.963 457.24 148.213C457.24 150.131 458.723 151.23 460.589 151.23ZM460.819 149.875C459.618 149.875 458.748 149.338 458.748 148.29C458.748 147.139 459.797 146.781 460.973 146.628C461.612 146.551 463.325 146.372 463.581 146.065V147.446C463.581 148.673 462.609 149.875 460.819 149.875ZM469.351 137.909H467.843V151H469.351V137.909ZM479.401 151H480.884L483.032 143.457H483.185L485.333 151H486.816L489.807 141.182H488.222L486.1 148.673H485.998L483.927 141.182H482.316L480.219 148.699H480.117L477.995 141.182H476.41L479.401 151ZM494.691 151.23C496.404 151.23 497.299 150.31 497.606 149.67H497.682V151H499.191V144.531C499.191 141.412 496.813 141.054 495.56 141.054C494.077 141.054 492.39 141.565 491.623 143.355L493.054 143.866C493.387 143.151 494.173 142.384 495.611 142.384C496.998 142.384 497.682 143.119 497.682 144.378V144.429C497.682 145.158 496.941 145.094 495.151 145.324C493.329 145.56 491.341 145.963 491.341 148.213C491.341 150.131 492.824 151.23 494.691 151.23ZM494.921 149.875C493.719 149.875 492.85 149.338 492.85 148.29C492.85 147.139 493.898 146.781 495.074 146.628C495.714 146.551 497.427 146.372 497.682 146.065V147.446C497.682 148.673 496.711 149.875 494.921 149.875ZM503.453 137.909H501.944V151H503.453V137.909ZM507.724 137.909H506.216V151H507.724V137.909ZM514.604 151.205C516.598 151.205 518.055 150.207 518.516 148.724L517.058 148.315C516.675 149.338 515.786 149.849 514.604 149.849C512.833 149.849 511.612 148.705 511.542 146.602H518.669V145.963C518.669 142.307 516.496 141.054 514.45 141.054C511.791 141.054 510.027 143.151 510.027 146.168C510.027 149.185 511.766 151.205 514.604 151.205ZM511.542 145.298C511.644 143.771 512.724 142.409 514.45 142.409C516.087 142.409 517.135 143.636 517.135 145.298H511.542ZM525.234 141.182H523.137V138.83H521.628V141.182H520.146V142.46H521.628V148.597C521.628 150.31 523.009 151.128 524.288 151.128C524.85 151.128 525.208 151.026 525.413 150.949L525.106 149.594C524.978 149.619 524.773 149.67 524.441 149.67C523.776 149.67 523.137 149.466 523.137 148.188V142.46H525.234V141.182ZM534.074 137.909H532.565V151H534.074V137.909ZM536.837 151H538.345V141.182H536.837V151ZM537.604 139.545C538.192 139.545 538.678 139.085 538.678 138.523C538.678 137.96 538.192 137.5 537.604 137.5C537.016 137.5 536.53 137.96 536.53 138.523C536.53 139.085 537.016 139.545 537.604 139.545ZM541.313 151H542.77V149.491H542.949C543.282 150.028 543.921 151.205 545.813 151.205C548.267 151.205 549.98 149.236 549.98 146.116C549.98 143.023 548.267 141.054 545.787 141.054C543.87 141.054 543.282 142.23 542.949 142.741H542.821V137.909H541.313V151ZM542.796 146.091C542.796 143.892 543.767 142.409 545.608 142.409C547.526 142.409 548.472 144.02 548.472 146.091C548.472 148.188 547.5 149.849 545.608 149.849C543.793 149.849 542.796 148.315 542.796 146.091ZM552.288 151H553.796V144.787C553.796 143.457 554.845 142.486 556.277 142.486C556.679 142.486 557.095 142.562 557.197 142.588V141.054C557.024 141.041 556.628 141.028 556.404 141.028C555.228 141.028 554.206 141.693 553.848 142.665H553.745V141.182H552.288V151ZM561.874 151.23C563.587 151.23 564.482 150.31 564.789 149.67H564.866V151H566.374V144.531C566.374 141.412 563.997 141.054 562.744 141.054C561.261 141.054 559.573 141.565 558.806 143.355L560.238 143.866C560.57 143.151 561.357 142.384 562.795 142.384C564.182 142.384 564.866 143.119 564.866 144.378V144.429C564.866 145.158 564.124 145.094 562.335 145.324C560.513 145.56 558.525 145.963 558.525 148.213C558.525 150.131 560.008 151.23 561.874 151.23ZM562.104 149.875C560.903 149.875 560.033 149.338 560.033 148.29C560.033 147.139 561.082 146.781 562.258 146.628C562.897 146.551 564.61 146.372 564.866 146.065V147.446C564.866 148.673 563.894 149.875 562.104 149.875ZM569.128 151H570.636V144.787C570.636 143.457 571.685 142.486 573.116 142.486C573.519 142.486 573.935 142.562 574.037 142.588V141.054C573.864 141.041 573.468 141.028 573.244 141.028C572.068 141.028 571.045 141.693 570.687 142.665H570.585V141.182H569.128V151ZM577.095 154.682C578.457 154.682 579.416 153.96 579.985 152.432L584.165 141.207L582.516 141.182L579.806 149.006H579.703L576.993 141.182H575.357L578.987 151.051L578.706 151.818C578.157 153.314 577.479 153.455 576.38 153.173L575.996 154.503C576.149 154.58 576.584 154.682 577.095 154.682ZM589.178 137.295H585.394V138.548H587.746V152.406H585.394V153.659H589.178V137.295Z" fill="white"/>
<path d="M285.71 184.982C285.467 183.173 284.009 182.054 281.529 182.054C279.017 182.054 277.362 183.217 277.368 185.109C277.362 186.58 278.289 187.532 280.206 187.915L281.907 188.254C282.763 188.427 283.153 188.74 283.166 189.232C283.153 189.814 282.52 190.229 281.568 190.229C280.596 190.229 279.951 189.814 279.784 189.015L277.106 189.156C277.362 191.035 278.96 192.192 281.561 192.192C284.105 192.192 285.927 190.894 285.934 188.957C285.927 187.538 285 186.688 283.095 186.298L281.318 185.94C280.404 185.742 280.066 185.429 280.072 184.956C280.066 184.368 280.73 183.984 281.574 183.984C282.52 183.984 283.083 184.502 283.217 185.135L285.71 184.982ZM292.87 182.182H291.023V179.83H288.3V182.182H286.958V184.227H288.3V189.341C288.287 191.265 289.598 192.217 291.573 192.134C292.276 192.109 292.775 191.968 293.049 191.879L292.621 189.852C292.487 189.878 292.199 189.942 291.944 189.942C291.4 189.942 291.023 189.737 291.023 188.983V184.227H292.87V182.182ZM294.644 192H297.367V186.445C297.367 185.237 298.249 184.406 299.451 184.406C299.828 184.406 300.346 184.47 300.602 184.553V182.137C300.359 182.08 300.02 182.041 299.745 182.041C298.646 182.041 297.744 182.68 297.386 183.895H297.284V182.182H294.644V192ZM305.989 192.192C308.967 192.192 310.821 190.153 310.821 187.129C310.821 184.087 308.967 182.054 305.989 182.054C303.01 182.054 301.156 184.087 301.156 187.129C301.156 190.153 303.01 192.192 305.989 192.192ZM306.001 190.082C304.627 190.082 303.924 188.823 303.924 187.11C303.924 185.397 304.627 184.131 306.001 184.131C307.35 184.131 308.053 185.397 308.053 187.11C308.053 188.823 307.35 190.082 306.001 190.082ZM315.315 186.324C315.321 185.058 316.075 184.317 317.175 184.317C318.268 184.317 318.926 185.033 318.92 186.234V192H321.643V185.749C321.643 183.46 320.3 182.054 318.255 182.054C316.797 182.054 315.743 182.77 315.302 183.914H315.187V182.182H312.592V192H315.315V186.324ZM328.212 195.886C331.018 195.886 333.013 194.608 333.013 192.096V182.182H330.309V183.831H330.206C329.842 183.032 329.043 182.054 327.4 182.054C325.246 182.054 323.424 183.729 323.424 187.072C323.424 190.338 325.195 191.859 327.407 191.859C328.973 191.859 329.848 191.073 330.206 190.261H330.321V192.058C330.321 193.406 329.459 193.93 328.276 193.93C327.074 193.93 326.467 193.406 326.243 192.812L323.725 193.151C324.051 194.697 325.566 195.886 328.212 195.886ZM328.27 189.814C326.934 189.814 326.205 188.753 326.205 187.059C326.205 185.391 326.921 184.221 328.27 184.221C329.593 184.221 330.334 185.339 330.334 187.059C330.334 188.791 329.58 189.814 328.27 189.814ZM337.902 186.324C337.909 185.058 338.682 184.317 339.794 184.317C340.9 184.317 341.552 185.026 341.546 186.234V192H344.269V185.749C344.275 183.447 342.92 182.054 340.875 182.054C339.385 182.054 338.388 182.757 337.941 183.914H337.826V178.909H335.179V192H337.902V186.324ZM350.848 192.192C353.827 192.192 355.68 190.153 355.68 187.129C355.68 184.087 353.827 182.054 350.848 182.054C347.869 182.054 346.016 184.087 346.016 187.129C346.016 190.153 347.869 192.192 350.848 192.192ZM350.861 190.082C349.486 190.082 348.783 188.823 348.783 187.11C348.783 185.397 349.486 184.131 350.861 184.131C352.209 184.131 352.913 185.397 352.913 187.11C352.913 188.823 352.209 190.082 350.861 190.082ZM360.174 178.909H357.451V192H360.174V178.909ZM365.973 192.16C367.558 192.16 368.383 191.246 368.76 190.428H368.875V192H371.56V178.909H368.843V183.831H368.76C368.396 183.032 367.609 182.054 365.967 182.054C363.813 182.054 361.991 183.729 361.991 187.104C361.991 190.389 363.736 192.16 365.973 192.16ZM366.836 189.993C365.5 189.993 364.771 188.804 364.771 187.091C364.771 185.391 365.487 184.221 366.836 184.221C368.159 184.221 368.901 185.339 368.901 187.091C368.901 188.842 368.146 189.993 366.836 189.993ZM375.39 192.166C376.208 192.166 376.918 191.482 376.924 190.632C376.918 189.795 376.208 189.111 375.39 189.111C374.546 189.111 373.85 189.795 373.856 190.632C373.85 191.482 374.546 192.166 375.39 192.166ZM379.16 192H381.883V186.445C381.883 185.237 382.765 184.406 383.967 184.406C384.344 184.406 384.862 184.47 385.117 184.553V182.137C384.874 182.08 384.536 182.041 384.261 182.041C383.161 182.041 382.26 182.68 381.902 183.895H381.8V182.182H379.16V192ZM394.694 184.982C394.451 183.173 392.994 182.054 390.514 182.054C388.002 182.054 386.346 183.217 386.353 185.109C386.346 186.58 387.273 187.532 389.191 187.915L390.891 188.254C391.747 188.427 392.137 188.74 392.15 189.232C392.137 189.814 391.505 190.229 390.552 190.229C389.581 190.229 388.935 189.814 388.769 189.015L386.09 189.156C386.346 191.035 387.944 192.192 390.546 192.192C393.09 192.192 394.911 190.894 394.918 188.957C394.911 187.538 393.985 186.688 392.08 186.298L390.303 185.94C389.389 185.742 389.05 185.429 389.056 184.956C389.05 184.368 389.715 183.984 390.559 183.984C391.505 183.984 392.067 184.502 392.201 185.135L394.694 184.982ZM188.567 216.659H192.352V215.406H189.999V201.548H192.352V200.295H188.567V216.659ZM201.302 206.381C200.829 204.987 199.768 204.054 197.825 204.054C195.754 204.054 194.22 205.23 194.22 206.892C194.22 208.247 195.025 209.155 196.828 209.577L198.464 209.96C199.455 210.19 199.921 210.663 199.921 211.341C199.921 212.185 199.026 212.875 197.62 212.875C196.387 212.875 195.613 212.344 195.345 211.29L193.913 211.648C194.264 213.316 195.639 214.205 197.646 214.205C199.928 214.205 201.481 212.958 201.481 211.264C201.481 209.896 200.624 209.033 198.873 208.605L197.416 208.247C196.252 207.96 195.728 207.57 195.728 206.815C195.728 205.972 196.623 205.358 197.825 205.358C199.142 205.358 199.685 206.087 199.947 206.764L201.302 206.381ZM207.868 214.205C209.863 214.205 211.32 213.207 211.78 211.724L210.323 211.315C209.939 212.338 209.051 212.849 207.868 212.849C206.098 212.849 204.877 211.705 204.806 209.602H211.934V208.963C211.934 205.307 209.76 204.054 207.715 204.054C205.056 204.054 203.292 206.151 203.292 209.168C203.292 212.185 205.03 214.205 207.868 214.205ZM204.806 208.298C204.909 206.771 205.989 205.409 207.715 205.409C209.351 205.409 210.4 206.636 210.4 208.298H204.806ZM218.217 214.205C220.39 214.205 221.822 212.875 222.078 211.136H220.569C220.288 212.21 219.393 212.849 218.217 212.849C216.427 212.849 215.277 211.366 215.277 209.091C215.277 206.866 216.453 205.409 218.217 205.409C219.547 205.409 220.339 206.227 220.569 207.122H222.078C221.822 205.281 220.262 204.054 218.191 204.054C215.532 204.054 213.768 206.151 213.768 209.142C213.768 212.082 215.456 214.205 218.217 214.205ZM230.471 209.986C230.471 211.827 229.064 212.67 227.939 212.67C226.686 212.67 225.792 211.75 225.792 210.318V204.182H224.283V210.42C224.283 212.926 225.613 214.128 227.453 214.128C228.936 214.128 229.908 213.335 230.368 212.338H230.471V214H231.979V204.182H230.471V209.986ZM234.742 214H236.251V207.787C236.251 206.457 237.299 205.486 238.731 205.486C239.133 205.486 239.549 205.562 239.651 205.588V204.054C239.479 204.041 239.082 204.028 238.858 204.028C237.682 204.028 236.66 204.693 236.302 205.665H236.199V204.182H234.742V214ZM245.257 214.205C247.251 214.205 248.709 213.207 249.169 211.724L247.711 211.315C247.328 212.338 246.439 212.849 245.257 212.849C243.486 212.849 242.265 211.705 242.195 209.602H249.322V208.963C249.322 205.307 247.149 204.054 245.104 204.054C242.444 204.054 240.68 206.151 240.68 209.168C240.68 212.185 242.419 214.205 245.257 214.205ZM242.195 208.298C242.297 206.771 243.378 205.409 245.104 205.409C246.74 205.409 247.788 206.636 247.788 208.298H242.195ZM256.68 214H258.188V204.182H256.68V214ZM257.447 202.545C258.035 202.545 258.52 202.085 258.52 201.523C258.52 200.96 258.035 200.5 257.447 200.5C256.858 200.5 256.373 200.96 256.373 201.523C256.373 202.085 256.858 202.545 257.447 202.545ZM267.906 206.381C267.433 204.987 266.371 204.054 264.428 204.054C262.357 204.054 260.823 205.23 260.823 206.892C260.823 208.247 261.629 209.155 263.431 209.577L265.067 209.96C266.058 210.19 266.525 210.663 266.525 211.341C266.525 212.185 265.63 212.875 264.224 212.875C262.99 212.875 262.217 212.344 261.948 211.29L260.516 211.648C260.868 213.316 262.242 214.205 264.249 214.205C266.531 214.205 268.085 212.958 268.085 211.264C268.085 209.896 267.228 209.033 265.477 208.605L264.019 208.247C262.856 207.96 262.332 207.57 262.332 206.815C262.332 205.972 263.227 205.358 264.428 205.358C265.745 205.358 266.288 206.087 266.55 206.764L267.906 206.381ZM274.344 214.205C277.003 214.205 278.793 212.185 278.793 209.142C278.793 206.074 277.003 204.054 274.344 204.054C271.685 204.054 269.895 206.074 269.895 209.142C269.895 212.185 271.685 214.205 274.344 214.205ZM274.344 212.849C272.324 212.849 271.404 211.111 271.404 209.142C271.404 207.173 272.324 205.409 274.344 205.409C276.364 205.409 277.284 207.173 277.284 209.142C277.284 211.111 276.364 212.849 274.344 212.849ZM282.604 200.909H281.096V214H282.604V200.909ZM288.256 214.23C289.969 214.23 290.864 213.31 291.171 212.67H291.248V214H292.756V207.531C292.756 204.412 290.378 204.054 289.126 204.054C287.643 204.054 285.955 204.565 285.188 206.355L286.62 206.866C286.952 206.151 287.738 205.384 289.177 205.384C290.564 205.384 291.248 206.119 291.248 207.378V207.429C291.248 208.158 290.506 208.094 288.716 208.324C286.895 208.56 284.907 208.963 284.907 211.213C284.907 213.131 286.39 214.23 288.256 214.23ZM288.486 212.875C287.285 212.875 286.415 212.338 286.415 211.29C286.415 210.139 287.464 209.781 288.64 209.628C289.279 209.551 290.992 209.372 291.248 209.065V210.446C291.248 211.673 290.276 212.875 288.486 212.875ZM299.779 204.182H297.683V201.83H296.174V204.182H294.691V205.46H296.174V211.597C296.174 213.31 297.555 214.128 298.833 214.128C299.396 214.128 299.754 214.026 299.958 213.949L299.652 212.594C299.524 212.619 299.319 212.67 298.987 212.67C298.322 212.67 297.683 212.466 297.683 211.188V205.46H299.779V204.182ZM302.049 214H303.557V204.182H302.049V214ZM302.816 202.545C303.404 202.545 303.89 202.085 303.89 201.523C303.89 200.96 303.404 200.5 302.816 200.5C302.228 200.5 301.742 200.96 301.742 201.523C301.742 202.085 302.228 202.545 302.816 202.545ZM310.309 214.205C312.968 214.205 314.758 212.185 314.758 209.142C314.758 206.074 312.968 204.054 310.309 204.054C307.65 204.054 305.86 206.074 305.86 209.142C305.86 212.185 307.65 214.205 310.309 214.205ZM310.309 212.849C308.289 212.849 307.368 211.111 307.368 209.142C307.368 207.173 308.289 205.409 310.309 205.409C312.329 205.409 313.249 207.173 313.249 209.142C313.249 211.111 312.329 212.849 310.309 212.849ZM318.569 208.094C318.569 206.381 319.63 205.409 321.075 205.409C322.474 205.409 323.325 206.323 323.325 207.864V214H324.833V207.761C324.833 205.256 323.497 204.054 321.509 204.054C320.026 204.054 319.106 204.719 318.646 205.716H318.518V204.182H317.06V214H318.569V208.094ZM335.541 214.23C337.254 214.23 338.149 213.31 338.456 212.67H338.533V214H340.041V207.531C340.041 204.412 337.664 204.054 336.411 204.054C334.928 204.054 333.24 204.565 332.473 206.355L333.905 206.866C334.237 206.151 335.024 205.384 336.462 205.384C337.849 205.384 338.533 206.119 338.533 207.378V207.429C338.533 208.158 337.791 208.094 336.002 208.324C334.18 208.56 332.192 208.963 332.192 211.213C332.192 213.131 333.675 214.23 335.541 214.23ZM335.771 212.875C334.57 212.875 333.7 212.338 333.7 211.29C333.7 210.139 334.749 209.781 335.925 209.628C336.564 209.551 338.277 209.372 338.533 209.065V210.446C338.533 211.673 337.561 212.875 335.771 212.875ZM344.303 208.094C344.303 206.381 345.364 205.409 346.809 205.409C348.209 205.409 349.059 206.323 349.059 207.864V214H350.567V207.761C350.567 205.256 349.232 204.054 347.244 204.054C345.761 204.054 344.84 204.719 344.38 205.716H344.252V204.182H342.795V214H344.303V208.094ZM357.031 214.205C358.923 214.205 359.563 213.028 359.895 212.491H360.074V214H361.531V200.909H360.023V205.741H359.895C359.563 205.23 358.975 204.054 357.057 204.054C354.577 204.054 352.864 206.023 352.864 209.116C352.864 212.236 354.577 214.205 357.031 214.205ZM357.236 212.849C355.344 212.849 354.372 211.188 354.372 209.091C354.372 207.02 355.318 205.409 357.236 205.409C359.077 205.409 360.048 206.892 360.048 209.091C360.048 211.315 359.051 212.849 357.236 212.849ZM376.521 206.381C376.048 204.987 374.987 204.054 373.044 204.054C370.972 204.054 369.438 205.23 369.438 206.892C369.438 208.247 370.244 209.155 372.046 209.577L373.683 209.96C374.673 210.19 375.14 210.663 375.14 211.341C375.14 212.185 374.245 212.875 372.839 212.875C371.605 212.875 370.832 212.344 370.563 211.29L369.132 211.648C369.483 213.316 370.857 214.205 372.865 214.205C375.146 214.205 376.7 212.958 376.7 211.264C376.7 209.896 375.843 209.033 374.092 208.605L372.634 208.247C371.471 207.96 370.947 207.57 370.947 206.815C370.947 205.972 371.842 205.358 373.044 205.358C374.36 205.358 374.904 206.087 375.166 206.764L376.521 206.381ZM383.24 204.182H381.144V201.83H379.635V204.182H378.152V205.46H379.635V211.597C379.635 213.31 381.016 214.128 382.294 214.128C382.857 214.128 383.215 214.026 383.419 213.949L383.113 212.594C382.985 212.619 382.78 212.67 382.448 212.67C381.783 212.67 381.144 212.466 381.144 211.188V205.46H383.24V204.182ZM389.393 214.205C392.052 214.205 393.842 212.185 393.842 209.142C393.842 206.074 392.052 204.054 389.393 204.054C386.734 204.054 384.944 206.074 384.944 209.142C384.944 212.185 386.734 214.205 389.393 214.205ZM389.393 212.849C387.373 212.849 386.452 211.111 386.452 209.142C386.452 207.173 387.373 205.409 389.393 205.409C391.413 205.409 392.333 207.173 392.333 209.142C392.333 211.111 391.413 212.849 389.393 212.849ZM396.144 214H397.653V207.787C397.653 206.457 398.701 205.486 400.133 205.486C400.536 205.486 400.951 205.562 401.053 205.588V204.054C400.881 204.041 400.485 204.028 400.261 204.028C399.085 204.028 398.062 204.693 397.704 205.665H397.602V204.182H396.144V214ZM405.731 214.23C407.444 214.23 408.339 213.31 408.646 212.67H408.722V214H410.231V207.531C410.231 204.412 407.853 204.054 406.6 204.054C405.117 204.054 403.43 204.565 402.663 206.355L404.094 206.866C404.427 206.151 405.213 205.384 406.651 205.384C408.038 205.384 408.722 206.119 408.722 207.378V207.429C408.722 208.158 407.981 208.094 406.191 208.324C404.369 208.56 402.381 208.963 402.381 211.213C402.381 213.131 403.864 214.23 405.731 214.23ZM405.961 212.875C404.759 212.875 403.89 212.338 403.89 211.29C403.89 210.139 404.938 209.781 406.114 209.628C406.754 209.551 408.467 209.372 408.722 209.065V210.446C408.722 211.673 407.751 212.875 405.961 212.875ZM416.947 217.886C419.3 217.886 421.192 216.812 421.192 214.281V204.182H419.734V205.741H419.581C419.248 205.23 418.635 204.054 416.717 204.054C414.237 204.054 412.524 206.023 412.524 209.04C412.524 212.108 414.314 213.847 416.692 213.847C418.609 213.847 419.223 212.722 419.555 212.185H419.683V214.179C419.683 215.815 418.532 216.557 416.947 216.557C415.164 216.557 414.537 215.617 414.135 215.074L412.933 215.918C413.547 216.947 414.755 217.886 416.947 217.886ZM416.896 212.491C415.004 212.491 414.032 211.06 414.032 209.014C414.032 207.02 414.979 205.409 416.896 205.409C418.737 205.409 419.709 206.892 419.709 209.014C419.709 211.188 418.711 212.491 416.896 212.491ZM428.069 214.205C430.064 214.205 431.521 213.207 431.981 211.724L430.524 211.315C430.14 212.338 429.252 212.849 428.069 212.849C426.299 212.849 425.078 211.705 425.008 209.602H432.135V208.963C432.135 205.307 429.961 204.054 427.916 204.054C425.257 204.054 423.493 206.151 423.493 209.168C423.493 212.185 425.231 214.205 428.069 214.205ZM425.008 208.298C425.11 206.771 426.19 205.409 427.916 205.409C429.552 205.409 430.601 206.636 430.601 208.298H425.008ZM441.001 200.909H439.492V214H441.001V200.909ZM446.653 214.23C448.366 214.23 449.261 213.31 449.567 212.67H449.644V214H451.153V207.531C451.153 204.412 448.775 204.054 447.522 204.054C446.039 204.054 444.352 204.565 443.585 206.355L445.016 206.866C445.349 206.151 446.135 205.384 447.573 205.384C448.96 205.384 449.644 206.119 449.644 207.378V207.429C449.644 208.158 448.903 208.094 447.113 208.324C445.291 208.56 443.303 208.963 443.303 211.213C443.303 213.131 444.786 214.23 446.653 214.23ZM446.883 212.875C445.681 212.875 444.812 212.338 444.812 211.29C444.812 210.139 445.86 209.781 447.036 209.628C447.675 209.551 449.388 209.372 449.644 209.065V210.446C449.644 211.673 448.673 212.875 446.883 212.875ZM454.526 217.682C455.888 217.682 456.846 216.96 457.415 215.432L461.596 204.207L459.947 204.182L457.236 212.006H457.134L454.424 204.182H452.787L456.418 214.051L456.137 214.818C455.587 216.314 454.91 216.455 453.81 216.173L453.427 217.503C453.58 217.58 454.015 217.682 454.526 217.682ZM467.357 214.205C469.351 214.205 470.808 213.207 471.268 211.724L469.811 211.315C469.428 212.338 468.539 212.849 467.357 212.849C465.586 212.849 464.365 211.705 464.295 209.602H471.422V208.963C471.422 205.307 469.249 204.054 467.203 204.054C464.544 204.054 462.78 206.151 462.78 209.168C462.78 212.185 464.518 214.205 467.357 214.205ZM464.295 208.298C464.397 206.771 465.477 205.409 467.203 205.409C468.839 205.409 469.888 206.636 469.888 208.298H464.295ZM473.717 214H475.225V207.787C475.225 206.457 476.273 205.486 477.705 205.486C478.108 205.486 478.523 205.562 478.626 205.588V204.054C478.453 204.041 478.057 204.028 477.833 204.028C476.657 204.028 475.634 204.693 475.276 205.665H475.174V204.182H473.717V214ZM483.431 200.295H479.647V201.548H481.999V215.406H479.647V216.659H483.431V200.295Z" fill="white"/>
<path d="M595.175 192.185C596.626 192.185 597.566 191.553 598.045 190.638H598.122V192H600.705V185.378C600.705 183.038 598.723 182.054 596.537 182.054C594.185 182.054 592.638 183.179 592.261 184.969L594.779 185.173C594.964 184.521 595.546 184.042 596.524 184.042C597.451 184.042 597.982 184.509 597.982 185.314V185.352C597.982 185.985 597.31 186.068 595.604 186.234C593.661 186.413 591.915 187.065 591.915 189.258C591.915 191.201 593.303 192.185 595.175 192.185ZM595.955 190.306C595.118 190.306 594.517 189.916 594.517 189.168C594.517 188.401 595.15 188.024 596.109 187.89C596.703 187.807 597.675 187.666 598.001 187.449V188.491C598.001 189.52 597.151 190.306 595.955 190.306ZM611.406 195.886C614.213 195.886 616.207 194.608 616.207 192.096V182.182H613.503V183.831H613.401C613.036 183.032 612.237 182.054 610.595 182.054C608.441 182.054 606.619 183.729 606.619 187.072C606.619 190.338 608.389 191.859 610.601 191.859C612.167 191.859 613.043 191.073 613.401 190.261H613.516V192.058C613.516 193.406 612.653 193.93 611.47 193.93C610.269 193.93 609.661 193.406 609.438 192.812L606.919 193.151C607.245 194.697 608.76 195.886 611.406 195.886ZM611.464 189.814C610.128 189.814 609.399 188.753 609.399 187.059C609.399 185.391 610.115 184.221 611.464 184.221C612.787 184.221 613.529 185.339 613.529 187.059C613.529 188.791 612.774 189.814 611.464 189.814ZM622.848 192.192C625.277 192.192 626.914 191.009 627.297 189.188L624.779 189.021C624.504 189.769 623.801 190.159 622.893 190.159C621.531 190.159 620.669 189.258 620.669 187.794V187.788H627.355V187.04C627.355 183.703 625.335 182.054 622.74 182.054C619.85 182.054 617.977 184.106 617.977 187.136C617.977 190.249 619.825 192.192 622.848 192.192ZM620.669 186.1C620.726 184.982 621.576 184.087 622.784 184.087C623.967 184.087 624.785 184.93 624.791 186.1H620.669ZM631.855 186.324C631.861 185.058 632.615 184.317 633.715 184.317C634.808 184.317 635.466 185.033 635.46 186.234V192H638.183V185.749C638.183 183.46 636.84 182.054 634.795 182.054C633.338 182.054 632.283 182.77 631.842 183.914H631.727V182.182H629.132V192H631.855V186.324ZM644.803 192.192C647.232 192.192 648.869 191.009 649.252 189.188L646.734 189.021C646.459 189.769 645.756 190.159 644.848 190.159C643.487 190.159 642.624 189.258 642.624 187.794V187.788H649.31V187.04C649.31 183.703 647.29 182.054 644.695 182.054C641.805 182.054 639.933 184.106 639.933 187.136C639.933 190.249 641.78 192.192 644.803 192.192ZM642.624 186.1C642.681 184.982 643.531 184.087 644.739 184.087C645.922 184.087 646.74 184.93 646.746 186.1H642.624ZM651.087 192H653.81V186.445C653.81 185.237 654.692 184.406 655.893 184.406C656.271 184.406 656.788 184.47 657.044 184.553V182.137C656.801 182.08 656.462 182.041 656.188 182.041C655.088 182.041 654.187 182.68 653.829 183.895H653.727V182.182H651.087V192ZM658.452 192H661.175V182.182H658.452V192ZM659.82 180.916C660.632 180.916 661.296 180.296 661.296 179.536C661.296 178.781 660.632 178.161 659.82 178.161C659.014 178.161 658.35 178.781 658.35 179.536C658.35 180.296 659.014 180.916 659.82 180.916ZM667.792 192.192C670.407 192.192 672.049 190.658 672.177 188.401H669.608C669.448 189.45 668.757 190.038 667.824 190.038C666.552 190.038 665.728 188.97 665.728 187.091C665.728 185.237 666.559 184.176 667.824 184.176C668.821 184.176 669.461 184.835 669.608 185.812H672.177C672.062 183.543 670.343 182.054 667.779 182.054C664.801 182.054 662.96 184.119 662.96 187.129C662.96 190.114 664.769 192.192 667.792 192.192ZM686.256 184.982C686.013 183.173 684.555 182.054 682.075 182.054C679.563 182.054 677.908 183.217 677.914 185.109C677.908 186.58 678.835 187.532 680.752 187.915L682.452 188.254C683.309 188.427 683.699 188.74 683.712 189.232C683.699 189.814 683.066 190.229 682.114 190.229C681.142 190.229 680.496 189.814 680.33 189.015L677.652 189.156C677.908 191.035 679.506 192.192 682.107 192.192C684.651 192.192 686.473 190.894 686.479 188.957C686.473 187.538 685.546 186.688 683.641 186.298L681.864 185.94C680.95 185.742 680.612 185.429 680.618 184.956C680.612 184.368 681.276 183.984 682.12 183.984C683.066 183.984 683.629 184.502 683.763 185.135L686.256 184.982ZM693.416 182.182H691.569V179.83H688.846V182.182H687.504V184.227H688.846V189.341C688.833 191.265 690.144 192.217 692.119 192.134C692.822 192.109 693.32 191.968 693.595 191.879L693.167 189.852C693.033 189.878 692.745 189.942 692.49 189.942C691.946 189.942 691.569 189.737 691.569 188.983V184.227H693.416V182.182ZM699.521 192.192C702.499 192.192 704.353 190.153 704.353 187.129C704.353 184.087 702.499 182.054 699.521 182.054C696.542 182.054 694.688 184.087 694.688 187.129C694.688 190.153 696.542 192.192 699.521 192.192ZM699.534 190.082C698.159 190.082 697.456 188.823 697.456 187.11C697.456 185.397 698.159 184.131 699.534 184.131C700.882 184.131 701.585 185.397 701.585 187.11C701.585 188.823 700.882 190.082 699.534 190.082ZM706.124 192H708.847V186.445C708.847 185.237 709.729 184.406 710.931 184.406C711.308 184.406 711.825 184.47 712.081 184.553V182.137C711.838 182.08 711.499 182.041 711.225 182.041C710.125 182.041 709.224 182.68 708.866 183.895H708.764V182.182H706.124V192ZM716.007 192.185C717.458 192.185 718.398 191.553 718.877 190.638H718.954V192H721.537V185.378C721.537 183.038 719.555 182.054 717.369 182.054C715.017 182.054 713.47 183.179 713.093 184.969L715.611 185.173C715.797 184.521 716.378 184.042 717.356 184.042C718.283 184.042 718.814 184.509 718.814 185.314V185.352C718.814 185.985 718.142 186.068 716.436 186.234C714.493 186.413 712.748 187.065 712.748 189.258C712.748 191.201 714.135 192.185 716.007 192.185ZM716.787 190.306C715.95 190.306 715.349 189.916 715.349 189.168C715.349 188.401 715.982 188.024 716.941 187.89C717.535 187.807 718.507 187.666 718.833 187.449V188.491C718.833 189.52 717.983 190.306 716.787 190.306ZM728.072 195.886C730.879 195.886 732.873 194.608 732.873 192.096V182.182H730.169V183.831H730.067C729.702 183.032 728.903 182.054 727.261 182.054C725.107 182.054 723.285 183.729 723.285 187.072C723.285 190.338 725.055 191.859 727.267 191.859C728.833 191.859 729.709 191.073 730.067 190.261H730.182V192.058C730.182 193.406 729.319 193.93 728.136 193.93C726.935 193.93 726.327 193.406 726.104 192.812L723.585 193.151C723.911 194.697 725.426 195.886 728.072 195.886ZM728.13 189.814C726.794 189.814 726.065 188.753 726.065 187.059C726.065 185.391 726.781 184.221 728.13 184.221C729.453 184.221 730.195 185.339 730.195 187.059C730.195 188.791 729.44 189.814 728.13 189.814ZM739.514 192.192C741.943 192.192 743.58 191.009 743.963 189.188L741.445 189.021C741.17 189.769 740.467 190.159 739.559 190.159C738.197 190.159 737.335 189.258 737.335 187.794V187.788H744.021V187.04C744.021 183.703 742.001 182.054 739.406 182.054C736.516 182.054 734.643 184.106 734.643 187.136C734.643 190.249 736.491 192.192 739.514 192.192ZM737.335 186.1C737.392 184.982 738.242 184.087 739.45 184.087C740.633 184.087 741.451 184.93 741.457 186.1H737.335ZM625.579 215.636H629.363V214.384H627.011V200.526H629.363V199.273H625.579V215.636ZM631.564 214H633.149V208.886H636.013C636.128 208.886 636.236 208.886 636.345 208.88L639.106 214H640.947L637.988 208.592C639.656 208.023 640.436 206.662 640.436 204.923C640.436 202.609 639.055 200.909 635.987 200.909H631.564V214ZM633.149 207.455V202.315H635.936C638.058 202.315 638.876 203.351 638.876 204.923C638.876 206.496 638.058 207.455 635.961 207.455H633.149ZM646.756 214.205C649.415 214.205 651.205 212.185 651.205 209.142C651.205 206.074 649.415 204.054 646.756 204.054C644.097 204.054 642.307 206.074 642.307 209.142C642.307 212.185 644.097 214.205 646.756 214.205ZM646.756 212.849C644.736 212.849 643.816 211.111 643.816 209.142C643.816 207.173 644.736 205.409 646.756 205.409C648.776 205.409 649.696 207.173 649.696 209.142C649.696 211.111 648.776 212.849 646.756 212.849ZM657.496 214.205C659.67 214.205 661.101 212.875 661.357 211.136H659.849C659.567 212.21 658.672 212.849 657.496 212.849C655.706 212.849 654.556 211.366 654.556 209.091C654.556 206.866 655.732 205.409 657.496 205.409C658.826 205.409 659.618 206.227 659.849 207.122H661.357C661.101 205.281 659.542 204.054 657.471 204.054C654.812 204.054 653.047 206.151 653.047 209.142C653.047 212.082 654.735 214.205 657.496 214.205ZM663.562 214H665.071V210.325L666.126 209.347L669.801 214H671.719L667.263 208.375L671.412 204.182H669.545L665.25 208.554H665.071V200.909H663.562V214ZM680.308 206.381C679.835 204.987 678.774 204.054 676.831 204.054C674.76 204.054 673.225 205.23 673.225 206.892C673.225 208.247 674.031 209.155 675.833 209.577L677.47 209.96C678.461 210.19 678.927 210.663 678.927 211.341C678.927 212.185 678.032 212.875 676.626 212.875C675.392 212.875 674.619 212.344 674.35 211.29L672.919 211.648C673.27 213.316 674.645 214.205 676.652 214.205C678.934 214.205 680.487 212.958 680.487 211.264C680.487 209.896 679.63 209.033 677.879 208.605L676.422 208.247C675.258 207.96 674.734 207.57 674.734 206.815C674.734 205.972 675.629 205.358 676.831 205.358C678.147 205.358 678.691 206.087 678.953 206.764L680.308 206.381ZM687.002 214C690.991 214 693.241 211.52 693.241 207.429C693.241 203.364 690.991 200.909 687.181 200.909H682.962V214H687.002ZM684.547 212.594V202.315H687.079C690.147 202.315 691.706 204.259 691.706 207.429C691.706 210.625 690.147 212.594 686.9 212.594H684.547ZM695.9 214H700.63C703.724 214 705.002 212.491 705.002 210.523C705.002 208.452 703.57 207.327 702.368 207.25V207.122C703.493 206.815 704.491 206.074 704.491 204.386C704.491 202.469 703.212 200.909 700.476 200.909H695.9V214ZM697.485 212.594V208.043H700.706C702.42 208.043 703.493 209.193 703.493 210.523C703.493 211.673 702.701 212.594 700.63 212.594H697.485ZM697.485 206.662V202.315H700.476C702.215 202.315 702.982 203.236 702.982 204.386C702.982 205.767 701.857 206.662 700.425 206.662H697.485ZM710.419 199.273H706.635V200.526H708.987V214.384H706.635V215.636H710.419V199.273Z" fill="white"/>
<path d="M446.17 419.909H443.415V428.142H443.3L437.65 419.909H435.221V433H437.989V424.761H438.084L443.78 433H446.17V419.909ZM452.842 433.192C455.821 433.192 457.674 431.153 457.674 428.129C457.674 425.087 455.821 423.054 452.842 423.054C449.863 423.054 448.01 425.087 448.01 428.129C448.01 431.153 449.863 433.192 452.842 433.192ZM452.855 431.082C451.481 431.082 450.777 429.823 450.777 428.11C450.777 426.397 451.481 425.131 452.855 425.131C454.204 425.131 454.907 426.397 454.907 428.11C454.907 429.823 454.204 431.082 452.855 431.082ZM463.063 433.16C464.648 433.16 465.473 432.246 465.85 431.428H465.965V433H468.65V419.909H465.933V424.831H465.85C465.486 424.032 464.699 423.054 463.057 423.054C460.902 423.054 459.081 424.729 459.081 428.104C459.081 431.389 460.826 433.16 463.063 433.16ZM463.926 430.993C462.59 430.993 461.861 429.804 461.861 428.091C461.861 426.391 462.577 425.221 463.926 425.221C465.249 425.221 465.991 426.339 465.991 428.091C465.991 429.842 465.236 430.993 463.926 430.993ZM475.363 433.192C477.792 433.192 479.428 432.009 479.812 430.188L477.293 430.021C477.018 430.769 476.315 431.159 475.408 431.159C474.046 431.159 473.183 430.258 473.183 428.794V428.788H479.869V428.04C479.869 424.703 477.849 423.054 475.254 423.054C472.365 423.054 470.492 425.106 470.492 428.136C470.492 431.249 472.339 433.192 475.363 433.192ZM473.183 427.1C473.241 425.982 474.091 425.087 475.299 425.087C476.481 425.087 477.3 425.93 477.306 427.1H473.183ZM492.965 423.674H495.618C495.579 421.341 493.662 419.73 490.747 419.73C487.877 419.73 485.774 421.315 485.787 423.693C485.78 425.624 487.142 426.729 489.353 427.26L490.779 427.618C492.204 427.963 492.997 428.372 493.003 429.254C492.997 430.213 492.089 430.865 490.683 430.865C489.245 430.865 488.209 430.2 488.12 428.89H485.441C485.512 431.722 487.538 433.185 490.715 433.185C493.911 433.185 495.79 431.658 495.797 429.261C495.79 427.081 494.147 425.924 491.872 425.413L490.696 425.131C489.558 424.869 488.606 424.447 488.625 423.508C488.625 422.664 489.373 422.044 490.728 422.044C492.051 422.044 492.863 422.645 492.965 423.674ZM502.043 433.192C505.022 433.192 506.876 431.153 506.876 428.129C506.876 425.087 505.022 423.054 502.043 423.054C499.065 423.054 497.211 425.087 497.211 428.129C497.211 431.153 499.065 433.192 502.043 433.192ZM502.056 431.082C500.682 431.082 499.979 429.823 499.979 428.11C499.979 426.397 500.682 425.131 502.056 425.131C503.405 425.131 504.108 426.397 504.108 428.11C504.108 429.823 503.405 431.082 502.056 431.082ZM513.926 423.182H511.976V422.523C511.976 421.859 512.245 421.469 513.044 421.469C513.37 421.469 513.702 421.539 513.92 421.609L514.399 419.564C514.06 419.462 513.312 419.295 512.475 419.295C510.628 419.295 509.253 420.337 509.253 422.472V423.182H507.866V425.227H509.253V433H511.976V425.227H513.926V423.182ZM520.812 423.182H518.965V420.83H516.242V423.182H514.899V425.227H516.242V430.341C516.229 432.265 517.539 433.217 519.514 433.134C520.217 433.109 520.716 432.968 520.991 432.879L520.563 430.852C520.428 430.878 520.141 430.942 519.885 430.942C519.342 430.942 518.965 430.737 518.965 429.983V425.227H520.812V423.182ZM524.522 433H527.399L529.086 426.825H529.208L530.895 433H533.778L536.444 423.182H533.695L532.199 429.74H532.116L530.505 423.182H527.802L526.216 429.778H526.127L524.606 423.182H521.851L524.522 433ZM540.696 433.185C542.147 433.185 543.087 432.553 543.566 431.638H543.643V433H546.225V426.378C546.225 424.038 544.244 423.054 542.057 423.054C539.705 423.054 538.158 424.179 537.781 425.969L540.3 426.173C540.485 425.521 541.067 425.042 542.045 425.042C542.972 425.042 543.502 425.509 543.502 426.314V426.352C543.502 426.985 542.831 427.068 541.124 427.234C539.181 427.413 537.436 428.065 537.436 430.258C537.436 432.201 538.823 433.185 540.696 433.185ZM541.476 431.306C540.638 431.306 540.038 430.916 540.038 430.168C540.038 429.401 540.67 429.024 541.629 428.89C542.224 428.807 543.195 428.666 543.521 428.449V429.491C543.521 430.52 542.671 431.306 541.476 431.306ZM548.338 433H551.061V427.445C551.061 426.237 551.943 425.406 553.144 425.406C553.522 425.406 554.039 425.47 554.295 425.553V423.137C554.052 423.08 553.713 423.041 553.438 423.041C552.339 423.041 551.438 423.68 551.08 424.895H550.978V423.182H548.338V433ZM559.72 433.192C562.149 433.192 563.786 432.009 564.169 430.188L561.651 430.021C561.376 430.769 560.673 431.159 559.765 431.159C558.403 431.159 557.541 430.258 557.541 428.794V428.788H564.227V428.04C564.227 424.703 562.207 423.054 559.612 423.054C556.722 423.054 554.85 425.106 554.85 428.136C554.85 431.249 556.697 433.192 559.72 433.192ZM557.541 427.1C557.598 425.982 558.448 425.087 559.656 425.087C560.839 425.087 561.657 425.93 561.663 427.1H557.541ZM436.548 456.636H440.332V455.384H437.98V441.526H440.332V440.273H436.548V456.636ZM447.595 455H449.18V449.145H456.16V455H457.746V441.909H456.16V447.739H449.18V441.909H447.595V455ZM464.703 455.205C467.362 455.205 469.152 453.185 469.152 450.142C469.152 447.074 467.362 445.054 464.703 445.054C462.044 445.054 460.254 447.074 460.254 450.142C460.254 453.185 462.044 455.205 464.703 455.205ZM464.703 453.849C462.683 453.849 461.763 452.111 461.763 450.142C461.763 448.173 462.683 446.409 464.703 446.409C466.723 446.409 467.644 448.173 467.644 450.142C467.644 452.111 466.723 453.849 464.703 453.849ZM471.455 455H472.963V448.787C472.963 447.457 474.012 446.486 475.444 446.486C475.846 446.486 476.262 446.562 476.364 446.588V445.054C476.191 445.041 475.795 445.028 475.571 445.028C474.395 445.028 473.373 445.693 473.015 446.665H472.912V445.182H471.455V455ZM479.661 449.094C479.661 447.381 480.722 446.409 482.166 446.409C483.566 446.409 484.416 447.323 484.416 448.864V455H485.925V448.761C485.925 446.256 484.589 445.054 482.601 445.054C481.118 445.054 480.198 445.719 479.737 446.716H479.61V445.182H478.152V455H479.661V449.094ZM492.798 455.205C494.792 455.205 496.25 454.207 496.71 452.724L495.252 452.315C494.869 453.338 493.98 453.849 492.798 453.849C491.027 453.849 489.806 452.705 489.736 450.602H496.863V449.963C496.863 446.307 494.69 445.054 492.645 445.054C489.985 445.054 488.221 447.151 488.221 450.168C488.221 453.185 489.96 455.205 492.798 455.205ZM489.736 449.298C489.838 447.771 490.919 446.409 492.645 446.409C494.281 446.409 495.329 447.636 495.329 449.298H489.736ZM503.428 445.182H501.331V442.83H499.823V445.182H498.34V446.46H499.823V452.597C499.823 454.31 501.203 455.128 502.482 455.128C503.044 455.128 503.402 455.026 503.607 454.949L503.3 453.594C503.172 453.619 502.968 453.67 502.635 453.67C501.971 453.67 501.331 453.466 501.331 452.188V446.46H503.428V445.182ZM512.958 437.69H511.68V459.219H512.958V437.69ZM521.915 455H526.645C529.739 455 531.018 453.491 531.018 451.523C531.018 449.452 529.586 448.327 528.384 448.25V448.122C529.509 447.815 530.506 447.074 530.506 445.386C530.506 443.469 529.228 441.909 526.492 441.909H521.915V455ZM523.501 453.594V449.043H526.722C528.435 449.043 529.509 450.193 529.509 451.523C529.509 452.673 528.716 453.594 526.645 453.594H523.501ZM523.501 447.662V443.315H526.492C528.231 443.315 528.998 444.236 528.998 445.386C528.998 446.767 527.873 447.662 526.441 447.662H523.501ZM537.534 455.205C539.529 455.205 540.986 454.207 541.446 452.724L539.989 452.315C539.605 453.338 538.717 453.849 537.534 453.849C535.764 453.849 534.543 452.705 534.472 450.602H541.6V449.963C541.6 446.307 539.426 445.054 537.381 445.054C534.722 445.054 532.958 447.151 532.958 450.168C532.958 453.185 534.696 455.205 537.534 455.205ZM534.472 449.298C534.575 447.771 535.655 446.409 537.381 446.409C539.017 446.409 540.066 447.636 540.066 449.298H534.472ZM548.011 455.205C550.005 455.205 551.463 454.207 551.923 452.724L550.465 452.315C550.082 453.338 549.193 453.849 548.011 453.849C546.24 453.849 545.019 452.705 544.949 450.602H552.076V449.963C552.076 446.307 549.903 445.054 547.857 445.054C545.198 445.054 543.434 447.151 543.434 450.168C543.434 453.185 545.173 455.205 548.011 455.205ZM544.949 449.298C545.051 447.771 546.132 446.409 547.857 446.409C549.494 446.409 550.542 447.636 550.542 449.298H544.949ZM562.45 441.295H558.666V442.548H561.019V456.406H558.666V457.659H562.45V441.295Z" fill="#369FAB"/>
<path d="M280.155 502.909V516H282.84V507.447H282.949L286.336 515.936H288.165L291.552 507.479H291.661V516H294.346V502.909H290.932L287.327 511.705H287.174L283.569 502.909H280.155ZM299.375 516.185C300.826 516.185 301.765 515.553 302.245 514.638H302.321V516H304.904V509.378C304.904 507.038 302.922 506.054 300.736 506.054C298.384 506.054 296.837 507.179 296.46 508.969L298.978 509.173C299.164 508.521 299.745 508.042 300.723 508.042C301.65 508.042 302.181 508.509 302.181 509.314V509.352C302.181 509.985 301.51 510.068 299.803 510.234C297.86 510.413 296.115 511.065 296.115 513.258C296.115 515.201 297.502 516.185 299.375 516.185ZM300.154 514.306C299.317 514.306 298.716 513.916 298.716 513.168C298.716 512.401 299.349 512.024 300.308 511.89C300.902 511.807 301.874 511.666 302.2 511.449V512.491C302.2 513.52 301.35 514.306 300.154 514.306ZM307.016 516H309.739V506.182H307.016V516ZM308.384 504.916C309.196 504.916 309.861 504.296 309.861 503.536C309.861 502.781 309.196 502.161 308.384 502.161C307.579 502.161 306.914 502.781 306.914 503.536C306.914 504.296 307.579 504.916 308.384 504.916ZM314.644 510.324C314.65 509.058 315.404 508.317 316.504 508.317C317.597 508.317 318.255 509.033 318.249 510.234V516H320.972V509.749C320.972 507.46 319.629 506.054 317.584 506.054C316.127 506.054 315.072 506.77 314.631 507.914H314.516V506.182H311.921V516H314.644V510.324ZM325.841 510.324C325.847 509.058 326.602 508.317 327.701 508.317C328.794 508.317 329.452 509.033 329.446 510.234V516H332.169V509.749C332.169 507.46 330.827 506.054 328.781 506.054C327.324 506.054 326.269 506.77 325.828 507.914H325.713V506.182H323.118V516H325.841V510.324ZM338.79 516.192C341.219 516.192 342.855 515.009 343.238 513.188L340.72 513.021C340.445 513.769 339.742 514.159 338.834 514.159C337.473 514.159 336.61 513.258 336.61 511.794V511.788H343.296V511.04C343.296 507.703 341.276 506.054 338.681 506.054C335.792 506.054 333.919 508.106 333.919 511.136C333.919 514.249 335.766 516.192 338.79 516.192ZM336.61 510.1C336.667 508.982 337.518 508.087 338.726 508.087C339.908 508.087 340.726 508.93 340.733 510.1H336.61ZM350.295 506.182H348.448V503.83H345.725V506.182H344.383V508.227H345.725V513.341C345.712 515.265 347.023 516.217 348.998 516.134C349.701 516.109 350.199 515.968 350.474 515.879L350.046 513.852C349.912 513.878 349.624 513.942 349.368 513.942C348.825 513.942 348.448 513.737 348.448 512.983V508.227H350.295V506.182Z" fill="white"/>
<path d="M658.243 516C662.232 516 664.648 513.533 664.648 509.442C664.648 505.364 662.232 502.909 658.282 502.909H653.603V516H658.243ZM656.37 513.629V505.281H658.135C660.589 505.281 661.887 506.533 661.887 509.442C661.887 512.363 660.589 513.629 658.128 513.629H656.37ZM671.122 516.192C673.551 516.192 675.187 515.009 675.57 513.188L673.052 513.021C672.777 513.769 672.074 514.159 671.166 514.159C669.805 514.159 668.942 513.258 668.942 511.794V511.788H675.628V511.04C675.628 507.703 673.608 506.054 671.013 506.054C668.124 506.054 666.251 508.106 666.251 511.136C666.251 514.249 668.098 516.192 671.122 516.192ZM668.942 510.1C668.999 508.982 669.85 508.087 671.058 508.087C672.24 508.087 673.058 508.93 673.065 510.1H668.942ZM686.277 506.182H683.394L681.362 513.207H681.259L679.22 506.182H676.344L679.776 516H682.845L686.277 506.182ZM690.394 510.324C690.4 509.058 691.154 508.317 692.254 508.317C693.347 508.317 694.005 509.033 693.999 510.234V516H696.722V509.749C696.722 507.46 695.379 506.054 693.334 506.054C691.877 506.054 690.822 506.77 690.381 507.914H690.266V506.182H687.671V516H690.394V510.324ZM703.342 516.192C705.771 516.192 707.408 515.009 707.791 513.188L705.273 513.021C704.998 513.769 704.295 514.159 703.387 514.159C702.026 514.159 701.163 513.258 701.163 511.794V511.788H707.849V511.04C707.849 507.703 705.829 506.054 703.234 506.054C700.344 506.054 698.472 508.106 698.472 511.136C698.472 514.249 700.319 516.192 703.342 516.192ZM701.163 510.1C701.22 508.982 702.07 508.087 703.278 508.087C704.461 508.087 705.279 508.93 705.286 510.1H701.163ZM714.848 506.182H713.001V503.83H710.278V506.182H708.935V508.227H710.278V513.341C710.265 515.265 711.575 516.217 713.55 516.134C714.254 516.109 714.752 515.968 715.027 515.879L714.599 513.852C714.464 513.878 714.177 513.942 713.921 513.942C713.378 513.942 713.001 513.737 713.001 512.983V508.227H714.848V506.182Z" fill="white"/>
<path d="M472.479 256H475.202V246.182H472.479V256ZM473.847 244.916C474.659 244.916 475.324 244.296 475.324 243.536C475.324 242.781 474.659 242.161 473.847 242.161C473.042 242.161 472.377 242.781 472.377 243.536C472.377 244.296 473.042 244.916 473.847 244.916ZM481.82 256.192C484.798 256.192 486.652 254.153 486.652 251.129C486.652 248.087 484.798 246.054 481.82 246.054C478.841 246.054 476.987 248.087 476.987 251.129C476.987 254.153 478.841 256.192 481.82 256.192ZM481.832 254.082C480.458 254.082 479.755 252.823 479.755 251.11C479.755 249.397 480.458 248.131 481.832 248.131C483.181 248.131 483.884 249.397 483.884 251.11C483.884 252.823 483.181 254.082 481.832 254.082ZM493.645 246.182H491.798V243.83H489.075V246.182H487.732V248.227H489.075V253.341C489.062 255.265 490.372 256.217 492.347 256.134C493.05 256.109 493.549 255.968 493.824 255.879L493.396 253.852C493.261 253.878 492.974 253.942 492.718 253.942C492.175 253.942 491.798 253.737 491.798 252.983V248.227H493.645V246.182ZM498.218 256.185C499.669 256.185 500.609 255.553 501.088 254.638H501.165V256H503.748V249.378C503.748 247.038 501.766 246.054 499.58 246.054C497.228 246.054 495.681 247.179 495.304 248.969L497.822 249.173C498.007 248.521 498.589 248.042 499.567 248.042C500.494 248.042 501.025 248.509 501.025 249.314V249.352C501.025 249.985 500.353 250.068 498.647 250.234C496.703 250.413 494.958 251.065 494.958 253.258C494.958 255.201 496.346 256.185 498.218 256.185ZM498.998 254.306C498.161 254.306 497.56 253.916 497.56 253.168C497.56 252.401 498.193 252.024 499.152 251.89C499.746 251.807 500.718 251.666 501.044 251.449V252.491C501.044 253.52 500.194 254.306 498.998 254.306ZM507.452 256.166C508.27 256.166 508.979 255.482 508.986 254.632C508.979 253.795 508.27 253.111 507.452 253.111C506.608 253.111 505.911 253.795 505.918 254.632C505.911 255.482 506.608 256.166 507.452 256.166ZM511.221 256H513.944V250.445C513.944 249.237 514.827 248.406 516.028 248.406C516.405 248.406 516.923 248.47 517.179 248.553V246.137C516.936 246.08 516.597 246.041 516.322 246.041C515.223 246.041 514.322 246.68 513.964 247.895H513.861V246.182H511.221V256ZM526.756 248.982C526.513 247.173 525.055 246.054 522.575 246.054C520.063 246.054 518.408 247.217 518.414 249.109C518.408 250.58 519.335 251.532 521.252 251.915L522.952 252.254C523.809 252.427 524.199 252.74 524.212 253.232C524.199 253.814 523.566 254.229 522.614 254.229C521.642 254.229 520.996 253.814 520.83 253.015L518.152 253.156C518.408 255.035 520.006 256.192 522.607 256.192C525.151 256.192 526.973 254.894 526.979 252.957C526.973 251.538 526.046 250.688 524.141 250.298L522.364 249.94C521.45 249.742 521.112 249.429 521.118 248.956C521.112 248.368 521.776 247.984 522.62 247.984C523.566 247.984 524.129 248.502 524.263 249.135L526.756 248.982ZM411.912 280.659H415.696V279.406H413.344V265.548H415.696V264.295H411.912V280.659ZM421.47 278.205C424.129 278.205 425.919 276.185 425.919 273.142C425.919 270.074 424.129 268.054 421.47 268.054C418.811 268.054 417.021 270.074 417.021 273.142C417.021 276.185 418.811 278.205 421.47 278.205ZM421.47 276.849C419.45 276.849 418.53 275.111 418.53 273.142C418.53 271.173 419.45 269.409 421.47 269.409C423.49 269.409 424.41 271.173 424.41 273.142C424.41 275.111 423.49 276.849 421.47 276.849ZM432.594 268.182H430.395V267.185C430.395 266.213 430.804 265.702 431.801 265.702C432.236 265.702 432.491 265.804 432.645 265.855L433.079 264.551C432.849 264.449 432.389 264.295 431.648 264.295C430.241 264.295 428.886 265.139 428.886 266.827V268.182H427.301V269.46H428.886V278H430.395V269.46H432.594V268.182ZM439.08 268.182H436.881V267.185C436.881 266.213 437.29 265.702 438.287 265.702C438.722 265.702 438.978 265.804 439.131 265.855L439.566 264.551C439.336 264.449 438.875 264.295 438.134 264.295C436.728 264.295 435.373 265.139 435.373 266.827V268.182H433.787V269.46H435.373V278H436.881V269.46H439.08V268.182ZM441.194 278H442.703V268.182H441.194V278ZM441.961 266.545C442.549 266.545 443.035 266.085 443.035 265.523C443.035 264.96 442.549 264.5 441.961 264.5C441.373 264.5 440.887 264.96 440.887 265.523C440.887 266.085 441.373 266.545 441.961 266.545ZM449.454 278.205C451.628 278.205 453.059 276.875 453.315 275.136H451.807C451.525 276.21 450.63 276.849 449.454 276.849C447.665 276.849 446.514 275.366 446.514 273.091C446.514 270.866 447.69 269.409 449.454 269.409C450.784 269.409 451.576 270.227 451.807 271.122H453.315C453.059 269.281 451.5 268.054 449.429 268.054C446.77 268.054 445.005 270.151 445.005 273.142C445.005 276.082 446.693 278.205 449.454 278.205ZM455.52 278H457.029V268.182H455.52V278ZM456.287 266.545C456.875 266.545 457.361 266.085 457.361 265.523C457.361 264.96 456.875 264.5 456.287 264.5C455.699 264.5 455.214 264.96 455.214 265.523C455.214 266.085 455.699 266.545 456.287 266.545ZM462.681 278.23C464.394 278.23 465.289 277.31 465.596 276.67H465.672V278H467.181V271.531C467.181 268.412 464.803 268.054 463.55 268.054C462.067 268.054 460.38 268.565 459.613 270.355L461.045 270.866C461.377 270.151 462.163 269.384 463.601 269.384C464.989 269.384 465.672 270.119 465.672 271.378V271.429C465.672 272.158 464.931 272.094 463.141 272.324C461.32 272.56 459.332 272.963 459.332 275.213C459.332 277.131 460.815 278.23 462.681 278.23ZM462.911 276.875C461.709 276.875 460.84 276.338 460.84 275.29C460.84 274.139 461.888 273.781 463.065 273.628C463.704 273.551 465.417 273.372 465.672 273.065V274.446C465.672 275.673 464.701 276.875 462.911 276.875ZM471.443 264.909H469.934V278H471.443V264.909ZM483.257 278.205C485.43 278.205 486.862 276.875 487.118 275.136H485.609C485.328 276.21 484.433 276.849 483.257 276.849C481.467 276.849 480.317 275.366 480.317 273.091C480.317 270.866 481.493 269.409 483.257 269.409C484.587 269.409 485.379 270.227 485.609 271.122H487.118C486.862 269.281 485.302 268.054 483.231 268.054C480.572 268.054 478.808 270.151 478.808 273.142C478.808 276.082 480.496 278.205 483.257 278.205ZM490.832 264.909H489.323V278H490.832V264.909ZM493.595 278H495.103V268.182H493.595V278ZM494.362 266.545C494.95 266.545 495.435 266.085 495.435 265.523C495.435 264.96 494.95 264.5 494.362 264.5C493.774 264.5 493.288 264.96 493.288 265.523C493.288 266.085 493.774 266.545 494.362 266.545ZM501.983 278.205C503.977 278.205 505.434 277.207 505.894 275.724L504.437 275.315C504.054 276.338 503.165 276.849 501.983 276.849C500.212 276.849 498.991 275.705 498.921 273.602H506.048V272.963C506.048 269.307 503.875 268.054 501.829 268.054C499.17 268.054 497.406 270.151 497.406 273.168C497.406 276.185 499.144 278.205 501.983 278.205ZM498.921 272.298C499.023 270.771 500.103 269.409 501.829 269.409C503.465 269.409 504.514 270.636 504.514 272.298H498.921ZM509.851 272.094C509.851 270.381 510.912 269.409 512.357 269.409C513.757 269.409 514.607 270.323 514.607 271.864V278H516.115V271.761C516.115 269.256 514.779 268.054 512.791 268.054C511.309 268.054 510.388 268.719 509.928 269.716H509.8V268.182H508.343V278H509.851V272.094ZM523.142 268.182H521.045V265.83H519.537V268.182H518.054V269.46H519.537V275.597C519.537 277.31 520.917 278.128 522.196 278.128C522.758 278.128 523.116 278.026 523.321 277.949L523.014 276.594C522.886 276.619 522.682 276.67 522.349 276.67C521.684 276.67 521.045 276.466 521.045 275.188V269.46H523.142V268.182ZM531.982 264.909H530.473V278H531.982V264.909ZM534.745 278H536.253V268.182H534.745V278ZM535.512 266.545C536.1 266.545 536.586 266.085 536.586 265.523C536.586 264.96 536.1 264.5 535.512 264.5C534.924 264.5 534.438 264.96 534.438 265.523C534.438 266.085 534.924 266.545 535.512 266.545ZM539.221 278H540.678V276.491H540.857C541.19 277.028 541.829 278.205 543.721 278.205C546.176 278.205 547.889 276.236 547.889 273.116C547.889 270.023 546.176 268.054 543.695 268.054C541.778 268.054 541.19 269.23 540.857 269.741H540.729V264.909H539.221V278ZM540.704 273.091C540.704 270.892 541.676 269.409 543.516 269.409C545.434 269.409 546.38 271.02 546.38 273.091C546.38 275.188 545.408 276.849 543.516 276.849C541.701 276.849 540.704 275.315 540.704 273.091ZM550.196 278H551.705V271.787C551.705 270.457 552.753 269.486 554.185 269.486C554.587 269.486 555.003 269.562 555.105 269.588V268.054C554.933 268.041 554.536 268.028 554.313 268.028C553.136 268.028 552.114 268.693 551.756 269.665H551.653V268.182H550.196V278ZM559.783 278.23C561.496 278.23 562.391 277.31 562.697 276.67H562.774V278H564.283V271.531C564.283 268.412 561.905 268.054 560.652 268.054C559.169 268.054 557.481 268.565 556.714 270.355L558.146 270.866C558.479 270.151 559.265 269.384 560.703 269.384C562.09 269.384 562.774 270.119 562.774 271.378V271.429C562.774 272.158 562.033 272.094 560.243 272.324C558.421 272.56 556.433 272.963 556.433 275.213C556.433 277.131 557.916 278.23 559.783 278.23ZM560.013 276.875C558.811 276.875 557.942 276.338 557.942 275.29C557.942 274.139 558.99 273.781 560.166 273.628C560.805 273.551 562.518 273.372 562.774 273.065V274.446C562.774 275.673 561.802 276.875 560.013 276.875ZM567.036 278H568.544V271.787C568.544 270.457 569.593 269.486 571.025 269.486C571.427 269.486 571.843 269.562 571.945 269.588V268.054C571.772 268.041 571.376 268.028 571.152 268.028C569.976 268.028 568.954 268.693 568.596 269.665H568.493V268.182H567.036V278ZM575.004 281.682C576.365 281.682 577.324 280.96 577.893 279.432L582.073 268.207L580.424 268.182L577.714 276.006H577.612L574.901 268.182H573.265L576.896 278.051L576.614 278.818C576.065 280.314 575.387 280.455 574.288 280.173L573.904 281.503C574.058 281.58 574.492 281.682 575.004 281.682ZM587.086 264.295H583.302V265.548H585.654V279.406H583.302V280.659H587.086V264.295Z" fill="white"/>
<path d="M412.834 348.192C415.449 348.192 417.091 346.658 417.219 344.401H414.65C414.49 345.45 413.799 346.038 412.866 346.038C411.594 346.038 410.77 344.97 410.77 343.091C410.77 341.237 411.601 340.176 412.866 340.176C413.863 340.176 414.503 340.835 414.65 341.812H417.219C417.104 339.543 415.385 338.054 412.821 338.054C409.843 338.054 408.002 340.119 408.002 343.129C408.002 346.114 409.811 348.192 412.834 348.192ZM423.399 348.192C426.377 348.192 428.231 346.153 428.231 343.129C428.231 340.087 426.377 338.054 423.399 338.054C420.42 338.054 418.566 340.087 418.566 343.129C418.566 346.153 420.42 348.192 423.399 348.192ZM423.411 346.082C422.037 346.082 421.334 344.823 421.334 343.11C421.334 341.397 422.037 340.131 423.411 340.131C424.76 340.131 425.463 341.397 425.463 343.11C425.463 344.823 424.76 346.082 423.411 346.082ZM430.002 348H432.725V342.107C432.725 341.02 433.415 340.298 434.323 340.298C435.218 340.298 435.818 340.911 435.818 341.876V348H438.458V342.004C438.458 340.988 439.04 340.298 440.031 340.298C440.9 340.298 441.552 340.841 441.552 341.934V348H444.269V341.397C444.269 339.268 443.003 338.054 441.175 338.054C439.737 338.054 438.618 338.789 438.215 339.914H438.113C437.8 338.776 436.796 338.054 435.448 338.054C434.125 338.054 433.121 338.757 432.712 339.914H432.597V338.182H430.002V348ZM446.42 348H449.143V342.107C449.143 341.02 449.833 340.298 450.741 340.298C451.636 340.298 452.236 340.911 452.236 341.876V348H454.876V342.004C454.876 340.988 455.458 340.298 456.449 340.298C457.318 340.298 457.97 340.841 457.97 341.934V348H460.687V341.397C460.687 339.268 459.421 338.054 457.593 338.054C456.155 338.054 455.036 338.789 454.633 339.914H454.531C454.218 338.776 453.214 338.054 451.866 338.054C450.543 338.054 449.539 338.757 449.13 339.914H449.015V338.182H446.42V348ZM469.134 343.82C469.14 345.136 468.239 345.827 467.261 345.827C466.232 345.827 465.567 345.104 465.561 343.947V338.182H462.838V344.433C462.844 346.728 464.186 348.128 466.161 348.128C467.638 348.128 468.699 347.367 469.14 346.217H469.242V348H471.857V338.182H469.134V343.82ZM476.758 342.324C476.764 341.058 477.519 340.317 478.618 340.317C479.711 340.317 480.369 341.033 480.363 342.234V348H483.086V341.749C483.086 339.46 481.744 338.054 479.698 338.054C478.241 338.054 477.186 338.77 476.745 339.914H476.63V338.182H474.035V348H476.758V342.324ZM485.232 348H487.955V338.182H485.232V348ZM486.6 336.916C487.412 336.916 488.077 336.296 488.077 335.536C488.077 334.781 487.412 334.161 486.6 334.161C485.795 334.161 485.13 334.781 485.13 335.536C485.13 336.296 485.795 336.916 486.6 336.916ZM494.573 348.192C497.187 348.192 498.83 346.658 498.957 344.401H496.388C496.228 345.45 495.538 346.038 494.604 346.038C493.332 346.038 492.508 344.97 492.508 343.091C492.508 341.237 493.339 340.176 494.604 340.176C495.602 340.176 496.241 340.835 496.388 341.812H498.957C498.842 339.543 497.123 338.054 494.56 338.054C491.581 338.054 489.74 340.119 489.74 343.129C489.74 346.114 491.549 348.192 494.573 348.192ZM503.501 348.185C504.952 348.185 505.891 347.553 506.371 346.638H506.447V348H509.03V341.378C509.03 339.038 507.048 338.054 504.862 338.054C502.51 338.054 500.963 339.179 500.586 340.969L503.104 341.173C503.29 340.521 503.871 340.042 504.849 340.042C505.776 340.042 506.307 340.509 506.307 341.314V341.352C506.307 341.985 505.636 342.068 503.929 342.234C501.986 342.413 500.241 343.065 500.241 345.258C500.241 347.201 501.628 348.185 503.501 348.185ZM504.28 346.306C503.443 346.306 502.842 345.916 502.842 345.168C502.842 344.401 503.475 344.024 504.434 343.89C505.028 343.807 506 343.666 506.326 343.449V344.491C506.326 345.52 505.476 346.306 504.28 346.306ZM516.365 338.182H514.517V335.83H511.794V338.182H510.452V340.227H511.794V345.341C511.782 347.265 513.092 348.217 515.067 348.134C515.77 348.109 516.269 347.968 516.544 347.879L516.115 345.852C515.981 345.878 515.693 345.942 515.438 345.942C514.894 345.942 514.517 345.737 514.517 344.983V340.227H516.365V338.182ZM518.138 348H520.861V338.182H518.138V348ZM519.506 336.916C520.318 336.916 520.983 336.296 520.983 335.536C520.983 334.781 520.318 334.161 519.506 334.161C518.701 334.161 518.036 334.781 518.036 335.536C518.036 336.296 518.701 336.916 519.506 336.916ZM527.479 348.192C530.457 348.192 532.311 346.153 532.311 343.129C532.311 340.087 530.457 338.054 527.479 338.054C524.5 338.054 522.646 340.087 522.646 343.129C522.646 346.153 524.5 348.192 527.479 348.192ZM527.492 346.082C526.117 346.082 525.414 344.823 525.414 343.11C525.414 341.397 526.117 340.131 527.492 340.131C528.84 340.131 529.543 341.397 529.543 343.11C529.543 344.823 528.84 346.082 527.492 346.082ZM536.805 342.324C536.811 341.058 537.565 340.317 538.665 340.317C539.758 340.317 540.416 341.033 540.41 342.234V348H543.133V341.749C543.133 339.46 541.791 338.054 539.745 338.054C538.288 338.054 537.233 338.77 536.792 339.914H536.677V338.182H534.082V348H536.805V342.324ZM552.168 334.909H549.445V348H552.168V334.909ZM557.149 348.185C558.6 348.185 559.54 347.553 560.019 346.638H560.096V348H562.678V341.378C562.678 339.038 560.697 338.054 558.511 338.054C556.158 338.054 554.611 339.179 554.234 340.969L556.753 341.173C556.938 340.521 557.52 340.042 558.498 340.042C559.425 340.042 559.955 340.509 559.955 341.314V341.352C559.955 341.985 559.284 342.068 557.577 342.234C555.634 342.413 553.889 343.065 553.889 345.258C553.889 347.201 555.276 348.185 557.149 348.185ZM557.929 346.306C557.092 346.306 556.491 345.916 556.491 345.168C556.491 344.401 557.123 344.024 558.082 343.89C558.677 343.807 559.648 343.666 559.974 343.449V344.491C559.974 345.52 559.124 346.306 557.929 346.306ZM566.12 351.682C568.147 351.682 569.22 350.646 569.777 349.061L573.593 338.195L570.71 338.182L568.658 345.392H568.556L566.523 338.182H563.659L567.181 348.281L567.022 348.697C566.664 349.617 565.98 349.662 565.021 349.368L564.407 351.401C564.797 351.567 565.43 351.682 566.12 351.682ZM579.127 348.192C581.555 348.192 583.192 347.009 583.575 345.188L581.057 345.021C580.782 345.769 580.079 346.159 579.171 346.159C577.81 346.159 576.947 345.258 576.947 343.794V343.788H583.633V343.04C583.633 339.703 581.613 338.054 579.018 338.054C576.129 338.054 574.256 340.106 574.256 343.136C574.256 346.249 576.103 348.192 579.127 348.192ZM576.947 342.1C577.004 340.982 577.854 340.087 579.063 340.087C580.245 340.087 581.063 340.93 581.07 342.1H576.947ZM585.41 348H588.133V342.445C588.133 341.237 589.015 340.406 590.217 340.406C590.594 340.406 591.112 340.47 591.367 340.553V338.137C591.124 338.08 590.786 338.041 590.511 338.041C589.411 338.041 588.51 338.68 588.152 339.895H588.05V338.182H585.41V348ZM460.568 372.659H464.353V371.406H462V357.548H464.353V356.295H460.568V372.659ZM467.857 364.094C467.857 362.381 468.918 361.409 470.363 361.409C471.763 361.409 472.613 362.323 472.613 363.864V370H474.121V363.761C474.121 361.256 472.785 360.054 470.797 360.054C469.314 360.054 468.394 360.719 467.934 361.716H467.806V360.182H466.348V370H467.857V364.094ZM480.994 370.205C482.989 370.205 484.446 369.207 484.906 367.724L483.449 367.315C483.065 368.338 482.177 368.849 480.994 368.849C479.224 368.849 478.003 367.705 477.932 365.602H485.06V364.963C485.06 361.307 482.886 360.054 480.841 360.054C478.182 360.054 476.418 362.151 476.418 365.168C476.418 368.185 478.156 370.205 480.994 370.205ZM477.932 364.298C478.035 362.771 479.115 361.409 480.841 361.409C482.477 361.409 483.525 362.636 483.525 364.298H477.932ZM491.624 360.182H489.528V357.83H488.019V360.182H486.536V361.46H488.019V367.597C488.019 369.31 489.4 370.128 490.678 370.128C491.241 370.128 491.599 370.026 491.803 369.949L491.496 368.594C491.369 368.619 491.164 368.67 490.832 368.67C490.167 368.67 489.528 368.466 489.528 367.188V361.46H491.624V360.182ZM496.118 370H497.601L499.748 362.457H499.902L502.05 370H503.533L506.524 360.182H504.939L502.817 367.673H502.714L500.643 360.182H499.033L496.936 367.699H496.834L494.712 360.182H493.126L496.118 370ZM512.173 370.205C514.832 370.205 516.622 368.185 516.622 365.142C516.622 362.074 514.832 360.054 512.173 360.054C509.514 360.054 507.724 362.074 507.724 365.142C507.724 368.185 509.514 370.205 512.173 370.205ZM512.173 368.849C510.153 368.849 509.233 367.111 509.233 365.142C509.233 363.173 510.153 361.409 512.173 361.409C514.193 361.409 515.113 363.173 515.113 365.142C515.113 367.111 514.193 368.849 512.173 368.849ZM518.925 370H520.433V363.787C520.433 362.457 521.481 361.486 522.913 361.486C523.316 361.486 523.731 361.562 523.834 361.588V360.054C523.661 360.041 523.265 360.028 523.041 360.028C521.865 360.028 520.842 360.693 520.484 361.665H520.382V360.182H518.925V370ZM525.622 370H527.13V366.325L528.185 365.347L531.861 370H533.778L529.323 364.375L533.471 360.182H531.605L527.309 364.554H527.13V356.909H525.622V370ZM538.43 356.295H534.646V357.548H536.998V371.406H534.646V372.659H538.43V356.295Z" fill="white"/>
<rect x="17.5" y="22.5" width="826" height="288" rx="8.5" stroke="#4079A2" stroke-width="3" stroke-dasharray="6 6"/>
<rect x="17.5" y="394.5" width="826" height="160" rx="8.5" stroke="#4079A2" stroke-width="3" stroke-dasharray="6 6"/>
<path d="M38.7418 59L39.7134 56.0149H44.4371L45.4087 59H48.3746L43.8619 45.9091H40.2951L35.7759 59H38.7418ZM40.4165 53.8544L42.0273 48.9006H42.1296L43.7404 53.8544H40.4165ZM49.8991 62.6818H52.6222V57.4276H52.7053C53.0824 58.2457 53.907 59.1598 55.4922 59.1598C57.7294 59.1598 59.4744 57.3892 59.4744 54.1037C59.4744 50.7287 57.6527 49.054 55.4986 49.054C53.8558 49.054 53.0696 50.032 52.7053 50.831H52.5838V49.1818H49.8991V62.6818ZM52.5646 54.0909C52.5646 52.3395 53.3061 51.2209 54.6293 51.2209C55.978 51.2209 56.6939 52.3906 56.6939 54.0909C56.6939 55.804 55.9652 56.9929 54.6293 56.9929C53.3189 56.9929 52.5646 55.8423 52.5646 54.0909ZM61.2898 62.6818H64.0128V57.4276H64.0959C64.473 58.2457 65.2976 59.1598 66.8828 59.1598C69.12 59.1598 70.8651 57.3892 70.8651 54.1037C70.8651 50.7287 69.0433 49.054 66.8892 49.054C65.2464 49.054 64.4602 50.032 64.0959 50.831H63.9744V49.1818L61.2898 49.1818V62.6818ZM63.9553 54.0909C63.9553 52.3395 64.6967 51.2209 66.0199 51.2209C67.3686 51.2209 68.0845 52.3906 68.0845 54.0909C68.0845 55.804 67.3558 56.9929 66.0199 56.9929C64.7095 56.9929 63.9553 55.8423 63.9553 54.0909ZM75.4034 45.9091H72.6804V59H75.4034V45.9091ZM77.5847 59H80.3077V49.1818H77.5847V59ZM78.9526 47.9162C79.7644 47.9162 80.4292 47.2962 80.4292 46.5355C80.4292 45.7813 79.7644 45.1612 78.9526 45.1612C78.1472 45.1612 77.4824 45.7813 77.4824 46.5355C77.4824 47.2962 78.1472 47.9162 78.9526 47.9162ZM86.9251 59.1918C89.5394 59.1918 91.1822 57.6577 91.31 55.4013H88.7404C88.5806 56.4496 87.8903 57.0376 86.957 57.0376C85.685 57.0376 84.8604 55.9702 84.8604 54.0909C84.8604 52.2372 85.6914 51.1761 86.957 51.1761C87.9542 51.1761 88.5934 51.8345 88.7404 52.8125H91.31C91.195 50.5433 89.4755 49.054 86.9123 49.054C83.9336 49.054 82.0927 51.1186 82.0927 54.1293C82.0927 57.1143 83.9016 59.1918 86.9251 59.1918ZM95.8532 59.1854C97.3042 59.1854 98.2438 58.5526 98.7232 57.6385H98.7999V59H101.382V52.3778C101.382 50.0384 99.4007 49.054 97.2147 49.054C94.8624 49.054 93.3155 50.179 92.9384 51.9688L95.4569 52.1733C95.6422 51.5213 96.2239 51.0419 97.2019 51.0419C98.1287 51.0419 98.6593 51.5085 98.6593 52.3139V52.3523C98.6593 52.9851 97.9881 53.0682 96.2814 53.2344C94.3382 53.4134 92.5932 54.0653 92.5932 56.2578C92.5932 58.201 93.9803 59.1854 95.8532 59.1854ZM96.633 57.3061C95.7956 57.3061 95.1948 56.9162 95.1948 56.1683C95.1948 55.4013 95.8276 55.0241 96.7864 54.8899C97.3809 54.8068 98.3525 54.6662 98.6784 54.4489V55.4908C98.6784 56.5199 97.8283 57.3061 96.633 57.3061ZM108.717 49.1818H106.87V46.8295H104.147V49.1818H102.805V51.2273H104.147V56.3409C104.134 58.2649 105.444 59.2173 107.42 59.1342C108.123 59.1087 108.621 58.968 108.896 58.8786L108.468 56.8523C108.334 56.8778 108.046 56.9418 107.79 56.9418C107.247 56.9418 106.87 56.7372 106.87 55.983V51.2273H108.717V49.1818ZM110.491 59H113.214V49.1818H110.491V59ZM111.859 47.9162C112.671 47.9162 113.335 47.2962 113.335 46.5355C113.335 45.7813 112.671 45.1612 111.859 45.1612C111.053 45.1612 110.389 45.7813 110.389 46.5355C110.389 47.2962 111.053 47.9162 111.859 47.9162ZM119.831 59.1918C122.81 59.1918 124.664 57.1527 124.664 54.1293C124.664 51.0866 122.81 49.054 119.831 49.054C116.853 49.054 114.999 51.0866 114.999 54.1293C114.999 57.1527 116.853 59.1918 119.831 59.1918ZM119.844 57.0824C118.47 57.0824 117.767 55.8232 117.767 54.1101C117.767 52.397 118.47 51.1314 119.844 51.1314C121.193 51.1314 121.896 52.397 121.896 54.1101C121.896 55.8232 121.193 57.0824 119.844 57.0824ZM129.157 53.3239C129.164 52.0582 129.918 51.3168 131.017 51.3168C132.11 51.3168 132.769 52.0327 132.762 53.2344V59H135.485V52.7486C135.485 50.4602 134.143 49.054 132.098 49.054C130.64 49.054 129.586 49.7699 129.145 50.9141H129.029V49.1818H126.434V59H129.157V53.3239ZM145.801 51.9815C145.558 50.1726 144.1 49.054 141.62 49.054C139.108 49.054 137.453 50.2173 137.459 52.1094C137.453 53.5795 138.379 54.532 140.297 54.9155L141.997 55.2543C142.854 55.4268 143.244 55.7401 143.257 56.2322C143.244 56.8139 142.611 57.2294 141.659 57.2294C140.687 57.2294 140.041 56.8139 139.875 56.0149L137.197 56.1555C137.453 58.0348 139.051 59.1918 141.652 59.1918C144.196 59.1918 146.018 57.8942 146.024 55.9574C146.018 54.5384 145.091 53.6882 143.186 53.2983L141.409 52.9403C140.495 52.7422 140.156 52.429 140.163 51.956C140.156 51.3679 140.821 50.9844 141.665 50.9844C142.611 50.9844 143.173 51.5021 143.308 52.1349L145.801 51.9815Z" fill="#4079A2"/>
<path d="M39.1468 414.909H36.379V428H39.1468V414.909ZM53.4537 421.455C53.4537 417.172 50.7947 414.73 47.3238 414.73C43.8337 414.73 41.1938 417.172 41.1938 421.455C41.1938 425.718 43.8337 428.179 47.3238 428.179C50.7947 428.179 53.4537 425.737 53.4537 421.455ZM50.6476 421.455C50.6476 424.229 49.3309 425.731 47.3238 425.731C45.3103 425.731 43.9999 424.229 43.9999 421.455C43.9999 418.68 45.3103 417.178 47.3238 417.178C49.3309 417.178 50.6476 418.68 50.6476 421.455ZM54.4253 417.191H58.4332V428H61.1689V417.191H65.1768V414.909H54.4253V417.191ZM67.5866 428L68.5582 425.015H73.2819L74.2535 428H77.2194L72.7066 414.909H69.1398L64.6206 428H67.5866ZM69.2613 422.854L70.8721 417.901H70.9743L72.5851 422.854H69.2613ZM93.9106 414.909H91.1556V423.142H91.0406L85.39 414.909H82.961V428H85.7288V419.761H85.8247L91.52 428H93.9106V414.909ZM100.621 428.192C103.05 428.192 104.686 427.009 105.07 425.188L102.551 425.021C102.276 425.769 101.573 426.159 100.665 426.159C99.3039 426.159 98.441 425.258 98.441 423.794V423.788H105.127V423.04C105.127 419.703 103.107 418.054 100.512 418.054C97.6228 418.054 95.7499 420.106 95.7499 423.136C95.7499 426.249 97.5972 428.192 100.621 428.192ZM98.441 422.1C98.4985 420.982 99.3486 420.087 100.557 420.087C101.739 420.087 102.557 420.93 102.564 422.1H98.441ZM112.126 418.182H110.279V415.83H107.556V418.182H106.214V420.227H107.556V425.341C107.543 427.265 108.854 428.217 110.829 428.134C111.532 428.109 112.03 427.968 112.305 427.879L111.877 425.852C111.743 425.878 111.455 425.942 111.199 425.942C110.656 425.942 110.279 425.737 110.279 424.983V420.227H112.126V418.182ZM115.837 428H118.713L120.401 421.825H120.522L122.21 428H125.093L127.758 418.182H125.009L123.514 424.74H123.431L121.82 418.182H119.116L117.531 424.778H117.441L115.92 418.182H113.165L115.837 428ZM133.401 428.192C136.379 428.192 138.233 426.153 138.233 423.129C138.233 420.087 136.379 418.054 133.401 418.054C130.422 418.054 128.568 420.087 128.568 423.129C128.568 426.153 130.422 428.192 133.401 428.192ZM133.413 426.082C132.039 426.082 131.336 424.823 131.336 423.11C131.336 421.397 132.039 420.131 133.413 420.131C134.762 420.131 135.465 421.397 135.465 423.11C135.465 424.823 134.762 426.082 133.413 426.082ZM140.004 428H142.727V422.445C142.727 421.237 143.609 420.406 144.81 420.406C145.188 420.406 145.705 420.47 145.961 420.553V418.137C145.718 418.08 145.379 418.041 145.104 418.041C144.005 418.041 143.104 418.68 142.746 419.895H142.644V418.182H140.004V428ZM147.369 428H150.092V424.881L150.827 424.043L153.505 428H156.695L152.866 422.433L156.509 418.182H153.384L150.239 421.908H150.092V414.909H147.369V428Z" fill="#4079A2"/>
</svg>
