<svg viewBox="0 0 304 167" fill="none" xmlns="http://www.w3.org/2000/svg">
  <g clip-path="url(#a)">
    <path fill="#40A1AC" d="M0 0h304v167H0z"/>
    <path d="M0 0h304v167H0V0Z" fill="url(#b)"/>
    <g opacity=".27" filter="url(#c)">
      <path d="M68.5 63-8 58v114l119.5 4.5L118 119 68.5 63Z" fill="url(#d)"/>
    </g>
    <path d="M142.687-14.486C135.74-10.606 131.273-5.188 129-.232c.704-7.876 5.745-12.401 13.687-14.254 15.943-8.904 44.945-9.701 90.453 21.804 8.514 5.895 16.293 10.966 23.436 15.2 22.965 9.055 46.005 9.249 66.1 5.933a52.107 52.107 0 0 0 3.368-3.64c19.445-23.04 70.508-22.951 46.309-12.043-11.133 5.018-28.818 12.241-49.677 15.683-15.45 15.12-34.603 12.734-66.1-5.933a112.054 112.054 0 0 1-14.993-7.25C206.23-5.176 164.006-19.46 142.687-14.486Z" fill="url(#e)"/>
    <path d="M95.036 131.868c12.244 3.34 19.56 11.061 22.697 17.9-.936-10.475-9.675-16.412-22.697-17.9-16.99-4.636-43.47-.838-81.443 25.45-15.94 11.035-29.3 19.185-40.745 24.356-15.121 3.84-30.367 3.197-44.483.465-2.668-1.969-5.214-4.409-7.676-7.328-19.446-23.04-70.508-22.951-46.309-12.043 11.646 5.25 31.364 14.992 53.985 19.371 11.52 8.5 25.31 8.198 44.483-.465 10.994-2.792 21.922-7.954 32.301-16.406 30.373-24.734 66.84-36.035 89.887-33.4Z" fill="url(#f)"/>
    <g opacity=".27" filter="url(#g)">
      <path d="m233.5 101.5 76.5 5v-114L190.5-12 184 45.5l49.5 56Z" fill="url(#h)"/>
    </g>
    <circle cx="14" cy="151" r="1" fill="#0FC1B7"/>
    <circle cx="31.5" cy="102.5" r=".5" fill="#0FC1B7"/>
    <circle cx="8" cy="126" r="1" fill="#0FC1B7"/>
    <circle cx="50" cy="89" r="1" fill="#0FC1B7"/>
    <circle cx="13" cy="74" r="1" fill="#0FC1B7"/>
    <circle cx="15" cy="48" r="1" fill="#0FC1B7"/>
    <circle cx="39.5" cy="62.5" r=".5" fill="#0FC1B7"/>
    <circle cx="40.5" cy="114.5" r=".5" fill="#0FC1B7"/>
    <circle cx="65" cy="116" r="1" fill="#0FC1B7"/>
    <circle cx="63.5" cy="150.5" r=".5" fill="#0FC1B7"/>
    <circle cx="45" cy="134" r="1" fill="#0FC1B7"/>
    <circle cx="39" cy="158" r="1" fill="#0FC1B7"/>
    <circle cx="255" cy="9" r="1" fill="#0FC1B7"/>
    <circle cx="218.5" cy="24.5" r=".5" fill="#0FC1B7"/>
    <circle cx="224" cy="9" r="1" fill="#0FC1B7"/>
    <circle cx="286.5" cy="28.5" r=".5" fill="#0FC1B7"/>
    <circle cx="269.5" cy="51.5" r=".5" fill="#0FC1B7"/>
    <circle cx="229" cy="63" r="1" fill="#0FC1B7"/>
    <circle cx="294" cy="70" r="1" fill="#0FC1B7"/>
    <g filter="url(#i)">
      <path stroke="#0FC1B7" stroke-width=".5" d="m13.88 150.781 31-17"/>
    </g>
    <g filter="url(#j)">
      <path stroke="#0FC1B7" stroke-width=".5" d="m8.053 125.756 37 8"/>
    </g>
    <g filter="url(#k)">
      <path stroke="url(#l)" stroke-width=".5" shape-rendering="crispEdges" d="m7.827 125.82 24-23"/>
    </g>
    <g filter="url(#m)">
      <path stroke="url(#n)" stroke-width=".5" shape-rendering="crispEdges" d="M-5 102.75h37"/>
    </g>
    <g filter="url(#o)" stroke="#0FC1B7" stroke-width=".5">
      <path d="m-.088 128.766 8-3M-3.071 155.76l17.001-5m-22.859-30 17 5m-8.259 41.075 14-16M-.062 167.758l39-10m-20.05 10.018 20-10"/>
    </g>
    <path fill-rule="evenodd" clip-rule="evenodd" d="M255 10a1 1 0 1 0 0-2 1 1 0 0 0 0 2ZM16 48a1 1 0 1 1-2 0 1 1 0 0 1 2 0Zm-3 27a1 1 0 1 0 0-2 1 1 0 0 0 0 2Zm38 14a1 1 0 1 1-2 0 1 1 0 0 1 2 0Zm-19.723 14L8.28 125.04a.992.992 0 0 0-.97.236l-16.169-4.756L-9 121l16.04 4.718a.98.98 0 0 0-.027.118l-7.189 2.696L0 129l7.063-2.649a1 1 0 0 0 1.915-.14l35.044 7.578a.993.993 0 0 0-.022.189l-29.48 16.167a1 1 0 0 0-1.491.62l-16.17 4.755.141.48 16.04-4.718.013.041-13.43 15.348L0 167l13.341-15.247a1 1 0 0 0 1.536-1.234l29.246-16.038a1 1 0 1 0 .136-1.153l-35.307-7.634a.998.998 0 0 0-.23-.386L32 103v-.5a.5.5 0 0 0-1 0H-5v.5h36.277ZM39.5 63a.5.5 0 1 0 0-1 .5.5 0 0 0 0 1Zm1.5 51.5a.5.5 0 1 1-1 0 .5.5 0 0 1 1 0Zm24 2.5a1 1 0 1 0 0-2 1 1 0 0 0 0 2Zm-1 33.5a.5.5 0 1 1-1 0 .5.5 0 0 1 1 0ZM40 158a1 1 0 0 1-1.895.447L19 168l-.224-.447 17.93-8.965L0 168l-.124-.484 38.16-9.785A1 1 0 0 1 40 158ZM219 24.5a.5.5 0 1 1-1 0 .5.5 0 0 1 1 0Zm5-14.5a1 1 0 1 0 0-2 1 1 0 0 0 0 2Zm63 18.5a.5.5 0 1 1-1 0 .5.5 0 0 1 1 0ZM269.5 52a.5.5 0 1 0 0-1 .5.5 0 0 0 0 1ZM230 63a1 1 0 1 1-2 0 1 1 0 0 1 2 0Zm64 8a1 1 0 1 0 0-2 1 1 0 0 0 0 2Z" fill="url(#p)"/>
    <path d="M87.269 87.563c-.054-.497-.277-.883-.671-1.16-.39-.276-.898-.414-1.523-.414-.44 0-.816.066-1.13.198-.315.133-.555.313-.722.54a1.312 1.312 0 0 0-.256.779c0 .242.055.452.165.63.114.178.267.33.46.455.194.121.407.223.642.307.235.083.472.153.71.21l1.091.273c.44.102.862.24 1.268.415.409.174.774.393 1.096.658.326.266.584.586.773.96.19.376.284.815.284 1.319 0 .682-.174 1.282-.523 1.801-.348.515-.852.919-1.511 1.21-.655.288-1.449.432-2.38.432-.906 0-1.692-.14-2.359-.42-.663-.28-1.182-.69-1.557-1.228-.37-.538-.572-1.193-.602-1.966h2.074c.03.406.155.743.375 1.012s.506.47.858.602a3.39 3.39 0 0 0 1.193.199c.459 0 .86-.068 1.205-.204.348-.14.62-.334.818-.58a1.4 1.4 0 0 0 .301-.875c-.004-.303-.093-.553-.267-.75-.174-.2-.419-.367-.733-.5a7.051 7.051 0 0 0-1.09-.364l-1.325-.34c-.958-.247-1.716-.62-2.273-1.12-.552-.504-.829-1.172-.829-2.006 0-.685.186-1.286.557-1.8.375-.516.884-.915 1.528-1.2.644-.287 1.373-.431 2.188-.431.826 0 1.549.144 2.17.431.625.285 1.116.68 1.472 1.188a3.02 3.02 0 0 1 .55 1.739h-2.028Zm7.839 8.608c-.875 0-1.63-.182-2.267-.546a3.694 3.694 0 0 1-1.46-1.557c-.341-.674-.512-1.468-.512-2.38 0-.898.17-1.686.512-2.364a3.866 3.866 0 0 1 1.443-1.591c.617-.383 1.343-.574 2.176-.574a4.41 4.41 0 0 1 1.523.261c.48.17.905.436 1.273.796.37.36.662.818.874 1.375.213.553.319 1.212.319 1.977v.63h-7.154v-1.385h5.182a2.212 2.212 0 0 0-.256-1.052 1.86 1.86 0 0 0-.698-.733 1.965 1.965 0 0 0-1.035-.267c-.42 0-.79.103-1.108.307-.318.2-.566.466-.744.796a2.29 2.29 0 0 0-.267 1.073v1.21c0 .508.093.944.278 1.307.186.36.446.637.779.83.333.19.723.284 1.17.284.3 0 .57-.041.813-.125.242-.087.453-.214.63-.38.179-.167.313-.374.404-.62l1.92.216c-.12.508-.352.95-.693 1.33a3.379 3.379 0 0 1-1.295.875c-.527.204-1.129.306-1.807.306Zm7.678-5.285V96h-2.057v-8.727h1.966v1.483h.102c.201-.489.521-.877.96-1.165.443-.288.991-.432 1.642-.432.602 0 1.127.129 1.574.386a2.6 2.6 0 0 1 1.045 1.12c.25.488.374 1.081.37 1.778V96h-2.057v-5.239c0-.583-.152-1.04-.455-1.369-.299-.33-.714-.494-1.244-.494-.36 0-.68.08-.96.238a1.662 1.662 0 0 0-.654.677c-.155.295-.232.653-.232 1.073Zm10.931 5.267a3.304 3.304 0 0 1-1.841-.528c-.541-.352-.969-.864-1.284-1.534-.314-.67-.471-1.485-.471-2.443 0-.97.159-1.788.477-2.455.322-.67.756-1.176 1.301-1.517a3.347 3.347 0 0 1 1.824-.517c.511 0 .932.087 1.261.261.33.17.591.377.784.62.194.238.343.464.449.676h.086v-4.352h2.062V96h-2.023v-1.375h-.125a3.498 3.498 0 0 1-.46.676 2.538 2.538 0 0 1-.795.602c-.33.167-.745.25-1.245.25Zm.574-1.687c.436 0 .807-.117 1.114-.352.307-.239.54-.57.699-.995.159-.424.238-.918.238-1.483 0-.564-.079-1.055-.238-1.471-.156-.417-.387-.74-.693-.972-.304-.23-.677-.346-1.12-.346-.458 0-.841.119-1.148.358-.306.238-.537.568-.693.988-.155.42-.233.902-.233 1.443 0 .546.078 1.033.233 1.46.159.425.392.76.699 1.006.311.243.691.364 1.142.364Zm12.433-10.102V96h-2.108V84.364h2.108Zm12.681 5.818c0 1.254-.235 2.328-.705 3.221-.466.89-1.102 1.572-1.909 2.046-.803.473-1.714.71-2.733.71-1.019 0-1.932-.237-2.738-.71-.803-.477-1.44-1.161-1.909-2.051-.466-.894-.699-1.966-.699-3.216 0-1.254.233-2.326.699-3.216.469-.894 1.106-1.578 1.909-2.051.806-.474 1.719-.71 2.738-.71s1.93.236 2.733.71c.807.473 1.443 1.157 1.909 2.05.47.891.705 1.963.705 3.217Zm-2.119 0c0-.883-.139-1.627-.415-2.233-.273-.61-.652-1.07-1.137-1.38-.484-.315-1.043-.472-1.676-.472-.632 0-1.191.157-1.676.471-.485.31-.865.771-1.142 1.38-.273.607-.409 1.351-.409 2.234 0 .882.136 1.629.409 2.239.277.605.657 1.066 1.142 1.38.485.31 1.044.466 1.676.466.633 0 1.192-.155 1.676-.466.485-.314.864-.775 1.137-1.38.276-.61.415-1.357.415-2.24Zm3.085-4.051v-1.767h9.284v1.767h-3.597V96h-2.091v-9.87h-3.596ZM151.533 96h-2.25l4.096-11.636h2.603L160.084 96h-2.25l-3.108-9.25h-.091L151.533 96Zm.074-4.563h6.136v1.694h-6.136v-1.694Zm13.467-5.306v-1.767h9.284v1.767h-3.597V96h-2.091v-9.87h-3.596Zm13.524 10.04c-.852 0-1.591-.188-2.216-.563a3.814 3.814 0 0 1-1.454-1.574c-.341-.674-.512-1.462-.512-2.364 0-.901.171-1.69.512-2.369a3.806 3.806 0 0 1 1.454-1.58c.625-.374 1.364-.562 2.216-.562.852 0 1.591.188 2.216.563a3.775 3.775 0 0 1 1.449 1.58c.344.677.517 1.467.517 2.368 0 .902-.173 1.69-.517 2.364a3.783 3.783 0 0 1-1.449 1.574c-.625.375-1.364.563-2.216.563Zm.011-1.648c.462 0 .849-.127 1.159-.381.311-.257.542-.602.694-1.034.155-.432.233-.913.233-1.443 0-.534-.078-1.017-.233-1.45-.152-.435-.383-.781-.694-1.039-.31-.257-.697-.386-1.159-.386-.473 0-.867.129-1.181.386-.311.258-.544.604-.699 1.04a4.343 4.343 0 0 0-.228 1.449c0 .53.076 1.011.228 1.443.155.432.388.776.699 1.034.314.254.708.38 1.181.38Zm7.792-1.262-.006-2.483h.329l3.137-3.505h2.403l-3.858 4.295h-.426l-1.579 1.693ZM184.526 96V84.364h2.056V96h-2.056Zm5.477 0-2.841-3.972 1.386-1.449L192.463 96h-2.46Zm7.136.17c-.875 0-1.63-.181-2.267-.545a3.698 3.698 0 0 1-1.46-1.557c-.341-.674-.511-1.468-.511-2.38 0-.898.17-1.686.511-2.364a3.87 3.87 0 0 1 1.443-1.591c.618-.383 1.343-.574 2.176-.574a4.41 4.41 0 0 1 1.523.261c.481.17.905.436 1.273.796.371.36.663.818.875 1.375.212.553.318 1.212.318 1.977v.63h-7.154v-1.385h5.182a2.21 2.21 0 0 0-.255-1.052c-.167-.31-.4-.555-.699-.733a1.966 1.966 0 0 0-1.034-.267c-.421 0-.79.103-1.108.307a2.11 2.11 0 0 0-.745.796 2.295 2.295 0 0 0-.267 1.073v1.21c0 .508.093.944.279 1.307.185.36.445.637.778.83.333.19.724.284 1.171.284.299 0 .57-.041.812-.125.243-.087.453-.214.631-.38.178-.167.312-.374.403-.62l1.921.216c-.122.508-.353.95-.694 1.33a3.373 3.373 0 0 1-1.295.875c-.526.204-1.129.306-1.807.306Zm7.678-5.284V96h-2.057v-8.727h1.966v1.483h.102c.201-.489.521-.877.96-1.165.444-.288.991-.432 1.642-.432.603 0 1.127.129 1.574.386.451.258.8.631 1.046 1.12.25.488.373 1.081.369 1.778V96h-2.057v-5.239c0-.583-.151-1.04-.454-1.369-.3-.33-.714-.494-1.245-.494-.359 0-.68.08-.96.238a1.66 1.66 0 0 0-.653.677c-.156.295-.233.653-.233 1.073Zm14.591-1.306-1.875.204a1.501 1.501 0 0 0-.279-.534 1.387 1.387 0 0 0-.522-.403 1.906 1.906 0 0 0-.807-.154c-.428 0-.788.093-1.08.279-.288.185-.43.426-.426.721a.755.755 0 0 0 .278.62c.194.159.512.29.955.391l1.489.319c.825.178 1.439.46 1.841.846.405.387.609.892.613 1.517a2.376 2.376 0 0 1-.483 1.455c-.314.417-.752.742-1.312.977-.561.235-1.205.353-1.932.353-1.068 0-1.928-.224-2.58-.671-.651-.45-1.039-1.078-1.164-1.88l2.005-.194c.091.394.284.691.58.892.295.2.68.301 1.153.301.489 0 .881-.1 1.176-.3.3-.202.449-.45.449-.745a.773.773 0 0 0-.29-.62c-.189-.162-.484-.287-.886-.374l-1.489-.313c-.837-.174-1.456-.468-1.858-.88-.401-.417-.6-.944-.596-1.58-.004-.538.142-1.004.437-1.398.3-.398.714-.705 1.245-.92.534-.22 1.149-.33 1.846-.33 1.023 0 1.828.218 2.415.653.591.436.957 1.025 1.097 1.767ZM95.748 115l-2.465-8.727h2.096l1.534 6.136h.08l1.568-6.136h2.074l1.568 6.102h.085l1.512-6.102h2.102L103.43 115h-2.142l-1.636-5.898h-.12L97.897 115H95.75Zm11.59 0v-8.727h2.057V115h-2.057Zm1.034-9.966a1.2 1.2 0 0 1-.841-.324 1.042 1.042 0 0 1-.352-.79c0-.31.117-.573.352-.789.235-.22.515-.33.841-.33.33 0 .61.11.841.33.235.216.352.479.352.789 0 .307-.117.571-.352.79a1.186 1.186 0 0 1-.841.324Zm7.496 1.239v1.591h-5.017v-1.591h5.017Zm-3.779-2.091h2.057v8.193c0 .277.042.489.125.636a.676.676 0 0 0 .341.296c.14.053.296.079.466.079.129 0 .246-.009.352-.028a3.08 3.08 0 0 0 .25-.051l.347 1.608c-.11.038-.267.079-.472.125-.2.045-.447.072-.738.079a3.348 3.348 0 0 1-1.392-.233 2.163 2.163 0 0 1-.983-.806c-.239-.364-.356-.819-.353-1.364v-8.534Zm7.743 5.704V115h-2.056v-11.636h2.011v4.392h.102c.205-.493.521-.881.949-1.165.432-.288.981-.432 1.648-.432.606 0 1.134.127 1.585.381.451.254.799.625 1.045 1.113.25.489.375 1.086.375 1.79V115h-2.056v-5.239c0-.587-.152-1.043-.455-1.369-.299-.33-.72-.494-1.261-.494-.364 0-.69.079-.978.238a1.677 1.677 0 0 0-.67.676c-.159.296-.239.654-.239 1.074Zm16.407-6.522h2.091v8.181c-.004.75-.163 1.396-.478 1.938a3.183 3.183 0 0 1-1.318 1.244c-.561.288-1.214.432-1.96.432-.682 0-1.296-.121-1.841-.364a2.994 2.994 0 0 1-1.29-1.09c-.318-.482-.477-1.08-.477-1.796h2.096c.004.314.072.585.205.813.136.227.324.401.563.522.238.122.513.182.823.182.338 0 .624-.07.858-.21.235-.144.413-.356.534-.636.125-.281.19-.625.194-1.035v-8.181Zm6.798 11.812a3.639 3.639 0 0 1-1.494-.295 2.443 2.443 0 0 1-1.046-.887c-.254-.39-.381-.871-.381-1.443 0-.492.091-.899.273-1.221.182-.322.43-.58.745-.773a3.767 3.767 0 0 1 1.062-.438 8.628 8.628 0 0 1 1.233-.221c.511-.053.926-.101 1.244-.142.318-.046.55-.114.693-.205.148-.095.222-.24.222-.437v-.034c0-.428-.127-.76-.381-.995-.253-.235-.619-.352-1.096-.352-.504 0-.904.11-1.199.329-.292.22-.489.48-.591.779l-1.92-.273c.151-.53.401-.973.75-1.329.348-.36.774-.629 1.278-.807a4.888 4.888 0 0 1 1.67-.273c.421 0 .839.049 1.256.148.417.098.797.261 1.142.488.345.224.621.529.83.915.212.387.318.87.318 1.449V115h-1.977v-1.199h-.069c-.125.243-.301.47-.528.682a2.547 2.547 0 0 1-.847.506c-.337.125-.733.187-1.187.187Zm.534-1.511c.413 0 .771-.082 1.074-.245a1.8 1.8 0 0 0 .699-.659c.166-.272.25-.57.25-.892v-1.028a.98.98 0 0 1-.33.148 4.739 4.739 0 0 1-.511.119c-.19.034-.377.064-.563.091l-.483.068a3.59 3.59 0 0 0-.823.205 1.36 1.36 0 0 0-.574.397c-.14.167-.211.383-.211.648 0 .379.139.665.415.858.277.193.629.29 1.057.29Zm13.625-7.392L154.088 115h-2.273l-3.108-8.727h2.194l2.005 6.483h.091l2.012-6.483h2.187Zm3.685 8.903a3.647 3.647 0 0 1-1.495-.295 2.44 2.44 0 0 1-1.045-.887c-.254-.39-.381-.871-.381-1.443 0-.492.091-.899.273-1.221.182-.322.43-.58.744-.773a3.785 3.785 0 0 1 1.063-.438 8.603 8.603 0 0 1 1.233-.221c.511-.053.926-.101 1.244-.142.318-.046.549-.114.693-.205.148-.095.222-.24.222-.437v-.034c0-.428-.127-.76-.381-.995s-.619-.352-1.096-.352c-.504 0-.904.11-1.199.329-.292.22-.489.48-.591.779l-1.921-.273c.152-.53.402-.973.75-1.329.349-.36.775-.629 1.279-.807a4.884 4.884 0 0 1 1.67-.273c.421 0 .839.049 1.256.148.417.098.797.261 1.142.488.345.224.621.529.829.915.213.387.319.87.319 1.449V115h-1.978v-1.199h-.068c-.125.243-.301.47-.528.682a2.557 2.557 0 0 1-.847.506c-.337.125-.733.187-1.187.187Zm.534-1.511c.413 0 .771-.082 1.074-.245a1.8 1.8 0 0 0 .699-.659c.166-.272.25-.57.25-.892v-1.028a.99.99 0 0 1-.33.148 4.795 4.795 0 0 1-.511.119c-.19.034-.377.064-.563.091l-.483.068a3.6 3.6 0 0 0-.824.205 1.374 1.374 0 0 0-.574.397c-.14.167-.21.383-.21.648 0 .379.138.665.415.858.276.193.629.29 1.057.29Zm13.04-5.085-1.875.204a1.507 1.507 0 0 0-.279-.534 1.376 1.376 0 0 0-.523-.403c-.219-.103-.488-.154-.806-.154-.428 0-.788.093-1.08.279-.288.185-.43.426-.426.721a.754.754 0 0 0 .278.619c.194.16.512.29.955.393l1.489.318c.825.178 1.439.46 1.84.846.406.387.61.892.614 1.517a2.377 2.377 0 0 1-.483 1.455c-.314.417-.752.742-1.312.977-.561.235-1.205.352-1.932.352-1.068 0-1.928-.223-2.58-.67-.651-.451-1.04-1.078-1.165-1.881l2.006-.193c.091.394.284.691.58.892.295.201.68.301 1.153.301.489 0 .881-.1 1.176-.301.299-.201.449-.449.449-.744a.771.771 0 0 0-.29-.619c-.189-.163-.485-.288-.886-.375l-1.489-.313c-.837-.174-1.456-.468-1.858-.881-.401-.416-.6-.943-.596-1.579-.004-.538.142-1.004.437-1.398.3-.398.714-.704 1.245-.92.534-.22 1.149-.33 1.846-.33 1.023 0 1.828.218 2.415.653.591.436.956 1.025 1.097 1.768Zm5.69 6.59c-.871 0-1.619-.191-2.244-.573a3.827 3.827 0 0 1-1.438-1.586c-.333-.678-.5-1.458-.5-2.341 0-.886.171-1.668.511-2.346a3.814 3.814 0 0 1 1.444-1.591c.625-.383 1.363-.574 2.216-.574.708 0 1.335.131 1.88.392.549.258.987.623 1.313 1.097.325.469.511 1.019.557 1.647h-1.966c-.08-.42-.269-.77-.569-1.051-.295-.284-.691-.426-1.187-.426-.421 0-.79.114-1.108.341-.318.224-.566.546-.744.966-.175.42-.262.924-.262 1.511 0 .595.087 1.106.262 1.534.174.425.418.752.733.983a1.87 1.87 0 0 0 1.119.341c.303 0 .574-.057.812-.17.243-.118.446-.286.608-.506a1.95 1.95 0 0 0 .336-.801h1.966a3.44 3.44 0 0 1-.546 1.642 3.222 3.222 0 0 1-1.284 1.114c-.542.265-1.178.397-1.909.397Zm5.427-.17v-8.727h1.995v1.454h.091c.159-.504.431-.892.818-1.165.39-.276.835-.414 1.335-.414.114 0 .241.005.381.017.144.007.263.021.358.04v1.892a2.13 2.13 0 0 0-.415-.08 3.906 3.906 0 0 0-.54-.04c-.375 0-.712.082-1.011.245a1.78 1.78 0 0 0-.699.664 1.869 1.869 0 0 0-.256.983V115h-2.057Zm6.344 0v-8.727h2.057V115h-2.057Zm1.034-9.966c-.325 0-.606-.108-.841-.324a1.046 1.046 0 0 1-.352-.79c0-.31.118-.573.352-.789.235-.22.516-.33.841-.33.33 0 .61.11.841.33.235.216.352.479.352.789 0 .307-.117.571-.352.79a1.186 1.186 0 0 1-.841.324Zm3.138 13.239v-12h2.023v1.443h.119c.106-.212.256-.438.449-.676.193-.243.455-.449.784-.62.33-.174.75-.261 1.261-.261a3.32 3.32 0 0 1 1.824.517c.546.341.978.847 1.296 1.517.322.667.483 1.485.483 2.455 0 .958-.157 1.772-.472 2.443-.314.67-.742 1.182-1.284 1.534a3.304 3.304 0 0 1-1.841.528c-.5 0-.915-.083-1.244-.25a2.519 2.519 0 0 1-.796-.602 3.922 3.922 0 0 1-.46-.676h-.085v4.648h-2.057Zm2.017-7.637c0 .565.08 1.059.239 1.483.163.425.396.756.699.995.306.234.678.352 1.113.352.455 0 .835-.121 1.142-.364.307-.246.538-.581.693-1.005.16-.428.239-.915.239-1.461a4.16 4.16 0 0 0-.233-1.443c-.155-.42-.386-.75-.693-.988-.307-.239-.689-.358-1.148-.358-.439 0-.812.115-1.119.346-.307.231-.54.555-.699.972-.155.416-.233.907-.233 1.471Zm12.341-4.363v1.591h-5.017v-1.591h5.017Zm-3.778-2.091h2.056v8.193c0 .277.042.489.125.636a.68.68 0 0 0 .341.296c.14.053.296.079.466.079.129 0 .246-.009.353-.028.109-.019.193-.036.25-.051l.346 1.608c-.11.038-.267.079-.471.125a3.86 3.86 0 0 1-.739.079 3.348 3.348 0 0 1-1.392-.233 2.163 2.163 0 0 1-.983-.806c-.239-.364-.356-.819-.352-1.364v-8.534Z" fill="#fff"/>
    <path fill-rule="evenodd" clip-rule="evenodd" d="M73.5 64a5.5 5.5 0 1 0 0-11 5.5 5.5 0 0 0 0 11Zm0-8.208a.813.813 0 1 0 0 1.625.813.813 0 0 0 0-1.625Zm.542 5.416v-3.25h-1.084v3.25h1.084Z" fill="#0FC1B7"/>
    <path d="M90.012 56.672a1.163 1.163 0 0 0-.503-.87c-.293-.207-.673-.31-1.142-.31-.33 0-.612.05-.848.149a1.26 1.26 0 0 0-.541.404.985.985 0 0 0-.068 1.057c.085.134.2.247.345.341.145.091.305.168.481.23.176.063.354.115.533.158l.818.204c.33.077.647.18.95.312.307.13.581.295.823.494.244.199.437.439.58.72.142.281.213.61.213.989 0 .511-.131.961-.393 1.35-.26.387-.639.69-1.133.908-.492.216-1.087.324-1.786.324-.678 0-1.268-.105-1.768-.315a2.634 2.634 0 0 1-1.168-.92c-.278-.404-.429-.896-.451-1.475h1.555c.023.304.117.557.281.758.165.202.38.353.644.452.267.1.565.15.895.15.343 0 .645-.052.903-.154.261-.105.466-.25.614-.435a1.05 1.05 0 0 0 .226-.656.835.835 0 0 0-.2-.563 1.47 1.47 0 0 0-.55-.375 5.302 5.302 0 0 0-.819-.272l-.993-.256c-.718-.185-1.287-.465-1.704-.84-.415-.377-.622-.879-.622-1.504 0-.514.139-.964.417-1.35a2.759 2.759 0 0 1 1.147-.9c.483-.216 1.03-.324 1.64-.324.62 0 1.162.108 1.628.324.469.213.837.51 1.104.89.267.379.405.813.413 1.305h-1.521Zm2.666-1.074v-1.325h6.963v1.325h-2.697V63h-1.568v-7.402h-2.698ZM100.984 63v-8.727h5.676v1.325h-4.095v2.37h3.801v1.325h-3.801v2.382h4.129V63h-5.71Zm7.289 0v-8.727h3.273c.67 0 1.233.125 1.687.375.458.25.803.593 1.036 1.031.235.435.353.929.353 1.483 0 .56-.118 1.057-.353 1.491a2.53 2.53 0 0 1-1.044 1.027c-.461.248-1.027.371-1.701.371h-2.169v-1.3h1.956c.392 0 .713-.068.963-.204a1.29 1.29 0 0 0 .554-.563c.122-.238.184-.512.184-.822 0-.31-.062-.582-.184-.818a1.242 1.242 0 0 0-.558-.55c-.25-.133-.572-.2-.967-.2h-1.449V63h-1.581Zm11.294-4.999v1.27h-3.929v-1.27h3.929Zm1.69 4.999v-8.727h3.341c.631 0 1.155.1 1.573.298.42.196.734.465.941.805.211.341.316.728.316 1.16 0 .355-.068.659-.205.911a1.71 1.71 0 0 1-.55.61c-.23.156-.487.268-.771.337v.085c.31.017.607.112.891.285.287.17.521.412.703.725.182.312.273.69.273 1.133 0 .452-.11.858-.328 1.219-.219.358-.549.64-.989.848-.44.207-.994.311-1.662.311h-3.533Zm1.581-1.321h1.701c.573 0 .987-.11 1.24-.328a1.08 1.08 0 0 0 .383-.852 1.304 1.304 0 0 0-.737-1.194 1.813 1.813 0 0 0-.844-.183h-1.743v2.557Zm0-3.695h1.564c.273 0 .519-.05.737-.149a1.24 1.24 0 0 0 .516-.43 1.15 1.15 0 0 0 .192-.665c0-.338-.12-.616-.358-.835-.236-.219-.587-.328-1.053-.328h-1.598v2.407Zm5.709-3.711h1.786l2.135 3.86h.085l2.135-3.86h1.786l-3.175 5.471V63h-1.577v-3.256l-3.175-5.471ZM140.93 58v1.27h-3.929V58h3.929Zm6.433-1.33a1.161 1.161 0 0 0-.502-.868c-.293-.208-.674-.311-1.142-.311-.33 0-.613.05-.848.149-.236.1-.417.234-.542.404a.978.978 0 0 0-.191.584c0 .182.041.34.123.473.085.134.2.247.345.341.145.091.306.168.482.23.176.063.354.115.533.158l.818.204c.329.077.646.18.95.312.307.13.581.295.822.494.245.199.438.439.58.72.142.281.213.61.213.989 0 .511-.131.961-.392 1.35-.261.387-.639.69-1.133.908-.492.216-1.087.324-1.786.324-.679 0-1.268-.105-1.768-.315a2.63 2.63 0 0 1-1.168-.92c-.278-.404-.429-.896-.452-1.475h1.556c.022.304.116.557.281.758.165.202.379.353.643.452.267.1.566.15.895.15.344 0 .645-.052.904-.154a1.46 1.46 0 0 0 .613-.435 1.05 1.05 0 0 0 .226-.656.833.833 0 0 0-.2-.563 1.471 1.471 0 0 0-.55-.375 5.318 5.318 0 0 0-.818-.272l-.993-.256c-.719-.185-1.287-.465-1.705-.84-.414-.377-.622-.879-.622-1.504 0-.514.14-.964.418-1.35a2.756 2.756 0 0 1 1.146-.9c.483-.216 1.03-.324 1.641-.324.619 0 1.162.108 1.628.324.468.213.836.51 1.103.89.267.379.405.813.414 1.305h-1.522Zm2.667-1.073v-1.325h6.963v1.325h-2.697V63h-1.569v-7.402h-2.697ZM158.335 63v-8.727h5.677v1.325h-4.096v2.37h3.802v1.325h-3.802v2.382h4.13V63h-5.711Zm7.289 0v-8.727h3.273c.671 0 1.233.125 1.688.375a2.5 2.5 0 0 1 1.035 1.031c.236.435.354.929.354 1.483 0 .56-.118 1.057-.354 1.491a2.53 2.53 0 0 1-1.044 1.027c-.46.248-1.027.371-1.7.371h-2.169v-1.3h1.956c.392 0 .713-.068.963-.204a1.29 1.29 0 0 0 .554-.563c.122-.238.183-.512.183-.822 0-.31-.061-.582-.183-.818a1.247 1.247 0 0 0-.558-.55c-.25-.133-.573-.2-.968-.2h-1.449V63h-1.581Zm10.316-7.402v-1.325h6.963v1.325h-2.697V63h-1.568v-7.402h-2.698Zm13.807-1.325h1.581v5.701c0 .625-.148 1.175-.443 1.65a3 3 0 0 1-1.236 1.112c-.531.264-1.152.396-1.862.396-.713 0-1.335-.132-1.867-.396a3 3 0 0 1-1.236-1.112c-.292-.475-.438-1.025-.438-1.65v-5.701h1.581v5.57c0 .363.079.687.238.97.162.285.389.508.682.67.293.159.639.239 1.04.239.4 0 .747-.08 1.04-.239a1.7 1.7 0 0 0 .681-.67c.159-.283.239-.607.239-.97v-5.57Zm2.916 1.325v-1.325h6.963v1.325h-2.698V63h-1.568v-7.402h-2.697Zm15.717 3.038c0 .94-.176 1.746-.529 2.417-.349.667-.826 1.178-1.431 1.534-.603.355-1.286.532-2.05.532-.764 0-1.449-.177-2.054-.532-.602-.358-1.08-.871-1.432-1.539-.349-.67-.524-1.474-.524-2.412 0-.94.175-1.744.524-2.412.352-.67.83-1.183 1.432-1.538.605-.355 1.29-.533 2.054-.533.764 0 1.447.178 2.05.533.605.355 1.082.868 1.431 1.538.353.668.529 1.472.529 2.412Zm-1.59 0c0-.662-.103-1.22-.311-1.674-.204-.458-.488-.803-.852-1.036a2.26 2.26 0 0 0-1.257-.354c-.475 0-.894.118-1.257.354-.364.233-.649.578-.857 1.036-.204.454-.307 1.012-.307 1.674 0 .662.103 1.222.307 1.68.208.454.493.8.857 1.035.363.233.782.35 1.257.35a2.28 2.28 0 0 0 1.257-.35c.364-.236.648-.581.852-1.036.208-.457.311-1.017.311-1.679ZM209.874 63v-8.727h3.273c.671 0 1.233.116 1.688.35a2.38 2.38 0 0 1 1.035.98c.236.417.354.904.354 1.46 0 .56-.119 1.046-.358 1.458-.236.41-.584.726-1.044.95-.46.222-1.026.333-1.696.333h-2.331v-1.313h2.118c.392 0 .713-.053.963-.161.25-.111.435-.272.554-.482.122-.213.183-.474.183-.784 0-.31-.061-.574-.183-.793a1.164 1.164 0 0 0-.558-.502c-.25-.117-.573-.175-.968-.175h-1.449V63h-1.581Zm4.509-3.955L216.544 63h-1.765l-2.122-3.955h1.726Zm4.877-4.772V63h-1.581v-8.727h1.581ZM222.093 63h-1.688l3.073-8.727h1.952L228.506 63h-1.687l-2.331-6.938h-.068L222.093 63Zm.055-3.422h4.603v1.27h-4.603v-1.27ZM229.656 63v-8.727h1.581v7.402h3.843V63h-5.424Z" fill="#0FC1B7"/>
  </g>
  <defs>
    <filter id="c" x="-20" y="46" width="150" height="142.5" filterUnits="userSpaceOnUse" color-interpolation-filters="sRGB">
      <feFlood flood-opacity="0" result="BackgroundImageFix"/>
      <feBlend in="SourceGraphic" in2="BackgroundImageFix" result="shape"/>
      <feGaussianBlur stdDeviation="6" result="effect1_foregroundBlur_1_2"/>
    </filter>
    <filter id="g" x="172" y="-24" width="150" height="142.5" filterUnits="userSpaceOnUse" color-interpolation-filters="sRGB">
      <feFlood flood-opacity="0" result="BackgroundImageFix"/>
      <feBlend in="SourceGraphic" in2="BackgroundImageFix" result="shape"/>
      <feGaussianBlur stdDeviation="6" result="effect1_foregroundBlur_1_2"/>
    </filter>
    <filter id="i" x="-.24" y="119.562" width="59.24" height="45.438" filterUnits="userSpaceOnUse" color-interpolation-filters="sRGB">
      <feFlood flood-opacity="0" result="BackgroundImageFix"/>
      <feColorMatrix in="SourceAlpha" values="0 0 0 0 0 0 0 0 0 0 0 0 0 0 0 0 0 0 127 0" result="hardAlpha"/>
      <feOffset/>
      <feGaussianBlur stdDeviation="7"/>
      <feComposite in2="hardAlpha" operator="out"/>
      <feColorMatrix values="0 0 0 0 0.0588235 0 0 0 0 0.756863 0 0 0 0 0.717647 0 0 0 1 0"/>
      <feBlend in2="BackgroundImageFix" result="effect1_dropShadow_1_2"/>
      <feBlend in="SourceGraphic" in2="effect1_dropShadow_1_2" result="shape"/>
    </filter>
    <filter id="j" x="-6" y="111.511" width="65.106" height="36.489" filterUnits="userSpaceOnUse" color-interpolation-filters="sRGB">
      <feFlood flood-opacity="0" result="BackgroundImageFix"/>
      <feColorMatrix in="SourceAlpha" values="0 0 0 0 0 0 0 0 0 0 0 0 0 0 0 0 0 0 127 0" result="hardAlpha"/>
      <feOffset/>
      <feGaussianBlur stdDeviation="7"/>
      <feComposite in2="hardAlpha" operator="out"/>
      <feColorMatrix values="0 0 0 0 0.0588235 0 0 0 0 0.756863 0 0 0 0 0.717647 0 0 0 1 0"/>
      <feBlend in2="BackgroundImageFix" result="effect1_dropShadow_1_2"/>
      <feBlend in="SourceGraphic" in2="effect1_dropShadow_1_2" result="shape"/>
    </filter>
    <filter id="k" x="-6.346" y="88.639" width="52.346" height="51.361" filterUnits="userSpaceOnUse" color-interpolation-filters="sRGB">
      <feFlood flood-opacity="0" result="BackgroundImageFix"/>
      <feColorMatrix in="SourceAlpha" values="0 0 0 0 0 0 0 0 0 0 0 0 0 0 0 0 0 0 127 0" result="hardAlpha"/>
      <feOffset/>
      <feGaussianBlur stdDeviation="7"/>
      <feComposite in2="hardAlpha" operator="out"/>
      <feColorMatrix values="0 0 0 0 0.0588235 0 0 0 0 0.756863 0 0 0 0 0.717647 0 0 0 1 0"/>
      <feBlend in2="BackgroundImageFix" result="effect1_dropShadow_1_2"/>
      <feBlend in="SourceGraphic" in2="effect1_dropShadow_1_2" result="shape"/>
    </filter>
    <filter id="m" x="-19" y="88.5" width="65" height="28.5" filterUnits="userSpaceOnUse" color-interpolation-filters="sRGB">
      <feFlood flood-opacity="0" result="BackgroundImageFix"/>
      <feColorMatrix in="SourceAlpha" values="0 0 0 0 0 0 0 0 0 0 0 0 0 0 0 0 0 0 127 0" result="hardAlpha"/>
      <feOffset/>
      <feGaussianBlur stdDeviation="7"/>
      <feComposite in2="hardAlpha" operator="out"/>
      <feColorMatrix values="0 0 0 0 0.0588235 0 0 0 0 0.756863 0 0 0 0 0.717647 0 0 0 1 0"/>
      <feBlend in2="BackgroundImageFix" result="effect1_dropShadow_1_2"/>
      <feBlend in="SourceGraphic" in2="effect1_dropShadow_1_2" result="shape"/>
    </filter>
    <filter id="o" x="-23" y="106.52" width="76" height="75.48" filterUnits="userSpaceOnUse" color-interpolation-filters="sRGB">
      <feFlood flood-opacity="0" result="BackgroundImageFix"/>
      <feColorMatrix in="SourceAlpha" values="0 0 0 0 0 0 0 0 0 0 0 0 0 0 0 0 0 0 127 0" result="hardAlpha"/>
      <feOffset/>
      <feGaussianBlur stdDeviation="7"/>
      <feComposite in2="hardAlpha" operator="out"/>
      <feColorMatrix values="0 0 0 0 0.0588235 0 0 0 0 0.756863 0 0 0 0 0.717647 0 0 0 1 0"/>
      <feBlend in2="BackgroundImageFix" result="effect1_dropShadow_1_2"/>
      <feBlend in="SourceGraphic" in2="effect1_dropShadow_1_2" result="shape"/>
    </filter>
    <linearGradient id="e" x1="153.631" y1="-33.423" x2="279.542" y2="-48.95" gradientUnits="userSpaceOnUse">
      <stop stop-color="#0FC1B7" stop-opacity="0"/>
      <stop offset=".582" stop-color="#0FC1B7"/>
      <stop offset="1" stop-color="#0FC1B7" stop-opacity="0"/>
    </linearGradient>
    <linearGradient id="f" x1="93.102" y1="116.577" x2="-32.809" y2="101.05" gradientUnits="userSpaceOnUse">
      <stop stop-color="#0FC1B7" stop-opacity="0"/>
      <stop offset=".582" stop-color="#0FC1B7"/>
      <stop offset="1" stop-color="#0FC1B7" stop-opacity="0"/>
    </linearGradient>
    <linearGradient id="l" x1="11" y1="123" x2="31" y2="105.5" gradientUnits="userSpaceOnUse">
      <stop stop-color="#0FC1B7"/>
      <stop offset=".706" stop-color="#111F3B" stop-opacity="0"/>
    </linearGradient>
    <linearGradient id="n" x1="13.5" y1="103" x2="28.5" y2="103" gradientUnits="userSpaceOnUse">
      <stop stop-color="#0FC1B7"/>
      <stop offset="1" stop-color="#111F3B" stop-opacity="0"/>
    </linearGradient>
    <linearGradient id="p" x1="6.5" y1="146" x2="31.5" y2="133.5" gradientUnits="userSpaceOnUse">
      <stop stop-color="#A3DBC0"/>
      <stop offset="1" stop-color="#0FC1B7" stop-opacity="0"/>
    </linearGradient>
    <radialGradient id="b" cx="0" cy="0" r="1" gradientUnits="userSpaceOnUse" gradientTransform="scale(152 83.5) rotate(90 0 1)">
      <stop stop-color="#0A1731"/>
      <stop offset="1" stop-color="#111F3B"/>
    </radialGradient>
    <radialGradient id="d" cx="0" cy="0" r="1" gradientUnits="userSpaceOnUse" gradientTransform="matrix(73 -72.0001 63.31042 64.18964 1.5 167.5)">
      <stop stop-color="#0FC1B7"/>
      <stop offset="1" stop-color="#111F3B"/>
    </radialGradient>
    <radialGradient id="h" cx="0" cy="0" r="1" gradientUnits="userSpaceOnUse" gradientTransform="rotate(135.395 150.865 60.13) scale(102.533 90.1583)">
      <stop stop-color="#0FC1B7"/>
      <stop offset="1" stop-color="#111F3B"/>
    </radialGradient>
    <clipPath id="a">
      <path fill="#fff" d="M0 0h304v167H0z"/>
    </clipPath>
  </defs>
</svg>
