<?xml version="1.0" encoding="UTF-8" standalone="no"?><!DOCTYPE svg PUBLIC "-//W3C//DTD SVG 1.1//EN" "http://www.w3.org/Graphics/SVG/1.1/DTD/svg11.dtd"><svg width="100%" height="100%" viewBox="0 0 446 109" version="1.1" xmlns="http://www.w3.org/2000/svg" xmlns:xlink="http://www.w3.org/1999/xlink" xml:space="preserve" xmlns:serif="http://www.serif.com/" style="fill-rule:evenodd;clip-rule:evenodd;stroke-linejoin:round;stroke-miterlimit:2;"><rect x="191.667" y="0" width="8.333" height="108.333" style="fill:#fff;"/><path d="M81.852,12.928c1.278,-0.004 2.525,-0.387 3.586,-1.1c1.06,-0.713 1.886,-1.724 2.372,-2.906c0.486,-1.181 0.61,-2.48 0.358,-3.733c-0.251,-1.252 -0.869,-2.402 -1.774,-3.304c-0.906,-0.901 -2.058,-1.515 -3.311,-1.762c-1.254,-0.248 -2.553,-0.119 -3.734,0.371c-1.18,0.49 -2.189,1.319 -2.898,2.381c-0.71,1.063 -1.088,2.312 -1.088,3.589c0,0.851 0.169,1.693 0.496,2.478c0.327,0.785 0.805,1.498 1.408,2.099c0.602,0.6 1.318,1.076 2.104,1.4c0.787,0.324 1.63,0.489 2.481,0.487Z" style="fill:#fff;fill-rule:nonzero;"/><path d="M89.143,104.233c1.279,-0.003 2.527,-0.386 3.589,-1.098c1.061,-0.713 1.886,-1.725 2.373,-2.907c0.486,-1.182 0.611,-2.481 0.359,-3.734c-0.252,-1.253 -0.87,-2.403 -1.776,-3.305c-0.906,-0.902 -2.059,-1.515 -3.313,-1.762c-1.255,-0.247 -2.554,-0.117 -3.735,0.374c-1.18,0.491 -2.188,1.321 -2.897,2.384c-0.709,1.064 -1.086,2.314 -1.085,3.592c0.002,0.849 0.17,1.691 0.497,2.475c0.327,0.784 0.805,1.497 1.408,2.096c0.602,0.6 1.316,1.075 2.102,1.399c0.786,0.323 1.628,0.488 2.478,0.486Z" style="fill:#fff;fill-rule:nonzero;"/><path d="M83.701,29.089c1.073,-0.002 2.121,-0.322 3.012,-0.92c0.891,-0.597 1.585,-1.446 1.994,-2.437c0.409,-0.992 0.515,-2.082 0.305,-3.134c-0.211,-1.052 -0.729,-2.017 -1.489,-2.775c-0.759,-0.758 -1.726,-1.273 -2.779,-1.482c-1.052,-0.208 -2.143,-0.1 -3.134,0.311c-0.991,0.411 -1.838,1.106 -2.434,1.998c-0.596,0.892 -0.914,1.941 -0.914,3.013c0.002,1.441 0.576,2.821 1.596,3.838c1.02,1.018 2.402,1.589 3.843,1.588Z" style="fill:#fff;fill-rule:nonzero;"/><path d="M98.175,31.166c1.073,-0.003 2.121,-0.324 3.012,-0.922c0.89,-0.597 1.583,-1.446 1.992,-2.438c0.409,-0.991 0.514,-2.082 0.303,-3.133c-0.212,-1.052 -0.73,-2.017 -1.489,-2.774c-0.76,-0.757 -1.727,-1.273 -2.779,-1.481c-1.053,-0.208 -2.143,-0.1 -3.134,0.311c-0.991,0.412 -1.838,1.107 -2.434,1.999c-0.595,0.892 -0.913,1.94 -0.913,3.013c0,0.713 0.142,1.42 0.415,2.079c0.274,0.659 0.675,1.257 1.181,1.761c0.505,0.504 1.105,0.903 1.765,1.175c0.66,0.272 1.367,0.412 2.081,0.41Z" style="fill:#fff;fill-rule:nonzero;"/><path d="M81.852,42.827c0.913,-0.002 1.805,-0.275 2.564,-0.784c0.758,-0.509 1.349,-1.231 1.697,-2.075c0.348,-0.844 0.438,-1.773 0.258,-2.668c-0.179,-0.896 -0.621,-1.718 -1.267,-2.363c-0.647,-0.645 -1.47,-1.083 -2.367,-1.261c-0.895,-0.177 -1.824,-0.085 -2.668,0.265c-0.844,0.35 -1.564,0.942 -2.072,1.702c-0.507,0.759 -0.778,1.652 -0.778,2.565c0,0.607 0.12,1.209 0.353,1.77c0.233,0.561 0.574,1.071 1.005,1.5c0.43,0.429 0.941,0.77 1.503,1.001c0.562,0.231 1.164,0.35 1.772,0.348Z" style="fill:#fff;fill-rule:nonzero;"/><path d="M96.319,44.788c0.912,-0.003 1.803,-0.276 2.561,-0.785c0.757,-0.508 1.346,-1.23 1.694,-2.074c0.347,-0.843 0.436,-1.77 0.257,-2.665c-0.18,-0.894 -0.62,-1.715 -1.266,-2.359c-0.646,-0.644 -1.468,-1.083 -2.364,-1.26c-0.895,-0.177 -1.822,-0.086 -2.665,0.264c-0.843,0.349 -1.563,0.94 -2.071,1.698c-0.507,0.758 -0.778,1.65 -0.778,2.562c0,0.607 0.12,1.209 0.353,1.77c0.233,0.561 0.575,1.07 1.005,1.499c0.43,0.429 0.941,0.769 1.503,1.001c0.561,0.231 1.163,0.35 1.771,0.349Z" style="fill:#fff;fill-rule:nonzero;"/><path d="M107.894,49.288c0.913,-0.003 1.805,-0.275 2.563,-0.784c0.758,-0.509 1.348,-1.231 1.695,-2.074c0.348,-0.844 0.437,-1.772 0.258,-2.667c-0.18,-0.895 -0.621,-1.716 -1.267,-2.36c-0.647,-0.644 -1.47,-1.083 -2.366,-1.259c-0.896,-0.177 -1.824,-0.084 -2.667,0.266c-0.843,0.35 -1.562,0.942 -2.069,1.702c-0.506,0.759 -0.776,1.651 -0.776,2.564c0.001,0.607 0.122,1.207 0.355,1.767c0.233,0.56 0.574,1.069 1.004,1.497c0.43,0.428 0.94,0.767 1.501,0.999c0.561,0.231 1.162,0.35 1.769,0.349Z" style="fill:#fff;fill-rule:nonzero;"/><path d="M92.035,55.868c0.8,-0.001 1.581,-0.24 2.245,-0.685c0.664,-0.445 1.181,-1.077 1.486,-1.816c0.304,-0.739 0.383,-1.552 0.226,-2.335c-0.157,-0.784 -0.543,-1.504 -1.109,-2.068c-0.566,-0.564 -1.287,-0.948 -2.072,-1.103c-0.784,-0.155 -1.597,-0.074 -2.335,0.232c-0.739,0.307 -1.369,0.826 -1.813,1.491c-0.443,0.665 -0.68,1.446 -0.679,2.246c0.002,1.072 0.43,2.1 1.189,2.857c0.76,0.757 1.79,1.182 2.862,1.181Z" style="fill:#fff;fill-rule:nonzero;"/><path d="M77.565,53.907c0.799,-0.001 1.581,-0.239 2.245,-0.683c0.665,-0.445 1.182,-1.077 1.488,-1.816c0.305,-0.738 0.385,-1.551 0.228,-2.335c-0.157,-0.784 -0.543,-1.504 -1.108,-2.069c-0.567,-0.564 -1.288,-0.949 -2.072,-1.104c-0.784,-0.155 -1.598,-0.075 -2.336,0.232c-0.739,0.307 -1.37,0.826 -1.813,1.491c-0.444,0.665 -0.68,1.446 -0.679,2.246c0.001,1.071 0.429,2.099 1.187,2.856c0.759,0.757 1.788,1.182 2.86,1.182Z" style="fill:#fff;fill-rule:nonzero;"/><path d="M103.726,60.371c0.8,-0.001 1.581,-0.24 2.245,-0.685c0.664,-0.445 1.181,-1.076 1.486,-1.815c0.305,-0.739 0.384,-1.551 0.227,-2.335c-0.157,-0.784 -0.543,-1.503 -1.109,-2.068c-0.565,-0.564 -1.286,-0.948 -2.07,-1.104c-0.784,-0.155 -1.597,-0.074 -2.335,0.232c-0.739,0.306 -1.37,0.824 -1.814,1.489c-0.444,0.664 -0.681,1.445 -0.681,2.244c0.001,0.531 0.106,1.058 0.31,1.548c0.204,0.491 0.502,0.937 0.879,1.312c0.376,0.375 0.822,0.673 1.313,0.876c0.492,0.203 1.018,0.307 1.549,0.306Z" style="fill:#fff;fill-rule:nonzero;"/><path d="M86.248,64.297c0.685,-0.002 1.354,-0.206 1.923,-0.587c0.569,-0.382 1.012,-0.924 1.273,-1.557c0.261,-0.633 0.329,-1.33 0.194,-2.001c-0.134,-0.672 -0.465,-1.288 -0.95,-1.772c-0.485,-0.484 -1.102,-0.813 -1.774,-0.946c-0.672,-0.133 -1.369,-0.064 -2.002,0.198c-0.633,0.263 -1.174,0.707 -1.554,1.276c-0.38,0.57 -0.584,1.239 -0.584,1.925c0.002,0.919 0.369,1.8 1.02,2.45c0.651,0.649 1.534,1.014 2.454,1.014Z" style="fill:#fff;fill-rule:nonzero;"/><path d="M97.954,68.684c0.686,-0.001 1.355,-0.204 1.925,-0.586c0.569,-0.381 1.013,-0.922 1.274,-1.555c0.262,-0.633 0.33,-1.33 0.196,-2.002c-0.134,-0.671 -0.464,-1.288 -0.949,-1.773c-0.485,-0.484 -1.103,-0.813 -1.775,-0.947c-0.672,-0.133 -1.369,-0.064 -2.002,0.198c-0.633,0.262 -1.174,0.706 -1.555,1.276c-0.38,0.57 -0.583,1.24 -0.583,1.925c0.002,0.918 0.368,1.799 1.018,2.448c0.651,0.65 1.532,1.015 2.451,1.016Z" style="fill:#fff;fill-rule:nonzero;"/><path d="M71.893,62.216c0.685,-0.001 1.355,-0.206 1.923,-0.588c0.569,-0.381 1.012,-0.923 1.274,-1.556c0.261,-0.633 0.328,-1.329 0.194,-2.001c-0.135,-0.671 -0.466,-1.288 -0.951,-1.772c-0.485,-0.484 -1.102,-0.813 -1.774,-0.946c-0.672,-0.133 -1.369,-0.064 -2.002,0.198c-0.632,0.263 -1.173,0.707 -1.554,1.276c-0.38,0.57 -0.583,1.24 -0.583,1.925c-0,0.455 0.09,0.906 0.264,1.327c0.175,0.421 0.431,0.803 0.753,1.125c0.323,0.322 0.706,0.577 1.127,0.751c0.422,0.173 0.873,0.262 1.329,0.261Z" style="fill:#fff;fill-rule:nonzero;"/><path d="M79.883,69.951c0.57,-0.001 1.128,-0.172 1.602,-0.49c0.474,-0.318 0.843,-0.769 1.06,-1.297c0.218,-0.528 0.274,-1.108 0.162,-1.668c-0.112,-0.559 -0.388,-1.073 -0.792,-1.476c-0.405,-0.403 -0.919,-0.677 -1.479,-0.788c-0.56,-0.111 -1.141,-0.053 -1.668,0.165c-0.527,0.219 -0.978,0.589 -1.295,1.064c-0.317,0.474 -0.486,1.032 -0.486,1.603c0.001,0.38 0.076,0.756 0.221,1.106c0.146,0.351 0.359,0.669 0.629,0.937c0.268,0.268 0.588,0.481 0.938,0.626c0.352,0.145 0.728,0.219 1.108,0.218Z" style="fill:#fff;fill-rule:nonzero;"/><path d="M84.856,77.904c0.502,-0.001 0.993,-0.15 1.41,-0.429c0.417,-0.28 0.742,-0.677 0.934,-1.14c0.191,-0.464 0.241,-0.975 0.142,-1.467c-0.098,-0.492 -0.34,-0.944 -0.695,-1.298c-0.355,-0.355 -0.808,-0.597 -1.3,-0.694c-0.493,-0.098 -1.003,-0.047 -1.467,0.145c-0.464,0.192 -0.86,0.517 -1.139,0.935c-0.279,0.417 -0.428,0.908 -0.428,1.41c0,0.334 0.066,0.664 0.194,0.972c0.128,0.308 0.315,0.588 0.551,0.824c0.237,0.236 0.517,0.423 0.825,0.55c0.309,0.127 0.639,0.193 0.973,0.192Z" style="fill:#fff;fill-rule:nonzero;"/><path d="M78.723,79.535c0.412,0 0.814,-0.122 1.157,-0.35c0.342,-0.229 0.609,-0.554 0.767,-0.935c0.157,-0.38 0.198,-0.798 0.118,-1.202c-0.08,-0.403 -0.279,-0.774 -0.57,-1.065c-0.291,-0.291 -0.662,-0.49 -1.066,-0.57c-0.404,-0.08 -0.822,-0.039 -1.202,0.119c-0.381,0.157 -0.706,0.424 -0.934,0.766c-0.229,0.342 -0.351,0.745 -0.351,1.156c0.001,0.551 0.221,1.08 0.611,1.469c0.39,0.39 0.919,0.61 1.47,0.612Z" style="fill:#fff;fill-rule:nonzero;"/><path d="M73.281,73.528c0.502,-0.001 0.992,-0.151 1.409,-0.431c0.417,-0.28 0.741,-0.677 0.932,-1.141c0.191,-0.464 0.24,-0.974 0.141,-1.466c-0.098,-0.492 -0.341,-0.943 -0.696,-1.297c-0.356,-0.355 -0.808,-0.596 -1.301,-0.693c-0.492,-0.098 -1.002,-0.047 -1.466,0.145c-0.463,0.193 -0.86,0.518 -1.138,0.935c-0.279,0.418 -0.427,0.908 -0.427,1.41c-0,0.334 0.065,0.665 0.193,0.973c0.129,0.309 0.316,0.589 0.553,0.825c0.236,0.235 0.517,0.422 0.826,0.549c0.309,0.128 0.64,0.193 0.974,0.191Z" style="fill:#fff;fill-rule:nonzero;"/><path d="M65.411,67.99c0.572,-0.001 1.129,-0.172 1.603,-0.49c0.474,-0.318 0.843,-0.77 1.061,-1.297c0.217,-0.528 0.273,-1.108 0.161,-1.668c-0.113,-0.559 -0.388,-1.073 -0.793,-1.476c-0.404,-0.403 -0.918,-0.677 -1.478,-0.788c-0.56,-0.111 -1.141,-0.053 -1.668,0.166c-0.527,0.218 -0.978,0.588 -1.295,1.063c-0.317,0.475 -0.486,1.032 -0.486,1.603c0,0.38 0.076,0.756 0.222,1.106c0.145,0.351 0.359,0.669 0.627,0.937c0.269,0.268 0.588,0.481 0.94,0.626c0.35,0.145 0.727,0.219 1.106,0.218Z" style="fill:#fff;fill-rule:nonzero;"/><path d="M65.295,46.288c0.572,-0.001 1.129,-0.172 1.603,-0.49c0.474,-0.318 0.843,-0.77 1.061,-1.298c0.217,-0.527 0.273,-1.108 0.161,-1.667c-0.112,-0.56 -0.388,-1.073 -0.792,-1.476c-0.405,-0.403 -0.919,-0.678 -1.479,-0.788c-0.56,-0.111 -1.141,-0.053 -1.668,0.165c-0.527,0.219 -0.978,0.589 -1.295,1.063c-0.317,0.475 -0.486,1.033 -0.486,1.604c0,0.379 0.076,0.755 0.222,1.106c0.145,0.35 0.359,0.669 0.628,0.937c0.268,0.268 0.588,0.481 0.939,0.626c0.351,0.144 0.727,0.218 1.106,0.218Z" style="fill:#fff;fill-rule:nonzero;"/><path d="M66.567,36.131c0.503,-0.001 0.994,-0.151 1.412,-0.431c0.418,-0.28 0.743,-0.678 0.935,-1.142c0.192,-0.465 0.241,-0.976 0.142,-1.469c-0.099,-0.493 -0.341,-0.946 -0.698,-1.301c-0.356,-0.355 -0.809,-0.596 -1.303,-0.694c-0.493,-0.097 -1.005,-0.046 -1.469,0.147c-0.464,0.193 -0.861,0.52 -1.14,0.938c-0.279,0.419 -0.427,0.91 -0.426,1.413c0.002,0.674 0.271,1.32 0.748,1.795c0.478,0.476 1.124,0.743 1.799,0.743Z" style="fill:#fff;fill-rule:nonzero;"/><path d="M69.346,27.822c0.412,-0 0.814,-0.122 1.157,-0.351c0.342,-0.229 0.609,-0.554 0.766,-0.934c0.158,-0.38 0.199,-0.799 0.118,-1.202c-0.079,-0.404 -0.278,-0.775 -0.569,-1.066c-0.291,-0.291 -0.662,-0.489 -1.066,-0.569c-0.404,-0.081 -0.822,-0.04 -1.203,0.118c-0.38,0.158 -0.705,0.424 -0.934,0.766c-0.229,0.343 -0.351,0.745 -0.351,1.157c0.002,0.551 0.222,1.079 0.612,1.469c0.39,0.39 0.919,0.61 1.47,0.612Z" style="fill:#fff;fill-rule:nonzero;"/><path d="M64.482,23.911c0.502,-0.001 0.992,-0.151 1.41,-0.43c0.417,-0.279 0.741,-0.676 0.933,-1.14c0.192,-0.464 0.241,-0.974 0.143,-1.466c-0.098,-0.492 -0.34,-0.944 -0.696,-1.299c-0.355,-0.355 -0.807,-0.596 -1.3,-0.694c-0.492,-0.097 -1.003,-0.047 -1.467,0.145c-0.463,0.193 -0.86,0.518 -1.139,0.935c-0.279,0.418 -0.427,0.908 -0.427,1.41c-0,0.334 0.066,0.664 0.193,0.973c0.128,0.308 0.315,0.588 0.552,0.824c0.236,0.235 0.516,0.422 0.825,0.55c0.308,0.127 0.639,0.192 0.973,0.192Z" style="fill:#fff;fill-rule:nonzero;"/><path d="M91.458,74.338c0.57,-0.001 1.128,-0.172 1.602,-0.49c0.474,-0.318 0.843,-0.77 1.06,-1.297c0.218,-0.528 0.274,-1.108 0.162,-1.668c-0.112,-0.559 -0.388,-1.073 -0.792,-1.476c-0.405,-0.403 -0.919,-0.677 -1.479,-0.788c-0.56,-0.111 -1.141,-0.053 -1.668,0.166c-0.527,0.218 -0.978,0.588 -1.295,1.063c-0.317,0.474 -0.486,1.032 -0.486,1.603c0.001,0.38 0.076,0.756 0.221,1.106c0.146,0.351 0.36,0.669 0.629,0.937c0.268,0.269 0.588,0.481 0.938,0.626c0.352,0.145 0.728,0.219 1.108,0.218Z" style="fill:#fff;fill-rule:nonzero;"/><path d="M57.888,20.536c0.57,-0.002 1.127,-0.173 1.601,-0.492c0.474,-0.318 0.842,-0.77 1.059,-1.298c0.217,-0.528 0.272,-1.108 0.16,-1.667c-0.113,-0.559 -0.389,-1.073 -0.793,-1.475c-0.405,-0.403 -0.92,-0.677 -1.48,-0.787c-0.56,-0.111 -1.14,-0.053 -1.667,0.166c-0.527,0.219 -0.977,0.589 -1.294,1.063c-0.317,0.475 -0.486,1.033 -0.486,1.603c0,0.38 0.076,0.756 0.222,1.107c0.146,0.351 0.36,0.669 0.629,0.937c0.269,0.269 0.589,0.481 0.94,0.626c0.352,0.144 0.729,0.218 1.109,0.217Z" style="fill:#fff;fill-rule:nonzero;"/><path d="M59.853,32.786c0.571,-0.002 1.129,-0.172 1.602,-0.49c0.475,-0.318 0.843,-0.77 1.061,-1.297c0.217,-0.528 0.274,-1.108 0.161,-1.668c-0.112,-0.56 -0.388,-1.073 -0.792,-1.476c-0.404,-0.403 -0.919,-0.678 -1.479,-0.788c-0.56,-0.111 -1.14,-0.054 -1.668,0.165c-0.527,0.219 -0.978,0.589 -1.295,1.064c-0.317,0.474 -0.486,1.032 -0.486,1.603c0.001,0.379 0.076,0.755 0.222,1.106c0.146,0.35 0.359,0.669 0.628,0.937c0.269,0.268 0.588,0.481 0.939,0.625c0.351,0.145 0.727,0.219 1.107,0.219Z" style="fill:#fff;fill-rule:nonzero;"/><path d="M56.612,44.44c0.684,-0.002 1.353,-0.206 1.921,-0.587c0.569,-0.382 1.011,-0.923 1.272,-1.555c0.261,-0.633 0.328,-1.328 0.194,-1.999c-0.134,-0.671 -0.465,-1.287 -0.949,-1.77c-0.485,-0.483 -1.102,-0.812 -1.773,-0.945c-0.671,-0.133 -1.367,-0.064 -1.999,0.198c-0.633,0.262 -1.173,0.706 -1.553,1.275c-0.38,0.569 -0.582,1.237 -0.582,1.922c0.001,0.918 0.368,1.799 1.018,2.447c0.651,0.649 1.532,1.014 2.451,1.014Z" style="fill:#fff;fill-rule:nonzero;"/><path d="M46.076,44.44c0.799,-0.002 1.581,-0.24 2.245,-0.686c0.664,-0.446 1.181,-1.078 1.486,-1.817c0.305,-0.74 0.383,-1.553 0.225,-2.337c-0.157,-0.784 -0.544,-1.503 -1.111,-2.067c-0.567,-0.564 -1.289,-0.948 -2.073,-1.102c-0.785,-0.154 -1.598,-0.072 -2.337,0.236c-0.738,0.308 -1.368,0.828 -1.811,1.494c-0.442,0.666 -0.677,1.448 -0.675,2.248c0.003,1.071 0.431,2.097 1.191,2.853c0.759,0.756 1.788,1.18 2.86,1.178Z" style="fill:#fff;fill-rule:nonzero;"/><path d="M33.814,47.214c0.914,-0.002 1.806,-0.275 2.565,-0.784c0.758,-0.509 1.349,-1.231 1.697,-2.075c0.348,-0.845 0.438,-1.773 0.258,-2.668c-0.18,-0.896 -0.621,-1.718 -1.267,-2.363c-0.647,-0.645 -1.47,-1.083 -2.367,-1.261c-0.896,-0.177 -1.824,-0.085 -2.668,0.265c-0.844,0.35 -1.565,0.942 -2.072,1.702c-0.507,0.759 -0.778,1.652 -0.778,2.565c0.002,1.226 0.491,2.402 1.36,3.268c0.868,0.866 2.045,1.352 3.272,1.351Z" style="fill:#fff;fill-rule:nonzero;"/><path d="M20.375,53.791c1.073,-0.002 2.121,-0.323 3.012,-0.92c0.891,-0.598 1.585,-1.446 1.994,-2.437c0.409,-0.992 0.515,-2.082 0.304,-3.134c-0.21,-1.052 -0.728,-2.017 -1.488,-2.775c-0.759,-0.758 -1.726,-1.273 -2.779,-1.482c-1.052,-0.208 -2.143,-0.1 -3.134,0.311c-0.991,0.411 -1.838,1.106 -2.434,1.998c-0.596,0.892 -0.914,1.94 -0.914,3.013c0.002,1.44 0.576,2.821 1.596,3.838c1.02,1.018 2.402,1.589 3.843,1.588Z" style="fill:#fff;fill-rule:nonzero;"/><path d="M6.485,64.875c1.278,-0.004 2.526,-0.386 3.587,-1.099c1.061,-0.712 1.887,-1.723 2.374,-2.904c0.486,-1.182 0.612,-2.48 0.361,-3.733c-0.252,-1.252 -0.869,-2.403 -1.773,-3.305c-0.905,-0.902 -2.057,-1.517 -3.311,-1.765c-1.253,-0.248 -2.552,-0.119 -3.733,0.37c-1.18,0.489 -2.189,1.317 -2.9,2.379c-0.71,1.062 -1.089,2.311 -1.09,3.589c0.001,0.85 0.17,1.692 0.496,2.477c0.326,0.785 0.804,1.499 1.407,2.099c0.602,0.601 1.316,1.077 2.103,1.402c0.786,0.324 1.629,0.49 2.479,0.49Z" style="fill:#fff;fill-rule:nonzero;"/><path d="M14.936,40.285c1.073,-0.003 2.121,-0.324 3.011,-0.922c0.891,-0.598 1.584,-1.446 1.993,-2.438c0.408,-0.991 0.513,-2.082 0.302,-3.133c-0.211,-1.052 -0.729,-2.017 -1.489,-2.774c-0.759,-0.758 -1.726,-1.273 -2.779,-1.481c-1.052,-0.208 -2.143,-0.1 -3.134,0.311c-0.99,0.411 -1.837,1.107 -2.433,1.999c-0.596,0.892 -0.914,1.94 -0.914,3.012c0.001,0.714 0.142,1.421 0.416,2.08c0.274,0.659 0.675,1.257 1.18,1.761c0.506,0.504 1.106,0.903 1.766,1.175c0.66,0.272 1.367,0.411 2.081,0.41Z" style="fill:#fff;fill-rule:nonzero;"/><path d="M28.361,33.708c0.913,-0 1.806,-0.272 2.566,-0.78c0.759,-0.508 1.351,-1.23 1.7,-2.074c0.349,-0.844 0.44,-1.773 0.262,-2.669c-0.179,-0.895 -0.62,-1.718 -1.266,-2.364c-0.646,-0.645 -1.47,-1.085 -2.366,-1.263c-0.896,-0.178 -1.825,-0.086 -2.67,0.264c-0.844,0.349 -1.565,0.941 -2.073,1.701c-0.507,0.76 -0.778,1.652 -0.778,2.566c0.001,1.225 0.488,2.4 1.356,3.267c0.867,0.866 2.043,1.352 3.268,1.352Z" style="fill:#fff;fill-rule:nonzero;"/><path d="M26.395,21.47c0.914,-0.002 1.807,-0.274 2.566,-0.783c0.759,-0.508 1.35,-1.23 1.698,-2.075c0.349,-0.844 0.439,-1.773 0.26,-2.669c-0.18,-0.895 -0.621,-1.718 -1.268,-2.363c-0.647,-0.645 -1.471,-1.084 -2.367,-1.261c-0.896,-0.177 -1.825,-0.085 -2.669,0.265c-0.844,0.351 -1.565,0.943 -2.072,1.703c-0.507,0.76 -0.777,1.654 -0.777,2.567c0.002,1.226 0.491,2.4 1.359,3.266c0.868,0.865 2.044,1.351 3.27,1.35Z" style="fill:#fff;fill-rule:nonzero;"/><path d="M38.668,18.699c0.798,-0.003 1.577,-0.242 2.24,-0.688c0.662,-0.446 1.177,-1.077 1.481,-1.815c0.303,-0.739 0.381,-1.55 0.224,-2.332c-0.158,-0.783 -0.544,-1.501 -1.109,-2.064c-0.566,-0.563 -1.286,-0.947 -2.069,-1.101c-0.783,-0.155 -1.595,-0.074 -2.332,0.232c-0.737,0.306 -1.367,0.824 -1.81,1.488c-0.444,0.663 -0.68,1.444 -0.68,2.242c0,0.531 0.106,1.057 0.31,1.548c0.204,0.491 0.503,0.936 0.879,1.311c0.377,0.375 0.824,0.673 1.316,0.875c0.491,0.202 1.018,0.305 1.55,0.304Z" style="fill:#fff;fill-rule:nonzero;"/><path d="M49.193,18.699c0.684,-0.002 1.353,-0.206 1.921,-0.587c0.569,-0.381 1.011,-0.922 1.272,-1.555c0.261,-0.632 0.328,-1.328 0.194,-1.999c-0.135,-0.67 -0.465,-1.286 -0.949,-1.77c-0.485,-0.483 -1.102,-0.812 -1.773,-0.945c-0.671,-0.133 -1.367,-0.064 -1.999,0.198c-0.632,0.263 -1.173,0.706 -1.553,1.275c-0.38,0.569 -0.583,1.238 -0.583,1.922c0.002,0.919 0.369,1.799 1.019,2.448c0.651,0.649 1.532,1.013 2.451,1.013Z" style="fill:#fff;fill-rule:nonzero;"/><path d="M51.17,30.934c0.684,-0.003 1.352,-0.209 1.919,-0.591c0.567,-0.382 1.009,-0.924 1.269,-1.556c0.259,-0.633 0.325,-1.328 0.19,-1.999c-0.135,-0.67 -0.466,-1.285 -0.95,-1.768c-0.485,-0.482 -1.102,-0.81 -1.773,-0.943c-0.672,-0.132 -1.367,-0.062 -1.999,0.2c-0.631,0.262 -1.171,0.706 -1.551,1.275c-0.38,0.568 -0.582,1.237 -0.582,1.921c0,0.455 0.091,0.906 0.267,1.327c0.175,0.42 0.431,0.802 0.754,1.123c0.323,0.321 0.706,0.576 1.127,0.749c0.422,0.174 0.873,0.263 1.329,0.262Z" style="fill:#fff;fill-rule:nonzero;"/><path d="M40.637,31.035c0.799,-0.002 1.58,-0.241 2.243,-0.687c0.664,-0.446 1.181,-1.078 1.485,-1.817c0.304,-0.739 0.383,-1.551 0.225,-2.335c-0.158,-0.783 -0.544,-1.502 -1.11,-2.066c-0.567,-0.564 -1.287,-0.948 -2.072,-1.103c-0.784,-0.154 -1.597,-0.073 -2.335,0.234c-0.738,0.307 -1.369,0.825 -1.812,1.49c-0.443,0.665 -0.68,1.447 -0.679,2.246c0.001,0.531 0.107,1.057 0.311,1.547c0.204,0.491 0.503,0.936 0.88,1.311c0.376,0.375 0.823,0.672 1.315,0.875c0.491,0.202 1.017,0.306 1.549,0.305Z" style="fill:#fff;fill-rule:nonzero;"/><path d="M29.174,61.755c0.411,-0.002 0.812,-0.125 1.153,-0.354c0.341,-0.229 0.606,-0.554 0.762,-0.934c0.156,-0.38 0.196,-0.797 0.115,-1.199c-0.081,-0.403 -0.279,-0.772 -0.57,-1.062c-0.291,-0.29 -0.662,-0.487 -1.064,-0.566c-0.403,-0.08 -0.821,-0.038 -1.2,0.119c-0.379,0.158 -0.703,0.424 -0.931,0.765c-0.228,0.342 -0.35,0.743 -0.35,1.153c0,0.274 0.055,0.544 0.16,0.797c0.105,0.252 0.259,0.481 0.452,0.674c0.194,0.193 0.424,0.346 0.676,0.45c0.253,0.104 0.524,0.157 0.797,0.157Z" style="fill:#fff;fill-rule:nonzero;"/><path d="M37.513,60.716c0.502,-0.002 0.991,-0.153 1.408,-0.433c0.416,-0.28 0.739,-0.678 0.93,-1.142c0.19,-0.463 0.239,-0.973 0.14,-1.465c-0.099,-0.492 -0.342,-0.943 -0.698,-1.297c-0.355,-0.354 -0.808,-0.594 -1.3,-0.691c-0.492,-0.098 -1.002,-0.047 -1.466,0.146c-0.463,0.192 -0.859,0.518 -1.138,0.935c-0.278,0.417 -0.427,0.907 -0.427,1.409c0.002,0.675 0.272,1.321 0.75,1.797c0.478,0.475 1.126,0.742 1.801,0.741Z" style="fill:#fff;fill-rule:nonzero;"/><path d="M46.653,57.255c0.572,-0 1.13,-0.17 1.604,-0.488c0.475,-0.318 0.844,-0.77 1.062,-1.297c0.218,-0.528 0.275,-1.109 0.162,-1.669c-0.112,-0.56 -0.388,-1.074 -0.792,-1.477c-0.404,-0.403 -0.919,-0.677 -1.48,-0.788c-0.56,-0.111 -1.141,-0.053 -1.668,0.166c-0.528,0.22 -0.978,0.59 -1.295,1.065c-0.317,0.475 -0.486,1.034 -0.485,1.605c0.001,0.379 0.076,0.755 0.222,1.105c0.145,0.35 0.358,0.668 0.627,0.935c0.268,0.268 0.587,0.48 0.938,0.625c0.35,0.145 0.726,0.219 1.105,0.218Z" style="fill:#fff;fill-rule:nonzero;"/><path d="M48.855,66.487c0.684,-0.002 1.352,-0.207 1.92,-0.589c0.568,-0.382 1.01,-0.923 1.27,-1.555c0.261,-0.633 0.328,-1.328 0.193,-1.999c-0.135,-0.671 -0.466,-1.286 -0.95,-1.769c-0.485,-0.483 -1.102,-0.812 -1.773,-0.944c-0.671,-0.133 -1.367,-0.063 -1.999,0.199c-0.631,0.262 -1.171,0.705 -1.551,1.274c-0.38,0.569 -0.583,1.238 -0.583,1.922c0.001,0.455 0.091,0.906 0.266,1.327c0.174,0.42 0.43,0.802 0.753,1.123c0.322,0.322 0.705,0.576 1.127,0.749c0.42,0.174 0.872,0.263 1.327,0.262Z" style="fill:#fff;fill-rule:nonzero;"/><path d="M37.741,68.68c0.572,-0 1.13,-0.17 1.604,-0.488c0.475,-0.318 0.844,-0.769 1.062,-1.297c0.218,-0.527 0.275,-1.108 0.163,-1.668c-0.112,-0.559 -0.387,-1.073 -0.791,-1.477c-0.404,-0.403 -0.919,-0.678 -1.479,-0.789c-0.56,-0.111 -1.141,-0.054 -1.668,0.165c-0.528,0.219 -0.979,0.589 -1.296,1.064c-0.317,0.474 -0.486,1.032 -0.486,1.603c0.001,0.766 0.306,1.501 0.848,2.042c0.542,0.541 1.277,0.845 2.043,0.845Z" style="fill:#fff;fill-rule:nonzero;"/><path d="M27.899,68.568c0.503,-0 0.995,-0.149 1.413,-0.429c0.418,-0.279 0.744,-0.676 0.937,-1.141c0.192,-0.464 0.242,-0.975 0.144,-1.468c-0.098,-0.493 -0.34,-0.947 -0.696,-1.302c-0.355,-0.355 -0.809,-0.598 -1.302,-0.696c-0.493,-0.098 -1.005,-0.047 -1.469,0.145c-0.465,0.192 -0.862,0.518 -1.141,0.936c-0.28,0.418 -0.429,0.91 -0.429,1.412c0.001,0.675 0.269,1.32 0.746,1.797c0.477,0.477 1.123,0.745 1.797,0.746Z" style="fill:#fff;fill-rule:nonzero;"/><path d="M28.015,76.532c0.571,-0.002 1.129,-0.172 1.603,-0.49c0.474,-0.319 0.843,-0.77 1.06,-1.298c0.218,-0.527 0.274,-1.108 0.162,-1.667c-0.113,-0.56 -0.388,-1.074 -0.793,-1.477c-0.404,-0.402 -0.918,-0.677 -1.478,-0.787c-0.56,-0.111 -1.141,-0.054 -1.668,0.165c-0.527,0.219 -0.978,0.589 -1.295,1.063c-0.317,0.475 -0.486,1.033 -0.486,1.604c0,0.379 0.075,0.755 0.221,1.106c0.146,0.35 0.359,0.669 0.628,0.937c0.269,0.268 0.588,0.48 0.939,0.625c0.351,0.145 0.728,0.219 1.107,0.219Z" style="fill:#fff;fill-rule:nonzero;"/><path d="M39.816,78.032c0.685,-0.001 1.355,-0.205 1.924,-0.586c0.57,-0.381 1.013,-0.923 1.275,-1.556c0.262,-0.633 0.33,-1.329 0.195,-2.001c-0.134,-0.672 -0.464,-1.289 -0.949,-1.773c-0.485,-0.484 -1.102,-0.814 -1.774,-0.947c-0.673,-0.134 -1.369,-0.065 -2.002,0.198c-0.633,0.262 -1.175,0.706 -1.555,1.276c-0.381,0.569 -0.584,1.239 -0.584,1.924c0.001,0.919 0.367,1.801 1.017,2.45c0.651,0.65 1.533,1.015 2.453,1.015Z" style="fill:#fff;fill-rule:nonzero;"/><path d="M53.604,76.532c0.8,0.001 1.582,-0.234 2.249,-0.678c0.665,-0.443 1.184,-1.074 1.492,-1.812c0.307,-0.739 0.388,-1.552 0.233,-2.336c-0.155,-0.785 -0.54,-1.506 -1.105,-2.071c-0.565,-0.567 -1.285,-0.953 -2.07,-1.109c-0.785,-0.156 -1.598,-0.077 -2.337,0.229c-0.739,0.305 -1.371,0.824 -1.816,1.488c-0.445,0.665 -0.682,1.447 -0.682,2.247c0.001,1.07 0.426,2.097 1.183,2.854c0.756,0.758 1.782,1.185 2.853,1.188Z" style="fill:#fff;fill-rule:nonzero;"/><path d="M61.706,86.573c0.913,-0.003 1.806,-0.276 2.564,-0.786c0.757,-0.51 1.347,-1.232 1.695,-2.077c0.347,-0.845 0.436,-1.773 0.256,-2.668c-0.18,-0.895 -0.622,-1.717 -1.269,-2.362c-0.647,-0.644 -1.471,-1.082 -2.367,-1.259c-0.897,-0.176 -1.825,-0.083 -2.669,0.267c-0.843,0.351 -1.563,0.944 -2.07,1.704c-0.507,0.759 -0.777,1.652 -0.776,2.566c0.001,0.607 0.122,1.208 0.355,1.769c0.234,0.561 0.575,1.07 1.006,1.498c0.431,0.429 0.942,0.769 1.503,1c0.562,0.231 1.164,0.35 1.772,0.348Z" style="fill:#fff;fill-rule:nonzero;"/><path d="M44.692,87.957c0.798,-0.002 1.579,-0.241 2.242,-0.686c0.663,-0.445 1.18,-1.077 1.484,-1.815c0.305,-0.738 0.384,-1.55 0.228,-2.333c-0.157,-0.783 -0.541,-1.502 -1.106,-2.066c-0.565,-0.565 -1.285,-0.95 -2.068,-1.106c-0.783,-0.156 -1.595,-0.077 -2.334,0.227c-0.738,0.304 -1.37,0.821 -1.815,1.484c-0.445,0.663 -0.684,1.443 -0.686,2.241c-0.001,0.533 0.103,1.06 0.307,1.553c0.203,0.492 0.502,0.939 0.879,1.316c0.376,0.376 0.824,0.675 1.316,0.878c0.492,0.203 1.02,0.308 1.553,0.307Z" style="fill:#fff;fill-rule:nonzero;"/><path d="M35.078,95.808c0.8,-0.001 1.581,-0.24 2.246,-0.686c0.664,-0.445 1.181,-1.077 1.485,-1.817c0.305,-0.739 0.383,-1.552 0.226,-2.336c-0.158,-0.784 -0.545,-1.504 -1.112,-2.067c-0.567,-0.565 -1.288,-0.948 -2.073,-1.102c-0.785,-0.154 -1.598,-0.072 -2.336,0.236c-0.739,0.308 -1.369,0.828 -1.811,1.494c-0.443,0.665 -0.678,1.448 -0.676,2.247c0.004,1.071 0.433,2.097 1.192,2.853c0.76,0.755 1.788,1.179 2.859,1.178Z" style="fill:#fff;fill-rule:nonzero;"/><path d="M43.068,105.966c0.914,-0.003 1.806,-0.276 2.565,-0.784c0.758,-0.509 1.349,-1.232 1.697,-2.077c0.348,-0.844 0.437,-1.773 0.257,-2.668c-0.179,-0.896 -0.621,-1.718 -1.268,-2.362c-0.647,-0.645 -1.471,-1.084 -2.367,-1.261c-0.897,-0.176 -1.825,-0.084 -2.669,0.267c-0.844,0.35 -1.565,0.943 -2.071,1.703c-0.507,0.76 -0.777,1.653 -0.776,2.566c0,0.608 0.12,1.208 0.353,1.769c0.234,0.561 0.575,1.07 1.005,1.499c0.431,0.429 0.941,0.768 1.503,0.999c0.561,0.232 1.163,0.35 1.771,0.349Z" style="fill:#fff;fill-rule:nonzero;"/><path d="M64.369,107.814c1.074,0.001 2.124,-0.317 3.016,-0.912c0.893,-0.596 1.59,-1.443 2.001,-2.435c0.411,-0.991 0.519,-2.082 0.31,-3.134c-0.209,-1.053 -0.725,-2.02 -1.484,-2.78c-0.759,-0.759 -1.726,-1.276 -2.779,-1.486c-1.053,-0.209 -2.145,-0.102 -3.136,0.309c-0.992,0.41 -1.84,1.106 -2.437,1.998c-0.596,0.892 -0.915,1.941 -0.915,3.015c0.002,1.437 0.574,2.816 1.591,3.833c1.016,1.017 2.395,1.589 3.833,1.592Z" style="fill:#fff;fill-rule:nonzero;"/><path d="M52.678,98.114c0.913,-0.002 1.805,-0.275 2.564,-0.784c0.758,-0.509 1.349,-1.232 1.697,-2.076c0.348,-0.845 0.438,-1.773 0.258,-2.669c-0.18,-0.895 -0.622,-1.717 -1.269,-2.362c-0.647,-0.645 -1.471,-1.083 -2.367,-1.26c-0.896,-0.177 -1.825,-0.085 -2.669,0.266c-0.843,0.351 -1.564,0.943 -2.071,1.703c-0.506,0.76 -0.777,1.653 -0.776,2.566c0.001,0.607 0.122,1.209 0.355,1.769c0.233,0.56 0.575,1.07 1.005,1.498c0.43,0.429 0.94,0.769 1.502,1c0.561,0.232 1.163,0.35 1.77,0.349Z" style="fill:#fff;fill-rule:nonzero;"/><path d="M73.281,96.277c1.073,-0.002 2.121,-0.322 3.012,-0.92c0.891,-0.597 1.585,-1.446 1.994,-2.437c0.409,-0.992 0.515,-2.082 0.304,-3.134c-0.21,-1.052 -0.728,-2.018 -1.488,-2.775c-0.759,-0.758 -1.726,-1.273 -2.779,-1.482c-1.052,-0.208 -2.143,-0.1 -3.134,0.311c-0.991,0.411 -1.838,1.106 -2.434,1.998c-0.596,0.892 -0.914,1.941 -0.914,3.013c0.002,1.441 0.576,2.821 1.596,3.839c1.019,1.017 2.402,1.588 3.843,1.587Z" style="fill:#fff;fill-rule:nonzero;"/><path d="M30.217,85.883c0.685,-0.002 1.354,-0.207 1.923,-0.589c0.568,-0.382 1.011,-0.924 1.271,-1.557c0.261,-0.634 0.328,-1.33 0.193,-2.001c-0.135,-0.671 -0.466,-1.288 -0.951,-1.771c-0.485,-0.484 -1.103,-0.812 -1.775,-0.945c-0.672,-0.133 -1.368,-0.064 -2.001,0.199c-0.632,0.262 -1.173,0.706 -1.553,1.276c-0.381,0.57 -0.584,1.239 -0.584,1.924c0.001,0.455 0.091,0.906 0.266,1.327c0.175,0.421 0.432,0.804 0.754,1.125c0.323,0.322 0.707,0.577 1.128,0.751c0.422,0.173 0.873,0.262 1.329,0.261Z" style="fill:#fff;fill-rule:nonzero;"/><path d="M262.933,83.333l11.175,0l12.225,-35.4l12.15,35.4l11.1,0l15.6,-51.525l-12,0l-9.525,34.575l-11.4,-34.575l-12,0l-11.4,34.575l-9.525,-34.575l-12,0l15.6,51.525Zm76.509,0l11.1,0l0,-51.525l-11.1,0l0,51.525Zm29.259,0l11.025,0l-0,-14.4l6.45,-6.9l15.825,21.3l13.425,0l-21.525,-29.175l20.1,-22.35l-13.425,0l-20.85,23.625l-0,-23.625l-11.025,0l-0,51.525Zm59.716,0l11.1,0l-0,-51.525l-11.1,0l-0,51.525Z" style="fill:#fff;fill-rule:nonzero;"/></svg>