<?xml version="1.0" standalone="no"?>
<!DOCTYPE svg PUBLIC "-//W3C//DTD SVG 20010904//EN"
 "http://www.w3.org/TR/2001/REC-SVG-20010904/DTD/svg10.dtd">
<svg version="1.0" xmlns="http://www.w3.org/2000/svg"
 width="130.000000pt" height="131.000000pt" viewBox="0 0 130.000000 131.000000"
 preserveAspectRatio="xMidYMid meet">

<g transform="translate(0.000000,131.000000) scale(0.100000,-0.100000)"
fill="#000000" stroke="none">
<path d="M622 1223 c-7 -3 -17 -16 -22 -29 -6 -14 -18 -24 -28 -24 -30 0 -126
-36 -170 -64 -28 -18 -55 -26 -85 -26 -54 0 -67 -13 -67 -67 0 -29 -9 -60 -29
-96 -17 -28 -37 -79 -47 -113 -11 -42 -23 -63 -38 -70 -16 -7 -22 -19 -24 -55
-3 -40 0 -47 22 -57 17 -8 28 -24 36 -54 6 -24 19 -64 30 -90 12 -31 17 -60
13 -88 -7 -52 15 -80 63 -80 24 0 54 -14 99 -45 39 -26 96 -54 138 -66 46 -14
79 -31 92 -46 27 -32 95 -30 109 3 7 16 25 25 64 34 29 6 83 27 118 46 40 21
78 34 102 34 47 0 62 14 62 60 0 21 16 66 40 114 21 44 42 98 45 120 5 32 13
45 36 58 23 14 29 24 29 52 0 35 -21 66 -44 66 -8 0 -16 17 -19 42 -3 22 -23
75 -44 117 -26 53 -37 86 -35 109 5 47 -21 74 -69 71 -20 -2 -43 2 -51 8 -27
22 -117 62 -164 74 -33 8 -57 21 -72 40 -23 28 -56 36 -90 22z m-22 -88 c0 -9
11 -21 25 -27 21 -10 25 -18 25 -57 0 -38 -4 -48 -22 -56 -18 -8 -24 -19 -26
-57 -3 -45 -7 -50 -90 -126 -113 -103 -120 -102 -151 38 -20 91 -21 103 -8
118 9 9 17 35 19 57 3 36 7 42 53 67 52 29 127 56 158 57 9 1 17 -6 17 -14z
m270 -33 l75 -37 3 -45 c2 -25 9 -50 17 -56 12 -9 10 -26 -13 -115 -36 -138
-45 -140 -153 -33 -67 67 -79 84 -79 112 0 40 -15 72 -35 72 -11 0 -15 12 -15
44 0 35 6 51 28 75 35 38 69 35 172 -17z m-556 -159 c4 -9 16 -57 27 -106 18
-81 18 -91 4 -107 -8 -9 -15 -22 -15 -28 0 -8 -18 -12 -49 -12 -40 0 -51 4
-56 19 -3 11 -12 22 -20 25 -19 7 -19 34 1 93 36 106 90 164 108 116z m758
-30 c14 -27 34 -74 44 -106 18 -57 18 -57 -4 -73 -12 -8 -22 -22 -22 -30 0
-10 -14 -14 -55 -14 -30 0 -55 4 -55 9 0 5 -7 17 -16 26 -15 15 -14 24 11 118
36 135 55 148 97 70z m-290 -110 c73 -72 78 -80 78 -120 0 -39 -4 -46 -75
-110 -66 -60 -81 -69 -123 -73 -38 -4 -49 -10 -59 -31 -12 -24 -23 -29 -101
-43 -164 -29 -166 -30 -179 -7 -10 17 -7 34 20 105 21 56 37 86 47 86 34 0 60
30 60 68 0 32 9 46 82 119 79 79 84 83 128 83 42 0 48 -4 122 -77z m-443 -167
c11 -20 9 -35 -20 -110 -27 -72 -36 -86 -54 -86 -17 0 -28 12 -45 51 -34 81
-36 112 -9 142 34 36 110 38 128 3z m769 -7 l24 -29 -21 -68 c-24 -79 -64
-142 -91 -142 -21 0 -20 -2 -51 126 -21 90 -21 92 -3 118 16 21 27 25 69 25
43 0 53 -4 73 -30z m-196 -21 c9 -8 26 -56 38 -111 21 -88 21 -99 7 -115 -9
-9 -17 -35 -19 -57 -3 -38 -6 -42 -63 -72 -34 -18 -80 -36 -102 -41 -37 -9
-44 -7 -62 14 -12 13 -25 24 -31 24 -6 0 -10 28 -10 65 0 50 3 65 15 65 19 0
35 31 36 72 0 28 11 43 77 101 42 37 82 67 88 67 5 0 17 -6 26 -12z m-262
-291 c0 -42 -5 -53 -32 -80 -38 -36 -55 -36 -143 -1 -79 32 -150 92 -141 120
5 17 24 23 129 40 l122 20 32 -26 c29 -22 33 -31 33 -73z"/>
<path d="M589 787 c-41 -28 -59 -60 -59 -110 0 -130 147 -179 233 -78 92 110
-55 268 -174 188z m148 -63 c6 -16 -71 -104 -91 -104 -14 0 -56 42 -56 56 0
18 22 23 42 10 15 -9 24 -5 50 22 37 36 46 39 55 16z"/>
</g>
</svg>
