<svg width="862" height="449" viewBox="0 0 862 449" fill="none" xmlns="http://www.w3.org/2000/svg">
<rect x="0.5" y="0.5" width="861" height="448" fill="#111F3B" stroke="#293856"/>
<rect x="358" y="32" width="147" height="30" rx="5" stroke="#4079A2" stroke-width="2"/>
<rect x="146" y="138" width="147" height="30" rx="10" fill="#DEB458"/>
<rect x="569" y="138" width="147" height="30" rx="10" fill="#C95E47"/>
<path d="M643 106.5H644V105.5H643V106.5ZM479 106.5H478V107.5H479V106.5ZM479 70.5L473.226 80.5H484.774L479 70.5ZM478 75.9V79.5H480V75.9H478ZM478 83.1V86.7H480V83.1H478ZM478 90.3V93.9H480V90.3H478ZM478 97.5V101.1H480V97.5H478ZM478 104.7V106.5H480V104.7H478ZM479 107.5H480.952V105.5H479V107.5ZM484.857 107.5H488.762V105.5H484.857V107.5ZM492.667 107.5H496.571V105.5H492.667V107.5ZM500.476 107.5H504.381V105.5H500.476V107.5ZM508.286 107.5H512.19V105.5H508.286V107.5ZM516.095 107.5H520V105.5H516.095V107.5ZM523.905 107.5H527.81V105.5H523.905V107.5ZM531.714 107.5H535.619V105.5H531.714V107.5ZM539.524 107.5H543.429V105.5H539.524V107.5ZM547.333 107.5H551.238V105.5H547.333V107.5ZM555.143 107.5H559.048V105.5H555.143V107.5ZM562.952 107.5H566.857V105.5H562.952V107.5ZM570.762 107.5H574.667V105.5H570.762V107.5ZM578.571 107.5H582.476V105.5H578.571V107.5ZM586.381 107.5H590.286V105.5H586.381V107.5ZM594.19 107.5H598.095V105.5H594.19V107.5ZM602 107.5H605.905V105.5H602V107.5ZM609.81 107.5H613.714V105.5H609.81V107.5ZM617.619 107.5H621.524V105.5H617.619V107.5ZM625.429 107.5H629.333V105.5H625.429V107.5ZM633.238 107.5H637.143V105.5H633.238V107.5ZM641.048 107.5H643V105.5H641.048V107.5ZM642 106.5V108.406H644V106.5H642ZM642 112.219V116.031H644V112.219H642ZM642 119.844V123.656H644V119.844H642ZM642 127.469V131.281H644V127.469H642ZM642 135.094V137H644V135.094H642Z" fill="#C95E47"/>
<path d="M219 106.5H218V105.5H219V106.5ZM383 106.5H384V107.5H383V106.5ZM383 70.5L388.774 80.5H377.226L383 70.5ZM384 75.9V79.5H382V75.9H384ZM384 83.1V86.7H382V83.1H384ZM384 90.3V93.9H382V90.3H384ZM384 97.5V101.1H382V97.5H384ZM384 104.7V106.5H382V104.7H384ZM383 107.5H381.048V105.5H383V107.5ZM377.143 107.5H373.238V105.5H377.143V107.5ZM369.333 107.5H365.429V105.5H369.333V107.5ZM361.524 107.5H357.619V105.5H361.524V107.5ZM353.714 107.5H349.81V105.5H353.714V107.5ZM345.905 107.5H342V105.5H345.905V107.5ZM338.095 107.5H334.19V105.5H338.095V107.5ZM330.286 107.5H326.381V105.5H330.286V107.5ZM322.476 107.5H318.571V105.5H322.476V107.5ZM314.667 107.5H310.762V105.5H314.667V107.5ZM306.857 107.5H302.952V105.5H306.857V107.5ZM299.048 107.5H295.143V105.5H299.048V107.5ZM291.238 107.5H287.333V105.5H291.238V107.5ZM283.429 107.5H279.524V105.5H283.429V107.5ZM275.619 107.5H271.714V105.5H275.619V107.5ZM267.81 107.5H263.905V105.5H267.81V107.5ZM260 107.5H256.095V105.5H260V107.5ZM252.19 107.5H248.286V105.5H252.19V107.5ZM244.381 107.5H240.476V105.5H244.381V107.5ZM236.571 107.5H232.667V105.5H236.571V107.5ZM228.762 107.5H224.857V105.5H228.762V107.5ZM220.952 107.5H219V105.5H220.952V107.5ZM220 106.5V108.406H218V106.5H220ZM220 112.219V116.031H218V112.219H220ZM220 119.844V123.656H218V119.844H220ZM220 127.469V131.281H218V127.469H220ZM220 135.094V137H218V135.094H220Z" fill="#DEB458"/>
<rect x="679" y="288" width="145" height="28" rx="9" stroke="#9047C9" stroke-width="2"/>
<rect x="570" y="387" width="145" height="28" rx="9" stroke="#C9478D" stroke-width="2"/>
<rect x="256" y="288" width="145" height="28" rx="9" stroke="#B7C947" stroke-width="2"/>
<rect x="461" y="288" width="145" height="28" rx="9" stroke="#476BC9" stroke-width="2"/>
<rect x="352" y="387" width="145" height="28" rx="9" stroke="#C98547" stroke-width="2"/>
<rect x="38" y="288" width="145" height="28" rx="9" stroke="#47AAC9" stroke-width="2"/>
<path d="M383.138 53H385.906V48.3594H387.925L390.406 53H393.461L390.68 47.9119C392.17 47.2727 392.994 45.9751 392.994 44.1854C392.994 41.5838 391.275 39.9091 388.303 39.9091H383.138V53ZM385.906 46.1349V42.1719H387.772C389.37 42.1719 390.143 42.8814 390.143 44.1854C390.143 45.483 389.37 46.1349 387.785 46.1349H385.906ZM399.177 53.1918C402.156 53.1918 404.009 51.1527 404.009 48.1293C404.009 45.0866 402.156 43.054 399.177 43.054C396.198 43.054 394.345 45.0866 394.345 48.1293C394.345 51.1527 396.198 53.1918 399.177 53.1918ZM399.19 51.0824C397.816 51.0824 397.112 49.8232 397.112 48.1101C397.112 46.397 397.816 45.1314 399.19 45.1314C400.539 45.1314 401.242 46.397 401.242 48.1101C401.242 49.8232 400.539 51.0824 399.19 51.0824ZM410.216 53.1918C413.195 53.1918 415.048 51.1527 415.048 48.1293C415.048 45.0866 413.195 43.054 410.216 43.054C407.237 43.054 405.384 45.0866 405.384 48.1293C405.384 51.1527 407.237 53.1918 410.216 53.1918ZM410.229 51.0824C408.855 51.0824 408.151 49.8232 408.151 48.1101C408.151 46.397 408.855 45.1314 410.229 45.1314C411.578 45.1314 412.281 46.397 412.281 48.1101C412.281 49.8232 411.578 51.0824 410.229 51.0824ZM422.041 43.1818H420.194V40.8295H417.471V43.1818H416.129V45.2273H417.471V50.3409C417.458 52.2649 418.769 53.2173 420.744 53.1342C421.447 53.1087 421.945 52.968 422.22 52.8786L421.792 50.8523C421.658 50.8778 421.37 50.9418 421.115 50.9418C420.571 50.9418 420.194 50.7372 420.194 49.983V45.2273H422.041V43.1818ZM428.582 47.7521C428.582 50.929 429.419 53.5689 431.164 55.8445H433.766C432.43 54.157 431.414 50.782 431.414 47.7521C431.414 44.7287 432.43 41.3537 433.766 39.6662H431.164C429.419 41.9418 428.582 44.5753 428.582 47.7521ZM443.515 45.9815C443.273 44.1726 441.815 43.054 439.335 43.054C436.823 43.054 435.167 44.2173 435.174 46.1094C435.167 47.5795 436.094 48.532 438.012 48.9155L439.712 49.2543C440.569 49.4268 440.959 49.7401 440.971 50.2322C440.959 50.8139 440.326 51.2294 439.373 51.2294C438.402 51.2294 437.756 50.8139 437.59 50.0149L434.912 50.1555C435.167 52.0348 436.765 53.1918 439.367 53.1918C441.911 53.1918 443.733 51.8942 443.739 49.9574C443.733 48.5384 442.806 47.6882 440.901 47.2983L439.124 46.9403C438.21 46.7422 437.871 46.429 437.878 45.956C437.871 45.3679 438.536 44.9844 439.38 44.9844C440.326 44.9844 440.888 45.5021 441.023 46.1349L443.515 45.9815ZM449.928 53.1918C452.357 53.1918 453.994 52.0092 454.377 50.1875L451.859 50.0213C451.584 50.7692 450.881 51.1591 449.973 51.1591C448.612 51.1591 447.749 50.2578 447.749 48.794V48.7876H454.435V48.0398C454.435 44.7031 452.415 43.054 449.82 43.054C446.93 43.054 445.058 45.1058 445.058 48.1357C445.058 51.2486 446.905 53.1918 449.928 53.1918ZM447.749 47.1001C447.806 45.9815 448.656 45.0866 449.864 45.0866C451.047 45.0866 451.865 45.9304 451.871 47.1001H447.749ZM460.686 53.1918C463.115 53.1918 464.751 52.0092 465.135 50.1875L462.616 50.0213C462.342 50.7692 461.638 51.1591 460.731 51.1591C459.369 51.1591 458.506 50.2578 458.506 48.794V48.7876H465.192V48.0398C465.192 44.7031 463.173 43.054 460.577 43.054C457.688 43.054 455.815 45.1058 455.815 48.1357C455.815 51.2486 457.663 53.1918 460.686 53.1918ZM458.506 47.1001C458.564 45.9815 459.414 45.0866 460.622 45.0866C461.805 45.0866 462.623 45.9304 462.629 47.1001H458.506ZM470.587 53.1598C472.173 53.1598 472.997 52.2457 473.374 51.4276H473.489V53H476.174V39.9091H473.457V44.831H473.374C473.01 44.032 472.224 43.054 470.581 43.054C468.427 43.054 466.605 44.7287 466.605 48.1037C466.605 51.3892 468.35 53.1598 470.587 53.1598ZM471.45 50.9929C470.114 50.9929 469.386 49.804 469.386 48.0909C469.386 46.3906 470.102 45.2209 471.45 45.2209C472.773 45.2209 473.515 46.3395 473.515 48.0909C473.515 49.8423 472.761 50.9929 471.45 50.9929ZM483.002 47.7521C483.002 44.5753 482.165 41.9354 480.42 39.6598H477.818C479.154 41.3473 480.171 44.7223 480.171 47.7521C480.171 50.7756 479.154 54.1506 477.818 55.8381H480.42C482.165 53.5625 483.002 50.929 483.002 47.7521Z" fill="#4079A2"/>
<path d="M185.64 158L186.396 155.678H190.07L190.825 158H193.132L189.622 147.818H186.848L183.333 158H185.64ZM186.942 153.998L188.195 150.145H188.275L189.528 153.998H186.942ZM197.413 158.149C199.446 158.149 200.724 156.956 200.823 155.201H198.825C198.7 156.016 198.163 156.474 197.438 156.474C196.448 156.474 195.807 155.643 195.807 154.182C195.807 152.74 196.453 151.915 197.438 151.915C198.213 151.915 198.71 152.427 198.825 153.188H200.823C200.734 151.423 199.396 150.264 197.403 150.264C195.086 150.264 193.654 151.87 193.654 154.212C193.654 156.533 195.061 158.149 197.413 158.149ZM205.629 158.149C207.663 158.149 208.941 156.956 209.04 155.201H207.041C206.917 156.016 206.38 156.474 205.654 156.474C204.665 156.474 204.024 155.643 204.024 154.182C204.024 152.74 204.67 151.915 205.654 151.915C206.43 151.915 206.927 152.427 207.041 153.188H209.04C208.95 151.423 207.613 150.264 205.619 150.264C203.303 150.264 201.871 151.87 201.871 154.212C201.871 156.533 203.278 158.149 205.629 158.149ZM213.846 158.149C216.163 158.149 217.605 156.563 217.605 154.212C217.605 151.845 216.163 150.264 213.846 150.264C211.529 150.264 210.088 151.845 210.088 154.212C210.088 156.563 211.529 158.149 213.846 158.149ZM213.856 156.509C212.787 156.509 212.24 155.529 212.24 154.197C212.24 152.864 212.787 151.88 213.856 151.88C214.905 151.88 215.452 152.864 215.452 154.197C215.452 155.529 214.905 156.509 213.856 156.509ZM223.879 154.749C223.884 155.773 223.183 156.31 222.422 156.31C221.622 156.31 221.105 155.748 221.1 154.848V150.364H218.982V155.226C218.987 157.011 220.031 158.099 221.567 158.099C222.716 158.099 223.541 157.508 223.884 156.613H223.963V158H225.997V150.364H223.879V154.749ZM229.809 153.585C229.814 152.601 230.4 152.024 231.256 152.024C232.106 152.024 232.618 152.581 232.613 153.516V158H234.731V153.138C234.731 151.358 233.687 150.264 232.096 150.264C230.962 150.264 230.142 150.821 229.799 151.711H229.709V150.364H227.691V158H229.809V153.585ZM240.462 150.364H239.025V148.534H236.907V150.364H235.863V151.955H236.907V155.932C236.897 157.428 237.916 158.169 239.452 158.104C239.999 158.085 240.387 157.975 240.601 157.906L240.268 156.33C240.163 156.349 239.94 156.399 239.741 156.399C239.318 156.399 239.025 156.24 239.025 155.653V151.955H240.462V150.364ZM249.491 147.818H247.468L244.947 149.414V151.323L247.279 149.862H247.339V158H249.491V147.818Z" fill="white"/>
<path d="M608.64 158L609.396 155.678H613.07L613.825 158H616.132L612.622 147.818H609.848L606.333 158H608.64ZM609.942 153.998L611.195 150.145H611.275L612.528 153.998H609.942ZM620.413 158.149C622.446 158.149 623.724 156.956 623.823 155.201H621.825C621.7 156.016 621.163 156.474 620.438 156.474C619.448 156.474 618.807 155.643 618.807 154.182C618.807 152.74 619.453 151.915 620.438 151.915C621.213 151.915 621.71 152.427 621.825 153.188H623.823C623.734 151.423 622.396 150.264 620.403 150.264C618.086 150.264 616.654 151.87 616.654 154.212C616.654 156.533 618.061 158.149 620.413 158.149ZM628.629 158.149C630.663 158.149 631.941 156.956 632.04 155.201H630.041C629.917 156.016 629.38 156.474 628.654 156.474C627.665 156.474 627.024 155.643 627.024 154.182C627.024 152.74 627.67 151.915 628.654 151.915C629.43 151.915 629.927 152.427 630.041 153.188H632.04C631.95 151.423 630.613 150.264 628.619 150.264C626.303 150.264 624.871 151.87 624.871 154.212C624.871 156.533 626.278 158.149 628.629 158.149ZM636.846 158.149C639.163 158.149 640.605 156.563 640.605 154.212C640.605 151.845 639.163 150.264 636.846 150.264C634.529 150.264 633.088 151.845 633.088 154.212C633.088 156.563 634.529 158.149 636.846 158.149ZM636.856 156.509C635.787 156.509 635.24 155.529 635.24 154.197C635.24 152.864 635.787 151.88 636.856 151.88C637.905 151.88 638.452 152.864 638.452 154.197C638.452 155.529 637.905 156.509 636.856 156.509ZM646.879 154.749C646.884 155.773 646.183 156.31 645.422 156.31C644.622 156.31 644.105 155.748 644.1 154.848V150.364H641.982V155.226C641.987 157.011 643.031 158.099 644.567 158.099C645.716 158.099 646.541 157.508 646.884 156.613H646.963V158H648.997V150.364H646.879V154.749ZM652.809 153.585C652.814 152.601 653.4 152.024 654.256 152.024C655.106 152.024 655.618 152.581 655.613 153.516V158H657.731V153.138C657.731 151.358 656.687 150.264 655.096 150.264C653.962 150.264 653.142 150.821 652.799 151.711H652.709V150.364H650.691V158H652.809V153.585ZM663.462 150.364H662.025V148.534H659.907V150.364H658.863V151.955H659.907V155.932C659.897 157.428 660.916 158.169 662.452 158.104C662.999 158.085 663.387 157.975 663.601 157.906L663.268 156.33C663.163 156.349 662.94 156.399 662.741 156.399C662.318 156.399 662.025 156.24 662.025 155.653V151.955H663.462V150.364ZM668.062 158H675.32V156.24H671.045V156.17L672.531 154.714C674.624 152.805 675.186 151.85 675.186 150.692C675.186 148.927 673.744 147.679 671.562 147.679C669.424 147.679 667.957 148.957 667.962 150.955H670.006C670.001 149.981 670.617 149.384 671.547 149.384C672.442 149.384 673.108 149.941 673.108 150.836C673.108 151.646 672.611 152.203 671.686 153.093L668.062 156.449V158Z" fill="white"/>
<path d="M719.651 307L720.675 304.116H724.791L725.815 307H727.108L723.369 296.818H722.097L718.358 307H719.651ZM721.062 303.023L722.693 298.429H722.773L724.403 303.023H721.062ZM731.418 307.159C732.89 307.159 733.387 306.244 733.646 305.827H733.785V307H734.918V296.818H733.745V300.577H733.646C733.387 300.179 732.93 299.264 731.438 299.264C729.509 299.264 728.177 300.795 728.177 303.202C728.177 305.628 729.509 307.159 731.418 307.159ZM731.577 306.105C730.106 306.105 729.35 304.812 729.35 303.182C729.35 301.571 730.086 300.318 731.577 300.318C733.009 300.318 733.765 301.472 733.765 303.182C733.765 304.912 732.989 306.105 731.577 306.105ZM740.114 307.159C741.585 307.159 742.082 306.244 742.341 305.827H742.48V307H743.614V296.818H742.44V300.577H742.341C742.082 300.179 741.625 299.264 740.134 299.264C738.205 299.264 736.872 300.795 736.872 303.202C736.872 305.628 738.205 307.159 740.114 307.159ZM740.273 306.105C738.801 306.105 738.045 304.812 738.045 303.182C738.045 301.571 738.781 300.318 740.273 300.318C741.705 300.318 742.46 301.472 742.46 303.182C742.46 304.912 741.685 306.105 740.273 306.105ZM745.925 307H747.099V302.168C747.099 301.134 747.914 300.378 749.028 300.378C749.341 300.378 749.664 300.438 749.744 300.457V299.264C749.609 299.254 749.301 299.244 749.127 299.244C748.212 299.244 747.417 299.761 747.138 300.517H747.059V299.364H745.925V307ZM754.104 307.159C755.655 307.159 756.788 306.384 757.146 305.23L756.013 304.912C755.714 305.707 755.023 306.105 754.104 306.105C752.727 306.105 751.777 305.215 751.722 303.58H757.266V303.082C757.266 300.239 755.575 299.264 753.984 299.264C751.916 299.264 750.544 300.895 750.544 303.241C750.544 305.588 751.896 307.159 754.104 307.159ZM751.722 302.565C751.802 301.377 752.642 300.318 753.984 300.318C755.257 300.318 756.072 301.273 756.072 302.565H751.722ZM764.46 301.074C764.092 299.99 763.266 299.264 761.755 299.264C760.144 299.264 758.951 300.179 758.951 301.472C758.951 302.526 759.577 303.232 760.979 303.56L762.252 303.858C763.023 304.037 763.386 304.405 763.386 304.932C763.386 305.588 762.69 306.125 761.596 306.125C760.636 306.125 760.035 305.712 759.826 304.892L758.712 305.17C758.986 306.468 760.055 307.159 761.616 307.159C763.391 307.159 764.599 306.19 764.599 304.872C764.599 303.808 763.933 303.137 762.57 302.804L761.437 302.526C760.532 302.302 760.124 301.999 760.124 301.412C760.124 300.756 760.82 300.278 761.755 300.278C762.779 300.278 763.202 300.845 763.406 301.372L764.46 301.074ZM771.774 301.074C771.406 299.99 770.581 299.264 769.069 299.264C767.459 299.264 766.265 300.179 766.265 301.472C766.265 302.526 766.892 303.232 768.294 303.56L769.567 303.858C770.337 304.037 770.7 304.405 770.7 304.932C770.7 305.588 770.004 306.125 768.91 306.125C767.951 306.125 767.349 305.712 767.14 304.892L766.027 305.17C766.3 306.468 767.369 307.159 768.93 307.159C770.705 307.159 771.913 306.19 771.913 304.872C771.913 303.808 771.247 303.137 769.885 302.804L768.751 302.526C767.846 302.302 767.439 301.999 767.439 301.412C767.439 300.756 768.135 300.278 769.069 300.278C770.094 300.278 770.516 300.845 770.72 301.372L771.774 301.074ZM781.037 307.139C783.011 307.139 784.478 305.901 784.478 304.236C784.478 302.943 783.712 302.004 782.429 301.79V301.71C783.458 301.397 784.1 300.552 784.1 299.403C784.1 297.962 782.961 296.679 781.077 296.679C779.317 296.679 777.855 297.763 777.796 299.364H778.989C779.034 298.349 779.998 297.753 781.057 297.753C782.181 297.753 782.907 298.434 782.907 299.463C782.907 300.537 782.066 301.233 780.858 301.233H780.043V302.327H780.858C782.404 302.327 783.265 303.112 783.265 304.236C783.265 305.315 782.325 306.045 781.017 306.045C779.839 306.045 778.904 305.439 778.83 304.455H777.577C777.652 306.055 779.064 307.139 781.037 307.139Z" fill="white"/>
<path d="M610.651 406L611.675 403.116H615.791L616.815 406H618.108L614.369 395.818H613.097L609.358 406H610.651ZM612.062 402.023L613.693 397.429H613.773L615.403 402.023H612.062ZM622.418 406.159C623.89 406.159 624.387 405.244 624.646 404.827H624.785V406H625.918V395.818H624.745V399.577H624.646C624.387 399.179 623.93 398.264 622.438 398.264C620.509 398.264 619.177 399.795 619.177 402.202C619.177 404.628 620.509 406.159 622.418 406.159ZM622.577 405.105C621.106 405.105 620.35 403.812 620.35 402.182C620.35 400.571 621.086 399.318 622.577 399.318C624.009 399.318 624.765 400.472 624.765 402.182C624.765 403.912 623.989 405.105 622.577 405.105ZM631.114 406.159C632.585 406.159 633.082 405.244 633.341 404.827H633.48V406H634.614V395.818H633.44V399.577H633.341C633.082 399.179 632.625 398.264 631.134 398.264C629.205 398.264 627.872 399.795 627.872 402.202C627.872 404.628 629.205 406.159 631.114 406.159ZM631.273 405.105C629.801 405.105 629.045 403.812 629.045 402.182C629.045 400.571 629.781 399.318 631.273 399.318C632.705 399.318 633.46 400.472 633.46 402.182C633.46 403.912 632.685 405.105 631.273 405.105ZM636.925 406H638.099V401.168C638.099 400.134 638.914 399.378 640.028 399.378C640.341 399.378 640.664 399.438 640.744 399.457V398.264C640.609 398.254 640.301 398.244 640.127 398.244C639.212 398.244 638.417 398.761 638.138 399.517H638.059V398.364H636.925V406ZM645.104 406.159C646.655 406.159 647.788 405.384 648.146 404.23L647.013 403.912C646.714 404.707 646.023 405.105 645.104 405.105C643.727 405.105 642.777 404.215 642.722 402.58H648.266V402.082C648.266 399.239 646.575 398.264 644.984 398.264C642.916 398.264 641.544 399.895 641.544 402.241C641.544 404.588 642.896 406.159 645.104 406.159ZM642.722 401.565C642.802 400.377 643.642 399.318 644.984 399.318C646.257 399.318 647.072 400.273 647.072 401.565H642.722ZM655.46 400.074C655.092 398.99 654.266 398.264 652.755 398.264C651.144 398.264 649.951 399.179 649.951 400.472C649.951 401.526 650.577 402.232 651.979 402.56L653.252 402.858C654.023 403.037 654.386 403.405 654.386 403.932C654.386 404.588 653.69 405.125 652.596 405.125C651.636 405.125 651.035 404.712 650.826 403.892L649.712 404.17C649.986 405.468 651.055 406.159 652.616 406.159C654.391 406.159 655.599 405.19 655.599 403.872C655.599 402.808 654.933 402.137 653.57 401.804L652.437 401.526C651.532 401.302 651.124 400.999 651.124 400.412C651.124 399.756 651.82 399.278 652.755 399.278C653.779 399.278 654.202 399.845 654.406 400.372L655.46 400.074ZM662.774 400.074C662.406 398.99 661.581 398.264 660.069 398.264C658.459 398.264 657.265 399.179 657.265 400.472C657.265 401.526 657.892 402.232 659.294 402.56L660.567 402.858C661.337 403.037 661.7 403.405 661.7 403.932C661.7 404.588 661.004 405.125 659.91 405.125C658.951 405.125 658.349 404.712 658.14 403.892L657.027 404.17C657.3 405.468 658.369 406.159 659.93 406.159C661.705 406.159 662.913 405.19 662.913 403.872C662.913 402.808 662.247 402.137 660.885 401.804L659.751 401.526C658.846 401.302 658.439 400.999 658.439 400.412C658.439 399.756 659.135 399.278 660.069 399.278C661.094 399.278 661.516 399.845 661.72 400.372L662.774 400.074ZM668.597 406H675.02V404.906H670.287V404.827L672.574 402.381C674.324 400.506 674.841 399.631 674.841 398.503C674.841 396.932 673.569 395.679 671.779 395.679C669.994 395.679 668.637 396.892 668.637 398.682H669.81C669.81 397.523 670.561 396.753 671.739 396.753C672.843 396.753 673.688 397.429 673.688 398.503C673.688 399.442 673.136 400.138 671.958 401.426L668.597 405.105V406Z" fill="white"/>
<path d="M297.651 307L298.675 304.116H302.791L303.815 307H305.108L301.369 296.818H300.097L296.358 307H297.651ZM299.062 303.023L300.693 298.429H300.773L302.403 303.023H299.062ZM309.418 307.159C310.89 307.159 311.387 306.244 311.646 305.827H311.785V307H312.918V296.818H311.745V300.577H311.646C311.387 300.179 310.93 299.264 309.438 299.264C307.509 299.264 306.177 300.795 306.177 303.202C306.177 305.628 307.509 307.159 309.418 307.159ZM309.577 306.105C308.106 306.105 307.35 304.812 307.35 303.182C307.35 301.571 308.086 300.318 309.577 300.318C311.009 300.318 311.765 301.472 311.765 303.182C311.765 304.912 310.989 306.105 309.577 306.105ZM318.114 307.159C319.585 307.159 320.082 306.244 320.341 305.827H320.48V307H321.614V296.818H320.44V300.577H320.341C320.082 300.179 319.625 299.264 318.134 299.264C316.205 299.264 314.872 300.795 314.872 303.202C314.872 305.628 316.205 307.159 318.114 307.159ZM318.273 306.105C316.801 306.105 316.045 304.812 316.045 303.182C316.045 301.571 316.781 300.318 318.273 300.318C319.705 300.318 320.46 301.472 320.46 303.182C320.46 304.912 319.685 306.105 318.273 306.105ZM323.925 307H325.099V302.168C325.099 301.134 325.914 300.378 327.028 300.378C327.341 300.378 327.664 300.438 327.744 300.457V299.264C327.609 299.254 327.301 299.244 327.127 299.244C326.212 299.244 325.417 299.761 325.138 300.517H325.059V299.364H323.925V307ZM332.104 307.159C333.655 307.159 334.788 306.384 335.146 305.23L334.013 304.912C333.714 305.707 333.023 306.105 332.104 306.105C330.727 306.105 329.777 305.215 329.722 303.58H335.266V303.082C335.266 300.239 333.575 299.264 331.984 299.264C329.916 299.264 328.544 300.895 328.544 303.241C328.544 305.588 329.896 307.159 332.104 307.159ZM329.722 302.565C329.802 301.377 330.642 300.318 331.984 300.318C333.257 300.318 334.072 301.273 334.072 302.565H329.722ZM342.46 301.074C342.092 299.99 341.266 299.264 339.755 299.264C338.144 299.264 336.951 300.179 336.951 301.472C336.951 302.526 337.577 303.232 338.979 303.56L340.252 303.858C341.023 304.037 341.386 304.405 341.386 304.932C341.386 305.588 340.69 306.125 339.596 306.125C338.636 306.125 338.035 305.712 337.826 304.892L336.712 305.17C336.986 306.468 338.055 307.159 339.616 307.159C341.391 307.159 342.599 306.19 342.599 304.872C342.599 303.808 341.933 303.137 340.57 302.804L339.437 302.526C338.532 302.302 338.124 301.999 338.124 301.412C338.124 300.756 338.82 300.278 339.755 300.278C340.779 300.278 341.202 300.845 341.406 301.372L342.46 301.074ZM349.774 301.074C349.406 299.99 348.581 299.264 347.069 299.264C345.459 299.264 344.265 300.179 344.265 301.472C344.265 302.526 344.892 303.232 346.294 303.56L347.567 303.858C348.337 304.037 348.7 304.405 348.7 304.932C348.7 305.588 348.004 306.125 346.91 306.125C345.951 306.125 345.349 305.712 345.14 304.892L344.027 305.17C344.3 306.468 345.369 307.159 346.93 307.159C348.705 307.159 349.913 306.19 349.913 304.872C349.913 303.808 349.247 303.137 347.885 302.804L346.751 302.526C345.846 302.302 345.439 301.999 345.439 301.412C345.439 300.756 346.135 300.278 347.069 300.278C348.094 300.278 348.516 300.845 348.72 301.372L349.774 301.074ZM359.176 296.818H357.944L355.398 298.509V299.761L357.884 298.111H357.944V307H359.176V296.818Z" fill="white"/>
<path d="M501.651 307L502.675 304.116H506.791L507.815 307H509.108L505.369 296.818H504.097L500.358 307H501.651ZM503.062 303.023L504.693 298.429H504.773L506.403 303.023H503.062ZM513.418 307.159C514.89 307.159 515.387 306.244 515.646 305.827H515.785V307H516.918V296.818H515.745V300.577H515.646C515.387 300.179 514.93 299.264 513.438 299.264C511.509 299.264 510.177 300.795 510.177 303.202C510.177 305.628 511.509 307.159 513.418 307.159ZM513.577 306.105C512.106 306.105 511.35 304.812 511.35 303.182C511.35 301.571 512.086 300.318 513.577 300.318C515.009 300.318 515.765 301.472 515.765 303.182C515.765 304.912 514.989 306.105 513.577 306.105ZM522.114 307.159C523.585 307.159 524.082 306.244 524.341 305.827H524.48V307H525.614V296.818H524.44V300.577H524.341C524.082 300.179 523.625 299.264 522.134 299.264C520.205 299.264 518.872 300.795 518.872 303.202C518.872 305.628 520.205 307.159 522.114 307.159ZM522.273 306.105C520.801 306.105 520.045 304.812 520.045 303.182C520.045 301.571 520.781 300.318 522.273 300.318C523.705 300.318 524.46 301.472 524.46 303.182C524.46 304.912 523.685 306.105 522.273 306.105ZM527.925 307H529.099V302.168C529.099 301.134 529.914 300.378 531.028 300.378C531.341 300.378 531.664 300.438 531.744 300.457V299.264C531.609 299.254 531.301 299.244 531.127 299.244C530.212 299.244 529.417 299.761 529.138 300.517H529.059V299.364H527.925V307ZM536.104 307.159C537.655 307.159 538.788 306.384 539.146 305.23L538.013 304.912C537.714 305.707 537.023 306.105 536.104 306.105C534.727 306.105 533.777 305.215 533.722 303.58H539.266V303.082C539.266 300.239 537.575 299.264 535.984 299.264C533.916 299.264 532.544 300.895 532.544 303.241C532.544 305.588 533.896 307.159 536.104 307.159ZM533.722 302.565C533.802 301.377 534.642 300.318 535.984 300.318C537.257 300.318 538.072 301.273 538.072 302.565H533.722ZM546.46 301.074C546.092 299.99 545.266 299.264 543.755 299.264C542.144 299.264 540.951 300.179 540.951 301.472C540.951 302.526 541.577 303.232 542.979 303.56L544.252 303.858C545.023 304.037 545.386 304.405 545.386 304.932C545.386 305.588 544.69 306.125 543.596 306.125C542.636 306.125 542.035 305.712 541.826 304.892L540.712 305.17C540.986 306.468 542.055 307.159 543.616 307.159C545.391 307.159 546.599 306.19 546.599 304.872C546.599 303.808 545.933 303.137 544.57 302.804L543.437 302.526C542.532 302.302 542.124 301.999 542.124 301.412C542.124 300.756 542.82 300.278 543.755 300.278C544.779 300.278 545.202 300.845 545.406 301.372L546.46 301.074ZM553.774 301.074C553.406 299.99 552.581 299.264 551.069 299.264C549.459 299.264 548.265 300.179 548.265 301.472C548.265 302.526 548.892 303.232 550.294 303.56L551.567 303.858C552.337 304.037 552.7 304.405 552.7 304.932C552.7 305.588 552.004 306.125 550.91 306.125C549.951 306.125 549.349 305.712 549.14 304.892L548.027 305.17C548.3 306.468 549.369 307.159 550.93 307.159C552.705 307.159 553.913 306.19 553.913 304.872C553.913 303.808 553.247 303.137 551.885 302.804L550.751 302.526C549.846 302.302 549.439 301.999 549.439 301.412C549.439 300.756 550.135 300.278 551.069 300.278C552.094 300.278 552.516 300.845 552.72 301.372L553.774 301.074ZM562.918 307.139C565.165 307.139 566.458 305.235 566.458 301.909C566.458 298.608 565.145 296.679 562.918 296.679C560.691 296.679 559.378 298.608 559.378 301.909C559.378 305.235 560.671 307.139 562.918 307.139ZM562.918 306.045C561.436 306.045 560.571 304.559 560.571 301.909C560.571 299.264 561.446 297.753 562.918 297.753C564.39 297.753 565.265 299.264 565.265 301.909C565.265 304.559 564.4 306.045 562.918 306.045Z" fill="white"/>
<path d="M392.651 406L393.675 403.116H397.791L398.815 406H400.108L396.369 395.818H395.097L391.358 406H392.651ZM394.062 402.023L395.693 397.429H395.773L397.403 402.023H394.062ZM404.418 406.159C405.89 406.159 406.387 405.244 406.646 404.827H406.785V406H407.918V395.818H406.745V399.577H406.646C406.387 399.179 405.93 398.264 404.438 398.264C402.509 398.264 401.177 399.795 401.177 402.202C401.177 404.628 402.509 406.159 404.418 406.159ZM404.577 405.105C403.106 405.105 402.35 403.812 402.35 402.182C402.35 400.571 403.086 399.318 404.577 399.318C406.009 399.318 406.765 400.472 406.765 402.182C406.765 403.912 405.989 405.105 404.577 405.105ZM413.114 406.159C414.585 406.159 415.082 405.244 415.341 404.827H415.48V406H416.614V395.818H415.44V399.577H415.341C415.082 399.179 414.625 398.264 413.134 398.264C411.205 398.264 409.872 399.795 409.872 402.202C409.872 404.628 411.205 406.159 413.114 406.159ZM413.273 405.105C411.801 405.105 411.045 403.812 411.045 402.182C411.045 400.571 411.781 399.318 413.273 399.318C414.705 399.318 415.46 400.472 415.46 402.182C415.46 403.912 414.685 405.105 413.273 405.105ZM418.925 406H420.099V401.168C420.099 400.134 420.914 399.378 422.028 399.378C422.341 399.378 422.664 399.438 422.744 399.457V398.264C422.609 398.254 422.301 398.244 422.127 398.244C421.212 398.244 420.417 398.761 420.138 399.517H420.059V398.364H418.925V406ZM427.104 406.159C428.655 406.159 429.788 405.384 430.146 404.23L429.013 403.912C428.714 404.707 428.023 405.105 427.104 405.105C425.727 405.105 424.777 404.215 424.722 402.58H430.266V402.082C430.266 399.239 428.575 398.264 426.984 398.264C424.916 398.264 423.544 399.895 423.544 402.241C423.544 404.588 424.896 406.159 427.104 406.159ZM424.722 401.565C424.802 400.377 425.642 399.318 426.984 399.318C428.257 399.318 429.072 400.273 429.072 401.565H424.722ZM437.46 400.074C437.092 398.99 436.266 398.264 434.755 398.264C433.144 398.264 431.951 399.179 431.951 400.472C431.951 401.526 432.577 402.232 433.979 402.56L435.252 402.858C436.023 403.037 436.386 403.405 436.386 403.932C436.386 404.588 435.69 405.125 434.596 405.125C433.636 405.125 433.035 404.712 432.826 403.892L431.712 404.17C431.986 405.468 433.055 406.159 434.616 406.159C436.391 406.159 437.599 405.19 437.599 403.872C437.599 402.808 436.933 402.137 435.57 401.804L434.437 401.526C433.532 401.302 433.124 400.999 433.124 400.412C433.124 399.756 433.82 399.278 434.755 399.278C435.779 399.278 436.202 399.845 436.406 400.372L437.46 400.074ZM444.774 400.074C444.406 398.99 443.581 398.264 442.069 398.264C440.459 398.264 439.265 399.179 439.265 400.472C439.265 401.526 439.892 402.232 441.294 402.56L442.567 402.858C443.337 403.037 443.7 403.405 443.7 403.932C443.7 404.588 443.004 405.125 441.91 405.125C440.951 405.125 440.349 404.712 440.14 403.892L439.027 404.17C439.3 405.468 440.369 406.159 441.93 406.159C443.705 406.159 444.913 405.19 444.913 403.872C444.913 402.808 444.247 402.137 442.885 401.804L441.751 401.526C440.846 401.302 440.439 400.999 440.439 400.412C440.439 399.756 441.135 399.278 442.069 399.278C443.094 399.278 443.516 399.845 443.72 400.372L444.774 400.074ZM454.176 395.818H452.944L450.398 397.509V398.761L452.884 397.111H452.944V406H454.176V395.818Z" fill="white"/>
<path d="M77.6506 307L78.6747 304.116H82.7912L83.8153 307H85.108L81.3693 296.818H80.0966L76.358 307H77.6506ZM79.0625 303.023L80.6932 298.429H80.7727L82.4034 303.023H79.0625ZM89.4183 307.159C90.8899 307.159 91.3871 306.244 91.6456 305.827H91.7848V307H92.9183V296.818H91.745V300.577H91.6456C91.3871 300.179 90.9297 299.264 89.4382 299.264C87.5092 299.264 86.1768 300.795 86.1768 303.202C86.1768 305.628 87.5092 307.159 89.4183 307.159ZM89.5774 306.105C88.1058 306.105 87.3501 304.812 87.3501 303.182C87.3501 301.571 88.0859 300.318 89.5774 300.318C91.0092 300.318 91.7649 301.472 91.7649 303.182C91.7649 304.912 90.9893 306.105 89.5774 306.105ZM98.1136 307.159C99.5852 307.159 100.082 306.244 100.341 305.827H100.48V307H101.614V296.818H100.44V300.577H100.341C100.082 300.179 99.625 299.264 98.1335 299.264C96.2045 299.264 94.8722 300.795 94.8722 303.202C94.8722 305.628 96.2045 307.159 98.1136 307.159ZM98.2727 306.105C96.8011 306.105 96.0455 304.812 96.0455 303.182C96.0455 301.571 96.7812 300.318 98.2727 300.318C99.7045 300.318 100.46 301.472 100.46 303.182C100.46 304.912 99.6847 306.105 98.2727 306.105ZM103.925 307H105.099V302.168C105.099 301.134 105.914 300.378 107.028 300.378C107.341 300.378 107.664 300.438 107.744 300.457V299.264C107.609 299.254 107.301 299.244 107.127 299.244C106.212 299.244 105.417 299.761 105.138 300.517H105.059V299.364H103.925V307ZM112.104 307.159C113.655 307.159 114.788 306.384 115.146 305.23L114.013 304.912C113.714 305.707 113.023 306.105 112.104 306.105C110.727 306.105 109.777 305.215 109.722 303.58H115.266V303.082C115.266 300.239 113.575 299.264 111.984 299.264C109.916 299.264 108.544 300.895 108.544 303.241C108.544 305.588 109.896 307.159 112.104 307.159ZM109.722 302.565C109.802 301.377 110.642 300.318 111.984 300.318C113.257 300.318 114.072 301.273 114.072 302.565H109.722ZM122.46 301.074C122.092 299.99 121.266 299.264 119.755 299.264C118.144 299.264 116.951 300.179 116.951 301.472C116.951 302.526 117.577 303.232 118.979 303.56L120.252 303.858C121.023 304.037 121.386 304.405 121.386 304.932C121.386 305.588 120.69 306.125 119.596 306.125C118.636 306.125 118.035 305.712 117.826 304.892L116.712 305.17C116.986 306.468 118.055 307.159 119.616 307.159C121.391 307.159 122.599 306.19 122.599 304.872C122.599 303.808 121.933 303.137 120.57 302.804L119.437 302.526C118.532 302.302 118.124 301.999 118.124 301.412C118.124 300.756 118.82 300.278 119.755 300.278C120.779 300.278 121.202 300.845 121.406 301.372L122.46 301.074ZM129.774 301.074C129.406 299.99 128.581 299.264 127.069 299.264C125.459 299.264 124.265 300.179 124.265 301.472C124.265 302.526 124.892 303.232 126.294 303.56L127.567 303.858C128.337 304.037 128.7 304.405 128.7 304.932C128.7 305.588 128.004 306.125 126.91 306.125C125.951 306.125 125.349 305.712 125.14 304.892L124.027 305.17C124.3 306.468 125.369 307.159 126.93 307.159C128.705 307.159 129.913 306.19 129.913 304.872C129.913 303.808 129.247 303.137 127.885 302.804L126.751 302.526C125.846 302.302 125.439 301.999 125.439 301.412C125.439 300.756 126.135 300.278 127.069 300.278C128.094 300.278 128.516 300.845 128.72 301.372L129.774 301.074ZM138.918 307.139C141.165 307.139 142.458 305.235 142.458 301.909C142.458 298.608 141.145 296.679 138.918 296.679C136.691 296.679 135.378 298.608 135.378 301.909C135.378 305.235 136.671 307.139 138.918 307.139ZM138.918 306.045C137.436 306.045 136.571 304.559 136.571 301.909C136.571 299.264 137.446 297.753 138.918 297.753C140.39 297.753 141.265 299.264 141.265 301.909C141.265 304.559 140.4 306.045 138.918 306.045Z" fill="white"/>
<path d="M484 322L481.113 327L486.887 327L484 322ZM484.5 386L484.5 384L483.5 384L483.5 386L484.5 386ZM484.5 380L484.5 376L483.5 376L483.5 380L484.5 380ZM484.5 372L484.5 368L483.5 368L483.5 372L484.5 372ZM484.5 364L484.5 360L483.5 360L483.5 364L484.5 364ZM484.5 356L484.5 352L483.5 352L483.5 356L484.5 356ZM484.5 348L484.5 344L483.5 344L483.5 348L484.5 348ZM484.5 340L484.5 336L483.5 336L483.5 340L484.5 340ZM484.5 332L484.5 328L483.5 328L483.5 332L484.5 332ZM484 322L478.226 332L489.774 332L484 322ZM485 386L485 384L483 384L483 386L485 386ZM485 380L485 376L483 376L483 380L485 380ZM485 372L485 368L483 368L483 372L485 372ZM485 364L485 360L483 360L483 364L485 364ZM485 356L485 352L483 352L483 356L485 356ZM485 348L485 344L483 344L483 348L485 348ZM485 340L485 336L483 336L483 340L485 340ZM485 332L485 328L483 328L483 332L485 332Z" fill="#C98547"/>
<path d="M593 172L590.113 177L595.887 177L593 172ZM593.5 287L593.5 284.946L592.5 284.946L592.5 287L593.5 287ZM593.5 280.839L593.5 276.732L592.5 276.732L592.5 280.839L593.5 280.839ZM593.5 272.625L593.5 268.518L592.5 268.518L592.5 272.625L593.5 272.625ZM593.5 264.411L593.5 260.304L592.5 260.304L592.5 264.411L593.5 264.411ZM593.5 256.196L593.5 252.089L592.5 252.089L592.5 256.196L593.5 256.196ZM593.5 247.982L593.5 243.875L592.5 243.875L592.5 247.982L593.5 247.982ZM593.5 239.768L593.5 235.661L592.5 235.661L592.5 239.768L593.5 239.768ZM593.5 231.554L593.5 227.446L592.5 227.446L592.5 231.554L593.5 231.554ZM593.5 223.339L593.5 219.232L592.5 219.232L592.5 223.339L593.5 223.339ZM593.5 215.125L593.5 211.018L592.5 211.018L592.5 215.125L593.5 215.125ZM593.5 206.911L593.5 202.804L592.5 202.804L592.5 206.911L593.5 206.911ZM593.5 198.696L593.5 194.589L592.5 194.589L592.5 198.696L593.5 198.696ZM593.5 190.482L593.5 186.375L592.5 186.375L592.5 190.482L593.5 190.482ZM593.5 182.268L593.5 178.161L592.5 178.161L592.5 182.268L593.5 182.268ZM593 172L587.226 182L598.773 182L593 172ZM594 287L594 284.946L592 284.946L592 287L594 287ZM594 280.839L594 276.732L592 276.732L592 280.839L594 280.839ZM594 272.625L594 268.518L592 268.518L592 272.625L594 272.625ZM594 264.411L594 260.304L592 260.304L592 264.411L594 264.411ZM594 256.196L594 252.089L592 252.089L592 256.196L594 256.196ZM594 247.982L594 243.875L592 243.875L592 247.982L594 247.982ZM594 239.768L594 235.661L592 235.661L592 239.768L594 239.768ZM594 231.554L594 227.446L592 227.446L592 231.554L594 231.554ZM594 223.339L594 219.232L592 219.232L592 223.339L594 223.339ZM594 215.125L594 211.018L592 211.018L592 215.125L594 215.125ZM594 206.911L594 202.804L592 202.804L592 206.911L594 206.911ZM594 198.696L594 194.589L592 194.589L592 198.696L594 198.696ZM594 190.482L594 186.375L592 186.375L592 190.482L594 190.482ZM594 182.268L594 178.161L592 178.161L592 182.268L594 182.268Z" fill="#476BC9"/>
<path d="M169 172L166.113 177L171.887 177L169 172ZM169.5 287L169.5 284.946L168.5 284.946L168.5 287L169.5 287ZM169.5 280.839L169.5 276.732L168.5 276.732L168.5 280.839L169.5 280.839ZM169.5 272.625L169.5 268.518L168.5 268.518L168.5 272.625L169.5 272.625ZM169.5 264.411L169.5 260.304L168.5 260.304L168.5 264.411L169.5 264.411ZM169.5 256.196L169.5 252.089L168.5 252.089L168.5 256.196L169.5 256.196ZM169.5 247.982L169.5 243.875L168.5 243.875L168.5 247.982L169.5 247.982ZM169.5 239.768L169.5 235.661L168.5 235.661L168.5 239.768L169.5 239.768ZM169.5 231.554L169.5 227.446L168.5 227.446L168.5 231.554L169.5 231.554ZM169.5 223.339L169.5 219.232L168.5 219.232L168.5 223.339L169.5 223.339ZM169.5 215.125L169.5 211.018L168.5 211.018L168.5 215.125L169.5 215.125ZM169.5 206.911L169.5 202.804L168.5 202.804L168.5 206.911L169.5 206.911ZM169.5 198.696L169.5 194.589L168.5 194.589L168.5 198.696L169.5 198.696ZM169.5 190.482L169.5 186.375L168.5 186.375L168.5 190.482L169.5 190.482ZM169.5 182.268L169.5 178.161L168.5 178.161L168.5 182.268L169.5 182.268ZM169 172L163.226 182L174.773 182L169 172ZM170 287L170 284.946L168 284.946L168 287L170 287ZM170 280.839L170 276.732L168 276.732L168 280.839L170 280.839ZM170 272.625L170 268.518L168 268.518L168 272.625L170 272.625ZM170 264.411L170 260.304L168 260.304L168 264.411L170 264.411ZM170 256.196L170 252.089L168 252.089L168 256.196L170 256.196ZM170 247.982L170 243.875L168 243.875L168 247.982L170 247.982ZM170 239.768L170 235.661L168 235.661L168 239.768L170 239.768ZM170 231.554L170 227.446L168 227.446L168 231.554L170 231.554ZM170 223.339L170 219.232L168 219.232L168 223.339L170 223.339ZM170 215.125L170 211.018L168 211.018L168 215.125L170 215.125ZM170 206.911L170 202.804L168 202.804L168 206.911L170 206.911ZM170 198.696L170 194.589L168 194.589L168 198.696L170 198.696ZM170 190.482L170 186.375L168 186.375L168 190.482L170 190.482ZM170 182.268L170 178.161L168 178.161L168 182.268L170 182.268Z" fill="#47AAC9"/>
<path d="M584 322L581.113 327L586.887 327L584 322ZM584.5 386L584.5 384L583.5 384L583.5 386L584.5 386ZM584.5 380L584.5 376L583.5 376L583.5 380L584.5 380ZM584.5 372L584.5 368L583.5 368L583.5 372L584.5 372ZM584.5 364L584.5 360L583.5 360L583.5 364L584.5 364ZM584.5 356L584.5 352L583.5 352L583.5 356L584.5 356ZM584.5 348L584.5 344L583.5 344L583.5 348L584.5 348ZM584.5 340L584.5 336L583.5 336L583.5 340L584.5 340ZM584.5 332L584.5 328L583.5 328L583.5 332L584.5 332ZM584 322L578.226 332L589.774 332L584 322ZM585 386L585 384L583 384L583 386L585 386ZM585 380L585 376L583 376L583 380L585 380ZM585 372L585 368L583 368L583 372L585 372ZM585 364L585 360L583 360L583 364L585 364ZM585 356L585 352L583 352L583 356L585 356ZM585 348L585 344L583 344L583 348L585 348ZM585 340L585 336L583 336L583 340L585 340ZM585 332L585 328L583 328L583 332L585 332Z" fill="#C9478D"/>
<path d="M693 172L690.113 177L695.887 177L693 172ZM693.5 287L693.5 284.946L692.5 284.946L692.5 287L693.5 287ZM693.5 280.839L693.5 276.732L692.5 276.732L692.5 280.839L693.5 280.839ZM693.5 272.625L693.5 268.518L692.5 268.518L692.5 272.625L693.5 272.625ZM693.5 264.411L693.5 260.304L692.5 260.304L692.5 264.411L693.5 264.411ZM693.5 256.196L693.5 252.089L692.5 252.089L692.5 256.196L693.5 256.196ZM693.5 247.982L693.5 243.875L692.5 243.875L692.5 247.982L693.5 247.982ZM693.5 239.768L693.5 235.661L692.5 235.661L692.5 239.768L693.5 239.768ZM693.5 231.554L693.5 227.446L692.5 227.446L692.5 231.554L693.5 231.554ZM693.5 223.339L693.5 219.232L692.5 219.232L692.5 223.339L693.5 223.339ZM693.5 215.125L693.5 211.018L692.5 211.018L692.5 215.125L693.5 215.125ZM693.5 206.911L693.5 202.804L692.5 202.804L692.5 206.911L693.5 206.911ZM693.5 198.696L693.5 194.589L692.5 194.589L692.5 198.696L693.5 198.696ZM693.5 190.482L693.5 186.375L692.5 186.375L692.5 190.482L693.5 190.482ZM693.5 182.268L693.5 178.161L692.5 178.161L692.5 182.268L693.5 182.268ZM693 172L687.226 182L698.773 182L693 172ZM694 287L694 284.946L692 284.946L692 287L694 287ZM694 280.839L694 276.732L692 276.732L692 280.839L694 280.839ZM694 272.625L694 268.518L692 268.518L692 272.625L694 272.625ZM694 264.411L694 260.304L692 260.304L692 264.411L694 264.411ZM694 256.196L694 252.089L692 252.089L692 256.196L694 256.196ZM694 247.982L694 243.875L692 243.875L692 247.982L694 247.982ZM694 239.768L694 235.661L692 235.661L692 239.768L694 239.768ZM694 231.554L694 227.446L692 227.446L692 231.554L694 231.554ZM694 223.339L694 219.232L692 219.232L692 223.339L694 223.339ZM694 215.125L694 211.018L692 211.018L692 215.125L694 215.125ZM694 206.911L694 202.804L692 202.804L692 206.911L694 206.911ZM694 198.696L694 194.589L692 194.589L692 198.696L694 198.696ZM694 190.482L694 186.375L692 186.375L692 190.482L694 190.482ZM694 182.268L694 178.161L692 178.161L692 182.268L694 182.268Z" fill="#9047C9"/>
<path d="M269 172L266.113 177L271.887 177L269 172ZM269.5 287L269.5 284.946L268.5 284.946L268.5 287L269.5 287ZM269.5 280.839L269.5 276.732L268.5 276.732L268.5 280.839L269.5 280.839ZM269.5 272.625L269.5 268.518L268.5 268.518L268.5 272.625L269.5 272.625ZM269.5 264.411L269.5 260.304L268.5 260.304L268.5 264.411L269.5 264.411ZM269.5 256.196L269.5 252.089L268.5 252.089L268.5 256.196L269.5 256.196ZM269.5 247.982L269.5 243.875L268.5 243.875L268.5 247.982L269.5 247.982ZM269.5 239.768L269.5 235.661L268.5 235.661L268.5 239.768L269.5 239.768ZM269.5 231.554L269.5 227.446L268.5 227.446L268.5 231.554L269.5 231.554ZM269.5 223.339L269.5 219.232L268.5 219.232L268.5 223.339L269.5 223.339ZM269.5 215.125L269.5 211.018L268.5 211.018L268.5 215.125L269.5 215.125ZM269.5 206.911L269.5 202.804L268.5 202.804L268.5 206.911L269.5 206.911ZM269.5 198.696L269.5 194.589L268.5 194.589L268.5 198.696L269.5 198.696ZM269.5 190.482L269.5 186.375L268.5 186.375L268.5 190.482L269.5 190.482ZM269.5 182.268L269.5 178.161L268.5 178.161L268.5 182.268L269.5 182.268ZM269 172L263.226 182L274.773 182L269 172ZM270 287L270 284.946L268 284.946L268 287L270 287ZM270 280.839L270 276.732L268 276.732L268 280.839L270 280.839ZM270 272.625L270 268.518L268 268.518L268 272.625L270 272.625ZM270 264.411L270 260.304L268 260.304L268 264.411L270 264.411ZM270 256.196L270 252.089L268 252.089L268 256.196L270 256.196ZM270 247.982L270 243.875L268 243.875L268 247.982L270 247.982ZM270 239.768L270 235.661L268 235.661L268 239.768L270 239.768ZM270 231.554L270 227.446L268 227.446L268 231.554L270 231.554ZM270 223.339L270 219.232L268 219.232L268 223.339L270 223.339ZM270 215.125L270 211.018L268 211.018L268 215.125L270 215.125ZM270 206.911L270 202.804L268 202.804L268 206.911L270 206.911ZM270 198.696L270 194.589L268 194.589L268 198.696L270 198.696ZM270 190.482L270 186.375L268 186.375L268 190.482L270 190.482ZM270 182.268L270 178.161L268 178.161L268 182.268L270 182.268Z" fill="#B7C947"/>
</svg>
