<svg width="25" height="24" viewBox="0 0 25 24" fill="none" xmlns="http://www.w3.org/2000/svg">
<ellipse cx="12.25" cy="21" rx="1" ry="1" fill="#B0BFD9"/>
<path d="M6.87327 19.5C6.28749 20.0858 5.33774 20.0858 4.75195 19.5C4.16617 18.9142 4.16617 17.9645 4.75195 17.3787C5.33774 16.7929 6.28749 16.7929 6.87327 17.3787C7.45906 17.9645 7.45906 18.9142 6.87327 19.5Z" fill="#B0BFD9"/>
<ellipse cx="3.25" cy="11.9999" rx="2" ry="2" transform="rotate(90 3.25 11.9999)" fill="#B0BFD9"/>
<ellipse cx="5.75" cy="5.5" rx="2.5" ry="2.5" transform="rotate(-180 5.75 5.5)" fill="#B0BFD9"/>
<ellipse cx="12.25" cy="3" rx="0.999999" ry="1" transform="rotate(-180 12.25 3)" fill="#B0BFD9"/>
<path d="M17.6267 4.5C18.2125 3.91421 19.1623 3.91421 19.748 4.5C20.3338 5.08579 20.3338 6.03553 19.748 6.62132C19.1623 7.20711 18.2125 7.20711 17.6267 6.62132C17.0409 6.03553 17.0409 5.08579 17.6267 4.5Z" fill="#B0BFD9"/>
<ellipse cx="21.25" cy="12.0001" rx="2" ry="2" transform="rotate(-90 21.25 12.0001)" fill="#B0BFD9"/>
<ellipse cx="18.75" cy="18.5" rx="2.5" ry="2.5" fill="#B0BFD9"/>
</svg>
