<svg width="304" height="167" viewBox="0 0 304 167" fill="none" xmlns="http://www.w3.org/2000/svg">
<g clip-path="url(#clip0_1_2)">
<rect width="304" height="167" fill="#40A1AC"/>
<path d="M0 0H304V167H0V0Z" fill="url(#paint0_radial_1_2)"/>
<g opacity="0.27" filter="url(#filter0_f_1_2)">
<path d="M68.5 63L-8 58V172L111.5 176.5L118 119L68.5 63Z" fill="url(#paint1_radial_1_2)"/>
</g>
<path d="M142.687 -14.4859C135.74 -10.6065 131.273 -5.18807 129 -0.232193C129.704 -8.10757 134.745 -12.6331 142.687 -14.4859C158.63 -23.3896 187.632 -24.1871 233.14 7.31799C241.654 13.2126 249.433 18.284 256.576 22.5179C279.541 31.5728 302.581 31.7667 322.676 28.4512C323.818 27.3337 324.939 26.1206 326.044 24.8114C345.489 1.77054 396.552 1.85956 372.353 12.7677C361.22 17.7863 343.535 25.0095 322.676 28.4512C307.226 43.5707 288.073 41.1846 256.576 22.5179C251.565 20.5417 246.557 18.1436 241.583 15.2678C206.23 -5.17559 164.006 -19.4596 142.687 -14.4859Z" fill="url(#paint2_linear_1_2)"/>
<path d="M95.0361 131.868C107.28 135.208 114.596 142.929 117.733 149.768C116.797 139.293 108.058 133.356 95.0361 131.868C78.0455 127.232 51.5652 131.03 13.5931 157.318C-2.34676 168.353 -15.7079 176.503 -27.1518 181.674C-42.273 185.514 -57.5192 184.871 -71.6348 182.139C-74.3026 180.17 -76.8486 177.73 -79.3114 174.811C-98.7566 151.771 -149.819 151.86 -125.62 162.768C-113.974 168.018 -94.256 177.76 -71.6348 182.139C-60.1151 190.639 -46.3241 190.337 -27.1518 181.674C-16.1578 178.882 -5.22991 173.72 5.14937 165.268C35.5217 140.534 71.9881 129.233 95.0361 131.868Z" fill="url(#paint3_linear_1_2)"/>
<g opacity="0.27" filter="url(#filter1_f_1_2)">
<path d="M233.5 101.5L310 106.5V-7.5L190.5 -12L184 45.5L233.5 101.5Z" fill="url(#paint4_radial_1_2)"/>
</g>
<circle cx="14" cy="151" r="1" fill="#0FC1B7"/>
<circle cx="31.5" cy="102.5" r="0.5" fill="#0FC1B7"/>
<circle cx="8" cy="126" r="1" fill="#0FC1B7"/>
<circle cx="50" cy="89" r="1" fill="#0FC1B7"/>
<circle cx="13" cy="74" r="1" fill="#0FC1B7"/>
<circle cx="15" cy="48" r="1" fill="#0FC1B7"/>
<circle cx="39.5" cy="62.5" r="0.5" fill="#0FC1B7"/>
<circle cx="40.5" cy="114.5" r="0.5" fill="#0FC1B7"/>
<circle cx="65" cy="116" r="1" fill="#0FC1B7"/>
<circle cx="63.5" cy="150.5" r="0.5" fill="#0FC1B7"/>
<circle cx="45" cy="134" r="1" fill="#0FC1B7"/>
<circle cx="39" cy="158" r="1" fill="#0FC1B7"/>
<circle cx="255" cy="9" r="1" fill="#0FC1B7"/>
<circle cx="218.5" cy="24.5" r="0.5" fill="#0FC1B7"/>
<circle cx="224" cy="9" r="1" fill="#0FC1B7"/>
<circle cx="286.5" cy="28.5" r="0.5" fill="#0FC1B7"/>
<circle cx="269.5" cy="51.5" r="0.5" fill="#0FC1B7"/>
<circle cx="229" cy="63" r="1" fill="#0FC1B7"/>
<circle cx="294" cy="70" r="1" fill="#0FC1B7"/>
<g filter="url(#filter2_d_1_2)">
<line x1="13.8798" y1="150.781" x2="44.8798" y2="133.781" stroke="#0FC1B7" stroke-width="0.5"/>
</g>
<g filter="url(#filter3_d_1_2)">
<line x1="8.05283" y1="125.756" x2="45.0528" y2="133.756" stroke="#0FC1B7" stroke-width="0.5"/>
</g>
<g filter="url(#filter4_d_1_2)">
<line x1="7.82702" y1="125.82" x2="31.827" y2="102.82" stroke="url(#paint5_linear_1_2)" stroke-width="0.5" shape-rendering="crispEdges"/>
</g>
<g filter="url(#filter5_d_1_2)">
<line x1="-5" y1="102.75" x2="32" y2="102.75" stroke="url(#paint6_linear_1_2)" stroke-width="0.5" shape-rendering="crispEdges"/>
</g>
<g filter="url(#filter6_d_1_2)">
<line x1="-0.0877809" y1="128.766" x2="7.91222" y2="125.766" stroke="#0FC1B7" stroke-width="0.5"/>
<line x1="-3.07054" y1="155.76" x2="13.9295" y2="150.76" stroke="#0FC1B7" stroke-width="0.5"/>
<line x1="-8.92946" y1="120.76" x2="8.07054" y2="125.76" stroke="#0FC1B7" stroke-width="0.5"/>
<line x1="-0.188144" y1="166.835" x2="13.8119" y2="150.835" stroke="#0FC1B7" stroke-width="0.5"/>
<line x1="-0.0620938" y1="167.758" x2="38.9379" y2="157.758" stroke="#0FC1B7" stroke-width="0.5"/>
<line x1="18.8882" y1="167.776" x2="38.8882" y2="157.776" stroke="#0FC1B7" stroke-width="0.5"/>
</g>
<path fill-rule="evenodd" clip-rule="evenodd" d="M255 10C255.552 10 256 9.55228 256 9C256 8.44772 255.552 8 255 8C254.448 8 254 8.44772 254 9C254 9.55228 254.448 10 255 10ZM16 48C16 48.5523 15.5523 49 15 49C14.4477 49 14 48.5523 14 48C14 47.4477 14.4477 47 15 47C15.5523 47 16 47.4477 16 48ZM13 75C13.5523 75 14 74.5523 14 74C14 73.4477 13.5523 73 13 73C12.4477 73 12 73.4477 12 74C12 74.5523 12.4477 75 13 75ZM51 89C51 89.5523 50.5523 90 50 90C49.4477 90 49 89.5523 49 89C49 88.4477 49.4477 88 50 88C50.5523 88 51 88.4477 51 89ZM31.2774 103L8.27953 125.04C8.19082 125.014 8.09702 125 8 125C7.73258 125 7.48968 125.105 7.31025 125.276L-8.85892 120.52L-9 121L7.04038 125.718C7.02908 125.756 7.02003 125.796 7.01339 125.836L-0.175562 128.532L0 129L7.06342 126.351C7.20562 126.73 7.57131 127 8 127C8.47976 127 8.88062 126.662 8.97762 126.211L44.0224 133.789C44.0092 133.85 44.0016 133.913 44.0002 133.978L14.5191 150.145C14.3678 150.053 14.1901 150 14 150C13.5287 150 13.1336 150.326 13.0278 150.765L-3.14108 155.52L-3 156L13.0404 151.282C13.0444 151.296 13.0487 151.309 13.0532 151.323L-0.376288 166.671L0 167L13.3415 151.753C13.5174 151.907 13.7478 152 14 152C14.5523 152 15 151.552 15 151C15 150.826 14.9554 150.662 14.877 150.519L44.123 134.481C44.293 134.79 44.622 135 45 135C45.5523 135 46 134.552 46 134C46 133.448 45.5523 133 45 133C44.7063 133 44.4421 133.127 44.2592 133.328L8.95243 125.694C8.90552 125.548 8.82582 125.416 8.72199 125.308L32 103L32 102.502L32 102.5C32 102.224 31.7761 102 31.5 102C31.2239 102 31 102.224 31 102.5H-5V103H31.2774ZM39.5 63C39.7761 63 40 62.7761 40 62.5C40 62.2239 39.7761 62 39.5 62C39.2239 62 39 62.2239 39 62.5C39 62.7761 39.2239 63 39.5 63ZM41 114.5C41 114.776 40.7761 115 40.5 115C40.2239 115 40 114.776 40 114.5C40 114.224 40.2239 114 40.5 114C40.7761 114 41 114.224 41 114.5ZM65 117C65.5523 117 66 116.552 66 116C66 115.448 65.5523 115 65 115C64.4477 115 64 115.448 64 116C64 116.552 64.4477 117 65 117ZM64 150.5C64 150.776 63.7761 151 63.5 151C63.2239 151 63 150.776 63 150.5C63 150.224 63.2239 150 63.5 150C63.7761 150 64 150.224 64 150.5ZM40 158C40 158.552 39.5523 159 39 159C38.6085 159 38.2696 158.775 38.1054 158.447L19 168L18.7764 167.553L36.7051 158.588L0 168L-0.124187 167.516L38.0366 157.731C38.1542 157.309 38.541 157 39 157C39.5523 157 40 157.448 40 158ZM219 24.5C219 24.7761 218.776 25 218.5 25C218.224 25 218 24.7761 218 24.5C218 24.2239 218.224 24 218.5 24C218.776 24 219 24.2239 219 24.5ZM224 10C224.552 10 225 9.55228 225 9C225 8.44772 224.552 8 224 8C223.448 8 223 8.44772 223 9C223 9.55228 223.448 10 224 10ZM287 28.5C287 28.7761 286.776 29 286.5 29C286.224 29 286 28.7761 286 28.5C286 28.2239 286.224 28 286.5 28C286.776 28 287 28.2239 287 28.5ZM269.5 52C269.776 52 270 51.7761 270 51.5C270 51.2239 269.776 51 269.5 51C269.224 51 269 51.2239 269 51.5C269 51.7761 269.224 52 269.5 52ZM230 63C230 63.5523 229.552 64 229 64C228.448 64 228 63.5523 228 63C228 62.4477 228.448 62 229 62C229.552 62 230 62.4477 230 63ZM294 71C294.552 71 295 70.5523 295 70C295 69.4477 294.552 69 294 69C293.448 69 293 69.4477 293 70C293 70.5523 293.448 71 294 71Z" fill="url(#paint7_linear_1_2)"/>
<path d="M87.2685 87.5625C87.2154 87.0663 86.992 86.6799 86.598 86.4034C86.2079 86.1269 85.7003 85.9886 85.0753 85.9886C84.6359 85.9886 84.259 86.0549 83.9446 86.1875C83.6302 86.3201 83.3897 86.5 83.223 86.7273C83.0563 86.9545 82.9711 87.214 82.9673 87.5057C82.9673 87.7481 83.0223 87.9583 83.1321 88.1364C83.2457 88.3144 83.3991 88.4659 83.5923 88.5909C83.7855 88.7121 83.9995 88.8144 84.2344 88.8977C84.4692 88.9811 84.706 89.0511 84.9446 89.108L86.0355 89.3807C86.4749 89.483 86.8973 89.6212 87.3026 89.7955C87.7116 89.9697 88.0772 90.1894 88.3991 90.4545C88.7249 90.7197 88.9825 91.0398 89.1719 91.4148C89.3613 91.7898 89.456 92.2292 89.456 92.733C89.456 93.4148 89.2817 94.0152 88.9332 94.5341C88.5848 95.0492 88.081 95.4527 87.4219 95.7443C86.7666 96.0322 85.973 96.1761 85.0412 96.1761C84.1359 96.1761 83.3499 96.036 82.6832 95.7557C82.0204 95.4754 81.5014 95.0663 81.1264 94.5284C80.7552 93.9905 80.5545 93.3352 80.5241 92.5625H82.598C82.6283 92.9678 82.7533 93.3049 82.973 93.5739C83.1927 93.8428 83.4787 94.0436 83.831 94.1761C84.187 94.3087 84.5848 94.375 85.0241 94.375C85.4825 94.375 85.884 94.3068 86.2287 94.1705C86.5772 94.0303 86.8499 93.8371 87.0469 93.5909C87.2438 93.3409 87.3442 93.0492 87.348 92.7159C87.3442 92.4129 87.2552 92.1629 87.081 91.9659C86.9067 91.7652 86.6624 91.5985 86.348 91.4659C86.0374 91.3295 85.6738 91.2083 85.2571 91.1023L83.9332 90.7614C82.9749 90.5152 82.2173 90.142 81.6605 89.642C81.1075 89.1383 80.831 88.4697 80.831 87.6364C80.831 86.9508 81.0166 86.3504 81.3878 85.8352C81.7628 85.3201 82.2723 84.9205 82.9162 84.6364C83.5601 84.3485 84.2893 84.2045 85.1037 84.2045C85.9295 84.2045 86.6529 84.3485 87.2741 84.6364C87.8991 84.9205 88.3897 85.3163 88.7457 85.8239C89.1018 86.3277 89.2855 86.9072 89.2969 87.5625H87.2685ZM95.108 96.1705C94.233 96.1705 93.4773 95.9886 92.8409 95.625C92.2083 95.2576 91.7216 94.7386 91.3807 94.0682C91.0398 93.3939 90.8693 92.6004 90.8693 91.6875C90.8693 90.7898 91.0398 90.0019 91.3807 89.3239C91.7254 88.642 92.2064 88.1117 92.8239 87.733C93.4413 87.3504 94.1667 87.1591 95 87.1591C95.5379 87.1591 96.0455 87.2462 96.5227 87.4205C97.0038 87.5909 97.428 87.8561 97.7955 88.2159C98.1667 88.5758 98.4583 89.0341 98.6705 89.5909C98.8826 90.1439 98.9886 90.803 98.9886 91.5682V92.1989H91.8352V90.8125H97.017C97.0133 90.4186 96.928 90.0682 96.7614 89.7614C96.5947 89.4508 96.3617 89.2064 96.0625 89.0284C95.767 88.8504 95.4223 88.7614 95.0284 88.7614C94.608 88.7614 94.2386 88.8636 93.9205 89.0682C93.6023 89.2689 93.3542 89.5341 93.1761 89.8636C93.0019 90.1894 92.9129 90.5473 92.9091 90.9375V92.1477C92.9091 92.6553 93.0019 93.0909 93.1875 93.4545C93.3731 93.8144 93.6326 94.0909 93.9659 94.2841C94.2992 94.4735 94.6894 94.5682 95.1364 94.5682C95.4356 94.5682 95.7064 94.5265 95.9489 94.4432C96.1913 94.3561 96.4015 94.2292 96.5795 94.0625C96.7576 93.8958 96.892 93.6894 96.983 93.4432L98.9034 93.6591C98.7822 94.1667 98.5511 94.6098 98.2102 94.9886C97.8731 95.3636 97.4413 95.6553 96.9148 95.8636C96.3883 96.0682 95.786 96.1705 95.108 96.1705ZM102.786 90.8864V96H100.729V87.2727H102.695V88.7557H102.797C102.998 88.267 103.318 87.8788 103.757 87.5909C104.2 87.303 104.748 87.1591 105.399 87.1591C106.001 87.1591 106.526 87.2879 106.973 87.5455C107.424 87.803 107.772 88.1761 108.018 88.6648C108.268 89.1534 108.392 89.7462 108.388 90.4432V96H106.331V90.7614C106.331 90.178 106.179 89.7216 105.876 89.392C105.577 89.0625 105.162 88.8977 104.632 88.8977C104.272 88.8977 103.952 88.9773 103.672 89.1364C103.395 89.2917 103.178 89.517 103.018 89.8125C102.863 90.108 102.786 90.4659 102.786 90.8864ZM113.717 96.1534C113.032 96.1534 112.418 95.9773 111.876 95.625C111.335 95.2727 110.907 94.7614 110.592 94.0909C110.278 93.4205 110.121 92.6061 110.121 91.6477C110.121 90.678 110.28 89.8598 110.598 89.1932C110.92 88.5227 111.354 88.017 111.899 87.6761C112.445 87.3314 113.053 87.1591 113.723 87.1591C114.234 87.1591 114.655 87.2462 114.984 87.4205C115.314 87.5909 115.575 87.7973 115.768 88.0398C115.962 88.2784 116.111 88.5038 116.217 88.7159H116.303V84.3636H118.365V96H116.342V94.625H116.217C116.111 94.8371 115.958 95.0625 115.757 95.3011C115.556 95.536 115.291 95.7367 114.962 95.9034C114.632 96.0701 114.217 96.1534 113.717 96.1534ZM114.291 94.4659C114.727 94.4659 115.098 94.3485 115.405 94.1136C115.712 93.875 115.945 93.5436 116.104 93.1193C116.263 92.6951 116.342 92.2008 116.342 91.6364C116.342 91.072 116.263 90.5814 116.104 90.1648C115.948 89.7481 115.717 89.4242 115.411 89.1932C115.107 88.9621 114.734 88.8466 114.291 88.8466C113.833 88.8466 113.45 88.9659 113.143 89.2045C112.837 89.4432 112.606 89.7727 112.45 90.1932C112.295 90.6136 112.217 91.0947 112.217 91.6364C112.217 92.1818 112.295 92.6686 112.45 93.0966C112.609 93.5208 112.842 93.8561 113.149 94.1023C113.46 94.3447 113.84 94.4659 114.291 94.4659ZM126.724 84.3636V96H124.616V84.3636H126.724ZM139.405 90.1818C139.405 91.4356 139.17 92.5095 138.7 93.4034C138.234 94.2936 137.598 94.9754 136.791 95.4489C135.988 95.9223 135.077 96.1591 134.058 96.1591C133.039 96.1591 132.126 95.9223 131.32 95.4489C130.517 94.9716 129.88 94.2879 129.411 93.3977C128.945 92.5038 128.712 91.4318 128.712 90.1818C128.712 88.928 128.945 87.8561 129.411 86.9659C129.88 86.072 130.517 85.3883 131.32 84.9148C132.126 84.4413 133.039 84.2045 134.058 84.2045C135.077 84.2045 135.988 84.4413 136.791 84.9148C137.598 85.3883 138.234 86.072 138.7 86.9659C139.17 87.8561 139.405 88.928 139.405 90.1818ZM137.286 90.1818C137.286 89.2992 137.147 88.5549 136.871 87.9489C136.598 87.339 136.219 86.8788 135.734 86.5682C135.25 86.2538 134.691 86.0966 134.058 86.0966C133.426 86.0966 132.867 86.2538 132.382 86.5682C131.897 86.8788 131.517 87.339 131.24 87.9489C130.967 88.5549 130.831 89.2992 130.831 90.1818C130.831 91.0644 130.967 91.8106 131.24 92.4205C131.517 93.0265 131.897 93.4867 132.382 93.8011C132.867 94.1117 133.426 94.267 134.058 94.267C134.691 94.267 135.25 94.1117 135.734 93.8011C136.219 93.4867 136.598 93.0265 136.871 92.4205C137.147 91.8106 137.286 91.0644 137.286 90.1818ZM140.371 86.1307V84.3636H149.655V86.1307H146.058V96H143.967V86.1307H140.371ZM151.533 96H149.283L153.379 84.3636H155.982L160.084 96H157.834L154.726 86.75H154.635L151.533 96ZM151.607 91.4375H157.743V93.1307H151.607V91.4375ZM165.074 86.1307V84.3636H174.358V86.1307H170.761V96H168.67V86.1307H165.074ZM178.598 96.1705C177.746 96.1705 177.007 95.983 176.382 95.608C175.757 95.233 175.272 94.7083 174.928 94.0341C174.587 93.3598 174.416 92.572 174.416 91.6705C174.416 90.7689 174.587 89.9792 174.928 89.3011C175.272 88.6231 175.757 88.0966 176.382 87.7216C177.007 87.3466 177.746 87.1591 178.598 87.1591C179.45 87.1591 180.189 87.3466 180.814 87.7216C181.439 88.0966 181.922 88.6231 182.263 89.3011C182.607 89.9792 182.78 90.7689 182.78 91.6705C182.78 92.572 182.607 93.3598 182.263 94.0341C181.922 94.7083 181.439 95.233 180.814 95.608C180.189 95.983 179.45 96.1705 178.598 96.1705ZM178.609 94.5227C179.071 94.5227 179.458 94.3958 179.768 94.142C180.079 93.8845 180.31 93.5398 180.462 93.108C180.617 92.6761 180.695 92.1951 180.695 91.6648C180.695 91.1307 180.617 90.6477 180.462 90.2159C180.31 89.7803 180.079 89.4337 179.768 89.1761C179.458 88.9186 179.071 88.7898 178.609 88.7898C178.136 88.7898 177.742 88.9186 177.428 89.1761C177.117 89.4337 176.884 89.7803 176.729 90.2159C176.577 90.6477 176.501 91.1307 176.501 91.6648C176.501 92.1951 176.577 92.6761 176.729 93.108C176.884 93.5398 177.117 93.8845 177.428 94.142C177.742 94.3958 178.136 94.5227 178.609 94.5227ZM186.401 93.2614L186.395 90.7784H186.724L189.861 87.2727H192.264L188.406 91.5682H187.98L186.401 93.2614ZM184.526 96V84.3636H186.582V96H184.526ZM190.003 96L187.162 92.0284L188.548 90.5795L192.463 96H190.003ZM197.139 96.1705C196.264 96.1705 195.509 95.9886 194.872 95.625C194.24 95.2576 193.753 94.7386 193.412 94.0682C193.071 93.3939 192.901 92.6004 192.901 91.6875C192.901 90.7898 193.071 90.0019 193.412 89.3239C193.757 88.642 194.238 88.1117 194.855 87.733C195.473 87.3504 196.198 87.1591 197.031 87.1591C197.569 87.1591 198.077 87.2462 198.554 87.4205C199.035 87.5909 199.459 87.8561 199.827 88.2159C200.198 88.5758 200.49 89.0341 200.702 89.5909C200.914 90.1439 201.02 90.803 201.02 91.5682V92.1989H193.866V90.8125H199.048C199.045 90.4186 198.959 90.0682 198.793 89.7614C198.626 89.4508 198.393 89.2064 198.094 89.0284C197.798 88.8504 197.454 88.7614 197.06 88.7614C196.639 88.7614 196.27 88.8636 195.952 89.0682C195.634 89.2689 195.385 89.5341 195.207 89.8636C195.033 90.1894 194.944 90.5473 194.94 90.9375V92.1477C194.94 92.6553 195.033 93.0909 195.219 93.4545C195.404 93.8144 195.664 94.0909 195.997 94.2841C196.33 94.4735 196.721 94.5682 197.168 94.5682C197.467 94.5682 197.738 94.5265 197.98 94.4432C198.223 94.3561 198.433 94.2292 198.611 94.0625C198.789 93.8958 198.923 93.6894 199.014 93.4432L200.935 93.6591C200.813 94.1667 200.582 94.6098 200.241 94.9886C199.904 95.3636 199.473 95.6553 198.946 95.8636C198.42 96.0682 197.817 96.1705 197.139 96.1705ZM204.817 90.8864V96H202.76V87.2727H204.726V88.7557H204.828C205.029 88.267 205.349 87.8788 205.788 87.5909C206.232 87.303 206.779 87.1591 207.43 87.1591C208.033 87.1591 208.557 87.2879 209.004 87.5455C209.455 87.803 209.804 88.1761 210.05 88.6648C210.3 89.1534 210.423 89.7462 210.419 90.4432V96H208.362V90.7614C208.362 90.178 208.211 89.7216 207.908 89.392C207.608 89.0625 207.194 88.8977 206.663 88.8977C206.304 88.8977 205.983 88.9773 205.703 89.1364C205.427 89.2917 205.209 89.517 205.05 89.8125C204.894 90.108 204.817 90.4659 204.817 90.8864ZM219.408 89.5795L217.533 89.7841C217.48 89.5947 217.387 89.4167 217.254 89.25C217.125 89.0833 216.951 88.9489 216.732 88.8466C216.512 88.7443 216.243 88.6932 215.925 88.6932C215.497 88.6932 215.137 88.786 214.845 88.9716C214.557 89.1572 214.415 89.3977 214.419 89.6932C214.415 89.947 214.508 90.1534 214.697 90.3125C214.891 90.4716 215.209 90.6023 215.652 90.7045L217.141 91.0227C217.966 91.2008 218.58 91.483 218.982 91.8693C219.387 92.2557 219.591 92.7614 219.595 93.3864C219.591 93.9356 219.43 94.4205 219.112 94.8409C218.798 95.2576 218.36 95.5833 217.8 95.8182C217.239 96.053 216.595 96.1705 215.868 96.1705C214.8 96.1705 213.94 95.947 213.288 95.5C212.637 95.0492 212.249 94.4223 212.124 93.6193L214.129 93.4261C214.22 93.8201 214.413 94.1174 214.709 94.3182C215.004 94.5189 215.389 94.6193 215.862 94.6193C216.351 94.6193 216.743 94.5189 217.038 94.3182C217.338 94.1174 217.487 93.8693 217.487 93.5739C217.487 93.3239 217.391 93.1174 217.197 92.9545C217.008 92.7917 216.713 92.6667 216.311 92.5795L214.822 92.267C213.985 92.0928 213.366 91.7992 212.964 91.3864C212.563 90.9697 212.364 90.4432 212.368 89.8068C212.364 89.2689 212.51 88.803 212.805 88.4091C213.105 88.0114 213.519 87.7045 214.05 87.4886C214.584 87.2689 215.199 87.1591 215.896 87.1591C216.919 87.1591 217.724 87.3769 218.311 87.8125C218.902 88.2481 219.268 88.8371 219.408 89.5795ZM95.7486 115L93.2827 106.273H95.3793L96.9134 112.409H96.9929L98.5611 106.273H100.635L102.203 112.375H102.288L103.8 106.273H105.902L103.43 115H101.288L99.652 109.102H99.5327L97.8963 115H95.7486ZM107.338 115V106.273H109.395V115H107.338ZM108.372 105.034C108.046 105.034 107.766 104.926 107.531 104.71C107.296 104.491 107.179 104.227 107.179 103.92C107.179 103.61 107.296 103.347 107.531 103.131C107.766 102.911 108.046 102.801 108.372 102.801C108.702 102.801 108.982 102.911 109.213 103.131C109.448 103.347 109.565 103.61 109.565 103.92C109.565 104.227 109.448 104.491 109.213 104.71C108.982 104.926 108.702 105.034 108.372 105.034ZM115.868 106.273V107.864H110.851V106.273H115.868ZM112.089 104.182H114.146V112.375C114.146 112.652 114.188 112.864 114.271 113.011C114.358 113.155 114.472 113.254 114.612 113.307C114.752 113.36 114.908 113.386 115.078 113.386C115.207 113.386 115.324 113.377 115.43 113.358C115.54 113.339 115.624 113.322 115.68 113.307L116.027 114.915C115.917 114.953 115.76 114.994 115.555 115.04C115.355 115.085 115.108 115.112 114.817 115.119C114.302 115.134 113.838 115.057 113.425 114.886C113.012 114.712 112.684 114.443 112.442 114.08C112.203 113.716 112.086 113.261 112.089 112.716V104.182ZM119.832 109.886V115H117.776V103.364H119.787V107.756H119.889C120.094 107.263 120.41 106.875 120.838 106.591C121.27 106.303 121.819 106.159 122.486 106.159C123.092 106.159 123.62 106.286 124.071 106.54C124.522 106.794 124.87 107.165 125.116 107.653C125.366 108.142 125.491 108.739 125.491 109.443V115H123.435V109.761C123.435 109.174 123.283 108.718 122.98 108.392C122.681 108.062 122.26 107.898 121.719 107.898C121.355 107.898 121.029 107.977 120.741 108.136C120.457 108.292 120.234 108.517 120.071 108.812C119.912 109.108 119.832 109.466 119.832 109.886ZM136.239 103.364H138.33V111.545C138.326 112.295 138.167 112.941 137.852 113.483C137.538 114.021 137.098 114.436 136.534 114.727C135.973 115.015 135.32 115.159 134.574 115.159C133.892 115.159 133.278 115.038 132.733 114.795C132.191 114.549 131.761 114.186 131.443 113.705C131.125 113.223 130.966 112.625 130.966 111.909H133.062C133.066 112.223 133.134 112.494 133.267 112.722C133.403 112.949 133.591 113.123 133.83 113.244C134.068 113.366 134.343 113.426 134.653 113.426C134.991 113.426 135.277 113.356 135.511 113.216C135.746 113.072 135.924 112.86 136.045 112.58C136.17 112.299 136.235 111.955 136.239 111.545V103.364ZM143.037 115.176C142.484 115.176 141.986 115.078 141.543 114.881C141.103 114.68 140.755 114.384 140.497 113.994C140.243 113.604 140.116 113.123 140.116 112.551C140.116 112.059 140.207 111.652 140.389 111.33C140.571 111.008 140.819 110.75 141.134 110.557C141.448 110.364 141.802 110.218 142.196 110.119C142.594 110.017 143.005 109.943 143.429 109.898C143.94 109.845 144.355 109.797 144.673 109.756C144.991 109.71 145.223 109.642 145.366 109.551C145.514 109.456 145.588 109.311 145.588 109.114V109.08C145.588 108.652 145.461 108.32 145.207 108.085C144.954 107.85 144.588 107.733 144.111 107.733C143.607 107.733 143.207 107.843 142.912 108.062C142.62 108.282 142.423 108.542 142.321 108.841L140.401 108.568C140.552 108.038 140.802 107.595 141.151 107.239C141.499 106.879 141.925 106.61 142.429 106.432C142.933 106.25 143.49 106.159 144.099 106.159C144.52 106.159 144.938 106.208 145.355 106.307C145.772 106.405 146.152 106.568 146.497 106.795C146.842 107.019 147.118 107.324 147.327 107.71C147.539 108.097 147.645 108.58 147.645 109.159V115H145.668V113.801H145.599C145.474 114.044 145.298 114.271 145.071 114.483C144.848 114.691 144.565 114.86 144.224 114.989C143.887 115.114 143.491 115.176 143.037 115.176ZM143.571 113.665C143.984 113.665 144.342 113.583 144.645 113.42C144.948 113.254 145.181 113.034 145.344 112.761C145.51 112.489 145.594 112.191 145.594 111.869V110.841C145.529 110.894 145.42 110.943 145.264 110.989C145.113 111.034 144.942 111.074 144.753 111.108C144.563 111.142 144.376 111.172 144.19 111.199C144.005 111.225 143.844 111.248 143.707 111.267C143.401 111.309 143.126 111.377 142.884 111.472C142.641 111.566 142.45 111.699 142.31 111.869C142.17 112.036 142.099 112.252 142.099 112.517C142.099 112.896 142.238 113.182 142.514 113.375C142.791 113.568 143.143 113.665 143.571 113.665ZM157.196 106.273L154.088 115H151.815L148.707 106.273H150.901L152.906 112.756H152.997L155.009 106.273H157.196ZM160.881 115.176C160.328 115.176 159.83 115.078 159.386 114.881C158.947 114.68 158.598 114.384 158.341 113.994C158.087 113.604 157.96 113.123 157.96 112.551C157.96 112.059 158.051 111.652 158.233 111.33C158.415 111.008 158.663 110.75 158.977 110.557C159.292 110.364 159.646 110.218 160.04 110.119C160.438 110.017 160.848 109.943 161.273 109.898C161.784 109.845 162.199 109.797 162.517 109.756C162.835 109.71 163.066 109.642 163.21 109.551C163.358 109.456 163.432 109.311 163.432 109.114V109.08C163.432 108.652 163.305 108.32 163.051 108.085C162.797 107.85 162.432 107.733 161.955 107.733C161.451 107.733 161.051 107.843 160.756 108.062C160.464 108.282 160.267 108.542 160.165 108.841L158.244 108.568C158.396 108.038 158.646 107.595 158.994 107.239C159.343 106.879 159.769 106.61 160.273 106.432C160.777 106.25 161.333 106.159 161.943 106.159C162.364 106.159 162.782 106.208 163.199 106.307C163.616 106.405 163.996 106.568 164.341 106.795C164.686 107.019 164.962 107.324 165.17 107.71C165.383 108.097 165.489 108.58 165.489 109.159V115H163.511V113.801H163.443C163.318 114.044 163.142 114.271 162.915 114.483C162.691 114.691 162.409 114.86 162.068 114.989C161.731 115.114 161.335 115.176 160.881 115.176ZM161.415 113.665C161.828 113.665 162.186 113.583 162.489 113.42C162.792 113.254 163.025 113.034 163.188 112.761C163.354 112.489 163.438 112.191 163.438 111.869V110.841C163.373 110.894 163.263 110.943 163.108 110.989C162.956 111.034 162.786 111.074 162.597 111.108C162.407 111.142 162.22 111.172 162.034 111.199C161.848 111.225 161.688 111.248 161.551 111.267C161.244 111.309 160.97 111.377 160.727 111.472C160.485 111.566 160.294 111.699 160.153 111.869C160.013 112.036 159.943 112.252 159.943 112.517C159.943 112.896 160.081 113.182 160.358 113.375C160.634 113.568 160.987 113.665 161.415 113.665ZM174.455 108.58L172.58 108.784C172.527 108.595 172.434 108.417 172.301 108.25C172.172 108.083 171.998 107.949 171.778 107.847C171.559 107.744 171.29 107.693 170.972 107.693C170.544 107.693 170.184 107.786 169.892 107.972C169.604 108.157 169.462 108.398 169.466 108.693C169.462 108.947 169.555 109.153 169.744 109.312C169.938 109.472 170.256 109.602 170.699 109.705L172.188 110.023C173.013 110.201 173.627 110.483 174.028 110.869C174.434 111.256 174.638 111.761 174.642 112.386C174.638 112.936 174.477 113.42 174.159 113.841C173.845 114.258 173.407 114.583 172.847 114.818C172.286 115.053 171.642 115.17 170.915 115.17C169.847 115.17 168.987 114.947 168.335 114.5C167.684 114.049 167.295 113.422 167.17 112.619L169.176 112.426C169.267 112.82 169.46 113.117 169.756 113.318C170.051 113.519 170.436 113.619 170.909 113.619C171.398 113.619 171.79 113.519 172.085 113.318C172.384 113.117 172.534 112.869 172.534 112.574C172.534 112.324 172.438 112.117 172.244 111.955C172.055 111.792 171.759 111.667 171.358 111.58L169.869 111.267C169.032 111.093 168.413 110.799 168.011 110.386C167.61 109.97 167.411 109.443 167.415 108.807C167.411 108.269 167.557 107.803 167.852 107.409C168.152 107.011 168.566 106.705 169.097 106.489C169.631 106.269 170.246 106.159 170.943 106.159C171.966 106.159 172.771 106.377 173.358 106.812C173.949 107.248 174.314 107.837 174.455 108.58ZM180.145 115.17C179.274 115.17 178.526 114.979 177.901 114.597C177.279 114.214 176.8 113.686 176.463 113.011C176.13 112.333 175.963 111.553 175.963 110.67C175.963 109.784 176.134 109.002 176.474 108.324C176.815 107.642 177.296 107.112 177.918 106.733C178.543 106.35 179.281 106.159 180.134 106.159C180.842 106.159 181.469 106.29 182.014 106.551C182.563 106.809 183.001 107.174 183.327 107.648C183.652 108.117 183.838 108.667 183.884 109.295H181.918C181.838 108.875 181.649 108.525 181.349 108.244C181.054 107.96 180.658 107.818 180.162 107.818C179.741 107.818 179.372 107.932 179.054 108.159C178.736 108.383 178.488 108.705 178.31 109.125C178.135 109.545 178.048 110.049 178.048 110.636C178.048 111.231 178.135 111.742 178.31 112.17C178.484 112.595 178.728 112.922 179.043 113.153C179.361 113.381 179.734 113.494 180.162 113.494C180.465 113.494 180.736 113.437 180.974 113.324C181.217 113.206 181.42 113.038 181.582 112.818C181.745 112.598 181.857 112.331 181.918 112.017H183.884C183.834 112.634 183.652 113.182 183.338 113.659C183.024 114.133 182.596 114.504 182.054 114.773C181.512 115.038 180.876 115.17 180.145 115.17ZM185.572 115V106.273H187.567V107.727H187.658C187.817 107.223 188.089 106.835 188.476 106.562C188.866 106.286 189.311 106.148 189.811 106.148C189.925 106.148 190.052 106.153 190.192 106.165C190.336 106.172 190.455 106.186 190.55 106.205V108.097C190.463 108.066 190.324 108.04 190.135 108.017C189.949 107.991 189.769 107.977 189.595 107.977C189.22 107.977 188.883 108.059 188.584 108.222C188.288 108.381 188.055 108.602 187.885 108.886C187.714 109.17 187.629 109.498 187.629 109.869V115H185.572ZM191.916 115V106.273H193.973V115H191.916ZM192.95 105.034C192.625 105.034 192.344 104.926 192.109 104.71C191.875 104.491 191.757 104.227 191.757 103.92C191.757 103.61 191.875 103.347 192.109 103.131C192.344 102.911 192.625 102.801 192.95 102.801C193.28 102.801 193.56 102.911 193.791 103.131C194.026 103.347 194.143 103.61 194.143 103.92C194.143 104.227 194.026 104.491 193.791 104.71C193.56 104.926 193.28 105.034 192.95 105.034ZM196.088 118.273V106.273H198.111V107.716H198.23C198.336 107.504 198.486 107.278 198.679 107.04C198.872 106.797 199.134 106.591 199.463 106.42C199.793 106.246 200.213 106.159 200.724 106.159C201.399 106.159 202.007 106.331 202.548 106.676C203.094 107.017 203.526 107.523 203.844 108.193C204.166 108.86 204.327 109.678 204.327 110.648C204.327 111.606 204.17 112.42 203.855 113.091C203.541 113.761 203.113 114.273 202.571 114.625C202.029 114.977 201.416 115.153 200.73 115.153C200.23 115.153 199.815 115.07 199.486 114.903C199.156 114.737 198.891 114.536 198.69 114.301C198.493 114.062 198.34 113.837 198.23 113.625H198.145V118.273H196.088ZM198.105 110.636C198.105 111.201 198.185 111.695 198.344 112.119C198.507 112.544 198.74 112.875 199.043 113.114C199.349 113.348 199.721 113.466 200.156 113.466C200.611 113.466 200.991 113.345 201.298 113.102C201.605 112.856 201.836 112.521 201.991 112.097C202.151 111.669 202.23 111.182 202.23 110.636C202.23 110.095 202.152 109.614 201.997 109.193C201.842 108.773 201.611 108.443 201.304 108.205C200.997 107.966 200.615 107.847 200.156 107.847C199.717 107.847 199.344 107.962 199.037 108.193C198.73 108.424 198.497 108.748 198.338 109.165C198.183 109.581 198.105 110.072 198.105 110.636ZM210.446 106.273V107.864H205.429V106.273H210.446ZM206.668 104.182H208.724V112.375C208.724 112.652 208.766 112.864 208.849 113.011C208.937 113.155 209.05 113.254 209.19 113.307C209.33 113.36 209.486 113.386 209.656 113.386C209.785 113.386 209.902 113.377 210.009 113.358C210.118 113.339 210.202 113.322 210.259 113.307L210.605 114.915C210.495 114.953 210.338 114.994 210.134 115.04C209.933 115.085 209.687 115.112 209.395 115.119C208.88 115.134 208.416 115.057 208.003 114.886C207.59 114.712 207.262 114.443 207.02 114.08C206.781 113.716 206.664 113.261 206.668 112.716V104.182Z" fill="white"/>
<path fill-rule="evenodd" clip-rule="evenodd" d="M73.5 64C76.5376 64 79 61.5376 79 58.5C79 55.4624 76.5376 53 73.5 53C70.4624 53 68 55.4624 68 58.5C68 61.5376 70.4624 64 73.5 64ZM73.5 55.7916C73.0513 55.7916 72.6875 56.1554 72.6875 56.6041C72.6875 57.0529 73.0513 57.4166 73.5 57.4166C73.9487 57.4166 74.3125 57.0529 74.3125 56.6041C74.3125 56.1554 73.9487 55.7916 73.5 55.7916ZM74.0417 61.2083V57.9583H72.9583V61.2083H74.0417Z" fill="#0FC1B7"/>
<path d="M90.0119 56.6719C89.9721 56.2997 89.8045 56.0099 89.5091 55.8026C89.2164 55.5952 88.8358 55.4915 88.367 55.4915C88.0375 55.4915 87.7548 55.5412 87.519 55.6406C87.2832 55.7401 87.1028 55.875 86.9778 56.0455C86.8528 56.2159 86.7889 56.4105 86.786 56.6293C86.786 56.8111 86.8272 56.9687 86.9096 57.1023C86.9949 57.2358 87.1099 57.3494 87.2548 57.4432C87.3997 57.5341 87.5602 57.6108 87.7363 57.6733C87.9125 57.7358 88.09 57.7884 88.269 57.831L89.0872 58.0355C89.4167 58.1122 89.7335 58.2159 90.0375 58.3466C90.3443 58.4773 90.6184 58.642 90.8599 58.8409C91.1042 59.0398 91.2974 59.2798 91.4395 59.5611C91.5815 59.8423 91.6525 60.1719 91.6525 60.5497C91.6525 61.0611 91.5218 61.5114 91.2605 61.9006C90.9991 62.2869 90.6213 62.5895 90.127 62.8082C89.6355 63.0241 89.0403 63.1321 88.3414 63.1321C87.6625 63.1321 87.073 63.027 86.573 62.8168C86.0758 62.6065 85.6866 62.2997 85.4054 61.8963C85.127 61.4929 84.9764 61.0014 84.9537 60.4219H86.5091C86.5318 60.7259 86.6255 60.9787 86.7903 61.1804C86.9551 61.3821 87.1696 61.5327 87.4338 61.6321C87.7008 61.7315 87.9991 61.7812 88.3287 61.7812C88.6724 61.7812 88.9735 61.7301 89.2321 61.6278C89.4934 61.5227 89.698 61.3778 89.8457 61.1932C89.9934 61.0057 90.0687 60.7869 90.0716 60.5369C90.0687 60.3097 90.002 60.1222 89.8713 59.9744C89.7406 59.8239 89.5574 59.6989 89.3216 59.5994C89.0886 59.4972 88.8159 59.4062 88.5034 59.3267L87.5105 59.071C86.7917 58.8864 86.2235 58.6065 85.8059 58.2315C85.3912 57.8537 85.1838 57.3523 85.1838 56.7273C85.1838 56.2131 85.323 55.7628 85.6014 55.3764C85.8826 54.9901 86.2647 54.6903 86.7477 54.4773C87.2306 54.2614 87.7775 54.1534 88.3883 54.1534C89.0076 54.1534 89.5502 54.2614 90.0162 54.4773C90.4849 54.6903 90.8528 54.9872 91.1199 55.3679C91.3869 55.7457 91.5247 56.1804 91.5332 56.6719H90.0119ZM92.6784 55.598V54.2727H99.6415V55.598H96.9441V63H95.3759V55.598H92.6784ZM100.984 63V54.2727H106.66V55.598H102.565V57.9673H106.366V59.2926H102.565V61.6747H106.694V63H100.984ZM108.273 63V54.2727H111.546C112.216 54.2727 112.779 54.3977 113.233 54.6477C113.691 54.8977 114.036 55.2415 114.269 55.679C114.504 56.1136 114.622 56.608 114.622 57.1619C114.622 57.7216 114.504 58.2187 114.269 58.6534C114.033 59.0881 113.685 59.4304 113.225 59.6804C112.764 59.9276 112.198 60.0511 111.524 60.0511H109.355V58.7514H111.311C111.703 58.7514 112.024 58.6832 112.274 58.5469C112.524 58.4105 112.709 58.223 112.828 57.9844C112.95 57.7457 113.012 57.4716 113.012 57.1619C113.012 56.8523 112.95 56.5795 112.828 56.3438C112.709 56.108 112.523 55.9247 112.27 55.794C112.02 55.6605 111.698 55.5938 111.303 55.5938H109.854V63H108.273ZM119.567 58.0014V59.2713H115.638V58.0014H119.567ZM121.257 63V54.2727H124.598C125.229 54.2727 125.753 54.3722 126.171 54.571C126.591 54.767 126.905 55.0355 127.112 55.3764C127.323 55.7173 127.428 56.1037 127.428 56.5355C127.428 56.8906 127.36 57.1946 127.223 57.4474C127.087 57.6974 126.904 57.9006 126.673 58.0568C126.443 58.2131 126.186 58.3253 125.902 58.3935V58.4787C126.212 58.4957 126.509 58.5909 126.793 58.7642C127.08 58.9347 127.314 59.1761 127.496 59.4886C127.678 59.8011 127.769 60.179 127.769 60.6222C127.769 61.0739 127.659 61.4801 127.441 61.8409C127.222 62.1989 126.892 62.4815 126.452 62.6889C126.012 62.8963 125.458 63 124.79 63H121.257ZM122.838 61.679H124.539C125.112 61.679 125.526 61.5696 125.779 61.3509C126.034 61.1293 126.162 60.8452 126.162 60.4986C126.162 60.2401 126.098 60.0071 125.97 59.7997C125.843 59.5895 125.661 59.4247 125.425 59.3054C125.189 59.1832 124.908 59.1222 124.581 59.1222H122.838V61.679ZM122.838 57.9844H124.402C124.675 57.9844 124.921 57.9347 125.139 57.8352C125.358 57.733 125.53 57.5895 125.655 57.4048C125.783 57.2173 125.847 56.9957 125.847 56.7401C125.847 56.402 125.727 56.1236 125.489 55.9048C125.253 55.6861 124.902 55.5767 124.436 55.5767H122.838V57.9844ZM128.547 54.2727H130.333L132.468 58.1335H132.553L134.688 54.2727H136.474L133.299 59.7443V63H131.722V59.7443L128.547 54.2727ZM140.93 58.0014V59.2713H137.001V58.0014H140.93ZM147.363 56.6719C147.324 56.2997 147.156 56.0099 146.861 55.8026C146.568 55.5952 146.187 55.4915 145.719 55.4915C145.389 55.4915 145.106 55.5412 144.871 55.6406C144.635 55.7401 144.454 55.875 144.329 56.0455C144.204 56.2159 144.14 56.4105 144.138 56.6293C144.138 56.8111 144.179 56.9687 144.261 57.1023C144.346 57.2358 144.461 57.3494 144.606 57.4432C144.751 57.5341 144.912 57.6108 145.088 57.6733C145.264 57.7358 145.442 57.7884 145.621 57.831L146.439 58.0355C146.768 58.1122 147.085 58.2159 147.389 58.3466C147.696 58.4773 147.97 58.642 148.211 58.8409C148.456 59.0398 148.649 59.2798 148.791 59.5611C148.933 59.8423 149.004 60.1719 149.004 60.5497C149.004 61.0611 148.873 61.5114 148.612 61.9006C148.351 62.2869 147.973 62.5895 147.479 62.8082C146.987 63.0241 146.392 63.1321 145.693 63.1321C145.014 63.1321 144.425 63.027 143.925 62.8168C143.427 62.6065 143.038 62.2997 142.757 61.8963C142.479 61.4929 142.328 61.0014 142.305 60.4219H143.861C143.883 60.7259 143.977 60.9787 144.142 61.1804C144.307 61.3821 144.521 61.5327 144.785 61.6321C145.052 61.7315 145.351 61.7812 145.68 61.7812C146.024 61.7812 146.325 61.7301 146.584 61.6278C146.845 61.5227 147.05 61.3778 147.197 61.1932C147.345 61.0057 147.42 60.7869 147.423 60.5369C147.42 60.3097 147.354 60.1222 147.223 59.9744C147.092 59.8239 146.909 59.6989 146.673 59.5994C146.44 59.4972 146.167 59.4062 145.855 59.3267L144.862 59.071C144.143 58.8864 143.575 58.6065 143.157 58.2315C142.743 57.8537 142.535 57.3523 142.535 56.7273C142.535 56.2131 142.675 55.7628 142.953 55.3764C143.234 54.9901 143.616 54.6903 144.099 54.4773C144.582 54.2614 145.129 54.1534 145.74 54.1534C146.359 54.1534 146.902 54.2614 147.368 54.4773C147.836 54.6903 148.204 54.9872 148.471 55.3679C148.738 55.7457 148.876 56.1804 148.885 56.6719H147.363ZM150.03 55.598V54.2727H156.993V55.598H154.296V63H152.727V55.598H150.03ZM158.335 63V54.2727H164.012V55.598H159.916V57.9673H163.718V59.2926H159.916V61.6747H164.046V63H158.335ZM165.624 63V54.2727H168.897C169.568 54.2727 170.13 54.3977 170.585 54.6477C171.042 54.8977 171.387 55.2415 171.62 55.679C171.856 56.1136 171.974 56.608 171.974 57.1619C171.974 57.7216 171.856 58.2187 171.62 58.6534C171.384 59.0881 171.036 59.4304 170.576 59.6804C170.116 59.9276 169.549 60.0511 168.876 60.0511H166.707V58.7514H168.663C169.055 58.7514 169.376 58.6832 169.626 58.5469C169.876 58.4105 170.061 58.223 170.18 57.9844C170.302 57.7457 170.363 57.4716 170.363 57.1619C170.363 56.8523 170.302 56.5795 170.18 56.3438C170.061 56.108 169.874 55.9247 169.622 55.794C169.372 55.6605 169.049 55.5938 168.654 55.5938H167.205V63H165.624ZM175.94 55.598V54.2727H182.903V55.598H180.206V63H178.638V55.598H175.94ZM189.747 54.2727H191.328V59.9744C191.328 60.5994 191.18 61.1491 190.885 61.6236C190.592 62.098 190.18 62.4687 189.649 62.7358C189.118 63 188.497 63.1321 187.787 63.1321C187.074 63.1321 186.452 63 185.92 62.7358C185.389 62.4687 184.977 62.098 184.684 61.6236C184.392 61.1491 184.246 60.5994 184.246 59.9744V54.2727H185.827V59.8423C185.827 60.206 185.906 60.5298 186.065 60.8139C186.227 61.098 186.454 61.321 186.747 61.483C187.04 61.642 187.386 61.7216 187.787 61.7216C188.187 61.7216 188.534 61.642 188.827 61.483C189.122 61.321 189.349 61.098 189.508 60.8139C189.667 60.5298 189.747 60.206 189.747 59.8423V54.2727ZM192.663 55.598V54.2727H199.626V55.598H196.928V63H195.36V55.598H192.663ZM208.38 58.6364C208.38 59.5767 208.204 60.3821 207.851 61.0526C207.502 61.7202 207.025 62.2315 206.42 62.5866C205.817 62.9418 205.134 63.1193 204.37 63.1193C203.606 63.1193 202.921 62.9418 202.316 62.5866C201.714 62.2287 201.236 61.7159 200.884 61.0483C200.535 60.3778 200.36 59.5739 200.36 58.6364C200.36 57.696 200.535 56.892 200.884 56.2244C201.236 55.554 201.714 55.0412 202.316 54.6861C202.921 54.331 203.606 54.1534 204.37 54.1534C205.134 54.1534 205.817 54.331 206.42 54.6861C207.025 55.0412 207.502 55.554 207.851 56.2244C208.204 56.892 208.38 57.696 208.38 58.6364ZM206.79 58.6364C206.79 57.9744 206.687 57.4162 206.479 56.9616C206.275 56.5043 205.991 56.1591 205.627 55.9261C205.263 55.6903 204.844 55.5724 204.37 55.5724C203.895 55.5724 203.476 55.6903 203.113 55.9261C202.749 56.1591 202.464 56.5043 202.256 56.9616C202.052 57.4162 201.949 57.9744 201.949 58.6364C201.949 59.2983 202.052 59.858 202.256 60.3153C202.464 60.7699 202.749 61.1151 203.113 61.3509C203.476 61.5838 203.895 61.7003 204.37 61.7003C204.844 61.7003 205.263 61.5838 205.627 61.3509C205.991 61.1151 206.275 60.7699 206.479 60.3153C206.687 59.858 206.79 59.2983 206.79 58.6364ZM209.874 63V54.2727H213.147C213.818 54.2727 214.38 54.3892 214.835 54.6222C215.292 54.8551 215.637 55.1818 215.87 55.6023C216.106 56.0199 216.224 56.5071 216.224 57.0639C216.224 57.6236 216.105 58.1094 215.866 58.5213C215.63 58.9304 215.282 59.2472 214.822 59.4716C214.362 59.6932 213.796 59.804 213.126 59.804H210.795V58.4915H212.913C213.305 58.4915 213.626 58.4375 213.876 58.3295C214.126 58.2187 214.311 58.0582 214.43 57.848C214.552 57.6349 214.613 57.3736 214.613 57.0639C214.613 56.7543 214.552 56.4901 214.43 56.2713C214.308 56.0497 214.122 55.8821 213.872 55.7685C213.622 55.652 213.299 55.5938 212.904 55.5938H211.455V63H209.874ZM214.383 59.0455L216.544 63H214.779L212.657 59.0455H214.383ZM219.26 54.2727V63H217.679V54.2727H219.26ZM222.093 63H220.405L223.478 54.2727H225.43L228.506 63H226.819L224.488 56.0625H224.42L222.093 63ZM222.148 59.5781H226.751V60.848H222.148V59.5781ZM229.656 63V54.2727H231.237V61.6747H235.08V63H229.656Z" fill="#0FC1B7"/>
</g>
<defs>
<filter id="filter0_f_1_2" x="-20" y="46" width="150" height="142.5" filterUnits="userSpaceOnUse" color-interpolation-filters="sRGB">
<feFlood flood-opacity="0" result="BackgroundImageFix"/>
<feBlend mode="normal" in="SourceGraphic" in2="BackgroundImageFix" result="shape"/>
<feGaussianBlur stdDeviation="6" result="effect1_foregroundBlur_1_2"/>
</filter>
<filter id="filter1_f_1_2" x="172" y="-24" width="150" height="142.5" filterUnits="userSpaceOnUse" color-interpolation-filters="sRGB">
<feFlood flood-opacity="0" result="BackgroundImageFix"/>
<feBlend mode="normal" in="SourceGraphic" in2="BackgroundImageFix" result="shape"/>
<feGaussianBlur stdDeviation="6" result="effect1_foregroundBlur_1_2"/>
</filter>
<filter id="filter2_d_1_2" x="-0.240417" y="119.562" width="59.2404" height="45.4384" filterUnits="userSpaceOnUse" color-interpolation-filters="sRGB">
<feFlood flood-opacity="0" result="BackgroundImageFix"/>
<feColorMatrix in="SourceAlpha" type="matrix" values="0 0 0 0 0 0 0 0 0 0 0 0 0 0 0 0 0 0 127 0" result="hardAlpha"/>
<feOffset/>
<feGaussianBlur stdDeviation="7"/>
<feComposite in2="hardAlpha" operator="out"/>
<feColorMatrix type="matrix" values="0 0 0 0 0.0588235 0 0 0 0 0.756863 0 0 0 0 0.717647 0 0 0 1 0"/>
<feBlend mode="normal" in2="BackgroundImageFix" result="effect1_dropShadow_1_2"/>
<feBlend mode="normal" in="SourceGraphic" in2="effect1_dropShadow_1_2" result="shape"/>
</filter>
<filter id="filter3_d_1_2" x="-6" y="111.511" width="65.1057" height="36.4887" filterUnits="userSpaceOnUse" color-interpolation-filters="sRGB">
<feFlood flood-opacity="0" result="BackgroundImageFix"/>
<feColorMatrix in="SourceAlpha" type="matrix" values="0 0 0 0 0 0 0 0 0 0 0 0 0 0 0 0 0 0 127 0" result="hardAlpha"/>
<feOffset/>
<feGaussianBlur stdDeviation="7"/>
<feComposite in2="hardAlpha" operator="out"/>
<feColorMatrix type="matrix" values="0 0 0 0 0.0588235 0 0 0 0 0.756863 0 0 0 0 0.717647 0 0 0 1 0"/>
<feBlend mode="normal" in2="BackgroundImageFix" result="effect1_dropShadow_1_2"/>
<feBlend mode="normal" in="SourceGraphic" in2="effect1_dropShadow_1_2" result="shape"/>
</filter>
<filter id="filter4_d_1_2" x="-6.34595" y="88.639" width="52.3459" height="51.361" filterUnits="userSpaceOnUse" color-interpolation-filters="sRGB">
<feFlood flood-opacity="0" result="BackgroundImageFix"/>
<feColorMatrix in="SourceAlpha" type="matrix" values="0 0 0 0 0 0 0 0 0 0 0 0 0 0 0 0 0 0 127 0" result="hardAlpha"/>
<feOffset/>
<feGaussianBlur stdDeviation="7"/>
<feComposite in2="hardAlpha" operator="out"/>
<feColorMatrix type="matrix" values="0 0 0 0 0.0588235 0 0 0 0 0.756863 0 0 0 0 0.717647 0 0 0 1 0"/>
<feBlend mode="normal" in2="BackgroundImageFix" result="effect1_dropShadow_1_2"/>
<feBlend mode="normal" in="SourceGraphic" in2="effect1_dropShadow_1_2" result="shape"/>
</filter>
<filter id="filter5_d_1_2" x="-19" y="88.5" width="65" height="28.5" filterUnits="userSpaceOnUse" color-interpolation-filters="sRGB">
<feFlood flood-opacity="0" result="BackgroundImageFix"/>
<feColorMatrix in="SourceAlpha" type="matrix" values="0 0 0 0 0 0 0 0 0 0 0 0 0 0 0 0 0 0 127 0" result="hardAlpha"/>
<feOffset/>
<feGaussianBlur stdDeviation="7"/>
<feComposite in2="hardAlpha" operator="out"/>
<feColorMatrix type="matrix" values="0 0 0 0 0.0588235 0 0 0 0 0.756863 0 0 0 0 0.717647 0 0 0 1 0"/>
<feBlend mode="normal" in2="BackgroundImageFix" result="effect1_dropShadow_1_2"/>
<feBlend mode="normal" in="SourceGraphic" in2="effect1_dropShadow_1_2" result="shape"/>
</filter>
<filter id="filter6_d_1_2" x="-23" y="106.52" width="76" height="75.4797" filterUnits="userSpaceOnUse" color-interpolation-filters="sRGB">
<feFlood flood-opacity="0" result="BackgroundImageFix"/>
<feColorMatrix in="SourceAlpha" type="matrix" values="0 0 0 0 0 0 0 0 0 0 0 0 0 0 0 0 0 0 127 0" result="hardAlpha"/>
<feOffset/>
<feGaussianBlur stdDeviation="7"/>
<feComposite in2="hardAlpha" operator="out"/>
<feColorMatrix type="matrix" values="0 0 0 0 0.0588235 0 0 0 0 0.756863 0 0 0 0 0.717647 0 0 0 1 0"/>
<feBlend mode="normal" in2="BackgroundImageFix" result="effect1_dropShadow_1_2"/>
<feBlend mode="normal" in="SourceGraphic" in2="effect1_dropShadow_1_2" result="shape"/>
</filter>
<radialGradient id="paint0_radial_1_2" cx="0" cy="0" r="1" gradientUnits="userSpaceOnUse" gradientTransform="translate(152 83.5) rotate(90) scale(83.5 152)">
<stop stop-color="#0A1731"/>
<stop offset="1" stop-color="#111F3B"/>
</radialGradient>
<radialGradient id="paint1_radial_1_2" cx="0" cy="0" r="1" gradientUnits="userSpaceOnUse" gradientTransform="translate(1.5 167.5) rotate(-44.6049) scale(102.533 90.1583)">
<stop stop-color="#0FC1B7"/>
<stop offset="1" stop-color="#111F3B"/>
</radialGradient>
<linearGradient id="paint2_linear_1_2" x1="153.631" y1="-33.423" x2="279.542" y2="-48.9498" gradientUnits="userSpaceOnUse">
<stop stop-color="#0FC1B7" stop-opacity="0"/>
<stop offset="0.582463" stop-color="#0FC1B7"/>
<stop offset="1" stop-color="#0FC1B7" stop-opacity="0"/>
</linearGradient>
<linearGradient id="paint3_linear_1_2" x1="93.1022" y1="116.577" x2="-32.8089" y2="101.05" gradientUnits="userSpaceOnUse">
<stop stop-color="#0FC1B7" stop-opacity="0"/>
<stop offset="0.582463" stop-color="#0FC1B7"/>
<stop offset="1" stop-color="#0FC1B7" stop-opacity="0"/>
</linearGradient>
<radialGradient id="paint4_radial_1_2" cx="0" cy="0" r="1" gradientUnits="userSpaceOnUse" gradientTransform="translate(300.5 -2.99999) rotate(135.395) scale(102.533 90.1583)">
<stop stop-color="#0FC1B7"/>
<stop offset="1" stop-color="#111F3B"/>
</radialGradient>
<linearGradient id="paint5_linear_1_2" x1="11" y1="123" x2="31" y2="105.5" gradientUnits="userSpaceOnUse">
<stop stop-color="#0FC1B7"/>
<stop offset="0.705744" stop-color="#111F3B" stop-opacity="0"/>
</linearGradient>
<linearGradient id="paint6_linear_1_2" x1="13.5" y1="103" x2="28.5" y2="103" gradientUnits="userSpaceOnUse">
<stop stop-color="#0FC1B7"/>
<stop offset="1" stop-color="#111F3B" stop-opacity="0"/>
</linearGradient>
<linearGradient id="paint7_linear_1_2" x1="6.5" y1="146" x2="31.5" y2="133.5" gradientUnits="userSpaceOnUse">
<stop stop-color="#A3DBC0"/>
<stop offset="1" stop-color="#0FC1B7" stop-opacity="0"/>
</linearGradient>
<clipPath id="clip0_1_2">
<rect width="304" height="167" fill="white"/>
</clipPath>
</defs>
</svg>
