<svg width="511" height="373" viewBox="0 0 511 373" fill="none" xmlns="http://www.w3.org/2000/svg">
<g clip-path="url(#clip0_988_6846)">
<path d="M61.3596 443.906C62.4487 327.906 112.817 236.897 244.1 236.897C372.008 236.897 420.593 332.953 420.593 443.655C420.593 477.36 61.0379 478.18 61.3596 443.906Z" fill="url(#paint0_linear_988_6846)"/>
<g filter="url(#filter0_f_988_6846)">
<path d="M76.7854 446.626C77.7809 343.067 123.823 261.817 243.831 261.817C360.754 261.817 405.165 347.572 405.165 446.403C405.166 476.493 76.4911 477.225 76.7854 446.626Z" fill="#B3E9FF"/>
</g>
<path d="M349.73 267.331C323.963 305.124 309.231 332.87 290.938 379.204C288.515 385.341 282.978 389.754 276.424 390.507C250.873 393.44 233.149 393.408 208.304 390.527C201.727 389.764 196.184 385.311 193.787 379.139C176.337 334.183 162.426 306.852 137.133 265.693C169.754 243.376 217.44 232.601 249.567 232.602C280.8 232.602 318.753 245.693 349.73 267.331Z" fill="url(#paint1_linear_988_6846)"/>
<path d="M240.631 272.229C273.418 272.229 299.998 263.573 299.998 252.895C299.998 242.217 273.418 233.561 240.631 233.561C207.845 233.561 181.266 242.217 181.266 252.895C181.266 263.573 207.845 272.229 240.631 272.229Z" fill="#F7F8FF"/>
<path d="M226.623 194.277C226.623 179.719 258.683 178.643 258.683 194.277C258.683 209.91 261.912 219.086 273.07 230.246C284.23 241.404 300.052 242.877 300.052 252.195C300.052 261.513 274.152 270.218 243.252 270.246C205.64 270.303 181.211 260.611 181.211 251.632C181.211 242.626 199.688 238.827 212.263 228.461C224.838 218.095 226.623 208.863 226.623 194.277Z" fill="url(#paint2_linear_988_6846)"/>
<path d="M206.012 167.025C206.012 184.964 225.744 185.654 246.822 185.654C267.9 185.654 280.024 182.435 280.024 167.025C280.024 151.616 264.815 142.886 243.374 142.886C221.931 142.886 206.012 149.086 206.012 167.025Z" fill="url(#paint3_radial_988_6846)"/>
<path d="M301.578 104.758H338.154C353.154 104.758 365.314 116.917 365.314 131.917C365.314 146.918 353.154 159.078 338.154 159.078H301.578V104.758Z" fill="url(#paint4_linear_988_6846)"/>
<path d="M187.868 104.758H151.293C136.293 104.758 124.133 116.917 124.133 131.917C124.133 146.918 136.293 159.078 151.293 159.078H187.868V104.758Z" fill="url(#paint5_linear_988_6846)"/>
<path d="M309.547 111.548H336.978C348.229 111.548 357.348 120.668 357.348 131.917C357.348 143.168 348.229 152.288 336.978 152.288H309.547V111.548Z" fill="url(#paint6_linear_988_6846)"/>
<path d="M177.371 111.548H149.94C138.69 111.548 129.57 120.668 129.57 131.917C129.57 143.168 138.69 152.288 149.94 152.288H177.371V111.548Z" fill="url(#paint7_linear_988_6846)"/>
<path d="M244.247 216.531C298.509 216.531 342.498 174.299 342.498 122.204C342.498 70.1089 298.509 27.8772 244.247 27.8772C189.985 27.8772 145.996 70.1089 145.996 122.204C145.996 174.299 189.985 216.531 244.247 216.531Z" fill="url(#paint8_linear_988_6846)"/>
<g filter="url(#filter1_f_988_6846)">
<path d="M244.247 207.117C296.109 207.117 338.15 167.545 338.15 118.731C338.15 69.9168 296.109 30.3447 244.247 30.3447C192.386 30.3447 150.344 69.9168 150.344 118.731C150.344 167.545 192.386 207.117 244.247 207.117Z" fill="#CDDEEC"/>
</g>
<g filter="url(#filter2_f_988_6846)">
<path d="M255.194 26.6596C295.535 25.6033 317.071 50.6588 327.189 84.0482C337.307 117.437 315.722 136.32 273.221 137.517C230.72 138.715 199.909 126.274 193.877 96.1611C187.844 66.0482 214.851 27.7159 255.194 26.6596Z" fill="url(#paint9_radial_988_6846)"/>
</g>
<path d="M183.753 112.867C184.409 105.996 189.89 100.673 196.743 99.8522C233.729 95.4214 258.162 95.2759 293.485 99.7919C300.151 100.645 305.489 105.784 306.24 112.461C308.194 129.849 308.293 150.444 306.25 168.334C305.494 174.95 300.218 180.044 293.621 180.943C257.271 185.899 232.868 185.831 196.595 180.97C189.813 180.061 184.45 174.727 183.803 167.915C182.153 150.514 182.09 130.279 183.753 112.867Z" fill="white"/>
<g opacity="0.71" filter="url(#filter3_f_988_6846)">
<path fill-rule="evenodd" clip-rule="evenodd" d="M342.158 122.299C342.158 174.489 298.32 216.798 244.244 216.798C190.168 216.798 146.332 174.489 146.332 122.299C146.332 70.1097 190.168 27.8013 244.244 27.8013C298.32 27.8013 342.158 70.1097 342.158 122.299ZM339.245 122.804C339.245 171.552 296.567 201.42 244.1 201.42C191.633 201.42 149.244 171.552 149.244 122.804C149.244 74.0575 191.777 34.5402 244.244 34.5402C296.712 34.5402 339.245 74.0575 339.245 122.804Z" fill="url(#paint10_linear_988_6846)"/>
</g>
<path d="M183.729 112.749C184.392 105.882 189.888 100.581 196.741 99.7781C233.73 95.4439 258.163 95.3017 293.49 99.719C300.153 100.552 305.508 105.668 306.266 112.34C308.186 129.223 308.283 149.159 306.276 166.524C305.513 173.134 300.219 178.207 293.623 179.087C257.273 183.933 232.87 183.867 196.6 179.113C189.815 178.224 184.433 172.91 183.779 166.098C182.16 149.217 182.098 129.642 183.729 112.749Z" fill="url(#paint11_linear_988_6846)"/>
<g opacity="0.28">
<path d="M248.775 127.402C213.684 127.38 188.35 121.523 189.432 115.758C190.514 109.992 216.144 102.241 249.542 101.978C282.942 101.716 300.288 108.931 299.423 115.015C298.375 121.116 283.854 127.312 248.775 127.402Z" fill="url(#paint12_linear_988_6846)"/>
</g>
<path d="M257.261 355.733C257.939 353.202 256.437 350.6 253.906 349.922C251.375 349.244 248.773 350.746 248.095 353.277C247.417 355.808 248.919 358.409 251.45 359.087C253.981 359.765 256.582 358.263 257.261 355.733Z" fill="url(#paint13_radial_988_6846)"/>
<path d="M253.528 355.969C254.337 355.502 254.614 354.467 254.147 353.658C253.68 352.849 252.645 352.572 251.836 353.039C251.027 353.506 250.75 354.541 251.217 355.35C251.684 356.159 252.719 356.436 253.528 355.969Z" fill="white"/>
<path d="M241.066 293.144C241.462 291.665 240.584 290.145 239.105 289.748C237.626 289.352 236.106 290.23 235.71 291.709C235.313 293.188 236.191 294.708 237.67 295.105C239.149 295.501 240.67 294.623 241.066 293.144Z" fill="url(#paint14_radial_988_6846)"/>
<path d="M238.884 293.282C239.356 293.009 239.518 292.405 239.245 291.932C238.973 291.459 238.368 291.297 237.895 291.57C237.422 291.843 237.26 292.448 237.533 292.921C237.806 293.393 238.411 293.555 238.884 293.282Z" fill="white"/>
<path d="M320.48 274.409C320.876 272.93 319.998 271.41 318.519 271.014C317.04 270.617 315.52 271.495 315.124 272.974C314.728 274.453 315.605 275.973 317.084 276.37C318.563 276.766 320.084 275.888 320.48 274.409Z" fill="url(#paint15_radial_988_6846)"/>
<path d="M318.298 274.548C318.771 274.275 318.933 273.67 318.66 273.198C318.387 272.725 317.782 272.563 317.309 272.836C316.836 273.109 316.674 273.713 316.947 274.186C317.22 274.659 317.825 274.821 318.298 274.548Z" fill="white"/>
<path d="M198.98 331.807C199.376 330.328 198.498 328.808 197.019 328.411C195.54 328.015 194.02 328.893 193.624 330.372C193.228 331.851 194.105 333.371 195.584 333.767C197.063 334.164 198.584 333.286 198.98 331.807Z" fill="url(#paint16_radial_988_6846)"/>
<path d="M196.794 331.946C197.267 331.673 197.429 331.069 197.156 330.596C196.883 330.123 196.278 329.961 195.805 330.234C195.332 330.507 195.171 331.112 195.443 331.584C195.716 332.057 196.321 332.219 196.794 331.946Z" fill="white"/>
<path d="M194.679 325.155C195.551 321.899 193.619 318.553 190.363 317.68C187.107 316.808 183.761 318.74 182.888 321.996C182.016 325.252 183.948 328.599 187.204 329.471C190.46 330.343 193.806 328.411 194.679 325.155Z" fill="url(#paint17_radial_988_6846)"/>
<path d="M189.873 325.462C190.914 324.861 191.27 323.53 190.67 322.489C190.069 321.448 188.738 321.092 187.697 321.692C186.656 322.293 186.3 323.624 186.901 324.665C187.501 325.706 188.832 326.062 189.873 325.462Z" fill="white"/>
<path d="M199.251 155.495C197.996 158.054 198.935 161.241 201.53 162.606C204.085 163.858 207.27 162.915 208.636 160.315C209.891 157.756 208.952 154.568 206.356 153.204C203.803 151.951 200.582 152.972 199.251 155.495Z" fill="#354781"/>
<path opacity="0.5" d="M206.705 160.353C206.667 159.295 205.416 158.524 203.772 158.616C202.241 158.64 200.97 159.583 201.009 160.641C201.047 161.7 202.298 162.469 203.942 162.377C205.586 162.285 206.744 161.412 206.705 160.353Z" fill="#385DD6"/>
<path d="M205.005 161.099C204.977 160.807 204.477 160.499 203.823 160.441C203.238 160.496 202.791 160.772 202.707 161.134C202.803 161.538 203.233 161.735 203.888 161.793C204.474 161.738 205.032 161.393 205.005 161.099Z" fill="#9CB0CD"/>
<path opacity="0.43" d="M201.453 158.359C200.714 158.663 199.698 158.521 199.617 157.643C199.622 156.404 200.099 155.18 201.146 154.375C202.948 152.793 205.857 152.998 207.327 154.869C207.994 155.692 208.366 156.544 208.336 157.491C208.416 158.368 207.135 158.545 206.272 158.152C205.591 157.801 204.575 157.659 203.697 157.74C202.932 157.751 202.124 157.943 201.453 158.359Z" fill="#1A2A63"/>
<path d="M275.536 155.495C274.281 158.054 275.22 161.241 277.816 162.606C280.369 163.858 283.554 162.915 284.921 160.315C286.176 157.756 285.237 154.568 282.642 153.204C280.087 151.951 276.866 152.972 275.536 155.495Z" fill="#354781"/>
<path opacity="0.5" d="M282.995 160.353C282.956 159.295 281.705 158.524 280.061 158.616C278.529 158.64 277.259 159.583 277.298 160.641C277.335 161.7 278.587 162.469 280.23 162.377C281.874 162.285 283.032 161.412 282.995 160.353Z" fill="#385DD6"/>
<path d="M281.29 161.099C281.264 160.807 280.763 160.499 280.109 160.441C279.524 160.496 279.077 160.772 278.992 161.134C279.089 161.538 279.52 161.735 280.175 161.793C280.759 161.738 281.317 161.393 281.29 161.099Z" fill="#9CB0CD"/>
<path opacity="0.43" d="M277.738 158.359C276.999 158.663 275.983 158.521 275.902 157.643C275.907 156.404 276.383 155.18 277.431 154.375C279.232 152.793 282.143 152.998 283.613 154.869C284.279 155.692 284.652 156.544 284.621 157.491C284.702 158.368 283.419 158.545 282.558 158.152C281.877 157.801 280.86 157.659 279.983 157.74C279.216 157.751 278.408 157.943 277.738 158.359Z" fill="#1A2A63"/>
<g filter="url(#filter4_f_988_6846)">
<g opacity="0.84" filter="url(#filter5_f_988_6846)">
<path d="M266.724 56.8408C279.277 59.9002 290.856 56.6248 292.586 49.5249C294.317 42.4251 285.544 34.1894 272.99 31.13C260.437 28.0706 248.858 31.346 247.128 38.4458C245.398 45.5456 254.171 53.7814 266.724 56.8408Z" fill="white"/>
</g>
</g>
</g>
<path fill-rule="evenodd" clip-rule="evenodd" d="M433.188 168.208C433.188 167.391 432.453 166.732 431.689 166.268C431.825 166.097 431.97 165.939 432.126 165.8C432.605 165.388 433.188 165.182 433.793 165.018C433.834 165.018 433.876 164.997 433.918 164.977C434.168 164.832 434.251 164.503 434.105 164.256C433.959 164.009 433.626 163.927 433.376 164.071C433.042 164.236 432.751 164.441 432.459 164.668C432.167 164.894 431.917 165.162 431.709 165.471C431.585 165.675 431.47 165.879 431.376 166.089C431.152 165.967 430.934 165.864 430.739 165.778C430.269 165.571 429.735 165.581 429.27 165.801C429.05 165.904 428.798 166.032 428.542 166.182C428.447 165.933 428.325 165.69 428.166 165.471C427.958 165.162 427.708 164.894 427.416 164.668C427.124 164.441 426.812 164.256 426.499 164.071C426.478 164.061 426.457 164.055 426.437 164.05C426.416 164.045 426.395 164.04 426.374 164.03C426.082 163.947 425.811 164.112 425.728 164.4C425.645 164.688 425.811 164.956 426.103 165.038C426.708 165.203 427.291 165.409 427.77 165.82C427.945 165.978 428.108 166.159 428.259 166.355C427.523 166.829 426.833 167.47 426.833 168.208C426.833 169.079 427.303 169.856 428.034 170.362C427.691 170.555 427.384 170.798 427.12 171.083C427.101 171.078 427.081 171.073 427.062 171.069C423.436 170.266 418.122 169.319 414.975 168.825C413.85 168.661 413.183 169.319 413.037 170.04C412.871 170.863 413.267 171.913 414.1 172.88C414.996 173.889 416.247 174.65 417.622 174.98C417.856 175.041 418.099 175.091 418.349 175.131C418.305 175.297 418.285 175.468 418.289 175.638C418.31 177.141 419.852 178.17 421.206 178.17C423.459 178.17 425.284 176.784 426.457 175.577C426.599 175.885 426.779 176.169 426.991 176.424C426.401 177.351 426.082 178.567 426.082 179.94C426.082 182.883 427.583 187 430.021 187C432.459 187 433.959 182.883 433.918 179.94C433.918 178.578 433.605 177.376 433.025 176.455C433.237 176.206 433.418 175.928 433.562 175.626C434.736 176.828 436.546 178.17 438.773 178.17C440.128 178.17 441.67 177.12 441.69 175.638C441.69 175.469 441.668 175.299 441.621 175.133C441.88 175.093 442.133 175.042 442.378 174.98C443.753 174.65 445.004 173.889 445.9 172.88C446.733 171.934 447.129 170.863 446.963 170.04C446.817 169.299 446.15 168.64 445.025 168.826C441.878 169.32 436.585 170.266 432.938 171.069C432.93 171.071 432.922 171.073 432.914 171.075C432.65 170.792 432.343 170.55 432.002 170.359C432.733 169.85 433.2 169.069 433.188 168.208ZM431.724 177.437C431.214 177.671 430.639 177.8 430.021 177.8C429.386 177.8 428.796 177.664 428.276 177.417C427.942 178 427.75 178.767 427.714 179.637L427.791 179.683C428.025 179.821 428.253 179.956 428.5 180.064C428.708 180.185 428.923 180.284 429.146 180.367C429.271 180.413 429.265 180.596 429.133 180.617C428.878 180.658 428.62 180.681 428.354 180.681C428.148 180.691 427.943 180.687 427.74 180.68C427.799 181.369 427.936 182.046 428.121 182.662C428.268 182.748 428.413 182.83 428.562 182.904C428.762 183.015 428.969 183.111 429.184 183.193C429.306 183.239 429.301 183.415 429.173 183.438C428.929 183.481 428.679 183.509 428.437 183.521L428.427 183.522C428.89 184.634 429.497 185.395 430 185.395C430.501 185.395 431.105 184.641 431.567 183.536C431.334 183.512 431.109 183.481 430.89 183.44C430.761 183.416 430.756 183.239 430.879 183.194C431.093 183.115 431.301 183.023 431.5 182.925C431.621 182.865 431.739 182.8 431.858 182.731C432.054 182.098 432.198 181.397 432.26 180.682C432.077 180.687 431.893 180.69 431.709 180.681C431.446 180.681 431.183 180.659 430.929 180.619C430.797 180.598 430.793 180.417 430.919 180.373C431.151 180.292 431.371 180.195 431.584 180.084C431.81 179.966 432.036 179.839 432.267 179.71L432.288 179.698C432.258 178.813 432.063 178.037 431.724 177.437ZM430.393 167.221C430.153 167.131 429.89 167.137 429.653 167.234C429.191 167.422 428.458 167.786 428.458 168.187C428.458 168.774 429.166 169.34 430.021 169.34C430.854 169.34 431.584 168.878 431.584 168.187C431.596 167.744 430.859 167.397 430.393 167.221ZM430.021 171.481C428.666 171.481 427.729 172.448 427.729 173.827C427.729 175.206 428.666 176.174 430.021 176.174C431.375 176.174 432.313 175.206 432.313 173.827C432.313 172.448 431.375 171.481 430.021 171.481ZM441.94 173.251C439.44 173.848 435.71 173.086 433.959 172.674C437.377 171.954 442.191 171.09 445.191 170.616C445.025 171.275 443.983 172.757 441.94 173.251ZM435.481 174.959C436.356 175.7 437.502 176.379 438.773 176.379C439.252 176.379 439.586 176.132 439.752 175.906C439.877 175.741 439.877 175.618 439.877 175.577C439.857 175.556 439.711 175.453 439.315 175.433C438.127 175.412 436.877 175.247 435.481 174.959ZM414.788 170.616C414.934 171.275 415.976 172.757 418.039 173.251C420.518 173.848 424.269 173.086 426.02 172.674C422.602 171.954 417.789 171.09 414.788 170.616ZM420.664 175.432C421.852 175.391 423.102 175.247 424.499 174.959C423.623 175.721 422.477 176.379 421.206 176.379C420.748 176.379 420.393 176.132 420.227 175.906C420.102 175.721 420.102 175.597 420.102 175.577C420.123 175.535 420.268 175.453 420.664 175.432Z" fill="#369FAB"/>
<g filter="url(#filter6_f_988_6846)">
<path fill-rule="evenodd" clip-rule="evenodd" d="M433.188 168.208C433.188 167.391 432.453 166.732 431.689 166.268C431.825 166.097 431.97 165.939 432.126 165.8C432.605 165.388 433.188 165.182 433.793 165.018C433.834 165.018 433.876 164.997 433.918 164.977C434.168 164.832 434.251 164.503 434.105 164.256C433.959 164.009 433.626 163.927 433.376 164.071C433.042 164.236 432.751 164.441 432.459 164.668C432.167 164.894 431.917 165.162 431.709 165.471C431.585 165.675 431.47 165.879 431.376 166.089C431.152 165.967 430.934 165.864 430.739 165.778C430.269 165.571 429.735 165.581 429.27 165.801C429.05 165.904 428.798 166.032 428.542 166.182C428.447 165.933 428.325 165.69 428.166 165.471C427.958 165.162 427.708 164.894 427.416 164.668C427.124 164.441 426.812 164.256 426.499 164.071C426.478 164.061 426.457 164.055 426.437 164.05C426.416 164.045 426.395 164.04 426.374 164.03C426.082 163.947 425.811 164.112 425.728 164.4C425.645 164.688 425.811 164.956 426.103 165.038C426.708 165.203 427.291 165.409 427.77 165.82C427.945 165.978 428.108 166.159 428.259 166.355C427.523 166.829 426.833 167.47 426.833 168.208C426.833 169.079 427.303 169.856 428.034 170.362C427.691 170.555 427.384 170.798 427.12 171.083C427.101 171.078 427.081 171.073 427.062 171.069C423.436 170.266 418.122 169.319 414.975 168.825C413.85 168.661 413.183 169.319 413.037 170.04C412.871 170.863 413.267 171.913 414.1 172.88C414.996 173.889 416.247 174.65 417.622 174.98C417.856 175.041 418.099 175.091 418.349 175.131C418.305 175.297 418.285 175.468 418.289 175.638C418.31 177.141 419.852 178.17 421.206 178.17C423.459 178.17 425.284 176.784 426.457 175.577C426.599 175.885 426.779 176.169 426.991 176.424C426.401 177.351 426.082 178.567 426.082 179.94C426.082 182.883 427.583 187 430.021 187C432.459 187 433.959 182.883 433.918 179.94C433.918 178.578 433.605 177.376 433.025 176.455C433.237 176.206 433.418 175.928 433.562 175.626C434.736 176.828 436.546 178.17 438.773 178.17C440.128 178.17 441.67 177.12 441.69 175.638C441.69 175.469 441.668 175.299 441.621 175.133C441.88 175.093 442.133 175.042 442.378 174.98C443.753 174.65 445.004 173.889 445.9 172.88C446.733 171.934 447.129 170.863 446.963 170.04C446.817 169.299 446.15 168.64 445.025 168.826C441.878 169.32 436.585 170.266 432.938 171.069C432.93 171.071 432.922 171.073 432.914 171.075C432.65 170.792 432.343 170.55 432.002 170.359C432.733 169.85 433.2 169.069 433.188 168.208ZM431.724 177.437C431.214 177.671 430.639 177.8 430.021 177.8C429.386 177.8 428.796 177.664 428.276 177.417C427.942 178 427.75 178.767 427.714 179.637L427.791 179.683C428.025 179.821 428.253 179.956 428.5 180.064C428.708 180.185 428.923 180.284 429.146 180.367C429.271 180.413 429.265 180.596 429.133 180.617C428.878 180.658 428.62 180.681 428.354 180.681C428.148 180.691 427.943 180.687 427.74 180.68C427.799 181.369 427.936 182.046 428.121 182.662C428.268 182.748 428.413 182.83 428.562 182.904C428.762 183.015 428.969 183.111 429.184 183.193C429.306 183.239 429.301 183.415 429.173 183.438C428.929 183.481 428.679 183.509 428.437 183.521L428.427 183.522C428.89 184.634 429.497 185.395 430 185.395C430.501 185.395 431.105 184.641 431.567 183.536C431.334 183.512 431.109 183.481 430.89 183.44C430.761 183.416 430.756 183.239 430.879 183.194C431.093 183.115 431.301 183.023 431.5 182.925C431.621 182.865 431.739 182.8 431.858 182.731C432.054 182.098 432.198 181.397 432.26 180.682C432.077 180.687 431.893 180.69 431.709 180.681C431.446 180.681 431.183 180.659 430.929 180.619C430.797 180.598 430.793 180.417 430.919 180.373C431.151 180.292 431.371 180.195 431.584 180.084C431.81 179.966 432.036 179.839 432.267 179.71L432.288 179.698C432.258 178.813 432.063 178.037 431.724 177.437ZM430.393 167.221C430.153 167.131 429.89 167.137 429.653 167.234C429.191 167.422 428.458 167.786 428.458 168.187C428.458 168.774 429.166 169.34 430.021 169.34C430.854 169.34 431.584 168.878 431.584 168.187C431.596 167.744 430.859 167.397 430.393 167.221ZM430.021 171.481C428.666 171.481 427.729 172.448 427.729 173.827C427.729 175.206 428.666 176.174 430.021 176.174C431.375 176.174 432.313 175.206 432.313 173.827C432.313 172.448 431.375 171.481 430.021 171.481ZM441.94 173.251C439.44 173.848 435.71 173.086 433.959 172.674C437.377 171.954 442.191 171.09 445.191 170.616C445.025 171.275 443.983 172.757 441.94 173.251ZM435.481 174.959C436.356 175.7 437.502 176.379 438.773 176.379C439.252 176.379 439.586 176.132 439.752 175.906C439.877 175.741 439.877 175.618 439.877 175.577C439.857 175.556 439.711 175.453 439.315 175.433C438.127 175.412 436.877 175.247 435.481 174.959ZM414.788 170.616C414.934 171.275 415.976 172.757 418.039 173.251C420.518 173.848 424.269 173.086 426.02 172.674C422.602 171.954 417.789 171.09 414.788 170.616ZM420.664 175.432C421.852 175.391 423.102 175.247 424.499 174.959C423.623 175.721 422.477 176.379 421.206 176.379C420.748 176.379 420.393 176.132 420.227 175.906C420.102 175.721 420.102 175.597 420.102 175.577C420.123 175.535 420.268 175.453 420.664 175.432Z" fill="#369FAB"/>
</g>
<g opacity="0.55">
<path d="M37.2481 180.44C39.6843 178.877 41.2472 176.354 41.7988 173.161C42.1895 170.794 41.8908 168.896 41.8908 168.807C41.8448 168.472 41.615 168.204 41.2932 168.07C40.9714 167.936 40.6037 168.003 40.3509 168.204L25.5724 179.301C25.8253 178.319 25.6414 177.314 25.0438 176.51C24.0785 175.26 22.4467 175.036 21.1596 175.528L20.9757 175.416C20.0334 174.813 19.0451 174.679 18.0568 175.036C16.1492 175.729 14.6553 178.185 14.0117 180.306C13.9657 180.485 14.0577 180.686 14.2415 180.753C14.2875 180.775 14.3335 180.775 14.4024 180.775C14.5403 180.775 14.6782 180.708 14.7472 180.574C15.7585 178.587 17.4363 176.867 18.6544 176.577C18.9991 176.488 19.2979 176.532 19.5507 176.689L19.6197 176.733C18.9762 177.515 18.5854 178.52 18.4475 179.703C18.3096 180.931 18.4935 182.271 18.9072 183.186C19.0681 183.544 19.4128 183.745 19.8036 183.745C19.8955 183.745 20.0104 183.722 20.1024 183.7C20.9987 183.41 22.4467 182.851 23.6418 181.981C23.4809 182.316 23.389 182.673 23.366 183.052C23.2971 183.923 23.5729 184.772 24.1475 185.442C24.722 186.111 25.5495 186.536 26.4458 186.603C26.5378 186.603 26.6527 186.625 26.7446 186.625C26.7676 186.625 26.8136 186.625 26.8365 186.625C26.0091 187.764 25.7103 189.371 26.4918 191.135C28.1926 194.931 26.0551 197.455 24.5382 198.348C24.1934 198.549 24.0096 198.951 24.1245 199.33C24.2394 199.71 24.5841 199.978 24.9979 200C25.1358 200 25.2737 200 25.4116 200C30.8816 200 33.2949 197.388 34.2602 195.802C35.8001 193.257 35.7312 189.974 34.0764 187.25C33.226 185.843 31.5711 184.682 29.7095 184.928C29.9393 184.526 30.0772 184.102 30.1232 183.633C30.1692 183.119 30.1002 182.628 29.8933 182.159C30.33 182.204 30.7667 182.226 31.2264 182.226C33.0881 182.159 35.2255 181.757 37.2481 180.44ZM20.4241 181.534C20.3322 181.043 20.2862 180.462 20.3552 179.859C20.4471 179.078 20.7229 178.028 21.5963 177.426C21.8031 177.269 22.1249 177.18 22.4467 177.18C22.8144 177.18 23.2051 177.314 23.458 177.649C23.9176 178.274 23.7108 179.1 23.2971 179.636C22.7455 180.328 21.7342 181.02 20.4241 181.534ZM26.5837 184.682C26.193 184.66 25.8482 184.481 25.5954 184.191C25.3426 183.901 25.2277 183.544 25.2507 183.164C25.2737 182.784 25.4575 182.45 25.7563 182.204C26.0091 181.981 26.3539 181.869 26.6757 181.869C26.7216 181.869 26.7676 181.869 26.7906 181.869C27.1813 181.891 27.526 182.07 27.7789 182.36C28.0317 182.65 28.1466 183.008 28.1236 183.387C28.1006 183.767 27.9168 184.102 27.618 184.347C27.3422 184.593 26.9744 184.705 26.5837 184.682ZM30.2151 186.625C30.8127 186.625 31.4562 186.871 32.0308 187.496C32.0998 187.563 32.0998 187.652 32.0768 187.719C31.732 188.434 30.9966 189.304 30.2841 189.751C30.1692 189.818 30.1232 189.974 30.1692 190.086C30.2151 190.22 30.376 190.287 30.5139 190.265C31.0885 190.153 31.9159 189.84 32.6054 189.416C32.6744 189.371 32.7203 189.349 32.7893 189.304C32.9042 189.215 33.0881 189.282 33.134 189.416C33.4328 190.242 33.5707 191.091 33.5477 191.917C33.5477 192.006 33.4788 192.096 33.3868 192.118C32.6514 192.364 31.778 192.497 31.0885 192.386C30.9276 192.364 30.7667 192.408 30.7208 192.564C30.6518 192.721 30.7437 192.855 30.8816 192.944C31.3873 193.234 32.1457 193.547 32.9502 193.726C33.0881 193.748 33.18 193.904 33.111 194.016C32.9961 194.306 32.8582 194.574 32.6973 194.842C32.4445 195.266 32.1457 195.646 31.801 195.981C31.732 196.048 31.6171 196.07 31.5252 196.025C31.1574 195.847 30.8127 195.624 30.5599 195.423C30.4679 195.333 30.33 195.333 30.2381 195.423C30.1462 195.49 30.1002 195.646 30.1692 195.758C30.2841 195.981 30.4909 196.271 30.7208 196.584C30.7897 196.695 30.7667 196.829 30.6748 196.896C29.9393 197.343 29.1119 197.678 28.1696 197.901C27.9627 197.946 27.8248 197.745 27.9168 197.566C29.3188 195.356 29.1809 192.564 28.2156 190.399C27.4571 188.702 28.2155 187.384 29.2498 186.893C29.4796 186.714 29.8244 186.625 30.2151 186.625ZM28.0547 179.837L40.0521 170.816C40.0291 173.004 39.4545 176.756 36.1679 178.877C33.2719 180.73 29.9623 180.328 28.0547 179.837Z" fill="#369FAB"/>
<g filter="url(#filter7_f_988_6846)">
<path d="M37.2481 180.44C39.6843 178.877 41.2472 176.354 41.7988 173.161C42.1895 170.794 41.8908 168.896 41.8908 168.807C41.8448 168.472 41.615 168.204 41.2932 168.07C40.9714 167.936 40.6037 168.003 40.3509 168.204L25.5724 179.301C25.8253 178.319 25.6414 177.314 25.0438 176.51C24.0785 175.26 22.4467 175.036 21.1596 175.528L20.9757 175.416C20.0334 174.813 19.0451 174.679 18.0568 175.036C16.1492 175.729 14.6553 178.185 14.0117 180.306C13.9657 180.485 14.0577 180.686 14.2415 180.753C14.2875 180.775 14.3335 180.775 14.4024 180.775C14.5403 180.775 14.6782 180.708 14.7472 180.574C15.7585 178.587 17.4363 176.867 18.6544 176.577C18.9991 176.488 19.2979 176.532 19.5507 176.689L19.6197 176.733C18.9762 177.515 18.5854 178.52 18.4475 179.703C18.3096 180.931 18.4935 182.271 18.9072 183.186C19.0681 183.544 19.4128 183.745 19.8036 183.745C19.8955 183.745 20.0104 183.722 20.1024 183.7C20.9987 183.41 22.4467 182.851 23.6418 181.981C23.4809 182.316 23.389 182.673 23.366 183.052C23.2971 183.923 23.5729 184.772 24.1475 185.442C24.722 186.111 25.5495 186.536 26.4458 186.603C26.5378 186.603 26.6527 186.625 26.7446 186.625C26.7676 186.625 26.8136 186.625 26.8365 186.625C26.0091 187.764 25.7103 189.371 26.4918 191.135C28.1926 194.931 26.0551 197.455 24.5382 198.348C24.1934 198.549 24.0096 198.951 24.1245 199.33C24.2394 199.71 24.5841 199.978 24.9979 200C25.1358 200 25.2737 200 25.4116 200C30.8816 200 33.2949 197.388 34.2602 195.802C35.8001 193.257 35.7312 189.974 34.0764 187.25C33.226 185.843 31.5711 184.682 29.7095 184.928C29.9393 184.526 30.0772 184.102 30.1232 183.633C30.1692 183.119 30.1002 182.628 29.8933 182.159C30.33 182.204 30.7667 182.226 31.2264 182.226C33.0881 182.159 35.2255 181.757 37.2481 180.44ZM20.4241 181.534C20.3322 181.043 20.2862 180.462 20.3552 179.859C20.4471 179.078 20.7229 178.028 21.5963 177.426C21.8031 177.269 22.1249 177.18 22.4467 177.18C22.8144 177.18 23.2051 177.314 23.458 177.649C23.9176 178.274 23.7108 179.1 23.2971 179.636C22.7455 180.328 21.7342 181.02 20.4241 181.534ZM26.5837 184.682C26.193 184.66 25.8482 184.481 25.5954 184.191C25.3426 183.901 25.2277 183.544 25.2507 183.164C25.2737 182.784 25.4575 182.45 25.7563 182.204C26.0091 181.981 26.3539 181.869 26.6757 181.869C26.7216 181.869 26.7676 181.869 26.7906 181.869C27.1813 181.891 27.526 182.07 27.7789 182.36C28.0317 182.65 28.1466 183.008 28.1236 183.387C28.1006 183.767 27.9168 184.102 27.618 184.347C27.3422 184.593 26.9744 184.705 26.5837 184.682ZM30.2151 186.625C30.8127 186.625 31.4562 186.871 32.0308 187.496C32.0998 187.563 32.0998 187.652 32.0768 187.719C31.732 188.434 30.9966 189.304 30.2841 189.751C30.1692 189.818 30.1232 189.974 30.1692 190.086C30.2151 190.22 30.376 190.287 30.5139 190.265C31.0885 190.153 31.9159 189.84 32.6054 189.416C32.6744 189.371 32.7203 189.349 32.7893 189.304C32.9042 189.215 33.0881 189.282 33.134 189.416C33.4328 190.242 33.5707 191.091 33.5477 191.917C33.5477 192.006 33.4788 192.096 33.3868 192.118C32.6514 192.364 31.778 192.497 31.0885 192.386C30.9276 192.364 30.7667 192.408 30.7208 192.564C30.6518 192.721 30.7437 192.855 30.8816 192.944C31.3873 193.234 32.1457 193.547 32.9502 193.726C33.0881 193.748 33.18 193.904 33.111 194.016C32.9961 194.306 32.8582 194.574 32.6973 194.842C32.4445 195.266 32.1457 195.646 31.801 195.981C31.732 196.048 31.6171 196.07 31.5252 196.025C31.1574 195.847 30.8127 195.624 30.5599 195.423C30.4679 195.333 30.33 195.333 30.2381 195.423C30.1462 195.49 30.1002 195.646 30.1692 195.758C30.2841 195.981 30.4909 196.271 30.7208 196.584C30.7897 196.695 30.7667 196.829 30.6748 196.896C29.9393 197.343 29.1119 197.678 28.1696 197.901C27.9627 197.946 27.8248 197.745 27.9168 197.566C29.3188 195.356 29.1809 192.564 28.2156 190.399C27.4571 188.702 28.2155 187.384 29.2498 186.893C29.4796 186.714 29.8244 186.625 30.2151 186.625ZM28.0547 179.837L40.0521 170.816C40.0291 173.004 39.4545 176.756 36.1679 178.877C33.2719 180.73 29.9623 180.328 28.0547 179.837Z" fill="#369FAB"/>
</g>
</g>
<g filter="url(#filter8_f_988_6846)">
<path fill-rule="evenodd" clip-rule="evenodd" d="M381.315 287.706C381.351 287.256 381.115 286.826 380.709 286.6L378.551 285.397C377.602 284.868 376.43 284.868 375.481 285.397L373.5 286.501C373.094 286.727 372.858 287.157 372.894 287.607L373.032 289.345C373.066 289.778 372.849 290.194 372.467 290.427L370.909 291.376C370.3 291.747 369.491 291.534 369.163 290.917L368.931 290.48C368.613 289.879 367.834 289.659 367.227 289.997L365.524 290.946C364.424 291.559 363.834 292.762 364.041 293.967L365.802 304.206C366.087 305.863 367.097 307.324 368.577 308.22L376.025 312.729C376.629 313.094 377.399 313.09 377.999 312.718L385.298 308.193C386.719 307.312 387.697 305.905 387.999 304.306L389.951 293.996C390.181 292.777 389.591 291.55 388.476 290.929L386.947 290.077C386.34 289.738 385.562 289.959 385.243 290.559L385.053 290.917C384.726 291.534 383.917 291.747 383.308 291.376L381.75 290.427C381.368 290.194 381.15 289.778 381.185 289.345L381.315 287.706ZM378.357 300.842C379.371 300.369 380.071 299.37 380.071 298.215C380.071 296.603 378.71 295.296 377.032 295.296C375.354 295.296 373.994 296.603 373.994 298.215C373.994 299.31 374.623 300.265 375.552 300.764V304.126C375.552 304.87 376.18 305.473 376.955 305.473C377.729 305.473 378.357 304.87 378.357 304.126V300.842Z" fill="#369FAB"/>
<path d="M385.685 290.794L385.319 290.6L385.685 290.794C385.867 290.45 386.332 290.306 386.704 290.513L388.233 291.365C389.168 291.886 389.648 292.904 389.459 293.903L387.508 304.213C387.232 305.67 386.34 306.958 385.034 307.768L377.736 312.293C377.296 312.566 376.728 312.569 376.284 312.301L368.836 307.792C367.476 306.969 366.554 305.631 366.295 304.121L364.534 293.882C364.364 292.894 364.846 291.897 365.767 291.383L367.471 290.434C367.842 290.227 368.307 290.37 368.49 290.714L368.722 291.151C369.189 292.032 370.323 292.318 371.169 291.803L372.727 290.854C373.264 290.526 373.58 289.933 373.53 289.305L373.392 287.567C373.373 287.32 373.501 287.072 373.743 286.938L375.724 285.834C376.522 285.389 377.51 285.389 378.308 285.834L380.466 287.036C380.708 287.171 380.836 287.419 380.817 287.666L380.686 289.305C380.637 289.933 380.952 290.526 381.49 290.854L383.048 291.803C383.893 292.318 385.028 292.032 385.495 291.151L385.685 290.794ZM378.857 301.144C379.877 300.55 380.571 299.465 380.571 298.215C380.571 296.308 378.967 294.796 377.032 294.796C375.097 294.796 373.494 296.308 373.494 298.215C373.494 299.4 374.118 300.437 375.052 301.048V304.126C375.052 305.165 375.923 305.973 376.955 305.973C377.986 305.973 378.857 305.165 378.857 304.126V301.144Z" stroke="#47ECFF"/>
</g>
<path d="M385.685 290.794L385.319 290.6L385.685 290.794C385.867 290.45 386.332 290.306 386.704 290.513L388.233 291.365C389.168 291.886 389.648 292.904 389.459 293.903L387.508 304.213C387.232 305.67 386.34 306.958 385.034 307.768L377.736 312.293C377.296 312.566 376.728 312.569 376.284 312.301L368.836 307.792C367.476 306.969 366.554 305.631 366.295 304.121L364.534 293.882C364.364 292.894 364.846 291.897 365.767 291.383L367.471 290.434C367.842 290.227 368.307 290.37 368.49 290.714L368.722 291.151C369.189 292.032 370.323 292.318 371.169 291.803L372.727 290.854C373.264 290.526 373.58 289.933 373.53 289.305L373.392 287.567C373.373 287.32 373.501 287.072 373.743 286.938L375.724 285.834C376.522 285.389 377.51 285.389 378.308 285.834L380.466 287.036C380.708 287.171 380.836 287.419 380.817 287.666L380.686 289.305C380.637 289.933 380.952 290.526 381.49 290.854L383.048 291.803C383.893 292.318 385.028 292.032 385.495 291.151L385.685 290.794ZM378.857 301.144C379.877 300.55 380.571 299.465 380.571 298.215C380.571 296.308 378.967 294.796 377.032 294.796C375.097 294.796 373.494 296.308 373.494 298.215C373.494 299.4 374.118 300.437 375.052 301.048V304.126C375.052 305.165 375.923 305.973 376.955 305.973C377.986 305.973 378.857 305.165 378.857 304.126V301.144Z" fill="#369FAB" stroke="#47ECFF"/>
<g filter="url(#filter9_f_988_6846)">
<path fill-rule="evenodd" clip-rule="evenodd" d="M462.656 227.954C462.656 227.237 463.236 226.656 463.952 226.656H478.527C481.788 226.656 484.823 227.643 487.345 229.335C487.94 229.734 488.099 230.54 487.701 231.136C487.303 231.732 486.498 231.891 485.904 231.493C483.794 230.078 481.259 229.253 478.527 229.253H463.952C463.236 229.253 462.656 228.671 462.656 227.954ZM489.273 232.607C489.839 232.169 490.652 232.273 491.09 232.84C493.164 235.528 494.398 238.901 494.398 242.559C494.398 248.875 490.723 254.329 485.405 256.895C484.761 257.206 483.986 256.935 483.676 256.289C483.365 255.643 483.636 254.867 484.281 254.556C488.736 252.406 491.807 247.841 491.807 242.559C491.807 239.496 490.775 236.677 489.04 234.428C488.602 233.861 488.707 233.046 489.273 232.607ZM462.656 257.164C462.656 256.447 463.236 255.866 463.952 255.866H480.471C481.186 255.866 481.766 256.447 481.766 257.164C481.766 257.881 481.186 258.462 480.471 258.462H463.952C463.236 258.462 462.656 257.881 462.656 257.164Z" fill="#369FAB"/>
<path fill-rule="evenodd" clip-rule="evenodd" d="M465.246 233.796C465.246 233.079 465.826 232.498 466.542 232.498H478.526C481.927 232.498 484.933 234.194 486.748 236.782C487.159 237.369 487.017 238.179 486.432 238.591C485.846 239.003 485.038 238.861 484.627 238.274C483.277 236.349 481.048 235.094 478.526 235.094H466.542C465.826 235.094 465.246 234.513 465.246 233.796ZM487.271 241.261C487.987 241.261 488.567 241.842 488.567 242.559C488.567 248.116 484.071 252.62 478.526 252.62H466.542C465.826 252.62 465.246 252.039 465.246 251.322C465.246 250.605 465.826 250.024 466.542 250.024H478.526C482.64 250.024 485.975 246.682 485.975 242.559C485.975 241.842 486.555 241.261 487.271 241.261Z" fill="#369FAB"/>
<path fill-rule="evenodd" clip-rule="evenodd" d="M467.191 239.314C467.191 238.597 467.771 238.015 468.487 238.015H477.88C480.384 238.015 482.415 240.05 482.415 242.559C482.415 245.069 480.384 247.103 477.88 247.103C477.164 247.103 476.584 246.522 476.584 245.805C476.584 245.088 477.164 244.506 477.88 244.506C478.953 244.506 479.823 243.635 479.823 242.559C479.823 241.484 478.953 240.612 477.88 240.612H468.487C467.771 240.612 467.191 240.031 467.191 239.314ZM467.191 245.805C467.191 245.088 467.771 244.506 468.487 244.506H473.022C473.737 244.506 474.317 245.088 474.317 245.805C474.317 246.522 473.737 247.103 473.022 247.103H468.487C467.771 247.103 467.191 246.522 467.191 245.805Z" fill="#369FAB"/>
</g>
<path fill-rule="evenodd" clip-rule="evenodd" d="M462.656 227.954C462.656 227.237 463.236 226.656 463.952 226.656H478.527C481.788 226.656 484.823 227.643 487.345 229.335C487.94 229.734 488.099 230.54 487.701 231.136C487.303 231.732 486.498 231.891 485.904 231.493C483.794 230.078 481.259 229.253 478.527 229.253H463.952C463.236 229.253 462.656 228.671 462.656 227.954ZM489.273 232.607C489.839 232.169 490.652 232.273 491.09 232.84C493.164 235.528 494.398 238.901 494.398 242.559C494.398 248.875 490.723 254.329 485.405 256.895C484.761 257.206 483.986 256.935 483.676 256.289C483.365 255.643 483.636 254.867 484.281 254.556C488.736 252.406 491.807 247.841 491.807 242.559C491.807 239.496 490.775 236.677 489.04 234.428C488.602 233.861 488.707 233.046 489.273 232.607ZM462.656 257.164C462.656 256.447 463.236 255.866 463.952 255.866H480.471C481.186 255.866 481.766 256.447 481.766 257.164C481.766 257.881 481.186 258.462 480.471 258.462H463.952C463.236 258.462 462.656 257.881 462.656 257.164Z" fill="#369FAB"/>
<path fill-rule="evenodd" clip-rule="evenodd" d="M465.246 233.796C465.246 233.079 465.826 232.498 466.542 232.498H478.526C481.927 232.498 484.933 234.194 486.748 236.782C487.159 237.369 487.017 238.179 486.432 238.591C485.846 239.003 485.038 238.861 484.627 238.274C483.277 236.349 481.048 235.094 478.526 235.094H466.542C465.826 235.094 465.246 234.513 465.246 233.796ZM487.271 241.261C487.987 241.261 488.567 241.842 488.567 242.559C488.567 248.116 484.071 252.62 478.526 252.62H466.542C465.826 252.62 465.246 252.039 465.246 251.322C465.246 250.605 465.826 250.024 466.542 250.024H478.526C482.64 250.024 485.975 246.682 485.975 242.559C485.975 241.842 486.555 241.261 487.271 241.261Z" fill="#369FAB"/>
<path fill-rule="evenodd" clip-rule="evenodd" d="M467.191 239.314C467.191 238.597 467.771 238.015 468.487 238.015H477.88C480.384 238.015 482.415 240.05 482.415 242.559C482.415 245.069 480.384 247.103 477.88 247.103C477.164 247.103 476.584 246.522 476.584 245.805C476.584 245.088 477.164 244.506 477.88 244.506C478.953 244.506 479.823 243.635 479.823 242.559C479.823 241.484 478.953 240.612 477.88 240.612H468.487C467.771 240.612 467.191 240.031 467.191 239.314ZM467.191 245.805C467.191 245.088 467.771 244.506 468.487 244.506H473.022C473.737 244.506 474.317 245.088 474.317 245.805C474.317 246.522 473.737 247.103 473.022 247.103H468.487C467.771 247.103 467.191 246.522 467.191 245.805Z" fill="#369FAB"/>
<g filter="url(#filter10_f_988_6846)">
<path fill-rule="evenodd" clip-rule="evenodd" d="M69.9817 245.773C69.2702 245.773 68.614 245.975 68.0613 246.33C67.8186 245.846 67.543 245.371 67.2335 244.907C66.2618 243.45 65.2359 242.54 64.0826 241.707C61.6113 240.041 58.2355 238.986 56.3391 239C54.4428 239.014 54.2074 242.419 56.5039 242.332C61.0446 242.16 64.7693 243.011 67.5231 246.754C66.8063 247.441 66.3645 248.434 66.3645 249.559C66.3645 251.437 67.5948 252.947 69.2806 253.278C68.5253 253.612 67.8405 254.105 67.0855 254.671C67.0502 254.705 66.9247 254.808 66.7242 254.972C64.805 256.547 56.0194 263.758 53.7652 269.259C51.3808 274.966 55.2803 280.043 55.8292 280.758C55.8535 280.79 55.8712 280.813 55.8815 280.827C56.5566 281.731 58.178 281.631 58.6203 280.593L67.2974 261.834C67.6531 262.18 68.0644 262.481 68.5194 262.726C69.1508 263.271 69.5352 264.031 69.5352 264.646C69.5352 265.324 69.2962 265.498 68.2267 266.274L68.0603 266.395C67.996 266.441 67.9604 266.486 67.9504 266.527C66.5136 267.55 65.499 269.206 65.2761 271.185C65.2727 271.215 65.27 271.246 65.2679 271.276C65.0031 275.112 64.9748 280.938 66.2675 285.235C66.2735 285.255 66.2799 285.275 66.2866 285.295C66.8139 286.872 67.4411 288.207 68.1929 289.185C68.9361 290.152 69.9922 291 71.3452 291C72.6982 291 73.7543 290.152 74.4974 289.185C75.2447 288.213 75.8688 286.888 76.3942 285.323C77.9835 280.975 77.9488 275.127 77.5518 271.249C77.3981 268.86 75.9993 267.02 74.1741 266.089C73.2929 265.464 73.1737 265.267 73.1737 264.646C73.1737 263.943 74.0748 263.065 74.8994 262.487C74.9508 262.451 74.9666 262.417 74.9512 262.386C75.1873 262.221 75.4077 262.039 75.6103 261.843L84.283 280.593C84.7252 281.631 86.3466 281.731 87.0217 280.827C87.032 280.813 87.0495 280.79 87.0734 280.759L87.074 280.758C87.6229 280.043 91.5224 274.966 89.138 269.259C86.8022 263.559 77.5853 256.074 76.0141 254.798C75.9488 254.745 75.8966 254.702 75.8588 254.671C75.3063 254.219 74.512 253.666 73.5907 253.284C75.2925 252.966 76.538 251.449 76.538 249.559C76.538 248.425 76.089 247.424 75.3617 246.737C78.1143 243.008 81.8346 242.16 86.3686 242.332C88.665 242.419 88.4297 239.014 86.5333 239C84.637 238.986 81.2612 240.041 78.7898 241.707C77.6366 242.54 76.6107 243.45 75.6389 244.907C75.3325 245.366 75.0593 245.836 74.8184 246.315C74.2705 245.97 73.6225 245.773 72.9208 245.773L69.9817 245.773ZM73.4948 257.27L73.338 256.931C72.9773 256.328 72.249 255.892 71.4588 255.892C70.3384 255.892 69.3425 256.768 69.3425 257.754V258.521C69.3425 259.507 70.3384 260.383 71.4588 260.383C72.5792 260.383 73.5751 259.507 73.5751 258.521V257.754C73.5751 257.588 73.547 257.426 73.4948 257.27ZM56.8774 270.428C57.8733 267.974 60.4876 265.053 63.1019 262.482L56.8774 276.036C56.3795 274.517 56.006 272.414 56.8774 270.428ZM79.8014 262.482C82.4156 265.053 85.0299 267.974 86.0258 270.428C86.8972 272.414 86.5238 274.517 86.0258 276.036L79.8014 262.482ZM69.8308 248.877C69.5815 248.877 69.3322 249.218 69.3322 249.559C69.3322 249.9 69.5815 250.241 69.8308 250.241L73.0717 250.241C73.321 250.241 73.5703 249.9 73.5703 249.559C73.5703 249.218 73.321 248.877 73.0717 248.877L69.8308 248.877ZM68.8685 278.378C68.7973 277.203 68.7753 276.013 68.7883 274.865L70.6573 276.121C71.1413 276.446 71.762 276.446 72.246 276.121L74.1082 274.869C74.1344 276.017 74.1135 277.208 74.0295 278.382L71.4516 280.115L68.8685 278.378ZM69.3464 282.357C69.4584 282.93 69.5898 283.478 69.743 283.991C70.1932 285.331 70.6413 286.187 71.0148 286.673C71.1666 286.87 71.2775 286.972 71.3452 287.023C71.4129 286.972 71.5237 286.87 71.6756 286.673C72.0519 286.183 72.5039 285.318 72.9575 283.961C72.964 283.941 72.9708 283.922 72.9779 283.903C73.1462 283.445 73.293 282.958 73.4201 282.449L72.246 283.239C71.762 283.564 71.1413 283.564 70.6573 283.239L69.3464 282.357ZM71.4516 272.997L68.9694 271.329C69.2378 270.193 70.196 269.357 71.4106 269.357C72.7626 269.357 73.7289 270.322 73.8813 271.364L71.4516 272.997Z" fill="url(#paint18_diamond_988_6846)"/>
<path fill-rule="evenodd" clip-rule="evenodd" d="M69.9817 245.773C69.2702 245.773 68.614 245.975 68.0613 246.33C67.8186 245.846 67.543 245.371 67.2335 244.907C66.2618 243.45 65.2359 242.54 64.0826 241.707C61.6113 240.041 58.2355 238.986 56.3391 239C54.4428 239.014 54.2074 242.419 56.5039 242.332C61.0446 242.16 64.7693 243.011 67.5231 246.754C66.8063 247.441 66.3645 248.434 66.3645 249.559C66.3645 251.437 67.5948 252.947 69.2806 253.278C68.5253 253.612 67.8405 254.105 67.0855 254.671C67.0502 254.705 66.9247 254.808 66.7242 254.972C64.805 256.547 56.0194 263.758 53.7652 269.259C51.3808 274.966 55.2803 280.043 55.8292 280.758C55.8535 280.79 55.8712 280.813 55.8815 280.827C56.5566 281.731 58.178 281.631 58.6203 280.593L67.2974 261.834C67.6531 262.18 68.0644 262.481 68.5194 262.726C69.1508 263.271 69.5352 264.031 69.5352 264.646C69.5352 265.324 69.2962 265.498 68.2267 266.274L68.0603 266.395C67.996 266.441 67.9604 266.486 67.9504 266.527C66.5136 267.55 65.499 269.206 65.2761 271.185C65.2727 271.215 65.27 271.246 65.2679 271.276C65.0031 275.112 64.9748 280.938 66.2675 285.235C66.2735 285.255 66.2799 285.275 66.2866 285.295C66.8139 286.872 67.4411 288.207 68.1929 289.185C68.9361 290.152 69.9922 291 71.3452 291C72.6982 291 73.7543 290.152 74.4974 289.185C75.2447 288.213 75.8688 286.888 76.3942 285.323C77.9835 280.975 77.9488 275.127 77.5518 271.249C77.3981 268.86 75.9993 267.02 74.1741 266.089C73.2929 265.464 73.1737 265.267 73.1737 264.646C73.1737 263.943 74.0748 263.065 74.8994 262.487C74.9508 262.451 74.9666 262.417 74.9512 262.386C75.1873 262.221 75.4077 262.039 75.6103 261.843L84.283 280.593C84.7252 281.631 86.3466 281.731 87.0217 280.827C87.032 280.813 87.0495 280.79 87.0734 280.759L87.074 280.758C87.6229 280.043 91.5224 274.966 89.138 269.259C86.8022 263.559 77.5853 256.074 76.0141 254.798C75.9488 254.745 75.8966 254.702 75.8588 254.671C75.3063 254.219 74.512 253.666 73.5907 253.284C75.2925 252.966 76.538 251.449 76.538 249.559C76.538 248.425 76.089 247.424 75.3617 246.737C78.1143 243.008 81.8346 242.16 86.3686 242.332C88.665 242.419 88.4297 239.014 86.5333 239C84.637 238.986 81.2612 240.041 78.7898 241.707C77.6366 242.54 76.6107 243.45 75.6389 244.907C75.3325 245.366 75.0593 245.836 74.8184 246.315C74.2705 245.97 73.6225 245.773 72.9208 245.773L69.9817 245.773ZM73.4948 257.27L73.338 256.931C72.9773 256.328 72.249 255.892 71.4588 255.892C70.3384 255.892 69.3425 256.768 69.3425 257.754V258.521C69.3425 259.507 70.3384 260.383 71.4588 260.383C72.5792 260.383 73.5751 259.507 73.5751 258.521V257.754C73.5751 257.588 73.547 257.426 73.4948 257.27ZM56.8774 270.428C57.8733 267.974 60.4876 265.053 63.1019 262.482L56.8774 276.036C56.3795 274.517 56.006 272.414 56.8774 270.428ZM79.8014 262.482C82.4156 265.053 85.0299 267.974 86.0258 270.428C86.8972 272.414 86.5238 274.517 86.0258 276.036L79.8014 262.482ZM69.8308 248.877C69.5815 248.877 69.3322 249.218 69.3322 249.559C69.3322 249.9 69.5815 250.241 69.8308 250.241L73.0717 250.241C73.321 250.241 73.5703 249.9 73.5703 249.559C73.5703 249.218 73.321 248.877 73.0717 248.877L69.8308 248.877ZM68.8685 278.378C68.7973 277.203 68.7753 276.013 68.7883 274.865L70.6573 276.121C71.1413 276.446 71.762 276.446 72.246 276.121L74.1082 274.869C74.1344 276.017 74.1135 277.208 74.0295 278.382L71.4516 280.115L68.8685 278.378ZM69.3464 282.357C69.4584 282.93 69.5898 283.478 69.743 283.991C70.1932 285.331 70.6413 286.187 71.0148 286.673C71.1666 286.87 71.2775 286.972 71.3452 287.023C71.4129 286.972 71.5237 286.87 71.6756 286.673C72.0519 286.183 72.5039 285.318 72.9575 283.961C72.964 283.941 72.9708 283.922 72.9779 283.903C73.1462 283.445 73.293 282.958 73.4201 282.449L72.246 283.239C71.762 283.564 71.1413 283.564 70.6573 283.239L69.3464 282.357ZM71.4516 272.997L68.9694 271.329C69.2378 270.193 70.196 269.357 71.4106 269.357C72.7626 269.357 73.7289 270.322 73.8813 271.364L71.4516 272.997Z" stroke="#47ECFF" stroke-linecap="round" stroke-linejoin="round"/>
</g>
<path fill-rule="evenodd" clip-rule="evenodd" d="M69.9817 245.773C69.2702 245.773 68.614 245.975 68.0613 246.33C67.8186 245.846 67.543 245.371 67.2335 244.907C66.2618 243.45 65.2359 242.54 64.0826 241.707C61.6113 240.041 58.2355 238.986 56.3391 239C54.4428 239.014 54.2074 242.419 56.5039 242.332C61.0446 242.16 64.7693 243.011 67.5231 246.754C66.8063 247.441 66.3645 248.434 66.3645 249.559C66.3645 251.437 67.5948 252.947 69.2806 253.278C68.5253 253.612 67.8405 254.105 67.0855 254.671C67.0502 254.705 66.9247 254.808 66.7242 254.972C64.805 256.547 56.0194 263.758 53.7652 269.259C51.3808 274.966 55.2803 280.043 55.8292 280.758C55.8535 280.79 55.8712 280.813 55.8815 280.827C56.5566 281.731 58.178 281.631 58.6203 280.593L67.2974 261.834C67.6531 262.18 68.0644 262.481 68.5194 262.726C69.1508 263.271 69.5352 264.031 69.5352 264.646C69.5352 265.324 69.2962 265.498 68.2267 266.274L68.0603 266.395C67.996 266.441 67.9604 266.486 67.9504 266.527C66.5136 267.55 65.499 269.206 65.2761 271.185C65.2727 271.215 65.27 271.246 65.2679 271.276C65.0031 275.112 64.9748 280.938 66.2675 285.235C66.2735 285.255 66.2799 285.275 66.2866 285.295C66.8139 286.872 67.4411 288.207 68.1929 289.185C68.9361 290.152 69.9922 291 71.3452 291C72.6982 291 73.7543 290.152 74.4974 289.185C75.2447 288.213 75.8688 286.888 76.3942 285.323C77.9835 280.975 77.9488 275.127 77.5518 271.249C77.3981 268.86 75.9993 267.02 74.1741 266.089C73.2929 265.464 73.1737 265.267 73.1737 264.646C73.1737 263.943 74.0748 263.065 74.8994 262.487C74.9508 262.451 74.9666 262.417 74.9512 262.386C75.1873 262.221 75.4077 262.039 75.6103 261.843L84.283 280.593C84.7252 281.631 86.3466 281.731 87.0217 280.827C87.032 280.813 87.0495 280.79 87.0734 280.759L87.074 280.758C87.6229 280.043 91.5224 274.966 89.138 269.259C86.8022 263.559 77.5853 256.074 76.0141 254.798C75.9488 254.745 75.8966 254.702 75.8588 254.671C75.3063 254.219 74.512 253.666 73.5907 253.284C75.2925 252.966 76.538 251.449 76.538 249.559C76.538 248.425 76.089 247.424 75.3617 246.737C78.1143 243.008 81.8346 242.16 86.3686 242.332C88.665 242.419 88.4297 239.014 86.5333 239C84.637 238.986 81.2612 240.041 78.7898 241.707C77.6366 242.54 76.6107 243.45 75.6389 244.907C75.3325 245.366 75.0593 245.836 74.8184 246.315C74.2705 245.97 73.6225 245.773 72.9208 245.773L69.9817 245.773ZM73.4948 257.27L73.338 256.931C72.9773 256.328 72.249 255.892 71.4588 255.892C70.3384 255.892 69.3425 256.768 69.3425 257.754V258.521C69.3425 259.507 70.3384 260.383 71.4588 260.383C72.5792 260.383 73.5751 259.507 73.5751 258.521V257.754C73.5751 257.588 73.547 257.426 73.4948 257.27ZM56.8774 270.428C57.8733 267.974 60.4876 265.053 63.1019 262.482L56.8774 276.036C56.3795 274.517 56.006 272.414 56.8774 270.428ZM79.8014 262.482C82.4156 265.053 85.0299 267.974 86.0258 270.428C86.8972 272.414 86.5238 274.517 86.0258 276.036L79.8014 262.482ZM69.8308 248.877C69.5815 248.877 69.3322 249.218 69.3322 249.559C69.3322 249.9 69.5815 250.241 69.8308 250.241L73.0717 250.241C73.321 250.241 73.5703 249.9 73.5703 249.559C73.5703 249.218 73.321 248.877 73.0717 248.877L69.8308 248.877ZM68.8685 278.378C68.7973 277.203 68.7753 276.013 68.7883 274.865L70.6573 276.121C71.1413 276.446 71.762 276.446 72.246 276.121L74.1082 274.869C74.1344 276.017 74.1135 277.208 74.0295 278.382L71.4516 280.115L68.8685 278.378ZM69.3464 282.357C69.4584 282.93 69.5898 283.478 69.743 283.991C70.1932 285.331 70.6413 286.187 71.0148 286.673C71.1666 286.87 71.2775 286.972 71.3452 287.023C71.4129 286.972 71.5237 286.87 71.6756 286.673C72.0519 286.183 72.5039 285.318 72.9575 283.961C72.964 283.941 72.9708 283.922 72.9779 283.903C73.1462 283.445 73.293 282.958 73.4201 282.449L72.246 283.239C71.762 283.564 71.1413 283.564 70.6573 283.239L69.3464 282.357ZM71.4516 272.997L68.9694 271.329C69.2378 270.193 70.196 269.357 71.4106 269.357C72.7626 269.357 73.7289 270.322 73.8813 271.364L71.4516 272.997Z" fill="url(#paint19_diamond_988_6846)" stroke="#47ECFF" stroke-linecap="round" stroke-linejoin="round"/>
<g filter="url(#filter11_f_988_6846)">
<path d="M200 322.534V322.672C213.153 322.672 218.326 325.449 223.258 330.046C228.176 334.632 231.593 338.698 231.864 355H232C232.203 339.661 235.332 335.202 240.151 330.47C244.974 325.733 250.441 322.466 264 322.672V322.534C247.051 322.741 241.069 317.138 237.234 311.352C233.358 305.503 232 301.693 232 290H231.864C231.864 301.143 230.337 305.672 226.446 311.478C222.596 317.221 216.203 322.534 200 322.534Z" fill="#369FAB"/>
<path d="M200 322.034H199.5V322.534V322.672V323.172H200C206.545 323.172 211.063 323.863 214.543 325.106C218.013 326.345 220.483 328.143 222.917 330.412C225.36 332.69 227.381 334.794 228.842 338.321C230.31 341.864 231.229 346.884 231.364 355.008L231.373 355.5H231.864H232H232.493L232.5 355.007C232.601 347.364 233.432 342.483 234.811 338.939C236.184 335.41 238.114 333.171 240.501 330.827C242.882 328.488 245.397 326.536 248.976 325.185C252.562 323.831 257.251 323.069 263.992 323.172L264.5 323.18V322.672V322.534V322.028L263.994 322.034C255.573 322.137 249.927 320.796 245.927 318.746C241.935 316.7 239.54 313.926 237.651 311.076C235.728 308.173 234.452 305.811 233.647 302.741C232.84 299.658 232.5 295.834 232.5 290V289.5H232H231.864H231.364V290C231.364 295.553 230.983 299.421 230.131 302.611C229.282 305.792 227.957 308.325 226.031 311.199C224.141 314.018 221.642 316.714 217.633 318.712C213.616 320.714 208.049 322.034 200 322.034Z" stroke="#47ECFF"/>
</g>
<path d="M200.07 323.172C206.588 323.177 211.092 323.87 214.562 325.113C218.022 326.351 220.487 328.147 222.917 330.412C225.357 332.687 227.375 334.788 228.836 338.306C230.303 341.84 231.224 346.844 231.363 354.939C231.368 355.235 231.608 355.5 231.932 355.5C232.257 355.5 232.497 355.235 232.501 354.938C232.606 347.323 233.438 342.457 234.817 338.923C236.189 335.403 238.117 333.167 240.501 330.827C242.878 328.492 245.389 326.543 248.957 325.192C252.534 323.839 257.207 323.074 263.923 323.171C264.227 323.175 264.5 322.932 264.5 322.603C264.5 322.274 264.227 322.032 263.924 322.035C255.53 322.13 249.9 320.786 245.911 318.737C241.929 316.692 239.537 313.922 237.651 311.076C235.731 308.179 234.457 305.82 233.652 302.759C232.844 299.685 232.503 295.875 232.5 290.069C232.5 289.768 232.259 289.5 231.932 289.5C231.607 289.5 231.365 289.767 231.364 290.069C231.361 295.596 230.978 299.45 230.126 302.631C229.276 305.803 227.953 308.331 226.031 311.199C224.144 314.014 221.649 316.706 217.65 318.704C213.644 320.705 208.093 322.027 200.07 322.034C199.768 322.035 199.5 322.277 199.5 322.603C199.5 322.929 199.768 323.172 200.07 323.172Z" fill="#369FAB" stroke="#47ECFF"/>
<defs>
<filter id="filter0_f_988_6846" x="45.4235" y="230.456" width="391.102" height="270.18" filterUnits="userSpaceOnUse" color-interpolation-filters="sRGB">
<feFlood flood-opacity="0" result="BackgroundImageFix"/>
<feBlend mode="normal" in="SourceGraphic" in2="BackgroundImageFix" result="shape"/>
<feGaussianBlur stdDeviation="15.6808" result="effect1_foregroundBlur_988_6846"/>
</filter>
<filter id="filter1_f_988_6846" x="137.799" y="17.8001" width="212.894" height="201.862" filterUnits="userSpaceOnUse" color-interpolation-filters="sRGB">
<feFlood flood-opacity="0" result="BackgroundImageFix"/>
<feBlend mode="normal" in="SourceGraphic" in2="BackgroundImageFix" result="shape"/>
<feGaussianBlur stdDeviation="6.27234" result="effect1_foregroundBlur_988_6846"/>
</filter>
<filter id="filter2_f_988_6846" x="180.49" y="14.0828" width="161.71" height="136.058" filterUnits="userSpaceOnUse" color-interpolation-filters="sRGB">
<feFlood flood-opacity="0" result="BackgroundImageFix"/>
<feBlend mode="normal" in="SourceGraphic" in2="BackgroundImageFix" result="shape"/>
<feGaussianBlur stdDeviation="6.27234" result="effect1_foregroundBlur_988_6846"/>
</filter>
<filter id="filter3_f_988_6846" x="133.787" y="15.2566" width="220.914" height="214.086" filterUnits="userSpaceOnUse" color-interpolation-filters="sRGB">
<feFlood flood-opacity="0" result="BackgroundImageFix"/>
<feBlend mode="normal" in="SourceGraphic" in2="BackgroundImageFix" result="shape"/>
<feGaussianBlur stdDeviation="6.27234" result="effect1_foregroundBlur_988_6846"/>
</filter>
<filter id="filter4_f_988_6846" x="234.365" y="17.439" width="70.9839" height="53.0928" filterUnits="userSpaceOnUse" color-interpolation-filters="sRGB">
<feFlood flood-opacity="0" result="BackgroundImageFix"/>
<feBlend mode="normal" in="SourceGraphic" in2="BackgroundImageFix" result="shape"/>
<feGaussianBlur stdDeviation="6.27234" result="effect1_foregroundBlur_988_6846"/>
</filter>
<filter id="filter5_f_988_6846" x="234.365" y="17.439" width="70.9839" height="53.0928" filterUnits="userSpaceOnUse" color-interpolation-filters="sRGB">
<feFlood flood-opacity="0" result="BackgroundImageFix"/>
<feBlend mode="normal" in="SourceGraphic" in2="BackgroundImageFix" result="shape"/>
<feGaussianBlur stdDeviation="6.27234" result="effect1_foregroundBlur_988_6846"/>
</filter>
<filter id="filter6_f_988_6846" x="404" y="155" width="52" height="41" filterUnits="userSpaceOnUse" color-interpolation-filters="sRGB">
<feFlood flood-opacity="0" result="BackgroundImageFix"/>
<feBlend mode="normal" in="SourceGraphic" in2="BackgroundImageFix" result="shape"/>
<feGaussianBlur stdDeviation="4.5" result="effect1_foregroundBlur_988_6846"/>
</filter>
<filter id="filter7_f_988_6846" x="0" y="154" width="56" height="60" filterUnits="userSpaceOnUse" color-interpolation-filters="sRGB">
<feFlood flood-opacity="0" result="BackgroundImageFix"/>
<feBlend mode="normal" in="SourceGraphic" in2="BackgroundImageFix" result="shape"/>
<feGaussianBlur stdDeviation="7" result="effect1_foregroundBlur_988_6846"/>
</filter>
<filter id="filter8_f_988_6846" x="341" y="262" width="72" height="74" filterUnits="userSpaceOnUse" color-interpolation-filters="sRGB">
<feFlood flood-opacity="0" result="BackgroundImageFix"/>
<feBlend mode="normal" in="SourceGraphic" in2="BackgroundImageFix" result="shape"/>
<feGaussianBlur stdDeviation="11.5" result="effect1_foregroundBlur_988_6846"/>
</filter>
<filter id="filter9_f_988_6846" x="443" y="207" width="71" height="71" filterUnits="userSpaceOnUse" color-interpolation-filters="sRGB">
<feFlood flood-opacity="0" result="BackgroundImageFix"/>
<feBlend mode="normal" in="SourceGraphic" in2="BackgroundImageFix" result="shape"/>
<feGaussianBlur stdDeviation="8" result="effect1_foregroundBlur_988_6846"/>
</filter>
<filter id="filter10_f_988_6846" x="30.5" y="216.5" width="81.9023" height="97" filterUnits="userSpaceOnUse" color-interpolation-filters="sRGB">
<feFlood flood-opacity="0" result="BackgroundImageFix"/>
<feBlend mode="normal" in="SourceGraphic" in2="BackgroundImageFix" result="shape"/>
<feGaussianBlur stdDeviation="11" result="effect1_foregroundBlur_988_6846"/>
</filter>
<filter id="filter11_f_988_6846" x="183" y="273" width="98" height="99" filterUnits="userSpaceOnUse" color-interpolation-filters="sRGB">
<feFlood flood-opacity="0" result="BackgroundImageFix"/>
<feBlend mode="normal" in="SourceGraphic" in2="BackgroundImageFix" result="shape"/>
<feGaussianBlur stdDeviation="8" result="effect1_foregroundBlur_988_6846"/>
</filter>
<linearGradient id="paint0_linear_988_6846" x1="240.389" y1="209.034" x2="240.389" y2="401.361" gradientUnits="userSpaceOnUse">
<stop stop-color="#FAFDFF"/>
<stop offset="1" stop-color="#B3E8FF"/>
</linearGradient>
<linearGradient id="paint1_linear_988_6846" x1="244.296" y1="231.726" x2="244.296" y2="389.181" gradientUnits="userSpaceOnUse">
<stop stop-color="#1B2D4B"/>
<stop offset="1" stop-color="#0040A0"/>
</linearGradient>
<linearGradient id="paint2_linear_988_6846" x1="240.621" y1="210.468" x2="240.621" y2="266.58" gradientUnits="userSpaceOnUse">
<stop stop-color="#6B96AF"/>
<stop offset="1" stop-color="#BCD9EB"/>
</linearGradient>
<radialGradient id="paint3_radial_988_6846" cx="0" cy="0" r="1" gradientUnits="userSpaceOnUse" gradientTransform="translate(230.381 146.964) rotate(-47.2121) scale(44.0565 39.9416)">
<stop stop-color="#2A65C9"/>
<stop offset="1" stop-color="#174BA5"/>
</radialGradient>
<linearGradient id="paint4_linear_988_6846" x1="315.34" y1="138.074" x2="365.314" y2="138.074" gradientUnits="userSpaceOnUse">
<stop stop-color="#7EA5BD"/>
<stop offset="1" stop-color="#CDDEEC"/>
</linearGradient>
<linearGradient id="paint5_linear_988_6846" x1="174.107" y1="138.074" x2="124.133" y2="138.074" gradientUnits="userSpaceOnUse">
<stop stop-color="#7EA5BD"/>
<stop offset="1" stop-color="#CDDEEC"/>
</linearGradient>
<linearGradient id="paint6_linear_988_6846" x1="319.867" y1="136.534" x2="357.348" y2="136.534" gradientUnits="userSpaceOnUse">
<stop stop-color="#4C7792"/>
<stop offset="1" stop-color="#7EA5BD" stop-opacity="0"/>
</linearGradient>
<linearGradient id="paint7_linear_988_6846" x1="167.051" y1="136.534" x2="129.571" y2="136.534" gradientUnits="userSpaceOnUse">
<stop stop-color="#4C7792"/>
<stop offset="1" stop-color="#7EA5BD" stop-opacity="0"/>
</linearGradient>
<linearGradient id="paint8_linear_988_6846" x1="244.247" y1="27.8772" x2="244.247" y2="216.531" gradientUnits="userSpaceOnUse">
<stop stop-color="#D1DCEF"/>
<stop offset="1" stop-color="#BBEFFF"/>
</linearGradient>
<radialGradient id="paint9_radial_988_6846" cx="0" cy="0" r="1" gradientUnits="userSpaceOnUse" gradientTransform="translate(263.594 54.4007) rotate(102.095) scale(44.7963 50.2158)">
<stop stop-color="#84E9FF"/>
<stop offset="1" stop-color="#DAEFF9" stop-opacity="0.22"/>
</radialGradient>
<linearGradient id="paint10_linear_988_6846" x1="245.584" y1="164.263" x2="244.244" y2="216.798" gradientUnits="userSpaceOnUse">
<stop stop-color="#00F0FF" stop-opacity="0"/>
<stop offset="1" stop-color="#00F0FF"/>
</linearGradient>
<linearGradient id="paint11_linear_988_6846" x1="245.139" y1="96.4663" x2="245.139" y2="182.7" gradientUnits="userSpaceOnUse">
<stop stop-color="#00A8DD"/>
<stop offset="1" stop-color="#83E2FE"/>
</linearGradient>
<linearGradient id="paint12_linear_988_6846" x1="243.059" y1="101.718" x2="243.018" y2="135.975" gradientUnits="userSpaceOnUse">
<stop stop-color="#17E1D5"/>
<stop offset="1" stop-color="#17E1D5" stop-opacity="0"/>
</linearGradient>
<radialGradient id="paint13_radial_988_6846" cx="0" cy="0" r="1" gradientUnits="userSpaceOnUse" gradientTransform="translate(252.71 354.386) rotate(15) scale(4.8629)">
<stop offset="0.291667" stop-color="#9DFFF9"/>
<stop offset="1" stop-color="#A2C7FF" stop-opacity="0"/>
</radialGradient>
<radialGradient id="paint14_radial_988_6846" cx="0" cy="0" r="1" gradientUnits="userSpaceOnUse" gradientTransform="translate(238.406 292.357) rotate(15) scale(2.84177)">
<stop offset="0.291667" stop-color="#9DFFF9"/>
<stop offset="1" stop-color="#A2C7FF" stop-opacity="0"/>
</radialGradient>
<radialGradient id="paint15_radial_988_6846" cx="0" cy="0" r="1" gradientUnits="userSpaceOnUse" gradientTransform="translate(317.821 273.621) rotate(15) scale(2.84177)">
<stop offset="0.291667" stop-color="#9DFFF9"/>
<stop offset="1" stop-color="#A2C7FF" stop-opacity="0"/>
</radialGradient>
<radialGradient id="paint16_radial_988_6846" cx="0" cy="0" r="1" gradientUnits="userSpaceOnUse" gradientTransform="translate(196.321 331.019) rotate(15) scale(2.84177)">
<stop offset="0.291667" stop-color="#9DFFF9"/>
<stop offset="1" stop-color="#A2C7FF" stop-opacity="0"/>
</radialGradient>
<radialGradient id="paint17_radial_988_6846" cx="0" cy="0" r="1" gradientUnits="userSpaceOnUse" gradientTransform="translate(188.826 323.422) rotate(15) scale(6.25573 6.25573)">
<stop offset="0.291667" stop-color="#9DFFF9"/>
<stop offset="1" stop-color="#A2C7FF" stop-opacity="0"/>
</radialGradient>
<radialGradient id="paint18_diamond_988_6846" cx="0" cy="0" r="1" gradientUnits="userSpaceOnUse" gradientTransform="translate(71.4516 265) rotate(75.4459) scale(32.0277 22.7294)">
<stop stop-color="#369FAB"/>
<stop offset="1" stop-color="#369FAB"/>
</radialGradient>
<radialGradient id="paint19_diamond_988_6846" cx="0" cy="0" r="1" gradientUnits="userSpaceOnUse" gradientTransform="translate(71.4516 265) rotate(75.4459) scale(32.0277 22.7294)">
<stop stop-color="#369FAB"/>
<stop offset="1" stop-color="#369FAB"/>
</radialGradient>
<clipPath id="clip0_988_6846">
<rect width="435" height="373" fill="white" transform="translate(19)"/>
</clipPath>
</defs>
</svg>
