<svg id="eB3Hm18v9Xp1" xmlns="http://www.w3.org/2000/svg" xmlns:xlink="http://www.w3.org/1999/xlink" viewBox="0 0 470 373" shape-rendering="geometricPrecision" text-rendering="geometricPrecision"><style><![CDATA[#eB3Hm18v9Xp11_to {animation: eB3Hm18v9Xp11_to__to 10526.315789473685ms linear infinite normal forwards}@keyframes eB3Hm18v9Xp11_to__to { 0% {transform: translate(247.680001px,354.504501px);animation-timing-function: cubic-bezier(0.445,0.05,0.55,0.95)} 56.666667% {transform: translate(247.680001px,334.504501px);animation-timing-function: cubic-bezier(0.445,0.05,0.55,0.95)} 100% {transform: translate(247.680001px,354.504501px)}} #eB3Hm18v9Xp14_to {animation: eB3Hm18v9Xp14_to__to 10526.315789473685ms linear infinite normal forwards}@keyframes eB3Hm18v9Xp14_to__to { 0% {transform: translate(233.387794px,292.426209px);animation-timing-function: cubic-bezier(0.445,0.05,0.55,0.95)} 50% {transform: translate(233.387794px,242.426209px);animation-timing-function: cubic-bezier(0.445,0.05,0.55,0.95)} 100% {transform: translate(233.387794px,292.426209px)}} #eB3Hm18v9Xp17_to {animation: eB3Hm18v9Xp17_to__to 10526.315789473685ms linear infinite normal forwards}@keyframes eB3Hm18v9Xp17_to__to { 0% {transform: translate(312.801956px,273.691208px);animation-timing-function: cubic-bezier(0.445,0.05,0.55,0.95)} 45% {transform: translate(312.801956px,253.691208px);animation-timing-function: cubic-bezier(0.445,0.05,0.55,0.95)} 100% {transform: translate(312.801956px,273.691208px)}} #eB3Hm18v9Xp20_to {animation: eB3Hm18v9Xp20_to__to 10526.315789473685ms linear infinite normal forwards}@keyframes eB3Hm18v9Xp20_to__to { 0% {transform: translate(191.301964px,331.088959px);animation-timing-function: cubic-bezier(0.445,0.05,0.55,0.95)} 60% {transform: translate(191.301964px,301.088959px);animation-timing-function: cubic-bezier(0.445,0.05,0.55,0.95)} 100% {transform: translate(191.301964px,331.088959px)}} #eB3Hm18v9Xp23_to {animation: eB3Hm18v9Xp23_to__to 10526.315789473685ms linear infinite normal forwards}@keyframes eB3Hm18v9Xp23_to__to { 0% {transform: translate(183.783501px,323.575501px);animation-timing-function: cubic-bezier(0.445,0.05,0.55,0.95)} 43.333333% {transform: translate(183.783501px,313.575501px);animation-timing-function: cubic-bezier(0.445,0.05,0.55,0.95)} 100% {transform: translate(183.783501px,323.575501px)}} #eB3Hm18v9Xp26_to {animation: eB3Hm18v9Xp26_to__to 10526.315789473685ms linear infinite normal forwards}@keyframes eB3Hm18v9Xp26_to__to { 0% {transform: translate(389px,152.500038px);animation-timing-function: cubic-bezier(0.445,0.05,0.55,0.95)} 53.333333% {transform: translate(389px,120.07859px);animation-timing-function: cubic-bezier(0.445,0.05,0.55,0.95)} 100% {transform: translate(389px,152.500038px)}} #eB3Hm18v9Xp26_ts {animation: eB3Hm18v9Xp26_ts__ts 10526.315789473685ms linear infinite normal forwards}@keyframes eB3Hm18v9Xp26_ts__ts { 0% {transform: scale(0,0)} 13.333333% {transform: scale(0,0);animation-timing-function: cubic-bezier(0.175,0.885,0.32,1.275)} 23.333333% {transform: scale(1,1);animation-timing-function: cubic-bezier(0.175,0.885,0.32,1.275)} 78.333333% {transform: scale(1,1);animation-timing-function: cubic-bezier(0.6,-0.28,0.735,0.045)} 88.333333% {transform: scale(0,0)} 100% {transform: scale(0,0)}} #eB3Hm18v9Xp30_to {animation: eB3Hm18v9Xp30_to__to 10526.315789473685ms linear infinite normal forwards}@keyframes eB3Hm18v9Xp30_to__to { 0% {transform: translate(39.999981px,201.000145px);animation-timing-function: cubic-bezier(0.445,0.05,0.55,0.95)} 33.333333% {transform: translate(39.999981px,178.578697px);animation-timing-function: cubic-bezier(0.445,0.05,0.55,0.95)} 100% {transform: translate(39.999981px,201.000145px)}} #eB3Hm18v9Xp30_ts {animation: eB3Hm18v9Xp30_ts__ts 10526.315789473685ms linear infinite normal forwards}@keyframes eB3Hm18v9Xp30_ts__ts { 0% {transform: scale(0,0)} 38.333333% {transform: scale(0,0);animation-timing-function: cubic-bezier(0.175,0.885,0.32,1.275)} 46.666667% {transform: scale(1.029628,1.029628);animation-timing-function: cubic-bezier(0.175,0.885,0.32,1.275)} 83.333333% {transform: scale(1.029628,1.029628);animation-timing-function: cubic-bezier(0.6,-0.28,0.735,0.045)} 91.666667% {transform: scale(0,0)} 100% {transform: scale(0,0)}} #eB3Hm18v9Xp34_to {animation: eB3Hm18v9Xp34_to__to 10526.315789473685ms linear infinite normal forwards}@keyframes eB3Hm18v9Xp34_to__to { 0% {transform: translate(386.999954px,269.000076px);animation-timing-function: cubic-bezier(0.445,0.05,0.55,0.95)} 68.333333% {transform: translate(386.999954px,234.578628px);animation-timing-function: cubic-bezier(0.445,0.05,0.55,0.95)} 100% {transform: translate(386.999954px,269.000076px)}} #eB3Hm18v9Xp34_ts {animation: eB3Hm18v9Xp34_ts__ts 10526.315789473685ms linear infinite normal forwards}@keyframes eB3Hm18v9Xp34_ts__ts { 0% {transform: scale(0,0);animation-timing-function: cubic-bezier(0.175,0.885,0.32,1.275)} 8.333333% {transform: scale(1,1);animation-timing-function: cubic-bezier(0.175,0.885,0.32,1.275)} 50% {transform: scale(1,1);animation-timing-function: cubic-bezier(0.6,-0.28,0.735,0.045)} 58.333333% {transform: scale(0,0)} 100% {transform: scale(0,0)}} #eB3Hm18v9Xp38_to {animation: eB3Hm18v9Xp38_to__to 10526.315789473685ms linear infinite normal forwards}@keyframes eB3Hm18v9Xp38_to__to { 0% {transform: translate(435.520493px,202.543999px);animation-timing-function: cubic-bezier(0.445,0.05,0.55,0.95)} 50% {transform: translate(435.520493px,180.122551px);animation-timing-function: cubic-bezier(0.445,0.05,0.55,0.95)} 100% {transform: translate(435.520493px,202.543999px)}} #eB3Hm18v9Xp38_ts {animation: eB3Hm18v9Xp38_ts__ts 10526.315789473685ms linear infinite normal forwards}@keyframes eB3Hm18v9Xp38_ts__ts { 0% {transform: scale(1,1);animation-timing-function: cubic-bezier(0.6,-0.28,0.735,0.045)} 8.333333% {transform: scale(0,0)} 31.666667% {transform: scale(0,0);animation-timing-function: cubic-bezier(0.175,0.885,0.32,1.275)} 41.666667% {transform: scale(1,1)} 100% {transform: scale(1,1)}} #eB3Hm18v9Xp47_to {animation: eB3Hm18v9Xp47_to__to 10526.315789473685ms linear infinite normal forwards}@keyframes eB3Hm18v9Xp47_to__to { 0% {transform: translate(86.451405px,265.499931px);animation-timing-function: cubic-bezier(0.445,0.05,0.55,0.95)} 40% {transform: translate(86.451405px,239.078483px);animation-timing-function: cubic-bezier(0.445,0.05,0.55,0.95)} 100% {transform: translate(86.451405px,265.499931px)}} #eB3Hm18v9Xp47_ts {animation: eB3Hm18v9Xp47_ts__ts 10526.315789473685ms linear infinite normal forwards}@keyframes eB3Hm18v9Xp47_ts__ts { 0% {transform: scale(0,0)} 25% {transform: scale(0,0);animation-timing-function: cubic-bezier(0.175,0.885,0.32,1.275)} 35% {transform: scale(1,1);animation-timing-function: cubic-bezier(0.175,0.885,0.32,1.275)} 68.333333% {transform: scale(1,1);animation-timing-function: cubic-bezier(0.6,-0.28,0.735,0.045)} 78.333333% {transform: scale(0,0)} 100% {transform: scale(0,0)}} #eB3Hm18v9Xp51_to {animation: eB3Hm18v9Xp51_to__to 10526.315789473685ms linear infinite normal forwards}@keyframes eB3Hm18v9Xp51_to__to { 0% {transform: translate(236px,321.5px);animation-timing-function: cubic-bezier(0.445,0.05,0.55,0.95)} 50% {transform: translate(236px,286.078552px);animation-timing-function: cubic-bezier(0.445,0.05,0.55,0.95)} 100% {transform: translate(236px,321.5px)}} #eB3Hm18v9Xp55_to {animation: eB3Hm18v9Xp55_to__to 10526.315789473685ms linear infinite normal forwards}@keyframes eB3Hm18v9Xp55_to__to { 0% {transform: translate(85px,147.5px);animation-timing-function: cubic-bezier(0.445,0.05,0.55,0.95)} 55% {transform: translate(85px,112.078552px);animation-timing-function: cubic-bezier(0.445,0.05,0.55,0.95)} 100% {transform: translate(85px,147.5px)}} #eB3Hm18v9Xp55_ts {animation: eB3Hm18v9Xp55_ts__ts 10526.315789473685ms linear infinite normal forwards}@keyframes eB3Hm18v9Xp55_ts__ts { 0% {transform: scale(1,1)} 31% {transform: scale(1,1);animation-timing-function: cubic-bezier(0.6,-0.28,0.735,0.045)} 40% {transform: scale(0,0)} 73.333333% {transform: scale(0,0);animation-timing-function: cubic-bezier(0.175,0.885,0.32,1.275)} 83.333333% {transform: scale(1,1)} 100% {transform: scale(1,1)}} #eB3Hm18v9Xp61_to {animation: eB3Hm18v9Xp61_to__to 10526.315789473685ms linear infinite normal forwards}@keyframes eB3Hm18v9Xp61_to__to { 0% {transform: translate(324.654053px,300.5px);animation-timing-function: cubic-bezier(0.445,0.05,0.55,0.95)} 50% {transform: translate(324.654053px,252.895002px);animation-timing-function: cubic-bezier(0.445,0.05,0.55,0.95)} 100% {transform: translate(324.654053px,300.5px)}} #eB3Hm18v9Xp61_ts {animation: eB3Hm18v9Xp61_ts__ts 10526.315789473685ms linear infinite normal forwards}@keyframes eB3Hm18v9Xp61_ts__ts { 0% {transform: scale(0,0)} 55% {transform: scale(0,0);animation-timing-function: cubic-bezier(0.175,0.885,0.32,1.275)} 63.333333% {transform: scale(1,1);animation-timing-function: cubic-bezier(0.175,0.885,0.32,1.275)} 93.333333% {transform: scale(1,1);animation-timing-function: cubic-bezier(0.6,-0.28,0.735,0.045)} 100% {transform: scale(0,0)}} #eB3Hm18v9Xp74_to {animation: eB3Hm18v9Xp74_to__to 10526.315789473685ms linear infinite normal forwards}@keyframes eB3Hm18v9Xp74_to__to { 0% {transform: translate(145.341995px,300.500001px);animation-timing-function: cubic-bezier(0.445,0.05,0.55,0.95)} 50% {transform: translate(145.341988px,261.817px);animation-timing-function: cubic-bezier(0.445,0.05,0.55,0.95)} 100% {transform: translate(145.341995px,300.5px)}} #eB3Hm18v9Xp74_ts {animation: eB3Hm18v9Xp74_ts__ts 10526.315789473685ms linear infinite normal forwards}@keyframes eB3Hm18v9Xp74_ts__ts { 0% {transform: scale(1,1)} 25% {transform: scale(1,1);animation-timing-function: cubic-bezier(0.6,-0.28,0.735,0.045)} 31.666667% {transform: scale(0,0)} 70% {transform: scale(0,0);animation-timing-function: cubic-bezier(0.175,0.885,0.32,1.275)} 78.333333% {transform: scale(1,1)} 100% {transform: scale(1,1)}} #eB3Hm18v9Xp86_to {animation: eB3Hm18v9Xp86_to__to 10526.315789473685ms linear infinite normal forwards}@keyframes eB3Hm18v9Xp86_to__to { 0% {transform: translate(328.445999px,131.918003px);animation-timing-function: cubic-bezier(0.455,0.03,0.515,0.955)} 33.333333% {transform: translate(322.627914px,124.708px);animation-timing-function: cubic-bezier(0.455,0.03,0.515,0.955)} 41.666667% {transform: translate(322.627914px,124.708px);animation-timing-function: cubic-bezier(0.455,0.03,0.515,0.955)} 66.666667% {transform: translate(335.133469px,139.741773px);animation-timing-function: cubic-bezier(0.455,0.03,0.515,0.955)} 75% {transform: translate(335.133469px,139.741773px);animation-timing-function: cubic-bezier(0.455,0.03,0.515,0.955)} 91.666667% {transform: translate(328.445999px,131.918003px);animation-timing-function: cubic-bezier(0.455,0.03,0.515,0.955)} 100% {transform: translate(328.445999px,131.918003px)}} #eB3Hm18v9Xp86_ts {animation: eB3Hm18v9Xp86_ts__ts 10526.315789473685ms linear infinite normal forwards}@keyframes eB3Hm18v9Xp86_ts__ts { 0% {transform: scale(1,1);animation-timing-function: cubic-bezier(0.455,0.03,0.515,0.955)} 33.333333% {transform: scale(1,1);animation-timing-function: cubic-bezier(0.455,0.03,0.515,0.955)} 41.666667% {transform: scale(1,1);animation-timing-function: cubic-bezier(0.455,0.03,0.515,0.955)} 66.666667% {transform: scale(1,1);animation-timing-function: cubic-bezier(0.455,0.03,0.515,0.955)} 75% {transform: scale(1,1);animation-timing-function: cubic-bezier(0.455,0.03,0.515,0.955)} 100% {transform: scale(1,1)}} #eB3Hm18v9Xp89_to {animation: eB3Hm18v9Xp89_to__to 10526.315789473685ms linear infinite normal forwards}@keyframes eB3Hm18v9Xp89_to__to { 0% {transform: translate(151.002499px,131.918003px);animation-timing-function: cubic-bezier(0.455,0.03,0.515,0.955)} 33.333333% {transform: translate(144.345503px,127.708078px);animation-timing-function: cubic-bezier(0.455,0.03,0.515,0.955)} 41.666667% {transform: translate(144.345503px,127.708078px);animation-timing-function: cubic-bezier(0.455,0.03,0.515,0.955)} 66.666667% {transform: translate(161.002499px,138.918003px);animation-timing-function: cubic-bezier(0.455,0.03,0.515,0.955)} 75% {transform: translate(161.002499px,138.918003px);animation-timing-function: cubic-bezier(0.455,0.03,0.515,0.955)} 91.666667% {transform: translate(151.002499px,131.918003px);animation-timing-function: cubic-bezier(0.455,0.03,0.515,0.955)} 100% {transform: translate(151.002499px,131.918003px)}} #eB3Hm18v9Xp89_ts {animation: eB3Hm18v9Xp89_ts__ts 10526.315789473685ms linear infinite normal forwards}@keyframes eB3Hm18v9Xp89_ts__ts { 0% {transform: scale(1,1);animation-timing-function: cubic-bezier(0.455,0.03,0.515,0.955)} 33.333333% {transform: scale(1,1);animation-timing-function: cubic-bezier(0.455,0.03,0.515,0.955)} 41.666667% {transform: scale(1,1);animation-timing-function: cubic-bezier(0.455,0.03,0.515,0.955)} 66.666667% {transform: scale(1,1);animation-timing-function: cubic-bezier(0.455,0.03,0.515,0.955)} 75% {transform: scale(1,1);animation-timing-function: cubic-bezier(0.455,0.03,0.515,0.955)} 100% {transform: scale(1,1)}} #eB3Hm18v9Xp97_to {animation: eB3Hm18v9Xp97_to__to 10526.315789473685ms linear infinite normal forwards}@keyframes eB3Hm18v9Xp97_to__to { 0% {transform: translate(240.139519px,140.552159px);animation-timing-function: cubic-bezier(0.455,0.03,0.515,0.955)} 33.333333% {transform: translate(246.389779px,148.843857px);animation-timing-function: cubic-bezier(0.455,0.03,0.515,0.955)} 41.666667% {transform: translate(246.389779px,148.843857px);animation-timing-function: cubic-bezier(0.455,0.03,0.515,0.955)} 66.666667% {transform: translate(230.614685px,142.414142px);animation-timing-function: cubic-bezier(0.455,0.03,0.515,0.955)} 75% {transform: translate(230.614685px,142.414142px);animation-timing-function: cubic-bezier(0.455,0.03,0.515,0.955)} 91.666667% {transform: translate(240.139519px,140.552159px);animation-timing-function: cubic-bezier(0.455,0.03,0.515,0.955)} 100% {transform: translate(240.139519px,140.552159px)}} #eB3Hm18v9Xp100_to {animation: eB3Hm18v9Xp100_to__to 10526.315789473685ms linear infinite normal forwards}@keyframes eB3Hm18v9Xp100_to__to { 0% {transform: translate(239.424225px,114.686531px);animation-timing-function: cubic-bezier(0.455,0.03,0.515,0.955)} 33.333333% {transform: translate(239.424225px,108.686531px);animation-timing-function: cubic-bezier(0.455,0.03,0.515,0.955)} 41.666667% {transform: translate(239.424225px,108.686531px);animation-timing-function: cubic-bezier(0.455,0.03,0.515,0.955)} 66.666667% {transform: translate(239.424225px,114.686531px);animation-timing-function: cubic-bezier(0.455,0.03,0.515,0.955)} 91.666667% {transform: translate(239.424225px,114.686531px)} 100% {transform: translate(239.424225px,114.686531px)}} #eB3Hm18v9Xp100_ts {animation: eB3Hm18v9Xp100_ts__ts 10526.315789473685ms linear infinite normal forwards}@keyframes eB3Hm18v9Xp100_ts__ts { 0% {transform: scale(1,1);animation-timing-function: cubic-bezier(0.455,0.03,0.515,0.955)} 33.333333% {transform: scale(1,0.8);animation-timing-function: cubic-bezier(0.455,0.03,0.515,0.955)} 41.666667% {transform: scale(1,0.8);animation-timing-function: cubic-bezier(0.455,0.03,0.515,0.955)} 66.666667% {transform: scale(1,1.3);animation-timing-function: cubic-bezier(0.455,0.03,0.515,0.955)} 75% {transform: scale(1,1.3);animation-timing-function: cubic-bezier(0.455,0.03,0.515,0.955)} 91.666667% {transform: scale(1,1)} 100% {transform: scale(1,1)}} #eB3Hm18v9Xp102_to {animation: eB3Hm18v9Xp102_to__to 10526.315789473685ms linear infinite normal forwards}@keyframes eB3Hm18v9Xp102_to__to { 0% {transform: translate(237.086998px,157.912003px);animation-timing-function: cubic-bezier(0.455,0.03,0.515,0.955)} 33.333333% {transform: translate(242.610297px,156.578903px);animation-timing-function: cubic-bezier(0.455,0.03,0.515,0.955)} 41.666667% {transform: translate(242.610297px,156.578903px);animation-timing-function: cubic-bezier(0.455,0.03,0.515,0.955)} 66.666667% {transform: translate(229.349038px,153.83479px);animation-timing-function: cubic-bezier(0.455,0.03,0.515,0.955)} 75% {transform: translate(229.349038px,153.83479px);animation-timing-function: cubic-bezier(0.455,0.03,0.515,0.955)} 91.666667% {transform: translate(237.086998px,157.912003px);animation-timing-function: cubic-bezier(0.455,0.03,0.515,0.955)} 100% {transform: translate(237.086998px,157.912003px)}}]]></style><defs><linearGradient id="eB3Hm18v9Xp4-fill" x1="235.389" y1="209.034" x2="235.389" y2="401.361" spreadMethod="pad" gradientUnits="userSpaceOnUse" gradientTransform="translate(0 0)"><stop id="eB3Hm18v9Xp4-fill-0" offset="0%" stop-color="#fafdff"/><stop id="eB3Hm18v9Xp4-fill-1" offset="100%" stop-color="#b3e8ff"/></linearGradient><filter id="eB3Hm18v9Xp6-filter" x="-150%" width="400%" y="-150%" height="400%"><feGaussianBlur id="eB3Hm18v9Xp6-filter-blur-0" stdDeviation="7,7" result="result"/></filter><linearGradient id="eB3Hm18v9Xp7-fill" x1="239.296" y1="231.726" x2="239.296" y2="389.181" spreadMethod="pad" gradientUnits="userSpaceOnUse" gradientTransform="translate(0 0)"><stop id="eB3Hm18v9Xp7-fill-0" offset="0%" stop-color="#1b2d4b"/><stop id="eB3Hm18v9Xp7-fill-1" offset="100%" stop-color="#0040a0"/></linearGradient><linearGradient id="eB3Hm18v9Xp9-fill" x1="235.623" y1="210.468" x2="235.623" y2="266.58" spreadMethod="pad" gradientUnits="userSpaceOnUse" gradientTransform="translate(0 0)"><stop id="eB3Hm18v9Xp9-fill-0" offset="0%" stop-color="#6b96af"/><stop id="eB3Hm18v9Xp9-fill-1" offset="100%" stop-color="#bcd9eb"/></linearGradient><radialGradient id="eB3Hm18v9Xp10-fill" cx="0" cy="0" r="1" spreadMethod="pad" gradientUnits="userSpaceOnUse" gradientTransform="matrix(29.927 -32.3319 29.312101 27.1318 225.381 146.964)"><stop id="eB3Hm18v9Xp10-fill-0" offset="0%" stop-color="#2a65c9"/><stop id="eB3Hm18v9Xp10-fill-1" offset="100%" stop-color="#174ba5"/></radialGradient><radialGradient id="eB3Hm18v9Xp12-fill" cx="0" cy="0" r="1" spreadMethod="pad" gradientUnits="userSpaceOnUse" gradientTransform="matrix(4.6972 1.25861 -1.25861 4.6972 247.712 354.386)"><stop id="eB3Hm18v9Xp12-fill-0" offset="29.1667%" stop-color="#9dfff9"/><stop id="eB3Hm18v9Xp12-fill-1" offset="100%" stop-color="rgba(162,199,255,0)"/></radialGradient><radialGradient id="eB3Hm18v9Xp15-fill" cx="0" cy="0" r="1" spreadMethod="pad" gradientUnits="userSpaceOnUse" gradientTransform="matrix(2.74494 0.735504 -0.735504 2.74494 233.406 292.357)"><stop id="eB3Hm18v9Xp15-fill-0" offset="29.1667%" stop-color="#9dfff9"/><stop id="eB3Hm18v9Xp15-fill-1" offset="100%" stop-color="rgba(162,199,255,0)"/></radialGradient><radialGradient id="eB3Hm18v9Xp18-fill" cx="0" cy="0" r="1" spreadMethod="pad" gradientUnits="userSpaceOnUse" gradientTransform="matrix(2.74494 0.735504 -0.735504 2.74494 312.821 273.621)"><stop id="eB3Hm18v9Xp18-fill-0" offset="29.1667%" stop-color="#9dfff9"/><stop id="eB3Hm18v9Xp18-fill-1" offset="100%" stop-color="rgba(162,199,255,0)"/></radialGradient><radialGradient id="eB3Hm18v9Xp21-fill" cx="0" cy="0" r="1" spreadMethod="pad" gradientUnits="userSpaceOnUse" gradientTransform="matrix(2.74494 0.735504 -0.735504 2.74494 191.321 331.019)"><stop id="eB3Hm18v9Xp21-fill-0" offset="29.1667%" stop-color="#9dfff9"/><stop id="eB3Hm18v9Xp21-fill-1" offset="100%" stop-color="rgba(162,199,255,0)"/></radialGradient><radialGradient id="eB3Hm18v9Xp24-fill" cx="0" cy="0" r="1" spreadMethod="pad" gradientUnits="userSpaceOnUse" gradientTransform="matrix(6.04257 1.6191 -1.6191 6.04257 183.826 323.422)"><stop id="eB3Hm18v9Xp24-fill-0" offset="29.1667%" stop-color="#9dfff9"/><stop id="eB3Hm18v9Xp24-fill-1" offset="100%" stop-color="rgba(162,199,255,0)"/></radialGradient><filter id="eB3Hm18v9Xp28-filter" x="-150%" width="400%" y="-150%" height="400%"><feGaussianBlur id="eB3Hm18v9Xp28-filter-blur-0" stdDeviation="4,0" result="result"/></filter><filter id="eB3Hm18v9Xp31-filter" x="-150%" width="400%" y="-150%" height="400%"><feGaussianBlur id="eB3Hm18v9Xp31-filter-blur-0" stdDeviation="4,0" result="result"/></filter><filter id="eB3Hm18v9Xp36-filter" x="-150%" width="400%" y="-150%" height="400%"><feGaussianBlur id="eB3Hm18v9Xp36-filter-blur-0" stdDeviation="4,0" result="result"/></filter><filter id="eB3Hm18v9Xp39-filter" x="-150%" width="400%" y="-150%" height="400%"><feGaussianBlur id="eB3Hm18v9Xp39-filter-blur-0" stdDeviation="4,0" result="result"/></filter><filter id="eB3Hm18v9Xp48-filter" x="-150%" width="400%" y="-150%" height="400%"><feGaussianBlur id="eB3Hm18v9Xp48-filter-blur-0" stdDeviation="4,0" result="result"/></filter><radialGradient id="eB3Hm18v9Xp48-fill" cx="0" cy="0" r="1" spreadMethod="pad" gradientUnits="userSpaceOnUse" gradientTransform="matrix(7.27451 28.0193 -19.8847 5.16256 86.4516 265.5)"><stop id="eB3Hm18v9Xp48-fill-0" offset="0%" stop-color="#369fab"/><stop id="eB3Hm18v9Xp48-fill-1" offset="100%" stop-color="#369fab"/></radialGradient><radialGradient id="eB3Hm18v9Xp49-fill" cx="0" cy="0" r="1" spreadMethod="pad" gradientUnits="userSpaceOnUse" gradientTransform="matrix(7.27451 28.0193 -19.8847 5.16256 86.4516 265.5)"><stop id="eB3Hm18v9Xp49-fill-0" offset="0%" stop-color="#369fab"/><stop id="eB3Hm18v9Xp49-fill-1" offset="100%" stop-color="#369fab"/></radialGradient><filter id="eB3Hm18v9Xp53-filter" x="-150%" width="400%" y="-150%" height="400%"><feGaussianBlur id="eB3Hm18v9Xp53-filter-blur-0" stdDeviation="4,2" result="result"/></filter><filter id="eB3Hm18v9Xp59-filter" x="-150%" width="400%" y="-150%" height="400%"><feGaussianBlur id="eB3Hm18v9Xp59-filter-blur-0" stdDeviation="3,0" result="result"/></filter><filter id="eB3Hm18v9Xp62-filter" x="-150%" width="400%" y="-150%" height="400%"><feGaussianBlur id="eB3Hm18v9Xp62-filter-blur-0" stdDeviation="4,0" result="result"/></filter><filter id="eB3Hm18v9Xp75-filter" x="-150%" width="400%" y="-150%" height="400%"><feGaussianBlur id="eB3Hm18v9Xp75-filter-blur-0" stdDeviation="4,0" result="result"/></filter><linearGradient id="eB3Hm18v9Xp87-fill" x1="310.34" y1="138.075" x2="360.314" y2="138.075" spreadMethod="pad" gradientUnits="userSpaceOnUse" gradientTransform="translate(0 0)"><stop id="eB3Hm18v9Xp87-fill-0" offset="0%" stop-color="#7ea5bd"/><stop id="eB3Hm18v9Xp87-fill-1" offset="100%" stop-color="#cddeec"/></linearGradient><linearGradient id="eB3Hm18v9Xp88-fill" x1="314.865" y1="136.534" x2="352.346" y2="136.534" spreadMethod="pad" gradientUnits="userSpaceOnUse" gradientTransform="translate(0 0)"><stop id="eB3Hm18v9Xp88-fill-0" offset="0%" stop-color="#4c7792"/><stop id="eB3Hm18v9Xp88-fill-1" offset="100%" stop-color="rgba(126,165,189,0)"/></linearGradient><linearGradient id="eB3Hm18v9Xp90-fill" x1="169.109" y1="138.075" x2="119.135" y2="138.075" spreadMethod="pad" gradientUnits="userSpaceOnUse" gradientTransform="translate(0 0)"><stop id="eB3Hm18v9Xp90-fill-0" offset="0%" stop-color="#7ea5bd"/><stop id="eB3Hm18v9Xp90-fill-1" offset="100%" stop-color="#cddeec"/></linearGradient><linearGradient id="eB3Hm18v9Xp91-fill" x1="162.053" y1="136.534" x2="124.572" y2="136.534" spreadMethod="pad" gradientUnits="userSpaceOnUse" gradientTransform="translate(0 0)"><stop id="eB3Hm18v9Xp91-fill-0" offset="0%" stop-color="#4c7792"/><stop id="eB3Hm18v9Xp91-fill-1" offset="100%" stop-color="rgba(126,165,189,0)"/></linearGradient><filter id="eB3Hm18v9Xp92-filter" x="-150%" width="400%" y="-150%" height="400%"><feGaussianBlur id="eB3Hm18v9Xp92-filter-blur-0" stdDeviation="0,0" result="result"/></filter><linearGradient id="eB3Hm18v9Xp92-fill" x1="239.247" y1="202.5445" x2="239.247" y2="216.531" spreadMethod="pad" gradientUnits="userSpaceOnUse" gradientTransform="translate(0 0)"><stop id="eB3Hm18v9Xp92-fill-0" offset="0%" stop-color="#d1dcef"/><stop id="eB3Hm18v9Xp92-fill-1" offset="100%" stop-color="#bbefff"/></linearGradient><radialGradient id="eB3Hm18v9Xp96-fill" cx="0" cy="0" r="1" spreadMethod="pad" gradientUnits="userSpaceOnUse" gradientTransform="matrix(-9.38631 43.8019 -49.1011 -10.5219 258.594 54.4007)"><stop id="eB3Hm18v9Xp96-fill-0" offset="0%" stop-color="#84e9ff"/><stop id="eB3Hm18v9Xp96-fill-1" offset="100%" stop-color="rgba(218,239,249,0.22)"/></radialGradient><linearGradient id="eB3Hm18v9Xp99-fill" x1="240.139" y1="96.4663" x2="240.139" y2="182.7" spreadMethod="pad" gradientUnits="userSpaceOnUse" gradientTransform="translate(0 0)"><stop id="eB3Hm18v9Xp99-fill-0" offset="0%" stop-color="#00a8dd"/><stop id="eB3Hm18v9Xp99-fill-1" offset="100%" stop-color="#83e2fe"/></linearGradient><linearGradient id="eB3Hm18v9Xp101-fill" x1="238.057" y1="101.718" x2="238.016" y2="135.975" spreadMethod="pad" gradientUnits="userSpaceOnUse" gradientTransform="translate(0 0)"><stop id="eB3Hm18v9Xp101-fill-0" offset="0%" stop-color="#17e1d5"/><stop id="eB3Hm18v9Xp101-fill-1" offset="100%" stop-color="rgba(23,225,213,0)"/></linearGradient><filter id="eB3Hm18v9Xp114-filter" x="-150%" width="400%" y="-150%" height="400%"><feGaussianBlur id="eB3Hm18v9Xp114-filter-blur-0" stdDeviation="3,3" result="result"/></filter><linearGradient id="eB3Hm18v9Xp114-fill" x1="240.584" y1="164.263" x2="239.244" y2="216.798" spreadMethod="pad" gradientUnits="userSpaceOnUse" gradientTransform="translate(0 0)"><stop id="eB3Hm18v9Xp114-fill-0" offset="0%" stop-color="rgba(0,240,255,0)"/><stop id="eB3Hm18v9Xp114-fill-1" offset="100%" stop-color="#00f0ff"/></linearGradient><filter id="eB3Hm18v9Xp115-filter" x="-150%" width="400%" y="-150%" height="400%"><feGaussianBlur id="eB3Hm18v9Xp115-filter-blur-0" stdDeviation="10,10" result="result"/></filter></defs><g clip-path="url(#eB3Hm18v9Xp118)"><g><path d="M56.3596,443.906C57.4487,327.907,107.817,236.897,239.1,236.897c127.908,0,176.493,96.056,176.493,206.758c0,33.706-359.5551,34.525-359.2334.251Z" fill="url(#eB3Hm18v9Xp4-fill)"/><g><path d="M71.7854,446.626c.9955-103.559,47.0376-184.809,167.0456-184.809c116.923,0,161.334,85.755,161.334,184.586.001,30.09-328.6739,30.822-328.3796.223Z" filter="url(#eB3Hm18v9Xp6-filter)" fill="#b3e9ff"/></g><path d="M344.73,267.331c-25.767,37.793-40.499,65.539-58.792,111.873-2.423,6.137-7.96,10.55-14.514,11.303-25.551,2.933-43.275,2.901-68.12.02-6.577-.762-12.12-5.216-14.517-11.388-17.45-44.956-31.361-72.287-56.654-113.446c32.621-22.316,80.307-33.092,112.434-33.09c31.233,0,69.186,13.091,100.163,34.728Z" fill="url(#eB3Hm18v9Xp7-fill)"/><path d="M235.631,272.229c32.787,0,59.367-8.656,59.367-19.334s-26.58-19.334-59.367-19.334c-32.786,0-59.365,8.656-59.365,19.334s26.579,19.334,59.365,19.334Z" fill="#f7f8ff"/><path d="M221.625,194.277c0-14.558,32.06-15.634,32.06,0c0,15.633,3.229,24.809,14.387,35.969c11.16,11.158,26.982,12.631,26.982,21.949s-25.9,18.023-56.8,18.051c-37.612.057-62.041-9.635-62.041-18.614c0-9.006,18.477-12.805,31.052-23.171s14.36-19.598,14.36-34.184Z" fill="url(#eB3Hm18v9Xp9-fill)"/><path d="M201.012,167.025c0,17.939,19.732,18.629,40.81,18.629s33.202-3.219,33.202-18.629c0-15.409-15.209-24.139-36.65-24.139-21.443,0-37.362,6.2-37.362,24.139Z" fill="url(#eB3Hm18v9Xp10-fill)"/><g id="eB3Hm18v9Xp11_to" transform="translate(247.680001,354.504501)"><g transform="translate(-247.68,-354.504501)"><path d="M252.263,355.733c.678-2.531-.824-5.133-3.355-5.811s-5.133.824-5.811,3.355.824,5.132,3.355,5.81s5.132-.824,5.811-3.354Z" fill="url(#eB3Hm18v9Xp12-fill)"/><path d="M248.528,355.969c.809-.467,1.086-1.502.619-2.311s-1.502-1.086-2.311-.619-1.086,1.502-.619,2.311s1.502,1.086,2.311.619Z" fill="#fff"/></g></g><g id="eB3Hm18v9Xp14_to" transform="translate(233.387794,292.426209)"><g transform="translate(-233.387794,-292.426208)"><path d="M236.066,293.144c.396-1.479-.482-2.999-1.961-3.396-1.479-.396-2.999.482-3.395,1.961-.397,1.479.481,2.999,1.96,3.395c1.479.397,3-.481,3.396-1.96Z" fill="url(#eB3Hm18v9Xp15-fill)"/><path d="M233.882,293.282c.473-.273.634-.877.362-1.35-.273-.473-.878-.635-1.351-.362s-.635.878-.362,1.351c.273.472.878.634,1.351.361Z" fill="#fff"/></g></g><g id="eB3Hm18v9Xp17_to" transform="translate(312.801956,273.691208)"><g transform="translate(-312.801956,-273.691208)"><path d="M315.48,274.409c.396-1.479-.482-2.999-1.961-3.396-1.479-.396-2.999.482-3.395,1.961s.481,2.999,1.96,3.395c1.479.397,3-.481,3.396-1.96Z" fill="url(#eB3Hm18v9Xp18-fill)"/><path d="M313.296,274.547c.473-.272.635-.877.362-1.35s-.878-.635-1.351-.362-.635.878-.362,1.351c.273.472.878.634,1.351.361Z" fill="#fff"/></g></g><g id="eB3Hm18v9Xp20_to" transform="translate(191.301964,331.088959)"><g transform="translate(-191.301963,-331.088959)"><path d="M193.98,331.806c.396-1.479-.482-2.999-1.961-3.395s-2.999.481-3.395,1.96.481,3,1.96,3.396s3-.482,3.396-1.961Z" fill="url(#eB3Hm18v9Xp21-fill)"/><path d="M191.796,331.946c.473-.273.635-.878.362-1.35-.273-.473-.878-.635-1.351-.362s-.635.877-.362,1.35.878.635,1.351.362Z" fill="#fff"/></g></g><g id="eB3Hm18v9Xp23_to" transform="translate(183.783501,323.575501)"><g transform="translate(-183.7835,-323.5755)"><path d="M189.679,325.155c.872-3.256-1.06-6.602-4.316-7.475-3.256-.872-6.602,1.06-7.475,4.316-.872,3.256,1.06,6.602,4.316,7.475c3.256.872,6.602-1.06,7.475-4.316Z" fill="url(#eB3Hm18v9Xp24-fill)"/><path d="M184.873,325.462c1.041-.601,1.397-1.932.797-2.973-.601-1.041-1.932-1.397-2.973-.796s-1.397,1.931-.796,2.972c.6,1.041,1.931,1.398,2.972.797Z" fill="#fff"/></g></g><g id="eB3Hm18v9Xp26_to" transform="translate(389,152.500038)"><g id="eB3Hm18v9Xp26_ts" transform="scale(0,0)"><g transform="translate(-389,-152.500038)"><path d="M392.188,145.208c0-.817-.735-1.476-1.499-1.94.136-.171.281-.329.437-.468.479-.412,1.062-.618,1.667-.782.041,0,.083-.021.125-.041.25-.145.333-.474.187-.721s-.479-.329-.729-.185c-.334.165-.625.37-.917.597-.292.226-.542.494-.75.803-.124.204-.239.408-.333.618-.224-.122-.442-.225-.637-.311-.47-.207-1.004-.197-1.469.023-.22.103-.472.231-.728.381-.095-.249-.217-.492-.376-.711-.208-.309-.458-.577-.75-.803-.292-.227-.604-.412-.917-.597-.021-.01-.042-.016-.062-.021-.021-.005-.042-.01-.063-.02-.292-.083-.563.082-.646.37s.083.556.375.638c.605.165,1.188.371,1.667.782.175.158.338.339.489.535-.736.474-1.426,1.115-1.426,1.853c0,.871.47,1.648,1.201,2.154-.343.193-.65.436-.914.721-.019-.005-.039-.01-.058-.014-3.626-.803-8.94-1.75-12.087-2.244-1.125-.164-1.792.494-1.938,1.215-.166.823.23,1.873,1.063,2.84.896,1.009,2.147,1.77,3.522,2.1.234.061.477.111.727.151-.044.166-.064.337-.06.507.021,1.503,1.563,2.532,2.917,2.532c2.253,0,4.078-1.386,5.251-2.593.142.308.322.592.534.847-.59.927-.909,2.143-.909,3.516c0,2.943,1.501,7.06,3.939,7.06s3.938-4.117,3.897-7.06c0-1.362-.313-2.564-.893-3.485.212-.249.393-.527.537-.829c1.174,1.202,2.984,2.544,5.211,2.544c1.355,0,2.897-1.05,2.917-2.532c0-.169-.022-.339-.069-.505.259-.04.512-.091.757-.153c1.375-.33,2.626-1.091,3.522-2.1.833-.946,1.229-2.017,1.063-2.84-.146-.741-.813-1.4-1.938-1.214-3.147.494-8.44,1.44-12.087,2.243-.008.002-.016.004-.024.006-.264-.283-.571-.525-.912-.716.731-.509,1.198-1.29,1.186-2.151Zm-1.464,9.229c-.51.234-1.085.363-1.703.363-.635,0-1.225-.136-1.745-.383-.334.583-.526,1.35-.562,2.22l.077.046c.234.138.462.273.709.381.208.121.423.22.646.303.125.046.119.229-.013.25-.255.041-.513.064-.779.064-.206.01-.411.006-.614-.001.059.689.196,1.366.381,1.982.147.086.292.168.441.242.2.111.407.207.622.289.122.046.117.222-.011.245-.244.043-.494.071-.736.083l-.01.001c.463,1.112,1.07,1.873,1.573,1.873.501,0,1.105-.754,1.567-1.859-.233-.024-.458-.055-.677-.096-.129-.024-.134-.201-.011-.246.214-.079.422-.171.621-.269.121-.06.239-.125.358-.194.196-.633.34-1.334.402-2.049-.183.005-.367.008-.551-.001-.263,0-.526-.022-.78-.062-.132-.021-.136-.202-.01-.246.232-.081.452-.178.665-.289.226-.118.452-.245.683-.374l.021-.012c-.03-.885-.225-1.661-.564-2.261Zm-1.331-10.216c-.24-.09-.503-.084-.74.013-.462.188-1.195.552-1.195.953c0,.587.708,1.153,1.563,1.153.833,0,1.563-.462,1.563-1.153.012-.443-.725-.79-1.191-.966Zm-.372,4.26c-1.355,0-2.292.967-2.292,2.346s.937,2.347,2.292,2.347c1.354,0,2.292-.968,2.292-2.347s-.938-2.346-2.292-2.346Zm11.919,1.77c-2.5.597-6.23-.165-7.981-.577c3.418-.72,8.232-1.584,11.232-2.058-.166.659-1.208,2.141-3.251,2.635Zm-6.459,1.708c.875.741,2.021,1.42,3.292,1.42.479,0,.813-.247.979-.473.125-.165.125-.288.125-.329-.02-.021-.166-.124-.562-.144-1.188-.021-2.438-.186-3.834-.474Zm-20.693-4.343c.146.659,1.188,2.141,3.251,2.635c2.479.597,6.23-.165,7.981-.577-3.418-.72-8.231-1.584-11.232-2.058Zm5.876,4.816c1.188-.041,2.438-.185,3.835-.473-.876.762-2.022,1.42-3.293,1.42-.458,0-.813-.247-.979-.473-.125-.185-.125-.309-.125-.329.021-.042.166-.124.562-.145Z" clip-rule="evenodd" fill="#369fab" fill-rule="evenodd" stroke="#47ecff"/><path d="M392.188,145.208c0-.817-.735-1.476-1.499-1.94.136-.171.281-.329.437-.468.479-.412,1.062-.618,1.667-.782.041,0,.083-.021.125-.041.25-.145.333-.474.187-.721s-.479-.329-.729-.185c-.334.165-.625.37-.917.597-.292.226-.542.494-.75.803-.124.204-.239.408-.333.618-.224-.122-.442-.225-.637-.311-.47-.207-1.004-.197-1.469.023-.22.103-.472.231-.728.381-.095-.249-.217-.492-.376-.711-.208-.309-.458-.577-.75-.803-.292-.227-.604-.412-.917-.597-.021-.01-.042-.016-.062-.021-.021-.005-.042-.01-.063-.02-.292-.083-.563.082-.646.37s.083.556.375.638c.605.165,1.188.371,1.667.782.175.158.338.339.489.535-.736.474-1.426,1.115-1.426,1.853c0,.871.47,1.648,1.201,2.154-.343.193-.65.436-.914.721-.019-.005-.039-.01-.058-.014-3.626-.803-8.94-1.75-12.087-2.244-1.125-.164-1.792.494-1.938,1.215-.166.823.23,1.873,1.063,2.84.896,1.009,2.147,1.77,3.522,2.1.234.061.477.111.727.151-.044.166-.064.337-.06.507.021,1.503,1.563,2.532,2.917,2.532c2.253,0,4.078-1.386,5.251-2.593.142.308.322.592.534.847-.59.927-.909,2.143-.909,3.516c0,2.943,1.501,7.06,3.939,7.06s3.938-4.117,3.897-7.06c0-1.362-.313-2.564-.893-3.485.212-.249.393-.527.537-.829c1.174,1.202,2.984,2.544,5.211,2.544c1.355,0,2.897-1.05,2.917-2.532c0-.169-.022-.339-.069-.505.259-.04.512-.091.757-.153c1.375-.33,2.626-1.091,3.522-2.1.833-.946,1.229-2.017,1.063-2.84-.146-.741-.813-1.4-1.938-1.214-3.147.494-8.44,1.44-12.087,2.243-.008.002-.016.004-.024.006-.264-.283-.571-.525-.912-.716.731-.509,1.198-1.29,1.186-2.151Zm-1.464,9.229c-.51.234-1.085.363-1.703.363-.635,0-1.225-.136-1.745-.383-.334.583-.526,1.35-.562,2.22l.077.046c.234.138.462.273.709.381.208.121.423.22.646.303.125.046.119.229-.013.25-.255.041-.513.064-.779.064-.206.01-.411.006-.614-.001.059.689.196,1.366.381,1.982.147.086.292.168.441.242.2.111.407.207.622.289.122.046.117.222-.011.245-.244.043-.494.071-.736.083l-.01.001c.463,1.112,1.07,1.873,1.573,1.873.501,0,1.105-.754,1.567-1.859-.233-.024-.458-.055-.677-.096-.129-.024-.134-.201-.011-.246.214-.079.422-.171.621-.269.121-.06.239-.125.358-.194.196-.633.34-1.334.402-2.049-.183.005-.367.008-.551-.001-.263,0-.526-.022-.78-.062-.132-.021-.136-.202-.01-.246.232-.081.452-.178.665-.289.226-.118.452-.245.683-.374l.021-.012c-.03-.885-.225-1.661-.564-2.261Zm-1.331-10.216c-.24-.09-.503-.084-.74.013-.462.188-1.195.552-1.195.953c0,.587.708,1.153,1.563,1.153.833,0,1.563-.462,1.563-1.153.012-.443-.725-.79-1.191-.966Zm-.372,4.26c-1.355,0-2.292.967-2.292,2.346s.937,2.347,2.292,2.347c1.354,0,2.292-.968,2.292-2.347s-.938-2.346-2.292-2.346Zm11.919,1.77c-2.5.597-6.23-.165-7.981-.577c3.418-.72,8.232-1.584,11.232-2.058-.166.659-1.208,2.141-3.251,2.635Zm-6.459,1.708c.875.741,2.021,1.42,3.292,1.42.479,0,.813-.247.979-.473.125-.165.125-.288.125-.329-.02-.021-.166-.124-.562-.144-1.188-.021-2.438-.186-3.834-.474Zm-20.693-4.343c.146.659,1.188,2.141,3.251,2.635c2.479.597,6.23-.165,7.981-.577-3.418-.72-8.231-1.584-11.232-2.058Zm5.876,4.816c1.188-.041,2.438-.185,3.835-.473-.876.762-2.022,1.42-3.293,1.42-.458,0-.813-.247-.979-.473-.125-.185-.125-.309-.125-.329.021-.042.166-.124.562-.145Z" clip-rule="evenodd" filter="url(#eB3Hm18v9Xp28-filter)" fill="#369fab" fill-rule="evenodd"/><path d="M392.188,145.208c0-.817-.735-1.476-1.499-1.94.136-.171.281-.329.437-.468.479-.412,1.062-.618,1.667-.782.041,0,.083-.021.125-.041.25-.145.333-.474.187-.721s-.479-.329-.729-.185c-.334.165-.625.37-.917.597-.292.226-.542.494-.75.803-.124.204-.239.408-.333.618-.224-.122-.442-.225-.637-.311-.47-.207-1.004-.197-1.469.023-.22.103-.472.231-.728.381-.095-.249-.217-.492-.376-.711-.208-.309-.458-.577-.75-.803-.292-.227-.604-.412-.917-.597-.021-.01-.042-.016-.062-.021-.021-.005-.042-.01-.063-.02-.292-.083-.563.082-.646.37s.083.556.375.638c.605.165,1.188.371,1.667.782.175.158.338.339.489.535-.736.474-1.426,1.115-1.426,1.853c0,.871.47,1.648,1.201,2.154-.343.193-.65.436-.914.721-.019-.005-.039-.01-.058-.014-3.626-.803-8.94-1.75-12.087-2.244-1.125-.164-1.792.494-1.938,1.215-.166.823.23,1.873,1.063,2.84.896,1.009,2.147,1.77,3.522,2.1.234.061.477.111.727.151-.044.166-.064.337-.06.507.021,1.503,1.563,2.532,2.917,2.532c2.253,0,4.078-1.386,5.251-2.593.142.308.322.592.534.847-.59.927-.909,2.143-.909,3.516c0,2.943,1.501,7.06,3.939,7.06s3.938-4.117,3.897-7.06c0-1.362-.313-2.564-.893-3.485.212-.249.393-.527.537-.829c1.174,1.202,2.984,2.544,5.211,2.544c1.355,0,2.897-1.05,2.917-2.532c0-.169-.022-.339-.069-.505.259-.04.512-.091.757-.153c1.375-.33,2.626-1.091,3.522-2.1.833-.946,1.229-2.017,1.063-2.84-.146-.741-.813-1.4-1.938-1.214-3.147.494-8.44,1.44-12.087,2.243-.008.002-.016.004-.024.006-.264-.283-.571-.525-.912-.716.731-.509,1.198-1.29,1.186-2.151Zm-1.464,9.229c-.51.234-1.085.363-1.703.363-.635,0-1.225-.136-1.745-.383-.334.583-.526,1.35-.562,2.22l.077.046c.234.138.462.273.709.381.208.121.423.22.646.303.125.046.119.229-.013.25-.255.041-.513.064-.779.064-.206.01-.411.006-.614-.001.059.689.196,1.366.381,1.982.147.086.292.168.441.242.2.111.407.207.622.289.122.046.117.222-.011.245-.244.043-.494.071-.736.083l-.01.001c.463,1.112,1.07,1.873,1.573,1.873.501,0,1.105-.754,1.567-1.859-.233-.024-.458-.055-.677-.096-.129-.024-.134-.201-.011-.246.214-.079.422-.171.621-.269.121-.06.239-.125.358-.194.196-.633.34-1.334.402-2.049-.183.005-.367.008-.551-.001-.263,0-.526-.022-.78-.062-.132-.021-.136-.202-.01-.246.232-.081.452-.178.665-.289.226-.118.452-.245.683-.374l.021-.012c-.03-.885-.225-1.661-.564-2.261Zm-1.331-10.216c-.24-.09-.503-.084-.74.013-.462.188-1.195.552-1.195.953c0,.587.708,1.153,1.563,1.153.833,0,1.563-.462,1.563-1.153.012-.443-.725-.79-1.191-.966Zm-.372,4.26c-1.355,0-2.292.967-2.292,2.346s.937,2.347,2.292,2.347c1.354,0,2.292-.968,2.292-2.347s-.938-2.346-2.292-2.346Zm11.919,1.77c-2.5.597-6.23-.165-7.981-.577c3.418-.72,8.232-1.584,11.232-2.058-.166.659-1.208,2.141-3.251,2.635Zm-6.459,1.708c.875.741,2.021,1.42,3.292,1.42.479,0,.813-.247.979-.473.125-.165.125-.288.125-.329-.02-.021-.166-.124-.562-.144-1.188-.021-2.438-.186-3.834-.474Zm-20.693-4.343c.146.659,1.188,2.141,3.251,2.635c2.479.597,6.23-.165,7.981-.577-3.418-.72-8.231-1.584-11.232-2.058Zm5.876,4.816c1.188-.041,2.438-.185,3.835-.473-.876.762-2.022,1.42-3.293,1.42-.458,0-.813-.247-.979-.473-.125-.185-.125-.309-.125-.329.021-.042.166-.124.562-.145Z" clip-rule="evenodd" fill="none" fill-rule="evenodd" stroke="#47ecff" stroke-width="0.5"/></g></g></g><g id="eB3Hm18v9Xp30_to" transform="translate(39.999981,201.000145)"><g id="eB3Hm18v9Xp30_ts" transform="scale(0,0)"><g transform="translate(-39.999981,-201.000145)"><path d="M49.2481,197.44c2.4362-1.563,3.9991-4.086,4.5507-7.279.3907-2.367.092-4.265.092-4.354-.046-.335-.2758-.603-.5976-.737s-.6895-.067-.9423.134L37.5724,196.301c.2529-.982.069-1.987-.5286-2.791-.9653-1.25-2.5971-1.474-3.8842-.982l-.1839-.112c-.9423-.603-1.9306-.737-2.9189-.38-1.9076.693-3.4015,3.149-4.0451,5.27-.046.179.046.38.2298.447.046.022.092.022.1609.022.1379,0,.2758-.067.3448-.201c1.0113-1.987,2.6891-3.707,3.9072-3.997.3447-.089.6435-.045.8963.112l.069.044c-.6435.782-1.0343,1.787-1.1722,2.97-.1379,1.228.046,2.568.4597,3.483.1609.358.5056.559.8964.559.0919,0,.2068-.023.2988-.045.8963-.29,2.3443-.849,3.5394-1.719-.1609.335-.2528.692-.2758,1.071-.0689.871.2069,1.72.7815,2.39.5745.669,1.402,1.094,2.2983,1.161.092,0,.2069.022.2988.022.023,0,.069,0,.0919,0-.8274,1.139-1.1262,2.746-.3447,4.51c1.7008,3.796-.4367,6.32-1.9536,7.213-.3448.201-.5286.603-.4137.982.1149.38.4596.648.8734.67.1379,0,.2758,0,.4137,0c5.47,0,7.8833-2.612,8.8486-4.198c1.5399-2.545,1.471-5.828-.1838-8.552-.8504-1.407-2.5053-2.568-4.3669-2.322.2298-.402.3677-.826.4137-1.295.046-.514-.023-1.005-.2299-1.474.4367.045.8734.067,1.3331.067c1.8617-.067,3.9991-.469,6.0217-1.786Zm-16.824,1.094c-.0919-.491-.1379-1.072-.0689-1.675.0919-.781.3677-1.831,1.2411-2.433.2068-.157.5286-.246.8504-.246.3677,0,.7584.134,1.0113.469.4596.625.2528,1.451-.1609,1.987-.5516.692-1.5629,1.384-2.873,1.898Zm6.1596,3.148c-.3907-.022-.7355-.201-.9883-.491s-.3677-.647-.3447-1.027.2068-.714.5056-.96c.2528-.223.5976-.335.9194-.335.0459,0,.0919,0,.1149,0c.3907.022.7354.201.9883.491s.3677.648.3447,1.027c-.023.38-.2068.715-.5056.96-.2758.246-.6436.358-1.0343.335Zm3.6314,1.943c.5976,0,1.2411.246,1.8157.871.069.067.069.156.046.223-.3448.715-1.0802,1.585-1.7927,2.032-.1149.067-.1609.223-.1149.335.0459.134.2068.201.3447.179.5746-.112,1.402-.425,2.0915-.849.069-.045.1149-.067.1839-.112.1149-.089.2988-.022.3447.112.2988.826.4367,1.675.4137,2.501c0,.089-.0689.179-.1609.201-.7354.246-1.6088.379-2.2983.268-.1609-.022-.3218.022-.3677.178-.069.157.0229.291.1608.38.5057.29,1.2641.603,2.0686.782.1379.022.2298.178.1608.29-.1149.29-.2528.558-.4137.826-.2528.424-.5516.804-.8963,1.139-.069.067-.1839.089-.2758.044-.3678-.178-.7125-.401-.9653-.602-.092-.09-.2299-.09-.3218,0-.0919.067-.1379.223-.0689.335.1149.223.3217.513.5516.826.0689.111.0459.245-.046.312-.7355.447-1.5629.782-2.5052,1.005-.2069.045-.3448-.156-.2528-.335c1.402-2.21,1.2641-5.002.2988-7.167-.7585-1.697-.0001-3.015,1.0342-3.506.2298-.179.5746-.268.9653-.268Zm-2.1604-6.788l11.9974-9.021c-.023,2.188-.5976,5.94-3.8842,8.061-2.896,1.853-6.2056,1.451-8.1132.96Z" filter="url(#eB3Hm18v9Xp31-filter)" fill="#7adffd"/><path d="M48.2481,197.44c2.4362-1.563,3.9991-4.086,4.5507-7.279.3907-2.367.092-4.265.092-4.354-.046-.335-.2758-.603-.5976-.737s-.6895-.067-.9423.134L36.5724,196.301c.2529-.982.069-1.987-.5286-2.791-.9653-1.25-2.5971-1.474-3.8842-.982l-.1839-.112c-.9423-.603-1.9306-.737-2.9189-.38-1.9076.693-3.4015,3.149-4.0451,5.27-.046.179.046.38.2298.447.046.022.092.022.1609.022.1379,0,.2758-.067.3448-.201c1.0113-1.987,2.6891-3.707,3.9072-3.997.3447-.089.6435-.045.8963.112l.069.044c-.6435.782-1.0343,1.787-1.1722,2.97-.1379,1.228.046,2.568.4597,3.483.1609.358.5056.559.8964.559.0919,0,.2068-.023.2988-.045.8963-.29,2.3443-.849,3.5394-1.719-.1609.335-.2528.692-.2758,1.071-.0689.871.2069,1.72.7815,2.39.5745.669,1.402,1.094,2.2983,1.161.092,0,.2069.022.2988.022.023,0,.069,0,.0919,0-.8274,1.139-1.1262,2.746-.3447,4.51c1.7008,3.796-.4367,6.32-1.9536,7.213-.3448.201-.5286.603-.4137.982.1149.38.4596.648.8734.67.1379,0,.2758,0,.4137,0c5.47,0,7.8833-2.612,8.8486-4.198c1.5399-2.545,1.471-5.828-.1838-8.552-.8504-1.407-2.5053-2.568-4.3669-2.322.2298-.402.3677-.826.4137-1.295.046-.514-.023-1.005-.2299-1.474.4367.045.8734.067,1.3331.067c1.8617-.067,3.9991-.469,6.0217-1.786Zm-16.824,1.094c-.0919-.491-.1379-1.072-.0689-1.675.0919-.781.3677-1.831,1.2411-2.433.2068-.157.5286-.246.8504-.246.3677,0,.7584.134,1.0113.469.4596.625.2528,1.451-.1609,1.987-.5516.692-1.5629,1.384-2.873,1.898Zm6.1596,3.148c-.3907-.022-.7355-.201-.9883-.491s-.3677-.647-.3447-1.027.2068-.714.5056-.96c.2528-.223.5976-.335.9194-.335.0459,0,.0919,0,.1149,0c.3907.022.7354.201.9883.491s.3677.648.3447,1.027c-.023.38-.2068.715-.5056.96-.2758.246-.6436.358-1.0343.335Zm3.6314,1.943c.5976,0,1.2411.246,1.8157.871.069.067.069.156.046.223-.3448.715-1.0802,1.585-1.7927,2.032-.1149.067-.1609.223-.1149.335.0459.134.2068.201.3447.179.5746-.112,1.402-.425,2.0915-.849.069-.045.1149-.067.1839-.112.1149-.089.2988-.022.3447.112.2988.826.4367,1.675.4137,2.501c0,.089-.0689.179-.1609.201-.7354.246-1.6088.379-2.2983.268-.1609-.022-.3218.022-.3677.178-.069.157.0229.291.1608.38.5057.29,1.2641.603,2.0686.782.1379.022.2298.178.1608.29-.1149.29-.2528.558-.4137.826-.2528.424-.5516.804-.8963,1.139-.069.067-.1839.089-.2758.044-.3678-.178-.7125-.401-.9653-.602-.092-.09-.2299-.09-.3218,0-.0919.067-.1379.223-.0689.335.1149.223.3217.513.5516.826.0689.111.0459.245-.046.312-.7355.447-1.5629.782-2.5052,1.005-.2069.045-.3448-.156-.2528-.335c1.402-2.21,1.2641-5.002.2988-7.167-.7585-1.697-.0001-3.015,1.0342-3.506.2298-.179.5746-.268.9653-.268Zm-2.1604-6.788l11.9974-9.021c-.023,2.188-.5976,5.94-3.8842,8.061-2.896,1.853-6.2056,1.451-8.1132.96Z" fill="#10a299"/><path d="M49.2481,197.44c2.4362-1.563,3.9991-4.086,4.5507-7.279.3907-2.367.092-4.265.092-4.354-.046-.335-.2758-.603-.5976-.737s-.6895-.067-.9423.134L37.5724,196.301c.2529-.982.069-1.987-.5286-2.791-.9653-1.25-2.5971-1.474-3.8842-.982l-.1839-.112c-.9423-.603-1.9306-.737-2.9189-.38-1.9076.693-3.4015,3.149-4.0451,5.27-.046.179.046.38.2298.447.046.022.092.022.1609.022.1379,0,.2758-.067.3448-.201c1.0113-1.987,2.6891-3.707,3.9072-3.997.3447-.089.6435-.045.8963.112l.069.044c-.6435.782-1.0343,1.787-1.1722,2.97-.1379,1.228.046,2.568.4597,3.483.1609.358.5056.559.8964.559.0919,0,.2068-.023.2988-.045.8963-.29,2.3443-.849,3.5394-1.719-.1609.335-.2528.692-.2758,1.071-.0689.871.2069,1.72.7815,2.39.5745.669,1.402,1.094,2.2983,1.161.092,0,.2069.022.2988.022.023,0,.069,0,.0919,0-.8274,1.139-1.1262,2.746-.3447,4.51c1.7008,3.796-.4367,6.32-1.9536,7.213-.3448.201-.5286.603-.4137.982.1149.38.4596.648.8734.67.1379,0,.2758,0,.4137,0c5.47,0,7.8833-2.612,8.8486-4.198c1.5399-2.545,1.471-5.828-.1838-8.552-.8504-1.407-2.5053-2.568-4.3669-2.322.2298-.402.3677-.826.4137-1.295.046-.514-.023-1.005-.2299-1.474.4367.045.8734.067,1.3331.067c1.8617-.067,3.9991-.469,6.0217-1.786Zm-16.824,1.094c-.0919-.491-.1379-1.072-.0689-1.675.0919-.781.3677-1.831,1.2411-2.433.2068-.157.5286-.246.8504-.246.3677,0,.7584.134,1.0113.469.4596.625.2528,1.451-.1609,1.987-.5516.692-1.5629,1.384-2.873,1.898Zm6.1596,3.148c-.3907-.022-.7355-.201-.9883-.491s-.3677-.647-.3447-1.027.2068-.714.5056-.96c.2528-.223.5976-.335.9194-.335.0459,0,.0919,0,.1149,0c.3907.022.7354.201.9883.491s.3677.648.3447,1.027c-.023.38-.2068.715-.5056.96-.2758.246-.6436.358-1.0343.335Zm3.6314,1.943c.5976,0,1.2411.246,1.8157.871.069.067.069.156.046.223-.3448.715-1.0802,1.585-1.7927,2.032-.1149.067-.1609.223-.1149.335.0459.134.2068.201.3447.179.5746-.112,1.402-.425,2.0915-.849.069-.045.1149-.067.1839-.112.1149-.089.2988-.022.3447.112.2988.826.4367,1.675.4137,2.501c0,.089-.0689.179-.1609.201-.7354.246-1.6088.379-2.2983.268-.1609-.022-.3218.022-.3677.178-.069.157.0229.291.1608.38.5057.29,1.2641.603,2.0686.782.1379.022.2298.178.1608.29-.1149.29-.2528.558-.4137.826-.2528.424-.5516.804-.8963,1.139-.069.067-.1839.089-.2758.044-.3678-.178-.7125-.401-.9653-.602-.092-.09-.2299-.09-.3218,0-.0919.067-.1379.223-.0689.335.1149.223.3217.513.5516.826.0689.111.0459.245-.046.312-.7355.447-1.5629.782-2.5052,1.005-.2069.045-.3448-.156-.2528-.335c1.402-2.21,1.2641-5.002.2988-7.167-.7585-1.697-.0001-3.015,1.0342-3.506.2298-.179.5746-.268.9653-.268Zm-2.1604-6.788l11.9974-9.021c-.023,2.188-.5976,5.94-3.8842,8.061-2.896,1.853-6.2056,1.451-8.1132.96Z" transform="translate(-1 0)" fill="none" stroke="#7adffd"/></g></g></g><g id="eB3Hm18v9Xp34_to" transform="translate(386.999954,269.000076)"><g id="eB3Hm18v9Xp34_ts" transform="scale(0,0)"><g transform="translate(-386.999954,-269.000076)"><path d="M392.055,251.722l.243-.437-.243.437c.416.232.646.664.611,1.104l-.186,2.341c-.065.814.344,1.585,1.045,2.012l2.226,1.356c1.107.674,2.588.297,3.195-.848l.271-.511c.319-.601,1.118-.839,1.75-.487l2.184,1.217c1.413.788,2.146,2.331,1.858,3.852l-2.787,14.729c-.405,2.142-1.717,4.033-3.632,5.221l-10.426,6.464c-.697.433-1.595.438-2.297.012l-10.642-6.44c-1.994-1.207-3.348-3.172-3.73-5.392l-2.515-14.627c-.259-1.504.476-3.017,1.869-3.794l2.433-1.356c.632-.352,1.431-.114,1.75.488l.331.624c.608,1.145,2.089,1.522,3.196.848l2.225-1.356c.701-.427,1.11-1.198,1.046-2.012l-.198-2.483c-.034-.44.195-.871.611-1.103l2.83-1.577c1.205-.672,2.694-.672,3.899,0l3.083,1.718Zm-2.617,20.216c1.455-.799,2.449-2.313,2.449-4.06c0-2.598-2.187-4.669-4.841-4.669s-4.84,2.071-4.84,4.669c0,1.657.893,3.103,2.226,3.93v4.515c0,1.358,1.14,2.425,2.503,2.425s2.503-1.067,2.503-2.425v-4.385Z" filter="url(#eB3Hm18v9Xp36-filter)" fill="none" stroke="#47ecff" stroke-width="3"/><path d="M392.055,251.722l.243-.437-.243.437c.416.232.646.664.611,1.104l-.186,2.341c-.065.814.344,1.585,1.045,2.012l2.226,1.356c1.107.674,2.588.297,3.195-.848l.271-.511c.319-.601,1.118-.839,1.75-.487l2.184,1.217c1.413.788,2.146,2.331,1.858,3.852l-2.787,14.729c-.405,2.142-1.717,4.033-3.632,5.221l-10.426,6.464c-.697.433-1.595.438-2.297.012l-10.642-6.44c-1.994-1.207-3.348-3.172-3.73-5.392l-2.515-14.627c-.259-1.504.476-3.017,1.869-3.794l2.433-1.356c.632-.352,1.431-.114,1.75.488l.331.624c.608,1.145,2.089,1.522,3.196.848l2.225-1.356c.701-.427,1.11-1.198,1.046-2.012l-.198-2.483c-.034-.44.195-.871.611-1.103l2.83-1.577c1.205-.672,2.694-.672,3.899,0l3.083,1.718Zm-2.617,20.216c1.455-.799,2.449-2.313,2.449-4.06c0-2.598-2.187-4.669-4.841-4.669s-4.84,2.071-4.84,4.669c0,1.657.893,3.103,2.226,3.93v4.515c0,1.358,1.14,2.425,2.503,2.425s2.503-1.067,2.503-2.425v-4.385Z" fill="#369fab" stroke="#47ecff"/></g></g></g><g id="eB3Hm18v9Xp38_to" transform="translate(435.520493,202.543999)"><g id="eB3Hm18v9Xp38_ts" transform="scale(1,1)"><g transform="translate(-435.520493,-202.543998)"><g transform="translate(0 0.000001)" filter="url(#eB3Hm18v9Xp39-filter)"><path d="M423.719,191.684c0-.533.431-.965.963-.965h10.838c2.425,0,4.681.733,6.557,1.992.442.296.561.896.265,1.339s-.894.562-1.337.265c-1.568-1.052-3.453-1.666-5.485-1.666h-10.838c-.532,0-.963-.432-.963-.965Zm19.791,3.46c.421-.326,1.026-.249,1.352.173c1.542,1.998,2.46,4.507,2.46,7.227c0,4.697-2.733,8.752-6.687,10.66-.48.231-1.055.03-1.286-.451-.231-.48-.03-1.057.45-1.288c3.313-1.599,5.596-4.994,5.596-8.921c0-2.278-.767-4.374-2.058-6.046-.325-.422-.248-1.028.173-1.354Zm-19.791,18.26c0-.533.431-.965.963-.965h12.283c.532,0,.964.432.964.965s-.432.965-.964.965h-12.283c-.532,0-.963-.432-.963-.965Z" clip-rule="evenodd" fill="#369fab" fill-rule="evenodd" stroke="#47ecff" stroke-linejoin="round"/><path d="M425.645,196.028c0-.533.431-.966.963-.966h8.911c2.53,0,4.765,1.262,6.114,3.186.306.437.201,1.039-.235,1.345-.435.307-1.036.201-1.342-.235-1.004-1.432-2.662-2.365-4.537-2.365h-8.911c-.532,0-.963-.432-.963-.965Zm16.377,5.551c.532,0,.963.432.963.965c0,4.132-3.342,7.481-7.466,7.481h-8.911c-.532,0-.963-.432-.963-.965s.431-.965.963-.965h8.911c3.06,0,5.54-2.486,5.54-5.551c0-.533.431-.965.963-.965Z" clip-rule="evenodd" fill="#369fab" fill-rule="evenodd" stroke="#47ecff" stroke-linejoin="round"/><path d="M427.091,200.131c0-.533.431-.965.963-.965h6.984c1.863,0,3.372,1.512,3.372,3.378s-1.509,3.379-3.372,3.379c-.532,0-.963-.432-.963-.965c0-.534.431-.966.963-.966.799,0,1.446-.648,1.446-1.448s-.647-1.448-1.446-1.448h-6.984c-.532,0-.963-.432-.963-.965Zm0,4.827c0-.534.431-.966.963-.966h3.372c.532,0,.963.432.963.966c0,.533-.431.965-.963.965h-3.372c-.532,0-.963-.432-.963-.965Z" clip-rule="evenodd" fill="#369fab" fill-rule="evenodd" stroke="#47ecff" stroke-linejoin="round"/></g><g transform="translate(0 0.000001)"><path d="M423.719,191.684c0-.533.431-.965.963-.965h10.838c2.425,0,4.681.733,6.557,1.992.442.296.561.896.265,1.339s-.894.562-1.337.265c-1.568-1.052-3.453-1.666-5.485-1.666h-10.838c-.532,0-.963-.432-.963-.965Zm19.791,3.46c.421-.326,1.026-.249,1.352.173c1.542,1.998,2.46,4.507,2.46,7.227c0,4.697-2.733,8.752-6.687,10.66-.48.231-1.055.03-1.286-.451-.231-.48-.03-1.057.45-1.288c3.313-1.599,5.596-4.994,5.596-8.921c0-2.278-.767-4.374-2.058-6.046-.325-.422-.248-1.028.173-1.354Zm-19.791,18.26c0-.533.431-.965.963-.965h12.283c.532,0,.964.432.964.965s-.432.965-.964.965h-12.283c-.532,0-.963-.432-.963-.965Z" clip-rule="evenodd" fill="#369fab" fill-rule="evenodd" stroke="#47ecff" stroke-linejoin="round"/><path d="M425.645,196.028c0-.533.431-.966.963-.966h8.911c2.53,0,4.765,1.262,6.114,3.186.306.437.201,1.039-.235,1.345-.435.307-1.036.201-1.342-.235-1.004-1.432-2.662-2.365-4.537-2.365h-8.911c-.532,0-.963-.432-.963-.965Zm16.377,5.551c.532,0,.963.432.963.965c0,4.132-3.342,7.481-7.466,7.481h-8.911c-.532,0-.963-.432-.963-.965s.431-.965.963-.965h8.911c3.06,0,5.54-2.486,5.54-5.551c0-.533.431-.965.963-.965Z" clip-rule="evenodd" fill="#369fab" fill-rule="evenodd" stroke="#47ecff" stroke-linejoin="round"/><path d="M427.091,200.131c0-.533.431-.965.963-.965h6.984c1.863,0,3.372,1.512,3.372,3.378s-1.509,3.379-3.372,3.379c-.532,0-.963-.432-.963-.965c0-.534.431-.966.963-.966.799,0,1.446-.648,1.446-1.448s-.647-1.448-1.446-1.448h-6.984c-.532,0-.963-.432-.963-.965Zm0,4.827c0-.534.431-.966.963-.966h3.372c.532,0,.963.432.963.966c0,.533-.431.965-.963.965h-3.372c-.532,0-.963-.432-.963-.965Z" clip-rule="evenodd" fill="#369fab" fill-rule="evenodd" stroke="#47ecff" stroke-linejoin="round"/></g></g></g></g><g id="eB3Hm18v9Xp47_to" transform="translate(86.451405,265.499931)"><g id="eB3Hm18v9Xp47_ts" transform="scale(0,0)"><g transform="translate(-86.451405,-265.499931)"><path d="M85.123,248.122c-.6431,0-1.2362.183-1.7357.503-.2194-.437-.4685-.867-.7482-1.286-.8783-1.317-1.8056-2.139-2.848-2.892-2.2337-1.506-5.2849-2.46-6.9989-2.447s-1.9267,3.09.1489,3.012c4.1042-.156,7.4707.613,9.9597,3.997-.6479.62-1.0472,1.518-1.0472,2.535c0,1.698,1.112,3.062,2.6357,3.362-.6827.301-1.3016.746-1.984,1.259-.0319.03-.1454.123-.3265.271-1.7347,1.424-9.6755,7.941-11.713,12.914-2.1551,5.158,1.3694,9.747,1.8655,10.393.022.028.038.049.0473.062.6102.817,2.0757.727,2.4754-.211l7.8428-16.956c.3216.313.6933.585,1.1045.807.5707.493.9182,1.179.9182,1.735c0,.613-.2161.77-1.1827,1.471l-.1504.11c-.0581.042-.0903.082-.0994.119-1.2986.925-2.2156,2.421-2.4171,4.21-.0031.028-.0056.055-.0075.083-.2393,3.467-.2649,8.732.9035,12.616.0055.018.0113.036.0173.054.4766,1.426,1.0435,2.633,1.7231,3.517.6717.873,1.6262,1.64,2.8491,1.64s2.1774-.767,2.8491-1.64c.6755-.879,1.2396-2.076,1.7144-3.491c1.4365-3.93,1.4051-9.216,1.0463-12.721-.1389-2.159-1.4032-3.822-3.0529-4.663-.7965-.565-.9042-.744-.9042-1.305c0-.635.8144-1.429,1.5597-1.951.0466-.033.0608-.064.0468-.092.2135-.149.4127-.313.5958-.49l7.8388,16.947c.3997.938,1.8652,1.028,2.4758.211.009-.013.025-.033.046-.062h.001c.496-.646,4.02-5.235,1.865-10.393-2.111-5.153-10.4415-11.918-11.8616-13.071-.0591-.048-.1062-.086-.1404-.114-.4994-.41-1.2173-.909-2.05-1.254c1.5382-.288,2.6639-1.659,2.6639-3.367c0-1.025-.4059-1.93-1.0632-2.551c2.4879-3.37,5.8505-4.137,9.9485-3.981c2.0758.078,1.8628-2.999.1488-3.012-1.7139-.013-4.7651.941-6.9988,2.447-1.0424.753-1.9696,1.575-2.8479,2.892-.277.415-.5239.84-.7417,1.273-.4951-.312-1.0808-.49-1.7151-.49h-2.6565Zm3.1753,10.391l-.1418-.307c-.3259-.544-.9842-.938-1.6984-.938-1.0127,0-1.9128.792-1.9128,1.683v.693c0,.891.9001,1.683,1.9128,1.683s1.9128-.792,1.9128-1.683v-.693c0-.15-.0254-.297-.0726-.438ZM73.2788,270.406c.9001-2.218,3.263-4.858,5.6259-7.182l-5.6259,12.251c-.4501-1.373-.7877-3.274,0-5.069Zm20.7197-7.182c2.3629,2.324,4.7258,4.964,5.6259,7.182.7876,1.795.4496,3.696,0,5.069l-5.6259-12.251Zm-9.0119-12.296c-.2253,0-.4507.308-.4507.616s.2254.617.4507.617h2.9293c.2253,0,.4507-.309.4507-.617s-.2254-.616-.4507-.616h-2.9293Zm-.8697,26.664c-.0644-1.062-.0843-2.138-.0726-3.176l1.6893,1.136c.4375.294.9986.294,1.436,0l1.6832-1.132c.0236,1.038.0048,2.114-.0712,3.175l-2.33,1.566-2.3347-1.569Zm.4319,3.596c.1012.518.22,1.013.3584,1.477.407,1.211.812,1.985,1.1496,2.424.1372.178.2374.27.2986.316.0612-.046.1614-.138.2986-.316.3401-.442.7487-1.225,1.1587-2.452.0059-.017.012-.035.0184-.052.1522-.414.2848-.854.3997-1.314l-1.0612.714c-.4374.294-.9985.294-1.436,0l-1.1848-.797Zm1.9028-8.46L84.208,271.22c.2426-1.026,1.1087-1.781,2.2065-1.781c1.222,0,2.0954.871,2.2331,1.813l-2.196,1.476Z" clip-rule="evenodd" filter="url(#eB3Hm18v9Xp48-filter)" fill="url(#eB3Hm18v9Xp48-fill)" fill-rule="evenodd" stroke="#47ecff" stroke-linecap="round" stroke-linejoin="round"/><path d="M85.123,248.122c-.6431,0-1.2362.183-1.7357.503-.2194-.437-.4685-.867-.7482-1.286-.8783-1.317-1.8056-2.139-2.848-2.892-2.2337-1.506-5.2849-2.46-6.9989-2.447s-1.9267,3.09.1489,3.012c4.1042-.156,7.4707.613,9.9597,3.997-.6479.62-1.0472,1.518-1.0472,2.535c0,1.698,1.112,3.062,2.6357,3.362-.6827.301-1.3016.746-1.984,1.259-.0319.03-.1454.123-.3265.271-1.7347,1.424-9.6755,7.941-11.713,12.914-2.1551,5.158,1.3694,9.747,1.8655,10.393.022.028.038.049.0473.062.6102.817,2.0757.727,2.4754-.211l7.8428-16.956c.3216.313.6933.585,1.1045.807.5707.493.9182,1.179.9182,1.735c0,.613-.2161.77-1.1827,1.471l-.1504.11c-.0581.042-.0903.082-.0994.119-1.2986.925-2.2156,2.421-2.4171,4.21-.0031.028-.0056.055-.0075.083-.2393,3.467-.2649,8.732.9035,12.616.0055.018.0113.036.0173.054.4766,1.426,1.0435,2.633,1.7231,3.517.6717.873,1.6262,1.64,2.8491,1.64s2.1774-.767,2.8491-1.64c.6755-.879,1.2396-2.076,1.7144-3.491c1.4365-3.93,1.4051-9.216,1.0463-12.721-.1389-2.159-1.4032-3.822-3.0529-4.663-.7965-.565-.9042-.744-.9042-1.305c0-.635.8144-1.429,1.5597-1.951.0466-.033.0608-.064.0468-.092.2135-.149.4127-.313.5958-.49l7.8388,16.947c.3997.938,1.8652,1.028,2.4758.211.009-.013.025-.033.046-.062h.001c.496-.646,4.02-5.235,1.865-10.393-2.111-5.153-10.4415-11.918-11.8616-13.071-.0591-.048-.1062-.086-.1404-.114-.4994-.41-1.2173-.909-2.05-1.254c1.5382-.288,2.6639-1.659,2.6639-3.367c0-1.025-.4059-1.93-1.0632-2.551c2.4879-3.37,5.8505-4.137,9.9485-3.981c2.0758.078,1.8628-2.999.1488-3.012-1.7139-.013-4.7651.941-6.9988,2.447-1.0424.753-1.9696,1.575-2.8479,2.892-.277.415-.5239.84-.7417,1.273-.4951-.312-1.0808-.49-1.7151-.49h-2.6565Zm3.1753,10.391l-.1418-.307c-.3259-.544-.9842-.938-1.6984-.938-1.0127,0-1.9128.792-1.9128,1.683v.693c0,.891.9001,1.683,1.9128,1.683s1.9128-.792,1.9128-1.683v-.693c0-.15-.0254-.297-.0726-.438ZM73.2788,270.406c.9001-2.218,3.263-4.858,5.6259-7.182l-5.6259,12.251c-.4501-1.373-.7877-3.274,0-5.069Zm20.7197-7.182c2.3629,2.324,4.7258,4.964,5.6259,7.182.7876,1.795.4496,3.696,0,5.069l-5.6259-12.251Zm-9.0119-12.296c-.2253,0-.4507.308-.4507.616s.2254.617.4507.617h2.9293c.2253,0,.4507-.309.4507-.617s-.2254-.616-.4507-.616h-2.9293Zm-.8697,26.664c-.0644-1.062-.0843-2.138-.0726-3.176l1.6893,1.136c.4375.294.9986.294,1.436,0l1.6832-1.132c.0236,1.038.0048,2.114-.0712,3.175l-2.33,1.566-2.3347-1.569Zm.4319,3.596c.1012.518.22,1.013.3584,1.477.407,1.211.812,1.985,1.1496,2.424.1372.178.2374.27.2986.316.0612-.046.1614-.138.2986-.316.3401-.442.7487-1.225,1.1587-2.452.0059-.017.012-.035.0184-.052.1522-.414.2848-.854.3997-1.314l-1.0612.714c-.4374.294-.9985.294-1.436,0l-1.1848-.797Zm1.9028-8.46L84.208,271.22c.2426-1.026,1.1087-1.781,2.2065-1.781c1.222,0,2.0954.871,2.2331,1.813l-2.196,1.476Z" clip-rule="evenodd" fill="url(#eB3Hm18v9Xp49-fill)" fill-rule="evenodd"/><path d="M85.123,248.122c-.6431,0-1.2362.183-1.7357.503-.2194-.437-.4685-.867-.7482-1.286-.8783-1.317-1.8056-2.139-2.848-2.892-2.2337-1.506-5.2849-2.46-6.9989-2.447s-1.9267,3.09.1489,3.012c4.1042-.156,7.4707.613,9.9597,3.997-.6479.62-1.0472,1.518-1.0472,2.535c0,1.698,1.112,3.062,2.6357,3.362-.6827.301-1.3016.746-1.984,1.259-.0319.03-.1454.123-.3265.271-1.7347,1.424-9.6755,7.941-11.713,12.914-2.1551,5.158,1.3694,9.747,1.8655,10.393.022.028.038.049.0473.062.6102.817,2.0757.727,2.4754-.211l7.8428-16.956c.3216.313.6933.585,1.1045.807.5707.493.9182,1.179.9182,1.735c0,.613-.2161.77-1.1827,1.471l-.1504.11c-.0581.042-.0903.082-.0994.119-1.2986.925-2.2156,2.421-2.4171,4.21-.0031.028-.0056.055-.0075.083-.2393,3.467-.2649,8.732.9035,12.616.0055.018.0113.036.0173.054.4766,1.426,1.0435,2.633,1.7231,3.517.6717.873,1.6262,1.64,2.8491,1.64s2.1774-.767,2.8491-1.64c.6755-.879,1.2396-2.076,1.7144-3.491c1.4365-3.93,1.4051-9.216,1.0463-12.721-.1389-2.159-1.4032-3.822-3.0529-4.663-.7965-.565-.9042-.744-.9042-1.305c0-.635.8144-1.429,1.5597-1.951.0466-.033.0608-.064.0468-.092.2135-.149.4127-.313.5958-.49l7.8388,16.947c.3997.938,1.8652,1.028,2.4758.211.009-.013.025-.033.046-.062h.001c.496-.646,4.02-5.235,1.865-10.393-2.111-5.153-10.4415-11.918-11.8616-13.071-.0591-.048-.1062-.086-.1404-.114-.4994-.41-1.2173-.909-2.05-1.254c1.5382-.288,2.6639-1.659,2.6639-3.367c0-1.025-.4059-1.93-1.0632-2.551c2.4879-3.37,5.8505-4.137,9.9485-3.981c2.0758.078,1.8628-2.999.1488-3.012-1.7139-.013-4.7651.941-6.9988,2.447-1.0424.753-1.9696,1.575-2.8479,2.892-.277.415-.5239.84-.7417,1.273-.4951-.312-1.0808-.49-1.7151-.49h-2.6565Zm3.1753,10.391l-.1418-.307c-.3259-.544-.9842-.938-1.6984-.938-1.0127,0-1.9128.792-1.9128,1.683v.693c0,.891.9001,1.683,1.9128,1.683s1.9128-.792,1.9128-1.683v-.693c0-.15-.0254-.297-.0726-.438ZM73.2788,270.406c.9001-2.218,3.263-4.858,5.6259-7.182l-5.6259,12.251c-.4501-1.373-.7877-3.274,0-5.069Zm20.7197-7.182c2.3629,2.324,4.7258,4.964,5.6259,7.182.7876,1.795.4496,3.696,0,5.069l-5.6259-12.251Zm-9.0119-12.296c-.2253,0-.4507.308-.4507.616s.2254.617.4507.617h2.9293c.2253,0,.4507-.309.4507-.617s-.2254-.616-.4507-.616h-2.9293Zm-.8697,26.664c-.0644-1.062-.0843-2.138-.0726-3.176l1.6893,1.136c.4375.294.9986.294,1.436,0l1.6832-1.132c.0236,1.038.0048,2.114-.0712,3.175l-2.33,1.566-2.3347-1.569Zm.4319,3.596c.1012.518.22,1.013.3584,1.477.407,1.211.812,1.985,1.1496,2.424.1372.178.2374.27.2986.316.0612-.046.1614-.138.2986-.316.3401-.442.7487-1.225,1.1587-2.452.0059-.017.012-.035.0184-.052.1522-.414.2848-.854.3997-1.314l-1.0612.714c-.4374.294-.9985.294-1.436,0l-1.1848-.797Zm1.9028-8.46L84.208,271.22c.2426-1.026,1.1087-1.781,2.2065-1.781c1.222,0,2.0954.871,2.2331,1.813l-2.196,1.476Z" clip-rule="evenodd" fill="none" fill-rule="evenodd" stroke="#47ecff" stroke-linecap="round" stroke-linejoin="round"/></g></g></g><g id="eB3Hm18v9Xp51_to" transform="translate(236,321.5)"><g transform="translate(-236,-321.5)"><path d="M204,321.534v.138c13.153,0,18.326,2.777,23.258,7.374c4.918,4.586,8.335,8.652,8.606,24.954h.136c.203-15.339,3.332-19.798,8.151-24.53c4.823-4.737,10.29-8.004,23.849-7.798v-.138c-16.949.207-22.931-5.396-26.766-11.182C237.358,304.503,236,300.693,236,289h-.136c0,11.143-1.527,15.672-5.418,21.478-3.85,5.743-10.243,11.056-26.446,11.056Z" fill="#369fab"/><path d="M204,321.034h-.5v.5.138.5h.5c6.545,0,11.063.691,14.543,1.934c3.47,1.239,5.94,3.037,8.374,5.306c2.443,2.278,4.464,4.382,5.925,7.909c1.468,3.543,2.387,8.563,2.522,16.687l.009.492h.491.136.493l.007-.493c.101-7.643.932-12.524,2.311-16.068c1.373-3.529,3.303-5.768,5.69-8.112c2.381-2.339,4.896-4.291,8.475-5.642c3.586-1.354,8.275-2.116,15.016-2.013l.508.008v-.508-.138-.506l-.506.006c-8.421.103-14.067-1.238-18.067-3.288-3.992-2.046-6.387-4.82-8.276-7.67-1.923-2.903-3.199-5.265-4.004-8.335-.807-3.083-1.147-6.907-1.147-12.741v-.5h-.5-.136-.5v.5c0,5.553-.381,9.421-1.233,12.611-.849,3.181-2.174,5.714-4.1,8.588-1.89,2.819-4.389,5.515-8.398,7.513-4.017,2.002-9.584,3.322-17.633,3.322Z" filter="url(#eB3Hm18v9Xp53-filter)" fill="none" stroke="#47ecff" stroke-width="4"/><path d="M204.07,322.172c6.518.005,11.022.698,14.492,1.941c3.46,1.238,5.925,3.034,8.355,5.299c2.44,2.275,4.458,4.376,5.919,7.894c1.467,3.534,2.388,8.538,2.527,16.633.005.296.245.561.569.561.325,0,.565-.265.569-.562.105-7.615.937-12.481,2.316-16.015c1.372-3.52,3.3-5.756,5.684-8.096c2.377-2.335,4.888-4.284,8.456-5.635c3.577-1.353,8.25-2.118,14.966-2.021.304.004.577-.239.577-.568s-.273-.571-.576-.568c-8.394.095-14.024-1.249-18.013-3.298-3.982-2.045-6.374-4.815-8.26-7.661-1.92-2.897-3.194-5.256-3.999-8.317-.808-3.074-1.149-6.884-1.152-12.69c0-.301-.241-.569-.568-.569-.325,0-.567.267-.568.569-.003,5.527-.386,9.381-1.238,12.562-.85,3.172-2.173,5.7-4.095,8.568-1.887,2.815-4.382,5.507-8.381,7.505-4.006,2.001-9.557,3.323-17.58,3.33-.302.001-.57.243-.57.569s.268.569.57.569Z" fill="#369fab" stroke="#47ecff"/></g></g><g id="eB3Hm18v9Xp55_to" transform="translate(85,147.5)"><g id="eB3Hm18v9Xp55_ts" transform="scale(1,1)"><g transform="translate(-85,-147.5)"><g><path d="M85,135c2.2091,0,4,1.791,4,4h2c3.3137,0,6,2.686,6,6v9c0,3.314-2.6863,6-6,6h-12c-3.3137,0-6-2.686-6-6v-9c0-3.314,2.6863-6,6-6h2c0-2.209,1.7909-4,4-4Zm10,17v-5h-3.5c-1.3807,0-2.5,1.119-2.5,2.5s1.1193,2.5,2.5,2.5h3.5Zm0-7h-3.5c-2.4853,0-4.5,2.015-4.5,4.5s2.0147,4.5,4.5,4.5h3.5c0,2.209-1.7909,4-4,4h-12c-2.2091,0-4-1.791-4-4v-9c0-2.209,1.7909-4,4-4h12c2.2091,0,4,1.791,4,4Z" clip-rule="evenodd" fill="#369fab" fill-rule="evenodd" stroke="#47ecff"/></g><g><path d="M85,135c2.2091,0,4,1.791,4,4h2c3.3137,0,6,2.686,6,6v9c0,3.314-2.6863,6-6,6h-12c-3.3137,0-6-2.686-6-6v-9c0-3.314,2.6863-6,6-6h2c0-2.209,1.7909-4,4-4Zm10,17v-5h-3.5c-1.3807,0-2.5,1.119-2.5,2.5s1.1193,2.5,2.5,2.5h3.5Zm0-7h-3.5c-2.4853,0-4.5,2.015-4.5,4.5s2.0147,4.5,4.5,4.5h3.5c0,2.209-1.7909,4-4,4h-12c-2.2091,0-4-1.791-4-4v-9c0-2.209,1.7909-4,4-4h12c2.2091,0,4,1.791,4,4Z" clip-rule="evenodd" filter="url(#eB3Hm18v9Xp59-filter)" fill="#369fab" fill-rule="evenodd" stroke="#47ecff"/><path d="M85,135c2.2091,0,4,1.791,4,4h2c3.3137,0,6,2.686,6,6v9c0,3.314-2.6863,6-6,6h-12c-3.3137,0-6-2.686-6-6v-9c0-3.314,2.6863-6,6-6h2c0-2.209,1.7909-4,4-4Zm10,17v-5h-3.5c-1.3807,0-2.5,1.119-2.5,2.5s1.1193,2.5,2.5,2.5h3.5Zm0-7h-3.5c-2.4853,0-4.5,2.015-4.5,4.5s2.0147,4.5,4.5,4.5h3.5c0,2.209-1.7909,4-4,4h-12c-2.2091,0-4-1.791-4-4v-9c0-2.209,1.7909-4,4-4h12c2.2091,0,4,1.791,4,4Z" clip-rule="evenodd" fill="#369fab" fill-rule="evenodd" stroke="#47ecff" stroke-width="0.5"/></g></g></g></g><g id="eB3Hm18v9Xp61_to" transform="translate(324.654053,300.5)"><g id="eB3Hm18v9Xp61_ts" transform="scale(0,0)"><g transform="translate(-279.748998,-135.379176)"><g filter="url(#eB3Hm18v9Xp62-filter)"><path d="M279.749,124c.397,0,.719.322.719.719v21.77c0,.747-.322,1.12-.719,1.12s-.719-.373-.719-1.12v-21.77c0-.397.322-.719.719-.719Z" clip-rule="evenodd" fill="#369fab" fill-rule="evenodd" stroke="#47ecff" stroke-linecap="round" stroke-miterlimit="10"/><path d="M291.587,130.49c-.144-.37-.561-.554-.931-.41l.261.671c-.261-.671-.262-.67-.262-.67h-.001l-.002.001-.006.002-.017.008c-.014.005-.033.013-.057.023-.047.021-.112.05-.192.089-.161.079-.384.196-.649.36-.529.326-1.229.838-1.927,1.586-1.408,1.508-2.781,3.949-2.781,7.674v2.557c0,.397-.032,1.307.342,1.12.373-.187.933-.933.933-2.614v-1.063c0-3.332,1.378-5.429,2.558-6.692.595-.638,1.189-1.072,1.63-1.344.221-.136.402-.231.524-.29.061-.03.107-.051.136-.063.014-.007.025-.011.03-.013l.005-.002c.368-.145.55-.561.406-.93Z" clip-rule="evenodd" fill="#369fab" fill-rule="evenodd" stroke="#47ecff" stroke-linecap="round" stroke-miterlimit="10"/><path d="M268.049,130.516c.144-.371.561-.554.932-.41l-.262.671c.262-.671.262-.67.262-.67h.001l.003.001.006.002.017.007c.014.006.033.014.056.024.047.021.112.05.193.089.161.079.384.196.649.36.529.326,1.228.838,1.927,1.586c1.408,1.508,2.781,3.949,2.781,7.674v2.557c0,.397.031,1.307-.342,1.12s-1.044-.934-1.044-2.614v-1.063c0-3.332-1.267-5.429-2.447-6.693-.595-.637-1.189-1.071-1.631-1.343-.22-.136-.401-.231-.523-.29-.061-.03-.107-.051-.136-.063-.015-.007-.025-.011-.03-.013l-.005-.002c-.369-.145-.551-.561-.407-.93Z" clip-rule="evenodd" fill="#369fab" fill-rule="evenodd" stroke="#47ecff" stroke-linecap="round" stroke-miterlimit="10"/><path d="M286.787,127.072c-.273-.288-.744-.284-1.032-.01-.083.081.031-.043-.164.171-.104.114-.248.28-.418.499-.339.438-.784,1.088-1.226,1.957-.886,1.742-1.757,4.354-1.757,7.882c0,1.026.013,2.791.025,4.297.007.754.013,1.444.017,1.945l.008,1.556c.004.397-.044.82.324.746.933-.186,1.107-1.68,1.107-2.8-.005-.501-.011-.706-.017-1.459-.013-1.507-.025-3.266-.025-4.285c0-3.282.808-5.672,1.6-7.23.397-.78.791-1.354,1.081-1.727.145-.187.264-.324.343-.411.036-.04.073-.079.111-.116.286-.274.297-.728.023-1.015Z" clip-rule="evenodd" fill="#369fab" fill-rule="evenodd" stroke="#47ecff" stroke-linecap="round" stroke-miterlimit="10"/><path d="M272.849,127.072c.274-.288.729-.3,1.017-.026l-.496.521c.496-.521.497-.52.497-.52v0l.002.002.004.004.012.011c.009.009.021.022.036.037.031.031.073.075.125.132.104.114.248.28.417.499.34.438.785,1.088,1.227,1.957.886,1.742,1.756,4.354,1.756,7.883c0,1.025-.012,2.79-.025,4.296-.006.754-.012,1.444-.017,1.945l-.008,1.556c-.004.397.045.82-.323.747-.934-.187-1.107-1.681-1.107-2.801.004-.501.011-.706.017-1.459.012-1.507.025-3.266.025-4.284c0-3.283-.808-5.673-1.6-7.231-.397-.78-.792-1.354-1.081-1.727-.145-.187-.264-.324-.344-.411-.04-.044-.07-.075-.088-.094-.01-.01-.016-.016-.019-.019l-.003-.003c-.286-.274-.297-.728-.024-1.015Z" clip-rule="evenodd" fill="#369fab" fill-rule="evenodd" stroke="#47ecff" stroke-linecap="round" stroke-miterlimit="10"/></g><g transform="translate(.000001 0)"><path d="M279.749,124c.397,0,.719.322.719.719v21.77c0,.747-.322,1.12-.719,1.12s-.719-.373-.719-1.12v-21.77c0-.397.322-.719.719-.719Z" clip-rule="evenodd" fill="#369fab" fill-rule="evenodd" stroke="#47ecff" stroke-width="0.5" stroke-linecap="round" stroke-linejoin="round" stroke-miterlimit="10"/><path d="M291.587,130.49c-.144-.37-.561-.554-.931-.41l.261.671c-.261-.671-.262-.67-.262-.67h-.001l-.002.001-.006.002-.017.008c-.014.005-.033.013-.057.023-.047.021-.112.05-.192.089-.161.079-.384.196-.649.36-.529.326-1.229.838-1.927,1.586-1.408,1.508-2.781,3.949-2.781,7.674v2.557c0,.397-.032,1.307.342,1.12.373-.187.933-.933.933-2.614v-1.063c0-3.332,1.378-5.429,2.558-6.692.595-.638,1.189-1.072,1.63-1.344.221-.136.402-.231.524-.29.061-.03.107-.051.136-.063.014-.007.025-.011.03-.013l.005-.002c.368-.145.55-.561.406-.93Z" transform="matrix(1 0 0 1.155879 0-21.320894)" clip-rule="evenodd" fill="#369fab" fill-rule="evenodd" stroke="#47ecff" stroke-width="0.5" stroke-linecap="round" stroke-linejoin="round" stroke-miterlimit="10"/><path d="M268.049,130.516c.144-.371.561-.554.932-.41l-.262.671c.262-.671.262-.67.262-.67h.001l.003.001.006.002.017.007c.014.006.033.014.056.024.047.021.112.05.193.089.161.079.384.196.649.36.529.326,1.228.838,1.927,1.586c1.408,1.508,2.781,3.949,2.781,7.674v2.557c0,.397.031,1.307-.342,1.12s-1.044-.934-1.044-2.614v-1.063c0-3.332-1.267-5.429-2.447-6.693-.595-.637-1.189-1.071-1.631-1.343-.22-.136-.401-.231-.523-.29-.061-.03-.107-.051-.136-.063-.015-.007-.025-.011-.03-.013l-.005-.002c-.369-.145-.551-.561-.407-.93Z" clip-rule="evenodd" fill="#369fab" fill-rule="evenodd" stroke="#47ecff" stroke-width="0.5" stroke-linecap="round" stroke-linejoin="round" stroke-miterlimit="10"/><path d="M286.787,127.072c-.273-.288-.744-.284-1.032-.01-.083.081.031-.043-.164.171-.104.114-.248.28-.418.499-.339.438-.784,1.088-1.226,1.957-.886,1.742-1.757,4.354-1.757,7.882c0,1.026.013,2.791.025,4.297.007.754.013,1.444.017,1.945l.008,1.556c.004.397-.044.82.324.746.933-.186,1.107-1.68,1.107-2.8-.005-.501-.011-.706-.017-1.459-.013-1.507-.025-3.266-.025-4.285c0-3.282.808-5.672,1.6-7.23.397-.78.791-1.354,1.081-1.727.145-.187.264-.324.343-.411.036-.04.073-.079.111-.116.286-.274.297-.728.023-1.015Z" clip-rule="evenodd" fill="#369fab" fill-rule="evenodd" stroke="#47ecff" stroke-width="0.5" stroke-linecap="round" stroke-linejoin="round" stroke-miterlimit="10"/><path d="M272.849,127.072c.274-.288.729-.3,1.017-.026l-.496.521c.496-.521.497-.52.497-.52v0l.002.002.004.004.012.011c.009.009.021.022.036.037.031.031.073.075.125.132.104.114.248.28.417.499.34.438.785,1.088,1.227,1.957.886,1.742,1.756,4.354,1.756,7.883c0,1.025-.012,2.79-.025,4.296-.006.754-.012,1.444-.017,1.945l-.008,1.556c-.004.397.045.82-.323.747-.934-.187-1.107-1.681-1.107-2.801.004-.501.011-.706.017-1.459.012-1.507.025-3.266.025-4.284c0-3.283-.808-5.673-1.6-7.231-.397-.78-.792-1.354-1.081-1.727-.145-.187-.264-.324-.344-.411-.04-.044-.07-.075-.088-.094-.01-.01-.016-.016-.019-.019l-.003-.003c-.286-.274-.297-.728-.024-1.015Z" clip-rule="evenodd" fill="#369fab" fill-rule="evenodd" stroke="#47ecff" stroke-width="0.5" stroke-linecap="round" stroke-linejoin="round" stroke-miterlimit="10"/></g></g></g></g><g id="eB3Hm18v9Xp74_to" transform="translate(145.341995,300.500001)"><g id="eB3Hm18v9Xp74_ts" transform="scale(1,1)"><g transform="translate(-191.00003,-135.5)"><g filter="url(#eB3Hm18v9Xp75-filter)"><path d="M194.962,124.849c-1.954-1.132-4.405-1.132-6.359,0l-4.648,2.693c-1.834,1.062-2.955,2.964-2.955,5.015v5.886c0,2.051,1.121,3.953,2.955,5.015l4.648,2.693c1.954,1.132,4.405,1.132,6.359,0l4.648-2.693c.437-.253.834-.554,1.185-.894.28-.27.201-.715-.131-.921-.28-.174-.646-.114-.889.108-.25.228-.528.432-.831.608l-4.648,2.693c-1.544.894-3.483.894-5.027,0l-4.648-2.693c-.567-.328-1.045-.757-1.417-1.253-.112-.15-.054-.358.114-.445l1.717-.883c.146-.075.326-.031.43.096.3.366.67.683,1.099.932l3.099,1.795c1.303.754,2.936.754,4.239,0l3.099-1.795c.15-.088.294-.184.429-.287.327-.249.256-.724-.094-.941-.267-.166-.613-.12-.876.051-.041.027-.083.053-.126.077l-3.098,1.795c-.892.517-2.015.517-2.907,0l-3.098-1.795c-.835-.483-1.33-1.337-1.33-2.244v-3.924c0-.907.495-1.761,1.33-2.244l3.098-1.795c.892-.517,2.015-.517,2.907,0l3.098,1.795c.063.036.124.074.182.115.267.182.622.233.895.06.34-.214.412-.675.1-.926-.159-.127-.33-.244-.51-.349l-3.099-1.795c-.407-.236-.847-.398-1.299-.486-.161-.032-.283-.166-.283-.326v-1.925c0-.19.169-.339.36-.304.563.101,1.11.298,1.616.59l4.648,2.693c.315.183.604.397.861.636.244.227.616.288.899.109.326-.206.403-.643.129-.913-.36-.355-.77-.669-1.223-.931l-4.648-2.693Zm-5.693,1.099c.432-.249.894-.429,1.369-.54.196-.045.375.106.375.302v1.928c0,.154-.112.284-.265.322-.376.094-.742.241-1.085.439l-3.099,1.795c-1.223.709-1.97,1.977-1.97,3.344v3.924c0,.263.028.523.081.775.031.147-.035.3-.171.37l-1.669.859c-.184.095-.411,0-.45-.2-.051-.269-.078-.544-.078-.823v-5.886c0-1.59.869-3.079,2.314-3.916l4.648-2.693Z" clip-rule="evenodd" fill="#369fab" fill-rule="evenodd"/><path d="M190.909,132.032c.636-.368,1.434-.368,2.07,0l1.513.877c.598.346.962.965.962,1.633v1.916c0,.668-.364,1.287-.962,1.633l-1.513.877c-.636.368-1.434.368-2.07,0l-1.514-.877c-.597-.346-.962-.965-.962-1.633v-1.916c0-.668.365-1.287.962-1.633l1.514-.877Zm1.419,1.074l1.513.877c.218.126.337.341.337.559v1.916c0,.218-.119.434-.337.559l-1.513.877c-.235.136-.534.136-.769,0l-1.513-.877c-.217-.125-.336-.341-.336-.559v-1.916c0-.218.119-.433.336-.559l1.513-.877c.235-.136.534-.136.769,0Z" clip-rule="evenodd" fill="#369fab" fill-rule="evenodd"/><path d="M194.962,124.849c-1.954-1.132-4.405-1.132-6.359,0l-4.648,2.693c-1.834,1.062-2.955,2.964-2.955,5.015v5.886c0,2.051,1.121,3.953,2.955,5.015l4.648,2.693c1.954,1.132,4.405,1.132,6.359,0l4.648-2.693c.437-.253.834-.554,1.185-.894.28-.27.201-.715-.131-.921-.28-.174-.646-.114-.889.108-.25.228-.528.432-.831.608l-4.648,2.693c-1.544.894-3.483.894-5.027,0l-4.648-2.693c-.567-.328-1.045-.757-1.417-1.253-.112-.15-.054-.358.114-.445l1.717-.883c.146-.075.326-.031.43.096.3.366.67.683,1.099.932l3.099,1.795c1.303.754,2.936.754,4.239,0l3.099-1.795c.15-.088.294-.184.429-.287.327-.249.256-.724-.094-.941-.267-.166-.613-.12-.876.051-.041.027-.083.053-.126.077l-3.098,1.795c-.892.517-2.015.517-2.907,0l-3.098-1.795c-.835-.483-1.33-1.337-1.33-2.244v-3.924c0-.907.495-1.761,1.33-2.244l3.098-1.795c.892-.517,2.015-.517,2.907,0l3.098,1.795c.063.036.124.074.182.115.267.182.622.233.895.06.34-.214.412-.675.1-.926-.159-.127-.33-.244-.51-.349l-3.099-1.795c-.407-.236-.847-.398-1.299-.486-.161-.032-.283-.166-.283-.326v-1.925c0-.19.169-.339.36-.304.563.101,1.11.298,1.616.59l4.648,2.693c.315.183.604.397.861.636.244.227.616.288.899.109.326-.206.403-.643.129-.913-.36-.355-.77-.669-1.223-.931l-4.648-2.693Zm-5.693,1.099c.432-.249.894-.429,1.369-.54.196-.045.375.106.375.302v1.928c0,.154-.112.284-.265.322-.376.094-.742.241-1.085.439l-3.099,1.795c-1.223.709-1.97,1.977-1.97,3.344v3.924c0,.263.028.523.081.775.031.147-.035.3-.171.37l-1.669.859c-.184.095-.411,0-.45-.2-.051-.269-.078-.544-.078-.823v-5.886c0-1.59.869-3.079,2.314-3.916l4.648-2.693Z" clip-rule="evenodd" fill="none" fill-rule="evenodd" stroke="#47ecff"/><path d="M190.909,132.032c.636-.368,1.434-.368,2.07,0l1.513.877c.598.346.962.965.962,1.633v1.916c0,.668-.364,1.287-.962,1.633l-1.513.877c-.636.368-1.434.368-2.07,0l-1.514-.877c-.597-.346-.962-.965-.962-1.633v-1.916c0-.668.365-1.287.962-1.633l1.514-.877Zm1.419,1.074l1.513.877c.218.126.337.341.337.559v1.916c0,.218-.119.434-.337.559l-1.513.877c-.235.136-.534.136-.769,0l-1.513-.877c-.217-.125-.336-.341-.336-.559v-1.916c0-.218.119-.433.336-.559l1.513-.877c.235-.136.534-.136.769,0Z" clip-rule="evenodd" fill="none" fill-rule="evenodd" stroke="#47ecff"/></g><g><path d="M194.962,124.849c-1.954-1.132-4.405-1.132-6.359,0l-4.648,2.693c-1.834,1.062-2.955,2.964-2.955,5.015v5.886c0,2.051,1.121,3.953,2.955,5.015l4.648,2.693c1.954,1.132,4.405,1.132,6.359,0l4.648-2.693c.437-.253.834-.554,1.185-.894.28-.27.201-.715-.131-.921-.28-.174-.646-.114-.889.108-.25.228-.528.432-.831.608l-4.648,2.693c-1.544.894-3.483.894-5.027,0l-4.648-2.693c-.567-.328-1.045-.757-1.417-1.253-.112-.15-.054-.358.114-.445l1.717-.883c.146-.075.326-.031.43.096.3.366.67.683,1.099.932l3.099,1.795c1.303.754,2.936.754,4.239,0l3.099-1.795c.15-.088.294-.184.429-.287.327-.249.256-.724-.094-.941-.267-.166-.613-.12-.876.051-.041.027-.083.053-.126.077l-3.098,1.795c-.892.517-2.015.517-2.907,0l-3.098-1.795c-.835-.483-1.33-1.337-1.33-2.244v-3.924c0-.907.495-1.761,1.33-2.244l3.098-1.795c.892-.517,2.015-.517,2.907,0l3.098,1.795c.063.036.124.074.182.115.267.182.622.233.895.06.34-.214.412-.675.1-.926-.159-.127-.33-.244-.51-.349l-3.099-1.795c-.407-.236-.847-.398-1.299-.486-.161-.032-.283-.166-.283-.326v-1.925c0-.19.169-.339.36-.304.563.101,1.11.298,1.616.59l4.648,2.693c.315.183.604.397.861.636.244.227.616.288.899.109.326-.206.403-.643.129-.913-.36-.355-.77-.669-1.223-.931l-4.648-2.693Zm-5.693,1.099c.432-.249.894-.429,1.369-.54.196-.045.375.106.375.302v1.928c0,.154-.112.284-.265.322-.376.094-.742.241-1.085.439l-3.099,1.795c-1.223.709-1.97,1.977-1.97,3.344v3.924c0,.263.028.523.081.775.031.147-.035.3-.171.37l-1.669.859c-.184.095-.411,0-.45-.2-.051-.269-.078-.544-.078-.823v-5.886c0-1.59.869-3.079,2.314-3.916l4.648-2.693Z" clip-rule="evenodd" fill="#369fab" fill-rule="evenodd"/><path d="M190.909,132.032c.636-.368,1.434-.368,2.07,0l1.513.877c.598.346.962.965.962,1.633v1.916c0,.668-.364,1.287-.962,1.633l-1.513.877c-.636.368-1.434.368-2.07,0l-1.514-.877c-.597-.346-.962-.965-.962-1.633v-1.916c0-.668.365-1.287.962-1.633l1.514-.877Zm1.419,1.074l1.513.877c.218.126.337.341.337.559v1.916c0,.218-.119.434-.337.559l-1.513.877c-.235.136-.534.136-.769,0l-1.513-.877c-.217-.125-.336-.341-.336-.559v-1.916c0-.218.119-.433.336-.559l1.513-.877c.235-.136.534-.136.769,0Z" clip-rule="evenodd" fill="#369fab" fill-rule="evenodd"/><path d="M194.962,124.849c-1.954-1.132-4.405-1.132-6.359,0l-4.648,2.693c-1.834,1.062-2.955,2.964-2.955,5.015v5.886c0,2.051,1.121,3.953,2.955,5.015l4.648,2.693c1.954,1.132,4.405,1.132,6.359,0l4.648-2.693c.437-.253.834-.554,1.185-.894.28-.27.201-.715-.131-.921-.28-.174-.646-.114-.889.108-.25.228-.528.432-.831.608l-4.648,2.693c-1.544.894-3.483.894-5.027,0l-4.648-2.693c-.567-.328-1.045-.757-1.417-1.253-.112-.15-.054-.358.114-.445l1.717-.883c.146-.075.326-.031.43.096.3.366.67.683,1.099.932l3.099,1.795c1.303.754,2.936.754,4.239,0l3.099-1.795c.15-.088.294-.184.429-.287.327-.249.256-.724-.094-.941-.267-.166-.613-.12-.876.051-.041.027-.083.053-.126.077l-3.098,1.795c-.892.517-2.015.517-2.907,0l-3.098-1.795c-.835-.483-1.33-1.337-1.33-2.244v-3.924c0-.907.495-1.761,1.33-2.244l3.098-1.795c.892-.517,2.015-.517,2.907,0l3.098,1.795c.063.036.124.074.182.115.267.182.622.233.895.06.34-.214.412-.675.1-.926-.159-.127-.33-.244-.51-.349l-3.099-1.795c-.407-.236-.847-.398-1.299-.486-.161-.032-.283-.166-.283-.326v-1.925c0-.19.169-.339.36-.304.563.101,1.11.298,1.616.59l4.648,2.693c.315.183.604.397.861.636.244.227.616.288.899.109.326-.206.403-.643.129-.913-.36-.355-.77-.669-1.223-.931l-4.648-2.693Zm-5.693,1.099c.432-.249.894-.429,1.369-.54.196-.045.375.106.375.302v1.928c0,.154-.112.284-.265.322-.376.094-.742.241-1.085.439l-3.099,1.795c-1.223.709-1.97,1.977-1.97,3.344v3.924c0,.263.028.523.081.775.031.147-.035.3-.171.37l-1.669.859c-.184.095-.411,0-.45-.2-.051-.269-.078-.544-.078-.823v-5.886c0-1.59.869-3.079,2.314-3.916l4.648-2.693Z" clip-rule="evenodd" fill="none" fill-rule="evenodd" stroke="#47ecff" stroke-width="0.5"/><path d="M190.909,132.032c.636-.368,1.434-.368,2.07,0l1.513.877c.598.346.962.965.962,1.633v1.916c0,.668-.364,1.287-.962,1.633l-1.513.877c-.636.368-1.434.368-2.07,0l-1.514-.877c-.597-.346-.962-.965-.962-1.633v-1.916c0-.668.365-1.287.962-1.633l1.514-.877Zm1.419,1.074l1.513.877c.218.126.337.341.337.559v1.916c0,.218-.119.434-.337.559l-1.513.877c-.235.136-.534.136-.769,0l-1.513-.877c-.217-.125-.336-.341-.336-.559v-1.916c0-.218.119-.433.336-.559l1.513-.877c.235-.136.534-.136.769,0Z" clip-rule="evenodd" fill="none" fill-rule="evenodd" stroke="#47ecff" stroke-width="0.5"/></g></g></g></g><g><g id="eB3Hm18v9Xp86_to" transform="translate(328.445999,131.918003)"><g id="eB3Hm18v9Xp86_ts" transform="scale(1,1)"><g transform="translate(-328.445999,-131.918003)"><path d="M296.578,104.758h36.576c15,0,27.16,12.16,27.16,27.159c0,15.001-12.16,27.161-27.16,27.161h-36.576v-54.32Z" fill="url(#eB3Hm18v9Xp87-fill)"/><path d="M304.545,111.548h27.431c11.251,0,20.37,9.12,20.37,20.369c0,11.25-9.119,20.37-20.37,20.37h-27.431v-40.739Z" fill="url(#eB3Hm18v9Xp88-fill)"/></g></g></g><g id="eB3Hm18v9Xp89_to" transform="translate(151.002499,131.918003)"><g id="eB3Hm18v9Xp89_ts" transform="scale(1,1)"><g transform="translate(-151.002498,-131.918003)"><path d="M182.87,104.758h-36.576c-14.999,0-27.159,12.16-27.159,27.159c0,15.001,12.16,27.161,27.16,27.161h36.575v-54.32Z" fill="url(#eB3Hm18v9Xp90-fill)"/><path d="M172.373,111.548h-27.431c-11.25,0-20.37,9.12-20.37,20.369c0,11.25,9.12,20.37,20.37,20.37h27.431v-40.739Z" fill="url(#eB3Hm18v9Xp91-fill)"/></g></g></g><path d="M239.247,216.531c54.262,0,98.251-42.232,98.251-94.327c0-52.0954-43.989-94.327-98.251-94.327s-98.251,42.2316-98.251,94.327c0,52.095,43.989,94.327,98.251,94.327Z" filter="url(#eB3Hm18v9Xp92-filter)" fill="url(#eB3Hm18v9Xp92-fill)"/><g><path d="M239.245,207.117c51.862,0,93.903-39.572,93.903-88.386c0-48.8142-42.041-88.3863-93.903-88.3863-51.861,0-93.903,39.5721-93.903,88.3863c0,48.814,42.042,88.386,93.903,88.386Z" fill="#cddeec"/></g><g><path d="M250.194,26.6596c40.341-1.0563,61.877,23.9992,71.995,57.3886c10.118,33.3888-11.467,52.2718-53.968,53.4688-42.501,1.198-73.312-11.243-79.344-41.3559-6.033-30.1129,20.974-68.4452,61.317-69.5015Z" transform="translate(0 5)" fill="url(#eB3Hm18v9Xp96-fill)"/></g><g id="eB3Hm18v9Xp97_to" transform="translate(240.139519,140.552159)"><g transform="translate(-240.139519,-140.552158)"><path d="M178.753,112.867c.656-6.871,6.137-12.194,12.99-13.0146c36.986-4.4308,61.419-4.5763,96.742-.0602c6.666.8528,12.004,5.9928,12.755,12.6688c1.954,17.389,2.053,37.983.01,55.874-.756,6.615-6.032,11.709-12.629,12.609-36.35,4.955-60.753,4.887-97.026.026-6.782-.909-12.145-6.243-12.792-13.055-1.65-17.401-1.713-37.636-.05-55.048Z" fill="#fff"/><path d="M178.729,112.749c.663-6.867,6.159-12.168,13.012-12.9709c36.989-4.3342,61.422-4.4764,96.749-.0591c6.663.833,12.018,5.949,12.776,12.621c1.92,16.883,2.017,36.819.01,54.184-.763,6.61-6.057,11.683-12.653,12.563-36.35,4.846-60.753,4.78-97.023.026-6.785-.889-12.167-6.203-12.821-13.015-1.619-16.881-1.681-36.456-.05-53.349Z" fill="url(#eB3Hm18v9Xp99-fill)"/><g id="eB3Hm18v9Xp100_to" transform="translate(239.424225,114.686531)"><g id="eB3Hm18v9Xp100_ts" transform="scale(1,1)"><g transform="translate(-239.424225,-114.686531)" opacity="0.28"><path d="M243.773,127.402c-35.09-.022-60.425-5.879-59.343-11.644c1.082-5.766,26.712-13.517,60.11-13.78c33.4-.262,50.746,6.953,49.881,13.037-1.048,6.101-15.569,12.297-50.648,12.387Z" fill="url(#eB3Hm18v9Xp101-fill)"/></g></g></g><g id="eB3Hm18v9Xp102_to" transform="translate(237.086998,157.912003)"><g transform="translate(-237.086998,-157.912002)"><g transform="translate(0 0.000001)"><path d="M194.251,155.495c-1.255,2.559-.316,5.747,2.279,7.111c2.555,1.253,5.74.309,7.106-2.291c1.255-2.559.316-5.747-2.28-7.111-2.553-1.253-5.774-.232-7.105,2.291Z" fill="#354781"/><path d="M201.707,160.354c-.038-1.058-1.289-1.829-2.933-1.737-1.531.024-2.802.966-2.763,2.025.038,1.058,1.289,1.828,2.933,1.736c1.644-.093,2.802-.966,2.763-2.024Z" opacity="0.5" fill="#385dd6"/><path d="M200.005,161.1c-.028-.293-.528-.601-1.182-.659-.585.055-1.032.331-1.116.693.096.404.526.601,1.181.659.586-.054,1.144-.4,1.117-.693Z" fill="#9cb0cd"/><path d="M196.453,158.36c-.739.303-1.755.161-1.836-.716.005-1.24.482-2.464,1.529-3.269c1.802-1.581,4.711-1.377,6.181.495.667.823,1.039,1.674,1.009,2.621.08.878-1.201,1.054-2.064.662-.681-.351-1.697-.493-2.575-.413-.765.012-1.573.204-2.244.62Z" opacity="0.43" fill="#1a2a63"/></g><g transform="translate(0 0.000001)"><path d="M270.538,155.495c-1.255,2.559-.316,5.747,2.279,7.111c2.554,1.253,5.739.309,7.106-2.291c1.255-2.559.316-5.747-2.28-7.111-2.554-1.253-5.775-.232-7.105,2.291Z" fill="#354781"/><path d="M277.994,160.354c-.038-1.058-1.289-1.829-2.933-1.737-1.532.024-2.802.966-2.764,2.025.038,1.058,1.29,1.828,2.932,1.736c1.644-.093,2.803-.966,2.765-2.024Z" opacity="0.5" fill="#385dd6"/><path d="M276.292,161.1c-.026-.293-.527-.601-1.181-.659-.585.055-1.032.331-1.117.693.097.404.528.601,1.182.659.585-.054,1.143-.4,1.116-.693Z" fill="#9cb0cd"/><path d="M272.738,158.36c-.739.303-1.755.161-1.836-.716.005-1.24.481-2.464,1.529-3.269c1.801-1.581,4.712-1.377,6.182.495.666.823,1.039,1.674,1.008,2.621.081.878-1.202,1.054-2.063.662-.681-.351-1.698-.493-2.575-.413-.767.012-1.575.204-2.245.62Z" opacity="0.43" fill="#1a2a63"/></g></g></g></g></g><g opacity="0.71"><path d="M337.158,122.299c0,52.19-43.838,94.499-97.914,94.499s-97.912-42.309-97.912-94.499c0-52.1893,43.836-94.4977,97.912-94.4977s97.914,42.3084,97.914,94.4977Zm-2.913.505c0,48.748-42.678,78.616-95.145,78.616s-94.856-29.868-94.856-78.616c0-48.7465,42.533-88.2638,95-88.2638c52.468,0,95.001,39.5173,95.001,88.2638Z" clip-rule="evenodd" filter="url(#eB3Hm18v9Xp114-filter)" fill="url(#eB3Hm18v9Xp114-fill)" fill-rule="evenodd"/></g><g filter="url(#eB3Hm18v9Xp115-filter)"><g opacity="0.84"><path d="M261.724,56.8405c12.553,3.0594,24.132-.216,25.862-7.3158c1.731-7.0998-7.042-15.3356-19.596-18.395-12.553-3.0594-24.132.216-25.862,7.3158s7.043,15.3356,19.596,18.395Z" fill="#fff"/></g></g></g></g><clipPath id="eB3Hm18v9Xp118"><rect width="470" height="373" rx="0" ry="0" fill="#fff"/></clipPath></g></svg>