<svg width="382" height="310" viewBox="0 0 382 310" fill="none" xmlns="http://www.w3.org/2000/svg">
<g opacity="0.2">
<path d="M188.314 62.3439C188.314 69.5747 182.452 75.4364 175.221 75.4364C167.991 75.4364 162.129 69.5747 162.129 62.3439C162.129 55.1132 167.991 49.2515 175.221 49.2515C182.452 49.2515 188.314 55.1132 188.314 62.3439Z" fill="url(#paint0_linear_795_7245)"/>
<path d="M182.916 54.2863C181.919 53.102 180.683 52.1419 179.289 51.469C177.894 50.7962 176.374 50.4257 174.826 50.382C173.279 50.3383 171.739 50.6223 170.309 51.2154C168.879 51.8084 167.591 52.6972 166.528 53.8233C165.466 54.9494 164.654 56.2875 164.145 57.7496C163.636 59.2117 163.442 60.7649 163.576 62.3073C163.71 63.8496 164.168 65.3462 164.921 66.6989C165.674 68.0516 166.705 69.2298 167.945 70.1562L170.603 66.5982C169.864 66.0465 169.25 65.3448 168.802 64.5391C168.353 63.7335 168.08 62.8421 168 61.9235C167.921 61.0049 168.036 60.0799 168.339 59.2091C168.642 58.3382 169.126 57.5413 169.759 56.8706C170.391 56.1999 171.159 55.6706 172.011 55.3174C172.862 54.9641 173.779 54.795 174.701 54.821C175.622 54.8471 176.528 55.0677 177.358 55.4684C178.189 55.8692 178.925 56.441 179.519 57.1464L182.916 54.2863Z" fill="url(#paint1_linear_795_7245)"/>
<path d="M185.799 59.3732C186.245 59.2538 186.513 58.7943 186.36 58.359C185.585 56.1542 184.127 54.2532 182.197 52.9344C181.816 52.6739 181.303 52.8133 181.073 53.213C180.842 53.6126 180.981 54.1206 181.359 54.3862C182.908 55.4766 184.088 57.0146 184.74 58.7931C184.899 59.2263 185.354 59.4926 185.799 59.3732Z" fill="url(#paint2_linear_795_7245)"/>
</g>
<g opacity="0.5">
<path d="M313.609 241.062C313.609 252.873 304.034 262.447 292.224 262.447C280.414 262.447 270.84 252.873 270.84 241.062C270.84 229.252 280.414 219.678 292.224 219.678C304.034 219.678 313.609 229.252 313.609 241.062Z" fill="url(#paint3_linear_795_7245)"/>
<path d="M304.792 227.902C303.164 225.967 301.145 224.399 298.867 223.3C296.59 222.201 294.106 221.596 291.578 221.525C289.051 221.453 286.537 221.917 284.201 222.886C281.865 223.854 279.761 225.306 278.026 227.145C276.291 228.985 274.964 231.17 274.133 233.558C273.302 235.947 272.985 238.483 273.204 241.003C273.422 243.522 274.171 245.966 275.401 248.176C276.631 250.385 278.314 252.309 280.34 253.822L284.68 248.011C283.473 247.11 282.471 245.964 281.738 244.648C281.006 243.332 280.56 241.876 280.43 240.376C280.3 238.875 280.488 237.364 280.983 235.942C281.478 234.52 282.268 233.218 283.302 232.123C284.335 231.027 285.589 230.163 286.98 229.586C288.371 229.009 289.868 228.732 291.374 228.775C292.879 228.818 294.358 229.178 295.715 229.832C297.071 230.487 298.274 231.421 299.243 232.573L304.792 227.902Z" fill="url(#paint4_linear_795_7245)"/>
<path d="M309.505 236.21C310.233 236.015 310.67 235.265 310.42 234.553C309.155 230.952 306.773 227.847 303.622 225.693C303 225.268 302.161 225.496 301.785 226.149C301.408 226.801 301.636 227.631 302.252 228.065C304.782 229.846 306.71 232.358 307.775 235.263C308.035 235.97 308.777 236.405 309.505 236.21Z" fill="url(#paint5_linear_795_7245)"/>
<g style="mix-blend-mode:color-dodge">
<g style="mix-blend-mode:color-dodge">
<path fill-rule="evenodd" clip-rule="evenodd" d="M297.981 231.095H287.023V251.903H297.981V231.095ZM288.266 250.609V232.389H290.194C290.314 232.744 290.51 233.069 290.771 233.34C291.231 233.816 291.853 234.084 292.502 234.084C293.151 234.084 293.773 233.816 294.233 233.34C294.494 233.069 294.69 232.744 294.81 232.389H296.738V250.609H288.266Z" fill="#909FBE"/>
</g>
<g style="mix-blend-mode:color-dodge">
<path fill-rule="evenodd" clip-rule="evenodd" d="M286.203 228.999C285.54 228.999 285 229.557 285 230.249V252.749C285 253.441 285.54 253.999 286.203 253.999H298.797C299.46 253.999 300 253.441 300 252.749V230.249C300 229.557 299.46 228.999 298.797 228.999H286.203ZM286.243 252.705V230.293H298.757V252.705H286.243Z" fill="#909FBE"/>
</g>
</g>
</g>
<g filter="url(#filter0_i_795_7245)">
<path fill-rule="evenodd" clip-rule="evenodd" d="M185.488 146.513C185.824 146.504 186.162 146.499 186.5 146.499C186.838 146.499 187.176 146.504 187.512 146.513C187.788 146.521 188.006 146.751 187.998 147.027C187.991 147.303 187.761 147.52 187.485 147.513C187.157 147.504 186.829 147.499 186.5 147.499C186.171 147.499 185.843 147.504 185.515 147.513C185.239 147.52 185.009 147.303 185.002 147.027C184.994 146.751 185.212 146.521 185.488 146.513ZM184.012 147.081C184.035 147.357 183.83 147.598 183.555 147.621C182.899 147.676 182.249 147.748 181.604 147.839C181.331 147.877 181.078 147.686 181.04 147.413C181.001 147.139 181.192 146.887 181.466 146.848C182.129 146.755 182.798 146.681 183.472 146.625C183.747 146.602 183.989 146.806 184.012 147.081ZM188.988 147.081C189.011 146.806 189.253 146.602 189.528 146.625C190.202 146.681 190.871 146.755 191.534 146.848C191.808 146.887 191.999 147.139 191.96 147.413C191.922 147.686 191.669 147.877 191.396 147.839C190.751 147.748 190.101 147.676 189.445 147.621C189.17 147.598 188.965 147.357 188.988 147.081ZM180.062 147.578C180.116 147.849 179.94 148.112 179.669 148.165C179.024 148.293 178.386 148.438 177.755 148.6C177.488 148.669 177.215 148.508 177.146 148.241C177.077 147.973 177.238 147.701 177.506 147.632C178.155 147.465 178.812 147.315 179.475 147.184C179.746 147.131 180.009 147.307 180.062 147.578ZM192.938 147.578C192.991 147.307 193.254 147.131 193.525 147.184C194.188 147.315 194.845 147.465 195.494 147.632C195.762 147.701 195.923 147.973 195.854 148.241C195.785 148.508 195.512 148.669 195.245 148.6C194.614 148.438 193.976 148.293 193.331 148.165C193.06 148.112 192.884 147.849 192.938 147.578ZM176.192 148.515C176.276 148.778 176.131 149.059 175.868 149.143C175.242 149.342 174.624 149.559 174.014 149.792C173.756 149.89 173.467 149.761 173.369 149.503C173.27 149.245 173.4 148.956 173.658 148.857C174.285 148.618 174.921 148.395 175.564 148.19C175.827 148.106 176.109 148.252 176.192 148.515ZM196.808 148.515C196.891 148.252 197.173 148.106 197.436 148.19C198.079 148.395 198.715 148.618 199.342 148.857C199.6 148.956 199.73 149.245 199.631 149.503C199.533 149.761 199.244 149.89 198.986 149.792C198.376 149.559 197.758 149.342 197.132 149.143C196.869 149.059 196.724 148.778 196.808 148.515ZM172.453 149.883C172.565 150.135 172.453 150.431 172.201 150.544C171.602 150.812 171.013 151.096 170.433 151.397C170.187 151.524 169.886 151.428 169.759 151.182C169.632 150.937 169.728 150.636 169.973 150.509C170.57 150.2 171.176 149.907 171.792 149.631C172.044 149.518 172.34 149.631 172.453 149.883ZM200.547 149.883C200.66 149.631 200.956 149.518 201.208 149.631C201.824 149.907 202.43 150.2 203.027 150.509C203.272 150.636 203.368 150.937 203.241 151.182C203.114 151.428 202.813 151.524 202.567 151.397C201.987 151.096 201.398 150.812 200.799 150.544C200.547 150.431 200.435 150.135 200.547 149.883ZM168.891 151.663C169.032 151.901 168.953 152.207 168.715 152.348C168.151 152.681 167.597 153.03 167.054 153.394C166.824 153.548 166.514 153.486 166.36 153.257C166.207 153.027 166.268 152.717 166.497 152.563C167.056 152.189 167.626 151.83 168.206 151.487C168.444 151.346 168.751 151.425 168.891 151.663ZM204.109 151.663C204.249 151.425 204.556 151.346 204.794 151.487C205.374 151.83 205.944 152.189 206.503 152.563C206.732 152.717 206.793 153.027 206.64 153.257C206.486 153.486 206.176 153.548 205.946 153.394C205.403 153.03 204.849 152.681 204.285 152.348C204.047 152.207 203.968 151.901 204.109 151.663ZM207.448 153.831C207.615 153.611 207.928 153.567 208.149 153.733C208.687 154.138 209.213 154.559 209.727 154.993C209.938 155.171 209.964 155.487 209.786 155.698C209.607 155.909 209.292 155.935 209.081 155.757C208.581 155.334 208.07 154.926 207.547 154.531C207.326 154.365 207.282 154.052 207.448 153.831ZM165.552 153.831C165.718 154.052 165.674 154.365 165.453 154.531C164.93 154.926 164.419 155.334 163.919 155.757C163.708 155.935 163.393 155.909 163.214 155.698C163.036 155.487 163.062 155.171 163.273 154.993C163.787 154.559 164.313 154.138 164.851 153.733C165.072 153.567 165.385 153.611 165.552 153.831ZM210.525 156.359C210.715 156.158 211.031 156.149 211.232 156.339C211.721 156.802 212.197 157.278 212.66 157.767C212.85 157.968 212.841 158.284 212.64 158.474C212.439 158.664 212.123 158.655 211.933 158.454C211.483 157.979 211.02 157.516 210.545 157.066C210.344 156.876 210.335 156.559 210.525 156.359ZM162.475 156.359C162.665 156.559 162.656 156.876 162.455 157.066C161.98 157.516 161.517 157.979 161.067 158.454C160.877 158.655 160.561 158.664 160.36 158.474C160.159 158.284 160.15 157.968 160.34 157.767C160.803 157.278 161.279 156.802 161.768 156.339C161.969 156.149 162.285 156.158 162.475 156.359ZM213.301 159.213C213.512 159.035 213.828 159.061 214.006 159.272C214.44 159.786 214.861 160.312 215.266 160.85C215.432 161.071 215.388 161.384 215.168 161.551C214.947 161.717 214.634 161.673 214.468 161.452C214.073 160.929 213.665 160.418 213.242 159.918C213.064 159.707 213.09 159.392 213.301 159.213ZM159.699 159.213C159.91 159.392 159.936 159.707 159.758 159.918C159.335 160.418 158.927 160.929 158.532 161.452C158.366 161.673 158.053 161.717 157.832 161.551C157.612 161.384 157.568 161.071 157.734 160.85C158.139 160.312 158.56 159.786 158.994 159.272C159.172 159.061 159.488 159.035 159.699 159.213ZM215.742 162.359C215.972 162.206 216.282 162.267 216.436 162.496C216.81 163.055 217.169 163.625 217.512 164.205C217.653 164.443 217.574 164.75 217.336 164.89C217.098 165.031 216.792 164.952 216.651 164.714C216.318 164.15 215.969 163.596 215.605 163.053C215.451 162.823 215.513 162.513 215.742 162.359ZM157.258 162.359C157.487 162.513 157.549 162.823 157.395 163.053C157.031 163.596 156.682 164.15 156.349 164.714C156.208 164.952 155.902 165.031 155.664 164.89C155.426 164.75 155.347 164.443 155.488 164.205C155.831 163.625 156.19 163.055 156.564 162.496C156.718 162.267 157.028 162.206 157.258 162.359ZM155.184 165.758C155.429 165.885 155.525 166.186 155.398 166.432C155.097 167.012 154.813 167.601 154.545 168.2C154.432 168.452 154.136 168.564 153.884 168.452C153.632 168.339 153.519 168.043 153.632 167.791C153.908 167.175 154.201 166.569 154.51 165.972C154.637 165.727 154.938 165.631 155.184 165.758ZM217.816 165.758C218.062 165.631 218.363 165.727 218.49 165.972C218.799 166.569 219.092 167.175 219.368 167.791C219.481 168.043 219.368 168.339 219.116 168.452C218.864 168.564 218.568 168.452 218.455 168.2C218.187 167.601 217.903 167.012 217.602 166.432C217.475 166.186 217.571 165.885 217.816 165.758ZM153.504 169.368C153.762 169.466 153.891 169.755 153.793 170.013C153.56 170.623 153.343 171.241 153.144 171.867C153.06 172.13 152.779 172.275 152.516 172.191C152.253 172.108 152.107 171.826 152.191 171.563C152.396 170.92 152.619 170.284 152.858 169.657C152.957 169.399 153.246 169.269 153.504 169.368ZM219.496 169.368C219.754 169.269 220.043 169.399 220.142 169.657C220.381 170.284 220.604 170.92 220.809 171.563C220.893 171.826 220.747 172.108 220.484 172.191C220.221 172.275 219.94 172.13 219.856 171.867C219.657 171.241 219.44 170.623 219.207 170.013C219.109 169.755 219.238 169.466 219.496 169.368ZM152.242 173.145C152.509 173.214 152.67 173.487 152.601 173.754C152.439 174.385 152.294 175.023 152.166 175.668C152.113 175.939 151.85 176.115 151.579 176.061C151.308 176.008 151.132 175.745 151.185 175.474C151.316 174.811 151.466 174.154 151.633 173.505C151.702 173.237 151.974 173.076 152.242 173.145ZM220.758 173.145C221.026 173.076 221.298 173.237 221.367 173.505C221.534 174.154 221.684 174.811 221.815 175.474C221.868 175.745 221.692 176.008 221.421 176.061C221.15 176.115 220.887 175.939 220.834 175.668C220.706 175.023 220.561 174.385 220.399 173.754C220.33 173.487 220.491 173.214 220.758 173.145ZM151.414 177.039C151.687 177.077 151.878 177.33 151.84 177.603C151.749 178.248 151.677 178.898 151.622 179.554C151.599 179.829 151.358 180.034 151.082 180.011C150.807 179.988 150.603 179.746 150.626 179.471C150.682 178.797 150.756 178.128 150.849 177.465C150.888 177.191 151.14 177 151.414 177.039ZM221.586 177.039C221.86 177 222.112 177.191 222.151 177.465C222.244 178.128 222.318 178.797 222.374 179.471C222.397 179.746 222.193 179.988 221.918 180.011C221.642 180.034 221.401 179.829 221.378 179.554C221.323 178.898 221.251 178.248 221.16 177.603C221.122 177.33 221.313 177.077 221.586 177.039ZM151.028 181.001C151.304 181.008 151.521 181.238 151.514 181.514C151.505 181.842 151.5 182.17 151.5 182.499C151.5 182.828 151.505 183.156 151.514 183.484C151.521 183.76 151.304 183.99 151.028 183.997C150.752 184.005 150.522 183.787 150.514 183.511C150.505 183.175 150.5 182.837 150.5 182.499C150.5 182.161 150.505 181.823 150.514 181.487C150.522 181.211 150.752 180.993 151.028 181.001ZM221.972 181.001C222.248 180.993 222.478 181.211 222.486 181.487C222.495 181.823 222.5 182.161 222.5 182.499C222.5 182.837 222.495 183.175 222.486 183.511C222.478 183.787 222.248 184.005 221.972 183.997C221.696 183.99 221.479 183.76 221.486 183.484C221.495 183.156 221.5 182.828 221.5 182.499C221.5 182.17 221.495 181.842 221.486 181.514C221.479 181.238 221.696 181.008 221.972 181.001ZM151.082 184.987C151.358 184.964 151.599 185.169 151.622 185.444C151.677 186.1 151.749 186.75 151.84 187.395C151.878 187.668 151.687 187.921 151.414 187.959C151.14 187.998 150.888 187.807 150.849 187.533C150.756 186.87 150.682 186.201 150.626 185.527C150.603 185.252 150.807 185.01 151.082 184.987ZM221.918 184.987C222.193 185.01 222.397 185.252 222.374 185.527C222.318 186.201 222.244 186.87 222.151 187.533C222.112 187.807 221.86 187.998 221.586 187.959C221.313 187.921 221.122 187.668 221.16 187.395C221.251 186.75 221.323 186.1 221.378 185.444C221.401 185.169 221.642 184.964 221.918 184.987ZM151.579 188.937C151.85 188.883 152.113 189.059 152.166 189.33C152.294 189.975 152.439 190.613 152.601 191.244C152.67 191.511 152.509 191.784 152.242 191.853C151.974 191.922 151.702 191.76 151.633 191.493C151.466 190.844 151.316 190.187 151.185 189.524C151.132 189.253 151.308 188.99 151.579 188.937ZM221.421 188.937C221.692 188.99 221.868 189.253 221.815 189.524C221.684 190.187 221.534 190.844 221.367 191.493C221.298 191.761 221.026 191.922 220.758 191.853C220.491 191.784 220.33 191.511 220.399 191.244C220.561 190.613 220.706 189.975 220.834 189.33C220.887 189.059 221.15 188.883 221.421 188.937ZM152.516 192.807C152.779 192.723 153.06 192.868 153.144 193.131C153.343 193.757 153.56 194.375 153.793 194.985C153.891 195.243 153.762 195.532 153.504 195.63C153.246 195.729 152.957 195.599 152.858 195.341C152.619 194.714 152.396 194.078 152.191 193.435C152.107 193.172 152.253 192.89 152.516 192.807ZM220.484 192.807C220.747 192.89 220.893 193.172 220.809 193.435C220.604 194.078 220.381 194.714 220.142 195.341C220.043 195.599 219.754 195.729 219.496 195.63C219.238 195.532 219.109 195.243 219.207 194.985C219.44 194.375 219.657 193.757 219.856 193.131C219.94 192.868 220.221 192.723 220.484 192.807ZM153.884 196.546C154.136 196.434 154.432 196.546 154.545 196.798C154.813 197.397 155.097 197.986 155.398 198.566C155.525 198.812 155.429 199.113 155.183 199.24C154.938 199.367 154.637 199.271 154.51 199.026C154.201 198.429 153.908 197.823 153.632 197.207C153.519 196.955 153.632 196.659 153.884 196.546ZM219.116 196.546C219.368 196.659 219.481 196.955 219.368 197.207C219.092 197.823 218.799 198.429 218.49 199.026C218.363 199.271 218.062 199.367 217.816 199.24C217.571 199.113 217.475 198.812 217.602 198.566C217.903 197.986 218.187 197.397 218.455 196.798C218.568 196.546 218.864 196.434 219.116 196.546ZM155.664 200.108C155.902 199.967 156.208 200.046 156.349 200.284C156.682 200.848 157.031 201.402 157.395 201.945C157.549 202.175 157.487 202.485 157.258 202.639C157.028 202.792 156.718 202.731 156.564 202.502C156.19 201.943 155.831 201.373 155.488 200.793C155.347 200.555 155.426 200.248 155.664 200.108ZM217.336 200.108C217.574 200.248 217.653 200.555 217.512 200.793C217.169 201.373 216.81 201.943 216.436 202.502C216.282 202.731 215.972 202.792 215.742 202.639C215.513 202.485 215.451 202.175 215.605 201.945C215.969 201.402 216.318 200.848 216.651 200.284C216.792 200.046 217.098 199.967 217.336 200.108ZM215.168 203.447C215.388 203.614 215.432 203.927 215.266 204.148C214.861 204.686 214.44 205.212 214.006 205.726C213.828 205.937 213.512 205.963 213.301 205.785C213.09 205.606 213.064 205.291 213.242 205.08C213.665 204.58 214.073 204.069 214.468 203.546C214.634 203.325 214.947 203.281 215.168 203.447ZM157.832 203.447C158.053 203.281 158.366 203.325 158.532 203.546C158.927 204.069 159.335 204.58 159.758 205.08C159.936 205.291 159.91 205.606 159.699 205.785C159.488 205.963 159.172 205.937 158.994 205.726C158.56 205.212 158.139 204.686 157.734 204.148C157.568 203.927 157.612 203.614 157.832 203.447ZM212.64 206.524C212.841 206.714 212.85 207.03 212.66 207.231C212.197 207.72 211.721 208.196 211.232 208.659C211.031 208.849 210.715 208.84 210.525 208.639C210.335 208.438 210.344 208.122 210.545 207.932C211.02 207.482 211.483 207.019 211.933 206.544C212.123 206.343 212.439 206.334 212.64 206.524ZM160.36 206.524C160.561 206.334 160.877 206.343 161.067 206.544C161.517 207.019 161.98 207.482 162.455 207.932C162.656 208.122 162.665 208.438 162.475 208.639C162.285 208.84 161.969 208.849 161.768 208.659C161.279 208.196 160.803 207.72 160.34 207.231C160.15 207.03 160.159 206.714 160.36 206.524ZM163.214 209.3C163.393 209.089 163.708 209.063 163.919 209.241C164.419 209.664 164.93 210.072 165.453 210.467C165.674 210.633 165.718 210.946 165.552 211.167C165.385 211.387 165.072 211.431 164.851 211.265C164.313 210.86 163.787 210.439 163.273 210.005C163.062 209.827 163.036 209.511 163.214 209.3ZM209.786 209.3C209.964 209.511 209.938 209.827 209.727 210.005C209.213 210.439 208.687 210.86 208.149 211.265C207.928 211.431 207.615 211.387 207.448 211.167C207.282 210.946 207.326 210.633 207.547 210.467C208.07 210.072 208.581 209.664 209.081 209.241C209.292 209.063 209.607 209.089 209.786 209.3ZM166.36 211.741C166.514 211.512 166.824 211.45 167.054 211.604C167.597 211.968 168.151 212.317 168.715 212.65C168.953 212.791 169.032 213.097 168.891 213.335C168.751 213.573 168.444 213.652 168.206 213.511C167.626 213.168 167.056 212.809 166.497 212.435C166.268 212.281 166.207 211.971 166.36 211.741ZM206.64 211.741C206.793 211.971 206.732 212.281 206.503 212.435C205.944 212.809 205.374 213.168 204.794 213.511C204.556 213.652 204.249 213.573 204.109 213.335C203.968 213.097 204.047 212.791 204.285 212.65C204.849 212.317 205.403 211.968 205.946 211.604C206.176 211.45 206.486 211.512 206.64 211.741ZM169.759 213.815C169.886 213.57 170.187 213.474 170.433 213.601C171.013 213.902 171.602 214.186 172.201 214.454C172.453 214.567 172.565 214.863 172.453 215.115C172.34 215.367 172.044 215.48 171.792 215.367C171.176 215.091 170.57 214.798 169.973 214.489C169.728 214.362 169.632 214.061 169.759 213.815ZM203.241 213.815C203.368 214.061 203.272 214.362 203.027 214.489C202.43 214.798 201.824 215.091 201.208 215.367C200.956 215.48 200.66 215.367 200.547 215.115C200.435 214.863 200.547 214.567 200.799 214.454C201.398 214.186 201.987 213.902 202.567 213.601C202.813 213.474 203.114 213.57 203.241 213.815ZM173.369 215.495C173.467 215.237 173.756 215.108 174.014 215.206C174.624 215.439 175.242 215.656 175.868 215.855C176.131 215.939 176.276 216.22 176.192 216.483C176.109 216.746 175.827 216.892 175.564 216.808C174.921 216.603 174.285 216.38 173.658 216.141C173.4 216.042 173.27 215.753 173.369 215.495ZM199.631 215.495C199.73 215.753 199.6 216.042 199.342 216.141C198.715 216.38 198.079 216.603 197.436 216.808C197.173 216.892 196.891 216.746 196.808 216.483C196.724 216.22 196.869 215.939 197.132 215.855C197.758 215.656 198.376 215.439 198.986 215.206C199.244 215.108 199.533 215.237 199.631 215.495ZM177.146 216.757C177.215 216.49 177.488 216.329 177.755 216.398C178.386 216.56 179.024 216.705 179.669 216.833C179.94 216.886 180.116 217.149 180.062 217.42C180.009 217.691 179.746 217.867 179.475 217.814C178.812 217.683 178.155 217.533 177.506 217.366C177.238 217.297 177.077 217.025 177.146 216.757ZM195.854 216.757C195.923 217.025 195.762 217.297 195.494 217.366C194.845 217.533 194.188 217.683 193.525 217.814C193.254 217.867 192.991 217.691 192.938 217.42C192.884 217.149 193.06 216.886 193.331 216.833C193.976 216.705 194.614 216.56 195.245 216.398C195.512 216.329 195.785 216.49 195.854 216.757ZM181.04 217.585C181.078 217.312 181.331 217.121 181.604 217.159C182.249 217.25 182.899 217.322 183.555 217.377C183.83 217.4 184.035 217.641 184.012 217.917C183.989 218.192 183.747 218.396 183.472 218.373C182.798 218.317 182.129 218.243 181.466 218.15C181.192 218.111 181.001 217.859 181.04 217.585ZM191.96 217.585C191.999 217.859 191.808 218.111 191.534 218.15C190.871 218.243 190.202 218.317 189.528 218.373C189.253 218.396 189.011 218.192 188.988 217.917C188.965 217.641 189.17 217.4 189.445 217.377C190.101 217.322 190.751 217.25 191.396 217.159C191.669 217.121 191.922 217.312 191.96 217.585ZM185.002 217.971C185.009 217.695 185.239 217.478 185.515 217.485C185.843 217.494 186.171 217.499 186.5 217.499C186.829 217.499 187.157 217.494 187.485 217.485C187.761 217.478 187.991 217.695 187.998 217.971C188.006 218.247 187.788 218.477 187.512 218.485C187.176 218.494 186.838 218.499 186.5 218.499C186.162 218.499 185.824 218.494 185.488 218.485C185.212 218.477 184.994 218.247 185.002 217.971Z" fill="url(#paint6_linear_795_7245)"/>
</g>
<g opacity="0.1">
<path d="M126.03 236.027C126.03 241.33 121.732 245.628 116.429 245.628C111.127 245.628 106.828 241.33 106.828 236.027C106.828 230.724 111.127 226.426 116.429 226.426C121.732 226.426 126.03 230.724 126.03 236.027Z" fill="url(#paint7_linear_795_7245)" fill-opacity="0.7"/>
<path d="M122.072 230.118C121.341 229.25 120.434 228.545 119.412 228.052C118.389 227.559 117.274 227.287 116.139 227.255C115.005 227.223 113.876 227.431 112.827 227.866C111.778 228.301 110.834 228.953 110.054 229.779C109.275 230.604 108.68 231.586 108.307 232.658C107.934 233.73 107.791 234.869 107.89 236C107.988 237.131 108.324 238.229 108.876 239.221C109.428 240.213 110.184 241.077 111.093 241.756L113.042 239.147C112.5 238.742 112.05 238.228 111.721 237.637C111.393 237.046 111.192 236.392 111.134 235.719C111.076 235.045 111.16 234.367 111.382 233.728C111.605 233.089 111.959 232.505 112.423 232.013C112.887 231.521 113.45 231.133 114.075 230.874C114.699 230.615 115.372 230.491 116.047 230.51C116.723 230.529 117.388 230.691 117.996 230.985C118.605 231.279 119.145 231.698 119.581 232.215L122.072 230.118Z" fill="url(#paint8_linear_795_7245)"/>
<path d="M124.189 233.848C124.516 233.761 124.712 233.424 124.6 233.105C124.032 231.488 122.963 230.094 121.548 229.127C121.268 228.936 120.892 229.038 120.723 229.331C120.554 229.624 120.656 229.997 120.933 230.191C122.069 230.991 122.934 232.119 123.413 233.423C123.529 233.741 123.862 233.936 124.189 233.848Z" fill="url(#paint9_linear_795_7245)"/>
</g>
<g opacity="0.72">
<path d="M221.87 179.131C221.87 197.1 207.304 211.666 189.336 211.666C171.367 211.666 156.801 197.1 156.801 179.131C156.801 161.163 171.367 146.596 189.336 146.596C207.304 146.596 221.87 161.163 221.87 179.131Z" fill="url(#paint10_linear_795_7245)"/>
<path d="M221.37 179.131C221.37 196.824 207.028 211.166 189.336 211.166C171.643 211.166 157.301 196.824 157.301 179.131C157.301 161.439 171.643 147.096 189.336 147.096C207.028 147.096 221.37 161.439 221.37 179.131Z" stroke="#369FAB" stroke-opacity="0.2"/>
<path d="M208.462 159.108C205.985 156.165 202.913 153.779 199.448 152.107C195.983 150.435 192.204 149.515 188.359 149.406C184.513 149.297 180.688 150.003 177.134 151.477C173.581 152.951 170.379 155.159 167.739 157.958C165.099 160.756 163.081 164.081 161.817 167.714C160.552 171.348 160.071 175.208 160.403 179.04C160.735 182.873 161.875 186.592 163.746 189.954C165.617 193.315 168.177 196.243 171.26 198.545L177.863 189.703C176.027 188.332 174.502 186.588 173.388 184.586C172.273 182.584 171.595 180.369 171.397 178.087C171.199 175.804 171.486 173.505 172.239 171.341C172.992 169.177 174.194 167.197 175.766 165.53C177.339 163.863 179.246 162.548 181.362 161.67C183.479 160.793 185.757 160.372 188.047 160.437C190.337 160.502 192.588 161.05 194.652 162.046C196.715 163.042 198.545 164.463 200.021 166.215L208.462 159.108Z" fill="url(#paint11_linear_795_7245)"/>
<path d="M203.103 200.539C203.641 201.551 204.903 201.943 205.872 201.33C210.783 198.221 214.59 193.613 216.709 188.162C218.828 182.711 219.134 176.742 217.613 171.132C217.312 170.026 216.117 169.462 215.037 169.845C213.956 170.229 213.4 171.414 213.685 172.525C214.883 177.191 214.597 182.135 212.839 186.657C211.08 191.18 207.952 195.018 203.917 197.65C202.956 198.277 202.565 199.526 203.103 200.539Z" fill="url(#paint12_linear_795_7245)"/>
<g style="mix-blend-mode:color-dodge">
<g style="mix-blend-mode:color-dodge">
<path fill-rule="evenodd" clip-rule="evenodd" d="M189.291 158.639L171.691 176.449L173.619 177.734C174.105 178.058 174.398 178.604 174.398 179.189V194.928C174.398 195.507 173.928 195.977 173.348 195.977C172.769 195.977 172.299 195.507 172.299 194.928V179.377L170.174 177.96C169.259 177.35 169.127 176.058 169.9 175.275L188.047 156.912C188.731 156.219 189.85 156.219 190.535 156.912L208.638 175.231C209.446 176.049 209.26 177.409 208.262 177.979L205.733 179.424V194.928C205.733 195.507 205.263 195.977 204.684 195.977C204.104 195.977 203.634 195.507 203.634 194.928V179.221C203.634 178.593 203.97 178.013 204.516 177.702L206.825 176.383L189.291 158.639ZM207.145 176.707C207.145 176.706 207.145 176.706 207.145 176.706V176.707ZM171.338 176.214L171.144 176.505L171.338 176.214Z" fill="#909FBE"/>
</g>
<g style="mix-blend-mode:color-dodge">
<path fill-rule="evenodd" clip-rule="evenodd" d="M191.798 176.382C190.2 174.917 187.747 174.917 186.149 176.382C184.82 177.6 184.422 179.532 185.16 181.176L188.973 189.665L192.787 181.176C193.525 179.532 193.127 177.6 191.798 176.382ZM187.3 179.142C187.3 178.218 188.049 177.469 188.973 177.469C189.898 177.469 190.647 178.218 190.647 179.142C190.647 180.067 189.898 180.816 188.973 180.816C188.049 180.816 187.3 180.067 187.3 179.142Z" fill="#0FC1B7"/>
</g>
</g>
</g>
<path d="M338.63 81.3149C338.63 108.551 316.551 130.63 289.315 130.63C262.079 130.63 240 108.551 240 81.3149C240 54.079 262.079 32 289.315 32C316.551 32 338.63 54.079 338.63 81.3149Z" fill="url(#paint13_linear_795_7245)"/>
<path d="M338.13 81.3149C338.13 108.274 316.275 130.13 289.315 130.13C262.355 130.13 240.5 108.274 240.5 81.3149C240.5 54.3551 262.355 32.5 289.315 32.5C316.275 32.5 338.13 54.3551 338.13 81.3149Z" stroke="#369FAB" stroke-opacity="0.2"/>
<path d="M318.305 50.9647C314.55 46.5038 309.893 42.8875 304.642 40.353C299.39 37.8185 293.662 36.4232 287.833 36.2585C282.004 36.0938 276.206 37.1635 270.82 39.3975C265.433 41.6314 260.58 44.9791 256.579 49.2208C252.577 53.4626 249.518 58.5025 247.601 64.0099C245.685 69.5172 244.955 75.3676 245.459 81.1771C245.963 86.9866 247.689 92.6236 250.525 97.7186C253.361 102.815 257.243 107.252 261.915 110.742L271.924 97.3396C269.142 95.2616 266.83 92.6186 265.141 89.5837C263.452 86.5491 262.423 83.1916 262.123 79.7316C261.823 76.2716 262.258 72.7872 263.399 69.5071C264.541 66.227 266.363 63.2253 268.746 60.699C271.129 58.1727 274.02 56.1789 277.228 54.8484C280.436 53.5179 283.889 52.8807 287.36 52.9788C290.832 53.0769 294.244 53.9079 297.372 55.4174C300.499 56.9269 303.273 59.0808 305.509 61.7376L318.305 50.9647Z" fill="url(#paint14_linear_795_7245)"/>
<path d="M329.169 70.125C330.848 69.6752 331.856 67.9442 331.28 66.3043C328.362 57.9996 322.868 50.8392 315.601 45.8716C314.166 44.8907 312.233 45.4162 311.364 46.9214C310.495 48.4267 311.021 50.3402 312.442 51.3407C318.277 55.4478 322.723 61.2407 325.179 67.94C325.778 69.5718 327.49 70.5749 329.169 70.125Z" fill="url(#paint15_linear_795_7245)"/>
<g style="mix-blend-mode:color-dodge">
<g style="mix-blend-mode:color-dodge">
<path fill-rule="evenodd" clip-rule="evenodd" d="M285.161 47.609C285.42 47.5476 285.685 47.5164 285.952 47.5164H292.102C292.269 47.5164 292.435 47.5286 292.6 47.5528L292.212 50.1925L292.6 47.5528C298.235 48.3807 301.379 52.3281 302.905 56.4075L300.351 57.363L302.905 56.4075C304.013 59.3687 304.376 62.6063 304.332 65.4101C305.011 65.9543 305.525 66.632 305.876 67.3086C306.573 68.6501 306.79 70.2203 306.564 71.7319C306.338 73.2429 305.67 74.6833 304.601 75.7595L302.708 73.8793L304.601 75.7595C304.118 76.2453 303.511 76.6897 302.808 77.0017C302.13 79.5162 301.153 81.8529 299.861 83.869C299.742 86.2968 299.738 89.1467 299.878 91.5736L312.046 94.2076C313.682 94.5616 314.758 96.0106 314.758 97.5796V107.068C314.758 108.893 313.298 110.517 311.321 110.517H265.194C263.218 110.517 261.758 108.893 261.758 107.068V97.5796C261.758 96.0106 262.833 94.5616 264.47 94.2076L277.178 91.456C277.355 89.4926 277.437 87.2421 277.157 84.5467C275.608 82.3413 274.465 79.7036 273.702 76.852C273.131 76.5548 272.633 76.172 272.223 75.7595C271.154 74.6833 270.486 73.2429 270.259 71.7319C270.033 70.2203 270.25 68.6501 270.947 67.3086C271.301 66.6271 271.82 65.9445 272.506 65.3983C272.501 65.0533 272.496 64.7154 272.49 64.3831V64.381C272.487 64.1722 272.484 63.9651 272.481 63.7609C272.276 61.8848 272.19 59.6463 272.565 57.3299C273.137 53.8031 276.036 51.5685 278.224 50.3073C280.597 48.9387 283.276 48.0563 285.161 47.609ZM275.478 63.5724C275.482 63.8212 275.486 64.0753 275.49 64.3347V64.3356C275.505 65.246 275.52 66.222 275.521 67.2735C275.482 67.2775 275.442 67.2826 275.403 67.2888C274.607 67.4148 273.986 67.967 273.61 68.6917C273.233 69.4163 273.084 70.3378 273.226 71.2877C273.369 72.2377 273.78 73.0704 274.351 73.645C274.861 74.1579 275.516 74.4795 276.217 74.4531C276.948 77.988 278.245 81.0907 280.046 83.4105C280.419 86.3783 280.385 88.8709 280.227 90.994C280.146 92.0836 280.032 93.0756 279.923 93.9856C279.876 93.9716 279.828 93.9656 279.779 93.9676C279.756 93.9696 279.734 93.9726 279.711 93.9766L265.105 97.1396C264.903 97.1836 264.758 97.3666 264.758 97.5796V107.068C264.758 107.316 264.953 107.517 265.194 107.517H311.321C311.563 107.517 311.758 107.316 311.758 107.068V97.5796C311.758 97.3666 311.613 97.1836 311.411 97.1396L297.073 94.0346C296.713 90.8476 296.699 86.3027 296.911 82.8792C298.511 80.6239 299.668 77.7157 300.334 74.4253L300.352 74.4282C301.148 74.5542 301.901 74.2197 302.473 73.645C303.043 73.0704 303.455 72.2377 303.597 71.2877C303.739 70.3378 303.59 69.4163 303.214 68.6917C302.837 67.967 302.216 67.4148 301.421 67.2888C301.395 67.2847 301.369 67.2811 301.343 67.2779C301.305 67.2734 301.267 67.2698 301.23 67.2673C301.268 66.8639 301.296 66.4445 301.314 66.0126C301.425 63.3518 301.128 60.2185 300.095 57.4587C298.814 54.0342 296.377 51.14 292.164 50.521C292.143 50.518 292.123 50.5164 292.102 50.5164H285.952C285.919 50.5164 285.886 50.5203 285.853 50.5279C284.161 50.9297 281.774 51.7231 279.722 52.9062C277.696 54.0743 275.869 55.6967 275.527 57.8098C275.201 59.819 275.279 61.8172 275.478 63.5724Z" fill="#909FBE"/>
</g>
</g>
<path d="M121.257 99.338C121.257 121.645 103.174 139.728 80.8668 139.728C58.5599 139.728 40.4766 121.645 40.4766 99.338C40.4766 77.0312 58.5599 58.9479 80.8668 58.9479C103.174 58.9479 121.257 77.0312 121.257 99.338Z" fill="url(#paint16_linear_795_7245)"/>
<path d="M120.757 99.338C120.757 121.369 102.898 139.228 80.8668 139.228C58.836 139.228 40.9766 121.369 40.9766 99.338C40.9766 77.3073 58.836 59.4479 80.8668 59.4479C102.898 59.4479 120.757 77.3073 120.757 99.338Z" stroke="#369FAB" stroke-opacity="0.2"/>
<path d="M104.607 74.4806C101.531 70.827 97.7169 67.8651 93.4156 65.7893C89.1144 63.7135 84.4228 62.5707 79.6487 62.4358C74.8746 62.3009 70.126 63.1771 65.7144 65.0067C61.3028 66.8364 57.3279 69.5782 54.0506 73.0523C50.7733 76.5264 48.2677 80.6542 46.6981 85.1649C45.1285 89.676 44.5304 94.467 44.9431 99.225C45.3559 103.983 46.77 108.601 49.0928 112.774C51.4157 116.947 54.5946 120.581 58.4212 123.439L66.619 112.463C64.34 110.761 62.4467 108.596 61.0632 106.111C59.6798 103.625 58.8375 100.875 58.5917 98.041C58.3459 95.208 58.7021 92.354 59.637 89.667C60.5718 86.9808 62.0641 84.5223 64.016 82.4532C65.9679 80.3841 68.3353 78.7511 70.9628 77.6614C73.5902 76.5717 76.4185 76.0499 79.2618 76.1302C82.1052 76.2105 84.8994 76.8912 87.4612 78.1275C90.023 79.3638 92.2943 81.1279 94.1263 83.3039L104.607 74.4806Z" fill="url(#paint17_linear_795_7245)"/>
<path d="M113.276 107.19C114.64 107.596 116.086 106.82 116.386 105.428C117.91 98.375 117.146 90.995 114.167 84.3738C111.188 77.7528 106.171 72.2857 99.8816 68.7485C98.6408 68.0506 97.1013 68.6174 96.4997 69.9076C95.8982 71.1978 96.4636 72.7215 97.6948 73.4362C102.868 76.4392 106.994 80.9957 109.466 86.4891C111.938 91.982 112.611 98.093 111.427 103.956C111.146 105.351 111.911 106.785 113.276 107.19Z" fill="url(#paint18_linear_795_7245)"/>
<g style="mix-blend-mode:color-dodge">
<g style="mix-blend-mode:color-dodge">
<path d="M67.602 105.17C67.4653 105.578 67.0836 105.852 66.6539 105.852H66.5868C65.8972 105.852 65.4145 105.171 65.6435 104.52L68.9426 95.1501C69.0834 94.7491 69.4615 94.4821 69.8858 94.4821H71.0128C71.4369 94.4821 71.8149 94.7491 71.9559 95.1491L75.2595 104.52C75.4889 105.171 75.0062 105.852 74.3164 105.852H74.2495C73.82 105.852 73.4384 105.578 73.3016 105.171L70.5077 96.8561C70.4993 96.8311 70.4757 96.8141 70.4492 96.8141C70.4226 96.8141 70.399 96.8311 70.3906 96.8561L67.602 105.17ZM67.4454 102.221C67.4454 101.764 67.8158 101.394 68.2727 101.394H72.6145C73.0714 101.394 73.4418 101.764 73.4418 102.221C73.4418 102.678 73.0714 103.049 72.6145 103.049H68.2727C67.8158 103.049 67.4454 102.678 67.4454 102.221Z" fill="#0FC1B7"/>
</g>
<g style="mix-blend-mode:color-dodge">
<path d="M85.0504 98.1131C84.6118 98.1131 84.2414 97.8151 84.0145 97.4401C83.9873 97.3951 83.959 97.3511 83.9294 97.3081C83.7703 97.0671 83.5778 96.8621 83.352 96.6911C83.1299 96.5211 82.8745 96.3931 82.5858 96.3081C82.2971 96.2191 81.9825 96.1751 81.6419 96.1751C81.0312 96.1751 80.4871 96.3291 80.0096 96.6361C79.5321 96.9431 79.1564 97.3951 78.8825 97.9911C78.6123 98.5831 78.4771 99.3051 78.4771 100.156C78.4771 101.015 78.6123 101.742 78.8825 102.338C79.1527 102.934 79.5284 103.387 80.0096 103.698C80.4908 104.005 81.0496 104.159 81.6863 104.159C82.2637 104.159 82.7634 104.048 83.1853 103.826C83.611 103.604 83.9387 103.289 84.1682 102.882C84.3923 102.481 84.5069 102.013 84.5122 101.477C84.5124 101.457 84.5306 101.441 84.5508 101.444C84.5915 101.451 84.5869 101.511 84.5457 101.511H82.1123C81.9905 101.511 81.8918 101.412 81.8918 101.29V100.706C81.8918 100.261 82.2522 99.9011 82.6969 99.9011H85.5056C86.0579 99.9011 86.5056 100.348 86.5056 100.901V101.266C86.5056 102.24 86.2984 103.082 85.8838 103.793C85.4692 104.503 84.8992 105.051 84.1737 105.436C83.4483 105.817 82.6153 106.008 81.6752 106.008C80.6277 106.008 79.7078 105.773 78.9157 105.303C78.1273 104.829 77.511 104.157 77.0669 103.287C76.6264 102.414 76.4062 101.377 76.4062 100.178C76.4062 99.2601 76.5358 98.4401 76.7949 97.7191C77.0577 96.9971 77.424 96.3841 77.8941 95.8811C78.3642 95.3741 78.9158 94.9891 79.5488 94.7261C80.1817 94.4591 80.8702 94.326 81.6142 94.326C82.2434 94.326 82.8301 94.419 83.3742 94.604C83.9183 94.785 84.4014 95.0441 84.8232 95.3811C85.249 95.7181 85.5988 96.1181 85.8727 96.5801C85.9527 96.7161 86.0247 96.8551 86.0886 96.9981C86.3379 97.5571 85.8597 98.1131 85.2474 98.1131H85.0504Z" fill="#0FC1B7"/>
</g>
<g style="mix-blend-mode:color-dodge">
<path d="M89.4961 105.852C88.9438 105.852 88.4961 105.405 88.4961 104.852V95.4821C88.4961 94.9291 88.9438 94.4821 89.4961 94.4821H95.0282C95.505 94.4821 95.8916 94.8681 95.8916 95.3451C95.8916 95.8221 95.505 96.2081 95.0282 96.2081H91.5559C91.0037 96.2081 90.5559 96.6561 90.5559 97.2081V98.2951C90.5559 98.8481 91.0037 99.2951 91.5559 99.2951H94.6451C95.1219 99.2951 95.5085 99.682 95.5085 100.159C95.5085 100.636 95.1219 101.022 94.6451 101.022H91.5559C91.0037 101.022 90.5559 101.47 90.5559 102.022V103.126C90.5559 103.678 91.0037 104.126 91.5559 104.126H95.0726C95.5495 104.126 95.936 104.512 95.936 104.989C95.936 105.466 95.5495 105.852 95.0726 105.852H89.4961Z" fill="#0FC1B7"/>
</g>
<g style="mix-blend-mode:color-dodge">
<path d="M103.414 94.118C104.28 93.918 104.825 93.051 104.568 92.199C103.25 87.822 100.741 83.8837 97.3082 80.833C93.4729 77.425 88.6734 75.2928 83.5736 74.7314C78.4737 74.17 73.3253 75.207 68.8405 77.6991C64.3557 80.1912 60.756 84.0152 58.5393 88.642C56.3225 93.269 55.5982 98.471 56.4665 103.528C57.3348 108.584 59.7528 113.246 63.3862 116.869C67.0195 120.491 71.6887 122.895 76.7479 123.749C81.2767 124.512 85.9177 124 90.1553 122.284C90.9795 121.95 91.3136 120.982 90.9271 120.182C90.5405 119.381 89.5798 119.051 88.7524 119.377C85.1188 120.807 81.1539 121.226 77.2834 120.573C72.8822 119.831 68.8204 117.74 65.6596 114.588C62.4989 111.437 60.3954 107.382 59.64 102.983C58.8846 98.584 59.5147 94.059 61.4432 90.033C63.3716 86.0082 66.5031 82.6816 70.4045 80.5137C74.306 78.3458 78.7847 77.4436 83.2212 77.932C87.6577 78.4205 91.8329 80.2753 95.1693 83.24C98.1035 85.8473 100.261 89.2 101.424 92.928C101.688 93.777 102.547 94.319 103.414 94.118Z" fill="#909FBE"/>
</g>
</g>
<path d="M86.1921 234.121C98.3651 246.288 98.3704 266.019 86.2038 278.192C74.0372 290.365 54.3061 290.37 42.1332 278.204C29.9602 266.037 29.9549 246.306 42.1215 234.133C54.2881 221.96 74.0192 221.955 86.1921 234.121Z" fill="url(#paint19_linear_795_7245)" fill-opacity="0.7"/>
<path d="M63.5445 229.648C59.8731 229.334 56.1767 229.8 52.6979 231.015C49.2192 232.23 46.0366 234.167 43.3592 236.698C40.6817 239.23 38.5698 242.299 37.1621 245.705C35.7544 249.11 35.0827 252.774 35.191 256.458C35.2993 260.141 36.1853 263.76 37.7907 267.076C39.3962 270.393 41.6848 273.333 44.5064 275.703C47.328 278.073 50.6189 279.819 54.1631 280.828C57.7073 281.836 61.4246 282.084 65.0712 281.555L63.5526 271.094C61.3808 271.41 59.1668 271.262 57.0559 270.661C54.9451 270.061 52.9851 269.021 51.3045 267.609C49.624 266.198 48.261 264.447 47.3048 262.471C46.3486 260.496 45.821 258.341 45.7565 256.147C45.6919 253.953 46.092 251.771 46.9304 249.743C47.7688 247.714 49.0266 245.886 50.6213 244.379C52.2159 242.871 54.1114 241.717 56.1833 240.993C58.2552 240.27 60.4567 239.992 62.6433 240.18L63.5445 229.648Z" fill="url(#paint20_linear_795_7245)"/>
<path d="M86.1236 242.758C87.0892 242.234 87.4538 241.022 86.8585 240.099C83.841 235.421 79.3965 231.812 74.1586 229.827C68.9206 227.842 63.2008 227.597 57.8404 229.1C56.7829 229.397 56.2525 230.546 56.6284 231.578C57.0044 232.61 58.1443 233.132 59.2058 232.85C63.6658 231.665 68.4029 231.899 72.7488 233.546C77.0947 235.193 80.7963 238.159 83.3503 242.002C83.9582 242.917 85.158 243.281 86.1236 242.758Z" fill="url(#paint21_linear_795_7245)"/>
<defs>
<filter id="filter0_i_795_7245" x="150.5" y="146.499" width="72" height="72" filterUnits="userSpaceOnUse" color-interpolation-filters="sRGB">
<feFlood flood-opacity="0" result="BackgroundImageFix"/>
<feBlend mode="normal" in="SourceGraphic" in2="BackgroundImageFix" result="shape"/>
<feColorMatrix in="SourceAlpha" type="matrix" values="0 0 0 0 0 0 0 0 0 0 0 0 0 0 0 0 0 0 127 0" result="hardAlpha"/>
<feOffset/>
<feGaussianBlur stdDeviation="3"/>
<feComposite in2="hardAlpha" operator="arithmetic" k2="-1" k3="1"/>
<feColorMatrix type="matrix" values="0 0 0 0 0 0 0 0 0 0 0 0 0 0 0 0 0 0 0.25 0"/>
<feBlend mode="normal" in2="shape" result="effect1_innerShadow_795_7245"/>
</filter>
<linearGradient id="paint0_linear_795_7245" x1="164.522" y1="50.8" x2="184.654" y2="74.0286" gradientUnits="userSpaceOnUse">
<stop stop-color="#369FAB"/>
<stop offset="1" stop-color="#00E0CA" stop-opacity="0"/>
</linearGradient>
<linearGradient id="paint1_linear_795_7245" x1="165.542" y1="51.6764" x2="171.982" y2="58.5428" gradientUnits="userSpaceOnUse">
<stop stop-color="#00E0CA"/>
<stop offset="1" stop-color="#00E0CA" stop-opacity="0"/>
</linearGradient>
<linearGradient id="paint2_linear_795_7245" x1="182.539" y1="50.5186" x2="185.355" y2="64.5964" gradientUnits="userSpaceOnUse">
<stop stop-color="#00E0CA"/>
<stop offset="1" stop-color="#00E0CA" stop-opacity="0"/>
</linearGradient>
<linearGradient id="paint3_linear_795_7245" x1="274.749" y1="222.207" x2="315.501" y2="266" gradientUnits="userSpaceOnUse">
<stop stop-color="#00E0CA"/>
<stop offset="1" stop-color="#00E0CA" stop-opacity="0"/>
</linearGradient>
<linearGradient id="paint4_linear_795_7245" x1="276.415" y1="223.639" x2="286.933" y2="234.854" gradientUnits="userSpaceOnUse">
<stop stop-color="#00E0CA"/>
<stop offset="1" stop-color="#00E0CA" stop-opacity="0"/>
</linearGradient>
<linearGradient id="paint5_linear_795_7245" x1="304.18" y1="221.748" x2="308.778" y2="244.741" gradientUnits="userSpaceOnUse">
<stop stop-color="#00E0CA"/>
<stop offset="1" stop-color="#00E0CA" stop-opacity="0"/>
</linearGradient>
<linearGradient id="paint6_linear_795_7245" x1="162.452" y1="206.547" x2="212.266" y2="169.33" gradientUnits="userSpaceOnUse">
<stop stop-color="white"/>
<stop offset="1" stop-color="white" stop-opacity="0"/>
</linearGradient>
<linearGradient id="paint7_linear_795_7245" x1="108.583" y1="227.561" x2="123.346" y2="244.596" gradientUnits="userSpaceOnUse">
<stop stop-color="#00E0CA"/>
<stop offset="1" stop-color="#00E0CA" stop-opacity="0"/>
</linearGradient>
<linearGradient id="paint8_linear_795_7245" x1="109.331" y1="228.204" x2="114.054" y2="233.239" gradientUnits="userSpaceOnUse">
<stop stop-color="#00E0CA"/>
<stop offset="1" stop-color="#00E0CA" stop-opacity="0"/>
</linearGradient>
<linearGradient id="paint9_linear_795_7245" x1="121.798" y1="227.355" x2="123.863" y2="237.679" gradientUnits="userSpaceOnUse">
<stop stop-color="#00E0CA"/>
<stop offset="1" stop-color="#00E0CA" stop-opacity="0"/>
</linearGradient>
<linearGradient id="paint10_linear_795_7245" x1="162.748" y1="150.445" x2="222.002" y2="216.5" gradientUnits="userSpaceOnUse">
<stop stop-color="#369FAB"/>
<stop offset="1" stop-color="#00E0CA" stop-opacity="0"/>
</linearGradient>
<linearGradient id="paint11_linear_795_7245" x1="165.289" y1="152.623" x2="181.291" y2="169.686" gradientUnits="userSpaceOnUse">
<stop stop-color="#00E0CA"/>
<stop offset="1" stop-color="#00E0CA" stop-opacity="0"/>
</linearGradient>
<linearGradient id="paint12_linear_795_7245" x1="207.526" y1="149.745" x2="214.523" y2="184.728" gradientUnits="userSpaceOnUse">
<stop stop-color="#00E0CA"/>
<stop offset="1" stop-color="#00E0CA" stop-opacity="0"/>
</linearGradient>
<linearGradient id="paint13_linear_795_7245" x1="249.015" y1="37.833" x2="324.843" y2="125.328" gradientUnits="userSpaceOnUse">
<stop stop-color="#369FAB"/>
<stop offset="1" stop-color="#00E0CA" stop-opacity="0"/>
</linearGradient>
<linearGradient id="paint14_linear_795_7245" x1="252.865" y1="41.1341" x2="277.12" y2="66.9975" gradientUnits="userSpaceOnUse">
<stop stop-color="#00E0CA"/>
<stop offset="1" stop-color="#00E0CA" stop-opacity="0"/>
</linearGradient>
<linearGradient id="paint15_linear_795_7245" x1="316.889" y1="36.7722" x2="327.494" y2="89.7989" gradientUnits="userSpaceOnUse">
<stop stop-color="#00E0CA"/>
<stop offset="1" stop-color="#00E0CA" stop-opacity="0"/>
</linearGradient>
<linearGradient id="paint16_linear_795_7245" x1="47.8598" y1="63.7252" x2="109.965" y2="135.385" gradientUnits="userSpaceOnUse">
<stop stop-color="#369FAB"/>
<stop offset="1" stop-color="#00E0CA" stop-opacity="0.3"/>
</linearGradient>
<linearGradient id="paint17_linear_795_7245" x1="51.0087" y1="66.4291" x2="70.8746" y2="87.612" gradientUnits="userSpaceOnUse">
<stop stop-color="#00E0CA"/>
<stop offset="1" stop-color="#00E0CA" stop-opacity="0"/>
</linearGradient>
<linearGradient id="paint18_linear_795_7245" x1="103.448" y1="62.8566" x2="112.134" y2="106.287" gradientUnits="userSpaceOnUse">
<stop stop-color="#00E0CA"/>
<stop offset="1" stop-color="#00E0CA" stop-opacity="0"/>
</linearGradient>
<linearGradient id="paint19_linear_795_7245" x1="26.7259" y1="254.751" x2="99.7045" y2="259.944" gradientUnits="userSpaceOnUse">
<stop stop-color="#369FAB"/>
<stop offset="1" stop-color="#00E0CA" stop-opacity="0"/>
</linearGradient>
<linearGradient id="paint20_linear_795_7245" x1="29.9176" y1="254.505" x2="52.3123" y2="255.218" gradientUnits="userSpaceOnUse">
<stop stop-color="#00E0CA"/>
<stop offset="1" stop-color="#00E0CA" stop-opacity="0"/>
</linearGradient>
<linearGradient id="paint21_linear_795_7245" x1="56.5701" y1="223.941" x2="85.0077" y2="242.888" gradientUnits="userSpaceOnUse">
<stop stop-color="#00E0CA"/>
<stop offset="1" stop-color="#00E0CA" stop-opacity="0"/>
</linearGradient>
</defs>
</svg>
