<svg width="306" height="256" viewBox="0 0 306 256" fill="none" xmlns="http://www.w3.org/2000/svg">
<g opacity="0.2">
<path d="M155.312 30.3439C155.312 37.5747 149.45 43.4364 142.219 43.4364C134.989 43.4364 129.127 37.5747 129.127 30.3439C129.127 23.1132 134.989 17.2515 142.219 17.2515C149.45 17.2515 155.312 23.1132 155.312 30.3439Z" fill="url(#paint0_linear_1135_6915)"/>
<path d="M149.914 22.2864C148.917 21.1021 147.681 20.142 146.287 19.4691C144.892 18.7963 143.372 18.4258 141.824 18.3821C140.277 18.3384 138.737 18.6224 137.307 19.2155C135.877 19.8085 134.589 20.6973 133.526 21.8234C132.464 22.9495 131.652 24.2876 131.143 25.7497C130.634 27.2118 130.44 28.765 130.574 30.3074C130.708 31.8497 131.166 33.3463 131.919 34.699C132.672 36.0517 133.703 37.2299 134.943 38.1563L137.601 34.5983C136.862 34.0466 136.248 33.3449 135.8 32.5392C135.351 31.7336 135.078 30.8422 134.998 29.9236C134.919 29.005 135.034 28.08 135.337 27.2092C135.64 26.3383 136.124 25.5414 136.757 24.8707C137.389 24.2 138.157 23.6707 139.009 23.3175C139.86 22.9642 140.777 22.7951 141.699 22.8211C142.62 22.8472 143.526 23.0678 144.356 23.4685C145.187 23.8693 145.923 24.4411 146.517 25.1465L149.914 22.2864Z" fill="url(#paint1_linear_1135_6915)"/>
<path d="M152.799 27.3732C153.245 27.2538 153.513 26.7942 153.36 26.3589C152.585 24.1541 151.127 22.2531 149.197 20.9343C148.816 20.6738 148.303 20.8133 148.073 21.213C147.842 21.6126 147.981 22.1206 148.359 22.3862C149.908 23.4766 151.088 25.0146 151.74 26.7931C151.899 27.2263 152.354 27.4926 152.799 27.3732Z" fill="url(#paint2_linear_1135_6915)"/>
</g>
<g opacity="0.5">
<path d="M280.609 209.062C280.609 220.873 271.034 230.447 259.224 230.447C247.414 230.447 237.84 220.873 237.84 209.062C237.84 197.252 247.414 187.678 259.224 187.678C271.034 187.678 280.609 197.252 280.609 209.062Z" fill="url(#paint3_linear_1135_6915)"/>
<path d="M271.794 195.902C270.166 193.967 268.147 192.399 265.869 191.3C263.592 190.201 261.108 189.596 258.58 189.525C256.053 189.453 253.539 189.917 251.203 190.886C248.867 191.854 246.763 193.306 245.028 195.145C243.293 196.985 241.966 199.17 241.135 201.558C240.304 203.947 239.987 206.483 240.206 209.003C240.424 211.522 241.173 213.966 242.403 216.176C243.633 218.385 245.316 220.309 247.342 221.822L251.682 216.011C250.475 215.11 249.473 213.964 248.74 212.648C248.008 211.332 247.562 209.876 247.432 208.376C247.302 206.875 247.49 205.364 247.985 203.942C248.48 202.52 249.27 201.218 250.304 200.123C251.337 199.027 252.591 198.163 253.982 197.586C255.373 197.009 256.87 196.732 258.376 196.775C259.881 196.818 261.36 197.178 262.717 197.832C264.073 198.487 265.276 199.421 266.245 200.573L271.794 195.902Z" fill="url(#paint4_linear_1135_6915)"/>
<path d="M276.505 204.21C277.233 204.015 277.67 203.265 277.42 202.553C276.155 198.952 273.773 195.847 270.622 193.693C270 193.268 269.161 193.496 268.785 194.149C268.408 194.801 268.636 195.631 269.252 196.065C271.782 197.846 273.71 200.358 274.775 203.263C275.035 203.97 275.777 204.405 276.505 204.21Z" fill="url(#paint5_linear_1135_6915)"/>
<g style="mix-blend-mode:color-dodge">
<g style="mix-blend-mode:color-dodge">
<path fill-rule="evenodd" clip-rule="evenodd" d="M264.979 199.095H254.021V219.903H264.979V199.095ZM255.264 218.609V200.389H257.192C257.312 200.744 257.508 201.069 257.769 201.34C258.229 201.816 258.851 202.084 259.5 202.084C260.149 202.084 260.771 201.816 261.231 201.34C261.492 201.069 261.688 200.744 261.808 200.389H263.736V218.609H255.264Z" fill="#909FBE"/>
</g>
<g style="mix-blend-mode:color-dodge">
<path fill-rule="evenodd" clip-rule="evenodd" d="M253.203 196.999C252.54 196.999 252 197.557 252 198.249V220.749C252 221.441 252.54 221.999 253.203 221.999H265.797C266.46 221.999 267 221.441 267 220.749V198.249C267 197.557 266.46 196.999 265.797 196.999H253.203ZM253.243 220.705V198.293H265.757V220.705H253.243Z" fill="#909FBE"/>
</g>
</g>
</g>
<g filter="url(#filter0_i_1135_6915)">
<path fill-rule="evenodd" clip-rule="evenodd" d="M152.488 114.513C152.824 114.504 153.162 114.499 153.5 114.499C153.838 114.499 154.176 114.504 154.512 114.513C154.788 114.521 155.006 114.751 154.998 115.027C154.991 115.303 154.761 115.52 154.485 115.513C154.157 115.504 153.829 115.499 153.5 115.499C153.171 115.499 152.843 115.504 152.515 115.513C152.239 115.52 152.009 115.303 152.002 115.027C151.994 114.751 152.212 114.521 152.488 114.513ZM151.012 115.081C151.035 115.357 150.83 115.598 150.555 115.621C149.899 115.676 149.249 115.748 148.604 115.839C148.331 115.877 148.078 115.686 148.04 115.413C148.001 115.139 148.192 114.887 148.466 114.848C149.129 114.755 149.798 114.681 150.472 114.625C150.747 114.602 150.989 114.806 151.012 115.081ZM155.988 115.081C156.011 114.806 156.253 114.602 156.528 114.625C157.202 114.681 157.871 114.755 158.534 114.848C158.808 114.887 158.999 115.139 158.96 115.413C158.922 115.686 158.669 115.877 158.396 115.839C157.751 115.748 157.101 115.676 156.445 115.621C156.17 115.598 155.965 115.357 155.988 115.081ZM147.062 115.578C147.116 115.849 146.94 116.112 146.669 116.165C146.024 116.293 145.386 116.438 144.755 116.6C144.488 116.669 144.215 116.508 144.146 116.241C144.077 115.973 144.238 115.701 144.506 115.632C145.155 115.465 145.812 115.315 146.475 115.184C146.746 115.131 147.009 115.307 147.062 115.578ZM159.938 115.578C159.991 115.307 160.254 115.131 160.525 115.184C161.188 115.315 161.845 115.465 162.494 115.632C162.762 115.701 162.923 115.973 162.854 116.241C162.785 116.508 162.512 116.669 162.245 116.6C161.614 116.438 160.976 116.293 160.331 116.165C160.06 116.112 159.884 115.849 159.938 115.578ZM143.192 116.515C143.276 116.778 143.131 117.059 142.868 117.143C142.242 117.342 141.624 117.559 141.014 117.792C140.756 117.89 140.467 117.761 140.369 117.503C140.27 117.245 140.4 116.956 140.658 116.857C141.285 116.618 141.921 116.395 142.564 116.19C142.827 116.106 143.109 116.252 143.192 116.515ZM163.808 116.515C163.891 116.252 164.173 116.106 164.436 116.19C165.079 116.395 165.715 116.618 166.342 116.857C166.6 116.956 166.73 117.245 166.631 117.503C166.533 117.761 166.244 117.89 165.986 117.792C165.376 117.559 164.758 117.342 164.132 117.143C163.869 117.059 163.724 116.778 163.808 116.515ZM139.453 117.883C139.565 118.135 139.453 118.431 139.201 118.544C138.602 118.812 138.013 119.096 137.433 119.397C137.187 119.524 136.886 119.428 136.759 119.182C136.632 118.937 136.728 118.636 136.973 118.509C137.57 118.2 138.176 117.907 138.792 117.631C139.044 117.518 139.34 117.631 139.453 117.883ZM167.547 117.883C167.66 117.631 167.956 117.518 168.208 117.631C168.824 117.907 169.43 118.2 170.027 118.509C170.272 118.636 170.368 118.937 170.241 119.182C170.114 119.428 169.813 119.524 169.567 119.397C168.987 119.096 168.398 118.812 167.799 118.544C167.547 118.431 167.435 118.135 167.547 117.883ZM135.891 119.663C136.032 119.901 135.953 120.207 135.715 120.348C135.151 120.681 134.597 121.03 134.054 121.394C133.824 121.548 133.514 121.486 133.36 121.257C133.207 121.027 133.268 120.717 133.497 120.563C134.056 120.189 134.626 119.83 135.206 119.487C135.444 119.346 135.751 119.425 135.891 119.663ZM171.109 119.663C171.249 119.425 171.556 119.346 171.794 119.487C172.374 119.83 172.944 120.189 173.503 120.563C173.732 120.717 173.793 121.027 173.64 121.257C173.486 121.486 173.176 121.548 172.946 121.394C172.403 121.03 171.849 120.681 171.285 120.348C171.047 120.207 170.968 119.901 171.109 119.663ZM174.448 121.831C174.615 121.611 174.928 121.567 175.149 121.733C175.687 122.138 176.213 122.559 176.727 122.993C176.938 123.171 176.964 123.487 176.786 123.698C176.607 123.909 176.292 123.935 176.081 123.757C175.581 123.334 175.07 122.926 174.547 122.531C174.326 122.365 174.282 122.052 174.448 121.831ZM132.552 121.831C132.718 122.052 132.674 122.365 132.453 122.531C131.93 122.926 131.419 123.334 130.919 123.757C130.708 123.935 130.393 123.909 130.214 123.698C130.036 123.487 130.062 123.171 130.273 122.993C130.787 122.559 131.313 122.138 131.851 121.733C132.072 121.567 132.385 121.611 132.552 121.831ZM177.525 124.359C177.715 124.158 178.031 124.149 178.232 124.339C178.721 124.802 179.197 125.278 179.66 125.767C179.85 125.968 179.841 126.284 179.64 126.474C179.439 126.664 179.123 126.655 178.933 126.454C178.483 125.979 178.02 125.516 177.545 125.066C177.344 124.876 177.335 124.559 177.525 124.359ZM129.475 124.359C129.665 124.559 129.656 124.876 129.455 125.066C128.98 125.516 128.517 125.979 128.067 126.454C127.877 126.655 127.561 126.664 127.36 126.474C127.159 126.284 127.15 125.968 127.34 125.767C127.803 125.278 128.279 124.802 128.768 124.339C128.969 124.149 129.285 124.158 129.475 124.359ZM180.301 127.213C180.512 127.035 180.828 127.061 181.006 127.272C181.44 127.786 181.861 128.312 182.266 128.85C182.432 129.071 182.388 129.384 182.168 129.551C181.947 129.717 181.634 129.673 181.468 129.452C181.073 128.929 180.665 128.418 180.242 127.918C180.064 127.707 180.09 127.392 180.301 127.213ZM126.699 127.213C126.91 127.392 126.936 127.707 126.758 127.918C126.335 128.418 125.927 128.929 125.532 129.452C125.366 129.673 125.053 129.717 124.832 129.551C124.612 129.384 124.568 129.071 124.734 128.85C125.139 128.312 125.56 127.786 125.994 127.272C126.172 127.061 126.488 127.035 126.699 127.213ZM182.742 130.359C182.972 130.206 183.282 130.267 183.436 130.496C183.81 131.055 184.169 131.625 184.512 132.205C184.653 132.443 184.574 132.75 184.336 132.89C184.098 133.031 183.792 132.952 183.651 132.714C183.318 132.15 182.969 131.596 182.605 131.053C182.451 130.823 182.513 130.513 182.742 130.359ZM124.258 130.359C124.487 130.513 124.549 130.823 124.395 131.053C124.031 131.596 123.682 132.15 123.349 132.714C123.208 132.952 122.902 133.031 122.664 132.89C122.426 132.75 122.347 132.443 122.488 132.205C122.831 131.625 123.19 131.055 123.564 130.496C123.718 130.267 124.028 130.206 124.258 130.359ZM122.184 133.758C122.429 133.885 122.525 134.186 122.398 134.432C122.097 135.012 121.813 135.601 121.545 136.2C121.432 136.452 121.136 136.564 120.884 136.452C120.632 136.339 120.519 136.043 120.632 135.791C120.908 135.175 121.201 134.569 121.51 133.972C121.637 133.727 121.938 133.631 122.184 133.758ZM184.816 133.758C185.062 133.631 185.363 133.727 185.49 133.972C185.799 134.569 186.092 135.175 186.368 135.791C186.481 136.043 186.368 136.339 186.116 136.452C185.864 136.564 185.568 136.452 185.455 136.2C185.187 135.601 184.903 135.012 184.602 134.432C184.475 134.186 184.571 133.885 184.816 133.758ZM120.504 137.368C120.762 137.466 120.891 137.755 120.793 138.013C120.56 138.623 120.343 139.241 120.144 139.867C120.06 140.13 119.779 140.275 119.516 140.191C119.253 140.108 119.107 139.826 119.191 139.563C119.396 138.92 119.619 138.284 119.858 137.657C119.957 137.399 120.246 137.269 120.504 137.368ZM186.496 137.368C186.754 137.269 187.043 137.399 187.142 137.657C187.381 138.284 187.604 138.92 187.809 139.563C187.893 139.826 187.747 140.108 187.484 140.191C187.221 140.275 186.94 140.13 186.856 139.867C186.657 139.241 186.44 138.623 186.207 138.013C186.109 137.755 186.238 137.466 186.496 137.368ZM119.242 141.145C119.509 141.214 119.67 141.487 119.601 141.754C119.439 142.385 119.294 143.023 119.166 143.668C119.113 143.939 118.85 144.115 118.579 144.061C118.308 144.008 118.132 143.745 118.185 143.474C118.316 142.811 118.466 142.154 118.633 141.505C118.702 141.237 118.974 141.076 119.242 141.145ZM187.758 141.145C188.026 141.076 188.298 141.237 188.367 141.505C188.534 142.154 188.684 142.811 188.815 143.474C188.868 143.745 188.692 144.008 188.421 144.061C188.15 144.115 187.887 143.939 187.834 143.668C187.706 143.023 187.561 142.385 187.399 141.754C187.33 141.487 187.491 141.214 187.758 141.145ZM118.414 145.039C118.687 145.077 118.878 145.33 118.84 145.603C118.749 146.248 118.677 146.898 118.622 147.554C118.599 147.829 118.358 148.034 118.082 148.011C117.807 147.988 117.603 147.746 117.626 147.471C117.682 146.797 117.756 146.128 117.849 145.465C117.888 145.191 118.14 145 118.414 145.039ZM188.586 145.039C188.86 145 189.112 145.191 189.151 145.465C189.244 146.128 189.318 146.797 189.374 147.471C189.397 147.746 189.193 147.988 188.918 148.011C188.642 148.034 188.401 147.829 188.378 147.554C188.323 146.898 188.251 146.248 188.16 145.603C188.122 145.33 188.313 145.077 188.586 145.039ZM118.028 149.001C118.304 149.008 118.521 149.238 118.514 149.514C118.505 149.842 118.5 150.17 118.5 150.499C118.5 150.828 118.505 151.156 118.514 151.484C118.521 151.76 118.304 151.99 118.028 151.997C117.752 152.005 117.522 151.787 117.514 151.511C117.505 151.175 117.5 150.837 117.5 150.499C117.5 150.161 117.505 149.823 117.514 149.487C117.522 149.211 117.752 148.993 118.028 149.001ZM188.972 149.001C189.248 148.993 189.478 149.211 189.486 149.487C189.495 149.823 189.5 150.161 189.5 150.499C189.5 150.837 189.495 151.175 189.486 151.511C189.478 151.787 189.248 152.005 188.972 151.997C188.696 151.99 188.479 151.76 188.486 151.484C188.495 151.156 188.5 150.828 188.5 150.499C188.5 150.17 188.495 149.842 188.486 149.514C188.479 149.238 188.696 149.008 188.972 149.001ZM118.082 152.987C118.358 152.964 118.599 153.169 118.622 153.444C118.677 154.1 118.749 154.75 118.84 155.395C118.878 155.668 118.687 155.921 118.414 155.959C118.14 155.998 117.888 155.807 117.849 155.533C117.756 154.87 117.682 154.201 117.626 153.527C117.603 153.252 117.807 153.01 118.082 152.987ZM188.918 152.987C189.193 153.01 189.397 153.252 189.374 153.527C189.318 154.201 189.244 154.87 189.151 155.533C189.112 155.807 188.86 155.998 188.586 155.959C188.313 155.921 188.122 155.668 188.16 155.395C188.251 154.75 188.323 154.1 188.378 153.444C188.401 153.169 188.642 152.964 188.918 152.987ZM118.579 156.937C118.85 156.883 119.113 157.059 119.166 157.33C119.294 157.975 119.439 158.613 119.601 159.244C119.67 159.511 119.509 159.784 119.242 159.853C118.974 159.922 118.702 159.76 118.633 159.493C118.466 158.844 118.316 158.187 118.185 157.524C118.132 157.253 118.308 156.99 118.579 156.937ZM188.421 156.937C188.692 156.99 188.868 157.253 188.815 157.524C188.684 158.187 188.534 158.844 188.367 159.493C188.298 159.761 188.026 159.922 187.758 159.853C187.491 159.784 187.33 159.511 187.399 159.244C187.561 158.613 187.706 157.975 187.834 157.33C187.887 157.059 188.15 156.883 188.421 156.937ZM119.516 160.807C119.779 160.723 120.06 160.868 120.144 161.131C120.343 161.757 120.56 162.375 120.793 162.985C120.891 163.243 120.762 163.532 120.504 163.63C120.246 163.729 119.957 163.599 119.858 163.341C119.619 162.714 119.396 162.078 119.191 161.435C119.107 161.172 119.253 160.89 119.516 160.807ZM187.484 160.807C187.747 160.89 187.893 161.172 187.809 161.435C187.604 162.078 187.381 162.714 187.142 163.341C187.043 163.599 186.754 163.729 186.496 163.63C186.238 163.532 186.109 163.243 186.207 162.985C186.44 162.375 186.657 161.757 186.856 161.131C186.94 160.868 187.221 160.723 187.484 160.807ZM120.884 164.546C121.136 164.434 121.432 164.546 121.545 164.798C121.813 165.397 122.097 165.986 122.398 166.566C122.525 166.812 122.429 167.113 122.183 167.24C121.938 167.367 121.637 167.271 121.51 167.026C121.201 166.429 120.908 165.823 120.632 165.207C120.519 164.955 120.632 164.659 120.884 164.546ZM186.116 164.546C186.368 164.659 186.481 164.955 186.368 165.207C186.092 165.823 185.799 166.429 185.49 167.026C185.363 167.271 185.062 167.367 184.816 167.24C184.571 167.113 184.475 166.812 184.602 166.566C184.903 165.986 185.187 165.397 185.455 164.798C185.568 164.546 185.864 164.434 186.116 164.546ZM122.664 168.108C122.902 167.967 123.208 168.046 123.349 168.284C123.682 168.848 124.031 169.402 124.395 169.945C124.549 170.175 124.487 170.485 124.258 170.639C124.028 170.792 123.718 170.731 123.564 170.502C123.19 169.943 122.831 169.373 122.488 168.793C122.347 168.555 122.426 168.248 122.664 168.108ZM184.336 168.108C184.574 168.248 184.653 168.555 184.512 168.793C184.169 169.373 183.81 169.943 183.436 170.502C183.282 170.731 182.972 170.792 182.742 170.639C182.513 170.485 182.451 170.175 182.605 169.945C182.969 169.402 183.318 168.848 183.651 168.284C183.792 168.046 184.098 167.967 184.336 168.108ZM182.168 171.447C182.388 171.614 182.432 171.927 182.266 172.148C181.861 172.686 181.44 173.212 181.006 173.726C180.828 173.937 180.512 173.963 180.301 173.785C180.09 173.606 180.064 173.291 180.242 173.08C180.665 172.58 181.073 172.069 181.468 171.546C181.634 171.325 181.947 171.281 182.168 171.447ZM124.832 171.447C125.053 171.281 125.366 171.325 125.532 171.546C125.927 172.069 126.335 172.58 126.758 173.08C126.936 173.291 126.91 173.606 126.699 173.785C126.488 173.963 126.172 173.937 125.994 173.726C125.56 173.212 125.139 172.686 124.734 172.148C124.568 171.927 124.612 171.614 124.832 171.447ZM179.64 174.524C179.841 174.714 179.85 175.03 179.66 175.231C179.197 175.72 178.721 176.196 178.232 176.659C178.031 176.849 177.715 176.84 177.525 176.639C177.335 176.438 177.344 176.122 177.545 175.932C178.02 175.482 178.483 175.019 178.933 174.544C179.123 174.343 179.439 174.334 179.64 174.524ZM127.36 174.524C127.561 174.334 127.877 174.343 128.067 174.544C128.517 175.019 128.98 175.482 129.455 175.932C129.656 176.122 129.665 176.438 129.475 176.639C129.285 176.84 128.969 176.849 128.768 176.659C128.279 176.196 127.803 175.72 127.34 175.231C127.15 175.03 127.159 174.714 127.36 174.524ZM130.214 177.3C130.393 177.089 130.708 177.063 130.919 177.241C131.419 177.664 131.93 178.072 132.453 178.467C132.674 178.633 132.718 178.946 132.552 179.167C132.385 179.387 132.072 179.431 131.851 179.265C131.313 178.86 130.787 178.439 130.273 178.005C130.062 177.827 130.036 177.511 130.214 177.3ZM176.786 177.3C176.964 177.511 176.938 177.827 176.727 178.005C176.213 178.439 175.687 178.86 175.149 179.265C174.928 179.431 174.615 179.387 174.448 179.167C174.282 178.946 174.326 178.633 174.547 178.467C175.07 178.072 175.581 177.664 176.081 177.241C176.292 177.063 176.607 177.089 176.786 177.3ZM133.36 179.741C133.514 179.512 133.824 179.45 134.054 179.604C134.597 179.968 135.151 180.317 135.715 180.65C135.953 180.791 136.032 181.097 135.891 181.335C135.751 181.573 135.444 181.652 135.206 181.511C134.626 181.168 134.056 180.809 133.497 180.435C133.268 180.281 133.207 179.971 133.36 179.741ZM173.64 179.741C173.793 179.971 173.732 180.281 173.503 180.435C172.944 180.809 172.374 181.168 171.794 181.511C171.556 181.652 171.249 181.573 171.109 181.335C170.968 181.097 171.047 180.791 171.285 180.65C171.849 180.317 172.403 179.968 172.946 179.604C173.176 179.45 173.486 179.512 173.64 179.741ZM136.759 181.815C136.886 181.57 137.187 181.474 137.433 181.601C138.013 181.902 138.602 182.186 139.201 182.454C139.453 182.567 139.565 182.863 139.453 183.115C139.34 183.367 139.044 183.48 138.792 183.367C138.176 183.091 137.57 182.798 136.973 182.489C136.728 182.362 136.632 182.061 136.759 181.815ZM170.241 181.815C170.368 182.061 170.272 182.362 170.027 182.489C169.43 182.798 168.824 183.091 168.208 183.367C167.956 183.48 167.66 183.367 167.547 183.115C167.435 182.863 167.547 182.567 167.799 182.454C168.398 182.186 168.987 181.902 169.567 181.601C169.813 181.474 170.114 181.57 170.241 181.815ZM140.369 183.495C140.467 183.237 140.756 183.108 141.014 183.206C141.624 183.439 142.242 183.656 142.868 183.855C143.131 183.939 143.276 184.22 143.192 184.483C143.109 184.746 142.827 184.892 142.564 184.808C141.921 184.603 141.285 184.38 140.658 184.141C140.4 184.042 140.27 183.753 140.369 183.495ZM166.631 183.495C166.73 183.753 166.6 184.042 166.342 184.141C165.715 184.38 165.079 184.603 164.436 184.808C164.173 184.892 163.891 184.746 163.808 184.483C163.724 184.22 163.869 183.939 164.132 183.855C164.758 183.656 165.376 183.439 165.986 183.206C166.244 183.108 166.533 183.237 166.631 183.495ZM144.146 184.757C144.215 184.49 144.488 184.329 144.755 184.398C145.386 184.56 146.024 184.705 146.669 184.833C146.94 184.886 147.116 185.149 147.062 185.42C147.009 185.691 146.746 185.867 146.475 185.814C145.812 185.683 145.155 185.533 144.506 185.366C144.238 185.297 144.077 185.025 144.146 184.757ZM162.854 184.757C162.923 185.025 162.762 185.297 162.494 185.366C161.845 185.533 161.188 185.683 160.525 185.814C160.254 185.867 159.991 185.691 159.938 185.42C159.884 185.149 160.06 184.886 160.331 184.833C160.976 184.705 161.614 184.56 162.245 184.398C162.512 184.329 162.785 184.49 162.854 184.757ZM148.04 185.585C148.078 185.312 148.331 185.121 148.604 185.159C149.249 185.25 149.899 185.322 150.555 185.377C150.83 185.4 151.035 185.641 151.012 185.917C150.989 186.192 150.747 186.396 150.472 186.373C149.798 186.317 149.129 186.243 148.466 186.15C148.192 186.111 148.001 185.859 148.04 185.585ZM158.96 185.585C158.999 185.859 158.808 186.111 158.534 186.15C157.871 186.243 157.202 186.317 156.528 186.373C156.253 186.396 156.011 186.192 155.988 185.917C155.965 185.641 156.17 185.4 156.445 185.377C157.101 185.322 157.751 185.25 158.396 185.159C158.669 185.121 158.922 185.312 158.96 185.585ZM152.002 185.971C152.009 185.695 152.239 185.478 152.515 185.485C152.843 185.494 153.171 185.499 153.5 185.499C153.829 185.499 154.157 185.494 154.485 185.485C154.761 185.478 154.991 185.695 154.998 185.971C155.006 186.247 154.788 186.477 154.512 186.485C154.176 186.494 153.838 186.499 153.5 186.499C153.162 186.499 152.824 186.494 152.488 186.485C152.212 186.477 151.994 186.247 152.002 185.971Z" fill="url(#paint6_linear_1135_6915)"/>
</g>
<g opacity="0.1">
<path d="M93.0279 204.027C93.0279 209.33 88.7299 213.628 83.4269 213.628C78.1249 213.628 73.8261 209.33 73.8261 204.027C73.8261 198.724 78.1249 194.426 83.4269 194.426C88.7299 194.426 93.0279 198.724 93.0279 204.027Z" fill="url(#paint7_linear_1135_6915)" fill-opacity="0.7"/>
<path d="M89.0699 198.118C88.3389 197.25 87.4319 196.545 86.4099 196.052C85.3869 195.559 84.2719 195.287 83.1369 195.255C82.0029 195.223 80.8739 195.431 79.8249 195.866C78.7759 196.301 77.8319 196.953 77.0519 197.779C76.2729 198.604 75.6779 199.586 75.3049 200.658C74.9319 201.73 74.7889 202.869 74.8879 204C74.9859 205.131 75.3219 206.229 75.8739 207.221C76.4259 208.213 77.1819 209.077 78.0909 209.756L80.0399 207.147C79.4979 206.742 79.0479 206.228 78.7189 205.637C78.3909 205.046 78.1899 204.392 78.1319 203.719C78.0739 203.045 78.1579 202.367 78.3799 201.728C78.6029 201.089 78.9569 200.505 79.4209 200.013C79.8849 199.521 80.4479 199.133 81.0729 198.874C81.6969 198.615 82.3699 198.491 83.0449 198.51C83.7209 198.529 84.3859 198.691 84.9939 198.985C85.6029 199.279 86.1429 199.698 86.5789 200.215L89.0699 198.118Z" fill="url(#paint8_linear_1135_6915)"/>
<path d="M91.1868 201.848C91.5138 201.761 91.7099 201.424 91.5979 201.105C91.0299 199.488 89.9608 198.094 88.5458 197.127C88.2658 196.936 87.8899 197.038 87.7209 197.331C87.5519 197.624 87.6539 197.997 87.9309 198.191C89.0669 198.991 89.9319 200.119 90.4109 201.423C90.5269 201.741 90.8598 201.936 91.1868 201.848Z" fill="url(#paint9_linear_1135_6915)"/>
</g>
<g opacity="0.72">
<path d="M188.868 147.131C188.868 165.1 174.302 179.666 156.334 179.666C138.365 179.666 123.799 165.1 123.799 147.131C123.799 129.163 138.365 114.596 156.334 114.596C174.302 114.596 188.868 129.163 188.868 147.131Z" fill="url(#paint10_linear_1135_6915)"/>
<path d="M188.368 147.131C188.368 164.824 174.026 179.166 156.334 179.166C138.641 179.166 124.299 164.824 124.299 147.131C124.299 129.439 138.641 115.096 156.334 115.096C174.026 115.096 188.368 129.439 188.368 147.131Z" stroke="#369FAB" stroke-opacity="0.2"/>
<path d="M175.458 127.108C172.981 124.165 169.909 121.779 166.444 120.107C162.979 118.435 159.2 117.515 155.355 117.406C151.509 117.297 147.684 118.003 144.13 119.477C140.577 120.951 137.375 123.159 134.735 125.958C132.095 128.756 130.077 132.081 128.813 135.714C127.548 139.348 127.067 143.208 127.399 147.04C127.731 150.873 128.871 154.592 130.742 157.954C132.613 161.315 135.173 164.243 138.256 166.545L144.859 157.703C143.023 156.332 141.498 154.588 140.384 152.586C139.269 150.584 138.591 148.369 138.393 146.087C138.195 143.804 138.482 141.505 139.235 139.341C139.988 137.177 141.19 135.197 142.762 133.53C144.335 131.863 146.242 130.548 148.358 129.67C150.475 128.793 152.753 128.372 155.043 128.437C157.333 128.502 159.584 129.05 161.648 130.046C163.711 131.042 165.541 132.463 167.017 134.215L175.458 127.108Z" fill="url(#paint11_linear_1135_6915)"/>
<path d="M170.103 168.539C170.641 169.551 171.903 169.943 172.872 169.33C177.783 166.221 181.59 161.613 183.709 156.162C185.828 150.711 186.134 144.742 184.613 139.132C184.312 138.026 183.117 137.462 182.037 137.845C180.956 138.229 180.4 139.414 180.685 140.525C181.883 145.191 181.597 150.135 179.839 154.657C178.08 159.18 174.952 163.018 170.917 165.65C169.956 166.277 169.565 167.526 170.103 168.539Z" fill="url(#paint12_linear_1135_6915)"/>
<g style="mix-blend-mode:color-dodge">
<g style="mix-blend-mode:color-dodge">
<path fill-rule="evenodd" clip-rule="evenodd" d="M156.289 126.639L138.689 144.449L140.617 145.734C141.103 146.058 141.396 146.604 141.396 147.189V162.928C141.396 163.507 140.926 163.977 140.346 163.977C139.767 163.977 139.297 163.507 139.297 162.928V147.377L137.172 145.96C136.257 145.35 136.125 144.058 136.898 143.275L155.045 124.912C155.729 124.219 156.848 124.219 157.533 124.912L175.636 143.231C176.444 144.049 176.258 145.409 175.26 145.979L172.731 147.424V162.928C172.731 163.507 172.261 163.977 171.682 163.977C171.102 163.977 170.632 163.507 170.632 162.928V147.221C170.632 146.593 170.968 146.013 171.514 145.702L173.823 144.383L156.289 126.639ZM174.143 144.707C174.143 144.706 174.143 144.706 174.143 144.706V144.707ZM138.336 144.214L138.142 144.505L138.336 144.214Z" fill="#909FBE"/>
</g>
<g style="mix-blend-mode:color-dodge">
<path fill-rule="evenodd" clip-rule="evenodd" d="M158.798 144.382C157.2 142.917 154.747 142.917 153.149 144.382C151.82 145.6 151.422 147.532 152.16 149.176L155.973 157.665L159.787 149.176C160.525 147.532 160.127 145.6 158.798 144.382ZM154.3 147.142C154.3 146.218 155.049 145.469 155.973 145.469C156.898 145.469 157.647 146.218 157.647 147.142C157.647 148.067 156.898 148.816 155.973 148.816C155.049 148.816 154.3 148.067 154.3 147.142Z" fill="#0FC1B7"/>
</g>
</g>
</g>
<path d="M305.63 49.3149C305.63 76.5506 283.551 98.6296 256.315 98.6296C229.079 98.6296 207 76.5506 207 49.3149C207 22.079 229.079 0 256.315 0C283.551 0 305.63 22.079 305.63 49.3149Z" fill="url(#paint13_linear_1135_6915)"/>
<path d="M305.13 49.3149C305.13 76.2745 283.275 98.1296 256.315 98.1296C229.355 98.1296 207.5 76.2745 207.5 49.3149C207.5 22.3551 229.355 0.5 256.315 0.5C283.275 0.5 305.13 22.3551 305.13 49.3149Z" stroke="#369FAB" stroke-opacity="0.2"/>
<path d="M285.303 18.9646C281.548 14.5037 276.891 10.8874 271.64 8.35294C266.388 5.81844 260.66 4.42315 254.831 4.25845C249.002 4.09375 243.204 5.16345 237.818 7.39745C232.431 9.63135 227.578 12.979 223.577 17.2207C219.575 21.4625 216.516 26.5024 214.599 32.0098C212.683 37.5171 211.953 43.3675 212.457 49.177C212.961 54.9865 214.687 60.6235 217.523 65.7185C220.359 70.8145 224.241 75.2515 228.913 78.7415L238.922 65.3395C236.14 63.2615 233.828 60.6185 232.139 57.5836C230.45 54.549 229.421 51.1915 229.121 47.7315C228.821 44.2715 229.256 40.7871 230.397 37.507C231.539 34.2269 233.361 31.2252 235.744 28.6989C238.127 26.1726 241.018 24.1788 244.226 22.8483C247.434 21.5178 250.887 20.8806 254.358 20.9787C257.83 21.0768 261.242 21.9078 264.37 23.4173C267.497 24.9268 270.271 27.0807 272.507 29.7375L285.303 18.9646Z" fill="url(#paint14_linear_1135_6915)"/>
<path d="M296.169 38.1249C297.848 37.6751 298.856 35.9441 298.28 34.3042C295.362 25.9995 289.868 18.8391 282.601 13.8715C281.166 12.8906 279.233 13.4161 278.364 14.9213C277.495 16.4266 278.021 18.3401 279.442 19.3406C285.277 23.4477 289.723 29.2406 292.179 35.9399C292.778 37.5717 294.49 38.5748 296.169 38.1249Z" fill="url(#paint15_linear_1135_6915)"/>
<g style="mix-blend-mode:color-dodge">
<g style="mix-blend-mode:color-dodge">
<path fill-rule="evenodd" clip-rule="evenodd" d="M252.163 15.609C252.422 15.5476 252.687 15.5164 252.954 15.5164H259.104C259.271 15.5164 259.437 15.5286 259.602 15.5528L259.214 18.1925L259.602 15.5528C265.237 16.3807 268.381 20.3281 269.907 24.4075L267.353 25.363L269.907 24.4075C271.015 27.3687 271.378 30.6063 271.334 33.4101C272.013 33.9543 272.527 34.632 272.878 35.3086C273.575 36.6501 273.792 38.2203 273.566 39.7319C273.34 41.2429 272.672 42.6833 271.603 43.7595L269.71 41.8793L271.603 43.7595C271.12 44.2453 270.513 44.6897 269.81 45.0017C269.132 47.5162 268.155 49.8529 266.863 51.869C266.744 54.2968 266.74 57.1467 266.88 59.5736L279.048 62.2076C280.684 62.5616 281.76 64.0106 281.76 65.5796V75.0676C281.76 76.8926 280.3 78.5166 278.323 78.5166H232.196C230.22 78.5166 228.76 76.8926 228.76 75.0676V65.5796C228.76 64.0106 229.835 62.5616 231.472 62.2076L244.18 59.456C244.357 57.4926 244.439 55.2421 244.159 52.5467C242.61 50.3413 241.467 47.7036 240.704 44.852C240.133 44.5548 239.635 44.172 239.225 43.7595C238.156 42.6833 237.488 41.2429 237.261 39.7319C237.035 38.2203 237.252 36.6501 237.949 35.3086C238.303 34.6271 238.822 33.9445 239.508 33.3983C239.503 33.0533 239.498 32.7154 239.492 32.3831V32.381C239.489 32.1722 239.486 31.9651 239.483 31.7609C239.278 29.8848 239.192 27.6463 239.567 25.3299C240.139 21.8031 243.038 19.5685 245.226 18.3073C247.599 16.9387 250.278 16.0563 252.163 15.609ZM242.48 31.5724C242.484 31.8212 242.488 32.0753 242.492 32.3347V32.3356C242.507 33.246 242.522 34.222 242.523 35.2735C242.484 35.2775 242.444 35.2826 242.405 35.2888C241.609 35.4148 240.988 35.967 240.612 36.6917C240.235 37.4163 240.086 38.3378 240.228 39.2877C240.371 40.2377 240.782 41.0704 241.353 41.645C241.863 42.1579 242.518 42.4795 243.219 42.4531C243.95 45.988 245.247 49.0907 247.048 51.4105C247.421 54.3783 247.387 56.8709 247.229 58.994C247.148 60.0836 247.034 61.0756 246.925 61.9856C246.878 61.9716 246.83 61.9656 246.781 61.9676C246.758 61.9696 246.736 61.9726 246.713 61.9766L232.107 65.1396C231.905 65.1836 231.76 65.3666 231.76 65.5796V75.0676C231.76 75.3156 231.955 75.5166 232.196 75.5166H278.323C278.565 75.5166 278.76 75.3156 278.76 75.0676V65.5796C278.76 65.3666 278.615 65.1836 278.413 65.1396L264.075 62.0346C263.715 58.8476 263.701 54.3027 263.913 50.8792C265.513 48.6239 266.67 45.7157 267.336 42.4253L267.354 42.4282C268.15 42.5542 268.903 42.2197 269.475 41.645C270.045 41.0704 270.457 40.2377 270.599 39.2877C270.741 38.3378 270.592 37.4163 270.216 36.6917C269.839 35.967 269.218 35.4148 268.423 35.2888C268.397 35.2847 268.371 35.2811 268.345 35.2779C268.307 35.2734 268.269 35.2698 268.232 35.2673C268.27 34.8639 268.298 34.4445 268.316 34.0126C268.427 31.3518 268.13 28.2185 267.097 25.4587C265.816 22.0342 263.379 19.14 259.166 18.521C259.145 18.518 259.125 18.5164 259.104 18.5164H252.954C252.921 18.5164 252.888 18.5203 252.855 18.5279C251.163 18.9297 248.776 19.7231 246.724 20.9062C244.698 22.0743 242.871 23.6967 242.529 25.8098C242.203 27.819 242.281 29.8172 242.48 31.5724Z" fill="#909FBE"/>
</g>
</g>
<path d="M88.255 67.3381C88.255 89.6451 70.172 107.728 47.8648 107.728C25.5579 107.728 7.47456 89.6451 7.47456 67.3381C7.47456 45.0313 25.5579 26.948 47.8648 26.948C70.172 26.948 88.255 45.0313 88.255 67.3381Z" fill="url(#paint16_linear_1135_6915)"/>
<path d="M87.755 67.3381C87.755 89.369 69.8958 107.228 47.8648 107.228C25.834 107.228 7.97456 89.3689 7.97456 67.3381C7.97456 45.3074 25.834 27.448 47.8648 27.448C69.8958 27.448 87.755 45.3074 87.755 67.3381Z" stroke="#369FAB" stroke-opacity="0.2"/>
<path d="M71.607 42.4807C68.531 38.8271 64.7169 35.8652 60.4156 33.7894C56.1144 31.7136 51.4228 30.5708 46.6487 30.4359C41.8746 30.301 37.126 31.1772 32.7144 33.0068C28.3028 34.8365 24.3279 37.5783 21.0506 41.0524C17.7733 44.5265 15.2677 48.6543 13.6981 53.165C12.1285 57.6761 11.5304 62.4671 11.9431 67.2251C12.3559 71.9831 13.77 76.6011 16.0928 80.7741C18.4157 84.9471 21.5946 88.5811 25.4212 91.4391L33.619 80.4631C31.34 78.7611 29.4467 76.5961 28.0632 74.1111C26.6798 71.6251 25.8375 68.8751 25.5917 66.0411C25.3459 63.2081 25.7021 60.3541 26.637 57.6671C27.5718 54.9809 29.0641 52.5224 31.016 50.4533C32.9679 48.3842 35.3353 46.7512 37.9628 45.6615C40.5902 44.5718 43.4185 44.05 46.2618 44.1303C49.1052 44.2106 51.8994 44.8913 54.4612 46.1276C57.023 47.3639 59.2943 49.128 61.1263 51.304L71.607 42.4807Z" fill="url(#paint17_linear_1135_6915)"/>
<path d="M80.2776 75.1901C81.6416 75.5961 83.0876 74.8201 83.3876 73.4281C84.9116 66.3751 84.1476 58.9951 81.1686 52.3739C78.1896 45.7529 73.1726 40.2858 66.8835 36.7486C65.6427 36.0507 64.1032 36.6175 63.5016 37.9077C62.9001 39.1979 63.4655 40.7216 64.6967 41.4363C69.8696 44.4393 73.9956 48.9958 76.4676 54.4892C78.9396 59.9821 79.6126 66.0931 78.4286 71.9561C78.1476 73.3511 78.9126 74.7851 80.2776 75.1901Z" fill="url(#paint18_linear_1135_6915)"/>
<g style="mix-blend-mode:color-dodge">
<g style="mix-blend-mode:color-dodge">
<path d="M34.6039 73.1699C34.4672 73.5779 34.0855 73.8519 33.6558 73.8519H33.5887C32.8991 73.8519 32.4164 73.1709 32.6454 72.5199L35.9445 63.1499C36.0853 62.7489 36.4634 62.4819 36.8877 62.4819H38.0147C38.4388 62.4819 38.8168 62.7489 38.9578 63.1489L42.2614 72.5199C42.4908 73.1709 42.0081 73.8519 41.3183 73.8519H41.2514C40.8219 73.8519 40.4403 73.5779 40.3035 73.1709L37.5096 64.8559C37.5012 64.8309 37.4776 64.8139 37.4511 64.8139C37.4245 64.8139 37.4009 64.8309 37.3925 64.8559L34.6039 73.1699ZM34.4473 70.2209C34.4473 69.7639 34.8177 69.3939 35.2746 69.3939H39.6164C40.0733 69.3939 40.4437 69.7639 40.4437 70.2209C40.4437 70.6779 40.0733 71.0489 39.6164 71.0489H35.2746C34.8177 71.0489 34.4473 70.6779 34.4473 70.2209Z" fill="#0FC1B7"/>
</g>
<g style="mix-blend-mode:color-dodge">
<path d="M52.0503 66.1129C51.6117 66.1129 51.2414 65.8149 51.0145 65.4399C50.9873 65.3949 50.9589 65.3509 50.9293 65.3079C50.7702 65.0669 50.5777 64.8619 50.3519 64.6909C50.1298 64.5209 49.8744 64.3929 49.5857 64.3079C49.297 64.2189 48.9824 64.1749 48.6418 64.1749C48.0311 64.1749 47.487 64.3289 47.0095 64.6359C46.532 64.9429 46.1563 65.3949 45.8824 65.9909C45.6122 66.5829 45.4771 67.3049 45.4771 68.1559C45.4771 69.0149 45.6122 69.7419 45.8824 70.3379C46.1526 70.9339 46.5283 71.3869 47.0095 71.6979C47.4907 72.0049 48.0496 72.1589 48.6863 72.1589C49.2637 72.1589 49.7634 72.0479 50.1853 71.8259C50.611 71.6039 50.9386 71.2889 51.1681 70.8819C51.3922 70.4809 51.5068 70.0129 51.5121 69.4769C51.5123 69.4569 51.5305 69.4409 51.5507 69.4439C51.5914 69.4509 51.5868 69.5109 51.5456 69.5109H49.1122C48.9904 69.5109 48.8917 69.4119 48.8917 69.2899V68.7059C48.8917 68.2609 49.2521 67.9009 49.6968 67.9009H52.5055C53.0578 67.9009 53.5055 68.3479 53.5055 68.9009V69.2659C53.5055 70.2399 53.2983 71.0819 52.8837 71.7929C52.4691 72.5029 51.8991 73.0509 51.1736 73.4359C50.4482 73.8169 49.6153 74.0079 48.6752 74.0079C47.6277 74.0079 46.7078 73.7729 45.9157 73.3029C45.1273 72.8289 44.511 72.1569 44.0669 71.2869C43.6264 70.4139 43.4062 69.3769 43.4062 68.1779C43.4062 67.2599 43.5357 66.4399 43.7948 65.7189C44.0576 64.9969 44.424 64.3839 44.8941 63.8809C45.3642 63.3739 45.9157 62.9889 46.5487 62.7259C47.1816 62.4589 47.8701 62.3259 48.6141 62.3259C49.2433 62.3259 49.83 62.4189 50.3741 62.6039C50.9182 62.7849 51.4013 63.0439 51.8232 63.3809C52.2489 63.7179 52.5987 64.1179 52.8726 64.5799C52.9526 64.7159 53.0246 64.8549 53.0885 64.9979C53.3378 65.5569 52.8596 66.1129 52.2473 66.1129H52.0503Z" fill="#0FC1B7"/>
</g>
<g style="mix-blend-mode:color-dodge">
<path d="M56.498 73.8519C55.9457 73.8519 55.498 73.4049 55.498 72.8519V63.4819C55.498 62.9289 55.9457 62.4819 56.498 62.4819H62.0301C62.5069 62.4819 62.8935 62.8679 62.8935 63.3449C62.8935 63.8219 62.5069 64.2079 62.0301 64.2079H58.5578C58.0056 64.2079 57.5578 64.6559 57.5578 65.2079V66.2949C57.5578 66.8479 58.0056 67.2949 58.5578 67.2949H61.647C62.1238 67.2949 62.5104 67.6819 62.5104 68.1589C62.5104 68.6359 62.1238 69.0219 61.647 69.0219H58.5578C58.0056 69.0219 57.5578 69.4699 57.5578 70.0219V71.1259C57.5578 71.6779 58.0056 72.1259 58.5578 72.1259H62.0745C62.5514 72.1259 62.9379 72.5119 62.9379 72.9889C62.9379 73.4659 62.5514 73.8519 62.0745 73.8519H56.498Z" fill="#0FC1B7"/>
</g>
<g style="mix-blend-mode:color-dodge">
<path d="M70.414 62.118C71.28 61.918 71.825 61.051 71.568 60.199C70.25 55.822 67.741 51.8837 64.3082 48.833C60.4729 45.425 55.6734 43.2928 50.5736 42.7314C45.4737 42.17 40.3253 43.207 35.8405 45.6991C31.3557 48.1912 27.756 52.0152 25.5393 56.642C23.3225 61.269 22.5982 66.471 23.4665 71.528C24.3348 76.584 26.7528 81.246 30.3862 84.869C34.0195 88.491 38.6887 90.895 43.7479 91.749C48.2767 92.512 52.9177 92 57.1553 90.284C57.9795 89.95 58.3136 88.982 57.9271 88.182C57.5405 87.381 56.5798 87.051 55.7524 87.377C52.1188 88.807 48.1539 89.226 44.2834 88.573C39.8822 87.831 35.8204 85.74 32.6596 82.588C29.4989 79.437 27.3954 75.382 26.64 70.983C25.8846 66.584 26.5147 62.059 28.4432 58.033C30.3716 54.0082 33.5031 50.6816 37.4045 48.5137C41.306 46.3458 45.7847 45.4436 50.2212 45.932C54.6577 46.4205 58.8329 48.2753 62.1693 51.24C65.1035 53.8473 67.261 57.2 68.424 60.928C68.688 61.777 69.547 62.319 70.414 62.118Z" fill="#909FBE"/>
</g>
</g>
<path d="M53.1921 202.121C65.3651 214.288 65.3704 234.019 53.2038 246.192C41.0372 258.365 21.3061 258.37 9.13316 246.204C-3.03988 234.037 -3.0451 214.306 9.12146 202.133C21.2881 189.96 41.0192 189.955 53.1921 202.121Z" fill="url(#paint19_linear_1135_6915)"/>
<path d="M30.5464 197.648C26.875 197.334 23.1786 197.8 19.6998 199.015C16.2211 200.23 13.0385 202.167 10.3611 204.698C7.68356 207.23 5.57166 210.299 4.16396 213.705C2.75628 217.11 2.08456 220.774 2.19289 224.458C2.30123 228.141 3.18717 231.76 4.79256 235.076C6.39806 238.393 8.68666 241.333 11.5083 243.703C14.3299 246.073 17.6208 247.819 21.165 248.828C24.7092 249.836 28.4265 250.084 32.0731 249.555L30.5545 239.094C28.3827 239.41 26.1687 239.262 24.0578 238.661C21.947 238.061 19.987 237.021 18.3064 235.609C16.6259 234.198 15.2629 232.447 14.3067 230.471C13.3505 228.496 12.8229 226.341 12.7584 224.147C12.6938 221.953 13.0939 219.771 13.9323 217.743C14.7707 215.714 16.0285 213.886 17.6232 212.379C19.2178 210.871 21.1133 209.717 23.1852 208.993C25.2571 208.27 27.4586 207.992 29.6452 208.18L30.5464 197.648Z" fill="url(#paint20_linear_1135_6915)"/>
<path d="M53.1255 210.758C54.0911 210.234 54.4557 209.022 53.8604 208.099C50.8429 203.421 46.3984 199.812 41.1605 197.827C35.9225 195.842 30.2027 195.597 24.8423 197.1C23.7848 197.397 23.2544 198.546 23.6303 199.578C24.0063 200.61 25.1462 201.132 26.2077 200.85C30.6677 199.665 35.4048 199.899 39.7507 201.546C44.0966 203.193 47.7982 206.159 50.3522 210.002C50.9601 210.917 52.1599 211.281 53.1255 210.758Z" fill="url(#paint21_linear_1135_6915)"/>
<defs>
<filter id="filter0_i_1135_6915" x="117.5" y="114.499" width="72" height="72" filterUnits="userSpaceOnUse" color-interpolation-filters="sRGB">
<feFlood flood-opacity="0" result="BackgroundImageFix"/>
<feBlend mode="normal" in="SourceGraphic" in2="BackgroundImageFix" result="shape"/>
<feColorMatrix in="SourceAlpha" type="matrix" values="0 0 0 0 0 0 0 0 0 0 0 0 0 0 0 0 0 0 127 0" result="hardAlpha"/>
<feOffset/>
<feGaussianBlur stdDeviation="3"/>
<feComposite in2="hardAlpha" operator="arithmetic" k2="-1" k3="1"/>
<feColorMatrix type="matrix" values="0 0 0 0 0 0 0 0 0 0 0 0 0 0 0 0 0 0 0.05 0"/>
<feBlend mode="normal" in2="shape" result="effect1_innerShadow_1135_6915"/>
</filter>
<linearGradient id="paint0_linear_1135_6915" x1="131.52" y1="18.8" x2="151.652" y2="42.0286" gradientUnits="userSpaceOnUse">
<stop stop-color="#369FAB"/>
<stop offset="1" stop-color="#00E0CA" stop-opacity="0"/>
</linearGradient>
<linearGradient id="paint1_linear_1135_6915" x1="132.54" y1="19.6765" x2="138.98" y2="26.5429" gradientUnits="userSpaceOnUse">
<stop stop-color="#00E0CA"/>
<stop offset="1" stop-color="#00E0CA" stop-opacity="0"/>
</linearGradient>
<linearGradient id="paint2_linear_1135_6915" x1="149.539" y1="18.5185" x2="152.355" y2="32.5964" gradientUnits="userSpaceOnUse">
<stop stop-color="#00E0CA"/>
<stop offset="1" stop-color="#00E0CA" stop-opacity="0"/>
</linearGradient>
<linearGradient id="paint3_linear_1135_6915" x1="241.749" y1="190.207" x2="282.501" y2="234" gradientUnits="userSpaceOnUse">
<stop stop-color="#00E0CA"/>
<stop offset="1" stop-color="#145F57"/>
</linearGradient>
<linearGradient id="paint4_linear_1135_6915" x1="243.417" y1="191.639" x2="253.935" y2="202.854" gradientUnits="userSpaceOnUse">
<stop stop-color="#00E0CA"/>
<stop offset="1" stop-color="#00E0CA" stop-opacity="0"/>
</linearGradient>
<linearGradient id="paint5_linear_1135_6915" x1="271.18" y1="189.748" x2="275.778" y2="212.741" gradientUnits="userSpaceOnUse">
<stop stop-color="#00E0CA"/>
<stop offset="1" stop-color="#00E0CA" stop-opacity="0"/>
</linearGradient>
<linearGradient id="paint6_linear_1135_6915" x1="129.452" y1="174.547" x2="179.266" y2="137.33" gradientUnits="userSpaceOnUse">
<stop stop-color="white"/>
<stop offset="1" stop-color="white" stop-opacity="0"/>
</linearGradient>
<linearGradient id="paint7_linear_1135_6915" x1="75.5809" y1="195.561" x2="90.3439" y2="212.596" gradientUnits="userSpaceOnUse">
<stop stop-color="#00E0CA"/>
<stop offset="1" stop-color="#00E0CA" stop-opacity="0"/>
</linearGradient>
<linearGradient id="paint8_linear_1135_6915" x1="76.3289" y1="196.204" x2="81.0519" y2="201.239" gradientUnits="userSpaceOnUse">
<stop stop-color="#00E0CA"/>
<stop offset="1" stop-color="#00E0CA" stop-opacity="0"/>
</linearGradient>
<linearGradient id="paint9_linear_1135_6915" x1="88.7959" y1="195.355" x2="90.8609" y2="205.679" gradientUnits="userSpaceOnUse">
<stop stop-color="#00E0CA"/>
<stop offset="1" stop-color="#00E0CA" stop-opacity="0"/>
</linearGradient>
<linearGradient id="paint10_linear_1135_6915" x1="129.746" y1="118.445" x2="189" y2="184.5" gradientUnits="userSpaceOnUse">
<stop stop-color="#145F57"/>
<stop offset="1" stop-color="#00E0CA"/>
</linearGradient>
<linearGradient id="paint11_linear_1135_6915" x1="132.285" y1="120.623" x2="148.287" y2="137.686" gradientUnits="userSpaceOnUse">
<stop stop-color="#00E0CA"/>
<stop offset="1" stop-color="#00E0CA" stop-opacity="0"/>
</linearGradient>
<linearGradient id="paint12_linear_1135_6915" x1="174.526" y1="117.745" x2="181.523" y2="152.728" gradientUnits="userSpaceOnUse">
<stop stop-color="#00E0CA"/>
<stop offset="1" stop-color="#00E0CA" stop-opacity="0"/>
</linearGradient>
<linearGradient id="paint13_linear_1135_6915" x1="216.015" y1="5.833" x2="291.843" y2="93.3276" gradientUnits="userSpaceOnUse">
<stop stop-color="#369FAB"/>
<stop offset="1" stop-color="#145F57"/>
</linearGradient>
<linearGradient id="paint14_linear_1135_6915" x1="219.863" y1="9.13404" x2="244.118" y2="34.9974" gradientUnits="userSpaceOnUse">
<stop stop-color="#00E0CA"/>
<stop offset="1" stop-color="#00E0CA" stop-opacity="0"/>
</linearGradient>
<linearGradient id="paint15_linear_1135_6915" x1="283.889" y1="4.77213" x2="294.494" y2="57.7988" gradientUnits="userSpaceOnUse">
<stop stop-color="#00E0CA"/>
<stop offset="1" stop-color="#00E0CA" stop-opacity="0"/>
</linearGradient>
<linearGradient id="paint16_linear_1135_6915" x1="14.8578" y1="31.7253" x2="76.963" y2="103.385" gradientUnits="userSpaceOnUse">
<stop stop-color="#369FAB"/>
<stop offset="1" stop-color="#145F57"/>
</linearGradient>
<linearGradient id="paint17_linear_1135_6915" x1="18.0087" y1="34.4292" x2="37.8746" y2="55.6121" gradientUnits="userSpaceOnUse">
<stop stop-color="#00E0CA"/>
<stop offset="1" stop-color="#00E0CA" stop-opacity="0"/>
</linearGradient>
<linearGradient id="paint18_linear_1135_6915" x1="70.4496" y1="30.8567" x2="79.1356" y2="74.2871" gradientUnits="userSpaceOnUse">
<stop stop-color="#00E0CA"/>
<stop offset="1" stop-color="#00E0CA" stop-opacity="0"/>
</linearGradient>
<linearGradient id="paint19_linear_1135_6915" x1="-6.27413" y1="222.751" x2="66.7045" y2="227.944" gradientUnits="userSpaceOnUse">
<stop stop-color="#369FAB"/>
<stop offset="1" stop-color="#145F57"/>
</linearGradient>
<linearGradient id="paint20_linear_1135_6915" x1="-3.08054" y1="222.505" x2="19.3142" y2="223.218" gradientUnits="userSpaceOnUse">
<stop stop-color="#00E0CA"/>
<stop offset="1" stop-color="#00E0CA" stop-opacity="0"/>
</linearGradient>
<linearGradient id="paint21_linear_1135_6915" x1="23.572" y1="191.941" x2="52.0096" y2="210.888" gradientUnits="userSpaceOnUse">
<stop stop-color="#00E0CA"/>
<stop offset="1" stop-color="#00E0CA" stop-opacity="0"/>
</linearGradient>
</defs>
</svg>
