<svg id="eedCu9U3PBr1" xmlns="http://www.w3.org/2000/svg" xmlns:xlink="http://www.w3.org/1999/xlink" viewBox="0 0 449 376" shape-rendering="geometricPrecision" text-rendering="geometricPrecision" width="449" height="376">
<style><![CDATA[
#eedCu9U3PBr5 {animation: eedCu9U3PBr5__m 4000ms linear infinite normal forwards}@keyframes eedCu9U3PBr5__m { 0% {d: path('M401.077,220.407L401.077,282.842C401.077,287.49,404.44,291.587,409.077,291.907C414.658,292.292,419.077,287.497,419.077,281.903L419.077,214.407L419.077,192.907L419.077,159.409C419.077,148.139,403.312,145.518,399.666,156.182C399.276,157.322,399.096,158.524,399.135,159.728L401.077,220.407Z');animation-timing-function: cubic-bezier(0.445,0.05,0.55,0.95)} 50% {d: path('M401.077,220.407L401.077,252.842C401.077,257.49,404.44,261.587,409.077,261.907C414.658,262.292,419.077,257.497,419.077,251.903L419.077,214.407L419.077,192.907L419.077,159.409C419.077,148.139,403.312,145.518,399.666,156.182C399.276,157.322,399.096,158.524,399.135,159.728L401.077,220.407Z');animation-timing-function: cubic-bezier(0.445,0.05,0.55,0.95)} 100% {d: path('M401.077,220.407L401.077,282.842C401.077,287.49,404.44,291.587,409.077,291.907C414.658,292.292,419.077,287.497,419.077,281.903L419.077,214.407L419.077,192.907L419.077,159.409C419.077,148.139,403.312,145.518,399.666,156.182C399.276,157.322,399.096,158.524,399.135,159.728L401.077,220.407Z')}} #eedCu9U3PBr5-fill {animation: eedCu9U3PBr5-fill__t 4000ms linear infinite normal forwards}@keyframes eedCu9U3PBr5-fill__t { 0% {transform: matrix(0,192.0004,-192.0004,0,418.077,99.9066);animation-timing-function: cubic-bezier(0.445,0.05,0.55,0.95)} 50% {transform: matrix(1.000001,131.5004,-131.5004,1.000001,418.077,99.9066);animation-timing-function: cubic-bezier(0.445,0.05,0.55,0.95)} 100% {transform: matrix(0,192.0004,-192.0004,0,418.077,99.9066)}} #eedCu9U3PBr5-fill-0 {animation: eedCu9U3PBr5-fill-0__c 4000ms linear infinite normal forwards}@keyframes eedCu9U3PBr5-fill-0__c { 0% {stop-color: rgba(239,234,96,0);animation-timing-function: cubic-bezier(0.445,0.05,0.55,0.95)} 50% {stop-color: rgba(239,234,96,0);animation-timing-function: cubic-bezier(0.445,0.05,0.55,0.95)} 100% {stop-color: rgba(239,234,96,0)}} #eedCu9U3PBr5-fill-1 {animation: eedCu9U3PBr5-fill-1__c 4000ms linear infinite normal forwards}@keyframes eedCu9U3PBr5-fill-1__c { 0% {stop-color: #fffeee;animation-timing-function: cubic-bezier(0.445,0.05,0.55,0.95)} 50% {stop-color: #fffeee;animation-timing-function: cubic-bezier(0.445,0.05,0.55,0.95)} 100% {stop-color: #fffeee}} #eedCu9U3PBr7_tr {animation: eedCu9U3PBr7_tr__tr 4000ms linear infinite normal forwards}@keyframes eedCu9U3PBr7_tr__tr { 0% {transform: translate(146.075px,135.6813px) rotate(0deg);animation-timing-function: cubic-bezier(0.445,0.05,0.55,0.95)} 25% {transform: translate(146.075px,135.6813px) rotate(11.202591deg);animation-timing-function: cubic-bezier(0.445,0.05,0.55,0.95)} 50% {transform: translate(146.075px,135.6813px) rotate(11.202591deg);animation-timing-function: cubic-bezier(0.445,0.05,0.55,0.95)} 75% {transform: translate(146.075px,135.6813px) rotate(0deg)} 100% {transform: translate(146.075px,135.6813px) rotate(0deg)}} #eedCu9U3PBr36_to {animation: eedCu9U3PBr36_to__to 4000ms linear infinite normal forwards}@keyframes eedCu9U3PBr36_to__to { 0% {transform: translate(194.5px,68.4067px);animation-timing-function: cubic-bezier(0.445,0.05,0.55,0.95)} 25% {transform: translate(185.926302px,71.406849px);animation-timing-function: cubic-bezier(0.445,0.05,0.55,0.95)} 50% {transform: translate(185.926302px,71.406849px);animation-timing-function: cubic-bezier(0.445,0.05,0.55,0.95)} 75% {transform: translate(194.5px,68.4067px)} 100% {transform: translate(194.5px,68.4067px)}} #eedCu9U3PBr36_ts {animation: eedCu9U3PBr36_ts__ts 4000ms linear infinite normal forwards}@keyframes eedCu9U3PBr36_ts__ts { 0% {transform: scale(1,1);animation-timing-function: cubic-bezier(0.445,0.05,0.55,0.95)} 37.5% {transform: scale(0.7,0.7);animation-timing-function: cubic-bezier(0.445,0.05,0.55,0.95)} 75% {transform: scale(1,1)} 100% {transform: scale(1,1)}} #eedCu9U3PBr37_to {animation: eedCu9U3PBr37_to__to 4000ms linear infinite normal forwards}@keyframes eedCu9U3PBr37_to__to { 0% {transform: translate(336px,208.907px);animation-timing-function: cubic-bezier(0.445,0.05,0.55,0.95)} 75% {transform: translate(336px,208.907px)} 100% {transform: translate(336px,208.907px)}} #eedCu9U3PBr51 {animation: eedCu9U3PBr51__m 4000ms linear infinite normal forwards}@keyframes eedCu9U3PBr51__m { 0% {d: path('M137.927,285.194L156.061,333.685C157.44,337.373,161.583,339.204,165.238,337.742C168.56,336.413,170.35,332.797,169.393,329.35L151.075,263.407L134.33,202.01C133.496,198.95,132.99,195.81,132.822,192.643L130.666,152.108C130.615,151.154,129.827,150.407,128.872,150.407C127.879,150.407,127.075,151.211,127.075,152.203L127.075,196.781C127.075,197.197,127.111,197.613,127.182,198.024L131.099,220.545C131.55,223.137,128.138,224.501,126.678,222.312C125.261,220.186,121.944,221.403,122.238,223.941L129.308,284.973C129.589,287.396,132.993,287.687,133.681,285.347C134.288,283.283,137.173,283.179,137.927,285.194Z');animation-timing-function: cubic-bezier(0.445,0.05,0.55,0.95)} 50% {d: path('M136.077,270.929L152.336738,322.943001C153.715738,326.631,157.858738,328.462001,161.513738,327C164.835738,325.671001,166.625738,322.055,165.668738,318.608L151.075,263.407L134.33,202.01C133.496,198.95,132.99,195.81,132.822,192.643L130.666,152.108C130.615,151.154,129.827,150.407,128.872,150.407C127.879,150.407,127.075,151.211,127.075,152.203L127.075,196.781C127.075,197.197,127.111,197.613,127.182,198.024L128.872,209.907C129.322999,212.499,125.911001,213.863,124.451001,211.674C123.034001,209.548,119.717,210.765,120.011,213.303L127.458,270.708C127.739,273.131,131.143,273.422,131.831,271.082C132.438,269.018,135.323,268.914,136.077,270.929Z');animation-timing-function: cubic-bezier(0.445,0.05,0.55,0.95)} 100% {d: path('M137.927,285.194L156.061,333.685C157.44,337.373,161.583,339.204,165.238,337.742C168.56,336.413,170.35,332.797,169.393,329.35L151.075,263.407L134.33,202.01C133.496,198.95,132.99,195.81,132.822,192.643L130.666,152.108C130.615,151.154,129.827,150.407,128.872,150.407C127.879,150.407,127.075,151.211,127.075,152.203L127.075,196.781C127.075,197.197,127.111,197.613,127.182,198.024L131.099,220.545C131.55,223.137,128.138,224.501,126.678,222.312C125.261,220.186,121.944,221.403,122.238,223.941L129.308,284.973C129.589,287.396,132.993,287.687,133.681,285.347C134.288,283.283,137.173,283.179,137.927,285.194Z')}} #eedCu9U3PBr52_to {animation: eedCu9U3PBr52_to__to 4000ms linear infinite normal forwards}@keyframes eedCu9U3PBr52_to__to { 0% {transform: translate(27.162381px,69.486166px);animation-timing-function: cubic-bezier(0.445,0.05,0.55,0.95)} 25% {transform: translate(52.099502px,54.715077px);animation-timing-function: cubic-bezier(0.445,0.05,0.55,0.95)} 50% {transform: translate(52.099502px,54.715077px);animation-timing-function: cubic-bezier(0.445,0.05,0.55,0.95)} 75% {transform: translate(27.162381px,69.486166px)} 100% {transform: translate(27.162381px,69.486166px)}} #eedCu9U3PBr52_tr {animation: eedCu9U3PBr52_tr__tr 4000ms linear infinite normal forwards}@keyframes eedCu9U3PBr52_tr__tr { 0% {transform: rotate(0deg);animation-timing-function: cubic-bezier(0.445,0.05,0.55,0.95)} 25% {transform: rotate(-13.143307deg);animation-timing-function: cubic-bezier(0.445,0.05,0.55,0.95)} 50% {transform: rotate(-14.352122deg);animation-timing-function: cubic-bezier(0.445,0.05,0.55,0.95)} 75% {transform: rotate(0deg)} 100% {transform: rotate(0deg)}} #eedCu9U3PBr54 {animation: eedCu9U3PBr54__m 4000ms linear infinite normal forwards}@keyframes eedCu9U3PBr54__m { 0% {d: path('M9.00984,114.064L17.9736,86.2766C18.346,85.122,19.3139,84.2592,20.5035,84.0213C23.0054,83.5209,25.1253,85.8908,24.3502,88.3217L15.6282,115.677C15.2817,116.764,14.4369,117.62,13.3547,117.981L13.0628,118.078C11.6173,118.56,10.0326,117.954,9.27664,116.631C8.8308,115.851,8.73397,114.919,9.00984,114.064Z');animation-timing-function: cubic-bezier(0.175,0.885,0.32,1.275)} 25% {d: path('M9.00984,114.064L17.9736,86.2766C19.225414,84.157198,17.458236,89.696725,20.084155,89.44014C22.586056,88.939741,25.1253,85.8908,24.3502,88.3217L15.6282,115.677C15.2817,116.764,14.4369,117.62,13.3547,117.981L13.0628,118.078C11.6173,118.56,10.0326,117.954,9.27664,116.631C8.8308,115.851,8.73397,114.919,9.00984,114.064Z');animation-timing-function: cubic-bezier(0.39,0.575,0.565,1)} 50% {d: path('M9.00984,114.064L17.9736,86.2766C20.104828,83.192395,20.455976,81.085275,24.518216,80.810006C27.020116,80.309606,25.1253,85.8908,24.3502,88.3217L15.6282,115.677C15.2817,116.764,14.4369,117.62,13.3547,117.981L13.0628,118.078C11.6173,118.56,10.0326,117.954,9.27664,116.631C8.8308,115.851,8.73397,114.919,9.00984,114.064Z');animation-timing-function: cubic-bezier(0.175,0.885,0.32,1.275)} 75% {d: path('M9.00984,114.064L17.9736,86.2766C18.346,85.122,19.3139,84.2592,20.5035,84.0213C23.0054,83.5209,25.1253,85.8908,24.3502,88.3217L15.6282,115.677C15.2817,116.764,14.4369,117.62,13.3547,117.981L13.0628,118.078C11.6173,118.56,10.0326,117.954,9.27664,116.631C8.8308,115.851,8.73397,114.919,9.00984,114.064Z')} 100% {d: path('M9.00984,114.064L17.9736,86.2766C18.346,85.122,19.3139,84.2592,20.5035,84.0213C23.0054,83.5209,25.1253,85.8908,24.3502,88.3217L15.6282,115.677C15.2817,116.764,14.4369,117.62,13.3547,117.981L13.0628,118.078C11.6173,118.56,10.0326,117.954,9.27664,116.631C8.8308,115.851,8.73397,114.919,9.00984,114.064Z')}}
]]></style>
<defs><linearGradient id="eedCu9U3PBr2-fill" x1="408.577" y1="284.407" x2="417.577" y2="319.907" spreadMethod="pad" gradientUnits="userSpaceOnUse" gradientTransform="translate(0 0)"><stop id="eedCu9U3PBr2-fill-0" offset="0%" stop-color="rgba(209,208,90,0)"/><stop id="eedCu9U3PBr2-fill-1" offset="36.1878%" stop-color="#d1d05a"/><stop id="eedCu9U3PBr2-fill-2" offset="69.2814%" stop-color="rgba(242,237,96,0)"/></linearGradient><linearGradient id="eedCu9U3PBr3-fill" x1="462.577" y1="292.907" x2="377.577" y2="292.907" spreadMethod="pad" gradientUnits="userSpaceOnUse" gradientTransform="translate(0 0)"><stop id="eedCu9U3PBr3-fill-0" offset="0%" stop-color="rgba(244,238,97,0.42)"/><stop id="eedCu9U3PBr3-fill-1" offset="45.6633%" stop-color="#f4ee61"/><stop id="eedCu9U3PBr3-fill-2" offset="100%" stop-color="rgba(244,238,97,0)"/></linearGradient><linearGradient id="eedCu9U3PBr4-fill" x1="414" y1="89.5" x2="413.5" y2="310" spreadMethod="pad" gradientUnits="userSpaceOnUse" gradientTransform="translate(0 0)"><stop id="eedCu9U3PBr4-fill-0" offset="0%" stop-color="rgba(244,231,123,0)"/><stop id="eedCu9U3PBr4-fill-1" offset="96.7116%" stop-color="rgba(239,208,96,0.29)"/></linearGradient><linearGradient id="eedCu9U3PBr5-fill" x1="0" y1="0" x2="1" y2="0" spreadMethod="pad" gradientUnits="userSpaceOnUse" gradientTransform="matrix(0 192.0004 -192.0004 0 418.077 99.9066)"><stop id="eedCu9U3PBr5-fill-0" offset="32.2917%" stop-color="rgba(239,234,96,0)"/><stop id="eedCu9U3PBr5-fill-1" offset="100%" stop-color="#fffeee"/></linearGradient><linearGradient id="eedCu9U3PBr6-fill" x1="413.577" y1="88.4066" x2="409.077" y2="352.407" spreadMethod="pad" gradientUnits="userSpaceOnUse" gradientTransform="translate(0 0)"><stop id="eedCu9U3PBr6-fill-0" offset="0%" stop-color="rgba(0,224,202,0.2)"/><stop id="eedCu9U3PBr6-fill-1" offset="0.01%" stop-color="rgba(239,234,96,0.2)"/><stop id="eedCu9U3PBr6-fill-2" offset="48.8923%" stop-color="#efea60"/><stop id="eedCu9U3PBr6-fill-3" offset="85.3717%" stop-color="#fff961"/></linearGradient><radialGradient id="eedCu9U3PBr8-fill" cx="0" cy="0" r="1" spreadMethod="pad" gradientUnits="userSpaceOnUse" gradientTransform="matrix(75.2544 127.149 -84.4294 49.9704 59.1924 62.6277)"><stop id="eedCu9U3PBr8-fill-0" offset="0%" stop-color="#17385a"/><stop id="eedCu9U3PBr8-fill-1" offset="45.9327%" stop-color="#061728"/><stop id="eedCu9U3PBr8-fill-2" offset="98.9583%" stop-color="#00e0ca"/></radialGradient><radialGradient id="eedCu9U3PBr10-fill" cx="0" cy="0" r="1" spreadMethod="pad" gradientUnits="userSpaceOnUse" gradientTransform="matrix(-1.77275 9.61641 -22.7867 -4.20065 35.9173 56.4792)"><stop id="eedCu9U3PBr10-fill-0" offset="0%" stop-color="#ccdeec"/><stop id="eedCu9U3PBr10-fill-1" offset="100%" stop-color="#bcd9eb"/></radialGradient><linearGradient id="eedCu9U3PBr11-fill" x1="37.69" y1="46.8628" x2="34.1447" y2="66.0956" spreadMethod="pad" gradientUnits="userSpaceOnUse" gradientTransform="translate(0 0)"><stop id="eedCu9U3PBr11-fill-0" offset="0%" stop-color="#c7e8fa"/><stop id="eedCu9U3PBr11-fill-1" offset="100%" stop-color="#b6cede"/></linearGradient><linearGradient id="eedCu9U3PBr12-fill" x1="41.274" y1="56.3411" x2="57.2097" y2="60.2217" spreadMethod="pad" gradientUnits="userSpaceOnUse" gradientTransform="translate(0 0)"><stop id="eedCu9U3PBr12-fill-0" offset="0%" stop-color="#fff"/><stop id="eedCu9U3PBr12-fill-1" offset="100%" stop-color="rgba(217,217,217,0.9)"/></linearGradient><linearGradient id="eedCu9U3PBr13-fill" x1="41.274" y1="56.3411" x2="57.2097" y2="60.2217" spreadMethod="pad" gradientUnits="userSpaceOnUse" gradientTransform="translate(0 0)"><stop id="eedCu9U3PBr13-fill-0" offset="0%" stop-color="#fff"/><stop id="eedCu9U3PBr13-fill-1" offset="100%" stop-color="rgba(217,217,217,0.9)"/></linearGradient><linearGradient id="eedCu9U3PBr14-fill" x1="29.9314" y1="58.8074" x2="15.543" y2="50.9346" spreadMethod="pad" gradientUnits="userSpaceOnUse" gradientTransform="translate(0 0)"><stop id="eedCu9U3PBr14-fill-0" offset="0%" stop-color="#fff"/><stop id="eedCu9U3PBr14-fill-1" offset="100%" stop-color="rgba(217,217,217,0.9)"/></linearGradient><linearGradient id="eedCu9U3PBr15-fill" x1="29.9314" y1="58.8074" x2="15.543" y2="50.9346" spreadMethod="pad" gradientUnits="userSpaceOnUse" gradientTransform="translate(0 0)"><stop id="eedCu9U3PBr15-fill-0" offset="0%" stop-color="#fff"/><stop id="eedCu9U3PBr15-fill-1" offset="100%" stop-color="rgba(217,217,217,0.9)"/></linearGradient><linearGradient id="eedCu9U3PBr16-stroke" x1="0.554231" y1="0.73241" x2="0.593221" y2="0.024074" spreadMethod="pad" gradientUnits="objectBoundingBox" gradientTransform="translate(0 0)"><stop id="eedCu9U3PBr16-stroke-0" offset="0%" stop-color="rgba(0,0,0,0)"/><stop id="eedCu9U3PBr16-stroke-1" offset="81%" stop-color="#1cfee7"/><stop id="eedCu9U3PBr16-stroke-2" offset="100%" stop-color="#fff"/></linearGradient><linearGradient id="eedCu9U3PBr17-fill" x1="291.176" y1="38.7686" x2="254.312" y2="120.798" spreadMethod="pad" gradientUnits="userSpaceOnUse" gradientTransform="translate(0 0)"><stop id="eedCu9U3PBr17-fill-0" offset="28.3572%" stop-color="#fff"/><stop id="eedCu9U3PBr17-fill-1" offset="100%" stop-color="rgba(255,255,255,0)"/></linearGradient><radialGradient id="eedCu9U3PBr19-fill" cx="0" cy="0" r="1" spreadMethod="pad" gradientUnits="userSpaceOnUse" gradientTransform="matrix(0 184.592 -113.317 0 245.316 203.999)"><stop id="eedCu9U3PBr19-fill-0" offset="0%" stop-color="#ccdeec"/><stop id="eedCu9U3PBr19-fill-1" offset="100%" stop-color="#bcd9eb"/></radialGradient><linearGradient id="eedCu9U3PBr20-fill" x1="245.316" y1="19.4067" x2="245.316" y2="388.591" spreadMethod="pad" gradientUnits="userSpaceOnUse" gradientTransform="translate(0 0)"><stop id="eedCu9U3PBr20-fill-0" offset="0%" stop-color="#dff3fd"/><stop id="eedCu9U3PBr20-fill-1" offset="100%" stop-color="#b6cede"/></linearGradient><filter id="eedCu9U3PBr21-filter" x="-150%" width="400%" y="-150%" height="400%"><feGaussianBlur id="eedCu9U3PBr21-filter-blur-0" stdDeviation="20,20" result="result"/></filter><linearGradient id="eedCu9U3PBr24-fill" x1="190.5" y1="65.884" x2="190.5" y2="270.929" spreadMethod="pad" gradientUnits="userSpaceOnUse" gradientTransform="translate(0 0)"><stop id="eedCu9U3PBr24-fill-0" offset="0%" stop-color="#fff"/><stop id="eedCu9U3PBr24-fill-1" offset="100%" stop-color="rgba(255,255,255,0)"/></linearGradient><radialGradient id="eedCu9U3PBr25-fill" cx="0" cy="0" r="1" spreadMethod="pad" gradientUnits="userSpaceOnUse" gradientTransform="matrix(0 22 -22 0 329 209.407)"><stop id="eedCu9U3PBr25-fill-0" offset="0%" stop-color="#ccdeec"/><stop id="eedCu9U3PBr25-fill-1" offset="100%" stop-color="#bcd9eb"/></radialGradient><linearGradient id="eedCu9U3PBr26-fill" x1="329" y1="187.407" x2="329" y2="231.407" spreadMethod="pad" gradientUnits="userSpaceOnUse" gradientTransform="translate(0 0)"><stop id="eedCu9U3PBr26-fill-0" offset="0%" stop-color="#c7e8fa"/><stop id="eedCu9U3PBr26-fill-1" offset="100%" stop-color="#b6cede"/></linearGradient><linearGradient id="eedCu9U3PBr27-fill" x1="329" y1="173.319" x2="329" y2="250.126" spreadMethod="pad" gradientUnits="userSpaceOnUse" gradientTransform="translate(0 0)"><stop id="eedCu9U3PBr27-fill-0" offset="18.2292%" stop-color="rgba(217,217,217,0)"/><stop id="eedCu9U3PBr27-fill-1" offset="46.875%" stop-color="#fff"/><stop id="eedCu9U3PBr27-fill-2" offset="82.2917%" stop-color="rgba(217,217,217,0)"/></linearGradient><radialGradient id="eedCu9U3PBr28-fill" cx="0" cy="0" r="1" spreadMethod="pad" gradientUnits="userSpaceOnUse" gradientTransform="matrix(0 15.5 -15 0 336 208.907)"><stop id="eedCu9U3PBr28-fill-0" offset="0%" stop-color="#ccdeec"/><stop id="eedCu9U3PBr28-fill-1" offset="100%" stop-color="#bcd9eb"/></radialGradient><linearGradient id="eedCu9U3PBr29-fill" x1="336" y1="193.407" x2="336" y2="224.407" spreadMethod="pad" gradientUnits="userSpaceOnUse" gradientTransform="translate(0 0)"><stop id="eedCu9U3PBr29-fill-0" offset="0%" stop-color="#c7e8fa"/><stop id="eedCu9U3PBr29-fill-1" offset="100%" stop-color="#b6cede"/></linearGradient><radialGradient id="eedCu9U3PBr31-fill" cx="0" cy="0" r="1" spreadMethod="pad" gradientUnits="userSpaceOnUse" gradientTransform="matrix(0 32.5 -32.5 0 199.5 73.9067)"><stop id="eedCu9U3PBr31-fill-0" offset="0%" stop-color="#ccdeec"/><stop id="eedCu9U3PBr31-fill-1" offset="100%" stop-color="#bcd9eb"/></radialGradient><linearGradient id="eedCu9U3PBr34-fill" x1="196.5" y1="41.8533" x2="196.5" y2="92.0545" spreadMethod="pad" gradientUnits="userSpaceOnUse" gradientTransform="translate(0 0)"><stop id="eedCu9U3PBr34-fill-0" offset="0%" stop-color="#1fffe6"/><stop id="eedCu9U3PBr34-fill-1" offset="100%" stop-color="rgba(39,40,41,0)"/></linearGradient><filter id="eedCu9U3PBr36-filter" x="-150%" width="400%" y="-150%" height="400%"><feGaussianBlur id="eedCu9U3PBr36-filter-blur-0" stdDeviation="1,1" result="result"/></filter><radialGradient id="eedCu9U3PBr38-fill" cx="0" cy="0" r="1" spreadMethod="pad" gradientUnits="userSpaceOnUse" gradientTransform="matrix(150.018 -113.827999 83.8038 110.448 268.292 315.511)"><stop id="eedCu9U3PBr38-fill-0" offset="0%" stop-color="#17385a"/><stop id="eedCu9U3PBr38-fill-1" offset="45.9327%" stop-color="#061728"/><stop id="eedCu9U3PBr38-fill-2" offset="95.4869%" stop-color="#efea60"/></radialGradient><radialGradient id="eedCu9U3PBr40-fill" cx="0" cy="0" r="1" spreadMethod="pad" gradientUnits="userSpaceOnUse" gradientTransform="matrix(13.5079 0.964699 -1.67071 23.3936 277.446 330.799)"><stop id="eedCu9U3PBr40-fill-0" offset="0%" stop-color="#ccdeec"/><stop id="eedCu9U3PBr40-fill-1" offset="100%" stop-color="#bcd9eb"/></radialGradient><linearGradient id="eedCu9U3PBr41-fill" x1="263.938" y1="329.835" x2="290.954" y2="331.764" spreadMethod="pad" gradientUnits="userSpaceOnUse" gradientTransform="translate(0 0)"><stop id="eedCu9U3PBr41-fill-0" offset="0%" stop-color="#c7e8fa"/><stop id="eedCu9U3PBr41-fill-1" offset="100%" stop-color="#b6cede"/></linearGradient><linearGradient id="eedCu9U3PBr42-fill" x1="272.58" y1="336.847" x2="274.498" y2="353.136" spreadMethod="pad" gradientUnits="userSpaceOnUse" gradientTransform="translate(0 0)"><stop id="eedCu9U3PBr42-fill-0" offset="0%" stop-color="#fff"/><stop id="eedCu9U3PBr42-fill-1" offset="100%" stop-color="rgba(217,217,217,0.9)"/></linearGradient><linearGradient id="eedCu9U3PBr43-fill" x1="269.344" y1="327.967" x2="271.435" y2="311.699" spreadMethod="pad" gradientUnits="userSpaceOnUse" gradientTransform="translate(0 0)"><stop id="eedCu9U3PBr43-fill-0" offset="0%" stop-color="#fff"/><stop id="eedCu9U3PBr43-fill-1" offset="100%" stop-color="rgba(217,217,217,0.9)"/></linearGradient><linearGradient id="eedCu9U3PBr44-fill" x1="272.58" y1="336.847" x2="274.498" y2="353.136" spreadMethod="pad" gradientUnits="userSpaceOnUse" gradientTransform="translate(0 0)"><stop id="eedCu9U3PBr44-fill-0" offset="0%" stop-color="#fff"/><stop id="eedCu9U3PBr44-fill-1" offset="100%" stop-color="rgba(217,217,217,0.9)"/></linearGradient><linearGradient id="eedCu9U3PBr45-fill" x1="118.575" y1="243.407" x2="122.075" y2="337.407" spreadMethod="pad" gradientUnits="userSpaceOnUse" gradientTransform="translate(0 0)"><stop id="eedCu9U3PBr45-fill-0" offset="0%" stop-color="#00e0ca"/><stop id="eedCu9U3PBr45-fill-1" offset="100%" stop-color="rgba(255,255,255,0)"/></linearGradient><linearGradient id="eedCu9U3PBr46-fill" x1="171.075" y1="192.907" x2="73.0747" y2="304.907" spreadMethod="pad" gradientUnits="userSpaceOnUse" gradientTransform="translate(0 0)"><stop id="eedCu9U3PBr46-fill-0" offset="0%" stop-color="rgba(255,255,255,0)"/><stop id="eedCu9U3PBr46-fill-1" offset="64.6874%" stop-color="#00e0ca"/><stop id="eedCu9U3PBr46-fill-2" offset="100%" stop-color="rgba(255,255,255,0)"/></linearGradient><linearGradient id="eedCu9U3PBr47-fill" x1="142" y1="119" x2="67.854" y2="400.725" spreadMethod="pad" gradientUnits="userSpaceOnUse" gradientTransform="translate(0 0)"><stop id="eedCu9U3PBr47-fill-0" offset="0%" stop-color="rgba(126,157,154,0)"/><stop id="eedCu9U3PBr47-fill-1" offset="100%" stop-color="rgba(0,224,202,0.53)"/></linearGradient><linearGradient id="eedCu9U3PBr50-fill" x1="121.825" y1="201.907" x2="121.825" y2="338.463" spreadMethod="pad" gradientUnits="userSpaceOnUse" gradientTransform="translate(0 0)"><stop id="eedCu9U3PBr50-fill-0" offset="0%" stop-color="#4deaff"/><stop id="eedCu9U3PBr50-fill-1" offset="100%" stop-color="rgba(0,224,202,0)"/></linearGradient><linearGradient id="eedCu9U3PBr51-fill" x1="144.075" y1="81.4069" x2="146.075" y2="340.407" spreadMethod="pad" gradientUnits="userSpaceOnUse" gradientTransform="translate(0 0)"><stop id="eedCu9U3PBr51-fill-0" offset="22.9167%" stop-color="rgba(0,224,202,0)"/><stop id="eedCu9U3PBr51-fill-1" offset="58.8542%" stop-color="rgba(255,255,255,0.61)"/><stop id="eedCu9U3PBr51-fill-2" offset="100%" stop-color="rgba(255,255,255,0.58)"/></linearGradient><linearGradient id="eedCu9U3PBr53-fill" x1="47" y1="-0.999999" x2="10.3891" y2="120.089" spreadMethod="pad" gradientUnits="userSpaceOnUse" gradientTransform="translate(0 0)"><stop id="eedCu9U3PBr53-fill-0" offset="0%" stop-color="rgba(243,109,109,0)"/><stop id="eedCu9U3PBr53-fill-1" offset="100%" stop-color="rgba(243,109,109,0.56)"/></linearGradient><linearGradient id="eedCu9U3PBr55-fill" x1="18.0767" y1="64.9066" x2="18.0767" y2="117.407" spreadMethod="pad" gradientUnits="userSpaceOnUse" gradientTransform="translate(0 0)"><stop id="eedCu9U3PBr55-fill-0" offset="0%" stop-color="#fffbfb"/><stop id="eedCu9U3PBr55-fill-1" offset="100%" stop-color="rgba(255,153,153,0)"/></linearGradient><linearGradient id="eedCu9U3PBr56-fill" x1="41.8391" y1="20.0772" x2="10.3889" y2="120.089" spreadMethod="pad" gradientUnits="userSpaceOnUse" gradientTransform="translate(0 0)"><stop id="eedCu9U3PBr56-fill-0" offset="0%" stop-color="rgba(255,255,255,0.24)"/><stop id="eedCu9U3PBr56-fill-1" offset="100%" stop-color="#ff8c8c"/></linearGradient><linearGradient id="eedCu9U3PBr57-fill" x1="122.077" y1="145.407" x2="122.077" y2="149.407" spreadMethod="pad" gradientUnits="userSpaceOnUse" gradientTransform="translate(0 0)"><stop id="eedCu9U3PBr57-fill-0" offset="0%" stop-color="#00e0ca"/><stop id="eedCu9U3PBr57-fill-1" offset="100%" stop-color="rgba(0,224,202,0)"/></linearGradient></defs><path d="M393.39,296.818l3.474-1.801c.131-.068.213-.203.213-.35c0-.484,3.698-2.856,4.17-2.752c2.494.547,6.475.992,12.83.992l16.5-3v5l3.83,2.062c4.454,2.399,4.241,7.053-.765,7.787-4.422.648-10.707,1.151-19.565,1.151-8.88,0-15.3-.505-19.887-1.156-5.028-.713-5.309-5.595-.8-7.933Z" opacity="0.3" fill="url(#eedCu9U3PBr2-fill)"/><path d="M397.077,289.907v-76c0,0,2-4,16.5-4s17,4,17,4v76c0,0,0,3-17,3s-16.5-3-16.5-3Z" opacity="0.8" fill="url(#eedCu9U3PBr3-fill)"/><path d="M379.5,302.5v2c0,0,11,5.5,35.5,5.5s32.5-5.5,32.5-5.5v-2L433,294L431,93.5h-42c.333.5,1.5,2,3.5,4s1.833,131.833,1.5,196.5l-14.5,8.5Z" opacity="0.4" fill="url(#eedCu9U3PBr4-fill)"/><path id="eedCu9U3PBr5" d="M401.077,220.407v62.435c0,4.648,3.363,8.745,8,9.065c5.581.385,10-4.41,10-10.004v-67.496-21.5-33.498c0-11.27-15.765-13.891-19.411-3.227-.39,1.14-.57,2.342-.531,3.546l1.942,60.679Z" fill="url(#eedCu9U3PBr5-fill)"/><path d="M431.805,90.5403c-9.233-2.1934-22.939-1.4841-31.998-.4743-3.566.3974-7.004,1.526-10.226,3.1376l-.265.1328c-.235.1172-.278.4744-.047.6516.919.705,2.23,1.7975,3.575,3.1431.095.0944.144.228.174.3207.035.1101.067.2465.097.403.059.3143.115.7425.168,1.274.107,1.0652.206,2.5732.298,4.4742.185,3.805.344,9.206.479,15.833.271,13.256.449,31.43.561,51.591.223,40.321.177,88.59.066,121.346-.005,1.407-.783,2.651-2.015,3.311l-12.126,6.488c-.478.256-.776.754-.776,1.296v.572c0,.305.199.574.491.661v0c.482.143,1.195.347,2.112.592c1.836.491,4.494,1.146,7.78,1.801c6.573,1.309,15.651,2.619,25.677,2.619c10.025,0,17.973-1.309,23.411-2.617c2.718-.653,4.81-1.306,6.219-1.795.705-.245,1.239-.448,1.596-.59v0c.199-.079.327-.272.327-.486v-.696c0-.58-.319-1.112-.83-1.386l-12.082-6.465c-1.23-.658-2.003-1.936-2.015-3.332L430.741,93.6794c-.001-.1125.016-.2333.062-.3525.147-.3799.521-1.161,1.199-2.2571.136-.2182.017-.4788-.197-.5295ZM379.423,304.808l-.106.33v0c-.143-.046-.24-.18-.24-.33v-1.333c0-.802.441-1.54,1.149-1.918l12.119-6.485c1.015-.544,1.644-1.558,1.648-2.701.112-32.755.157-81.022-.066-121.341-.111-20.159-.29-38.33-.56-51.58-.136-6.625-.294-12.018-.478-15.813-.093-1.898-.191-3.392-.296-4.439-.053-.5244-.106-.9296-.16-1.2148-.027-.1432-.052-.2481-.075-.3193v0c-.013-.041-.038-.0767-.069-.1071-1.297-1.2907-2.558-2.3396-3.442-3.0184-.614-.4713-.56-1.4632.158-1.8225l.266-.1328c3.282-1.6415,6.799-2.7986,10.459-3.2066c9.065-1.0104,22.875-1.7346,32.236.4888.709.1686.991.9807.626,1.5697-.664,1.0732-1.015,1.8151-1.143,2.1431-.009.0236-.015.0548-.015.0954L433.149,292.34c.01,1.142.642,2.188,1.649,2.726l12.068,6.458c.745.399,1.211,1.175,1.211,2.021v1.263c0,.137-.081.261-.206.317v0l-.024-.055c.024.055.024.055.024.055h-.001l-.009.004-.028.012c-.024.01-.059.026-.106.045-.093.04-.232.097-.415.17-.366.145-.91.352-1.625.6-1.429.496-3.542,1.156-6.284,1.815-5.485,1.319-13.487,2.636-23.573,2.636-10.084,0-19.209-1.317-25.812-2.633-3.302-.658-5.975-1.317-7.824-1.811-.924-.247-1.642-.453-2.13-.597-.243-.072-.43-.129-.555-.168-.063-.019-.111-.034-.143-.044l-.036-.012-.009-.003-.003-.001h-.001c0,0,0,0,.106-.33Z" clip-rule="evenodd" fill="url(#eedCu9U3PBr6-fill)" fill-rule="evenodd"/><g id="eedCu9U3PBr7_tr" transform="translate(146.075,135.6813) rotate(0)"><g transform="translate(-146.074995,-135.681299)"><path d="M45.3656,52.7496c-6.5172-5.5503-16.3-4.7665-21.8503,1.7508-6.599,7.7487-6.4216,17.7826-5.504,24.1556c1.0442,7.2526,3.7743,14.9677,7.4432,22.237c7.2483,14.361,19.7636,30.083,36.2582,39.011c30.4501,16.48,65.7573,18.611,90.8383,6.938c7.761-3.612,11.124-12.832,7.512-20.593s-12.832-11.124-20.593-7.512c-14.541,6.767-39.439,6.656-63.0019-6.096-9.4078-5.092-18.0435-15.2244-23.3387-25.7159-2.603-5.1573-3.9927-9.6183-4.4345-12.6869-.1004-.6968-.1417-1.2219-.1546-1.5989c3.9231-6.396,2.7169-14.8722-3.1747-19.8897Zm3.2052,19.1101c-.0036-.0029-.0154.0512-.0243.1706.0234-.1081.0279-.1678.0243-.1706Z" clip-rule="evenodd" fill="url(#eedCu9U3PBr8-fill)" fill-rule="evenodd"/><g transform="translate(.000001 0.000001)"><path d="M13.1306,52.2786c.9791-5.311,6.0781-8.8227,11.3891-7.8437l26.3407,4.8557c5.311.979,8.8227,6.0781,7.8437,11.3891v0c-.9791,5.311-6.0781,8.8228-11.3891,7.8437L20.9743,63.6678c-5.311-.9791-8.8227-6.0782-7.8437-11.3892v0Z" fill="url(#eedCu9U3PBr10-fill)"/><path d="M13.1306,52.2786c.9791-5.311,6.0781-8.8227,11.3891-7.8437l26.3407,4.8557c5.311.979,8.8227,6.0781,7.8437,11.3891v0c-.9791,5.311-6.0781,8.8228-11.3891,7.8437L20.9743,63.6678c-5.311-.9791-8.8227-6.0782-7.8437-11.3892v0Z" fill="url(#eedCu9U3PBr11-fill)"/><path d="M58.1349,54.3843c2.5925,4.7376.8535,10.6797-3.8841,13.2721s-10.6797.8535-13.2721-3.8841c-2.5925-4.7376-2.1407-26.7732,2.5969-29.3656c4.7375-2.5924,11.9669,15.2401,14.5593,19.9776Z" fill="url(#eedCu9U3PBr12-fill)"/><path d="M58.1349,54.3843c2.5925,4.7376.8535,10.6797-3.8841,13.2721s-10.6797.8535-13.2721-3.8841c-2.5925-4.7376-2.1407-26.7732,2.5969-29.3656c4.7375-2.5924,11.9669,15.2401,14.5593,19.9776Z" fill="url(#eedCu9U3PBr13-fill)"/><path d="M13.1384,56.3336c-1.2779-5.2471,11.1911-23.649,16.4383-24.9269s2.5632,20.2992,2.5632,20.2992-1.9398,10.5366-7.1869,11.8145-10.5367-1.9397-11.8146-7.1868Z" fill="url(#eedCu9U3PBr14-fill)"/><path d="M13.1384,56.3336c-1.2779-5.2471,11.1911-23.649,16.4383-24.9269s2.5632,20.2992,2.5632,20.2992-1.9398,10.5366-7.1869,11.8145-10.5367-1.9397-11.8146-7.1868Z" fill="url(#eedCu9U3PBr15-fill)"/></g></g></g><path d="M359,137.391c0-62.3996-50.816-112.9843-113.5-112.9843-62.685,0-113.5,50.5847-113.5,112.9843c0,.098,0,.197,0,.295v145.729c0,0,20.624,13.877,34.375,17.7c27.403,7.617,44.161,11.484,72.605,12.094c25.398.546,41.234.253,66.974-4.72c14.578-2.816,23.411-5.31,36.747-9.734C349.8,296.399,359,288.725,359,288.725s0-88.935,0-151.334Z" fill="none" stroke="url(#eedCu9U3PBr16-stroke)"/><path d="M346.182,138.164c-15.595,33.483-65.505,43.269-111.478,21.857-45.973-21.411-70.599-65.9116-55.005-99.3946s65.504-43.2691,111.477-21.8578s70.6,65.9124,55.006,99.3954Z" opacity="0.39" fill="url(#eedCu9U3PBr17-fill)"/><path d="M226.755,152.12c0-62.5214,82.836-132.7133,20.152-132.7133s-112.907,55.1175-112.907,117.6393c0,.098,0,.197,0,.295v146.015c0,0,20.624,13.904,34.375,17.734c27.403,7.633,44.161,11.507,72.605,12.119c25.398.546,41.234.253,66.974-4.729c14.578-2.822,23.411-5.321,36.747-9.754c7.099-2.36,9.828-6.423,15.875-10.819-130.985-50.248-133.821-73.265-133.821-135.787Z" fill="#fff"/><path d="M224.605,152.159c0-62.5397,82.702-132.7523,20.119-132.7523s-112.724,55.1338-112.724,117.6743c0,.098,0,.197,0,.295v146.649c0,0,2.672,26.986,107.7,29.25C344.727,315.539,361,287.869,361,287.869C230.227,237.606,224.605,214.7,224.605,152.159Z" fill="url(#eedCu9U3PBr19-fill)"/><path d="M224.605,152.159c0-62.5397,82.702-132.7523,20.119-132.7523s-112.724,55.1338-112.724,117.6743c0,.098,0,.197,0,.295v146.649c0,0,2.672,26.986,107.7,29.25C344.727,315.539,361,287.869,361,287.869C230.227,237.606,224.605,214.7,224.605,152.159Z" fill="url(#eedCu9U3PBr20-fill)"/><g opacity="0.8" filter="url(#eedCu9U3PBr21-filter)"><path d="M177,246.5c0,44.459-8.059,80.5-18,80.5s-18-36.041-18-80.5s8.059-80.5,18-80.5s18,36.041,18,80.5Z" fill="#00e0ca"/></g><path d="M209.277,61.6625c2.103,1.8393,2.309,5.0264.46,7.1186-6.886,7.7925-22.597,38.0389-22.597,91.6149v110.967c0,2.785-2.27,5.044-5.07,5.044s-5.07-2.259-5.07-5.044v-110.967c0-55.137,16.101-88.0681,25.121-98.2755c1.849-2.0922,5.053-2.2972,7.156-.458Z" clip-rule="evenodd" fill="#182c49" fill-rule="evenodd"/><path d="M203.49,64.7745c.622.5387.683,1.4722.136,2.0849C195.942,75.4679,180,106.531,180,160.429v110.5c0,.816-.672,1.478-1.5,1.478-.829,0-1.5-.662-1.5-1.478v-110.5c0-54.355,16.057-86.2046,24.373-95.5203.547-.6128,1.495-.6728,2.117-.1342Z" clip-rule="evenodd" fill="url(#eedCu9U3PBr24-fill)" fill-rule="evenodd"/><path d="M351,209.407c0,12.15-9.85,22-22,22-12.151,0-22-9.85-22-22c0-12.151,9.849-22,22-22c12.15,0,22,9.849,22,22Z" fill="url(#eedCu9U3PBr25-fill)"/><path d="M351,209.407c0,12.15-9.85,22-22,22-12.151,0-22-9.85-22-22c0-12.151,9.849-22,22-22c12.15,0,22,9.849,22,22Z" fill="url(#eedCu9U3PBr26-fill)"/><path d="M351,209.407c0,12.15-9.85,22-22,22-12.151,0-22-9.85-22-22c0-12.151,9.849-22,22-22c12.15,0,22,9.849,22,22Z" opacity="0.7" fill="url(#eedCu9U3PBr27-fill)"/><path d="M351,208.907c0,8.56-6.716,15.5-15,15.5-8.285,0-15-6.94-15-15.5c0-8.561,6.715-15.5,15-15.5c8.284,0,15,6.939,15,15.5Z" fill="url(#eedCu9U3PBr28-fill)"/><path d="M351,208.907c0,8.56-6.716,15.5-15,15.5-8.285,0-15-6.94-15-15.5c0-8.561,6.715-15.5,15-15.5c8.284,0,15,6.939,15,15.5Z" fill="url(#eedCu9U3PBr29-fill)"/><g><path d="M232,73.9067c0,17.9493-14.551,32.5003-32.5,32.5003-17.95,0-32.5-14.551-32.5-32.5003s14.55-32.5,32.5-32.5c17.949,0,32.5,14.5508,32.5,32.5Z" fill="url(#eedCu9U3PBr31-fill)"/><path d="M232,73.9067c0,17.9493-14.551,32.5003-32.5,32.5003-17.95,0-32.5-14.551-32.5-32.5003s14.55-32.5,32.5-32.5c17.949,0,32.5,14.5508,32.5,32.5Z" fill="#061728"/><g><path d="M223,69.4067c0,14.3594-11.865,26-26.5,26-14.636,0-26.5-11.6406-26.5-26s11.864-26,26.5-26c14.635,0,26.5,11.6406,26.5,26Z" fill="url(#eedCu9U3PBr34-fill)"/></g><g><g id="eedCu9U3PBr36_to" transform="translate(194.5,68.4067)"><g id="eedCu9U3PBr36_ts" transform="scale(1,1)"><path d="M215,68.4067c0,11.0457-9.179,20-20.5,20-11.322,0-20.5-8.9543-20.5-20s9.178-20,20.5-20c11.321,0,20.5,8.9543,20.5,20Z" transform="translate(-194.5,-68.4067)" filter="url(#eedCu9U3PBr36-filter)" fill="#1fffe6"/></g></g></g></g><g id="eedCu9U3PBr37_to" transform="translate(336,208.907)"><g transform="translate(-336,-208.907)"><path d="M269.321,321.298c-4.794,7.092-2.931,16.728,4.161,21.522c8.432,5.7,18.384,4.412,24.616,2.794c7.093-1.841,14.458-5.409,21.276-9.86c13.47-8.795,27.709-22.975,34.754-40.356c13.006-32.089,11.213-67.415-3.166-91.048-4.45-7.313-13.985-9.635-21.299-5.185-7.313,4.45-9.634,13.985-5.185,21.298c8.337,13.702,10.985,38.459.92,63.29-4.018,9.914-13.131,19.619-22.972,26.043-4.837,3.159-9.116,5.034-12.117,5.813-.682.177-1.199.276-1.572.331-6.791-3.191-15.082-1.053-19.416,5.358Zm18.638-5.302c-.003.004.052.009.172.005-.11-.011-.17-.009-.172-.005Z" clip-rule="evenodd" fill="url(#eedCu9U3PBr38-fill)" fill-rule="evenodd"/><g><path d="M274.667,354.084c-6.781,0-12.117-5.79-11.564-12.548l1.926-23.548c.522-6.382,6.086-11.154,12.473-10.698v0c4.809.344,8.912,3.606,10.331,8.213l2.225,7.224c1.623,5.272,1.273,10.955-.985,15.988l-3.821,8.516c-1.87,4.17-6.015,6.853-10.585,6.853v0Z" fill="url(#eedCu9U3PBr40-fill)"/><path d="M274.667,354.084c-6.781,0-12.117-5.79-11.564-12.548l1.926-23.548c.522-6.382,6.086-11.154,12.473-10.698v0c4.809.344,8.912,3.606,10.331,8.213l2.225,7.224c1.623,5.272,1.273,10.955-.985,15.988l-3.821,8.516c-1.87,4.17-6.015,6.853-10.585,6.853v0Z" fill="url(#eedCu9U3PBr41-fill)"/><path d="M280.292,351.969c-3.537,4.081-25.76,4.578-29.841,1.041-4.082-3.537,15.061-13.849,15.061-13.849s9.712-4.523,13.793-.986c4.082,3.537,4.523,9.712.987,13.794Z" fill="url(#eedCu9U3PBr42-fill)"/><path d="M265.531,311.426c4.421-3.101,10.52-2.031,13.621,2.39c3.101,4.422,2.031,10.52-2.39,13.621-4.422,3.101-26.372,5.093-29.473.672s13.821-13.582,18.242-16.683Z" fill="url(#eedCu9U3PBr43-fill)"/><path d="M280.292,351.969c-3.537,4.081-25.76,4.578-29.841,1.041-4.082-3.537,15.061-13.849,15.061-13.849s9.712-4.523,13.793-.986c4.082,3.537,4.523,9.712.987,13.794Z" fill="url(#eedCu9U3PBr44-fill)"/></g></g></g><path d="M73.0747,322.969c0-.455.0632-.907.1877-1.344l19.4408-68.25c.2598-.912.5431-1.828,1.1402-2.565c1.9145-2.363,8.3306-7.403,28.2316-7.403c19.9,0,26.317,5.04,28.231,7.403.597.737.88,1.653,1.14,2.565l19.441,68.25c.125.437.188.889.188,1.344v0c0,1.929-1.131,3.68-2.89,4.473l-2.673,1.206c-.671.303-1.3.68-1.932,1.058-3.19,1.908-15.052,7.701-41.505,7.701-26.4536,0-38.3156-5.793-41.506-7.701-.632-.378-1.2602-.755-1.9316-1.058l-2.6735-1.206c-1.7586-.793-2.8892-2.544-2.8892-4.473v0Z" fill="url(#eedCu9U3PBr45-fill)"/><path d="M67.0747,328.948c0-.477.07-.952.2079-1.409L104.701,203.443c1.412-4.681,2.129-9.544,2.129-14.434v-37.564c0-.967-.315-1.908-.897-2.681l-.319-.424c-.375-.497-.577-1.103-.577-1.726v0c0-.54.186-1.055.665-1.302c1.349-.695,5.289-1.905,16.373-1.905c11.083,0,15.023,1.21,16.372,1.905.48.247.666.762.666,1.302v0c0,.623-.203,1.229-.578,1.726l-.319.424c-.582.773-.897,1.714-.897,2.681v37.564c0,4.89.718,9.753,2.129,14.434l37.419,124.096c.138.457.208.932.208,1.409v0c0,1.918-1.123,3.657-2.869,4.448l-3.524,1.595c-.122.055-.239.11-.36.167-1.865.876-18.445,8.249-48.247,8.249-29.803,0-46.3829-7.373-48.2474-8.249-.1212-.057-.2378-.112-.3598-.167l-3.5242-1.595c-1.7466-.791-2.8689-2.53-2.8689-4.448v0Z" opacity="0.4" fill="url(#eedCu9U3PBr46-fill)"/><path d="M105.474,144.868c1.462-.754,5.507-1.961,16.601-1.961s15.138,1.207,16.601,1.961c.715.368.937,1.111.937,1.746c0,.731-.238,1.443-.678,2.027l-.32.424c-.516.686-.796,1.521-.796,2.38v37.564c0,4.841.71,9.655,2.108,14.29l37.419,124.096c.151.504.229,1.027.229,1.553c0,2.114-1.237,4.032-3.163,4.903l-3.524,1.595c-.053.024-.105.048-.157.072-.064.03-.128.061-.197.093-1.92.902-18.572,8.296-48.459,8.296-29.8876,0-46.5398-7.394-48.46-8.296l-.0681-.032c-.0976-.046-.1894-.089-.2852-.133l-3.5242-1.595c-1.9256-.871-3.1628-2.789-3.1628-4.903c0-.526.0772-1.049.2292-1.553L104.223,203.299c1.397-4.635,2.107-9.449,2.107-14.29v-37.564c0-.859-.279-1.694-.796-2.38l-.319-.424c-.44-.584-.678-1.296-.678-2.027c0-.635.222-1.378.937-1.746Zm16.601-.961c-11.073,0-14.909,1.214-16.144,1.85-.244.126-.394.412-.394.857c0,.514.167,1.014.476,1.425l.32.424c.647.859.997,1.906.997,2.982v37.564c0,4.938-.724,9.85-2.15,14.579L67.7613,327.683c-.1237.411-.1866.837-.1866,1.265c0,1.721,1.0073,3.283,2.5751,3.992l3.5242,1.595c.1032.047.2033.094.3013.14l.0649.031c1.8088.849,18.3164,8.201,48.0348,8.201c29.718,0,46.225-7.352,48.034-8.201.119-.056.24-.114.366-.171L174,332.94c1.567-.709,2.575-2.271,2.575-3.992c0-.428-.063-.854-.187-1.265L138.969,203.588c-1.425-4.729-2.15-9.641-2.15-14.579v-37.564c0-1.076.35-2.123.998-2.982l.319-.424c.309-.411.477-.911.477-1.425c0-.445-.15-.731-.395-.857-1.235-.636-5.071-1.85-16.143-1.85Z" clip-rule="evenodd" fill="url(#eedCu9U3PBr47-fill)" fill-rule="evenodd"/><path d="M146.075,249.98c0,3.549-10.745,6.427-24,6.427v0c-12.506,0-10.492-2.335,1.458-6.023.424-.131.838-.266,1.242-.404c17.1-5.843,21.3-3.55,21.3,0Z" fill="#00e0ca"/><path d="M122.075,149.407c4.873,0,5.399.956.526.998-.175.001-.35.002-.526.002-.2,0-.398-.001-.595-.003-6.607-.063-6.012-.997.595-.997v0v0Z" fill="#00e0ca"/><path d="M94.6447,335.967c31.4123,5.063,53.8813,1.607,67.0683-3.12c6.904-2.475,10.61-6.301,8.506-13.326-5.787-19.325-76.6036-25.745-86.9682-8.438-6.139,10.251-.4023,22.983,11.3939,24.884Z" fill="url(#eedCu9U3PBr50-fill)"/><path id="eedCu9U3PBr51" d="M137.927,285.194l18.134,48.491c1.379,3.688,5.522,5.519,9.177,4.057c3.322-1.329,5.112-4.945,4.155-8.392l-18.318-65.943L134.33,202.01c-.834-3.06-1.34-6.2-1.508-9.367l-2.156-40.535c-.051-.954-.839-1.701-1.794-1.701-.993,0-1.797.804-1.797,1.796v44.578c0,.416.036.832.107,1.243l3.917,22.521c.451,2.592-2.961,3.956-4.421,1.767-1.417-2.126-4.734-.909-4.44,1.629l7.07,61.032c.281,2.423,3.685,2.714,4.373.374.607-2.064,3.492-2.168,4.246-.153Z" fill="url(#eedCu9U3PBr51-fill)"/><g id="eedCu9U3PBr52_to" transform="translate(27.162381,69.486166)"><g id="eedCu9U3PBr52_tr" transform="rotate(0)"><g transform="translate(-27.162381,-69.486166)"><path d="M45.9777,23.8667L16.7285,116.879c-.8223,2.615-3.6089,4.068-6.2239,3.246s-4.06834-3.609-3.246-6.224L21.2042,69.5541l7.7172-24.5409l3.8587-12.2705l3.7045-11.7804c.0987-.3138.0687-.6538-.0834-.9454l-.0735-.141c-.105-.2013-.1257-.4361-.0576-.6527.1418-.451.6224-.7016,1.0734-.5598l8.9217,2.8056c.4895.1539.7616.6756.6077,1.1652-.0551.175-.1607.3298-.3036.4449l-.1208.0973c-.2216.1786-.3855.4187-.4708.6903Z" fill="url(#eedCu9U3PBr53-fill)"/><path id="eedCu9U3PBr54" d="M9.00984,114.064L17.9736,86.2766c.3724-1.1546,1.3403-2.0174,2.5299-2.2553c2.5019-.5004,4.6218,1.8695,3.8467,4.3004l-8.722,27.3553c-.3465,1.087-1.1913,1.943-2.2735,2.304l-.2919.097c-1.4455.482-3.0302-.124-3.78616-1.447-.44584-.78-.54267-1.712-.2668-2.567Z" fill="#fa7c7c"/><path d="M8.65733,115.152L23.8769,67.0382c.1268-.401.422-.7268.8086-.8925c1.1354-.4866,2.3184.5833,1.9481,1.7617L11.3939,116.397c-.1888.601-.7457,1.01-1.3754,1.01-.79632,0-1.44184-.646-1.44184-1.442v-.291c0-.177.02721-.353.08067-.522Z" fill="url(#eedCu9U3PBr55-fill)"/><path d="M46.8378,21.0193c.7188.2186,1.1213.9815.896,1.6983-.1071.3406-.3447.625-.6608.791l-.2106.1105c-.217.114-.3801.3092-.4537.5431L17.2053,117.029c-.9052,2.878-3.9724,4.478-6.8509,3.573s-4.4781-3.973-3.57292-6.851L36.0075,20.8123c.0589-.1872.041-.3901-.0498-.5642l-.0724-.1389c-.167-.3202-.2-.6937-.0916-1.0382.2241-.7127.9805-1.1117,1.6952-.8944l9.3489,2.8427Zm-.058,1.3983c.0586-.1864-.046-.3847-.2329-.4415L37.198,19.1334c-.1899-.0578-.3909.0482-.4504.2376-.0288.0915-.02.1907.0243.2758l.0725.1389c.2134.4092.2555.8864.1171,1.3266L7.73542,114.051c-.7395,2.352.56737,4.857,2.91898,5.597c2.3516.739,4.8575-.567,5.597-2.919L45.4548,23.8622c.1528-.4859.4917-.8916.9427-1.1284l.2105-.1106c.0822-.0431.144-.1171.1718-.2056Z" clip-rule="evenodd" fill="url(#eedCu9U3PBr56-fill)" fill-rule="evenodd"/></g></g></g><path d="M135.247,146.968c.001,0-.003.004-.012.011.007-.007.012-.011.012-.011Zm-1.167.439c-.583-.151-1.337-.295-2.245-.425-2.474-.353-5.924-.575-9.758-.575s-7.285.222-9.758.575c-.908.13-1.662.274-2.245.425.583.15,1.337.294,2.245.424c2.473.353,5.924.576,9.758.576s7.284-.223,9.758-.576c.908-.13,1.662-.274,2.245-.424Zm-25.174-.439c0,0,.005.004.013.011-.01-.007-.013-.011-.013-.011Zm0,.877c0,0,.003-.004.013-.011-.008.007-.013.011-.013.011Zm26.329-.011c.009.007.013.011.012.011c0,0-.005-.004-.012-.011Zm-13.158,1.573c7.732,0,14-.896,14-2c0-1.105-6.268-2-14-2s-14,.895-14,2c0,1.104,6.268,2,14,2Z" clip-rule="evenodd" fill="url(#eedCu9U3PBr57-fill)" fill-rule="evenodd"/><path d="M428.077,213.907c0,1.933-6.5-1-12-2-4.107-.747-15-1-17,2c0-1.933,6.492-3.5,14.5-3.5s14.5,1.567,14.5,3.5Z" fill="#efea60"/><path d="M414.077,213.718c0-.933,3.138.482,5.793.965c1.982.36,7.241.482,8.207-.965c0,.933-3.134,1.689-7,1.689s-7-.756-7-1.689Z" fill="#efea60"/></svg>
