<svg viewBox="0 0 461 460" fill="none" xmlns="http://www.w3.org/2000/svg">
  <g clip-path="url(#a)" fill="#B0BFD9">
    <path d="M234.495 292.792c-11.211 0-20.608 8.951-20.608 19.631s9.397 19.632 20.608 19.632c10.798 0 20.608-8.952 20.113-19.161.495-11.229-8.82-20.102-20.113-20.102Z"/>
    <path d="M425.242 362.366c12.942-21.281 13.024-46.645.165-67.847L296.319 81.556c-12.777-21.437-35.858-34.158-61.742-34.158-25.883 0-48.964 12.8-61.741 34.08L43.583 294.676c-12.86 21.438-12.777 46.959.247 68.239 12.86 21.045 35.858 33.688 61.577 33.688h257.846c25.802 0 48.965-12.8 61.989-34.237Zm-28.027-15.392c-7.171 11.779-19.866 18.768-34.044 18.768H105.324c-14.013 0-26.625-6.832-33.632-18.375-7.089-11.7-7.171-25.678-.082-37.457L200.863 96.79c7.007-11.7 19.536-18.61 33.714-18.61 14.096 0 26.708 6.989 33.715 18.69l129.171 213.119c6.924 11.464 6.841 25.285-.248 36.985Z"/>
    <path d="M229.384 154.978c-9.809 2.67-15.909 11.151-15.909 21.438.494 6.203.906 12.486 1.401 18.689 1.401 23.636 2.803 46.802 4.204 70.438.495 8.01 7.007 13.821 15.415 13.821s15.002-6.204 15.414-14.292c0-4.869 0-9.345.495-14.292.907-15.156 1.896-30.311 2.803-45.467.494-9.815 1.401-19.631 1.896-29.447 0-3.533-.495-6.674-1.896-9.816-4.204-8.794-14.014-13.27-23.823-11.072Z"/>
  </g>
  <defs>
    <clipPath id="a">
      <path fill="#fff" transform="translate(34 31)" d="M0 0h401v382H0z"/>
    </clipPath>
  </defs>
</svg>
