<svg viewBox="0 0 461 461" fill="none" xmlns="http://www.w3.org/2000/svg">
  <g opacity=".5" filter="url(#a)">
    <path d="m121.653 320.51-.264-.301 1.5-1.312a314.472 314.472 0 0 1-2.592-3.004l-1.517 1.292-.516-.607 1.52-1.288a322.103 322.103 0 0 1-2.532-3.028l-1.537 1.268-.268-.325-.235-.286 1.54-1.265a295.159 295.159 0 0 1-2.497-3.081l-1.557 1.245-.155-.195-.342-.429 1.559-1.24a304.771 304.771 0 0 1-2.44-3.108l-1.575 1.22-.485-.628 1.579-1.216a301.075 301.075 0 0 1-2.396-3.152l-1.594 1.195-.478-.639 1.597-1.191c-.79-1.06-1.571-2.122-2.344-3.186l-1.612 1.17a259.99 259.99 0 0 1-.466-.644l1.616-1.165a306.813 306.813 0 0 1-2.292-3.222l-1.631 1.144-.458-.655 1.634-1.14a295.619 295.619 0 0 1-2.242-3.262l-1.65 1.118-.445-.658 1.653-1.114a287.185 287.185 0 0 1-2.185-3.289l-1.667 1.091-.192-.293-.245-.377 1.67-1.087a282.328 282.328 0 0 1-2.137-3.335l-1.685 1.064-.424-.674 1.688-1.058a291 291 0 0 1-2.074-3.356l-1.702 1.036-.415-.685 1.705-1.031a287.7 287.7 0 0 1-2.028-3.406l-1.719 1.007-.401-.688 1.722-1.002a273.81 273.81 0 0 1-1.959-3.42l-1.736.978a167.7 167.7 0 0 1-.392-.698l1.738-.974a280.927 280.927 0 0 1-1.912-3.474l-1.753.948-.378-.701 1.755-.943a268.633 268.633 0 0 1-1.84-3.484l-1.768.918-.368-.712 1.771-.912a268.52 268.52 0 0 1-1.792-3.541l-1.784.887-.354-.714 1.787-.881a262.872 262.872 0 0 1-1.717-3.546l-1.8.855-.145-.308a89.449 89.449 0 0 1-.197-.416l1.802-.849a276.47 276.47 0 0 1-1.665-3.603l-1.815.823-.328-.726 1.818-.817c-.54-1.202-1.07-2.403-1.588-3.605l-1.83.789-.316-.736 1.832-.784a255.21 255.21 0 0 1-1.531-3.661l-1.845.755-.3-.738 1.846-.749a257.473 257.473 0 0 1-1.452-3.661l-1.858.719-.289-.749 1.86-.714a246.5 246.5 0 0 1-1.391-3.715l-1.872.684-.272-.749 1.874-.678c-.448-1.24-.885-2.479-1.31-3.717l-1.885.647a406.56 406.56 0 0 1-.26-.76l1.888-.641a236.498 236.498 0 0 1-1.244-3.765l-1.897.609-.242-.759 1.9-.602a235.357 235.357 0 0 1-1.161-3.771l-1.91.569-.228-.769 1.912-.563a228.022 228.022 0 0 1-1.087-3.81l-1.92.529a96.12 96.12 0 0 1-.21-.767l1.922-.523c-.347-1.276-.68-2.55-1.002-3.822l-1.932.488-.195-.778 1.934-.481a206 206 0 0 1-.92-3.848l-1.942.445a96.94 96.94 0 0 1-.176-.775l1.943-.438c-.29-1.292-.569-2.582-.833-3.87l-1.952.402-.068-.332-.092-.454 1.953-.393a203.997 203.997 0 0 1-.742-3.879l-1.961.356-.14-.782 1.962-.348c-.232-1.307-.45-2.612-.654-3.913l-1.969.309a228.61 228.61 0 0 1-.122-.791l1.97-.301a192.145 192.145 0 0 1-.555-3.901l-1.975.26c-.035-.264-.07-.528-.103-.792l1.977-.252a186.64 186.64 0 0 1-.46-3.944l-1.982.209-.082-.794 1.982-.201a180.955 180.955 0 0 1-.355-3.929l-1.986.158c-.022-.268-.042-.535-.062-.803l1.987-.148c-.1-1.323-.183-2.64-.251-3.953l-1.99.104-.04-.796 1.99-.095a168.75 168.75 0 0 1-.14-3.954l-1.993.048a137.39 137.39 0 0 1-.017-.804l1.992-.038a163.205 163.205 0 0 1-.028-3.947l-1.992-.01c0-.265.003-.53.006-.795l1.992.02c.013-1.33.043-2.653.09-3.97l-1.992-.07.03-.8 1.992.08c.053-1.319.123-2.632.21-3.937l-1.988-.133c.018-.268.036-.537.056-.805l1.987.143c.095-1.323.208-2.638.338-3.945l-1.983-.197.08-.795 1.983.208c.138-1.318.294-2.629.468-3.931l-1.975-.264c.035-.266.071-.531.108-.797l1.974.275c.182-1.307.382-2.607.6-3.897l-1.964-.332.136-.791 1.963.344c.23-1.308.477-2.608.744-3.897l-1.95-.404c.053-.262.108-.523.164-.784l1.949.415c.276-1.293.571-2.578.886-3.852l-1.935-.477c.064-.261.13-.522.196-.782l1.931.489c.325-1.281.67-2.552 1.033-3.812l-1.914-.552.224-.768 1.91.566a121.56 121.56 0 0 1 1.19-3.784l-1.89-.63c.086-.255.171-.509.258-.762l1.886.643c.426-1.251.873-2.49 1.34-3.716l-1.861-.71.29-.754 1.857.723c.48-1.231.98-2.45 1.5-3.656l-1.83-.79.322-.736 1.823.804a104.342 104.342 0 0 1 1.665-3.595l-1.792-.872c.118-.242.236-.483.356-.723l1.785.885a101.386 101.386 0 0 1 1.823-3.506l-1.75-.954.39-.708 1.742.967a99.78 99.78 0 0 1 1.987-3.417l-1.702-1.036c.14-.23.28-.458.422-.686l1.693 1.049a97.597 97.597 0 0 1 2.152-3.322l-1.65-1.117c.151-.223.303-.445.456-.666l1.64 1.13a95.714 95.714 0 0 1 2.31-3.208l-1.592-1.198c.162-.215.324-.43.488-.643l1.582 1.21a94.467 94.467 0 0 1 2.47-3.091l-1.531-1.276c.172-.207.346-.413.52-.618l1.52 1.288a93.719 93.719 0 0 1 2.618-2.96l-1.464-1.35c.183-.199.367-.396.551-.593l1.453 1.364c.9-.959 1.822-1.9 2.767-2.824l-1.394-1.424c.192-.188.385-.375.579-.562l1.381 1.436a94.11 94.11 0 0 1 2.913-2.686l-1.32-1.493a112.41 112.41 0 0 1 .611-.535l1.307 1.504c1-.869 2.015-1.714 3.045-2.535l-1.242-1.558c.21-.168.421-.334.633-.5l1.229 1.568a93.617 93.617 0 0 1 3.163-2.371l-1.161-1.62c.219-.157.438-.313.659-.468l1.147 1.629a93.556 93.556 0 0 1 3.278-2.208l-1.078-1.675c.226-.146.454-.291.681-.435l1.064 1.685a94.802 94.802 0 0 1 3.389-2.042l-.992-1.728c.233-.134.467-.267.702-.399l.977 1.736a95.81 95.81 0 0 1 3.485-1.869l-.906-1.775.721-.364.891 1.783a97.346 97.346 0 0 1 3.575-1.697l-.818-1.817c.245-.11.49-.22.736-.328l.803 1.824a99.374 99.374 0 0 1 3.649-1.522l-.73-1.854.753-.293.715 1.86c1.228-.472 2.466-.922 3.716-1.348l-.643-1.886.763-.257.629 1.89c1.25-.415 2.511-.808 3.783-1.178l-.557-1.913c.256-.075.513-.149.771-.222l.543 1.918c1.264-.358 2.538-.694 3.822-1.008l-.473-1.935c.261-.064.523-.127.785-.189l.459 1.939c1.277-.302 2.564-.583 3.86-.842l-.39-1.954c.263-.052.526-.104.789-.154l.377 1.956c1.294-.249 2.596-.477 3.907-.683l-.309-1.968.79-.122.296 1.97a120.79 120.79 0 0 1 3.915-.523l-.232-1.98.802-.09.219 1.98a125.09 125.09 0 0 1 3.935-.372l-.157-1.987.8-.06.144 1.987a129.77 129.77 0 0 1 3.961-.226l-.084-1.991c.267-.011.535-.022.802-.031l.072 1.99c1.308-.046 2.622-.074 3.942-.083l-.013-1.993.804-.003.002 1.993c1.314-.002 2.633.016 3.959.052l.054-1.992.798.024-.065 1.991c1.313.043 2.632.104 3.956.184l.119-1.99.805.051-.13 1.988c1.306.086 2.617.188 3.932.309l.181-1.984.798.075-.192 1.983c1.311.127 2.627.27 3.947.432l.242-1.978.789.099-.252 1.976c1.3.166 2.603.348 3.909.546l.3-1.97.794.123-.309 1.968c1.297.204 2.598.424 3.902.66l.355-1.96c.261.046.522.094.784.143l-.364 1.959c1.292.24 2.587.496 3.885.768l.408-1.95c.262.054.525.11.788.166l-.417 1.949c1.28.273 2.562.563 3.847.867l.46-1.938.777.185-.468 1.937c1.281.31 2.564.635 3.85.974l.509-1.926c.257.068.514.136.772.206l-.518 1.924c1.264.34 2.529.693 3.795 1.062l.557-1.913.768.225-.565 1.91c1.263.374 2.528.76 3.794 1.162l.602-1.899c.252.08.504.16.756.242l-.609 1.897c1.248.401 2.497.816 3.747 1.245l.647-1.884c.252.086.505.173.757.261l-.654 1.882c1.242.432 2.484.877 3.727 1.335l.69-1.87.745.277-.696 1.867c1.23.459 2.462.931 3.693 1.417l.731-1.854.746.296-.737 1.85c1.218.486 2.438.985 3.657 1.496l.771-1.837.733.309-.777 1.834c1.211.513 2.423 1.039 3.634 1.577l.809-1.82c.244.108.489.217.733.327l-.815 1.818a237.85 237.85 0 0 1 3.586 1.645l.846-1.803c.24.112.48.225.72.34l-.852 1.8c1.19.563 2.38 1.139 3.569 1.727l.883-1.787.719.357-.888 1.784a244 244 0 0 1 3.513 1.787l.918-1.769.706.368-.923 1.766c1.167.61 2.334 1.233 3.5 1.867l.952-1.75.705.384-.958 1.748c1.148.629 2.294 1.269 3.439 1.92l.985-1.732c.231.13.462.263.692.395l-.99 1.729c1.144.655 2.287 1.322 3.428 1.999l1.017-1.713.689.41-1.023 1.71c1.124.672 2.246 1.354 3.366 2.047l1.048-1.694.677.42-1.054 1.691c1.12.698 2.237 1.405 3.353 2.124l1.079-1.675.672.434-1.084 1.672a255.09 255.09 0 0 1 3.29 2.168l1.109-1.656.661.444-1.113 1.653a273.65 273.65 0 0 1 3.274 2.24l1.137-1.635.658.458-1.143 1.633c1.073.75 2.144 1.511 3.212 2.281l1.165-1.616.646.467-1.17 1.613a280.88 280.88 0 0 1 3.193 2.352l1.193-1.596.642.48-1.198 1.593a285.43 285.43 0 0 1 3.133 2.391l1.22-1.575c.209.162.419.324.628.488l-1.224 1.572c1.04.809 2.077 1.628 3.111 2.457l1.246-1.555.624.502-1.25 1.551a292.41 292.41 0 0 1 3.054 2.496l1.272-1.534.611.508-1.275 1.531c1.011.843 2.02 1.695 3.026 2.557l1.296-1.513.607.521-1.301 1.51c.995.857 1.986 1.722 2.974 2.597l1.321-1.492c.198.176.397.351.594.528l-1.324 1.488c.983.875 1.963 1.759 2.939 2.652l1.345-1.471.589.54-1.349 1.467c.968.89 1.933 1.788 2.893 2.695l1.368-1.449.577.546-1.372 1.445c.954.905 1.904 1.819 2.851 2.741l1.39-1.427.572.558-1.395 1.424c.941.921 1.878 1.851 2.811 2.789l1.412-1.405.559.563-1.416 1.401c.924.934 1.844 1.877 2.76 2.827l1.435-1.383.553.575-1.438 1.379c.912.952 1.821 1.912 2.726 2.88l1.456-1.36.54.579-1.459 1.357c.894.962 1.783 1.931 2.669 2.908l1.476-1.338.535.591-1.48 1.334c.883.981 1.763 1.969 2.638 2.965l1.497-1.315.264.301.264.301-1.501 1.311c.873.998 1.737 2 2.593 3.005l1.517-1.292.516.607-1.521 1.288a307.596 307.596 0 0 1 2.533 3.028l1.536-1.269.504.612-1.54 1.265a308.66 308.66 0 0 1 2.497 3.081l1.556-1.245.498.624-1.56 1.24a291.352 291.352 0 0 1 2.44 3.108l1.575-1.22.485.628-1.578 1.216a304.424 304.424 0 0 1 2.396 3.152l1.594-1.196.478.64-1.597 1.191c.79 1.06 1.571 2.122 2.343 3.186l1.613-1.17.466.644-1.616 1.165a311.008 311.008 0 0 1 2.291 3.222l1.631-1.144c.154.218.306.436.459.655l-1.635 1.139a291.477 291.477 0 0 1 2.243 3.262l1.65-1.117c.148.219.297.438.444.658l-1.652 1.113a288.11 288.11 0 0 1 2.184 3.29l1.668-1.091.437.67-1.67 1.086c.722 1.11 1.434 2.222 2.137 3.336l1.685-1.064.424.673-1.688 1.059a271.307 271.307 0 0 1 2.073 3.356l1.702-1.036.416.685-1.705 1.031a293.175 293.175 0 0 1 2.027 3.406l1.72-1.007.401.687-1.722 1.003a274.655 274.655 0 0 1 1.959 3.419l1.736-.978.392.699-1.739.973a283.748 283.748 0 0 1 1.913 3.475l1.752-.948c.127.234.253.467.378.701l-1.755.943c.624 1.16 1.237 2.321 1.84 3.483l1.769-.918.368.712-1.771.913a279.917 279.917 0 0 1 1.792 3.54l1.784-.886.353.713-1.786.882a261.604 261.604 0 0 1 1.716 3.546l1.8-.855.343.723-1.803.85c.566 1.2 1.121 2.401 1.666 3.602l1.814-.822.328.726-1.817.817c.54 1.201 1.069 2.403 1.587 3.605l1.83-.789.316.736-1.832.784c.522 1.22 1.033 2.44 1.532 3.661l1.844-.755.301.738-1.846.749c.495 1.22.979 2.441 1.451 3.661l1.858-.72.289.75-1.86.713c.476 1.239.939 2.478 1.392 3.716l1.871-.684.272.749-1.873.678c.448 1.239.885 2.479 1.31 3.717l1.884-.647.26.76-1.887.641c.427 1.256.841 2.511 1.243 3.765l1.898-.609.11.346.132.413-1.9.602c.399 1.258.786 2.515 1.161 3.771l1.909-.57.228.77-1.911.563c.375 1.272.737 2.541 1.086 3.81l1.921-.53.21.768-1.922.522c.346 1.276.68 2.55 1.002 3.823l1.932-.488.195.778-1.934.481c.32 1.284.626 2.567.92 3.847l1.942-.445.176.775-1.944.438c.292 1.293.57 2.583.834 3.87l1.952-.401.16.785-1.954.394c.262 1.296.509 2.589.743 3.879l1.961-.356.14.782-1.962.348c.232 1.307.45 2.612.654 3.913l1.968-.309.123.791-1.97.3c.199 1.305.384 2.605.555 3.902l1.975-.26.103.792-1.977.251c.168 1.319.321 2.634.46 3.945l1.982-.209.082.794-1.982.201c.133 1.314.251 2.623.355 3.928l1.986-.157.062.802-1.987.149c.099 1.323.183 2.64.251 3.952l1.99-.103c.014.265.027.531.039.796l-1.99.094c.063 1.324.11 2.642.142 3.955l1.991-.048.018.803-1.992.038c.025 1.322.034 2.638.028 3.948l1.992.01-.006.795-1.992-.02a157.84 157.84 0 0 1-.09 3.969l1.991.071c-.009.267-.019.534-.03.8l-1.991-.08a149.335 149.335 0 0 1-.21 3.937l1.988.133-.056.805-1.987-.143a144.553 144.553 0 0 1-.338 3.945l1.983.197-.024.236-.057.559-1.982-.208a138.796 138.796 0 0 1-.468 3.931l1.975.263a293.67 293.67 0 0 1-.109.797l-1.973-.275a135.851 135.851 0 0 1-.601 3.898l1.965.332c-.045.264-.09.528-.137.791l-1.962-.344c-.23 1.308-.478 2.607-.745 3.897l1.951.404-.081.39c-.028.131-.055.263-.084.394l-1.948-.416a125.444 125.444 0 0 1-.886 3.852l1.935.478-.196.782-1.931-.49a119.83 119.83 0 0 1-1.034 3.812l1.915.553c-.074.256-.149.512-.225.767l-1.91-.565a116.413 116.413 0 0 1-1.19 3.784l1.89.63-.146.435-.111.327-1.886-.643a112.83 112.83 0 0 1-1.341 3.716l1.862.71-.138.359-.152.394-1.857-.722a109.78 109.78 0 0 1-1.5 3.656l1.829.79c-.106.246-.213.491-.321.735l-1.823-.803a105.798 105.798 0 0 1-1.665 3.595l1.791.872c-.117.241-.236.482-.355.723l-1.785-.885a101.043 101.043 0 0 1-1.824 3.506l1.75.954-.121.221-.269.487-1.742-.968a98.101 98.101 0 0 1-1.987 3.418l1.702 1.036c-.139.229-.28.458-.421.686l-1.694-1.049a94.634 94.634 0 0 1-2.152 3.321l1.65 1.118c-.151.222-.302.445-.455.666l-1.641-1.13a95.757 95.757 0 0 1-2.31 3.208l1.593 1.197c-.162.216-.325.43-.488.644l-1.583-1.211a94.941 94.941 0 0 1-2.469 3.092l1.531 1.276c-.173.206-.346.413-.52.618l-1.52-1.289a92.75 92.75 0 0 1-2.619 2.96l1.464 1.351a42.62 42.62 0 0 1-.551.592l-1.452-1.364c-.9.959-1.823 1.901-2.767 2.825l1.394 1.424c-.192.188-.385.375-.579.562l-1.382-1.436a95.333 95.333 0 0 1-2.912 2.686l1.319 1.493-.305.268-.306.267-1.306-1.504a94.39 94.39 0 0 1-3.045 2.535l1.242 1.558-.633.5-1.229-1.569a92.065 92.065 0 0 1-3.163 2.372l1.161 1.619a98.71 98.71 0 0 1-.659.469l-1.147-1.629a94.862 94.862 0 0 1-3.278 2.208l1.078 1.675-.288.185-.394.25-1.063-1.685a96.305 96.305 0 0 1-3.389 2.042l.992 1.727a79.77 79.77 0 0 1-.702.4l-.978-1.736a96.179 96.179 0 0 1-3.484 1.869l.906 1.774a69.5 69.5 0 0 1-.721.364l-.891-1.782a98.17 98.17 0 0 1-3.575 1.697l.818 1.817-.736.328-.803-1.824a99.768 99.768 0 0 1-3.649 1.522l.73 1.853-.753.294-.716-1.86c-1.227.472-2.465.921-3.715 1.348l.643 1.885c-.254.087-.509.173-.764.258l-.628-1.891c-1.251.416-2.512.809-3.783 1.179l.557 1.913c-.257.075-.514.148-.771.221l-.543-1.917a107.13 107.13 0 0 1-3.822 1.007l.473 1.936c-.262.064-.523.127-.785.189l-.459-1.939a111.17 111.17 0 0 1-3.861.841l.39 1.954c-.262.053-.525.104-.789.155l-.376-1.956c-1.294.249-2.596.476-3.908.683l.31 1.968c-.263.041-.526.082-.79.121l-.297-1.97c-1.297.195-2.602.37-3.914.524l.232 1.979c-.267.031-.534.062-.802.091l-.219-1.98c-1.304.144-2.616.268-3.935.372l.157 1.986c-.267.021-.533.042-.8.061l-.144-1.987c-1.314.095-2.634.17-3.961.226l.084 1.991c-.268.011-.535.022-.802.031l-.072-1.991c-1.308.047-2.622.075-3.943.084l.014 1.992-.444.003-.36.001-.002-1.993a141.8 141.8 0 0 1-3.959-.052l-.054 1.992-.798-.024.065-1.991a147.286 147.286 0 0 1-3.956-.184l-.119 1.989-.806-.05.13-1.989a151.933 151.933 0 0 1-3.931-.308l-.181 1.984-.422-.039-.376-.036.192-1.983a159.602 159.602 0 0 1-3.947-.432l-.242 1.977c-.13-.015-.259-.031-.388-.048l-.401-.05.252-1.977c-1.3-.165-2.603-.347-3.91-.546l-.299 1.97-.794-.122.309-1.969a166.386 166.386 0 0 1-3.902-.659l-.355 1.961-.784-.144.364-1.959c-1.292-.24-2.587-.496-3.885-.768l-.408 1.95-.788-.166.417-1.949c-1.28-.274-2.563-.563-3.848-.868l-.459 1.939-.777-.186.468-1.937a180.833 180.833 0 0 1-3.85-.974l-.509 1.927-.261-.069-.037-.01a83.1 83.1 0 0 1-.474-.127l.517-1.924c-1.263-.34-2.528-.694-3.794-1.062l-.557 1.913-.768-.225.564-1.911a195.38 195.38 0 0 1-3.793-1.162l-.603 1.899-.756-.241.61-1.897a200.33 200.33 0 0 1-3.747-1.245l-.647 1.884-.758-.261.654-1.883a211.077 211.077 0 0 1-3.727-1.334l-.689 1.869c-.249-.091-.497-.184-.745-.276l.696-1.867a209.97 209.97 0 0 1-3.694-1.417l-.73 1.854-.746-.296.737-1.851a216.19 216.19 0 0 1-3.657-1.495l-.771 1.837a114.45 114.45 0 0 1-.733-.309l.777-1.835a224.138 224.138 0 0 1-3.634-1.576l-.809 1.82a96.128 96.128 0 0 1-.733-.327l.815-1.818a224.292 224.292 0 0 1-3.586-1.646l-.846 1.804c-.241-.112-.481-.226-.721-.339l.853-1.801a237.862 237.862 0 0 1-3.57-1.727l-.882 1.786-.72-.357.889-1.783a241.896 241.896 0 0 1-3.513-1.787l-.918 1.769-.322-.168-.384-.2.923-1.766a241.66 241.66 0 0 1-3.5-1.867l-.952 1.75a66.886 66.886 0 0 1-.458-.25l-.201-.109-.046-.026.957-1.747a256.198 256.198 0 0 1-3.439-1.92l-.985 1.732-.692-.395.991-1.729a249.724 249.724 0 0 1-3.428-1.999l-1.018 1.713-.688-.41 1.022-1.71a265.186 265.186 0 0 1-3.365-2.047l-1.048 1.694-.315-.195-.362-.225 1.053-1.691a275.764 275.764 0 0 1-3.352-2.124l-1.079 1.675-.297-.192-.376-.243 1.084-1.671a273.684 273.684 0 0 1-3.289-2.168l-1.109 1.656-.661-.444 1.113-1.653a279.646 279.646 0 0 1-3.274-2.241l-1.138 1.636-.657-.459 1.142-1.632a269.43 269.43 0 0 1-3.211-2.282l-1.166 1.617-.645-.467 1.17-1.613a266.637 266.637 0 0 1-3.193-2.352l-1.193 1.596-.181-.135-.461-.346 1.198-1.593a276.12 276.12 0 0 1-3.133-2.39l-1.22 1.575-.629-.488 1.224-1.572a290.775 290.775 0 0 1-3.11-2.457l-1.246 1.555-.625-.502 1.251-1.551a282.336 282.336 0 0 1-3.054-2.496l-1.272 1.534-.612-.509 1.276-1.53a296.896 296.896 0 0 1-3.026-2.557l-1.296 1.513-.607-.521 1.3-1.51a310.205 310.205 0 0 1-2.974-2.597l-1.32 1.492-.23-.204-.365-.324 1.325-1.488a289.349 289.349 0 0 1-2.939-2.652l-1.345 1.471-.589-.541 1.348-1.466a291.15 291.15 0 0 1-2.892-2.695l-1.368 1.449-.577-.546 1.372-1.445c-.954-.906-1.905-1.82-2.851-2.742l-1.391 1.427-.571-.558 1.394-1.423c-.94-.921-1.877-1.851-2.81-2.789l-1.413 1.405-.558-.563 1.416-1.401a336.06 336.06 0 0 1-2.761-2.827l-1.434 1.383-.275-.286a74.376 74.376 0 0 0-.278-.289l1.438-1.38a287.538 287.538 0 0 1-2.726-2.879l-1.456 1.36-.54-.58 1.459-1.356a309.621 309.621 0 0 1-2.669-2.908l-1.477 1.338-.534-.591 1.48-1.334a314.482 314.482 0 0 1-2.638-2.965l-1.497 1.315-.264-.301Z" stroke="#00E0CA" stroke-width="3.985" stroke-dasharray="0.8 3.98"/>
  </g>
  <path d="M132.991 312.077c37.137 42.38 82.083 70.765 124.692 82.43 42.617 11.668 82.774 6.589 110.544-17.747 27.771-24.335 38.078-63.477 32.106-107.257-5.97-43.772-28.209-92.056-65.346-134.435-37.137-42.38-82.083-70.764-124.692-82.43-42.617-11.667-82.774-6.588-110.544 17.747-27.77 24.335-38.078 63.477-32.106 107.258 5.97 43.771 28.209 92.055 65.346 134.434Z" stroke="url(#b)" stroke-width="1.913"/>
  <g filter="url(#c)">
    <path d="M134.442 310.105c37.137 42.38 82.083 70.765 124.692 82.43 42.617 11.667 82.774 6.588 110.544-17.747 27.771-24.335 38.078-63.477 32.106-107.258-5.97-43.771-28.209-92.055-65.346-134.434-37.137-42.38-82.083-70.764-124.692-82.43C169.129 39 128.972 44.078 101.202 68.413 73.432 92.748 63.124 131.89 69.096 175.67c5.97 43.771 28.209 92.055 65.346 134.434Z" stroke="url(#d)" stroke-width="1.913"/>
  </g>
  <path d="M111.922 330.099c32.574 37.171 71.998 62.069 109.374 72.302 37.384 10.235 72.617 5.782 96.985-15.572 24.368-21.354 33.409-55.698 28.171-94.101-5.238-38.396-24.745-80.748-57.318-117.92-32.573-37.171-71.998-62.07-109.374-72.302-37.384-10.235-72.617-5.782-96.985 15.572-24.368 21.354-33.408 55.697-28.17 94.101 5.237 38.396 24.744 80.748 57.317 117.92Z" stroke="url(#e)" stroke-width="1.594"/>
  <g opacity=".5" filter="url(#f)">
    <path d="M160.625 289.079c26.947 30.751 59.387 51.132 89.776 59.452 30.45 8.336 57.981 4.419 76.616-11.911 18.636-16.33 26.133-43.108 21.866-74.389-4.258-31.219-20.204-66.054-47.151-96.805-26.947-30.751-59.387-51.132-89.776-59.452-30.45-8.337-57.981-4.42-76.617 11.911-18.635 16.33-26.132 43.108-21.866 74.389 4.259 31.219 20.204 66.053 47.152 96.805Z" stroke="url(#g)" stroke-width="13.549"/>
  </g>
  <path d="M174.175 62.876c-30.098-.484-54.88 10.832-70.572 32.134-15.702 21.314-21.485 51.517-16.358 85.978" stroke="#87FFF3" stroke-width="1.195" stroke-linecap="round" stroke-linejoin="round" stroke-dasharray="0.8 8.77"/>
  <g filter="url(#h)">
    <path d="M103.467 113.191c-11.466 24.151-12.922 56.153-3.689 91.198 9.227 35.018 28.553 70.855 55.037 101.888" stroke="#fff" stroke-width="6.376" stroke-linejoin="round" stroke-dasharray="0.8 3.19"/>
  </g>
  <g filter="url(#i)">
    <path d="M379.152 344.633c11.573-24.377 13.008-56.591 3.741-91.763-9.262-35.151-28.651-71.095-55.204-102.208" stroke="#00E0CA" stroke-width="4.782" stroke-linejoin="round" stroke-dasharray="0.8 3.19"/>
  </g>
  <path d="M257.919 378.902c19.441 5.807 38.065 7.502 54.814 5.007 16.746-2.494 31.29-9.126 42.819-19.504 11.528-10.378 19.837-24.317 24.439-41.04 4.603-16.726 5.408-35.911 2.35-56.466" stroke="#87FFF3" stroke-width="1.195" stroke-linecap="round" stroke-linejoin="round" stroke-dasharray="0.8 8.77"/>
  <g opacity=".2" filter="url(#j)" fill-rule="evenodd" clip-rule="evenodd">
    <path d="M165.117 143.308c30.167-32.265 93.276-25.961 140.959 14.081l-16.155 17.278c46.367 39.998 59.897 97.637 30.079 129.529-30.166 32.265-93.275 25.96-140.958-14.081l16.154-17.279c-46.367-39.997-59.896-97.636-30.079-129.528Zm34.675 127.758 16.346-17.483c-30.788-25.967-39.927-63.882-20.398-84.769 19.18-20.515 58.893-16.99 89.585 7.623L268.98 193.92c30.788 25.967 39.927 63.882 20.398 84.77-19.18 20.515-58.893 16.989-89.586-7.624Z" fill="#00E0CA"/>
    <path d="M165.117 143.308c30.167-32.265 93.276-25.961 140.959 14.081l-16.155 17.278c46.367 39.998 59.897 97.637 30.079 129.529-30.166 32.265-93.275 25.96-140.958-14.081l16.154-17.279c-46.367-39.997-59.896-97.636-30.079-129.528Zm34.675 127.758 16.346-17.483c-30.788-25.967-39.927-63.882-20.398-84.769 19.18-20.515 58.893-16.99 89.585 7.623L268.98 193.92c30.788 25.967 39.927 63.882 20.398 84.77-19.18 20.515-58.893 16.989-89.586-7.624Z" fill="url(#k)" fill-opacity=".2"/>
  </g>
  <path d="M328.31 138.206c.111-.113.073-.304-.084-.436-46.994-39.415-110.76-45.244-142.572-12.979-31.802 32.255-19.654 90.394 27.1 130.016.173.147.427.166.549.042l19.974-20.258c.111-.113.075-.303-.081-.436-30.126-25.693-37.909-63.258-17.337-84.124 20.562-20.855 61.709-17.171 92.158 8.157.174.145.428.165.551.041l19.742-20.023Z" fill="#00F5DD"/>
  <path d="M327.234 139.887c.111-.112.073-.303-.084-.436-46.994-39.414-110.76-45.243-142.572-12.978-31.802 32.255-19.654 90.394 27.099 130.016.174.147.427.166.55.042l19.974-20.259c.111-.112.075-.302-.081-.435-30.126-25.694-37.909-63.259-17.337-84.124 20.562-20.855 61.708-17.171 92.158 8.156.174.146.428.166.55.042l19.743-20.024Z" fill="#fff"/>
  <path d="M193.826 274.804c-.111.112-.073.304.084.436 46.994 39.414 110.76 45.243 142.572 12.979 31.802-32.255 19.654-90.394-27.1-130.016-.173-.147-.427-.167-.549-.042l-19.974 20.258c-.111.112-.074.302.081.435 30.127 25.693 37.91 63.259 17.338 84.124-20.563 20.855-61.709 17.172-92.158-8.157-.175-.145-.429-.165-.551-.041l-19.743 20.024Z" fill="#FDFF9F"/>
  <path d="M195.416 272.806c-.111.112-.073.304.084.436 46.994 39.414 110.76 45.243 142.572 12.979 31.802-32.255 19.654-90.394-27.1-130.016-.173-.147-.427-.167-.549-.042l-19.974 20.257c-.111.113-.074.303.081.436 30.127 25.693 37.91 63.259 17.338 84.124-20.563 20.855-61.709 17.172-92.159-8.157-.174-.145-.428-.165-.55-.041l-19.743 20.024Z" fill="#fff"/>
  <defs>
    <filter id="a" x="51.138" y="45.184" width="350.098" height="367.446" filterUnits="userSpaceOnUse" color-interpolation-filters="sRGB">
      <feFlood flood-opacity="0" result="BackgroundImageFix"/>
      <feBlend in="SourceGraphic" in2="BackgroundImageFix" result="shape"/>
      <feGaussianBlur stdDeviation=".797" result="effect1_foregroundBlur_1472_9518"/>
    </filter>
    <filter id="c" x="57.737" y="34.949" width="355.405" height="373.303" filterUnits="userSpaceOnUse" color-interpolation-filters="sRGB">
      <feFlood flood-opacity="0" result="BackgroundImageFix"/>
      <feBlend in="SourceGraphic" in2="BackgroundImageFix" result="shape"/>
      <feGaussianBlur stdDeviation="4.383" result="effect1_foregroundBlur_1472_9518"/>
    </filter>
    <filter id="f" x="102.351" y="91.769" width="257.655" height="270.967" filterUnits="userSpaceOnUse" color-interpolation-filters="sRGB">
      <feFlood flood-opacity="0" result="BackgroundImageFix"/>
      <feBlend in="SourceGraphic" in2="BackgroundImageFix" result="shape"/>
      <feGaussianBlur stdDeviation="1.594" result="effect1_foregroundBlur_1472_9518"/>
    </filter>
    <filter id="h" x="85.855" y="108.783" width="75.293" height="203.353" filterUnits="userSpaceOnUse" color-interpolation-filters="sRGB">
      <feFlood flood-opacity="0" result="BackgroundImageFix"/>
      <feBlend in="SourceGraphic" in2="BackgroundImageFix" result="shape"/>
      <feGaussianBlur stdDeviation=".797" result="effect1_foregroundBlur_1472_9518"/>
    </filter>
    <filter id="i" x="322.541" y="145.869" width="72.729" height="202.468" filterUnits="userSpaceOnUse" color-interpolation-filters="sRGB">
      <feFlood flood-opacity="0" result="BackgroundImageFix"/>
      <feBlend in="SourceGraphic" in2="BackgroundImageFix" result="shape"/>
      <feGaussianBlur stdDeviation=".797" result="effect1_foregroundBlur_1472_9518"/>
    </filter>
    <filter id="j" x="123.774" y="97.193" width="237.57" height="253.119" filterUnits="userSpaceOnUse" color-interpolation-filters="sRGB">
      <feFlood flood-opacity="0" result="BackgroundImageFix"/>
      <feBlend in="SourceGraphic" in2="BackgroundImageFix" result="shape"/>
      <feGaussianBlur stdDeviation="12.752" result="effect1_foregroundBlur_1472_9518"/>
    </filter>
    <linearGradient id="b" x1="70.465" y1="304.613" x2="354.268" y2="159.844" gradientUnits="userSpaceOnUse">
      <stop stop-color="#fff"/>
      <stop offset="1" stop-color="#fff" stop-opacity=".3"/>
    </linearGradient>
    <linearGradient id="d" x1="206.48" y1="58.708" x2="216.294" y2="366.319" gradientUnits="userSpaceOnUse">
      <stop stop-color="#fff"/>
      <stop offset="1" stop-color="#fff" stop-opacity=".3"/>
    </linearGradient>
    <linearGradient id="e" x1="-77.787" y1="485.135" x2="207.366" y2="220.605" gradientUnits="userSpaceOnUse">
      <stop stop-color="#DDE0F4"/>
      <stop offset="1" stop-color="#fff" stop-opacity="0"/>
    </linearGradient>
    <radialGradient id="g" cx="0" cy="0" r="1" gradientUnits="userSpaceOnUse" gradientTransform="rotate(-58.383 354.586 4.888) scale(203.785 176.538)">
      <stop stop-color="#00E0CA"/>
      <stop offset="1" stop-color="#FDFEFE" stop-opacity=".36"/>
    </radialGradient>
    <radialGradient id="k" cx="0" cy="0" r="1" gradientUnits="userSpaceOnUse" gradientTransform="matrix(442.80474 199.14927 -123.46896 274.53097 240.404 241.185)">
      <stop stop-color="#fff" stop-opacity="0"/>
      <stop offset="1" stop-color="#FFF6E6" stop-opacity=".943"/>
    </radialGradient>
  </defs>
</svg>
