<svg id="eXLrqU7nEDJ1" xmlns="http://www.w3.org/2000/svg" xmlns:xlink="http://www.w3.org/1999/xlink" viewBox="0 0 461 461" shape-rendering="geometricPrecision" text-rendering="geometricPrecision" width="461" height="461">
<style><![CDATA[
#eXLrqU7nEDJ2_to {animation: eXLrqU7nEDJ2_to__to 6000ms linear infinite normal forwards}@keyframes eXLrqU7nEDJ2_to__to { 0% {transform: translate(226.187481px,228.90654px);animation-timing-function: cubic-bezier(0.445,0.05,0.55,0.95)} 33.333333% {transform: translate(226.187481px,218.90654px);animation-timing-function: cubic-bezier(0.445,0.05,0.55,0.95)} 63.333333% {transform: translate(221.187481px,231.90654px);animation-timing-function: cubic-bezier(0.445,0.05,0.55,0.95)} 100% {transform: translate(226.187481px,228.90654px)}} #eXLrqU7nEDJ2_tk {animation: eXLrqU7nEDJ2_tk__tk 6000ms linear infinite normal forwards}@keyframes eXLrqU7nEDJ2_tk__tk { 0% {transform: skewX(0deg) skewY(0deg);animation-timing-function: cubic-bezier(0.445,0.05,0.55,0.95)} 33.333333% {transform: skewX(-10deg) skewY(10deg);animation-timing-function: cubic-bezier(0.445,0.05,0.55,0.95)} 66.666667% {transform: skewX(-10deg) skewY(5deg);animation-timing-function: cubic-bezier(0.445,0.05,0.55,0.95)} 100% {transform: skewX(0deg) skewY(0deg)}} #eXLrqU7nEDJ2_ts {animation: eXLrqU7nEDJ2_ts__ts 6000ms linear infinite normal forwards}@keyframes eXLrqU7nEDJ2_ts__ts { 0% {transform: scale(1,1);animation-timing-function: cubic-bezier(0.445,0.05,0.55,0.95)} 36.666667% {transform: scale(1.1,1.1);animation-timing-function: cubic-bezier(0.445,0.05,0.55,0.95)} 66.666667% {transform: scale(0.9,0.9);animation-timing-function: cubic-bezier(0.445,0.05,0.55,0.95)} 100% {transform: scale(1,1)}} #eXLrqU7nEDJ4_to {animation: eXLrqU7nEDJ4_to__to 6000ms linear infinite normal forwards}@keyframes eXLrqU7nEDJ4_to__to { 0% {transform: translate(233.989029px,223.57283px);animation-timing-function: cubic-bezier(0.445,0.05,0.55,0.95)} 23.333333% {transform: translate(233.989029px,225.57283px);animation-timing-function: cubic-bezier(0.445,0.05,0.55,0.95)} 60% {transform: translate(233.989029px,215.57283px);animation-timing-function: cubic-bezier(0.445,0.05,0.55,0.95)} 100% {transform: translate(233.989029px,223.57283px)}} #eXLrqU7nEDJ5_to {animation: eXLrqU7nEDJ5_to__to 6000ms linear infinite normal forwards}@keyframes eXLrqU7nEDJ5_to__to { 0% {transform: translate(235.440048px,221.600716px);animation-timing-function: cubic-bezier(0.445,0.05,0.55,0.95)} 33.333333% {transform: translate(235.440048px,216.600716px);animation-timing-function: cubic-bezier(0.445,0.05,0.55,0.95)} 70% {transform: translate(235.440048px,229.600716px);animation-timing-function: cubic-bezier(0.445,0.05,0.55,0.95)} 100% {transform: translate(235.440048px,221.600716px)}} #eXLrqU7nEDJ7_ts {animation: eXLrqU7nEDJ7_ts__ts 6000ms linear infinite normal forwards}@keyframes eXLrqU7nEDJ7_ts__ts { 0% {transform: translate(200.528458px,252.453506px) scale(1,1);animation-timing-function: cubic-bezier(0.445,0.05,0.55,0.95)} 23.333333% {transform: translate(200.528458px,252.453506px) scale(0.9,0.9);animation-timing-function: cubic-bezier(0.445,0.05,0.55,0.95)} 60% {transform: translate(200.528458px,252.453506px) scale(0.92,0.92);animation-timing-function: cubic-bezier(0.445,0.05,0.55,0.95)} 100% {transform: translate(200.528458px,252.453506px) scale(1,1)}} #eXLrqU7nEDJ9-stroke-0 {animation: eXLrqU7nEDJ9-stroke-0__c 6000ms linear infinite normal forwards}@keyframes eXLrqU7nEDJ9-stroke-0__c { 0% {stop-color: #00ffe6} 33.333333% {stop-color: #00ffe6} 66.666667% {stop-color: #00ffe6} 100% {stop-color: #00ffe6}} #eXLrqU7nEDJ9-stroke-1 {animation: eXLrqU7nEDJ9-stroke-1__c 6000ms linear infinite normal forwards}@keyframes eXLrqU7nEDJ9-stroke-1__c { 0% {stop-color: rgba(255,255,255,0)} 33.333333% {stop-color: rgba(255,255,255,0)} 66.666667% {stop-color: rgba(255,255,255,0)} 100% {stop-color: rgba(255,255,255,0)}} #eXLrqU7nEDJ9 {animation: eXLrqU7nEDJ9_s_w 6000ms linear infinite normal forwards}@keyframes eXLrqU7nEDJ9_s_w { 0% {stroke-width: 13.549;animation-timing-function: cubic-bezier(0.785,0.135,0.15,0.86)} 33.333333% {stroke-width: 4;animation-timing-function: cubic-bezier(0.785,0.135,0.15,0.86)} 66.666667% {stroke-width: 4;animation-timing-function: cubic-bezier(0.785,0.135,0.15,0.86)} 100% {stroke-width: 13.549}} #eXLrqU7nEDJ10_to {animation: eXLrqU7nEDJ10_to__to 6000ms linear infinite normal forwards}@keyframes eXLrqU7nEDJ10_to__to { 0% {transform: translate(174.175px,181.227379px);animation-timing-function: cubic-bezier(0.445,0.05,0.55,0.95)} 36.666667% {transform: translate(172.175px,177.227379px);animation-timing-function: cubic-bezier(0.445,0.05,0.55,0.95)} 66.666667% {transform: translate(179.122368px,182.122116px);animation-timing-function: cubic-bezier(0.445,0.05,0.55,0.95)} 100% {transform: translate(174.175px,181.227379px)}} #eXLrqU7nEDJ10_tr {animation: eXLrqU7nEDJ10_tr__tr 6000ms linear infinite normal forwards}@keyframes eXLrqU7nEDJ10_tr__tr { 0% {transform: rotate(0deg);animation-timing-function: cubic-bezier(0.445,0.05,0.55,0.95)} 36.666667% {transform: rotate(7.610249deg);animation-timing-function: cubic-bezier(0.445,0.05,0.55,0.95)} 66.666667% {transform: rotate(-16.013955deg);animation-timing-function: cubic-bezier(0.445,0.05,0.55,0.95)} 100% {transform: rotate(0deg)}} #eXLrqU7nEDJ10 {animation: eXLrqU7nEDJ10_s_w 6000ms linear infinite normal forwards}@keyframes eXLrqU7nEDJ10_s_w { 0% {stroke-width: 1.195;animation-timing-function: cubic-bezier(0.445,0.05,0.55,0.95)} 36.666667% {stroke-width: 1;animation-timing-function: cubic-bezier(0.445,0.05,0.55,0.95)} 63.333333% {stroke-width: 3;animation-timing-function: cubic-bezier(0.445,0.05,0.55,0.95)} 100% {stroke-width: 1.195}} #eXLrqU7nEDJ11_to {animation: eXLrqU7nEDJ11_to__to 6000ms linear infinite normal forwards}@keyframes eXLrqU7nEDJ11_to__to { 0% {offset-distance: 0%;animation-timing-function: cubic-bezier(0.445,0.05,0.55,0.95)} 23.333333% {offset-distance: 49.945369%;animation-timing-function: cubic-bezier(0.445,0.05,0.55,0.95)} 46.666667% {offset-distance: 49.945369%;animation-timing-function: cubic-bezier(0.445,0.05,0.55,0.95)} 80% {offset-distance: 100%} 100% {offset-distance: 100%}} #eXLrqU7nEDJ11_tr {animation: eXLrqU7nEDJ11_tr__tr 6000ms linear infinite normal forwards}@keyframes eXLrqU7nEDJ11_tr__tr { 0% {transform: rotate(0deg);animation-timing-function: cubic-bezier(0.445,0.05,0.55,0.95)} 23.333333% {transform: rotate(-51.588881deg);animation-timing-function: cubic-bezier(0.445,0.05,0.55,0.95)} 46.666667% {transform: rotate(-51.588881deg);animation-timing-function: cubic-bezier(0.445,0.05,0.55,0.95)} 80% {transform: rotate(0deg)} 100% {transform: rotate(0deg)}} #eXLrqU7nEDJ11_tk {animation: eXLrqU7nEDJ11_tk__tk 6000ms linear infinite normal forwards}@keyframes eXLrqU7nEDJ11_tk__tk { 0% {transform: skewX(0deg) skewY(0deg);animation-timing-function: cubic-bezier(0.445,0.05,0.55,0.95)} 23.333333% {transform: skewX(-23deg) skewY(22deg);animation-timing-function: cubic-bezier(0.445,0.05,0.55,0.95)} 46.666667% {transform: skewX(-23deg) skewY(22deg);animation-timing-function: cubic-bezier(0.445,0.05,0.55,0.95)} 80% {transform: skewX(0deg) skewY(0deg)} 100% {transform: skewX(0deg) skewY(0deg)}} #eXLrqU7nEDJ13_to {animation: eXLrqU7nEDJ13_to__to 6000ms linear infinite normal forwards}@keyframes eXLrqU7nEDJ13_to__to { 0% {offset-distance: 0%;animation-timing-function: cubic-bezier(0.445,0.05,0.55,0.95)} 40% {offset-distance: 50.167783%;animation-timing-function: cubic-bezier(0.445,0.05,0.55,0.95)} 100% {offset-distance: 100%}} #eXLrqU7nEDJ13_tr {animation: eXLrqU7nEDJ13_tr__tr 6000ms linear infinite normal forwards}@keyframes eXLrqU7nEDJ13_tr__tr { 0% {transform: rotate(0deg);animation-timing-function: cubic-bezier(0.445,0.05,0.55,0.95)} 40% {transform: rotate(-5.094305deg);animation-timing-function: cubic-bezier(0.445,0.05,0.55,0.95)} 100% {transform: rotate(0deg)}} #eXLrqU7nEDJ13_tk {animation: eXLrqU7nEDJ13_tk__tk 6000ms linear infinite normal forwards}@keyframes eXLrqU7nEDJ13_tk__tk { 0% {transform: skewX(0deg) skewY(0deg);animation-timing-function: cubic-bezier(0.445,0.05,0.55,0.95)} 40% {transform: skewX(4deg) skewY(16deg);animation-timing-function: cubic-bezier(0.445,0.05,0.55,0.95)} 100% {transform: skewX(0deg) skewY(0deg)}} #eXLrqU7nEDJ15_to {animation: eXLrqU7nEDJ15_to__to 6000ms linear infinite normal forwards}@keyframes eXLrqU7nEDJ15_to__to { 0% {transform: translate(321.03981px,325.962158px);animation-timing-function: cubic-bezier(0.445,0.05,0.55,0.95)} 50% {transform: translate(321.03981px,320.962158px);animation-timing-function: cubic-bezier(0.445,0.05,0.55,0.95)} 100% {transform: translate(321.03981px,325.962158px)}} #eXLrqU7nEDJ15 {animation: eXLrqU7nEDJ15_s_w 6000ms linear infinite normal forwards}@keyframes eXLrqU7nEDJ15_s_w { 0% {stroke-width: 1.195;animation-timing-function: cubic-bezier(0.445,0.05,0.55,0.95)} 50% {stroke-width: 3;animation-timing-function: cubic-bezier(0.445,0.05,0.55,0.95)} 100% {stroke-width: 1.195}} #eXLrqU7nEDJ16_to {animation: eXLrqU7nEDJ16_to__to 6000ms linear infinite normal forwards}@keyframes eXLrqU7nEDJ16_to__to { 0% {transform: translate(252.539154px,214.373253px);animation-timing-function: cubic-bezier(0.445,0.05,0.55,0.95)} 33.333333% {transform: translate(259.368301px,207.54411px);animation-timing-function: cubic-bezier(0.445,0.05,0.55,0.95)} 66.666667% {transform: translate(259.368301px,207.54411px);animation-timing-function: cubic-bezier(0.445,0.05,0.55,0.95)} 100% {transform: translate(252.539154px,214.373253px)}} #eXLrqU7nEDJ16_ts {animation: eXLrqU7nEDJ16_ts__ts 6000ms linear infinite normal forwards}@keyframes eXLrqU7nEDJ16_ts__ts { 0% {transform: scale(1,1);animation-timing-function: cubic-bezier(0.445,0.05,0.55,0.95)} 33.333333% {transform: scale(1.05,1.05);animation-timing-function: cubic-bezier(0.445,0.05,0.55,0.95)} 66.666667% {transform: scale(1.05,1.05);animation-timing-function: cubic-bezier(0.445,0.05,0.55,0.95)} 100% {transform: scale(1,1)}}
]]></style>
<defs><filter id="eXLrqU7nEDJ3-filter" x="-150%" width="400%" y="-150%" height="400%"><feGaussianBlur id="eXLrqU7nEDJ3-filter-blur-0" stdDeviation="1,1" result="result"/></filter><linearGradient id="eXLrqU7nEDJ4-stroke" x1="70.465" y1="304.613" x2="354.268" y2="159.844" spreadMethod="pad" gradientUnits="userSpaceOnUse" gradientTransform="translate(0 0)"><stop id="eXLrqU7nEDJ4-stroke-0" offset="0%" stop-color="#fff"/><stop id="eXLrqU7nEDJ4-stroke-1" offset="100%" stop-color="rgba(255,255,255,0.3)"/></linearGradient><linearGradient id="eXLrqU7nEDJ6-stroke" x1="149.572861" y1="298.639776" x2="309.788458" y2="209.734" spreadMethod="pad" gradientUnits="userSpaceOnUse" gradientTransform="translate(0 0)"><stop id="eXLrqU7nEDJ6-stroke-0" offset="0%" stop-color="#14cabf"/><stop id="eXLrqU7nEDJ6-stroke-1" offset="100%" stop-color="rgba(255,255,255,0.3)"/></linearGradient><linearGradient id="eXLrqU7nEDJ7-stroke" x1="-77.787" y1="485.135" x2="207.366" y2="220.605" spreadMethod="pad" gradientUnits="userSpaceOnUse" gradientTransform="translate(0 0)"><stop id="eXLrqU7nEDJ7-stroke-0" offset="0%" stop-color="#dde0f4"/><stop id="eXLrqU7nEDJ7-stroke-1" offset="100%" stop-color="rgba(255,255,255,0)"/></linearGradient><filter id="eXLrqU7nEDJ8-filter" x="-150%" width="400%" y="-150%" height="400%"><feGaussianBlur id="eXLrqU7nEDJ8-filter-blur-0" stdDeviation="1,1" result="result"/></filter><linearGradient id="eXLrqU7nEDJ9-stroke" x1="0" y1="0" x2="1" y2="0" spreadMethod="pad" gradientUnits="userSpaceOnUse" gradientTransform="matrix(104.38702 -146.603262 146.603262 104.38702 156.846255 293.810023)"><stop id="eXLrqU7nEDJ9-stroke-0" offset="0%" stop-color="#00ffe6"/><stop id="eXLrqU7nEDJ9-stroke-1" offset="100%" stop-color="rgba(255,255,255,0)"/></linearGradient><radialGradient id="eXLrqU7nEDJ19-fill" cx="0" cy="0" r="1" spreadMethod="pad" gradientUnits="userSpaceOnUse" gradientTransform="matrix(442.805 199.148999 -123.469001 274.531 240.404 241.185)"><stop id="eXLrqU7nEDJ19-fill-0" offset="0%" stop-color="rgba(255,255,255,0)"/><stop id="eXLrqU7nEDJ19-fill-1" offset="100%" stop-color="rgba(255,246,230,0.943)"/></radialGradient></defs><g id="eXLrqU7nEDJ2_to" transform="translate(226.187481,228.90654)"><g id="eXLrqU7nEDJ2_tk" transform="skewX(0) skewY(0)"><g id="eXLrqU7nEDJ2_ts" transform="scale(1,1)"><g transform="translate(-226.187481,-228.90654)" opacity="0.5"><path d="M121.653,320.51l-.264-.301l1.5-1.312c-.870308-.995873-1.734326-1.997226-2.592-3.004l-1.517,1.292-.516-.607l1.52-1.288c-.850176-1.004153-1.694192-2.013505-2.532-3.028l-1.537,1.268-.268-.325-.235-.286l1.54-1.265c-.839223-1.021397-1.671576-2.04842-2.497-3.081l-1.557,1.245-.155-.195-.342-.429l1.559-1.24c-.820041-1.030717-1.633391-2.066738-2.44-3.108l-1.575,1.22-.485-.628l1.579-1.216c-.805566-1.045404-1.60425-2.096093-2.396-3.152l-1.594,1.195-.478-.639l1.597-1.191c-.79-1.06-1.571-2.122-2.344-3.186l-1.612,1.17c-.155661-.214429-.310995-.429096-.466-.644l1.616-1.165c-.770913-1.069066-1.534929-2.143088-2.292-3.222l-1.631,1.144-.458-.655l1.634-1.14c-.754604-1.082318-1.501955-2.169676-2.242-3.262l-1.65,1.118-.445-.658l1.653-1.114c-.735862-1.091313-1.464212-2.187672-2.185-3.289l-1.667,1.091-.192-.293-.245-.377l1.67-1.087c-.720123-1.106656-1.432474-2.21835-2.137-3.335l-1.685,1.064-.424-.674l1.688-1.058c-.698908-1.113967-1.390258-2.23266-2.074-3.356l-1.702,1.036-.415-.685l1.705-1.031c-.683814-1.130663-1.35983-2.266023-2.028-3.406l-1.719,1.007-.401-.688l1.722-1.002c-.661196-1.135285-1.314213-2.275315-1.959-3.42l-1.736.978c-.131222-.232354-.261889-.465022-.392-.698l1.738-.974c-.645498-1.153487-1.282848-2.311516-1.912-3.474l-1.753.948-.378-.701l1.755-.943c-.621842-1.15682-1.235192-2.318184-1.84-3.484l-1.768.918-.368-.712l1.771-.912c-.606048-1.175903-1.203397-2.356269-1.792-3.541l-1.784.887-.354-.714l1.787-.881c-.581183-1.177694-1.153533-2.359728-1.717-3.546l-1.8.855-.145-.308c-.066023-.138497-.13169-.277165-.197-.416l1.802-.849c-.563614-1.197001-1.118628-2.398032-1.665-3.603l-1.815.823-.328-.726l1.818-.817c-.54-1.202-1.07-2.403-1.588-3.605l-1.83.789-.316-.736l1.832-.784c-.519813-1.216347-1.030162-2.436717-1.531-3.661l-1.845.755-.3-.738l1.846-.749c-.493326-1.216614-.977341-2.436983-1.452-3.661l-1.858.719-.289-.749l1.86-.714c-.473623-1.234582-.937305-2.472956-1.391-3.715l-1.872.684-.272-.749l1.874-.678c-.448-1.24-.885-2.479-1.31-3.717l-1.885.647c-.086917-.253248-.173584-.506581-.26-.76l1.888-.641c-.42518-1.251502-.839862-2.506546-1.244-3.765l-1.897.609-.242-.759l1.9-.602c-.39753-1.253734-.784544-2.510778-1.161-3.771l-1.91.569-.228-.769l1.912-.563c-.37336-1.266828-.735707-2.536876-1.087-3.81l-1.92.529c-.071057-.255376-.141058-.511045-.21-.767l1.922-.523c-.347-1.276-.68-2.55-1.002-3.822l-1.932.488-.195-.778l1.934-.481c-.318977-1.279692-.625658-2.562418-.92-3.848l-1.942.445c-.059725-.258092-.118393-.516427-.176-.775l1.943-.438c-.29-1.292-.569-2.582-.833-3.87l-1.952.402-.068-.332-.092-.454l1.953-.393c-.259844-1.290575-.507189-2.583636-.742-3.879l-1.961.356-.14-.782l1.962-.348c-.232-1.307-.45-2.612-.654-3.913l-1.969.309c-.041128-.263595-.081795-.527262-.122-.791l1.97-.301c-.198328-1.298402-.383338-2.598804-.555-3.901l-1.975.26c-.035-.264-.07-.528-.103-.792l1.977-.252c-.167314-1.312998-.320656-2.627739-.46-3.944l-1.982.209-.082-.794l1.982-.201c-.132606-1.308338-.250947-2.618082-.355-3.929l-1.986.158c-.022-.268-.042-.535-.062-.803l1.987-.148c-.1-1.323-.183-2.64-.251-3.953l-1.99.104-.04-.796l1.99-.095c-.062116-1.317408-.108786-2.635498-.14-3.954l-1.993.048c-.006451-.267983-.012118-.535984-.017-.804l1.992-.038c-.025243-1.315506-.034577-2.631269-.028-3.947l-1.992-.01c0-.265.003-.53.006-.795l1.992.02c.013-1.33.043-2.653.09-3.97l-1.992-.07.03-.8l1.992.08c.053-1.319.123-2.632.21-3.937l-1.988-.133c.018-.268.036-.537.056-.805l1.987.143c.095-1.323.208-2.638.338-3.945l-1.983-.197.08-.795l1.983.208c.138-1.318.294-2.629.468-3.931l-1.975-.264c.035-.266.071-.531.108-.797l1.974.275c.182-1.307.382-2.607.6-3.897l-1.964-.332.136-.791l1.963.344c.23-1.308.477-2.608.744-3.897l-1.95-.404c.053-.262.108-.523.164-.784l1.949.415c.276-1.293.571-2.578.886-3.852l-1.935-.477c.064-.261.13-.522.196-.782l1.931.489c.325-1.281.67-2.552,1.033-3.812l-1.914-.552.224-.768l1.91.566c.376059-1.267722.772779-2.529223,1.19-3.784l-1.89-.63c.086-.255.171-.509.258-.762l1.886.643c.426-1.251.873-2.49,1.34-3.716l-1.861-.71.29-.754l1.857.723c.48-1.231.98-2.45,1.5-3.656l-1.83-.79.322-.736l1.823.804c.532198-1.208763,1.087298-2.407312,1.665-3.595l-1.792-.872c.118-.242.236-.483.356-.723l1.785.885c.584832-1.180399,1.192614-2.349288,1.823-3.506l-1.75-.954.39-.708l1.742.967c.639706-1.152009,1.302169-2.291232,1.987-3.417l-1.702-1.036c.14-.23.28-.458.422-.686l1.693,1.049c.694803-1.121767,1.412284-2.229328,2.152-3.322l-1.65-1.117c.151-.223.303-.445.456-.666l1.64,1.13c.747833-1.085122,1.517997-2.154684,2.31-3.208l-1.592-1.198c.162-.215.324-.43.488-.643l1.582,1.21c.801663-1.047465,1.625177-2.078024,2.47-3.091l-1.531-1.276c.172-.207.346-.413.52-.618l1.52,1.288c.851766-1.004957,1.724627-1.991843,2.618-2.96l-1.464-1.35c.183-.199.367-.396.551-.593l1.453,1.364c.9-.959,1.822-1.9,2.767-2.824l-1.394-1.424c.192-.188.385-.375.579-.562l1.381,1.436c.952042-.915678,1.923257-1.811209,2.913-2.686l-1.32-1.493c.203022-.179068.40669-.357403.611-.535l1.307,1.504c1-.869,2.015-1.714,3.045-2.535l-1.242-1.558c.21-.168.421-.334.633-.5l1.229,1.568c1.037528-.812507,2.092096-1.603017,3.163-2.371l-1.161-1.62c.219-.157.438-.313.659-.468l1.147,1.629c1.076997-.759,2.169907-1.495165,3.278-2.208l-1.078-1.675c.226-.146.454-.291.681-.435l1.064,1.685c1.115338-.704169,2.245251-1.384984,3.389-2.042l-.992-1.728c.233-.134.467-.267.702-.399l.977,1.736c1.148684-.64691,2.310599-1.270043,3.485-1.869l-.906-1.775.721-.364.891,1.783c1.180045-.589833,2.371957-1.155616,3.575-1.697l-.818-1.817c.245-.11.49-.22.736-.328l.803,1.824c1.20612-.531482,2.422694-1.038916,3.649-1.522l-.73-1.854.753-.293.715,1.86c1.228-.472,2.466-.922,3.716-1.348l-.643-1.886.763-.257.629,1.89c1.25-.415,2.511-.808,3.783-1.178l-.557-1.913c.256-.075.513-.149.771-.222l.543,1.918c1.264-.358,2.538-.694,3.822-1.008l-.473-1.935c.261-.064.523-.127.785-.189l.459,1.939c1.277-.302,2.564-.583,3.86-.842l-.39-1.954c.263-.052.526-.104.789-.154l.377,1.956c1.294-.249,2.596-.477,3.907-.683l-.309-1.968.79-.122.296,1.97c1.302062-.19566,2.607237-.370016,3.915-.523l-.232-1.98.802-.09.219,1.98c1.309626-.144716,2.621456-.268732,3.935-.372l-.157-1.987.8-.06.144,1.987c1.319105-.095513,2.639592-.170855,3.961-.226l-.084-1.991c.267-.011.535-.022.802-.031l.072,1.99c1.308-.046,2.622-.074,3.942-.083l-.013-1.993.804-.003.002,1.993c1.314-.002,2.633.016,3.959.052l.054-1.992.798.024-.065,1.991c1.313.043,2.632.104,3.956.184l.119-1.99.805.051-.13,1.988c1.306.086,2.617.188,3.932.309l.181-1.984.798.075-.192,1.983c1.311.127,2.627.27,3.947.432l.242-1.978.789.099-.252,1.976c1.3.166,2.603.348,3.909.546l.3-1.97.794.123-.309,1.968c1.297.204,2.598.424,3.902.66l.355-1.96c.261.046.522.094.784.143l-.364,1.959c1.292.24,2.587.496,3.885.768l.408-1.95c.262.054.525.11.788.166l-.417,1.949c1.28.273,2.562.563,3.847.867l.46-1.938.777.185-.468,1.937c1.281.31,2.564.635,3.85.974l.509-1.926c.257.068.514.136.772.206l-.518,1.924c1.264.34,2.529.693,3.795,1.062l.557-1.913.768.225-.565,1.91c1.263.374,2.528.76,3.794,1.162l.602-1.899c.252.08.504.16.756.242l-.609,1.897c1.248.401,2.497.816,3.747,1.245l.647-1.884c.252.086.505.173.757.261l-.654,1.882c1.242.432,2.484.877,3.727,1.335l.69-1.87.745.277-.696,1.867c1.23.459,2.462.931,3.693,1.417l.731-1.854.746.296-.737,1.85c1.218.486,2.438.985,3.657,1.496l.771-1.837.733.309-.777,1.834c1.211.513,2.423,1.039,3.634,1.577l.809-1.82c.244.108.489.217.733.327l-.815,1.818c1.199861.53841,2.395235,1.086762,3.586,1.645l.846-1.803c.24.112.48.225.72.34l-.852,1.8c1.19.563,2.38,1.139,3.569,1.727l.883-1.787.719.357-.888,1.784c1.175792.586199,2.34683,1.181885,3.513,1.787l.918-1.769.706.368-.923,1.766c1.167.61,2.334,1.233,3.5,1.867l.952-1.75.705.384-.958,1.748c1.148.629,2.294,1.269,3.439,1.92l.985-1.732c.231.13.462.263.692.395l-.99,1.729c1.144.655,2.287,1.322,3.428,1.999l1.017-1.713.689.41-1.023,1.71c1.124.672,2.246,1.354,3.366,2.047l1.048-1.694.677.42-1.054,1.691c1.12.698,2.237,1.405,3.353,2.124l1.079-1.675.672.434-1.084,1.672c1.102232.714186,2.198931,1.436874,3.29,2.168l1.109-1.656.661.444-1.113,1.653c1.096731.738747,2.188093,1.485433,3.274,2.24l1.137-1.635.658.458-1.143,1.633c1.073.75,2.144,1.511,3.212,2.281l1.165-1.616.646.467-1.17,1.613c1.069855.776476,2.134215,1.560496,3.193,2.352l1.193-1.596.642.48-1.198,1.593c1.049823.78978,2.094182,1.586799,3.133,2.391l1.22-1.575c.209.162.419.324.628.488l-1.224,1.572c1.04.809,2.077,1.628,3.111,2.457l1.246-1.555.624.502-1.25,1.551c1.0236.825125,2.041623,1.657144,3.054,2.496l1.272-1.534.611.508-1.275,1.531c1.011.843,2.02,1.695,3.026,2.557l1.296-1.513.607.521-1.301,1.51c.995.857,1.986,1.722,2.974,2.597l1.321-1.492c.198.176.397.351.594.528l-1.324,1.488c.983.875,1.963,1.759,2.939,2.652l1.345-1.471.589.54-1.349,1.467c.968.89,1.933,1.788,2.893,2.695l1.368-1.449.577.546-1.372,1.445c.954.905,1.904,1.819,2.851,2.741l1.39-1.427.572.558-1.395,1.424c.941.921,1.878,1.851,2.811,2.789l1.412-1.405.559.563-1.416,1.401c.924.934,1.844,1.877,2.76,2.827l1.435-1.383.553.575-1.438,1.379c.912.952,1.821,1.912,2.726,2.88l1.456-1.36.54.579-1.459,1.357c.894.962,1.783,1.931,2.669,2.908l1.476-1.338.535.591-1.48,1.334c.883.981,1.763,1.969,2.638,2.965l1.497-1.315.264.301.264.301-1.501,1.311c.873.998,1.737,2,2.593,3.005l1.517-1.292.516.607-1.521,1.288c.850802,1.003905,1.695152,2.013259,2.533,3.028l1.536-1.269.504.612-1.54,1.265c.838922,1.021642,1.671273,2.048663,2.497,3.081l1.556-1.245.498.624-1.56,1.24c.820349,1.030473,1.633701,2.066497,2.44,3.108l1.575-1.22.485.628-1.578,1.216c.805491,1.045462,1.604174,2.096151,2.396,3.152l1.594-1.196.478.64-1.597,1.191c.79,1.06,1.571,2.122,2.343,3.186l1.613-1.17.466.644-1.616,1.165c.770485,1.069135,1.534167,2.143157,2.291,3.222l1.631-1.144c.154.218.306.436.459.655l-1.635,1.139c.755042,1.082243,1.502726,2.169602,2.243,3.262l1.65-1.117c.148.219.297.438.444.658l-1.652,1.113c.735507,1.091665,1.463524,2.188357,2.184,3.29l1.668-1.091.437.67-1.67,1.086c.722,1.11,1.434,2.222,2.137,3.336l1.685-1.064.424.673-1.688,1.059c.699123,1.113628,1.390142,2.232325,2.073,3.356l1.702-1.036.416.685-1.705,1.031c.683334,1.130753,1.359016,2.266112,2.027,3.406l1.72-1.007.401.687-1.722,1.003c.661167,1.134968,1.314184,2.274664,1.959,3.419l1.736-.978.392.699-1.739.973c.645756,1.153862,1.283438,2.312224,1.913,3.475l1.752-.948c.127.234.253.467.378.701l-1.755.943c.624,1.16,1.237,2.321,1.84,3.483l1.769-.918.368.712-1.771.913c.605689,1.175752,1.203037,2.355781,1.792,3.54l1.784-.886.353.713-1.786.882c.580892,1.177676,1.152908,2.35971,1.716,3.546l1.8-.855.343.723-1.803.85c.566,1.2,1.121,2.401,1.666,3.602l1.814-.822.328.726-1.817.817c.54,1.201,1.069,2.403,1.587,3.605l1.83-.789.316.736-1.832.784c.522,1.22,1.033,2.44,1.532,3.661l1.844-.755.301.738-1.846.749c.495,1.22.979,2.441,1.451,3.661l1.858-.72.289.75-1.86.713c.476,1.239.939,2.478,1.392,3.716l1.871-.684.272.749-1.873.678c.448,1.239.885,2.479,1.31,3.717l1.884-.647.26.76-1.887.641c.427,1.256.841,2.511,1.243,3.765l1.898-.609.11.346.132.413-1.9.602c.399,1.258.786,2.515,1.161,3.771l1.909-.57.228.77-1.911.563c.375,1.272.737,2.541,1.086,3.81l1.921-.53.21.768-1.922.522c.346,1.276.68,2.55,1.002,3.823l1.932-.488.195.778-1.934.481c.32,1.284.626,2.567.92,3.847l1.942-.445.176.775-1.944.438c.292,1.293.57,2.583.834,3.87l1.952-.401.16.785-1.954.394c.262,1.296.509,2.589.743,3.879l1.961-.356.14.782-1.962.348c.232,1.307.45,2.612.654,3.913l1.968-.309.123.791-1.97.3c.199,1.305.384,2.605.555,3.902l1.975-.26.103.792-1.977.251c.168,1.319.321,2.634.46,3.945l1.982-.209.082.794-1.982.201c.133,1.314.251,2.623.355,3.928l1.986-.157.062.802-1.987.149c.099,1.323.183,2.64.251,3.952l1.99-.103c.014.265.027.531.039.796l-1.99.094c.063,1.324.11,2.642.142,3.955l1.991-.048.018.803-1.992.038c.025,1.322.034,2.638.028,3.948l1.992.01-.006.795-1.992-.02c-.01336,1.323325-.043362,2.64643-.09,3.969l1.991.071c-.009.267-.019.534-.03.8l-1.991-.08c-.052673,1.3132-.122679,2.625648-.21,3.937l1.988.133-.056.805-1.987-.143c-.094651,1.316481-.207328,2.631605-.338,3.945l1.983.197-.024.236-.057.559-1.982-.208c-.137304,1.312492-.29332,2.622958-.468,3.931l1.975.263c-.035969.265716-.072303.531383-.109.797l-1.973-.275c-.181461,1.302173-.381815,2.601643-.601,3.898l1.965.332c-.045.264-.09.528-.137.791l-1.962-.344c-.23,1.308-.478,2.607-.745,3.897l1.951.404-.081.39c-.028.131-.055.263-.084.394l-1.948-.416c-.275085,1.288573-.570455,2.572733-.886,3.852l1.935.478-.196.782-1.931-.49c-.3237,1.276261-.668414,2.5471-1.034,3.812l1.915.553c-.074.256-.149.512-.225.767l-1.91-.565c-.375147,1.268-.771871,2.529517-1.19,3.784l1.89.63-.146.435-.111.327-1.886-.643c-.425279,1.246398-.872348,2.485254-1.341,3.716l1.862.71-.138.359-.152.394-1.857-.722c-.478024,1.227568-.978105,2.446432-1.5,3.656l1.829.79c-.106.246-.213.491-.321.735l-1.823-.803c-.532512,1.208621-1.08761,2.407164-1.665,3.595l1.791.872c-.117.241-.236.482-.355.723l-1.785-.885c-.585085,1.180446-1.193201,2.349337-1.824,3.506l1.75.954-.121.221-.269.487-1.742-.968c-.639305,1.152565-1.301773,2.29213-1.987,3.418l1.702,1.036c-.139.229-.28.458-.421.686l-1.694-1.049c-.694107,1.121879-1.411597,2.229121-2.152,3.321l1.65,1.118c-.151.222-.302.445-.455.666l-1.641-1.13c-.747843,1.085115-1.518007,2.154676-2.31,3.208l1.593,1.197c-.162.216-.325.43-.488.644l-1.583-1.211c-.801431,1.047707-1.62461,2.078597-2.469,3.092l1.531,1.276c-.173.206-.346.413-.52.618l-1.52-1.289c-.851876,1.005157-1.725075,1.992048-2.619,2.96l1.464,1.351c-.18179.199072-.365465.396414-.551.592l-1.452-1.364c-.9.959-1.823,1.901-2.767,2.825l1.394,1.424c-.192.188-.385.375-.579.562l-1.382-1.436c-.951957.915407-1.922833,1.810934-2.912,2.686l1.319,1.493-.305.268-.306.267-1.306-1.504c-.997151.866212-2.012375,1.711398-3.045,2.535l1.242,1.558-.633.5-1.229-1.569c-1.037233.813217-2.091809,1.604066-3.163,2.372l1.161,1.619c-.219025.157233-.438694.313567-.659.469l-1.147-1.629c-1.077214.758685-2.170118,1.494845-3.278,2.208l1.078,1.675-.288.185-.394.25-1.063-1.685c-1.115564.703803-2.245469,1.384614-3.389,2.042l.992,1.727c-.233323.134518-.467326.267853-.702.4l-.978-1.736c-1.148404.646806-2.309983,1.269938-3.484,1.869l.906,1.774c-.239626.122729-.479964.244064-.721.364l-.891-1.782c-1.180143.58963-2.372052,1.155412-3.575,1.697l.818,1.817-.736.328-.803-1.824c-1.20616.531387-2.422733,1.03882-3.649,1.522l.73,1.853-.753.294-.716-1.86c-1.227.472-2.465.921-3.715,1.348l.643,1.885c-.254.087-.509.173-.764.258l-.628-1.891c-1.251.416-2.512.809-3.783,1.179l.557,1.913c-.257.075-.514.148-.771.221l-.543-1.917c-1.267699.359141-2.541916.694865-3.822,1.007l.473,1.936c-.262.064-.523.127-.785.189l-.459-1.939c-1.281916.303186-2.569119.583564-3.861.841l.39,1.954c-.262.053-.525.104-.789.155l-.376-1.956c-1.294.249-2.596.476-3.908.683l.31,1.968c-.263.041-.526.082-.79.121l-.297-1.97c-1.297.195-2.602.37-3.914.524l.232,1.979c-.267.031-.534.062-.802.091l-.219-1.98c-1.304.144-2.616.268-3.935.372l.157,1.986c-.267.021-.533.042-.8.061l-.144-1.987c-1.314.095-2.634.17-3.961.226l.084,1.991c-.268.011-.535.022-.802.031l-.072-1.991c-1.308.047-2.622.075-3.943.084l.014,1.992-.444.003-.36.001-.002-1.993c-1.319844.001092-2.63964-.016243-3.959-.052l-.054,1.992-.798-.024.065-1.991c-1.319432-.043601-2.638218-.10494-3.956-.184l-.119,1.989-.806-.05.13-1.989c-1.31161-.085658-2.622054-.188334-3.931-.308l-.181,1.984-.422-.039-.376-.036.192-1.983c-1.317407-.127628-2.633176-.271639-3.947-.432l-.242,1.977c-.13-.015-.259-.031-.388-.048l-.401-.05.252-1.977c-1.3-.165-2.603-.347-3.91-.546l-.299,1.97-.794-.122.309-1.969c-1.303233-.204191-2.603992-.423873-3.902-.659l-.355,1.961-.784-.144.364-1.959c-1.292-.24-2.587-.496-3.885-.768l-.408,1.95-.788-.166.417-1.949c-1.28-.274-2.563-.563-3.848-.868l-.459,1.939-.777-.186.468-1.937c-1.28686-.310565-2.57027-.635251-3.85-.974l-.509,1.927-.261-.069-.037-.01c-.158125-.041867-.316125-.0842-.474-.127l.517-1.924c-1.263-.34-2.528-.694-3.794-1.062l-.557,1.913-.768-.225.564-1.911c-1.268233-.374487-2.532632-.761841-3.793-1.162l-.603,1.899-.756-.241.61-1.897c-1.25306-.402681-2.50212-.817701-3.747-1.245l-.647,1.884-.758-.261.654-1.883c-1.246476-.433007-2.488864-.877693-3.727-1.334l-.689,1.869c-.249-.091-.497-.184-.745-.276l.696-1.867c-1.235756-.460722-2.467144-.933076-3.694-1.417l-.73,1.854-.746-.296.737-1.851c-1.223528-.487184-2.442579-.985538-3.657-1.495l-.771,1.837c-.244691-.102151-.489025-.205151-.733-.309l.777-1.835c-1.215952-.514619-2.427332-1.039973-3.634-1.576l-.809,1.82c-.244787-.107979-.489123-.21698-.733-.327l.815-1.818c-1.200136-.538142-2.395516-1.08683-3.586-1.646l-.846,1.804c-.241-.112-.481-.226-.721-.339l.853-1.801c-1.194778-.565736-2.38482-1.141423-3.57-1.727l-.882,1.786-.72-.357.889-1.783c-1.175833-.586117-2.346872-1.181803-3.513-1.787l-.918,1.769-.322-.168-.384-.2.923-1.766c-1.171755-.612747-2.338461-1.235102-3.5-1.867l-.952,1.75c-.152991-.082738-.305659-.166071-.458-.25l-.201-.109-.046-.026.957-1.747c-1.151236-.631179-2.297603-1.271198-3.439-1.92l-.985,1.732-.692-.395.991-1.729c-1.147943-.657244-2.290646-1.323598-3.428-1.999l-1.018,1.713-.688-.41l1.022-1.71c-1.126718-.673994-2.248416-1.356346-3.365-2.047l-1.048,1.694-.315-.195-.362-.225l1.053-1.691c-1.122413-.699951-2.239775-1.40797-3.352-2.124l-1.079,1.675-.297-.192-.376-.243l1.084-1.671c-1.10152-.714767-2.197882-1.437453-3.289-2.168l-1.109,1.656-.661-.444l1.113-1.653c-1.096619-.739249-2.18798-1.486268-3.274-2.241l-1.138,1.636-.657-.459l1.142-1.632c-1.07588-.752832-2.146242-1.513519-3.211-2.282l-1.166,1.617-.645-.467l1.17-1.613c-1.070149-.776074-2.134512-1.560096-3.193-2.352l-1.193,1.596-.181-.135-.461-.346l1.198-1.593c-1.050005-.789205-2.094365-1.585891-3.133-2.39l-1.22,1.575-.629-.488l1.224-1.572c-1.042236-.811925-2.078927-1.630944-3.11-2.457l-1.246,1.555-.625-.502l1.251-1.551c-1.023799-.824879-2.041824-1.656899-3.054-2.496l-1.272,1.534-.612-.509l1.276-1.53c-1.014342-.845594-2.023031-1.697946-3.026-2.557l-1.296,1.513-.607-.521l1.3-1.51c-.996832-.859349-1.988186-1.725033-2.974-2.597l-1.32,1.492-.23-.204-.365-.324l1.325-1.488c-.985702-.877288-1.965392-1.761309-2.939-2.652l-1.345,1.471-.589-.541l1.348-1.466c-.970087-.891779-1.93411-1.790133-2.892-2.695l-1.368,1.449-.577-.546l1.372-1.445c-.954-.906-1.905-1.82-2.851-2.742l-1.391,1.427-.571-.558l1.394-1.423c-.94-.921-1.877-1.851-2.81-2.789l-1.413,1.405-.558-.563l1.416-1.401c-.925866-.936914-1.846215-1.879264-2.761-2.827l-1.434,1.383-.275-.286c-.092407-.096583-.185074-.192917-.278-.289l1.438-1.38c-.915272-.95339-1.823961-1.91308-2.726-2.879l-1.456,1.36-.54-.58l1.459-1.356c-.895836-.963653-1.785521-1.933006-2.669-2.908l-1.477,1.338-.534-.591l1.48-1.334c-.885561-.982775-1.764912-1.971128-2.638-2.965l-1.497,1.315-.264-.301Z" filter="url(#eXLrqU7nEDJ3-filter)" fill="none" stroke="#00e0ca" stroke-width="3.985" stroke-dasharray="0.8,3.98"/></g></g></g></g><g id="eXLrqU7nEDJ4_to" transform="translate(233.989029,223.57283)"><path d="M132.991,312.077c37.137,42.38,82.083,70.765,124.692,82.43c42.617,11.668,82.774,6.589,110.544-17.747c27.771-24.335,38.078-63.477,32.106-107.257-5.97-43.772-28.209-92.056-65.346-134.435-37.137-42.38-82.083-70.764-124.692-82.43-42.617-11.667-82.774-6.588-110.544,17.747s-38.078,63.477-32.106,107.258c5.97,43.771,28.209,92.055,65.346,134.434Z" transform="translate(-233.989029,-223.57283)" fill="none" stroke="url(#eXLrqU7nEDJ4-stroke)" stroke-width="1.913"/></g><g id="eXLrqU7nEDJ5_to" transform="translate(235.440048,221.600716)"><g transform="translate(-235.440048,-221.600716)"><path d="M134.442,310.105c37.137,42.38,82.083,70.765,124.692,82.43c42.617,11.667,82.774,6.588,110.544-17.747c27.771-24.335,38.078-63.477,32.106-107.258-5.97-43.771-28.209-92.055-65.346-134.434-37.137-42.38-82.083-70.764-124.692-82.43C169.129,39,128.972,44.078,101.202,68.413s-38.078,63.477-32.106,107.257c5.97,43.771,28.209,92.055,65.346,134.434Z" fill="none" stroke="url(#eXLrqU7nEDJ6-stroke)" stroke-width="1.913"/></g></g><g id="eXLrqU7nEDJ7_ts" transform="translate(200.528458,252.453506) scale(1,1)"><path d="M111.922,330.099c32.574,37.171,71.998,62.069,109.374,72.302c37.384,10.235,72.617,5.782,96.985-15.572s33.409-55.698,28.171-94.101c-5.238-38.396-24.745-80.748-57.318-117.92-32.573-37.171-71.998-62.07-109.374-72.302-37.384-10.235-72.617-5.782-96.985,15.572s-33.408,55.697-28.17,94.101c5.237,38.396,24.744,80.748,57.317,117.92Z" transform="translate(-200.528458,-252.453506)" fill="none" stroke="url(#eXLrqU7nEDJ7-stroke)" stroke-width="1.594"/></g><g opacity="0.5" filter="url(#eXLrqU7nEDJ8-filter)"><path id="eXLrqU7nEDJ9" d="M160.625,289.079c26.947,30.751,59.387,51.132,89.776,59.452c30.45,8.336,57.981,4.419,76.616-11.911c18.636-16.33,26.133-43.108,21.866-74.389-4.258-31.219-20.204-66.054-47.151-96.805s-59.387-51.132-89.776-59.452c-30.45-8.337-57.981-4.42-76.617,11.911-18.635,16.33-26.132,43.108-21.866,74.389c4.259,31.219,20.204,66.053,47.152,96.805Z" fill="none" stroke="url(#eXLrqU7nEDJ9-stroke)" stroke-width="13.549"/></g><g id="eXLrqU7nEDJ10_to" transform="translate(174.175,181.227379)"><g id="eXLrqU7nEDJ10_tr" transform="rotate(0)"><path id="eXLrqU7nEDJ10" d="M174.175,62.876c-30.098-.484-54.88,10.832-70.572,32.134-15.702,21.314-21.485,51.517-16.358,85.978" transform="translate(-174.174997,-181.227379)" fill="none" stroke="#87fff3" stroke-width="1.195" stroke-linecap="round" stroke-linejoin="round" stroke-dasharray="0.8,8.77"/></g></g><g id="eXLrqU7nEDJ11_to" style="offset-path:path('M124.277824,209.734001C129.303868,235.481074,153.055208,275.081537,169.658478,289.753326C169.658478,289.753326,169.658478,289.753326,169.658478,289.753326C152.278449,275.048419,128.537777,235.677722,124.277824,209.734001');offset-rotate:0deg"><g id="eXLrqU7nEDJ11_tr" transform="rotate(0)"><g id="eXLrqU7nEDJ11_tk" transform="skewX(0) skewY(0)"><g transform="translate(-124.277824,-209.734001)"><path d="M103.467,113.191c-11.466,24.151-12.922,56.153-3.689,91.198c9.227,35.018,28.553,70.855,55.037,101.888" fill="none" stroke="#c2d6db" stroke-width="6.376" stroke-linejoin="round" stroke-dasharray="0.8,3.19"/></g></g></g></g><g id="eXLrqU7nEDJ13_to" style="offset-path:path('M358.323441,247.647491C362.078607,243.744036,356.00137,228.205417,348.323441,217.647491C357.714255,230.647164,360.80065,243.946182,358.323441,247.647491');offset-rotate:0deg"><g id="eXLrqU7nEDJ13_tr" transform="rotate(0)"><g id="eXLrqU7nEDJ13_tk" transform="skewX(0) skewY(0)"><g transform="translate(-358.323441,-247.647491)"><path d="M379.152,344.633c11.573-24.377,13.008-56.591,3.741-91.763-9.262-35.151-28.651-71.095-55.204-102.208" fill="none" stroke="#c2d6db" stroke-width="4.782" stroke-linejoin="round" stroke-dasharray="0.8,3.19"/></g></g></g></g><g id="eXLrqU7nEDJ15_to" transform="translate(321.03981,325.962158)"><path id="eXLrqU7nEDJ15" d="M257.919,378.902c19.441,5.807,38.065,7.502,54.814,5.007c16.746-2.494,31.29-9.126,42.819-19.504c11.528-10.378,19.837-24.317,24.439-41.04c4.603-16.726,5.408-35.911,2.35-56.466" transform="translate(-321.03981,-325.962158)" fill="none" stroke="#87fff3" stroke-width="1.195" stroke-linecap="round" stroke-linejoin="round" stroke-dasharray="0.8,8.77"/></g><g id="eXLrqU7nEDJ16_to" transform="translate(252.539154,214.373253)"><g id="eXLrqU7nEDJ16_ts" transform="scale(1,1)"><g transform="translate(-252.539154,-214.373253)"><g opacity="0.2" clip-rule="evenodd"><path d="M165.117,143.308c30.167-32.265,93.276-25.961,140.959,14.081l-16.155,17.278c46.367,39.998,59.897,97.637,30.079,129.529-30.166,32.265-93.275,25.96-140.958-14.081l16.154-17.279C148.829,232.839,135.3,175.2,165.117,143.308Zm34.675,127.758l16.346-17.483c-30.788-25.967-39.927-63.882-20.398-84.769c19.18-20.515,58.893-16.99,89.585,7.623L268.98,193.92c30.788,25.967,39.927,63.882,20.398,84.77-19.18,20.515-58.893,16.989-89.586-7.624Z" clip-rule="evenodd" fill="#00e0ca" fill-rule="evenodd"/><path d="M165.117,143.308c30.167-32.265,93.276-25.961,140.959,14.081l-16.155,17.278c46.367,39.998,59.897,97.637,30.079,129.529-30.166,32.265-93.275,25.96-140.958-14.081l16.154-17.279C148.829,232.839,135.3,175.2,165.117,143.308Zm34.675,127.758l16.346-17.483c-30.788-25.967-39.927-63.882-20.398-84.769c19.18-20.515,58.893-16.99,89.585,7.623L268.98,193.92c30.788,25.967,39.927,63.882,20.398,84.77-19.18,20.515-58.893,16.989-89.586-7.624Z" clip-rule="evenodd" fill="url(#eXLrqU7nEDJ19-fill)" fill-opacity="0.2" fill-rule="evenodd"/></g><path d="M328.31,138.206c.111-.113.073-.304-.084-.436-46.994-39.415-110.76-45.244-142.572-12.979-31.802,32.255-19.654,90.394,27.1,130.016.173.147.427.166.549.042l19.974-20.258c.111-.113.075-.303-.081-.436-30.126-25.693-37.909-63.258-17.337-84.124c20.562-20.855,61.709-17.171,92.158,8.157.174.145.428.165.551.041l19.742-20.023Z" fill="#00f5dd"/><path d="M327.234,139.887c.111-.112.073-.303-.084-.436-46.994-39.414-110.76-45.243-142.572-12.978-31.802,32.255-19.654,90.394,27.099,130.016.174.147.427.166.55.042l19.974-20.259c.111-.112.075-.302-.081-.435-30.126-25.694-37.909-63.259-17.337-84.124c20.562-20.855,61.708-17.171,92.158,8.156.174.146.428.166.55.042l19.743-20.024Z" fill="#14cabf"/><path d="M193.826,274.804c-.111.112-.073.304.084.436c46.994,39.414,110.76,45.243,142.572,12.979c31.802-32.255,19.654-90.394-27.1-130.016-.173-.147-.427-.167-.549-.042l-19.974,20.258c-.111.112-.074.302.081.435c30.127,25.693,37.91,63.259,17.338,84.124-20.563,20.855-61.709,17.172-92.158-8.157-.175-.145-.429-.165-.551-.041l-19.743,20.024Z" fill="#fdff9f"/><path d="M195.416,272.806c-.111.112-.073.304.084.436c46.994,39.414,110.76,45.243,142.572,12.979c31.802-32.255,19.654-90.394-27.1-130.016-.173-.147-.427-.167-.549-.042L290.449,176.42c-.111.113-.074.303.081.436c30.127,25.693,37.91,63.259,17.338,84.124-20.563,20.855-61.709,17.172-92.159-8.157-.174-.145-.428-.165-.55-.041l-19.743,20.024Z" fill="#14cabf"/></g></g></g></svg>
