<svg viewBox="0 0 461 461" fill="none" xmlns="http://www.w3.org/2000/svg">
  <path opacity=".5" d="M121.653 320.51c-.224-.255-.447-.51-.669-.766l1.503-1.308a307.632 307.632 0 0 1-2.616-3.044l-1.519 1.289c-.436-.514-.87-1.029-1.302-1.545l1.528-1.279a313.913 313.913 0 0 1-2.543-3.078l-1.544 1.259c-.428-.526-.854-1.052-1.278-1.579l1.553-1.248a310.947 310.947 0 0 1-2.49-3.139l-1.569 1.228c-.415-.53-.828-1.06-1.238-1.592l1.577-1.218a308.107 308.107 0 0 1-2.427-3.185l-1.593 1.197c-.406-.541-.81-1.083-1.212-1.625l1.601-1.186a291.42 291.42 0 0 1-2.359-3.229l-1.617 1.165c-.392-.545-.783-1.091-1.171-1.637l1.625-1.154a291.97 291.97 0 0 1-2.305-3.291l-1.64 1.132c-.383-.556-.764-1.112-1.143-1.669l1.647-1.121c-.75-1.102-1.49-2.206-2.22-3.313l-1.663 1.098c-.374-.566-.745-1.132-1.114-1.699l1.67-1.086a298.512 298.512 0 0 1-2.163-3.376l-1.685 1.063c-.36-.569-.717-1.139-1.071-1.71l1.692-1.052a282.638 282.638 0 0 1-2.089-3.414l-1.707 1.028c-.35-.58-.696-1.16-1.04-1.742l1.714-1.015a283.64 283.64 0 0 1-2.015-3.454l-1.728.991a252.99 252.99 0 0 1-.995-1.749l1.735-.979a276.67 276.67 0 0 1-1.95-3.515l-1.75.954c-.323-.593-.643-1.186-.962-1.779l1.756-.942c-.63-1.175-1.25-2.352-1.859-3.529l-1.77.916c-.312-.604-.621-1.207-.928-1.811l1.777-.902a279.385 279.385 0 0 1-1.789-3.585l-1.79.876c-.295-.605-.588-1.21-.88-1.815l1.797-.862c-.58-1.209-1.15-2.418-1.709-3.628l-1.808.836c-.284-.615-.565-1.23-.844-1.844l1.816-.822a252.42 252.42 0 0 1-1.617-3.648l-1.828.793c-.27-.621-.537-1.242-.8-1.863l1.833-.78a253.75 253.75 0 0 1-1.54-3.705l-1.845.75c-.254-.624-.505-1.249-.753-1.874l1.852-.735a245.97 245.97 0 0 1-1.448-3.733l-1.863.706a261.04 261.04 0 0 1-.711-1.903l1.869-.69a240.949 240.949 0 0 1-1.352-3.757l-1.88.659c-.224-.638-.444-1.276-.662-1.913l1.886-.644a233.298 233.298 0 0 1-1.264-3.811l-1.897.611a223.16 223.16 0 0 1-.611-1.926l1.901-.595c-.4-1.278-.787-2.555-1.161-3.83l-1.912.562c-.191-.652-.38-1.303-.564-1.953l1.917-.545a221.478 221.478 0 0 1-1.057-3.85l-1.926.51c-.174-.654-.344-1.309-.51-1.962l1.93-.493c-.332-1.301-.65-2.601-.956-3.898l-1.94.456c-.154-.657-.305-1.313-.453-1.969l1.944-.438a211.314 211.314 0 0 1-.844-3.917l-1.952.401a206.56 206.56 0 0 1-.4-1.993l1.956-.382a201.86 201.86 0 0 1-.725-3.92l-1.963.343c-.117-.671-.23-1.341-.34-2.011l1.965-.323c-.217-1.324-.42-2.644-.61-3.961l-1.971.283c-.096-.668-.188-1.334-.276-2l1.975-.262a187.277 187.277 0 0 1-.486-3.987l-1.98.22a182.03 182.03 0 0 1-.213-2.019l1.983-.198c-.133-1.331-.25-2.657-.353-3.979l-1.986.154c-.053-.68-.102-1.359-.146-2.036l1.988-.131c-.088-1.334-.16-2.664-.217-3.988l-1.99.085a169.71 169.71 0 0 1-.075-2.032l1.991-.061c-.041-1.343-.066-2.68-.075-4.011l-1.992.012c-.005-.676-.005-1.351 0-2.024l1.992.012a157.7 157.7 0 0 1 .074-4.012l-1.991-.063c.021-.679.047-1.357.077-2.033l1.99.089c.06-1.337.136-2.667.23-3.99l-1.987-.141c.048-.681.101-1.361.159-2.038l1.985.168c.113-1.331.244-2.655.392-3.971l-1.98-.223c.077-.679.158-1.356.244-2.031l1.977.252c.17-1.33.357-2.652.564-3.965l-1.968-.31c.105-.668.215-1.335.33-2l1.963.34c.23-1.326.477-2.642.745-3.949l-1.953-.399c.137-.666.278-1.33.424-1.991l1.946.431c.29-1.31.598-2.61.927-3.899l-1.93-.492c.168-.661.342-1.319.52-1.975l1.923.525c.352-1.291.725-2.571 1.117-3.839l-1.903-.589c.202-.654.41-1.304.622-1.952l1.893.622a112.72 112.72 0 0 1 1.313-3.77l-1.87-.689c.237-.643.48-1.283.727-1.92l1.857.722c.485-1.246.991-2.48 1.518-3.7l-1.829-.791c.271-.627.548-1.25.83-1.87l1.814.825a104.27 104.27 0 0 1 1.727-3.615l-1.78-.893c.305-.61.616-1.215.933-1.817l1.763.929a99.975 99.975 0 0 1 1.938-3.51l-1.725-.997c.342-.591.69-1.178 1.043-1.762l1.704 1.033a97.82 97.82 0 0 1 2.144-3.381l-1.66-1.101c.377-.57.761-1.136 1.15-1.697l1.638 1.135a95.55 95.55 0 0 1 2.349-3.24l-1.589-1.202a98.74 98.74 0 0 1 1.256-1.622l1.563 1.236a94.111 94.111 0 0 1 2.55-3.085l-1.509-1.302c.446-.517.898-1.03 1.356-1.537l1.48 1.334a93.334 93.334 0 0 1 2.746-2.92l-1.422-1.396c.478-.486.96-.967 1.45-1.444l1.39 1.426a93.54 93.54 0 0 1 2.927-2.736l-1.33-1.484a95.198 95.198 0 0 1 1.551-1.358l1.297 1.512a93.494 93.494 0 0 1 3.096-2.542l-1.23-1.566a94.998 94.998 0 0 1 1.621-1.247l1.197 1.593a93.637 93.637 0 0 1 3.255-2.34l-1.128-1.642a95.293 95.293 0 0 1 1.702-1.142l1.093 1.666a94.56 94.56 0 0 1 3.393-2.123l-1.021-1.71a98.475 98.475 0 0 1 1.773-1.033l.984 1.733a96.233 96.233 0 0 1 3.52-1.904l-.911-1.772a97.375 97.375 0 0 1 1.834-.918l.873 1.79a98.927 98.927 0 0 1 3.633-1.68l-.799-1.826a98.698 98.698 0 0 1 1.883-.802l.763 1.84c1.232-.51 2.476-.997 3.732-1.46l-.688-1.87c.638-.234 1.279-.464 1.923-.687l.652 1.883c1.259-.436 2.529-.849 3.81-1.238l-.58-1.906c.652-.199 1.307-.39 1.964-.577l.543 1.917a109.16 109.16 0 0 1 3.868-1.02l-.473-1.935a109.67 109.67 0 0 1 2-.468l.437 1.944c1.294-.291 2.597-.56 3.91-.807l-.368-1.958c.669-.126 1.342-.247 2.016-.361l.334 1.964c1.309-.222 2.627-.424 3.953-.603l-.268-1.975c.673-.091 1.349-.177 2.026-.257l.235 1.978c1.321-.157 2.65-.292 3.986-.408l-.171-1.985a128.08 128.08 0 0 1 2.029-.158l.139 1.987c1.331-.093 2.668-.166 4.012-.22l-.078-1.99a135.73 135.73 0 0 1 2.026-.065l.049 1.992a136.96 136.96 0 0 1 4.004-.039l.01-1.992c.68.003 1.362.011 2.045.025l-.038 1.992c1.324.025 2.653.07 3.988.132l.094-1.99c.679.032 1.359.069 2.041.11l-.121 1.989c1.323.08 2.652.179 3.985.296l.174-1.985c.674.059 1.349.122 2.025.19l-.199 1.983c1.325.133 2.654.284 3.987.453l.25-1.977c.668.084 1.337.173 2.007.266l-.275 1.974c1.319.183 2.641.383 3.967.6l.322-1.966c.668.11 1.336.223 2.005.341l-.346 1.962c1.305.23 2.614.476 3.925.739l.391-1.954c.666.133 1.332.27 1.999.412l-.413 1.95c1.296.274 2.596.565 3.898.871l.457-1.94c.657.156 1.315.314 1.973.477l-.478 1.934c1.294.32 2.591.654 3.889 1.005l.519-1.924a195 195 0 0 1 1.946.536l-.539 1.918c1.281.36 2.563.735 3.846 1.124l.579-1.906c.649.197 1.299.397 1.949.602l-.598 1.9c1.262.398 2.526.809 3.791 1.234l.635-1.888c.641.215 1.282.434 1.924.657l-.654 1.882c1.256.437 2.514.887 3.772 1.351l.689-1.87c.631.234 1.262.47 1.893.71l-.707 1.862c1.246.473 2.493.96 3.739 1.46l.742-1.85c.626.252 1.252.506 1.878.764l-.758 1.842a222.69 222.69 0 0 1 3.678 1.553l.791-1.828c.621.268 1.242.54 1.862.816l-.807 1.82c1.215.54 2.43 1.091 3.644 1.655l.839-1.807c.61.283 1.22.57 1.83.86l-.855 1.8a221.45 221.45 0 0 1 3.612 1.753l.885-1.785c.604.299 1.207.601 1.81.907l-.9 1.777c1.183.6 2.366 1.21 3.547 1.834l.93-1.763c.598.316 1.195.634 1.792.955l-.943 1.755c1.171.63 2.341 1.271 3.51 1.925l.972-1.74c.587.328 1.173.659 1.759.993l-.986 1.731c1.159.66 2.316 1.33 3.471 2.013l1.013-1.716c.581.343 1.162.69 1.743 1.038l-1.027 1.708a254.49 254.49 0 0 1 3.404 2.082l1.053-1.691c.573.356 1.146.715 1.718 1.077l-1.066 1.684a259.37 259.37 0 0 1 3.372 2.17l1.091-1.667c.561.367 1.122.737 1.683 1.11l-1.104 1.66c1.109.737 2.215 1.484 3.32 2.243l1.128-1.643c.558.383 1.115.77 1.672 1.158l-1.14 1.634a268.15 268.15 0 0 1 3.255 2.307l1.164-1.618c.546.394 1.092.79 1.638 1.188l-1.176 1.609c1.079.788 2.155 1.586 3.229 2.395l1.198-1.592c.535.403 1.07.808 1.604 1.216l-1.21 1.583a275.76 275.76 0 0 1 3.159 2.451l1.232-1.566c.531.417 1.061.838 1.59 1.26l-1.243 1.557c1.04.83 2.077 1.67 3.11 2.519l1.265-1.539c.519.426 1.037.855 1.555 1.286l-1.276 1.531c1.025.853 2.045 1.716 3.063 2.588l1.296-1.513c.514.44 1.027.882 1.538 1.327l-1.306 1.504c1.001.87 1.998 1.749 2.993 2.636l1.327-1.486c.502.449 1.004.9 1.504 1.353l-1.337 1.477c.99.897 1.977 1.802 2.96 2.717l1.357-1.459c.491.456.981.915 1.469 1.376l-1.367 1.45c.968.912 1.931 1.832 2.891 2.762l1.386-1.432c.485.47.969.942 1.452 1.416l-1.396 1.422c.951.932 1.897 1.874 2.84 2.823l1.414-1.403c.473.477.945.955 1.416 1.436l-1.424 1.394c.932.952 1.861 1.912 2.785 2.881l1.441-1.375c.467.489.933.98 1.397 1.474l-1.45 1.366c.91.966 1.816 1.941 2.717 2.924l1.468-1.347c.455.496.909.994 1.361 1.493l-1.477 1.338c.896.989 1.788 1.987 2.675 2.992l1.494-1.318a244.213 244.213 0 0 1 1.34 1.529l-1.503 1.309c.88 1.011 1.752 2.026 2.615 3.044l1.52-1.289c.436.514.87 1.029 1.302 1.545l-1.528 1.279a313.79 313.79 0 0 1 2.542 3.078l1.545-1.259c.428.525.854 1.052 1.278 1.578l-1.553 1.249a290.003 290.003 0 0 1 2.49 3.139l1.569-1.229c.415.53.828 1.061 1.238 1.593l-1.577 1.217a297.81 297.81 0 0 1 2.427 3.186l1.593-1.197c.406.541.81 1.083 1.212 1.625l-1.601 1.186c.795 1.074 1.582 2.15 2.359 3.228l1.616-1.164c.393.545.783 1.09 1.171 1.637l-1.624 1.153a292.075 292.075 0 0 1 2.305 3.292l1.64-1.132c.383.556.764 1.112 1.143 1.669l-1.647 1.121a298.902 298.902 0 0 1 2.22 3.313l1.663-1.098c.374.565.745 1.132 1.114 1.699l-1.67 1.086c.73 1.123 1.451 2.249 2.163 3.376l1.685-1.064c.359.57.716 1.14 1.071 1.711l-1.692 1.052a300.342 300.342 0 0 1 2.089 3.413l1.706-1.028c.35.581.697 1.161 1.041 1.742l-1.714 1.016c.681 1.15 1.353 2.301 2.014 3.454l1.729-.992c.334.583.666 1.166.995 1.749l-1.735.98c.66 1.17 1.31 2.342 1.95 3.515l1.749-.955c.323.593.644 1.187.962 1.78l-1.756.941c.63 1.176 1.25 2.352 1.86 3.53l1.769-.916c.312.603.622 1.207.928 1.811l-1.776.902a259.952 259.952 0 0 1 1.788 3.585l1.79-.876c.296.605.589 1.209.88 1.814l-1.796.863c.58 1.209 1.15 2.418 1.708 3.627l1.809-.835c.284.615.565 1.229.843 1.844l-1.815.822a258.68 258.68 0 0 1 1.617 3.648l1.828-.794c.27.622.536 1.243.8 1.864l-1.834.779c.525 1.235 1.038 2.47 1.54 3.705l1.846-.75c.254.625.505 1.25.753 1.874l-1.852.736c.494 1.244.976 2.489 1.447 3.732l1.864-.705c.24.634.477 1.269.711 1.903l-1.869.69a249.47 249.47 0 0 1 1.352 3.757l1.88-.659c.224.638.444 1.276.662 1.913l-1.886.643a246.11 246.11 0 0 1 1.264 3.811l1.896-.611c.207.643.411 1.285.612 1.927l-1.902.595c.4 1.278.787 2.554 1.162 3.83l1.911-.562c.192.651.38 1.302.565 1.953l-1.917.545c.365 1.285.717 2.568 1.057 3.85l1.926-.511c.173.655.343 1.309.51 1.963l-1.931.492c.332 1.302.651 2.602.956 3.899l1.94-.457c.155.657.306 1.314.454 1.97l-1.944.438c.295 1.308.576 2.614.844 3.917l1.952-.401c.136.665.269 1.329.399 1.993l-1.956.382c.256 1.309.498 2.616.726 3.92l1.963-.343c.117.671.231 1.341.341 2.011l-1.966.323c.217 1.323.42 2.644.609 3.96l1.972-.282c.096.667.188 1.334.276 2l-1.975.262c.177 1.333.339 2.662.485 3.986l1.981-.219c.074.674.145 1.347.212 2.019l-1.982.198c.133 1.331.25 2.657.353 3.979l1.986-.154c.053.68.101 1.358.146 2.036l-1.988.131c.088 1.334.16 2.664.217 3.988l1.99-.085c.029.678.054 1.355.075 2.031l-1.992.062c.042 1.343.067 2.68.075 4.011l1.993-.013c.004.677.004 1.351 0 2.025l-1.992-.012a156.773 156.773 0 0 1-.075 4.012l1.992.062c-.021.68-.047 1.357-.077 2.033l-1.991-.088a148.948 148.948 0 0 1-.23 3.99l1.988.141c-.049.681-.101 1.36-.159 2.038l-1.985-.169a145.414 145.414 0 0 1-.392 3.971l1.979.224c-.076.679-.158 1.356-.244 2.03l-1.976-.252c-.17 1.331-.358 2.653-.564 3.966l1.968.309c-.105.669-.215 1.336-.33 2l-1.963-.339a128.65 128.65 0 0 1-.745 3.949l1.952.399c-.136.666-.277 1.329-.423 1.99l-1.946-.43c-.289 1.31-.599 2.609-.928 3.898l1.931.493c-.169.661-.342 1.319-.521 1.975l-1.922-.525a118.87 118.87 0 0 1-1.118 3.839l1.904.589c-.202.654-.41 1.304-.623 1.952l-1.893-.622a113.962 113.962 0 0 1-1.312 3.77l1.869.688c-.237.644-.479 1.284-.727 1.921l-1.857-.722c-.484 1.246-.99 2.48-1.518 3.7l1.829.79c-.271.627-.547 1.251-.829 1.871l-1.814-.825a104.253 104.253 0 0 1-1.727 3.614l1.781.894c-.306.609-.618 1.215-.934 1.817l-1.763-.929a101.034 101.034 0 0 1-1.938 3.509l1.725.998c-.342.591-.69 1.178-1.043 1.761l-1.705-1.032a96.877 96.877 0 0 1-2.143 3.381l1.66 1.101c-.378.57-.761 1.135-1.151 1.697l-1.637-1.136a94.682 94.682 0 0 1-2.349 3.24l1.588 1.203a93.478 93.478 0 0 1-1.255 1.622l-1.563-1.237a92.505 92.505 0 0 1-2.55 3.086l1.509 1.301c-.446.517-.898 1.03-1.356 1.538l-1.48-1.334a94.368 94.368 0 0 1-2.746 2.92l1.421 1.396c-.477.486-.96.967-1.448 1.444l-1.392-1.426a93.696 93.696 0 0 1-2.926 2.735l1.329 1.485a101.602 101.602 0 0 1-1.55 1.358l-1.297-1.513a93.034 93.034 0 0 1-3.097 2.543l1.231 1.566c-.536.422-1.077.838-1.621 1.247l-1.198-1.593a94.399 94.399 0 0 1-3.254 2.339l1.128 1.643c-.564.387-1.132.767-1.703 1.142l-1.092-1.666a94.679 94.679 0 0 1-3.393 2.122l1.02 1.712c-.587.35-1.178.694-1.772 1.032l-.985-1.733a95.371 95.371 0 0 1-3.519 1.903l.91 1.772c-.607.313-1.218.619-1.833.919l-.874-1.791a96.447 96.447 0 0 1-3.633 1.681l.8 1.825c-.625.274-1.252.542-1.883.803l-.763-1.841c-1.232.511-2.477.998-3.733 1.461l.689 1.869c-.638.235-1.279.464-1.923.687l-.652-1.882c-1.259.436-2.529.848-3.81 1.238l.579 1.906c-.651.198-1.306.39-1.963.577l-.543-1.917c-1.279.362-2.569.702-3.868 1.019l.472 1.936c-.664.162-1.33.318-1.999.468l-.437-1.944c-1.294.291-2.597.56-3.91.807l.368 1.958c-.67.126-1.342.246-2.016.361l-.334-1.964c-1.309.222-2.627.423-3.953.603l.268 1.975c-.674.091-1.349.177-2.026.257l-.235-1.979c-1.321.157-2.65.293-3.986.408l.171 1.985c-.675.059-1.351.111-2.029.159l-.14-1.988c-1.33.094-2.667.167-4.012.22l.079 1.991c-.674.027-1.349.048-2.026.065l-.049-1.992c-1.329.032-2.664.045-4.005.039l-.009 1.992c-.681-.003-1.362-.012-2.045-.025l.038-1.992c-1.324-.025-2.653-.07-3.988-.132l-.094 1.99c-.679-.032-1.359-.069-2.041-.11l.121-1.989a151.387 151.387 0 0 1-3.985-.296l-.174 1.985c-.674-.059-1.349-.122-2.026-.191l.2-1.982a153.938 153.938 0 0 1-3.987-.453l-.25 1.977c-.668-.085-1.337-.173-2.007-.266l.274-1.974a164.693 164.693 0 0 1-3.966-.601l-.323 1.966c-.667-.109-1.335-.223-2.004-.34l.346-1.963c-1.306-.23-2.614-.476-3.925-.738l-.391 1.954c-.666-.133-1.332-.271-1.999-.412l.413-1.949a176.513 176.513 0 0 1-3.898-.873l-.457 1.94c-.657-.155-1.315-.313-1.973-.476l.477-1.934c-1.294-.32-2.59-.655-3.888-1.005l-.519 1.924c-.649-.175-1.297-.354-1.947-.536l.539-1.919a186.91 186.91 0 0 1-3.846-1.124l-.578 1.907a207.38 207.38 0 0 1-1.949-.602l.598-1.901a203.681 203.681 0 0 1-3.791-1.233l-.635 1.888c-.641-.216-1.282-.435-1.924-.657l.654-1.883a205.578 205.578 0 0 1-3.772-1.35l-.69 1.869c-.63-.233-1.261-.469-1.893-.709l.708-1.862c-1.246-.473-2.493-.96-3.74-1.46l-.741 1.849a211.38 211.38 0 0 1-1.879-.763l.759-1.842a221.891 221.891 0 0 1-3.678-1.554l-.792 1.829a270.44 270.44 0 0 1-1.862-.816l.808-1.821c-1.215-.539-2.43-1.09-3.644-1.654l-.84 1.807c-.61-.284-1.219-.57-1.829-.86l.855-1.799a239.26 239.26 0 0 1-3.612-1.754l-.886 1.785c-.603-.299-1.206-.601-1.809-.907l.9-1.777c-1.184-.6-2.366-1.211-3.548-1.834l-.929 1.762c-.598-.315-1.195-.633-1.793-.954l.944-1.755a252.838 252.838 0 0 1-3.51-1.925l-.972 1.739c-.587-.327-1.173-.658-1.759-.992l.986-1.731a255.1 255.1 0 0 1-3.471-2.013l-1.013 1.716-.77-.456-.973-.583 1.026-1.707a261.02 261.02 0 0 1-3.404-2.082l-1.052 1.691c-.573-.356-1.146-.716-1.718-1.078l1.066-1.683a270.371 270.371 0 0 1-3.372-2.17l-1.091 1.667c-.562-.367-1.123-.738-1.683-1.11l1.103-1.659a284.466 284.466 0 0 1-3.319-2.244l-1.128 1.643a357.68 357.68 0 0 1-1.673-1.158l1.14-1.634a276.125 276.125 0 0 1-3.254-2.307l-1.164 1.617a261.19 261.19 0 0 1-1.638-1.187l1.175-1.609a291.965 291.965 0 0 1-3.228-2.395l-1.198 1.592a260.26 260.26 0 0 1-1.604-1.217l1.21-1.583a273.461 273.461 0 0 1-3.159-2.45l-1.232 1.566c-.531-.418-1.061-.838-1.591-1.26l1.244-1.557c-1.04-.831-2.077-1.67-3.11-2.519l-1.265 1.539c-.519-.426-1.038-.855-1.555-1.286l1.275-1.531a281.554 281.554 0 0 1-3.062-2.588l-1.297 1.513c-.513-.44-1.026-.882-1.538-1.327l1.307-1.504a292.5 292.5 0 0 1-2.993-2.637l-1.327 1.486a269.67 269.67 0 0 1-1.504-1.352l1.337-1.477a300.066 300.066 0 0 1-2.96-2.717l-1.358 1.459c-.49-.457-.98-.915-1.469-1.376l1.367-1.45a298.979 298.979 0 0 1-2.89-2.762l-1.386 1.431c-.485-.469-.969-.941-1.452-1.415l1.396-1.422a302.16 302.16 0 0 1-2.84-2.824l-1.414 1.404c-.473-.477-.945-.956-1.416-1.436l1.424-1.394a304.252 304.252 0 0 1-2.785-2.881l-1.442 1.375c-.466-.489-.932-.981-1.397-1.474l1.451-1.366c-.91-.966-1.816-1.941-2.717-2.924l-1.469 1.347a396.58 396.58 0 0 1-1.361-1.494l1.477-1.337a310.517 310.517 0 0 1-2.674-2.993l-1.494 1.318-.671-.763Z" stroke="#36A1AC" stroke-width="3.985" stroke-dasharray="2 3.98"/>
  <path d="M132.991 312.077c37.137 42.38 82.083 70.765 124.692 82.43 42.617 11.668 82.774 6.589 110.544-17.747 27.771-24.335 38.078-63.477 32.106-107.257-5.97-43.772-28.209-92.056-65.346-134.435-37.137-42.38-82.083-70.764-124.692-82.43-42.617-11.667-82.774-6.588-110.544 17.747-27.77 24.335-38.078 63.477-32.106 107.258 5.97 43.771 28.209 92.055 65.346 134.434Z" stroke="url(#a)" stroke-width="1.913"/>
  <g filter="url(#b)">
    <path d="M134.442 310.105c37.137 42.38 82.083 70.765 124.692 82.43 42.617 11.667 82.774 6.588 110.544-17.747 27.771-24.335 38.078-63.477 32.106-107.258-5.97-43.771-28.209-92.055-65.346-134.434-37.137-42.38-82.083-70.764-124.692-82.43C169.129 39 128.972 44.078 101.202 68.413 73.432 92.748 63.124 131.89 69.096 175.67c5.97 43.771 28.209 92.055 65.346 134.434Z" stroke="url(#c)" stroke-width="1.913"/>
  </g>
  <path d="M111.922 330.099c32.574 37.171 71.998 62.069 109.374 72.302 37.384 10.235 72.617 5.782 96.985-15.572 24.368-21.354 33.409-55.698 28.171-94.101-5.238-38.396-24.745-80.748-57.318-117.92-32.573-37.171-71.998-62.07-109.374-72.302-37.384-10.235-72.617-5.782-96.985 15.572-24.368 21.354-33.408 55.697-28.17 94.101 5.237 38.396 24.744 80.748 57.317 117.92Z" stroke="url(#d)" stroke-width="1.594"/>
  <g opacity=".5" filter="url(#e)">
    <path d="M160.625 289.079c26.947 30.751 59.387 51.132 89.776 59.452 30.45 8.336 57.981 4.419 76.616-11.911 18.636-16.33 26.133-43.108 21.866-74.389-4.258-31.219-20.204-66.054-47.151-96.805-26.947-30.751-59.387-51.132-89.776-59.452-30.45-8.337-57.981-4.42-76.617 11.911-18.635 16.33-26.132 43.108-21.866 74.389 4.259 31.219 20.204 66.053 47.152 96.805Z" stroke="url(#f)" stroke-width="13.549"/>
  </g>
  <path d="M174.175 62.876c-30.098-.484-54.88 10.832-70.572 32.134-15.702 21.314-21.485 51.517-16.358 85.978" stroke="#14CABF" stroke-width="1.195" stroke-linecap="round" stroke-linejoin="round" stroke-dasharray="0.8 8.77"/>
  <g filter="url(#g)">
    <path d="M103.467 113.191c-11.466 24.151-12.922 56.153-3.689 91.198 9.227 35.018 28.553 70.855 55.037 101.888" stroke="#186575" stroke-width="6.376" stroke-linejoin="round" stroke-dasharray="0.8 3.19"/>
  </g>
  <g filter="url(#h)">
    <path d="M379.152 344.633c11.573-24.377 13.008-56.591 3.741-91.763-9.262-35.151-28.651-71.095-55.204-102.208" stroke="#36A1AC" stroke-width="4.782" stroke-linejoin="round" stroke-dasharray="0.8 3.19"/>
  </g>
  <path d="M257.919 378.902c19.441 5.807 38.065 7.502 54.814 5.007 16.746-2.494 31.29-9.126 42.819-19.504 11.528-10.378 19.837-24.317 24.439-41.04 4.603-16.726 5.408-35.911 2.35-56.466" stroke="#14CABF" stroke-width="1.195" stroke-linecap="round" stroke-linejoin="round" stroke-dasharray="0.8 8.77"/>
  <g opacity=".1" fill-rule="evenodd" clip-rule="evenodd">
    <path d="M165.117 143.308c30.167-32.265 93.276-25.961 140.959 14.081l-16.155 17.278c46.367 39.998 59.897 97.637 30.079 129.529-30.166 32.265-93.275 25.96-140.958-14.081l16.154-17.279c-46.367-39.997-59.896-97.636-30.079-129.528Zm34.675 127.758 16.346-17.483c-30.788-25.967-39.927-63.882-20.398-84.769 19.18-20.515 58.893-16.99 89.585 7.623L268.98 193.92c30.788 25.967 39.927 63.882 20.398 84.77-19.18 20.515-58.893 16.989-89.586-7.624Z" fill="#00A292"/>
    <path d="M165.117 143.308c30.167-32.265 93.276-25.961 140.959 14.081l-16.155 17.278c46.367 39.998 59.897 97.637 30.079 129.529-30.166 32.265-93.275 25.96-140.958-14.081l16.154-17.279c-46.367-39.997-59.896-97.636-30.079-129.528Zm34.675 127.758 16.346-17.483c-30.788-25.967-39.927-63.882-20.398-84.769 19.18-20.515 58.893-16.99 89.585 7.623L268.98 193.92c30.788 25.967 39.927 63.882 20.398 84.77-19.18 20.515-58.893 16.989-89.586-7.624Z" fill="url(#i)" fill-opacity=".2"/>
  </g>
  <path d="M327.232 139.887c.111-.112.073-.303-.084-.436-46.994-39.414-110.76-45.243-142.572-12.978-31.802 32.255-19.654 90.394 27.1 130.016.173.147.426.166.549.042l19.974-20.259c.111-.112.075-.302-.081-.435-30.126-25.694-37.909-63.259-17.337-84.124 20.562-20.855 61.708-17.171 92.158 8.156.174.146.428.166.551.042l19.742-20.024Z" fill="#14CABF"/>
  <path d="M195.416 272.806c-.111.112-.073.304.084.436 46.994 39.414 110.76 45.243 142.572 12.979 31.802-32.255 19.654-90.394-27.1-130.016-.173-.147-.427-.167-.549-.042l-19.974 20.257c-.111.113-.074.303.081.436 30.127 25.693 37.91 63.259 17.338 84.124-20.563 20.855-61.709 17.172-92.159-8.157-.174-.145-.428-.165-.55-.041l-19.743 20.024Z" fill="#14CABF"/>
  <defs>
    <filter id="b" x="57.737" y="34.949" width="355.405" height="373.303" filterUnits="userSpaceOnUse" color-interpolation-filters="sRGB">
      <feFlood flood-opacity="0" result="BackgroundImageFix"/>
      <feBlend in="SourceGraphic" in2="BackgroundImageFix" result="shape"/>
      <feGaussianBlur stdDeviation="4.383" result="effect1_foregroundBlur_1472_9537"/>
    </filter>
    <filter id="e" x="102.351" y="91.769" width="257.655" height="270.967" filterUnits="userSpaceOnUse" color-interpolation-filters="sRGB">
      <feFlood flood-opacity="0" result="BackgroundImageFix"/>
      <feBlend in="SourceGraphic" in2="BackgroundImageFix" result="shape"/>
      <feGaussianBlur stdDeviation="1.594" result="effect1_foregroundBlur_1472_9537"/>
    </filter>
    <filter id="g" x="85.855" y="108.783" width="75.293" height="203.353" filterUnits="userSpaceOnUse" color-interpolation-filters="sRGB">
      <feFlood flood-opacity="0" result="BackgroundImageFix"/>
      <feBlend in="SourceGraphic" in2="BackgroundImageFix" result="shape"/>
      <feGaussianBlur stdDeviation=".797" result="effect1_foregroundBlur_1472_9537"/>
    </filter>
    <filter id="h" x="322.541" y="145.869" width="72.729" height="202.468" filterUnits="userSpaceOnUse" color-interpolation-filters="sRGB">
      <feFlood flood-opacity="0" result="BackgroundImageFix"/>
      <feBlend in="SourceGraphic" in2="BackgroundImageFix" result="shape"/>
      <feGaussianBlur stdDeviation=".797" result="effect1_foregroundBlur_1472_9537"/>
    </filter>
    <linearGradient id="a" x1="70.465" y1="304.613" x2="354.268" y2="159.844" gradientUnits="userSpaceOnUse">
      <stop stop-color="#10FFD4"/>
      <stop offset="1" stop-color="#fff" stop-opacity=".3"/>
    </linearGradient>
    <linearGradient id="c" x1="206.48" y1="58.708" x2="216.294" y2="366.319" gradientUnits="userSpaceOnUse">
      <stop stop-color="#10FFD4"/>
      <stop offset="1" stop-color="#fff" stop-opacity=".3"/>
    </linearGradient>
    <linearGradient id="d" x1="-77.787" y1="485.135" x2="207.366" y2="220.605" gradientUnits="userSpaceOnUse">
      <stop stop-color="#DDE0F4"/>
      <stop offset="1" stop-color="#fff" stop-opacity="0"/>
    </linearGradient>
    <radialGradient id="f" cx="0" cy="0" r="1" gradientUnits="userSpaceOnUse" gradientTransform="rotate(-58.383 354.586 4.888) scale(203.785 176.538)">
      <stop stop-color="#00E0CA"/>
      <stop offset="1" stop-color="#FDFEFE" stop-opacity=".36"/>
    </radialGradient>
    <radialGradient id="i" cx="0" cy="0" r="1" gradientUnits="userSpaceOnUse" gradientTransform="matrix(442.80474 199.14927 -123.46896 274.53097 240.404 241.185)">
      <stop stop-color="#10FFD4"/>
      <stop offset="1" stop-color="#FFF6E6" stop-opacity=".943"/>
    </radialGradient>
  </defs>
</svg>
