<svg viewBox="0 0 461 461" fill="none" xmlns="http://www.w3.org/2000/svg">
  <path opacity=".5" fill-rule="evenodd" clip-rule="evenodd" d="M123.819 319.956a453.06 453.06 0 0 1-1.332-1.52l-3.005 2.617c.223.257.448.514.673.77l.372.424.303.345 2.989-2.636Zm-3.947-4.564-3.04 2.578a468.94 468.94 0 0 1-1.31-1.555l3.056-2.558c.429.513.86 1.024 1.294 1.535Zm-3.836-4.613-3.089 2.518c-.431-.529-.86-1.059-1.286-1.589l3.105-2.497c.421.523.844 1.046 1.27 1.568Zm-3.76-4.707-3.138 2.457c-.417-.534-.833-1.068-1.246-1.603l3.154-2.436c.408.528.818 1.056 1.23 1.582Zm-3.656-4.767-3.186 2.394c-.409-.545-.816-1.09-1.221-1.636l3.202-2.372c.399.538.801 1.076 1.205 1.614Zm-3.564-4.843-3.233 2.33a356.88 356.88 0 0 1-1.179-1.648l3.249-2.308c.386.543.773 1.085 1.163 1.626Zm-3.468-4.917-3.28 2.264c-.385-.56-.769-1.12-1.15-1.681l3.295-2.241c.376.553.755 1.106 1.135 1.658Zm-3.356-4.971-3.325 2.196a313.93 313.93 0 0 1-1.122-1.71l3.34-2.173c.367.563.736 1.125 1.107 1.687Zm-3.27-5.063-3.37 2.127a324.78 324.78 0 0 1-1.078-1.722l3.384-2.104c.353.567.707 1.133 1.064 1.699Zm-3.152-5.113-3.414 2.056c-.352-.584-.701-1.168-1.048-1.754l3.428-2.031c.342.577.687 1.153 1.034 1.729Zm-3.048-5.183-3.457 1.983c-.336-.587-.67-1.174-1.002-1.761l3.47-1.959c.328.579.657 1.158.989 1.737Zm-2.939-5.252-3.498 1.909c-.326-.598-.649-1.195-.97-1.793l3.513-1.883c.316.59.634 1.179.955 1.767Zm-2.814-5.296-3.54 1.831c-.314-.607-.626-1.215-.935-1.823l3.553-1.805c.305.599.612 1.198.922 1.797Zm-2.71-5.382-3.58 1.752c-.297-.609-.593-1.218-.886-1.828l3.593-1.725c.288.6.579 1.201.873 1.801Zm-2.582-5.429-3.618 1.671c-.286-.619-.569-1.239-.85-1.858l3.631-1.643c.276.61.555 1.22.837 1.83Zm-2.454-5.478-3.655 1.587c-.272-.626-.541-1.252-.807-1.878l3.668-1.558c.262.616.526 1.233.794 1.849Zm-2.334-5.554-3.692 1.5c-.256-.63-.508-1.26-.758-1.889l3.703-1.471c.246.62.495 1.24.747 1.86Zm-2.194-5.593-3.727 1.411a244.59 244.59 0 0 1-.717-1.918l3.739-1.38c.232.629.467 1.258.705 1.887Zm-2.058-5.644-3.76 1.318c-.225-.643-.448-1.286-.667-1.929l3.771-1.287c.216.633.435 1.265.656 1.898Zm-1.92-5.709-3.793 1.223c-.208-.648-.414-1.296-.616-1.943l3.803-1.19c.199.637.401 1.273.606 1.91Zm-1.768-5.74-3.823 1.123a243.24 243.24 0 0 1-.57-1.97l3.834-1.089c.183.645.37 1.29.56 1.936Zm-1.616-5.786-3.852 1.02c-.175-.66-.346-1.32-.514-1.98l3.86-.985c.166.648.335 1.296.506 1.945Zm-1.461-5.843-3.88.913a216.71 216.71 0 0 1-.457-1.988l3.887-.876c.147.649.296 1.3.45 1.951Zm-1.294-5.868-3.903.802a183.52 183.52 0 0 1-.403-2.012l3.91-.764c.13.657.26 1.315.396 1.974Zm-1.12-5.894-3.926.686a204.99 204.99 0 0 1-.345-2.031l3.933-.646c.109.663.221 1.327.337 1.991Zm-.948-5.951-3.944.565c-.097-.675-.19-1.348-.28-2.021l3.951-.524c.088.659.179 1.319.273 1.98Zm-.758-5.967-3.96.44a191.19 191.19 0 0 1-.216-2.041l3.965-.396c.067.665.137 1.331.21 1.997Zm-.563-5.976-3.974.308c-.053-.688-.102-1.374-.147-2.059l3.976-.262c.044.67.092 1.341.145 2.013Zm-.361-6.001-3.982.17c-.03-.686-.054-1.371-.075-2.055l3.983-.123c.02.668.045 1.337.074 2.008Zm-.15-6.019-3.984.025c-.005-.684-.005-1.367 0-2.049l3.984.024a162.62 162.62 0 0 0 0 2Zm.075-6.012-3.983-.125c.021-.688.047-1.374.078-2.059l3.98.177c-.029.667-.054 1.336-.075 2.007Zm.306-5.997-3.975-.282c.049-.691.102-1.379.16-2.065l3.971.336c-.056.669-.108 1.339-.156 2.011Zm.549-5.982-3.96-.447c.078-.688.16-1.374.247-2.059l3.953.504c-.085.666-.165 1.333-.24 2.002Zm.804-5.967-3.936-.619c.107-.679.218-1.355.335-2.03l3.927.679a133.02 133.02 0 0 0-.326 1.97Zm1.07-5.919-3.904-.799c.138-.676.282-1.349.43-2.021l3.891.861a128.2 128.2 0 0 0-.417 1.959Zm1.345-5.857-3.862-.986c.172-.671.348-1.34.53-2.006l3.845 1.049a120.19 120.19 0 0 0-.513 1.943Zm1.63-5.782-3.807-1.178c.206-.665.417-1.326.633-1.985l3.786 1.244c-.21.637-.413 1.276-.612 1.919Zm1.925-5.689-3.74-1.377c.241-.655.488-1.306.74-1.954l3.714 1.444c-.244.626-.482 1.255-.714 1.887Zm2.232-5.587-3.658-1.581c.276-.638.557-1.273.844-1.905l3.628 1.65c-.277.608-.548 1.22-.814 1.836Zm2.541-5.451-3.561-1.787c.311-.621.629-1.238.952-1.851l3.526 1.857c-.311.59-.617 1.184-.917 1.781Zm2.854-5.29-3.45-1.996c.35-.602.704-1.201 1.064-1.796l3.409 2.065a99.017 99.017 0 0 0-1.023 1.727Zm3.167-5.108-3.321-2.203c.385-.58.777-1.158 1.174-1.73l3.274 2.27a98.96 98.96 0 0 0-1.127 1.663Zm3.476-4.902-3.176-2.406c.42-.556.848-1.108 1.281-1.655l3.125 2.472a95.155 95.155 0 0 0-1.23 1.589Zm3.78-4.674-3.017-2.603c.455-.528.917-1.051 1.384-1.57l2.96 2.668c-.448.497-.89.999-1.327 1.505Zm4.074-4.425L83.702 77.4c.487-.496.98-.987 1.48-1.474l2.782 2.852c-.478.467-.951.938-1.418 1.414Zm4.345-4.15-2.659-2.968a95.564 95.564 0 0 1 1.583-1.387l2.594 3.025a94.634 94.634 0 0 0-1.518 1.33Zm4.614-3.872-2.462-3.133c.548-.43 1.1-.855 1.655-1.273l2.395 3.186c-.533.4-1.063.807-1.588 1.22Zm4.843-3.56-2.256-3.284a98.01 98.01 0 0 1 1.737-1.166l2.185 3.332c-.559.367-1.115.74-1.666 1.119Zm5.06-3.24-2.042-3.423a99.06 99.06 0 0 1 1.81-1.053l1.968 3.465a91.12 91.12 0 0 0-1.736 1.01Zm5.256-2.914-1.822-3.545c.62-.318 1.243-.63 1.87-.936l1.748 3.58a95.78 95.78 0 0 0-1.796.9Zm5.429-2.581-1.6-3.65c.637-.28 1.277-.552 1.921-.819l1.525 3.681c-.618.257-1.234.52-1.846.788Zm5.579-2.248-1.378-3.739c.651-.24 1.304-.473 1.96-.7l1.305 3.765c-.632.219-1.261.444-1.887.674Zm5.696-1.912-1.159-3.813a112.07 112.07 0 0 1 2-.587l1.086 3.834c-.645.183-1.287.372-1.927.566Zm5.795-1.585-.944-3.872c.675-.164 1.354-.323 2.034-.476l.874 3.888c-.657.147-1.312.3-1.964.46Zm5.874-1.267-.736-3.916c.681-.128 1.365-.25 2.05-.367l.669 3.928a117.3 117.3 0 0 0-1.983.355Zm5.935-.958-.535-3.95c.684-.092 1.37-.18 2.058-.26l.47 3.956c-.666.08-1.331.164-1.993.254Zm5.979-.662-.341-3.97c.684-.059 1.371-.112 2.059-.16l.28 3.974c-.668.047-1.334.1-1.998.157Zm6.01-.375-.157-3.982a137.07 137.07 0 0 1 2.056-.066l.097 3.984c-.667.016-1.332.038-1.996.064Zm6.001-.103.019-3.985c.69.004 1.381.012 2.074.025l-.077 3.985a150.98 150.98 0 0 0-2.016-.025Zm6.004.157.188-3.98c.688.032 1.377.07 2.068.111l-.242 3.978a147 147 0 0 0-2.014-.109Zm6 .405.347-3.97c.683.06 1.367.124 2.051.193l-.399 3.965a153.17 153.17 0 0 0-1.999-.188Zm5.986.64.5-3.953c.676.086 1.353.175 2.031.27l-.548 3.947c-.662-.092-1.323-.18-1.983-.263Zm5.95.865.644-3.933c.675.11 1.351.226 2.028.345l-.691 3.924c-.662-.116-1.322-.228-1.981-.336Zm5.905 1.075.782-3.908c.673.135 1.347.274 2.022.417l-.827 3.898c-.66-.14-1.318-.275-1.977-.407Zm5.876 1.28.913-3.88c.664.157 1.329.317 1.994.481l-.955 3.87c-.652-.162-1.302-.319-1.952-.472Zm5.84 1.475 1.038-3.848c.655.177 1.311.358 1.967.542l-1.078 3.836a193.86 193.86 0 0 0-1.927-.53Zm5.773 1.654 1.157-3.813c.656.2 1.312.402 1.968.608l-1.195 3.802a200.75 200.75 0 0 0-1.93-.597Zm5.72 1.83 1.271-3.777c.647.218 1.294.44 1.942.664l-1.308 3.765c-.635-.221-1.27-.438-1.905-.652Zm5.677 2.002 1.379-3.738c.637.235 1.274.473 1.911.715l-1.414 3.725a222.21 222.21 0 0 0-1.876-.702Zm5.615 2.162 1.483-3.699c.632.254 1.264.51 1.895.77l-1.517 3.685a241.95 241.95 0 0 0-1.861-.756Zm5.539 2.31 1.583-3.658c.626.271 1.252.546 1.878.823l-1.615 3.643c-.615-.273-1.23-.542-1.846-.809Zm5.49 2.462 1.679-3.614c.615.286 1.23.575 1.845.867l-1.709 3.6a238.78 238.78 0 0 0-1.815-.853Zm5.427 2.606 1.77-3.57c.609.301 1.217.606 1.825.914l-1.801 3.555c-.598-.303-1.196-.602-1.794-.9Zm5.342 2.733 1.859-3.525c.602.318 1.205.639 1.807.962l-1.888 3.51c-.592-.319-1.185-.635-1.778-.947Zm5.288 2.872 1.944-3.479c.592.33 1.183.664 1.773 1l-1.971 3.463c-.582-.33-1.163-.659-1.746-.984Zm5.216 2.997 2.027-3.431c.585.345 1.171.694 1.756 1.046l-2.053 3.415c-.576-.346-1.153-.69-1.73-1.03Zm5.134 3.112 2.105-3.383c.578.36 1.154.721 1.731 1.086l-2.132 3.367c-.567-.36-1.135-.716-1.704-1.07Zm5.076 3.24 2.182-3.335c.566.37 1.131.744 1.696 1.12l-2.207 3.317c-.557-.37-1.113-.737-1.671-1.102Zm4.99 3.346 2.256-3.285c.562.386 1.124.775 1.685 1.166l-2.28 3.268c-.553-.386-1.107-.769-1.661-1.15Zm4.916 3.456 2.327-3.235c.551.396 1.1.795 1.65 1.196l-2.351 3.218c-.542-.396-1.084-.789-1.626-1.18Zm4.854 3.574 2.397-3.184a298.5 298.5 0 0 1 1.615 1.225l-2.42 3.166a350.89 350.89 0 0 0-1.592-1.207Zm4.752 3.658 2.464-3.132c.534.42 1.068.844 1.601 1.27l-2.486 3.113c-.526-.419-1.052-.837-1.579-1.251Zm4.689 3.77 2.529-3.079c.523.429 1.045.861 1.566 1.295l-2.551 3.062c-.514-.428-1.029-.854-1.544-1.278Zm4.606 3.866 2.593-3.026c.517.443 1.034.888 1.549 1.336l-2.614 3.008c-.508-.442-1.018-.881-1.528-1.318Zm4.521 3.954 2.654-2.972c.506.452 1.011.906 1.515 1.362l-2.675 2.954c-.497-.45-.995-.898-1.494-1.344Zm4.455 4.061 2.714-2.918c.494.46.987.921 1.479 1.385l-2.734 2.9c-.486-.458-.972-.914-1.459-1.367Zm4.349 4.129 2.773-2.863c.488.473.975.948 1.461 1.425l-2.791 2.844c-.48-.471-.961-.94-1.443-1.406Zm4.282 4.229 2.829-2.806c.476.479.951.961 1.425 1.445l-2.847 2.788c-.468-.477-.937-.953-1.407-1.427Zm4.191 4.308 2.883-2.751c.47.493.939.987 1.406 1.484l-2.901 2.732c-.462-.491-.924-.979-1.388-1.465Zm4.106 4.389 2.936-2.694c.458.499.914 1 1.37 1.503l-2.954 2.675c-.45-.497-.901-.991-1.352-1.484Zm4.026 4.476.667.759.664.761 3.006-2.617a247.06 247.06 0 0 0-1.348-1.539l-2.989 2.636Zm3.947 4.564 3.039-2.578c.439.518.876 1.036 1.31 1.555l-3.056 2.558c-.429-.513-.86-1.024-1.293-1.535Zm3.836 4.613 3.089-2.518c.431.529.859 1.059 1.286 1.589l-3.106 2.497a362.81 362.81 0 0 0-1.269-1.568Zm3.76 4.707 3.138-2.457c.417.534.832 1.068 1.245 1.603l-3.154 2.435c-.407-.528-.817-1.055-1.229-1.581Zm3.656 4.767 3.186-2.394c.409.545.816 1.09 1.22 1.636l-3.202 2.372c-.399-.538-.8-1.077-1.204-1.614Zm3.563 4.843 3.233-2.33c.396.549.789 1.098 1.179 1.648l-3.249 2.308c-.385-.543-.773-1.085-1.163-1.626Zm3.468 4.917 3.28-2.264c.386.56.77 1.12 1.151 1.68l-3.295 2.242c-.376-.554-.755-1.106-1.136-1.658Zm3.357 4.971 3.325-2.196c.376.569.75 1.139 1.121 1.71l-3.34 2.173c-.366-.563-.735-1.125-1.106-1.687Zm3.269 5.063 3.37-2.127c.362.574.722 1.148 1.079 1.722l-3.385 2.104c-.352-.567-.707-1.133-1.064-1.699Zm3.153 5.113 3.414-2.056c.352.584.701 1.168 1.048 1.753l-3.428 2.032c-.342-.577-.687-1.153-1.034-1.729Zm3.048 5.183 3.456-1.983c.337.587.671 1.174 1.003 1.761l-3.471 1.959c-.327-.58-.656-1.158-.988-1.737Zm2.938 5.252 3.499-1.909c.325.598.649 1.195.969 1.793l-3.512 1.883a251.51 251.51 0 0 0-.956-1.767Zm2.815 5.296 3.539-1.831c.315.607.626 1.215.935 1.823l-3.552 1.805a305.66 305.66 0 0 0-.922-1.797Zm2.71 5.382 3.579-1.752c.298.609.594 1.218.886 1.828l-3.592 1.725c-.288-.6-.579-1.201-.873-1.801Zm2.582 5.429 3.618-1.671c.286.619.569 1.238.849 1.858l-3.631 1.643c-.276-.61-.555-1.22-.836-1.83Zm2.454 5.478 3.655-1.587c.272.626.541 1.252.807 1.878l-3.668 1.558c-.262-.616-.527-1.233-.794-1.849Zm2.334 5.554 3.691-1.5c.256.63.509 1.26.759 1.889l-3.704 1.471c-.246-.62-.495-1.24-.746-1.86Zm2.194 5.593 3.727-1.411c.242.639.481 1.279.717 1.918l-3.739 1.38c-.232-.629-.467-1.258-.705-1.887Zm2.057 5.644 3.761-1.318c.225.643.448 1.286.667 1.929l-3.772 1.286c-.215-.632-.434-1.264-.656-1.897Zm1.92 5.708 3.793-1.222c.209.648.415 1.296.617 1.943l-3.803 1.19a210.42 210.42 0 0 0-.607-1.911Zm1.768 5.741 3.824-1.123c.193.657.382 1.313.569 1.97l-3.833 1.089c-.184-.645-.37-1.291-.56-1.936Zm1.616 5.786 3.852-1.021c.175.661.347 1.321.515 1.981l-3.861.985a198.74 198.74 0 0 0-.506-1.945Zm1.462 5.843 3.879-.913c.156.663.309 1.326.458 1.988l-3.887.876c-.147-.65-.297-1.3-.45-1.951Zm1.293 5.868 3.904-.802c.138.671.272 1.342.403 2.012l-3.911.764c-.128-.657-.26-1.315-.396-1.974Zm1.121 5.894 3.926-.687c.118.678.233 1.355.344 2.032l-3.932.646c-.109-.663-.222-1.327-.338-1.991Zm.947 5.951 3.945-.565c.097.675.19 1.348.279 2.021l-3.951.524a174.03 174.03 0 0 0-.273-1.98Zm.759 5.967 3.961-.44c.075.682.147 1.362.215 2.041l-3.966.396c-.066-.665-.136-1.331-.21-1.997Zm.563 5.976 3.973-.308c.053.688.103 1.374.148 2.059l-3.977.262c-.044-.67-.092-1.341-.144-2.013Zm.361 6.001 3.981-.17c.03.686.055 1.371.076 2.055l-3.983.123c-.021-.668-.045-1.338-.074-2.008Zm.149 6.019 3.985-.025c.004.684.004 1.367 0 2.049l-3.985-.024c.004-.665.004-1.332 0-2Zm-.074 6.012 3.983.125c-.022.688-.048 1.374-.078 2.059l-3.981-.177c.03-.667.055-1.336.076-2.007Zm-.306 5.997 3.975.282c-.049.691-.103 1.379-.161 2.065L395.12 309c.057-.669.109-1.339.157-2.011Zm-.549 5.982 3.96.447c-.078.688-.16 1.374-.248 2.059l-3.953-.504c.085-.666.165-1.333.241-2.002Zm-.805 5.967 3.937.619c-.107.679-.219 1.355-.335 2.03l-3.927-.679c.113-.654.222-1.311.325-1.97Zm-1.069 5.919 3.904.799c-.139.676-.282 1.349-.43 2.021l-3.891-.861c.143-.65.283-1.304.417-1.959Zm-1.345 5.857 3.861.986c-.171.671-.348 1.34-.53 2.006l-3.844-1.049c.176-.645.347-1.292.513-1.943Zm-1.63 5.782 3.807 1.178c-.206.665-.417 1.326-.633 1.985l-3.786-1.244c.209-.637.413-1.276.612-1.919Zm-1.925 5.689 3.74 1.377c-.241.655-.488 1.306-.74 1.954l-3.714-1.444c.243-.626.481-1.255.714-1.887Zm-2.232 5.587 3.658 1.581c-.276.638-.558 1.273-.845 1.905l-3.627-1.65c.276-.608.548-1.22.814-1.836Zm-2.542 5.451 3.562 1.787c-.312.621-.629 1.238-.952 1.851l-3.526-1.857c.311-.59.616-1.184.916-1.781Zm-2.853 5.29 3.449 1.996c-.349.602-.703 1.201-1.064 1.796l-3.408-2.065c.346-.572.687-1.147 1.023-1.727Zm-3.167 5.108 3.321 2.203a107.27 107.27 0 0 1-1.174 1.731l-3.275-2.272c.382-.55.758-1.104 1.128-1.662Zm-3.476 4.902 3.176 2.406a97.347 97.347 0 0 1-1.281 1.655l-3.125-2.473c.415-.525.825-1.054 1.23-1.588Zm-3.78 4.674 3.017 2.603c-.456.528-.917 1.051-1.384 1.57l-2.961-2.668c.448-.497.891-.999 1.328-1.505Zm-4.074 4.425 2.844 2.792c-.488.496-.981.987-1.479 1.474l-2.783-2.852c.478-.467.951-.938 1.418-1.414Zm-4.345 4.149 2.658 2.969a105.784 105.784 0 0 1-1.582 1.387l-2.594-3.025a80.197 80.197 0 0 0 1.518-1.331Zm-4.614 3.873 2.462 3.133c-.548.431-1.1.855-1.656 1.273l-2.394-3.186a97.003 97.003 0 0 0 1.588-1.22Zm-4.843 3.559 2.256 3.285c-.576.395-1.155.784-1.738 1.166l-2.185-3.332a93.17 93.17 0 0 0 1.667-1.119Zm-5.06 3.242 2.041 3.422c-.599.358-1.202.709-1.809 1.053l-1.968-3.465a91.12 91.12 0 0 0 1.736-1.01Zm-5.256 2.913 1.822 3.545c-.62.318-1.244.63-1.871.936l-1.747-3.581a97.028 97.028 0 0 0 1.796-.9Zm-5.429 2.582 1.599 3.649c-.637.279-1.277.552-1.92.819l-1.525-3.682c.618-.256 1.233-.518 1.846-.786Zm-5.579 2.247 1.378 3.739c-.651.239-1.304.473-1.96.7l-1.305-3.765c.632-.219 1.261-.444 1.887-.674Zm-5.697 1.912 1.159 3.813c-.664.201-1.33.397-1.999.587l-1.087-3.834c.645-.183 1.288-.372 1.927-.566Zm-5.795 1.585.945 3.872c-.676.164-1.354.323-2.035.476l-.873-3.888a105.66 105.66 0 0 0 1.963-.46Zm-5.874 1.267.737 3.916c-.682.128-1.365.251-2.051.367l-.668-3.928a115.42 115.42 0 0 0 1.982-.355Zm-5.934.958.535 3.949c-.684.093-1.371.18-2.059.262l-.47-3.957c.667-.08 1.331-.164 1.994-.254Zm-5.98.661.342 3.971c-.685.059-1.371.112-2.06.161l-.279-3.975c.667-.047 1.333-.099 1.997-.157Zm-6.009.376.157 3.982c-.684.027-1.369.049-2.056.066l-.097-3.984a131.74 131.74 0 0 0 1.996-.064Zm-6.001.103-.02 3.985a143.82 143.82 0 0 1-2.073-.026l.076-3.984c.674.013 1.346.021 2.017.025Zm-6.005-.157-.187 3.98c-.688-.032-1.378-.069-2.068-.111l.242-3.978c.672.041 1.343.077 2.013.109Zm-5.999-.405-.347 3.97a161.4 161.4 0 0 1-2.052-.193l.399-3.965c.668.067 1.335.13 2 .188Zm-5.987-.641-.499 3.954c-.677-.086-1.354-.176-2.032-.27l.549-3.947c.662.092 1.323.18 1.982.263Zm-5.949-.864-.644 3.933a178.86 178.86 0 0 1-2.028-.345l.691-3.925c.661.117 1.322.229 1.981.337Zm-5.906-1.075-.782 3.908c-.673-.135-1.347-.274-2.021-.417l.827-3.898c.659.14 1.318.275 1.976.407Zm-5.875-1.279-.913 3.879c-.664-.157-1.329-.317-1.994-.481l.955-3.869c.651.161 1.302.318 1.952.471Zm-5.841-1.476L246.814 405c-.655-.177-1.31-.358-1.966-.542l1.078-3.836c.643.18 1.285.357 1.926.53Zm-5.772-1.654-1.157 3.813a221.41 221.41 0 0 1-1.969-.608l1.196-3.802c.644.203 1.287.402 1.93.597Zm-5.721-1.83-1.27 3.777c-.647-.218-1.295-.439-1.942-.664l1.307-3.765c.636.221 1.271.438 1.905.652Zm-5.676-2.002-1.38 3.738c-.636-.235-1.273-.473-1.91-.715l1.414-3.725c.625.237 1.251.471 1.876.702Zm-5.615-2.162-1.483 3.699c-.632-.254-1.264-.51-1.896-.771l1.517-3.684c.621.255 1.241.507 1.862.756Zm-5.54-2.309-1.582 3.657c-.627-.271-1.253-.546-1.879-.823l1.616-3.643c.615.273 1.23.542 1.845.809Zm-5.49-2.463-1.678 3.614c-.616-.286-1.231-.575-1.845-.867l1.709-3.599c.605.287 1.209.571 1.814.852Zm-5.426-2.606-1.771 3.57c-.608-.302-1.216-.606-1.824-.914l1.8-3.555c.598.303 1.197.602 1.795.899Zm-5.342-2.733-1.859 3.525c-.603-.318-1.205-.639-1.807-.962l1.888-3.51c.592.319 1.185.634 1.778.947Zm-5.289-2.872L196.037 384c-.591-.331-1.182-.664-1.773-1l1.972-3.463c.581.331 1.163.659 1.745.984Zm-5.216-2.997-2.026 3.431c-.586-.345-1.171-.694-1.756-1.046l2.053-3.415c.576.346 1.152.689 1.729 1.03Zm-5.133-3.112-2.106 3.383a247.76 247.76 0 0 1-1.73-1.086l2.131-3.367c.568.359 1.136.716 1.705 1.07Zm-5.076-3.24-2.182 3.334c-.566-.37-1.131-.743-1.696-1.118l2.207-3.318c.556.37 1.113.737 1.671 1.102Zm-4.99-3.346-2.256 3.285c-.563-.386-1.124-.775-1.685-1.166l2.28-3.268c.553.386 1.107.769 1.661 1.149Zm-4.916-3.456-2.327 3.235c-.551-.396-1.101-.795-1.65-1.196l2.351-3.218c.541.396 1.083.789 1.626 1.179Zm-4.854-3.574-2.398 3.184c-.539-.406-1.077-.815-1.614-1.225l2.419-3.167c.53.406 1.061.808 1.593 1.208Zm-4.752-3.658-2.464 3.132c-.535-.421-1.068-.844-1.601-1.269l2.486-3.114c.526.419 1.052.836 1.579 1.251Zm-4.689-3.77-2.53 3.079a369.81 369.81 0 0 1-1.565-1.295l2.551-3.062c.514.428 1.028.854 1.544 1.278Zm-4.607-3.866-2.593 3.026c-.517-.443-1.033-.888-1.548-1.336l2.614-3.008c.508.442 1.017.881 1.527 1.318Zm-4.52-3.955-2.655 2.973c-.505-.452-1.01-.906-1.514-1.362l2.674-2.954c.498.45.996.898 1.495 1.343Zm-4.455-4.06-2.714 2.918c-.494-.46-.987-.921-1.479-1.385l2.734-2.9c.485.458.972.914 1.459 1.367Zm-4.35-4.129-2.772 2.863c-.488-.473-.975-.948-1.461-1.425l2.791-2.844c.48.471.961.94 1.442 1.406Zm-4.281-4.23-2.829 2.807c-.476-.479-.951-.961-1.425-1.445l2.847-2.788c.468.477.937.953 1.407 1.426Zm-4.191-4.307-2.884 2.751c-.47-.493-.938-.987-1.406-1.484l2.902-2.732c.461.491.924.979 1.388 1.465Zm-4.106-4.389-2.937 2.694c-.457-.499-.914-1-1.369-1.503l2.954-2.675c.45.497.9.991 1.352 1.484Z" fill="#36A1AC"/>
  <path fill-rule="evenodd" clip-rule="evenodd" d="M257.935 393.585c-42.404-11.609-87.195-39.879-124.226-82.138-37.03-42.258-59.175-90.373-65.117-133.933-5.944-43.579 4.336-82.354 31.788-106.41 27.452-24.056 67.241-29.157 109.662-17.543 42.404 11.61 87.195 39.879 124.225 82.137 37.031 42.259 59.176 90.373 65.118 133.934 5.944 43.579-4.337 82.353-31.789 106.409-27.452 24.057-67.24 29.158-109.661 17.544Zm110.922-16.105c-56.177 49.228-162.1 20.228-236.586-64.772C57.785 227.707 42.943 118.894 99.12 69.666c56.177-49.228 162.1-20.229 236.586 64.772 74.486 85 89.328 193.814 33.151 243.042Z" fill="url(#a)"/>
  <g filter="url(#b)">
    <path fill-rule="evenodd" clip-rule="evenodd" d="M259.386 391.612c-42.404-11.609-87.194-39.879-124.225-82.137-37.031-42.258-59.176-90.373-65.118-133.934-5.944-43.578 4.337-82.353 31.789-106.409 27.452-24.056 67.24-29.157 109.661-17.543 42.404 11.609 87.195 39.879 124.226 82.137 37.031 42.258 59.175 90.373 65.117 133.934 5.944 43.578-4.336 82.353-31.788 106.409-27.452 24.056-67.241 29.157-109.662 17.543Zm110.922-16.104c-56.177 49.228-162.1 20.228-236.586-64.772-74.486-85.001-89.328-193.815-33.151-243.042 56.177-49.229 162.1-20.23 236.586 64.771 74.486 85.001 89.328 193.815 33.151 243.043Z" fill="url(#c)"/>
  </g>
  <path fill-rule="evenodd" clip-rule="evenodd" d="M221.506 401.632c-37.205-10.186-76.5-34.988-108.985-72.059-32.485-37.07-51.914-79.281-57.127-117.502-5.215-38.235 3.803-72.272 27.906-93.394 24.103-21.12 59.029-25.593 96.249-15.403 37.206 10.186 76.5 34.989 108.985 72.059 32.485 37.071 51.914 79.282 57.127 117.503 5.216 38.235-3.803 72.272-27.905 93.393-24.103 21.122-59.03 25.593-96.25 15.403Zm97.3-14.204c-49.267 43.173-142.16 17.74-207.483-56.804-65.324-74.545-78.34-169.973-29.073-213.145 49.266-43.173 142.16-17.74 207.483 56.804 65.323 74.544 78.34 169.973 29.073 213.145Z" fill="url(#d)"/>
  <g opacity=".5" filter="url(#e)">
    <path fill-rule="evenodd" clip-rule="evenodd" d="M252.19 341.997c-28.937-7.923-60.274-27.488-86.47-57.383-26.197-29.895-41.48-63.529-45.534-93.255-4.072-29.853 3.237-54.025 19.618-68.379 16.381-14.355 41.304-18.428 70.363-10.472 28.937 7.923 60.274 27.488 86.47 57.383 26.197 29.895 41.479 63.528 45.534 93.255 4.072 29.853-3.237 54.024-19.618 68.379-16.382 14.355-41.304 18.428-70.363 10.472Zm79.292-.282c-41.78 36.612-120.556 15.045-175.952-48.172-55.397-63.216-66.435-144.142-24.655-180.753 41.779-36.612 120.556-15.045 175.952 48.171 55.396 63.217 66.435 144.143 24.655 180.754Z" fill="url(#f)"/>
  </g>
  <path fill-rule="evenodd" clip-rule="evenodd" d="M116.416 81.415c.399.527 1.141.62 1.655.208.217-.173.434-.345.652-.516a1.234 1.234 0 0 0 .227-1.697 1.159 1.159 0 0 0-1.653-.227 95.1 95.1 0 0 0-.673.532 1.234 1.234 0 0 0-.208 1.7Zm-5.12 4.646a1.158 1.158 0 0 0-1.668.004c-.201.205-.4.412-.598.62a1.234 1.234 0 0 0 .016 1.713 1.158 1.158 0 0 0 1.668-.023c.192-.201.385-.402.579-.601.462-.474.463-1.24.003-1.713Zm13.332-10.554a1.16 1.16 0 0 0 1.613.432c.237-.142.474-.283.713-.423a1.232 1.232 0 0 0 .444-1.653 1.162 1.162 0 0 0-1.609-.45c-.246.145-.491.29-.735.437a1.231 1.231 0 0 0-.426 1.657Zm-20.052 18.197a1.16 1.16 0 0 0-1.654.23c-.087.115-.172.231-.258.347l-.248.338a1.231 1.231 0 0 0 .236 1.695c.522.4 1.261.288 1.652-.248a186.265 186.265 0 0 1 .49-.665 1.232 1.232 0 0 0-.218-1.697Zm28.943-22.954c.253.615.945.9 1.545.638.253-.11.507-.22.761-.327.602-.257.89-.965.643-1.583a1.165 1.165 0 0 0-1.539-.655c-.262.111-.523.224-.783.338-.6.262-.881.974-.627 1.589Zm-34.497 31.186a1.166 1.166 0 0 0-1.615.437c-.138.244-.276.488-.412.733a1.226 1.226 0 0 0 .436 1.651 1.165 1.165 0 0 0 1.61-.454c.133-.238.267-.475.401-.711a1.227 1.227 0 0 0-.42-1.656Zm43.89-34.78a1.17 1.17 0 0 0 1.46.823c.264-.079.529-.157.794-.233.628-.182.995-.851.82-1.495a1.172 1.172 0 0 0-1.453-.837l-.815.24c-.626.188-.987.86-.806 1.503ZM94.476 110.78a1.172 1.172 0 0 0-1.555.624c-.111.258-.22.517-.33.776-.257.616.02 1.327.618 1.589a1.172 1.172 0 0 0 1.55-.639c.106-.253.213-.505.32-.756a1.22 1.22 0 0 0-.603-1.594Zm-3.559 9.306a1.177 1.177 0 0 0-1.483.789c-.084.268-.166.537-.247.806-.194.639.154 1.317.776 1.513a1.179 1.179 0 0 0 1.477-.803l.241-.786c.199-.637-.143-1.318-.764-1.519Zm61.725-55.393a1.178 1.178 0 0 0 1.364.98c.271-.048.542-.097.814-.144.643-.11 1.078-.736.972-1.395a1.179 1.179 0 0 0-1.356-.993c-.279.048-.557.098-.834.148-.642.117-1.072.745-.96 1.404Zm-64.343 65.021c-.636-.139-1.264.278-1.402.932-.058.274-.115.548-.17.823-.134.655.275 1.296.913 1.43.638.134 1.263-.288 1.396-.943l.166-.805c.139-.654-.266-1.297-.903-1.437Zm74.269-66.426c.048.667.613 1.166 1.263 1.115.274-.022.548-.042.823-.062.65-.046 1.142-.624 1.099-1.292-.042-.667-.604-1.17-1.254-1.124-.281.02-.561.04-.841.063-.65.051-1.138.633-1.09 1.3Zm-76.007 76.259c-.647-.082-1.237.39-1.32 1.054l-.1.836c-.077.665.384 1.266 1.031 1.343.647.078 1.234-.398 1.312-1.063.032-.274.065-.547.099-.82.082-.663-.376-1.268-1.022-1.35Zm86.015-76.691c-.01.669.51 1.217 1.162 1.225l.415.006c.651.01 1.189-.523 1.202-1.192.012-.668-.506-1.219-1.157-1.23l-.424-.005c-.651-.009-1.187.527-1.198 1.196ZM85.63 149.493c-.65-.03-1.203.488-1.234 1.156-.013.279-.025.559-.036.838-.027.669.479 1.231 1.13 1.256.65.026 1.2-.496 1.227-1.164.011-.275.023-.549.036-.823.03-.668-.472-1.234-1.123-1.263Zm-.192 9.986c-.651.018-1.167.575-1.15 1.243.006.28.013.561.021.841.02.669.563 1.192 1.215 1.17.65-.022 1.163-.582 1.144-1.25a154.85 154.85 0 0 1-.022-.827c-.016-.669-.557-1.196-1.208-1.177Zm.48 9.975c-.65.062-1.128.653-1.07 1.318l.075.838c.062.666.637 1.152 1.286 1.087.649-.066 1.125-.658 1.063-1.324l-.074-.825c-.058-.666-.631-1.156-1.28-1.094Zm1.091 9.924c-.644.101-1.088.72-.991 1.381l.061.416c.098.661.7 1.113 1.344 1.009.644-.103 1.087-.722.989-1.383l-.061-.41c-.097-.661-.698-1.115-1.342-1.013Z" fill="#14CABF"/>
  <g filter="url(#g)">
    <path fill-rule="evenodd" clip-rule="evenodd" d="m108.962 116.341.159-.337-11.308-5.626-.185.392 11.334 5.571Zm-1.51 3.421c.096-.231.193-.462.291-.691l-11.531-5.132c-.113.266-.225.533-.336.801l11.576 5.022Zm-1.359 3.498c.085-.236.172-.47.259-.704l-11.747-4.59-.299.811 11.787 4.483Zm-1.213 3.568c.076-.241.153-.481.231-.72l-11.932-4.061c-.09.275-.178.549-.265.825l11.966 3.956Zm-1.067 3.624c.066-.243.133-.486.202-.728l-12.09-3.545-.229.83 12.117 3.443Zm-.927 3.68c.057-.248.115-.495.174-.741l-12.219-3.044-.197.84 12.242 2.945Zm-.788 3.72.146-.747-12.325-2.559c-.056.279-.111.56-.165.841l12.344 2.465Zm-.656 3.761.121-.756-12.41-2.092c-.046.282-.092.565-.136.848l12.425 2Zm-.524 3.788.094-.759-12.476-1.641c-.036.282-.071.564-.105.847l12.487 1.553Zm-.4 3.817.07-.767-12.524-1.207c-.027.284-.053.567-.078.852l12.532 1.122Zm-.277 3.833c.014-.255.029-.511.045-.765l-12.557-.79a80.13 80.13 0 0 0-.05.847l12.562.708Zm-.161 3.851.023-.772-12.577-.388-.025.85 12.579.31Zm-.047 3.862a99.846 99.846 0 0 1 0-.774l-12.583-.002v.849l12.583-.073Zm.062 3.865a99.441 99.441 0 0 1-.021-.772l-12.58.368.023.845 12.578-.441Zm.168 3.873-.042-.776-12.566.724.045.846 12.563-.794Zm.269 3.872-.062-.775-12.544 1.067.067.842 12.539-1.134Zm.368 3.866-.081-.772-12.515 1.397.088.836 12.508-1.461Zm.407 3.438-.045-.347-12.478 1.713c.035.278.071.557.108.835l12.47-1.775-.055-.426Zm.61 4.284c-.041-.258-.08-.515-.119-.773l-12.436 2.019.128.833 12.427-2.079Zm.641 3.844-.135-.766-12.388 2.313.145.823 12.378-2.37Zm.727 3.833-.152-.765-12.335 2.596c.053.273.108.547.163.82l12.324-2.651Zm.81 3.822-.168-.764-12.28 2.869.181.818 12.267-2.923Zm.89 3.809-.184-.763-12.219 3.133c.065.271.131.543.198.814l12.205-3.184Zm.867 3.413-.099-.38-12.155 3.388a201.44 201.44 0 0 0 .213.807l12.141-3.437-.1-.378Zm1.143 4.154c-.072-.251-.144-.502-.214-.753l-12.088 3.635.228.801 12.074-3.683Zm1.021 3.452-.135-.444-12.018 3.874c.08.266.162.531.243.796l12.003-3.92-.093-.306Zm1.279 4.045-.243-.747-11.945 4.106.258.792 11.93-4.151Zm1.254 3.718c-.086-.247-.172-.495-.256-.742l-11.87 4.33.271.787 11.855-4.375Zm1.32 3.698-.269-.739-11.793 4.548c.094.261.19.522.285.782l11.777-4.591Zm1.385 3.673c-.095-.244-.189-.489-.282-.733l-11.714 4.761.298.774 11.698-4.802Zm1.447 3.65-.294-.727-11.633 4.967.31.767 11.617-5.007Zm1.508 3.626-.306-.722-11.55 5.167c.107.254.214.508.323.762l11.533-5.207Zm1.387 3.194-.137-.31-11.466 5.363.335.756 11.449-5.401-.181-.408Zm1.628 3.599-.15-.327-11.381 5.553.347.751 11.363-5.591-.179-.386Zm1.862 3.938-.341-.709-11.293 5.739c.119.248.238.497.359.745l11.275-5.775Zm1.738 3.525-.352-.704-11.205 5.92.371.739 11.186-5.955Zm1.792 3.498-.363-.699-11.114 6.097c.126.245.254.489.381.734l11.096-6.132Zm1.845 3.469-.373-.692-11.023 6.27.391.727 11.005-6.305Zm1.896 3.442-.383-.686-10.93 6.44.401.719 10.912-6.473Zm1.656 2.91-.102-.177-10.837 6.605.275.477.137.236 10.817-6.639-.29-.502Zm2.287 3.886-.403-.674-10.741 6.768.422.706 10.722-6.8Zm2.044 3.354-.412-.668-10.644 6.928c.143.233.287.467.432.7l10.624-6.96Zm2.093 3.324-.422-.662-10.547 7.085.442.693 10.527-7.116Zm2.139 3.294-.431-.656-10.447 7.238.451.686 10.427-7.268Zm2.002 2.992a50.52 50.52 0 0 1-.257-.38l-10.347 7.39.461.679 10.326-7.419-.183-.27Zm2.414 3.501-.45-.644-10.245 7.538.471.673 10.224-7.567Zm1.997 2.814-.181-.253-10.141 7.684.479.667 10.121-7.713-.278-.385Zm2.596 3.551-.467-.631-10.037 7.828.489.659 10.015-7.856Zm2.361 3.132-.476-.624-9.93 7.97.498.652 9.908-7.998Zm2.404 3.099-.484-.617-9.823 8.109.255.326.252.32 9.8-8.138Zm2.445 3.065-.492-.611-9.713 8.248.515.638 9.69-8.275Zm2.487 3.029-.501-.603-9.602 8.383.523.631 9.58-8.411Zm2.272 2.696-.254-.298-9.489 8.518.266.312 9.477-8.532Z" fill="#186575"/>
  </g>
  <g filter="url(#h)">
    <path fill-rule="evenodd" clip-rule="evenodd" d="m331.507 147.774-.265-.311-7.108 6.399.257.301 7.116-6.389Zm2.626 3.129-.522-.629-7.185 6.308c.169.203.338.405.506.609l7.201-6.288Zm2.583 3.165-.513-.636-7.268 6.206.497.616 7.284-6.186Zm2.541 3.202-.505-.644-7.351 6.103.489.623 7.367-6.082Zm2.497 3.238-.496-.651-7.432 5.999c.161.209.321.419.48.629l7.448-5.977Zm2.453 3.273-.487-.657-7.512 5.892.472.636 7.527-5.871Zm2.409 3.309-.478-.665-7.591 5.785.463.643 7.606-5.763Zm2.363 3.343-.469-.671-7.668 5.675.454.649 7.683-5.653Zm2.318 3.378-.46-.679-7.745 5.564.445.656 7.76-5.541Zm2.271 3.411-.451-.685-7.82 5.451.435.662 7.836-5.428Zm2.223 3.445c-.146-.231-.293-.461-.441-.692l-7.895 5.336.426.669 7.91-5.313Zm2.175 3.478-.431-.698-7.969 5.219.417.674 7.983-5.195Zm2.126 3.51-.421-.704-8.041 5.1.406.68 8.056-5.076Zm2.076 3.543-.411-.711-8.113 4.979.396.685 8.128-4.953Zm2.025 3.575-.401-.717-8.184 4.854c.13.23.258.461.387.692l8.198-4.829Zm1.973 3.607-.39-.724-8.254 4.727.377.699 8.267-4.702Zm1.92 3.639-.38-.732-8.323 4.599.367.705 8.336-4.572Zm1.866 3.669-.369-.737-8.391 4.466.356.71 8.404-4.439Zm1.81 3.7-.358-.743-8.457 4.331.344.715 8.471-4.303Zm1.752 3.73-.346-.748-8.522 4.192.333.72 8.535-4.164Zm1.695 3.76-.334-.754-8.587 4.05.321.725 8.6-4.021Zm1.634 3.789-.322-.759-8.65 3.904.309.73 8.663-3.875Zm1.573 3.818-.309-.765-8.713 3.755.297.734 8.725-3.724Zm1.51 3.848-.296-.772-8.774 3.601.285.741 8.785-3.57Zm1.446 3.877-.284-.779-8.834 3.443.273.747 8.845-3.411Zm1.378 3.904c-.089-.261-.179-.523-.27-.784l-8.891 3.281.259.75 8.902-3.247Zm1.31 3.931-.256-.789-8.948 3.113.245.755 8.959-3.079Zm1.238 3.957-.241-.793-9.003 2.94c.078.253.155.505.231.758l9.013-2.905Zm1.166 3.982-.227-.797-9.056 2.762.217.761 9.066-2.726Zm.984 3.606-.106-.4-9.106 2.578.101.382.101.386 9.116-2.541-.106-.405Zm1.12 4.448a240.01 240.01 0 0 0-.197-.813l-9.155 2.389.188.773 9.164-2.349Zm.932 4.066-.18-.816-9.201 2.191c.058.259.115.517.171.776l9.21-2.151Zm.847 4.087c-.053-.273-.107-.546-.162-.818l-9.244 1.987c.052.259.104.518.154.776l9.252-1.945Zm.76 4.107c-.047-.274-.095-.547-.144-.821l-9.284 1.776.137.778 9.291-1.733Zm.671 4.133-.127-.83-9.321 1.556.12.786 9.328-1.512Zm.575 4.151a236.49 236.49 0 0 0-.107-.832l-9.353 1.329.101.785 9.359-1.282Zm.477 4.165-.087-.833-9.381 1.093.082.784 9.386-1.044Zm.375 4.183a123.37 123.37 0 0 0-.067-.839l-9.404.848c.022.263.043.525.063.788l9.408-.797Zm.269 4.198c-.014-.28-.029-.561-.045-.841l-9.422.592.042.789 9.425-.54Zm.158 4.206-.022-.841-9.434.327.021.786 9.435-.272Zm.043 4.217.001-.846-9.438.051-.001.789 9.438.006Zm-.078 4.223.025-.845-9.434-.237-.024.786 9.433.296Zm-.204 4.22c.018-.28.035-.561.051-.842l-9.421-.536c-.015.261-.031.521-.048.781l9.418.597Zm-.335 4.225c.027-.281.053-.563.078-.845l-9.399-.847c-.023.261-.047.522-.072.782l9.393.91Zm-.471 4.214c.036-.28.071-.56.105-.841l-9.364-1.169-.097.774 9.356 1.236Zm-.614 4.205c.046-.28.091-.561.135-.842l-9.318-1.505-.124.773 9.307 1.574Zm-.762 4.184c.056-.277.111-.555.164-.834l-9.257-1.853c-.049.255-.099.509-.15.763l9.243 1.924Zm-.917 4.163c.067-.277.132-.554.197-.832l-9.181-2.214-.106.454-.073.305 9.163 2.287Zm-.934 3.623.086-.316-9.086-2.587c-.068.25-.137.498-.207.746l9.065 2.662.142-.505Zm-1.384 4.596c.088-.271.176-.543.262-.816l-8.973-2.97c-.078.247-.157.493-.237.738l8.948 3.048Zm-1.412 4.038c.099-.267.198-.534.295-.802l-8.838-3.364c-.088.241-.177.481-.267.721l8.81 3.445Zm-1.59 3.982c.112-.263.223-.527.332-.791l-8.682-3.768c-.098.237-.197.473-.297.709l8.647 3.85Zm-1.582 3.519.183-.387-8.501-4.178-.163.346 8.481 4.219Z" fill="#36A1AC"/>
  </g>
  <path fill-rule="evenodd" clip-rule="evenodd" d="M256.787 378.564c-.184.642.173 1.314.798 1.501l.373.111a1.18 1.18 0 0 0 1.463-.829c.183-.642-.176-1.314-.802-1.499l-.367-.109a1.179 1.179 0 0 0-1.465.825Zm125.376-112.862c-.644.104-1.087.723-.989 1.384l.058.389a1.18 1.18 0 0 0 1.342 1.012c.644-.101 1.088-.72.991-1.381l-.058-.394a1.18 1.18 0 0 0-1.344-1.01Zm1.166 9.011c-.649.068-1.123.662-1.06 1.327l.073.781c.06.666.635 1.153 1.284 1.089.648-.064 1.125-.655 1.065-1.321l-.073-.793c-.064-.665-.641-1.15-1.289-1.083ZM265.332 380.932c-.15.651.242 1.302.877 1.454l.755.179c.635.148 1.268-.26 1.415-.912.147-.652-.248-1.301-.883-1.45-.248-.058-.496-.116-.744-.176-.634-.152-1.27.253-1.42.905Zm118.691-96.76c-.652.027-1.16.59-1.136 1.259l.025.784c.021.668.565 1.191 1.216 1.168.651-.023 1.163-.584 1.143-1.252l-.027-.797c-.023-.668-.57-1.188-1.221-1.162Zm-109.651 98.706c-.111.659.319 1.285.961 1.396.256.045.511.089.766.131.642.109 1.251-.339 1.358-.999.108-.66-.326-1.282-.968-1.391a108.2 108.2 0 0 1-.754-.129c-.642-.111-1.252.333-1.363.992Zm109.762-89.219c-.651-.018-1.195.509-1.215 1.178-.007.262-.016.523-.025.784-.023.669.485 1.228 1.137 1.25.651.022 1.198-.502 1.221-1.171l.026-.798c.02-.669-.492-1.225-1.144-1.243Zm-100.62 90.576c-.068.666.402 1.26 1.05 1.327l.774.079c.649.063 1.227-.425 1.291-1.09.064-.666-.409-1.258-1.058-1.321l-.327-.033a63.467 63.467 0 0 1-.433-.044c-.648-.068-1.229.417-1.297 1.082Zm100.095-81.101c-.648-.066-1.228.419-1.295 1.085-.026.259-.053.519-.081.778-.071.665.396 1.261 1.044 1.332.647.071 1.23-.411 1.301-1.076.029-.264.056-.528.083-.793.067-.666-.404-1.259-1.052-1.326Zm-90.879 81.808c-.021.669.49 1.226 1.141 1.245.26.008.519.014.777.02.652.015 1.193-.516 1.209-1.184.017-.669-.498-1.223-1.149-1.238a96.865 96.865 0 0 1-.762-.019c-.651-.019-1.196.508-1.216 1.176Zm89.658-72.4c-.64-.12-1.256.316-1.375.974-.046.258-.093.514-.142.771-.123.657.296 1.29.935 1.415.64.124 1.259-.308 1.382-.965.049-.262.098-.524.145-.787.119-.658-.304-1.288-.945-1.408Zm-80.417 72.39c.031.668.584 1.182 1.235 1.147.26-.014.52-.029.779-.045.65-.039 1.148-.612 1.112-1.28-.036-.668-.593-1.177-1.243-1.137l-.42.024-.342.019c-.651.035-1.153.605-1.121 1.272Zm78.44-63.115a1.18 1.18 0 0 0-1.453.847l-.103.375-.067.242-.04.145c-.18.644.182 1.313.808 1.496.626.182 1.28-.192 1.46-.835l.057-.207.052-.19.051-.183.055-.201c.174-.645-.193-1.312-.82-1.489Zm-69.228 62.317c.089.663.684 1.124 1.33 1.03l.385-.056.293-.044.104-.016c.645-.099 1.091-.715.997-1.377-.094-.661-.693-1.118-1.337-1.019l-.388.059-.376.055c-.646.094-1.097.706-1.008 1.368Zm66.352-53.037a1.173 1.173 0 0 0-1.527.694l-.286.747c-.242.622.053 1.326.658 1.572a1.175 1.175 0 0 0 1.533-.682c.099-.254.197-.51.294-.766.236-.624-.065-1.325-.672-1.565Zm-57.018 51.326c.153.65.79 1.048 1.424.889l.379-.096.399-.103c.632-.164 1.016-.823.858-1.472a1.173 1.173 0 0 0-1.43-.876c-.252.066-.505.13-.759.194-.633.159-1.023.814-.871 1.464Zm53.227-42.387a1.169 1.169 0 0 0-1.591.521c-.121.238-.242.475-.364.71a1.226 1.226 0 0 0 .487 1.637c.575.312 1.29.086 1.596-.506.126-.242.25-.486.374-.73.3-.595.076-1.325-.502-1.632Zm-44.1 39.698c.22.629.896.954 1.509.725.252-.094.503-.188.754-.285.611-.234.923-.931.697-1.558a1.168 1.168 0 0 0-1.516-.71c-.243.093-.488.185-.733.277a1.223 1.223 0 0 0-.711 1.551Zm39.361-31.245a1.162 1.162 0 0 0-1.638.327 94.86 94.86 0 0 1-.441.661 1.229 1.229 0 0 0 .296 1.684c.535.38 1.271.241 1.642-.31.152-.226.304-.453.454-.681a1.23 1.23 0 0 0-.313-1.681Zm-30.581 27.529c.291.597.999.839 1.582.539.24-.124.479-.248.717-.374a1.23 1.23 0 0 0 .514-1.631 1.163 1.163 0 0 0-1.587-.522c-.139.073-.279.147-.419.219l-.276.143a1.23 1.23 0 0 0-.531 1.626Zm24.897-19.714a1.16 1.16 0 0 0-1.665.117c-.171.201-.344.401-.517.6a1.233 1.233 0 0 0 .091 1.71 1.16 1.16 0 0 0 1.666-.1c.179-.205.357-.411.533-.619a1.232 1.232 0 0 0-.108-1.708Zm-16.609 14.95a1.16 1.16 0 0 0 1.636.335c.223-.153.445-.307.667-.462.539-.377.68-1.131.314-1.683a1.159 1.159 0 0 0-1.638-.317c-.215.15-.431.299-.647.447a1.234 1.234 0 0 0-.332 1.68Zm10.02-7.923a1.157 1.157 0 0 0-1.665-.1l-.128.117-.164.147-.294.264a1.234 1.234 0 0 0-.121 1.708 1.158 1.158 0 0 0 1.664.119l.303-.272.302-.273c.488-.444.535-1.21.103-1.71Z" fill="#14CABF"/>
  <g opacity=".1" fill-rule="evenodd" clip-rule="evenodd">
    <path d="M165.117 143.308c30.167-32.265 93.276-25.96 140.959 14.081l-16.155 17.279c46.367 39.997 59.897 97.636 30.079 129.528-30.166 32.265-93.275 25.961-140.958-14.081l16.154-17.278c-46.366-39.998-59.896-97.636-30.079-129.529Zm34.675 127.759 16.346-17.483c-30.787-25.967-39.927-63.882-20.398-84.77 19.18-20.514 58.893-16.989 89.585 7.623L268.98 193.92c30.788 25.967 39.927 63.883 20.398 84.77-19.18 20.515-58.893 16.99-89.586-7.623Z" fill="#00A292"/>
    <path d="M165.117 143.308c30.167-32.265 93.276-25.96 140.959 14.081l-16.155 17.279c46.367 39.997 59.897 97.636 30.079 129.528-30.166 32.265-93.275 25.961-140.958-14.081l16.154-17.278c-46.366-39.998-59.896-97.636-30.079-129.529Zm34.675 127.759 16.346-17.483c-30.787-25.967-39.927-63.882-20.398-84.77 19.18-20.514 58.893-16.989 89.585 7.623L268.98 193.92c30.788 25.967 39.927 63.883 20.398 84.77-19.18 20.515-58.893 16.99-89.586-7.623Z" fill="url(#i)" fill-opacity=".2"/>
  </g>
  <path fill-rule="evenodd" clip-rule="evenodd" d="M327.148 139.452c.158.132.195.323.084.436l-16.166 16.396c46.676 39.62 58.787 97.704 27.006 129.937-31.812 32.265-95.578 26.436-142.571-12.979-.158-.132-.195-.323-.084-.436l16.166-16.396c-46.676-39.62-58.787-97.704-27.006-129.937 31.812-32.265 95.578-26.436 142.571 12.979Zm-111.344 113.45 16.396-16.629c.111-.113.074-.303-.082-.435-30.125-25.694-37.909-63.259-17.336-84.124 20.541-20.834 61.623-17.18 92.063 8.078l-16.396 16.629c-.11.112-.074.302.082.435 30.126 25.694 37.91 63.259 17.337 84.124-20.541 20.834-61.624 17.18-92.064-8.078Z" fill="#14CABF"/>
  <defs>
    <filter id="b" x="57.737" y="34.949" width="355.405" height="373.303" filterUnits="userSpaceOnUse" color-interpolation-filters="sRGB">
      <feFlood flood-opacity="0" result="BackgroundImageFix"/>
      <feBlend in="SourceGraphic" in2="BackgroundImageFix" result="shape"/>
      <feGaussianBlur stdDeviation="4.383" result="effect1_foregroundBlur_1571_9344"/>
    </filter>
    <filter id="e" x="102.351" y="91.769" width="257.655" height="270.966" filterUnits="userSpaceOnUse" color-interpolation-filters="sRGB">
      <feFlood flood-opacity="0" result="BackgroundImageFix"/>
      <feBlend in="SourceGraphic" in2="BackgroundImageFix" result="shape"/>
      <feGaussianBlur stdDeviation="1.594" result="effect1_foregroundBlur_1571_9344"/>
    </filter>
    <filter id="g" x="85.855" y="108.784" width="75.293" height="203.353" filterUnits="userSpaceOnUse" color-interpolation-filters="sRGB">
      <feFlood flood-opacity="0" result="BackgroundImageFix"/>
      <feBlend in="SourceGraphic" in2="BackgroundImageFix" result="shape"/>
      <feGaussianBlur stdDeviation=".797" result="effect1_foregroundBlur_1571_9344"/>
    </filter>
    <filter id="h" x="322.541" y="145.869" width="72.729" height="202.468" filterUnits="userSpaceOnUse" color-interpolation-filters="sRGB">
      <feFlood flood-opacity="0" result="BackgroundImageFix"/>
      <feBlend in="SourceGraphic" in2="BackgroundImageFix" result="shape"/>
      <feGaussianBlur stdDeviation=".797" result="effect1_foregroundBlur_1571_9344"/>
    </filter>
    <linearGradient id="a" x1="70.465" y1="304.613" x2="354.268" y2="159.845" gradientUnits="userSpaceOnUse">
      <stop stop-color="#10FFD4"/>
      <stop offset="1" stop-color="#fff" stop-opacity=".3"/>
    </linearGradient>
    <linearGradient id="c" x1="206.48" y1="58.708" x2="216.294" y2="366.319" gradientUnits="userSpaceOnUse">
      <stop stop-color="#10FFD4"/>
      <stop offset="1" stop-color="#fff" stop-opacity=".3"/>
    </linearGradient>
    <linearGradient id="d" x1="-77.787" y1="485.135" x2="207.366" y2="220.605" gradientUnits="userSpaceOnUse">
      <stop stop-color="#DDE0F4"/>
      <stop offset="1" stop-color="#fff" stop-opacity="0"/>
    </linearGradient>
    <radialGradient id="f" cx="0" cy="0" r="1" gradientUnits="userSpaceOnUse" gradientTransform="rotate(-58.383 354.586 4.888) scale(203.785 176.538)">
      <stop stop-color="#00E0CA"/>
      <stop offset="1" stop-color="#FDFEFE" stop-opacity=".36"/>
    </radialGradient>
    <radialGradient id="i" cx="0" cy="0" r="1" gradientUnits="userSpaceOnUse" gradientTransform="matrix(442.80474 199.14927 -123.46896 274.53097 240.404 241.185)">
      <stop stop-color="#10FFD4"/>
      <stop offset="1" stop-color="#FFF6E6" stop-opacity=".943"/>
    </radialGradient>
  </defs>
</svg>
