<svg width="59" height="65" viewBox="0 0 59 65" fill="none" xmlns="http://www.w3.org/2000/svg">
<path d="M20.8016 2.39946C26.148 -0.79982 32.8521 -0.799819 38.1984 2.39946L50.9151 10.0092C55.9343 13.0126 59 18.3868 59 24.1819V40.8181C59 46.6132 55.9343 51.9874 50.9151 54.9908L38.1984 62.6005C32.852 65.7998 26.148 65.7998 20.8016 62.6005L8.08487 54.9908C3.0657 51.9874 0 46.6132 0 40.8181V24.1819C0 18.3868 3.0657 13.0126 8.08487 10.0092L20.8016 2.39946Z" fill="url(#paint0_linear_795_7236)"/>
<path d="M18.9206 31.7228C17.5052 29.2631 18.3451 26.1179 20.7967 24.6978L33.6527 17.2506C36.1043 15.8305 39.239 16.6733 40.6544 19.133C42.0698 21.5927 41.2299 24.7379 38.7783 26.158L25.9223 33.6051C23.4707 35.0252 20.336 34.1825 18.9206 31.7228Z" fill="white"/>
<path d="M18.2422 47.1863C16.8268 44.7266 17.6668 41.5814 20.1183 40.1613L32.9744 32.7141C35.4259 31.294 38.5607 32.1368 39.9761 34.5965C41.3915 37.0561 40.5515 40.2013 38.1 41.6215L25.2439 49.0686C22.7924 50.4887 19.6576 49.646 18.2422 47.1863Z" fill="white"/>
<defs>
<linearGradient id="paint0_linear_795_7236" x1="29.4999" y1="-2.80555" x2="29.4999" y2="67.8058" gradientUnits="userSpaceOnUse">
<stop stop-color="#4A5974"/>
<stop offset="1" stop-color="#1B2840"/>
</linearGradient>
</defs>
</svg>
