<svg width="468" height="482" viewBox="0 0 468 482" fill="none" xmlns="http://www.w3.org/2000/svg">
<g opacity="0.3" filter="url(#filter0_f_1041_6846)">
<circle cx="82.6258" cy="30.6258" r="213.626" fill="#185975"/>
</g>
<path d="M274.748 20.7849C275.136 25.3361 275.361 29.9337 275.418 34.5719L274.954 34.5775C274.964 35.3448 274.968 36.1132 274.968 36.8827C274.968 37.6522 274.964 38.4207 274.954 39.188L275.418 39.1936C275.361 43.8318 275.136 48.4294 274.748 52.9806L274.287 52.9412C274.157 54.4679 274.008 55.9894 273.841 57.5054L274.302 57.556C273.795 62.1609 273.122 66.7155 272.287 71.2137L271.832 71.1292C271.552 72.6348 271.255 74.1341 270.94 75.6268L271.393 75.7225C270.437 80.2491 269.317 84.7153 268.04 89.1149L267.595 88.9858C267.168 90.456 266.724 91.9188 266.262 93.3739L266.704 93.514C265.306 97.918 263.75 102.252 262.042 106.508L261.612 106.336C261.042 107.756 260.455 109.168 259.851 110.571L260.276 110.754C258.452 114.994 256.476 119.152 254.354 123.223L253.943 123.009C253.236 124.367 252.512 125.714 251.772 127.052L252.178 127.276C249.947 131.311 247.571 135.255 245.057 139.101L244.67 138.847C243.832 140.129 242.98 141.399 242.112 142.658L242.493 142.921C239.879 146.714 237.129 150.407 234.249 153.991L233.888 153.701C232.93 154.894 231.957 156.075 230.97 157.244L231.324 157.543C228.354 161.06 225.257 164.466 222.039 167.755L221.708 167.431C220.638 168.525 219.555 169.605 218.458 170.673L218.781 171.005C215.485 174.213 212.071 177.302 208.546 180.264L208.248 179.909C207.077 180.893 205.893 181.863 204.698 182.819L204.987 183.18C201.396 186.051 197.697 188.792 193.897 191.398L193.635 191.016C192.374 191.88 191.102 192.73 189.819 193.564L190.071 193.953C186.22 196.457 182.27 198.824 178.23 201.047L178.007 200.641C176.668 201.378 175.319 202.099 173.96 202.803L174.173 203.214C170.098 205.328 165.936 207.296 161.693 209.113L161.51 208.687C160.106 209.288 158.693 209.873 157.271 210.44L157.443 210.87C153.184 212.571 148.848 214.12 144.441 215.512L144.302 215.07C142.846 215.529 141.383 215.972 139.912 216.396L140.041 216.841C135.64 218.112 131.172 219.227 126.644 220.178L126.549 219.725C125.056 220.039 123.556 220.335 122.051 220.613L122.135 221.068C117.636 221.899 113.081 222.569 108.475 223.073L108.425 222.613C106.909 222.779 105.387 222.926 103.861 223.056L103.9 223.517C99.3484 223.903 94.7507 224.127 90.1125 224.183L90.107 223.72C89.3396 223.729 88.5712 223.734 87.8017 223.734C87.0322 223.734 86.2637 223.729 85.4964 223.72L85.4908 224.183C80.8526 224.127 76.2549 223.904 71.7035 223.517L71.7427 223.056C70.2159 222.926 68.6944 222.779 67.1784 222.613L67.128 223.073C62.5227 222.569 57.9675 221.899 53.4687 221.068L53.5527 220.613C52.0469 220.335 50.5474 220.039 49.0545 219.725L48.9592 220.178C44.4314 219.227 39.9637 218.112 35.5625 216.841L35.6911 216.396C34.2203 215.972 32.757 215.529 31.3014 215.07L31.1619 215.512C26.7554 214.12 22.4192 212.571 18.1601 210.87L18.3318 210.44C16.9102 209.873 15.4972 209.288 14.0931 208.687L13.9108 209.113C9.66763 207.296 5.5051 205.328 1.43004 203.214L1.64326 202.803C0.284454 202.099 -1.06461 201.378 -2.40367 200.641L-2.62693 201.047C-6.66705 198.824 -10.6163 196.457 -14.4677 193.953L-14.2153 193.564C-15.4984 192.73 -16.7707 191.88 -18.0318 191.016L-18.2937 191.398C-22.0936 188.792 -25.7926 186.051 -29.3837 183.18L-29.0945 182.819C-30.2899 181.863 -31.4733 180.893 -32.6445 179.909L-32.9424 180.264C-36.4674 177.302 -39.8817 174.213 -43.1781 171.005L-42.855 170.673C-43.9514 169.605 -45.0348 168.525 -46.1048 167.431L-46.4359 167.755C-49.6534 164.466 -52.7507 161.06 -55.7206 157.543L-55.3668 157.244C-56.3537 156.075 -57.3265 154.894 -58.285 153.701L-58.6461 153.991C-61.5257 150.407 -64.2761 146.714 -66.8901 142.921L-66.5087 142.658C-67.3764 141.399 -68.229 140.129 -69.0663 138.847L-69.454 139.101C-71.9676 135.255 -74.3433 131.311 -76.5744 127.276L-76.1691 127.052C-76.9087 125.714 -77.6324 124.367 -78.3398 123.009L-78.7506 123.223C-80.8724 119.152 -82.8489 114.994 -84.6731 110.754L-84.2477 110.571C-84.8515 109.168 -85.4386 107.756 -86.0087 106.336L-86.4385 106.508C-88.1467 102.252 -89.7028 97.918 -91.1003 93.5139L-90.6589 93.3738C-91.1206 91.9188 -91.565 90.456 -91.9917 88.9858L-92.4365 89.1149C-93.7136 84.7153 -94.8334 80.249 -95.7895 75.7225L-95.3363 75.6268C-95.6516 74.1341 -95.949 72.6348 -96.2284 71.1292L-96.6838 71.2137C-97.5184 66.7155 -98.192 62.1609 -98.6984 57.556L-98.238 57.5054C-98.4047 55.9894 -98.5533 54.4679 -98.6834 52.9412L-99.1449 52.9805C-99.5329 48.4294 -99.758 43.8317 -99.8141 39.1936L-99.351 39.1879C-99.3603 38.4206 -99.365 37.6522 -99.365 36.8827C-99.365 36.1132 -99.3603 35.3447 -99.351 34.5774L-99.8141 34.5718C-99.758 29.9337 -99.5329 25.336 -99.1449 20.7849L-98.6834 20.8242C-98.5533 19.2975 -98.4047 17.776 -98.238 16.26L-98.6984 16.2094C-98.192 11.6045 -97.5184 7.04991 -96.6838 2.5517L-96.2284 2.6362C-95.949 1.13057 -95.6516 -0.368698 -95.3363 -1.8614L-95.7895 -1.95712C-94.8334 -6.48366 -93.7136 -10.9499 -92.4365 -15.3495L-91.9917 -15.2204C-91.565 -16.6906 -91.1206 -18.1534 -90.6589 -19.6085L-91.1003 -19.7486C-89.7028 -24.1526 -88.1466 -28.4862 -86.4385 -32.7426L-86.0087 -32.5701C-85.4386 -33.9908 -84.8515 -35.4028 -84.2477 -36.806L-84.6731 -36.989C-82.8489 -41.2284 -80.8724 -45.3869 -78.7506 -49.458L-78.3398 -49.2439C-77.6324 -50.6013 -76.9087 -51.9489 -76.1691 -53.2865L-76.5744 -53.5106C-74.3433 -57.5454 -71.9675 -61.4894 -69.454 -65.3354L-69.0663 -65.082C-68.229 -66.3632 -67.3764 -67.6335 -66.5087 -68.8927L-66.89 -69.1555C-64.2761 -72.9488 -61.5257 -76.6412 -58.6461 -80.2255L-58.285 -79.9354C-57.3265 -81.1285 -56.3537 -82.3095 -55.3668 -83.4783L-55.7206 -83.7771C-52.7507 -87.2943 -49.6534 -90.7008 -46.4359 -93.9895L-46.1048 -93.6656C-45.0348 -94.7593 -43.9514 -95.8399 -42.855 -96.9073L-43.1781 -97.2391C-39.8817 -100.448 -36.4674 -103.537 -32.9424 -106.498L-32.6445 -106.144C-31.4733 -107.128 -30.2899 -108.098 -29.0945 -109.053L-29.3837 -109.415C-25.7926 -112.285 -22.0936 -115.027 -18.2937 -117.632L-18.0318 -117.25C-16.7707 -118.115 -15.4984 -118.965 -14.2152 -119.799L-14.4677 -120.187C-10.6163 -122.692 -6.66702 -125.059 -2.6269 -127.281L-2.40364 -126.876C-1.06458 -127.612 0.284485 -128.333 1.6433 -129.038L1.43007 -129.449C5.50513 -131.562 9.66767 -133.531 13.9108 -135.347L14.0931 -134.922C15.4973 -135.523 16.9103 -136.107 18.3319 -136.675L18.1601 -137.105C22.4193 -138.806 26.7555 -140.355 31.162 -141.746L31.3014 -141.304C32.757 -141.764 34.2204 -142.206 35.6911 -142.631L35.5626 -143.076C39.9637 -144.347 44.4314 -145.462 48.9593 -146.413L49.0545 -145.96C50.5475 -146.274 52.047 -146.57 53.5528 -146.848L53.4687 -147.303C57.9676 -148.133 62.5228 -148.804 67.1281 -149.308L67.1784 -148.847C68.6945 -149.013 70.216 -149.161 71.7427 -149.29L71.7036 -149.752C76.2549 -150.138 80.8526 -150.362 85.4908 -150.418L85.4964 -149.955C86.2637 -149.964 87.0322 -149.969 87.8017 -149.969C88.5712 -149.969 89.3397 -149.964 90.107 -149.955L90.1126 -150.418C94.7508 -150.362 99.3484 -150.138 103.9 -149.752L103.861 -149.29C105.387 -149.161 106.909 -149.013 108.425 -148.847L108.475 -149.308C113.081 -148.804 117.636 -148.133 122.135 -147.303L122.051 -146.848C123.556 -146.57 125.056 -146.274 126.549 -145.96L126.644 -146.413C131.172 -145.462 135.64 -144.347 140.041 -143.076L139.912 -142.631C141.383 -142.206 142.846 -141.764 144.302 -141.304L144.441 -141.746C148.848 -140.355 153.184 -138.806 157.443 -137.105L157.272 -136.675C158.693 -136.107 160.106 -135.523 161.51 -134.922L161.693 -135.347C165.936 -133.531 170.098 -131.562 174.173 -129.449L173.96 -129.038C175.319 -128.333 176.668 -127.612 178.007 -126.876L178.23 -127.281C182.27 -125.059 186.22 -122.692 190.071 -120.187L189.819 -119.799C191.102 -118.965 192.374 -118.115 193.635 -117.25L193.897 -117.632C197.697 -115.027 201.396 -112.285 204.987 -109.415L204.698 -109.053C205.893 -108.098 207.077 -107.128 208.248 -106.144L208.546 -106.498C212.071 -103.537 215.485 -100.448 218.781 -97.2391L218.458 -96.9072C219.555 -95.8399 220.638 -94.7593 221.708 -93.6656L222.039 -93.9895C225.257 -90.7008 228.354 -87.2943 231.324 -83.7771L230.97 -83.4783C231.957 -82.3095 232.93 -81.1285 233.888 -79.9354L234.249 -80.2255C237.129 -76.6411 239.879 -72.9488 242.493 -69.1555L242.112 -68.8927C242.98 -67.6335 243.832 -66.3632 244.67 -65.082L245.057 -65.3354C247.571 -61.4893 249.947 -57.5454 252.178 -53.5106L251.772 -53.2864C252.512 -51.9488 253.236 -50.6012 253.943 -49.2439L254.354 -49.4579C256.476 -45.3869 258.452 -41.2283 260.276 -36.989L259.851 -36.8059C260.455 -35.4028 261.042 -33.9907 261.612 -32.5701L262.042 -32.7426C263.75 -28.4862 265.306 -24.1526 266.704 -19.7485L266.262 -19.6084C266.724 -18.1534 267.168 -16.6906 267.595 -15.2204L268.04 -15.3495C269.317 -10.9499 270.437 -6.48361 271.393 -1.95708L270.94 -1.86136C271.255 -0.368668 271.552 1.13062 271.832 2.63623L272.287 2.55173C273.122 7.04994 273.795 11.6046 274.302 16.2094L273.841 16.26C274.008 17.776 274.157 19.2975 274.287 20.8242L274.748 20.7849Z" stroke="white" stroke-width="0.926323" stroke-dasharray="4.63 13.89"/>
<path d="M298.507 126.502C298.507 147.187 281.169 164.5 259.101 164.5C237.033 164.5 219.695 147.187 219.695 126.502C219.695 105.816 237.033 88.5031 259.101 88.5031C281.169 88.5031 298.507 105.816 298.507 126.502Z" stroke="#293858" stroke-width="22.8736"/>
<ellipse cx="259.351" cy="122.722" rx="37.0029" ry="35.9784" stroke="white" stroke-width="0.541864" stroke-linecap="round" stroke-dasharray="0.86 5.91"/>
<ellipse cx="259.518" cy="122.56" rx="50.565" ry="49.1651" stroke="white" stroke-width="0.541864" stroke-linecap="round" stroke-dasharray="0.86 5.91"/>
<g filter="url(#filter1_b_1041_6846)">
<rect x="271.555" y="164.468" width="12.0471" height="12.0552" rx="0.368929" transform="rotate(90 271.555 164.468)" fill="url(#paint0_linear_1041_6846)"/>
<rect x="271.555" y="164.468" width="12.0471" height="12.0552" rx="0.368929" transform="rotate(90 271.555 164.468)" fill="url(#paint1_linear_1041_6846)" fill-opacity="0.2"/>
</g>
<g filter="url(#filter2_b_1041_6846)">
<rect x="213.957" y="152.438" width="12.3901" height="11.7215" fill="black" fill-opacity="0.01"/>
<rect x="213.957" y="152.438" width="12.3901" height="11.7215" fill="url(#paint2_linear_1041_6846)" fill-opacity="0.2"/>
<rect x="214.141" y="152.623" width="12.0212" height="11.3526" stroke="url(#paint3_linear_1041_6846)" stroke-width="0.368929"/>
<rect x="214.141" y="152.623" width="12.0212" height="11.3526" stroke="url(#paint4_linear_1041_6846)" stroke-width="0.368929"/>
</g>
<g filter="url(#filter3_b_1041_6846)">
<rect x="257.051" y="162.414" width="12.3901" height="11.7215" fill="black" fill-opacity="0.01"/>
<rect x="257.051" y="162.414" width="12.3901" height="11.7215" fill="url(#paint5_linear_1041_6846)" fill-opacity="0.2"/>
<rect x="257.235" y="162.599" width="12.0212" height="11.3526" stroke="url(#paint6_linear_1041_6846)" stroke-width="0.368929"/>
<rect x="257.235" y="162.599" width="12.0212" height="11.3526" stroke="url(#paint7_linear_1041_6846)" stroke-width="0.368929"/>
</g>
<g filter="url(#filter4_b_1041_6846)">
<rect x="256.504" y="67.5337" width="12.3901" height="11.7215" fill="black" fill-opacity="0.01"/>
<rect x="256.504" y="67.5337" width="12.3901" height="11.7215" fill="url(#paint8_linear_1041_6846)" fill-opacity="0.2"/>
<rect x="256.688" y="67.7182" width="12.0212" height="11.3526" stroke="url(#paint9_linear_1041_6846)" stroke-width="0.368929"/>
<rect x="256.688" y="67.7182" width="12.0212" height="11.3526" stroke="url(#paint10_linear_1041_6846)" stroke-width="0.368929"/>
</g>
<g filter="url(#filter5_b_1041_6846)">
<rect x="206.207" y="133.595" width="7.36709" height="7.16313" rx="0.368929" fill="url(#paint11_linear_1041_6846)"/>
<rect x="206.207" y="133.595" width="7.36709" height="7.16313" rx="0.368929" fill="url(#paint12_linear_1041_6846)" fill-opacity="0.2"/>
</g>
<ellipse cx="244.634" cy="84.7244" rx="2.11638" ry="2.17664" transform="rotate(-90 244.634 84.7244)" fill="#63E8DB"/>
<ellipse cx="244.634" cy="84.7244" rx="2.11638" ry="2.17664" transform="rotate(-90 244.634 84.7244)" fill="url(#paint13_linear_1041_6846)"/>
<ellipse cx="244.634" cy="84.7244" rx="2.11638" ry="2.17664" transform="rotate(-90 244.634 84.7244)" fill="url(#paint14_radial_1041_6846)"/>
<ellipse rx="1.34069" ry="1.30952" transform="matrix(-0.997379 -0.0724522 0.0803248 -0.996777 271.866 173.794)" fill="#ADFFF7"/>
<g filter="url(#filter6_f_1041_6846)">
<path d="M270.794 174.276C270.474 173.626 270.55 172.922 271.494 172.481C272.439 172.04 273.894 172.028 274.214 172.677C274.534 173.327 273.582 174.565 272.638 175.006C271.693 175.448 271.113 174.925 270.794 174.276Z" fill="#ADFFF7"/>
</g>
<g opacity="0.5" filter="url(#filter7_f_1041_6846)">
<path d="M270.794 174.276C270.474 173.627 270.767 172.823 272.307 172.103C273.847 171.384 276.051 171.022 276.371 171.671C276.69 172.32 274.938 173.932 273.398 174.651C271.858 175.371 271.113 174.925 270.794 174.276Z" fill="url(#paint15_linear_1041_6846)"/>
</g>
<g opacity="0.5" filter="url(#filter8_f_1041_6846)">
<path d="M269.172 172.65C268.993 172.648 268.853 172.043 268.88 170.383C268.908 168.724 269.092 166.639 269.271 166.641C269.451 166.643 269.592 168.875 269.565 170.535C269.537 172.194 269.351 172.652 269.172 172.65Z" fill="url(#paint16_linear_1041_6846)"/>
</g>
<g opacity="0.2" filter="url(#filter9_f_1041_6846)">
<path d="M270.794 174.278C270.475 173.63 272.025 172.643 276.338 170.225C280.823 167.711 286.233 164.885 286.553 165.533C286.872 166.181 281.475 170.513 277.174 172.889C272.873 175.264 271.114 174.926 270.794 174.278Z" fill="url(#paint17_linear_1041_6846)"/>
</g>
<ellipse rx="1.34069" ry="1.30952" transform="matrix(0.997379 -0.0724522 -0.0803248 -0.996777 262.228 70.9334)" fill="#ADFFF7"/>
<g filter="url(#filter10_f_1041_6846)">
<path d="M263.3 71.4147C263.62 70.7654 263.544 70.0613 262.599 69.62C261.655 69.1787 260.199 69.1673 259.88 69.8165C259.56 70.4658 260.511 71.7042 261.456 72.1456C262.401 72.5869 262.981 72.064 263.3 71.4147Z" fill="#ADFFF7"/>
</g>
<g opacity="0.5" filter="url(#filter11_f_1041_6846)">
<path d="M263.3 71.4156C263.619 70.7668 263.327 69.9618 261.787 69.2425C260.247 68.5231 258.043 68.1617 257.723 68.8105C257.404 69.4594 259.155 71.0711 260.695 71.7904C262.235 72.5098 262.98 72.0645 263.3 71.4156Z" fill="url(#paint18_linear_1041_6846)"/>
</g>
<g opacity="0.3" filter="url(#filter12_f_1041_6846)">
<path d="M265.085 73.5478C265.405 72.899 265.112 72.094 263.572 71.3747C262.032 70.6553 259.828 70.2939 259.508 70.9427C259.189 71.5916 260.941 73.2033 262.481 73.9226C264.021 74.642 264.765 74.1967 265.085 73.5478Z" fill="url(#paint19_linear_1041_6846)"/>
</g>
<g opacity="0.2" filter="url(#filter13_f_1041_6846)">
<path d="M263.3 71.4172C263.619 70.7691 262.069 69.7824 257.756 67.3644C253.271 64.8503 247.861 62.0243 247.541 62.6724C247.222 63.3205 252.619 67.6529 256.92 70.0285C261.221 72.404 262.98 72.0653 263.3 71.4172Z" fill="url(#paint20_linear_1041_6846)"/>
</g>
<path d="M269.481 89.0238L278.692 103.218L286.513 105.584L286.514 105.584V153.914C286.514 156.714 284.18 158.984 281.3 158.984H240.632C237.752 158.984 235.418 156.714 235.418 153.914V94.0934C235.418 91.2935 237.752 89.0238 240.632 89.0238H269.481Z" fill="url(#paint21_linear_1041_6846)"/>
<mask id="mask0_1041_6846" style="mask-type:alpha" maskUnits="userSpaceOnUse" x="269" y="81" width="26" height="25">
<rect x="269.484" y="81.62" width="24.6791" height="23.9959" rx="6.93857" fill="#ECECEC"/>
</mask>
<g mask="url(#mask0_1041_6846)">
<mask id="mask1_1041_6846" style="mask-type:alpha" maskUnits="userSpaceOnUse" x="234" y="89" width="53" height="73">
<rect x="234.203" y="89.0552" width="52.5773" height="71.9877" rx="8.68139" fill="#ECECEC"/>
</mask>
<g mask="url(#mask1_1041_6846)">
<path d="M286.101 104.56L270.271 89.5172C269.919 89.183 269.452 88.9967 268.967 88.9967H264.174C263.128 88.9967 262.281 89.8439 262.281 90.889V119.737C262.281 120.783 263.128 121.63 264.174 121.63H284.798C285.843 121.63 286.69 120.783 286.69 119.737V105.932C286.69 105.413 286.477 104.917 286.101 104.56Z" fill="#F7F7F7"/>
</g>
</g>
<rect opacity="0.4" x="243.062" y="141.441" width="36.8449" height="3.04173" rx="1.52087" fill="white"/>
<rect opacity="0.4" x="267.047" y="134.005" width="12.861" height="3.04173" rx="1.52087" fill="white"/>
<rect opacity="0.4" x="243.062" y="126.57" width="6.95187" height="3.04173" rx="1.52087" fill="white"/>
<rect opacity="0.4" x="272.609" y="119.135" width="7.29946" height="3.04173" rx="1.52087" fill="white"/>
<rect opacity="0.4" x="243.062" y="111.699" width="9.73262" height="3.04173" rx="1.52087" fill="white"/>
<rect opacity="0.4" x="243.062" y="104.264" width="36.8449" height="3.04173" rx="1.52087" fill="white"/>
<path d="M252.29 123.055C251.054 120.993 251.787 118.357 253.927 117.167L265.145 110.926C267.285 109.736 270.02 110.442 271.255 112.503C272.49 114.565 271.757 117.201 269.618 118.391L258.399 124.632C256.26 125.823 253.525 125.116 252.29 123.055Z" fill="#293858"/>
<path d="M251.698 136.015C250.463 133.953 251.195 131.317 253.335 130.127L264.553 123.886C266.693 122.695 269.428 123.402 270.663 125.463C271.898 127.525 271.165 130.161 269.026 131.351L257.807 137.592C255.668 138.783 252.933 138.076 251.698 136.015Z" fill="#293858"/>
<g clip-path="url(#clip0_1041_6846)">
<g style="mix-blend-mode:multiply">
<g style="mix-blend-mode:multiply" filter="url(#filter14_f_1041_6846)">
<path d="M95.9113 401.378C99.0855 400.836 102.355 401.059 105.455 401.93C118.106 405.488 140.73 407.858 166.534 407.858C192.376 407.858 215.029 403.886 227.669 400.32C231.942 399.114 236.563 399.001 240.912 399.889C245.571 400.841 256.329 403 262.592 403C278.017 403 285.545 399.582 285.545 395.365C285.545 391.149 273.041 387.731 257.616 387.731C251.353 387.731 245.571 389.89 240.912 390.842C236.563 391.73 231.942 391.617 227.669 390.411C215.029 386.845 192.376 382.873 166.534 382.873C140.73 382.873 118.106 385.243 105.455 388.801C102.355 389.672 99.0855 389.895 95.9113 389.353C89.9624 388.337 82.4676 387.731 74.3236 387.731C54.9789 387.731 39.2969 391.149 39.2969 395.365C39.2969 399.582 54.9789 403 74.3236 403C82.4676 403 89.9624 402.394 95.9113 401.378Z" fill="url(#paint22_radial_1041_6846)" style="mix-blend-mode:multiply"/>
</g>
</g>
<path d="M79.5838 221.743C71.0738 223.812 61.0379 234.061 66.5896 247.941C72.1414 261.82 86.2933 262.306 94.3484 257.55C102.403 252.794 107.801 243.243 103.957 233.207C100.114 223.172 88.0938 219.675 79.5838 221.743Z" fill="url(#paint23_linear_1041_6846)"/>
<path d="M79.5838 221.743C71.0738 223.812 61.0379 234.061 66.5896 247.941C72.1414 261.82 86.2933 262.306 94.3484 257.55C102.403 252.794 107.801 243.243 103.957 233.207C100.114 223.172 88.0938 219.675 79.5838 221.743Z" fill="url(#paint24_linear_1041_6846)"/>
<g style="mix-blend-mode:multiply">
<g style="mix-blend-mode:multiply">
<g style="mix-blend-mode:multiply" filter="url(#filter15_f_1041_6846)">
<path d="M135.017 462.837L67.6445 434.585L99.4711 426.226L165.428 453.295L135.017 462.837Z" fill="url(#paint25_linear_1041_6846)" style="mix-blend-mode:multiply"/>
</g>
</g>
<g style="mix-blend-mode:multiply" filter="url(#filter16_f_1041_6846)">
<path d="M148.592 427.948L74.0078 407.169L103.281 393.988L177.815 414.816L148.592 427.948Z" fill="url(#paint26_linear_1041_6846)" style="mix-blend-mode:multiply"/>
</g>
<g style="mix-blend-mode:multiply" filter="url(#filter17_f_1041_6846)">
<path d="M240.998 457.22L166.598 427.338L204.862 415.387L287.115 447.011L240.998 457.22Z" fill="url(#paint27_linear_1041_6846)" style="mix-blend-mode:multiply"/>
</g>
<g style="mix-blend-mode:multiply" filter="url(#filter18_f_1041_6846)">
<path d="M188.624 472.768L196.776 471.201L164.74 459.842L208.521 451.465L202.561 449.354L150.672 459.299L188.624 472.768Z" fill="url(#paint28_radial_1041_6846)" style="mix-blend-mode:multiply"/>
</g>
</g>
<g filter="url(#filter19_f_1041_6846)">
<path d="M81.687 230.07C80.0461 226.605 75.8826 224.948 73.2634 227.745C70.4942 230.702 68.307 235.591 71.3149 243.094C74.3007 250.713 79.7395 252.504 84.2324 252.486C88.3845 252.469 90.1284 247.893 88.3488 244.136L81.687 230.07Z" fill="url(#paint29_linear_1041_6846)"/>
</g>
<path d="M172.217 236.858C156.11 263.31 168.037 265.7 179.348 273.981C225.19 307.543 242.444 365.328 233.547 389.706C228.886 402.438 205.16 408.096 164.109 408.096C123.058 408.096 105.027 402.061 100.979 389.706C94.4349 369.713 108.463 332.891 134.497 280.315C136.945 275.363 138.45 267.784 124.564 268.762C110.678 269.74 87.7569 262.824 80.2914 245.105C71.5424 222.604 74.1229 185.025 122.068 174.506C170.011 163.986 188.325 210.406 172.217 236.858Z" fill="url(#paint30_linear_1041_6846)"/>
<g opacity="0.69">
<g filter="url(#filter20_f_1041_6846)">
<path d="M197.42 306.959C195.807 298.464 198.535 298.544 202.561 304.097C224.139 329.25 236.696 364.702 229.208 385.524C224.836 397.645 190.43 407.08 135.542 401.436C120.295 399.178 153.838 394.663 175.665 381.116C197.492 367.569 205.358 348.317 197.42 306.959Z" fill="url(#paint31_radial_1041_6846)"/>
</g>
</g>
<path d="M142.671 420.851L73.75 402.507L101.29 390.106L170.21 408.496L142.671 420.851Z" fill="url(#paint32_linear_1041_6846)"/>
<g opacity="0.5">
<g filter="url(#filter21_f_1041_6846)">
<path fill-rule="evenodd" clip-rule="evenodd" d="M82.9922 398.35C93.1059 399.164 107.795 397.454 117.736 394.489L101.29 390.106L82.9922 398.35Z" fill="#010408"/>
</g>
</g>
<path d="M142.67 420.85L73.75 402.507V407.175L142.717 425.565L142.67 420.85Z" fill="#00DDC7"/>
<path d="M142.672 420.849L170.211 408.448V413.116L142.719 425.565L142.672 420.849Z" fill="#2A97AF"/>
<path d="M152.716 403.829L145.593 407.687L142.391 401.072L152.716 403.829Z" fill="#010408"/>
<g opacity="0.62">
<g filter="url(#filter22_f_1041_6846)">
<path d="M168.044 240.074C164.158 246.183 162.23 253.412 162.889 260.332C163.57 267.311 174.208 273.23 182.317 279.094C188.163 283.321 194.188 287.967 197.327 293.292C165.315 285.355 139.687 286.608 125.564 303.227C127.333 299.23 129.145 294.681 131.061 290.99C136.021 281.432 140.394 274.063 136.989 270.404C133.613 266.777 129.109 266.874 124.014 266.984C122.075 267.026 120.051 267.069 117.97 266.91C101.994 265.444 91.9638 256.736 104.967 257.73C138.943 260.33 177.23 231.51 164.158 194.889C162.206 190.119 158.717 182.652 165.783 188.943C180.254 204.7 176.838 226.246 168.044 240.074Z" fill="url(#paint33_radial_1041_6846)"/>
</g>
</g>
<path d="M130.375 351.937C127.792 353.144 125.358 354.304 123.047 355.406C105.65 363.697 95.1391 368.706 79.7355 366.309C72.3459 365.167 66.66 362.057 64.0957 357.46C61.5102 352.825 62.1862 346.848 67.1479 340.206C71.4121 334.494 78.7853 329.944 87.6031 326.181C96.3705 322.439 106.626 319.452 116.808 316.88C117.295 315.836 117.974 314.346 118.746 312.65C120.36 309.104 122.382 304.659 123.925 301.519C121.953 301.93 120.002 302.331 118.074 302.728C100.117 306.424 84.1326 309.715 71.2505 315.853C56.8113 322.732 46.2967 333.18 41.369 351.823C37.9715 364.695 44.4896 380.478 60.9667 388.22C77.4423 395.961 103.949 395.679 140.458 376.147C144.009 374.243 145.815 371.478 146.386 368.485C146.961 365.475 146.293 362.197 144.813 359.295C143.332 356.394 141.061 353.91 138.485 352.479C135.917 351.052 133.071 350.681 130.375 351.937Z" fill="#B9D6E9" stroke="url(#paint34_radial_1041_6846)" stroke-width="2.49954" stroke-miterlimit="10" stroke-linecap="round" stroke-linejoin="round"/>
<path opacity="0.5" d="M117.223 317.252C119.582 312.027 121.846 306.612 124.619 300.851C122.485 301.311 120.45 301.758 120.45 301.758C117.566 302.393 111.357 303.55 105.242 304.95L107.575 319.824C110.792 318.859 115.866 317.588 116.291 317.48C116.492 317.43 117.009 317.305 117.223 317.252Z" fill="url(#paint35_linear_1041_6846)"/>
<path d="M116.714 209.272C100.322 216.161 84.5445 231.081 89.5534 244.873C94.5622 258.665 114.723 257.035 133.38 249.261C152.038 241.488 164.561 227.445 158.425 214.531C152.289 201.617 133.105 202.384 116.714 209.272Z" fill="white"/>
<path d="M116.714 209.272C100.322 216.161 84.5445 231.081 89.5534 244.873C94.5622 258.665 114.723 257.035 133.38 249.261C152.038 241.488 164.561 227.445 158.425 214.531C152.289 201.617 133.105 202.384 116.714 209.272Z" fill="white"/>
<g style="mix-blend-mode:color-dodge">
<g style="mix-blend-mode:color-dodge" filter="url(#filter23_f_1041_6846)">
<path d="M107.31 185.339C85.8152 195.342 81.0466 214.156 84.4635 234.365C87.8805 254.574 104.175 258.857 126.841 248.362C149.508 237.869 162.456 223.262 157.748 205.845C153.041 188.429 128.804 175.336 107.31 185.339Z" fill="url(#paint36_radial_1041_6846)" style="mix-blend-mode:color-dodge"/>
</g>
</g>
<path d="M116.407 208.526C100.135 215.366 84.4727 230.183 89.4449 243.88C94.4172 257.576 114.431 255.957 132.952 248.237C151.474 240.518 163.905 226.572 157.814 213.748C151.722 200.923 132.678 201.685 116.407 208.526Z" fill="url(#paint37_linear_1041_6846)"/>
<g opacity="0.32" filter="url(#filter24_f_1041_6846)">
<path d="M113.31 230.1C122.559 223.661 127.602 215.702 125.701 212.633C123.801 209.564 114.868 209.865 105.983 215.833C97.0994 221.801 94.5455 229.068 96.4783 232.356C98.4644 235.622 104.03 236.474 113.31 230.1Z" fill="#F0F6FF"/>
</g>
<path d="M145.274 225.071C145.327 226.878 143.948 228.473 142.09 228.579C140.286 228.632 138.693 227.25 138.587 225.39C138.535 223.582 139.914 221.987 141.771 221.881C143.576 221.828 145.168 223.263 145.274 225.071Z" fill="#10FFD4"/>
<path d="M112.028 241.034C112.081 242.841 110.701 244.436 108.844 244.542C107.039 244.595 105.447 243.213 105.341 241.353C105.288 239.545 106.668 237.95 108.525 237.844C110.33 237.791 111.922 239.226 112.028 241.034Z" fill="#10FFD4"/>
<path d="M163.072 182.289C162.722 182.42 162.396 182.625 162.16 182.914C156.166 190.258 166.104 217.533 175.154 222.353C175.824 222.71 176.64 222.627 177.308 222.267C203.428 208.184 182.577 175.002 163.072 182.289Z" fill="url(#paint38_radial_1041_6846)" stroke="url(#paint39_radial_1041_6846)" stroke-width="1.24977" stroke-miterlimit="10" stroke-linecap="round" stroke-linejoin="round"/>
<g filter="url(#filter25_f_1041_6846)">
<path d="M168.363 184.189C165.847 184.287 163.536 185.976 163.281 188.485C162.795 193.256 165.218 200.877 168.408 206.117C171.073 210.497 177.056 210.87 180.156 206.788C187.267 197.426 178.33 183.803 168.363 184.189Z" fill="url(#paint40_linear_1041_6846)"/>
</g>
<path d="M125.345 453.139L62.957 427.606L90.2739 419.313L152.612 444.885L125.345 453.139Z" fill="url(#paint41_linear_1041_6846)"/>
<path d="M125.348 453.129L62.9609 427.586V431.999L125.348 457.585V453.129Z" fill="#1F788B"/>
<path d="M125.34 453.135L152.607 444.887V449.299L125.34 457.592V453.135Z" fill="#2A97AF"/>
<path d="M118.273 449.357L52.2656 422.343L64.9699 418.49L130.925 445.545L118.273 449.357Z" fill="url(#paint42_linear_1041_6846)"/>
<path d="M118.272 449.349L52.2656 422.325V425.576L118.272 452.647V449.349Z" fill="#00DFC9"/>
<path d="M118.266 449.356L130.924 445.546V448.782L118.266 452.639V449.356Z" fill="#2A97AF"/>
<g opacity="0.5">
<g filter="url(#filter26_f_1041_6846)">
<path fill-rule="evenodd" clip-rule="evenodd" d="M151.933 285.711L140.164 320.559C139.74 321.785 140.399 323.105 141.624 323.577L164.785 331.404C166.244 331.875 167.845 331.073 168.363 329.612L171.599 320.008C172.612 320.735 174.059 321.073 175.528 320.477C176.195 320.213 176.872 319.817 177.546 319.333L178.1 319.521C177.956 319.635 177.82 319.735 177.693 319.816C175.904 321.042 178.635 323.825 181.177 322.834C182.054 322.505 182.866 321.995 183.61 321.386L183.912 321.488C182.74 322.477 184.914 324.842 187.627 324.013C188.242 323.82 188.791 323.585 189.293 323.31L211.39 330.791C214.028 331.687 216.852 330.273 217.746 327.632C218.641 324.991 217.228 322.162 214.592 321.266L208.775 319.296C212.202 318.746 215.497 318.131 218.662 317.458C213.546 309.182 207.283 301.03 199.856 293.406C197.612 293.681 195.295 293.94 192.894 294.196C191.217 294.379 189.84 294.985 188.739 295.899C188.169 295.851 187.592 295.897 187.014 296.051C185.267 296.52 181.553 296.99 179.432 296.76L179.755 295.803C180.226 294.482 179.614 292.973 178.343 292.36L165.256 285.9C164.045 285.293 162.695 284.918 161.345 284.773C161.331 284.771 161.318 284.77 161.304 284.769H161.301L154.381 284.108C153.298 284.014 152.263 284.674 151.933 285.711Z" fill="#091F44"/>
</g>
</g>
<path d="M128.465 366.261C130.974 373.277 136.293 377.786 140.344 376.333C144.396 374.879 145.647 368.014 143.138 360.997C140.63 353.98 135.311 349.471 131.26 350.924C127.208 352.379 125.957 359.244 128.465 366.261Z" fill="#E7F4FA"/>
<path d="M190.892 291.442C217.02 288.66 233.355 285.359 251.527 268.855C262.496 258.906 259.906 243.769 241.405 250.323C230.436 254.19 213.396 273.233 191.412 287.474C182.045 293.919 174.415 283.048 180.629 278.239C216.972 249.993 240.934 211.374 273.606 234.904C295.59 250.748 291.239 306.913 196.965 317.896C182.922 320.267 177.764 292.875 190.892 291.442Z" fill="#B7D5E8"/>
<g filter="url(#filter27_f_1041_6846)">
<path d="M193.57 313.22C195.429 314.493 197.661 315.103 200.202 314.674C288.71 304.362 292.796 251.633 272.155 236.758C270.421 235.509 268.712 234.446 267.025 233.558C268.205 234.249 269.396 235.026 270.6 235.893C291.24 250.767 287.154 303.496 198.647 313.808C196.779 314.123 195.078 313.878 193.57 313.22Z" fill="url(#paint43_linear_1041_6846)"/>
</g>
<path d="M184.753 307.12C186.646 313.947 191.517 318.554 195.632 317.409C199.748 316.264 201.55 309.801 199.656 302.973C197.762 296.146 192.891 291.54 188.776 292.684C184.66 293.829 182.859 300.293 184.753 307.12Z" fill="#A5C3D7"/>
<path d="M142.995 346.944C149.884 340.84 158.47 339.904 160.369 339.699C162.268 339.495 164.484 341.122 163.052 344.179C161.621 347.236 157.509 347.976 155.049 350.369C152.589 352.763 151.789 356.15 148.617 358.994C141.948 364.972 136.106 353.047 142.995 346.944Z" fill="url(#paint44_linear_1041_6846)"/>
<path d="M144.234 362.551L153.179 364.296L160.052 329.166C160.476 327.091 151.485 325.346 151.107 327.421L144.234 362.551Z" fill="url(#paint45_linear_1041_6846)"/>
<path d="M136.659 405.928L145.604 407.673L152.76 371.256C153.037 369.845 152.003 368.577 151.003 367.547C149.994 366.508 149.899 365.11 150.056 364.196C149.291 364.204 148.665 364.766 148.259 365.417C147.901 365.991 147.402 366.443 146.82 366.744C145.57 367.391 144.154 368.201 143.857 369.577L136.27 404.775L136.659 405.928Z" fill="url(#paint46_linear_1041_6846)"/>
<path d="M136.242 404.79L145.187 406.534L152.238 371.477C152.523 370.062 151.486 368.788 150.486 367.75C149.485 366.713 149.39 365.319 149.548 364.408L148.19 364.138C147.933 365.288 147.221 366.164 146.292 366.657C145.036 367.321 143.606 368.154 143.326 369.548L136.242 404.79Z" fill="url(#paint47_linear_1041_6846)"/>
<path d="M133.833 369.474L136.933 367.805C137.662 367.413 138.474 367.213 139.294 367.115C141.656 366.833 143.823 365.999 144.77 365.294C146.785 363.77 148.392 364.379 150.739 365.268C151.046 365.385 151.367 365.506 151.703 365.629C154.552 366.634 156.784 363.092 154.267 361.177C151.798 359.262 147.192 358.161 144.486 358.064C144.2 358.064 144.153 357.73 144.438 357.73C147.287 357.73 150.801 358.831 154.552 360.41C157.924 361.847 159.539 356.963 155.976 355.001C152.368 352.989 147.524 352.08 145.007 351.841C144.817 351.841 144.817 351.505 145.007 351.505C147.714 351.601 154.505 353.229 156.499 354.331C158.399 355.384 160.203 352.416 158.399 350.26C155.786 347.149 148.047 345.521 146.195 345.377C146.005 345.377 146.005 345.138 146.195 345.138C148.427 345.186 154.79 347.101 156.119 348.058C157.497 349.064 159.063 345.999 157.307 343.702C155.359 341.165 146.285 337.765 141.252 338.675C135.806 339.673 131.331 347.947 130.344 355.314C129.417 360.178 131.041 365.504 133.833 369.474Z" fill="#719BB3"/>
<path opacity="0.42" d="M131.43 350.394C134.327 342.01 138.923 338.682 141.951 338.61C138.859 340.355 139.356 352.779 143.905 363.423C132.035 367.838 129.027 357.35 131.43 350.394Z" fill="url(#paint48_linear_1041_6846)"/>
<path d="M150.678 296.55L211.407 317.109C214.044 318.005 215.455 320.834 214.561 323.475C213.667 326.116 210.842 327.53 208.206 326.634L147.477 306.075L150.678 296.55Z" fill="url(#paint49_linear_1041_6846)"/>
<path d="M171.171 297.289C171.171 297.289 171.924 297.996 173.242 299.034C175.454 300.778 167.075 307.238 165.145 309.549C163.214 311.86 164.486 315.585 167.593 315.019C174.324 313.699 179.032 307.003 180.821 305.022C181.009 304.834 181.292 304.975 181.104 305.164C179.315 307.333 175.784 311.812 172.159 313.604C168.911 315.208 172.489 319.687 176.208 318.178C180.021 316.669 184.211 310.822 185.905 308.983C186.047 308.842 186.282 309.03 186.141 309.172C184.399 311.246 180.257 316.292 178.373 317.518C176.584 318.744 179.315 321.526 181.857 320.536C185.623 319.121 188.212 314.359 189.248 312.802C189.342 312.614 189.578 312.755 189.483 312.897C188.353 314.783 186.047 318.226 184.682 319.121C183.316 320.065 185.529 322.564 188.307 321.715C191.319 320.772 192.779 318.791 194.474 316.198C195.792 314.17 196.781 311.53 197.252 308.889C198.758 300.496 193.203 292.291 187.694 293.752C185.764 294.271 181.434 294.79 179.503 294.365C176.679 293.705 173.477 293.705 171.171 297.289Z" fill="#719BB3"/>
<path d="M138.449 316.668L150.218 281.821C150.547 280.784 151.584 280.124 152.666 280.217L159.587 280.878C160.952 281.019 162.316 281.396 163.541 282.01L176.628 288.47C177.9 289.082 178.511 290.591 178.041 291.912L166.648 325.721C166.13 327.183 164.529 327.985 163.07 327.514L139.908 319.686C138.684 319.215 138.025 317.895 138.449 316.668Z" fill="url(#paint50_linear_1041_6846)"/>
<path d="M138.448 316.668L150.217 281.821C150.546 280.784 151.583 280.123 152.665 280.217L159.586 280.877C160.621 280.972 161.327 282.056 160.998 283.047L148.334 320.724C148.052 321.619 147.11 322.091 146.216 321.761L139.955 319.639C138.684 319.215 138.025 317.894 138.448 316.668Z" fill="url(#paint51_linear_1041_6846)"/>
<path fill-rule="evenodd" clip-rule="evenodd" d="M139.702 317.103L139.705 317.094L151.474 282.246C151.477 282.239 151.479 282.232 151.482 282.224C151.614 281.807 152.055 281.5 152.546 281.541L159.465 282.201C159.54 282.208 159.627 282.252 159.692 282.352C159.757 282.452 159.764 282.551 159.74 282.626V282.627L147.077 320.299C147.074 320.307 147.071 320.315 147.069 320.323C147.038 320.422 146.979 320.48 146.919 320.509C146.859 320.538 146.778 320.552 146.675 320.514C146.664 320.509 146.653 320.506 146.641 320.502L140.375 318.378C139.779 318.179 139.528 317.605 139.702 317.103ZM160.998 283.047C161.327 282.056 160.621 280.972 159.586 280.877L152.665 280.217C151.583 280.123 150.546 280.784 150.217 281.821L138.448 316.668C138.025 317.894 138.684 319.215 139.955 319.639L146.216 321.761C147.11 322.091 148.052 321.619 148.334 320.724L160.998 283.047Z" fill="url(#paint52_radial_1041_6846)"/>
<path d="M146.375 304.898L149.2 296.505C149.294 296.222 149.623 296.033 149.906 296.081L151.896 296.52C152.272 296.615 152.508 296.992 152.367 297.369L149.494 305.951C149.401 306.281 149.025 306.47 148.695 306.375L146.752 305.795C146.423 305.606 146.235 305.228 146.375 304.898Z" fill="url(#paint53_linear_1041_6846)"/>
<path d="M208.138 439.494L165.199 422.371C165.962 414.32 171.151 406.675 178.121 402.038C182.751 398.929 189.671 398.317 190.84 398.623C202.288 401.732 218.975 406.42 230.32 409.631C218.822 412.025 210.631 426.04 208.138 439.494Z" fill="url(#paint54_linear_1041_6846)"/>
<path fill-rule="evenodd" clip-rule="evenodd" d="M165.07 414.33L211.296 432.304L211.706 431.247L165.479 413.273L165.07 414.33Z" fill="#08274B"/>
<path fill-rule="evenodd" clip-rule="evenodd" d="M170.004 407.054L216.62 424.589L217.018 423.528L170.402 405.993L170.004 407.054Z" fill="#08274B"/>
<path fill-rule="evenodd" clip-rule="evenodd" d="M174.387 399.976L221.647 415.128L221.992 414.048L174.732 398.896L174.387 399.976Z" fill="#08274B"/>
<path d="M164.164 421.41C164.164 421.41 164.179 412.791 173.235 403.872C180.663 396.586 189.362 397.146 190.228 397.197C191.093 397.248 192.423 398.093 192.627 399.112C191.979 398.934 190.755 398.608 190.755 398.608C189.351 398.444 181.986 398.777 175.982 403.618C169.979 408.46 166.568 415.137 165.601 421.966C165.163 421.795 164.164 421.41 164.164 421.41Z" fill="#082244"/>
<path d="M185.745 396.025C187.119 396.382 188.923 396.774 190.5 397.233C187.276 397.059 182.032 397.554 177.3 400.713C170.343 405.376 165.157 412.999 164.217 421.009C164.19 421.242 164.324 421.463 164.542 421.549L207.18 438.543C207.488 438.666 207.831 438.477 207.895 438.151C210.467 425.099 218.279 411.723 229.245 408.714C229.906 408.51 230.669 408.561 231.331 408.714C238.351 410.702 243.185 412.077 243.185 412.077C226.752 409.631 216.727 420.922 211.59 445.915L158.781 424.869C158.781 404.229 176.231 392.814 185.745 396.025Z" fill="url(#paint55_linear_1041_6846)"/>
<path fill-rule="evenodd" clip-rule="evenodd" d="M185.446 396.999L185.472 397.007C192.041 398.843 198.611 400.668 205.181 402.493C215.301 405.303 225.418 408.113 235.523 410.965C230.452 411.679 226.084 414.025 222.405 418.015C217.187 423.672 213.422 432.558 210.844 444.52L159.805 424.179C159.995 414.497 164.152 406.996 169.379 402.259C174.784 397.359 181.15 395.55 185.421 396.991L185.446 396.999ZM158.781 424.869L211.59 445.915C211.661 445.575 211.731 445.238 211.803 444.902C216.461 423.143 224.953 412.087 238.329 411.758C239.881 411.72 241.499 411.826 243.185 412.077C241.61 411.629 240.035 411.182 238.46 410.736C227.467 407.624 216.458 404.567 205.448 401.51C198.88 399.684 192.31 397.86 185.745 396.025C176.231 392.814 158.781 404.229 158.781 424.869Z" fill="url(#paint56_linear_1041_6846)"/>
<path d="M255.657 435.365L211.598 445.914C211.598 445.914 216.736 411.313 237.952 411.313C256.622 411.313 255.657 435.365 255.657 435.365Z" fill="#5A8A9F"/>
<path fill-rule="evenodd" clip-rule="evenodd" d="M255.657 435.365L211.598 445.914C211.598 445.914 211.658 445.508 211.792 444.785C212.898 438.828 219.032 411.313 237.952 411.313C256.622 411.313 255.657 435.365 255.657 435.365ZM212.913 444.518C213.092 443.593 213.365 442.303 213.751 440.764C214.555 437.559 215.841 433.299 217.775 429.05C221.682 420.464 228.011 412.365 237.952 412.365C242.371 412.365 245.561 413.78 247.897 415.857C250.255 417.955 251.803 420.783 252.814 423.685C253.822 426.584 254.273 429.499 254.469 431.701C254.567 432.799 254.601 433.713 254.611 434.348C254.612 434.412 254.612 434.474 254.613 434.533L212.913 444.518Z" fill="url(#paint57_linear_1041_6846)"/>
<path d="M250.263 431.29C249.856 427.569 248.634 422.575 245.684 419.518C243.75 417.53 241.257 416.562 237.95 416.562C229.864 416.544 225.943 421.301 221.619 430.627C220.446 433.158 219.552 435.69 218.833 438.008C218.712 438.395 219.06 438.764 219.454 438.67L250.263 431.29Z" fill="#082245"/>
<path d="M248.625 431.74C248.218 428.02 246.997 423.026 244.046 419.968C242.112 417.981 239.62 417.012 236.313 417.012C229.801 417.012 225.943 421.301 221.619 430.627C220.446 433.159 219.552 435.691 218.833 438.01C218.712 438.397 219.059 438.766 219.453 438.672L248.625 431.74Z" fill="url(#paint58_linear_1041_6846)"/>
<path d="M127.757 435.821L58.8359 417.479L68.7946 412.967L137.668 431.357L127.757 435.821Z" fill="url(#paint59_linear_1041_6846)"/>
<path d="M127.757 435.821L58.8359 417.479V420.462L127.757 438.853V435.821Z" fill="#00DFC9"/>
<path d="M127.758 435.82L137.659 431.359V434.356L127.758 438.864V435.82Z" fill="#2A97AF"/>
<path d="M204.64 449.927V447.816L160.859 456.195V458.305L204.64 449.927Z" fill="url(#paint60_linear_1041_6846)"/>
<path d="M184.742 469.12L192.893 467.553L160.857 456.194L204.638 447.816L198.678 445.706L146.789 455.651L184.742 469.12Z" fill="url(#paint61_linear_1041_6846)"/>
<path fill-rule="evenodd" clip-rule="evenodd" d="M192.893 467.553L184.742 469.12L146.789 455.651L198.678 445.706L204.638 447.816L160.857 456.194L192.893 467.553ZM202.478 447.652L158.698 456.03L190.738 467.39L184.785 468.535L148.944 455.814L198.633 446.292L202.478 447.652Z" fill="url(#paint62_radial_1041_6846)"/>
<path d="M184.764 471.208L184.742 469.12L146.789 455.65V457.739L184.764 471.208Z" fill="url(#paint63_linear_1041_6846)"/>
<path d="M192.89 469.664V467.553L184.738 469.12L184.761 471.209L192.89 469.664Z" fill="#3B566B"/>
<g opacity="0.64">
<path d="M156.457 180.261C142.95 172.221 115.617 172.206 95.6791 188.622C65.1294 214.62 82.8162 248.756 90.6394 255.286C74.7767 231.713 78.503 207 100.824 188.622C119.371 173.351 143.594 174.434 156.457 180.261Z" fill="url(#paint64_linear_1041_6846)"/>
</g>
<g filter="url(#filter28_f_1041_6846)">
<path d="M79.9158 199.836C82.9331 204.534 91.5913 204.354 99.2545 199.433C106.918 194.512 110.684 186.714 107.666 182.015C104.649 177.316 95.9909 177.497 88.3278 182.418C80.6647 187.339 76.8985 195.137 79.9158 199.836Z" fill="url(#paint65_radial_1041_6846)"/>
</g>
<g filter="url(#filter29_f_1041_6846)">
<path d="M83.0518 197.823C85.3875 201.46 92.0899 201.321 98.022 197.511C103.954 193.702 106.87 187.665 104.534 184.028C102.198 180.391 95.4958 180.53 89.5636 184.34C83.6315 188.149 80.7161 194.186 83.0518 197.823Z" fill="url(#paint66_radial_1041_6846)"/>
</g>
</g>
<defs>
<filter id="filter0_f_1041_6846" x="-302.451" y="-354.451" width="770.152" height="770.153" filterUnits="userSpaceOnUse" color-interpolation-filters="sRGB">
<feFlood flood-opacity="0" result="BackgroundImageFix"/>
<feBlend mode="normal" in="SourceGraphic" in2="BackgroundImageFix" result="shape"/>
<feGaussianBlur stdDeviation="85.7254" result="effect1_foregroundBlur_1041_6846"/>
</filter>
<filter id="filter1_b_1041_6846" x="257.286" y="162.254" width="16.4818" height="16.4743" filterUnits="userSpaceOnUse" color-interpolation-filters="sRGB">
<feFlood flood-opacity="0" result="BackgroundImageFix"/>
<feGaussianBlur in="BackgroundImage" stdDeviation="1.10679"/>
<feComposite in2="SourceAlpha" operator="in" result="effect1_backgroundBlur_1041_6846"/>
<feBlend mode="normal" in="SourceGraphic" in2="effect1_backgroundBlur_1041_6846" result="shape"/>
</filter>
<filter id="filter2_b_1041_6846" x="211.743" y="150.225" width="16.8178" height="16.1486" filterUnits="userSpaceOnUse" color-interpolation-filters="sRGB">
<feFlood flood-opacity="0" result="BackgroundImageFix"/>
<feGaussianBlur in="BackgroundImage" stdDeviation="1.10679"/>
<feComposite in2="SourceAlpha" operator="in" result="effect1_backgroundBlur_1041_6846"/>
<feBlend mode="normal" in="SourceGraphic" in2="effect1_backgroundBlur_1041_6846" result="shape"/>
</filter>
<filter id="filter3_b_1041_6846" x="254.837" y="160.201" width="16.8178" height="16.1486" filterUnits="userSpaceOnUse" color-interpolation-filters="sRGB">
<feFlood flood-opacity="0" result="BackgroundImageFix"/>
<feGaussianBlur in="BackgroundImage" stdDeviation="1.10679"/>
<feComposite in2="SourceAlpha" operator="in" result="effect1_backgroundBlur_1041_6846"/>
<feBlend mode="normal" in="SourceGraphic" in2="effect1_backgroundBlur_1041_6846" result="shape"/>
</filter>
<filter id="filter4_b_1041_6846" x="254.29" y="65.3201" width="16.8178" height="16.1486" filterUnits="userSpaceOnUse" color-interpolation-filters="sRGB">
<feFlood flood-opacity="0" result="BackgroundImageFix"/>
<feGaussianBlur in="BackgroundImage" stdDeviation="1.10679"/>
<feComposite in2="SourceAlpha" operator="in" result="effect1_backgroundBlur_1041_6846"/>
<feBlend mode="normal" in="SourceGraphic" in2="effect1_backgroundBlur_1041_6846" result="shape"/>
</filter>
<filter id="filter5_b_1041_6846" x="203.993" y="131.382" width="11.7943" height="11.5902" filterUnits="userSpaceOnUse" color-interpolation-filters="sRGB">
<feFlood flood-opacity="0" result="BackgroundImageFix"/>
<feGaussianBlur in="BackgroundImage" stdDeviation="1.10679"/>
<feComposite in2="SourceAlpha" operator="in" result="effect1_backgroundBlur_1041_6846"/>
<feBlend mode="normal" in="SourceGraphic" in2="effect1_backgroundBlur_1041_6846" result="shape"/>
</filter>
<filter id="filter6_f_1041_6846" x="269.602" y="171.144" width="5.69885" height="5.04919" filterUnits="userSpaceOnUse" color-interpolation-filters="sRGB">
<feFlood flood-opacity="0" result="BackgroundImageFix"/>
<feBlend mode="normal" in="SourceGraphic" in2="BackgroundImageFix" result="shape"/>
<feGaussianBlur stdDeviation="0.511626" result="effect1_foregroundBlur_1041_6846"/>
</filter>
<filter id="filter7_f_1041_6846" x="269.656" y="170.31" width="7.77697" height="5.73388" filterUnits="userSpaceOnUse" color-interpolation-filters="sRGB">
<feFlood flood-opacity="0" result="BackgroundImageFix"/>
<feBlend mode="normal" in="SourceGraphic" in2="BackgroundImageFix" result="shape"/>
<feGaussianBlur stdDeviation="0.511626" result="effect1_foregroundBlur_1041_6846"/>
</filter>
<filter id="filter8_f_1041_6846" x="267.852" y="165.618" width="2.73791" height="8.05541" filterUnits="userSpaceOnUse" color-interpolation-filters="sRGB">
<feFlood flood-opacity="0" result="BackgroundImageFix"/>
<feBlend mode="normal" in="SourceGraphic" in2="BackgroundImageFix" result="shape"/>
<feGaussianBlur stdDeviation="0.511626" result="effect1_foregroundBlur_1041_6846"/>
</filter>
<filter id="filter9_f_1041_6846" x="268.909" y="163.594" width="19.5018" height="13.0036" filterUnits="userSpaceOnUse" color-interpolation-filters="sRGB">
<feFlood flood-opacity="0" result="BackgroundImageFix"/>
<feBlend mode="normal" in="SourceGraphic" in2="BackgroundImageFix" result="shape"/>
<feGaussianBlur stdDeviation="0.922322" result="effect1_foregroundBlur_1041_6846"/>
</filter>
<filter id="filter10_f_1041_6846" x="258.793" y="68.283" width="5.69885" height="5.04919" filterUnits="userSpaceOnUse" color-interpolation-filters="sRGB">
<feFlood flood-opacity="0" result="BackgroundImageFix"/>
<feBlend mode="normal" in="SourceGraphic" in2="BackgroundImageFix" result="shape"/>
<feGaussianBlur stdDeviation="0.511626" result="effect1_foregroundBlur_1041_6846"/>
</filter>
<filter id="filter11_f_1041_6846" x="256.66" y="67.4488" width="7.77697" height="5.73388" filterUnits="userSpaceOnUse" color-interpolation-filters="sRGB">
<feFlood flood-opacity="0" result="BackgroundImageFix"/>
<feBlend mode="normal" in="SourceGraphic" in2="BackgroundImageFix" result="shape"/>
<feGaussianBlur stdDeviation="0.511626" result="effect1_foregroundBlur_1041_6846"/>
</filter>
<filter id="filter12_f_1041_6846" x="256.886" y="68.0217" width="10.8955" height="8.85238" filterUnits="userSpaceOnUse" color-interpolation-filters="sRGB">
<feFlood flood-opacity="0" result="BackgroundImageFix"/>
<feBlend mode="normal" in="SourceGraphic" in2="BackgroundImageFix" result="shape"/>
<feGaussianBlur stdDeviation="1.29125" result="effect1_foregroundBlur_1041_6846"/>
</filter>
<filter id="filter13_f_1041_6846" x="245.683" y="60.7337" width="19.5018" height="13.0036" filterUnits="userSpaceOnUse" color-interpolation-filters="sRGB">
<feFlood flood-opacity="0" result="BackgroundImageFix"/>
<feBlend mode="normal" in="SourceGraphic" in2="BackgroundImageFix" result="shape"/>
<feGaussianBlur stdDeviation="0.922322" result="effect1_foregroundBlur_1041_6846"/>
</filter>
<filter id="filter14_f_1041_6846" x="19.3005" y="362.877" width="286.243" height="64.9777" filterUnits="userSpaceOnUse" color-interpolation-filters="sRGB">
<feFlood flood-opacity="0" result="BackgroundImageFix"/>
<feBlend mode="normal" in="SourceGraphic" in2="BackgroundImageFix" result="shape"/>
<feGaussianBlur stdDeviation="9.99817" result="effect1_foregroundBlur_1041_6846"/>
</filter>
<filter id="filter15_f_1041_6846" x="62.6454" y="421.227" width="107.783" height="46.6094" filterUnits="userSpaceOnUse" color-interpolation-filters="sRGB">
<feFlood flood-opacity="0" result="BackgroundImageFix"/>
<feBlend mode="normal" in="SourceGraphic" in2="BackgroundImageFix" result="shape"/>
<feGaussianBlur stdDeviation="2.49954" result="effect1_foregroundBlur_1041_6846"/>
</filter>
<filter id="filter16_f_1041_6846" x="69.0087" y="388.989" width="113.807" height="43.9584" filterUnits="userSpaceOnUse" color-interpolation-filters="sRGB">
<feFlood flood-opacity="0" result="BackgroundImageFix"/>
<feBlend mode="normal" in="SourceGraphic" in2="BackgroundImageFix" result="shape"/>
<feGaussianBlur stdDeviation="2.49954" result="effect1_foregroundBlur_1041_6846"/>
</filter>
<filter id="filter17_f_1041_6846" x="161.599" y="410.388" width="130.514" height="51.8307" filterUnits="userSpaceOnUse" color-interpolation-filters="sRGB">
<feFlood flood-opacity="0" result="BackgroundImageFix"/>
<feBlend mode="normal" in="SourceGraphic" in2="BackgroundImageFix" result="shape"/>
<feGaussianBlur stdDeviation="2.49954" result="effect1_foregroundBlur_1041_6846"/>
</filter>
<filter id="filter18_f_1041_6846" x="145.673" y="444.355" width="67.8458" height="33.412" filterUnits="userSpaceOnUse" color-interpolation-filters="sRGB">
<feFlood flood-opacity="0" result="BackgroundImageFix"/>
<feBlend mode="normal" in="SourceGraphic" in2="BackgroundImageFix" result="shape"/>
<feGaussianBlur stdDeviation="2.49954" result="effect1_foregroundBlur_1041_6846"/>
</filter>
<filter id="filter19_f_1041_6846" x="59.869" y="216.334" width="39.1721" height="46.1505" filterUnits="userSpaceOnUse" color-interpolation-filters="sRGB">
<feFlood flood-opacity="0" result="BackgroundImageFix"/>
<feBlend mode="normal" in="SourceGraphic" in2="BackgroundImageFix" result="shape"/>
<feGaussianBlur stdDeviation="4.99908" result="effect1_foregroundBlur_1041_6846"/>
</filter>
<filter id="filter20_f_1041_6846" x="106.7" y="275.213" width="149.678" height="152.896" filterUnits="userSpaceOnUse" color-interpolation-filters="sRGB">
<feFlood flood-opacity="0" result="BackgroundImageFix"/>
<feBlend mode="normal" in="SourceGraphic" in2="BackgroundImageFix" result="shape"/>
<feGaussianBlur stdDeviation="12.4977" result="effect1_foregroundBlur_1041_6846"/>
</filter>
<filter id="filter21_f_1041_6846" x="72.994" y="380.108" width="54.7385" height="28.4431" filterUnits="userSpaceOnUse" color-interpolation-filters="sRGB">
<feFlood flood-opacity="0" result="BackgroundImageFix"/>
<feBlend mode="normal" in="SourceGraphic" in2="BackgroundImageFix" result="shape"/>
<feGaussianBlur stdDeviation="4.99908" result="effect1_foregroundBlur_1041_6846"/>
</filter>
<filter id="filter22_f_1041_6846" x="74.0046" y="161.536" width="148.319" height="166.686" filterUnits="userSpaceOnUse" color-interpolation-filters="sRGB">
<feFlood flood-opacity="0" result="BackgroundImageFix"/>
<feBlend mode="normal" in="SourceGraphic" in2="BackgroundImageFix" result="shape"/>
<feGaussianBlur stdDeviation="12.4977" result="effect1_foregroundBlur_1041_6846"/>
</filter>
<filter id="filter23_f_1041_6846" x="68.4637" y="166.871" width="105.245" height="102.028" filterUnits="userSpaceOnUse" color-interpolation-filters="sRGB">
<feFlood flood-opacity="0" result="BackgroundImageFix"/>
<feBlend mode="normal" in="SourceGraphic" in2="BackgroundImageFix" result="shape"/>
<feGaussianBlur stdDeviation="7.49863" result="effect1_foregroundBlur_1041_6846"/>
</filter>
<filter id="filter24_f_1041_6846" x="70.8757" y="185.72" width="80.2174" height="74.1382" filterUnits="userSpaceOnUse" color-interpolation-filters="sRGB">
<feFlood flood-opacity="0" result="BackgroundImageFix"/>
<feBlend mode="normal" in="SourceGraphic" in2="BackgroundImageFix" result="shape"/>
<feGaussianBlur stdDeviation="12.4977" result="effect1_foregroundBlur_1041_6846"/>
</filter>
<filter id="filter25_f_1041_6846" x="153.221" y="174.183" width="39.4924" height="45.453" filterUnits="userSpaceOnUse" color-interpolation-filters="sRGB">
<feFlood flood-opacity="0" result="BackgroundImageFix"/>
<feBlend mode="normal" in="SourceGraphic" in2="BackgroundImageFix" result="shape"/>
<feGaussianBlur stdDeviation="4.99908" result="effect1_foregroundBlur_1041_6846"/>
</filter>
<filter id="filter26_f_1041_6846" x="130.037" y="274.101" width="98.6213" height="67.4366" filterUnits="userSpaceOnUse" color-interpolation-filters="sRGB">
<feFlood flood-opacity="0" result="BackgroundImageFix"/>
<feBlend mode="normal" in="SourceGraphic" in2="BackgroundImageFix" result="shape"/>
<feGaussianBlur stdDeviation="4.99908" result="effect1_foregroundBlur_1041_6846"/>
</filter>
<filter id="filter27_f_1041_6846" x="188.571" y="228.559" width="98.8732" height="91.2506" filterUnits="userSpaceOnUse" color-interpolation-filters="sRGB">
<feFlood flood-opacity="0" result="BackgroundImageFix"/>
<feBlend mode="normal" in="SourceGraphic" in2="BackgroundImageFix" result="shape"/>
<feGaussianBlur stdDeviation="2.49954" result="effect1_foregroundBlur_1041_6846"/>
</filter>
<filter id="filter28_f_1041_6846" x="68.8768" y="168.608" width="49.8284" height="44.6356" filterUnits="userSpaceOnUse" color-interpolation-filters="sRGB">
<feFlood flood-opacity="0" result="BackgroundImageFix"/>
<feBlend mode="normal" in="SourceGraphic" in2="BackgroundImageFix" result="shape"/>
<feGaussianBlur stdDeviation="4.99908" result="effect1_foregroundBlur_1041_6846"/>
</filter>
<filter id="filter29_f_1041_6846" x="72.2479" y="171.391" width="43.0901" height="39.0697" filterUnits="userSpaceOnUse" color-interpolation-filters="sRGB">
<feFlood flood-opacity="0" result="BackgroundImageFix"/>
<feBlend mode="normal" in="SourceGraphic" in2="BackgroundImageFix" result="shape"/>
<feGaussianBlur stdDeviation="4.99908" result="effect1_foregroundBlur_1041_6846"/>
</filter>
<linearGradient id="paint0_linear_1041_6846" x1="270.063" y1="176.407" x2="287.597" y2="160.003" gradientUnits="userSpaceOnUse">
<stop stop-color="#06C7B4"/>
<stop offset="1" stop-color="#06C7B4" stop-opacity="0"/>
</linearGradient>
<linearGradient id="paint1_linear_1041_6846" x1="284.417" y1="176.407" x2="281.248" y2="176.407" gradientUnits="userSpaceOnUse">
<stop stop-color="white"/>
<stop offset="1" stop-color="white" stop-opacity="0"/>
</linearGradient>
<linearGradient id="paint2_linear_1041_6846" x1="216.896" y1="167.07" x2="217.112" y2="155.763" gradientUnits="userSpaceOnUse">
<stop stop-color="#57FFEE"/>
<stop offset="1" stop-color="#57FFEE" stop-opacity="0"/>
</linearGradient>
<linearGradient id="paint3_linear_1041_6846" x1="220.886" y1="169.73" x2="220.239" y2="150.553" gradientUnits="userSpaceOnUse">
<stop stop-color="#7AFFF2"/>
<stop offset="1" stop-color="#7AFFF2" stop-opacity="0"/>
</linearGradient>
<linearGradient id="paint4_linear_1041_6846" x1="216.44" y1="152.438" x2="216.656" y2="153.66" gradientUnits="userSpaceOnUse">
<stop stop-color="#7AFFF2"/>
<stop offset="1" stop-color="#7AFFF2" stop-opacity="0"/>
</linearGradient>
<linearGradient id="paint5_linear_1041_6846" x1="259.99" y1="177.045" x2="260.205" y2="165.739" gradientUnits="userSpaceOnUse">
<stop stop-color="#57FFEE"/>
<stop offset="1" stop-color="#57FFEE" stop-opacity="0"/>
</linearGradient>
<linearGradient id="paint6_linear_1041_6846" x1="263.98" y1="179.705" x2="263.333" y2="160.529" gradientUnits="userSpaceOnUse">
<stop stop-color="#7AFFF2"/>
<stop offset="1" stop-color="#7AFFF2" stop-opacity="0"/>
</linearGradient>
<linearGradient id="paint7_linear_1041_6846" x1="259.534" y1="162.414" x2="259.75" y2="163.636" gradientUnits="userSpaceOnUse">
<stop stop-color="#7AFFF2"/>
<stop offset="1" stop-color="#7AFFF2" stop-opacity="0"/>
</linearGradient>
<linearGradient id="paint8_linear_1041_6846" x1="259.443" y1="82.1648" x2="259.658" y2="70.8587" gradientUnits="userSpaceOnUse">
<stop stop-color="#57FFEE"/>
<stop offset="1" stop-color="#57FFEE" stop-opacity="0"/>
</linearGradient>
<linearGradient id="paint9_linear_1041_6846" x1="263.433" y1="84.825" x2="262.786" y2="65.6481" gradientUnits="userSpaceOnUse">
<stop stop-color="#7AFFF2"/>
<stop offset="1" stop-color="#7AFFF2" stop-opacity="0"/>
</linearGradient>
<linearGradient id="paint10_linear_1041_6846" x1="258.987" y1="67.5337" x2="259.203" y2="68.7551" gradientUnits="userSpaceOnUse">
<stop stop-color="#7AFFF2"/>
<stop offset="1" stop-color="#7AFFF2" stop-opacity="0"/>
</linearGradient>
<linearGradient id="paint11_linear_1041_6846" x1="205.295" y1="140.689" x2="215.729" y2="130.643" gradientUnits="userSpaceOnUse">
<stop stop-color="#06C7B4"/>
<stop offset="1" stop-color="#06C7B4" stop-opacity="0"/>
</linearGradient>
<linearGradient id="paint12_linear_1041_6846" x1="214.073" y1="140.689" x2="212.135" y2="140.689" gradientUnits="userSpaceOnUse">
<stop stop-color="white"/>
<stop offset="1" stop-color="white" stop-opacity="0"/>
</linearGradient>
<linearGradient id="paint13_linear_1041_6846" x1="249.722" y1="86.1704" x2="242.985" y2="87.4182" gradientUnits="userSpaceOnUse">
<stop stop-color="#091326"/>
<stop offset="1" stop-color="#091326" stop-opacity="0"/>
</linearGradient>
<radialGradient id="paint14_radial_1041_6846" cx="0" cy="0" r="1" gradientUnits="userSpaceOnUse" gradientTransform="translate(242.517 84.0298) rotate(53.6069) scale(3.567 3.53876)">
<stop stop-color="#ADFFF7"/>
<stop offset="0.704415" stop-color="#ADFFF7" stop-opacity="0"/>
</radialGradient>
<linearGradient id="paint15_linear_1041_6846" x1="274.219" y1="174.268" x2="276.466" y2="171.758" gradientUnits="userSpaceOnUse">
<stop stop-color="#ADFFF7"/>
<stop offset="1" stop-color="#ADFFF7" stop-opacity="0"/>
</linearGradient>
<linearGradient id="paint16_linear_1041_6846" x1="269.579" y1="169.65" x2="267.991" y2="168.624" gradientUnits="userSpaceOnUse">
<stop stop-color="#ADFFF7"/>
<stop offset="1" stop-color="#ADFFF7" stop-opacity="0"/>
</linearGradient>
<linearGradient id="paint17_linear_1041_6846" x1="279.57" y1="171.77" x2="281.284" y2="165.176" gradientUnits="userSpaceOnUse">
<stop stop-color="#ADFFF7"/>
<stop offset="1" stop-color="#ADFFF7" stop-opacity="0"/>
</linearGradient>
<linearGradient id="paint18_linear_1041_6846" x1="259.874" y1="71.4069" x2="257.628" y2="68.8974" gradientUnits="userSpaceOnUse">
<stop stop-color="#ADFFF7"/>
<stop offset="1" stop-color="#ADFFF7" stop-opacity="0"/>
</linearGradient>
<linearGradient id="paint19_linear_1041_6846" x1="261.659" y1="73.5391" x2="259.413" y2="71.0296" gradientUnits="userSpaceOnUse">
<stop stop-color="#ADFFF7"/>
<stop offset="1" stop-color="#ADFFF7" stop-opacity="0"/>
</linearGradient>
<linearGradient id="paint20_linear_1041_6846" x1="254.523" y1="68.9095" x2="252.809" y2="62.3155" gradientUnits="userSpaceOnUse">
<stop stop-color="#ADFFF7"/>
<stop offset="1" stop-color="#ADFFF7" stop-opacity="0"/>
</linearGradient>
<linearGradient id="paint21_linear_1041_6846" x1="261.146" y1="137.715" x2="287.842" y2="60.1126" gradientUnits="userSpaceOnUse">
<stop stop-color="#D8E1F4"/>
<stop offset="1" stop-color="#D8E1F4" stop-opacity="0.55"/>
</linearGradient>
<radialGradient id="paint22_radial_1041_6846" cx="0" cy="0" r="1" gradientUnits="userSpaceOnUse" gradientTransform="translate(162.421 395.365) rotate(0.0620211) scale(106.366 1051.82)">
<stop offset="0.515993" stop-color="#C1CBDE"/>
<stop offset="1" stop-color="#C1CBDE" stop-opacity="0"/>
</radialGradient>
<linearGradient id="paint23_linear_1041_6846" x1="73.812" y1="228.497" x2="95.036" y2="250.043" gradientUnits="userSpaceOnUse">
<stop stop-color="#B8D5E8"/>
<stop offset="1" stop-color="#8CB0C7"/>
</linearGradient>
<linearGradient id="paint24_linear_1041_6846" x1="110.793" y1="256.153" x2="72.8472" y2="249.721" gradientUnits="userSpaceOnUse">
<stop/>
<stop offset="1" stop-opacity="0"/>
</linearGradient>
<linearGradient id="paint25_linear_1041_6846" x1="132.853" y1="449.178" x2="136.117" y2="461.219" gradientUnits="userSpaceOnUse">
<stop stop-color="#C1CBDE"/>
<stop offset="1" stop-color="#C1CBDE" stop-opacity="0"/>
</linearGradient>
<linearGradient id="paint26_linear_1041_6846" x1="145.723" y1="420.275" x2="146.433" y2="428.068" gradientUnits="userSpaceOnUse">
<stop stop-color="#8CA0C7"/>
<stop offset="1" stop-color="#C1CBDE" stop-opacity="0"/>
</linearGradient>
<linearGradient id="paint27_linear_1041_6846" x1="229.97" y1="429.169" x2="234.371" y2="450.416" gradientUnits="userSpaceOnUse">
<stop stop-color="#C1CBDE"/>
<stop offset="1" stop-color="#C1CBDE" stop-opacity="0"/>
</linearGradient>
<radialGradient id="paint28_radial_1041_6846" cx="0" cy="0" r="1" gradientUnits="userSpaceOnUse" gradientTransform="translate(180.551 455.195) rotate(69.9895) scale(30.8478 76.2444)">
<stop stop-color="#C1CBDE"/>
<stop offset="1" stop-color="#C1CBDE" stop-opacity="0"/>
</radialGradient>
<linearGradient id="paint29_linear_1041_6846" x1="79.4546" y1="226.332" x2="79.4546" y2="252.486" gradientUnits="userSpaceOnUse">
<stop stop-color="white"/>
<stop offset="1" stop-color="#E4F2FB" stop-opacity="0"/>
</linearGradient>
<linearGradient id="paint30_linear_1041_6846" x1="110.475" y1="190.873" x2="156.079" y2="408.096" gradientUnits="userSpaceOnUse">
<stop stop-color="#C3D7E8"/>
<stop offset="0.396364" stop-color="#B4D2E7"/>
<stop offset="1" stop-color="#CBE5F3"/>
</linearGradient>
<radialGradient id="paint31_radial_1041_6846" cx="0" cy="0" r="1" gradientUnits="userSpaceOnUse" gradientTransform="translate(173.501 356.162) rotate(-46.7098) scale(60.9673 46.4981)">
<stop stop-color="#6D98B0" stop-opacity="0"/>
<stop offset="0.737304" stop-color="#85ABC1"/>
<stop offset="1" stop-color="#6D98B0"/>
</radialGradient>
<linearGradient id="paint32_linear_1041_6846" x1="121.98" y1="390.106" x2="121.98" y2="420.851" gradientUnits="userSpaceOnUse">
<stop stop-color="#00C9BF"/>
<stop offset="1" stop-color="#02417F"/>
</linearGradient>
<radialGradient id="paint33_radial_1041_6846" cx="0" cy="0" r="1" gradientUnits="userSpaceOnUse" gradientTransform="translate(115.939 212.74) rotate(-17.0271) scale(107.623 105.818)">
<stop offset="0.159348" stop-color="#7EA7C0" stop-opacity="0"/>
<stop offset="0.611341" stop-color="#376B87"/>
<stop offset="1" stop-color="#C3DFEF" stop-opacity="0"/>
</radialGradient>
<radialGradient id="paint34_radial_1041_6846" cx="0" cy="0" r="1" gradientUnits="userSpaceOnUse" gradientTransform="translate(83.1391 310.177) rotate(-17.86) scale(30.4072 9.79785)">
<stop stop-color="white"/>
<stop offset="1" stop-color="white" stop-opacity="0"/>
</radialGradient>
<linearGradient id="paint35_linear_1041_6846" x1="122.587" y1="310.338" x2="108.381" y2="309.22" gradientUnits="userSpaceOnUse">
<stop stop-color="#6B96AF"/>
<stop offset="1" stop-color="#59717F" stop-opacity="0"/>
</linearGradient>
<radialGradient id="paint36_radial_1041_6846" cx="0" cy="0" r="1" gradientUnits="userSpaceOnUse" gradientTransform="translate(110.151 202.128) rotate(51.4495) scale(26.3163 29.4999)">
<stop stop-color="white"/>
<stop offset="1" stop-color="#DAEFF9" stop-opacity="0.22"/>
</radialGradient>
<linearGradient id="paint37_linear_1041_6846" x1="121.085" y1="220.136" x2="144.56" y2="255.51" gradientUnits="userSpaceOnUse">
<stop/>
<stop offset="1" stop-color="#1749A2"/>
</linearGradient>
<radialGradient id="paint38_radial_1041_6846" cx="0" cy="0" r="1" gradientUnits="userSpaceOnUse" gradientTransform="translate(167.714 197.626) rotate(57.9381) scale(34.5301 27.1833)">
<stop stop-color="#B8D5E8"/>
<stop offset="0.649072" stop-color="#6D98B0"/>
<stop offset="0.906935" stop-color="#108CFF"/>
</radialGradient>
<radialGradient id="paint39_radial_1041_6846" cx="0" cy="0" r="1" gradientUnits="userSpaceOnUse" gradientTransform="translate(187.973 207.273) rotate(166.264) scale(14.897 15.736)">
<stop stop-color="white"/>
<stop offset="1" stop-color="white" stop-opacity="0"/>
</radialGradient>
<linearGradient id="paint40_linear_1041_6846" x1="167.775" y1="186.706" x2="179.568" y2="209.042" gradientUnits="userSpaceOnUse">
<stop stop-color="white"/>
<stop offset="1" stop-color="#D9E1EF" stop-opacity="0"/>
</linearGradient>
<linearGradient id="paint41_linear_1041_6846" x1="109.647" y1="421.814" x2="105.927" y2="450.633" gradientUnits="userSpaceOnUse">
<stop stop-color="#00DEC8"/>
<stop offset="1" stop-color="#023B82"/>
</linearGradient>
<linearGradient id="paint42_linear_1041_6846" x1="93.1207" y1="422.123" x2="90.0755" y2="445.718" gradientUnits="userSpaceOnUse">
<stop stop-color="#00DEC8"/>
<stop offset="1" stop-color="#023B82"/>
</linearGradient>
<linearGradient id="paint43_linear_1041_6846" x1="286.043" y1="256.256" x2="217.374" y2="314.81" gradientUnits="userSpaceOnUse">
<stop stop-color="#6A95AE" stop-opacity="0"/>
<stop offset="0.468027" stop-color="#6A95AE"/>
<stop offset="1" stop-color="#6A95AE" stop-opacity="0"/>
</linearGradient>
<linearGradient id="paint44_linear_1041_6846" x1="161.317" y1="342.349" x2="150.706" y2="346.71" gradientUnits="userSpaceOnUse">
<stop stop-color="#C1D8E3"/>
<stop offset="1" stop-color="#5B7E8E"/>
</linearGradient>
<linearGradient id="paint45_linear_1041_6846" x1="156.172" y1="320.796" x2="152.15" y2="345.878" gradientUnits="userSpaceOnUse">
<stop stop-color="#1564C7"/>
<stop offset="1" stop-color="#02050B"/>
</linearGradient>
<linearGradient id="paint46_linear_1041_6846" x1="152.064" y1="365.496" x2="144.74" y2="407.669" gradientUnits="userSpaceOnUse">
<stop stop-color="#8EB8CB"/>
<stop offset="1" stop-color="#BFD4DD"/>
</linearGradient>
<linearGradient id="paint47_linear_1041_6846" x1="137.381" y1="405.858" x2="148.841" y2="364.047" gradientUnits="userSpaceOnUse">
<stop stop-color="#91BACD"/>
<stop offset="1" stop-color="#6497AF"/>
</linearGradient>
<linearGradient id="paint48_linear_1041_6846" x1="141.418" y1="343.203" x2="133.871" y2="354.683" gradientUnits="userSpaceOnUse">
<stop stop-color="#DDECF3"/>
<stop offset="1" stop-color="#DDECF3" stop-opacity="0"/>
</linearGradient>
<linearGradient id="paint49_linear_1041_6846" x1="186.414" y1="315.244" x2="214.83" y2="326.903" gradientUnits="userSpaceOnUse">
<stop/>
<stop offset="1" stop-color="#165AB9"/>
</linearGradient>
<linearGradient id="paint50_linear_1041_6846" x1="153.068" y1="281.084" x2="166.769" y2="326.463" gradientUnits="userSpaceOnUse">
<stop stop-color="#92BACC"/>
<stop offset="1" stop-color="#72A5BC"/>
</linearGradient>
<linearGradient id="paint51_linear_1041_6846" x1="156.088" y1="280.821" x2="144.362" y2="320.018" gradientUnits="userSpaceOnUse">
<stop stop-color="#9FCADD"/>
<stop offset="1" stop-color="#8FB8CB"/>
</linearGradient>
<radialGradient id="paint52_radial_1041_6846" cx="0" cy="0" r="1" gradientUnits="userSpaceOnUse" gradientTransform="translate(155.493 302.332) rotate(-160.53) scale(7.04501 16.266)">
<stop stop-color="#F7FAFC"/>
<stop offset="1" stop-color="#F7FAFC" stop-opacity="0"/>
</radialGradient>
<linearGradient id="paint53_linear_1041_6846" x1="149.368" y1="296.073" x2="149.368" y2="306.4" gradientUnits="userSpaceOnUse">
<stop stop-color="#56869C"/>
<stop offset="1" stop-color="#466D7F"/>
</linearGradient>
<linearGradient id="paint54_linear_1041_6846" x1="197.76" y1="398.553" x2="197.76" y2="434.515" gradientUnits="userSpaceOnUse">
<stop stop-color="#015186"/>
<stop offset="1" stop-color="#00DBC4"/>
</linearGradient>
<linearGradient id="paint55_linear_1041_6846" x1="186.29" y1="395.798" x2="197.658" y2="440.974" gradientUnits="userSpaceOnUse">
<stop stop-color="#80ACC0"/>
<stop offset="1" stop-color="#C6D6DE"/>
</linearGradient>
<linearGradient id="paint56_linear_1041_6846" x1="211.119" y1="445.947" x2="208.935" y2="422.104" gradientUnits="userSpaceOnUse">
<stop stop-color="#FBFCFD"/>
<stop offset="1" stop-color="#FBFCFD" stop-opacity="0"/>
</linearGradient>
<linearGradient id="paint57_linear_1041_6846" x1="212.487" y1="444.926" x2="227.498" y2="439.973" gradientUnits="userSpaceOnUse">
<stop stop-color="white"/>
<stop offset="1" stop-color="#CED7EB" stop-opacity="0"/>
</linearGradient>
<linearGradient id="paint58_linear_1041_6846" x1="233.716" y1="417.012" x2="233.716" y2="438.687" gradientUnits="userSpaceOnUse">
<stop stop-color="#01467D"/>
<stop offset="1" stop-color="#008087"/>
</linearGradient>
<linearGradient id="paint59_linear_1041_6846" x1="98.252" y1="412.967" x2="98.252" y2="435.821" gradientUnits="userSpaceOnUse">
<stop stop-color="#00DEC8"/>
<stop offset="1" stop-color="#023B82"/>
</linearGradient>
<linearGradient id="paint60_linear_1041_6846" x1="168.18" y1="458.78" x2="196.575" y2="452.964" gradientUnits="userSpaceOnUse">
<stop stop-color="#42677A"/>
<stop offset="1" stop-color="#7BA2B6"/>
</linearGradient>
<linearGradient id="paint61_linear_1041_6846" x1="175.713" y1="445.706" x2="175.713" y2="469.12" gradientUnits="userSpaceOnUse">
<stop stop-color="#80ACC0"/>
<stop offset="1" stop-color="#C6D6DE"/>
</linearGradient>
<radialGradient id="paint62_radial_1041_6846" cx="0" cy="0" r="1" gradientUnits="userSpaceOnUse" gradientTransform="translate(184.74 469.323) rotate(-54.7332) scale(2.67931 6.627)">
<stop stop-color="#F4F7F9"/>
<stop offset="1" stop-color="#F4F7F9" stop-opacity="0"/>
</radialGradient>
<linearGradient id="paint63_linear_1041_6846" x1="147.794" y1="457.199" x2="182.992" y2="469.196" gradientUnits="userSpaceOnUse">
<stop stop-color="#7097AB"/>
<stop offset="1" stop-color="#52748C"/>
</linearGradient>
<linearGradient id="paint64_linear_1041_6846" x1="76.0629" y1="215.956" x2="122.692" y2="168.362" gradientUnits="userSpaceOnUse">
<stop stop-color="white" stop-opacity="0"/>
<stop offset="0.524337" stop-color="white"/>
<stop offset="1" stop-color="white" stop-opacity="0"/>
</linearGradient>
<radialGradient id="paint65_radial_1041_6846" cx="0" cy="0" r="1" gradientUnits="userSpaceOnUse" gradientTransform="translate(93.7911 190.925) rotate(169.139) scale(17.7658 13.3969)">
<stop offset="0.119792" stop-color="white"/>
<stop offset="1" stop-color="#7EE8FF" stop-opacity="0"/>
</radialGradient>
<radialGradient id="paint66_radial_1041_6846" cx="0" cy="0" r="1" gradientUnits="userSpaceOnUse" gradientTransform="translate(93.7928 190.925) rotate(169.139) scale(13.7526 10.3706)">
<stop offset="0.119792" stop-color="white"/>
<stop offset="1" stop-color="white" stop-opacity="0"/>
</radialGradient>
<clipPath id="clip0_1041_6846">
<rect width="275.946" height="324" fill="white" transform="translate(25 158)"/>
</clipPath>
</defs>
</svg>
