<svg id="ebOTaRVoNtP1" xmlns="http://www.w3.org/2000/svg" xmlns:xlink="http://www.w3.org/1999/xlink" viewBox="0 0 382 310" shape-rendering="geometricPrecision" text-rendering="geometricPrecision" width="382" height="310"><style><![CDATA[#ebOTaRVoNtP2_to {animation: ebOTaRVoNtP2_to__to 8641.975308641975ms linear infinite normal forwards}@keyframes ebOTaRVoNtP2_to__to { 0% {offset-distance: 0%;animation-timing-function: cubic-bezier(0.445,0.05,0.55,0.95)} 18.571429% {offset-distance: 43.032458%;animation-timing-function: cubic-bezier(0.445,0.05,0.55,0.95)} 28.571429% {offset-distance: 51.489947%;animation-timing-function: cubic-bezier(0.445,0.05,0.55,0.95)} 50% {offset-distance: 87.850433%;animation-timing-function: cubic-bezier(0.445,0.05,0.55,0.95)} 71.428571% {offset-distance: 93.925216%;animation-timing-function: cubic-bezier(0.445,0.05,0.55,0.95)} 100% {offset-distance: 100%}} #ebOTaRVoNtP2_ts {animation: ebOTaRVoNtP2_ts__ts 8641.975308641975ms linear infinite normal forwards}@keyframes ebOTaRVoNtP2_ts__ts { 0% {transform: scale(1,1);animation-timing-function: cubic-bezier(0.68,-0.55,0.265,1.55)} 50% {transform: scale(1,1)} 100% {transform: scale(1,1)}} #ebOTaRVoNtP6_to {animation: ebOTaRVoNtP6_to__to 8641.975308641975ms linear infinite normal forwards}@keyframes ebOTaRVoNtP6_to__to { 0% {offset-distance: 0%;animation-timing-function: cubic-bezier(0.445,0.05,0.55,0.95)} 20% {offset-distance: 30.679992%;animation-timing-function: cubic-bezier(0.445,0.05,0.55,0.95)} 28.571429% {offset-distance: 36.299685%;animation-timing-function: cubic-bezier(0.445,0.05,0.55,0.95)} 50% {offset-distance: 72.991836%;animation-timing-function: cubic-bezier(0.445,0.05,0.55,0.95)} 71.428571% {offset-distance: 86.495918%;animation-timing-function: cubic-bezier(0.445,0.05,0.55,0.95)} 100% {offset-distance: 100%}} #ebOTaRVoNtP6_ts {animation: ebOTaRVoNtP6_ts__ts 8641.975308641975ms linear infinite normal forwards}@keyframes ebOTaRVoNtP6_ts__ts { 0% {transform: scale(1,1);animation-timing-function: cubic-bezier(0.68,-0.55,0.265,1.55)} 50% {transform: scale(1,1)} 100% {transform: scale(1,1)}} #ebOTaRVoNtP15_to {animation: ebOTaRVoNtP15_to__to 8641.975308641975ms linear infinite normal forwards}@keyframes ebOTaRVoNtP15_to__to { 0% {transform: translate(116.426998px,236.027px);animation-timing-function: cubic-bezier(0.445,0.05,0.55,0.95)} 18.571429% {transform: translate(191px,179.131px);animation-timing-function: cubic-bezier(0.445,0.05,0.55,0.95)} 28.571429% {transform: translate(191px,154.999999px);animation-timing-function: cubic-bezier(0.445,0.05,0.55,0.95)} 50% {transform: translate(116.426998px,236.027px);animation-timing-function: cubic-bezier(0.445,0.05,0.55,0.95)} 71.428571% {transform: translate(116.426998px,248.947328px);animation-timing-function: cubic-bezier(0.445,0.05,0.55,0.95)} 100% {transform: translate(116.426998px,236.027px)}} #ebOTaRVoNtP15_ts {animation: ebOTaRVoNtP15_ts__ts 8641.975308641975ms linear infinite normal forwards}@keyframes ebOTaRVoNtP15_ts__ts { 0% {transform: scale(1,1);animation-timing-function: cubic-bezier(0.68,-0.55,0.265,1.55)} 50% {transform: scale(1,1)} 100% {transform: scale(1,1)}} #ebOTaRVoNtP19_to {animation: ebOTaRVoNtP19_to__to 8641.975308641975ms linear infinite normal forwards}@keyframes ebOTaRVoNtP19_to__to { 0% {transform: translate(189.333496px,179.130997px);animation-timing-function: cubic-bezier(0.445,0.05,0.55,0.95)} 28.571429% {transform: translate(189.333496px,155.000001px)} 50% {transform: translate(189.333496px,179.130997px);animation-timing-function: cubic-bezier(0.445,0.05,0.55,0.95)} 71.428571% {transform: translate(175.2195px,132.552503px);animation-timing-function: cubic-bezier(0.445,0.05,0.55,0.95)} 100% {transform: translate(189.333496px,179.130997px)}} #ebOTaRVoNtP19_ts {animation: ebOTaRVoNtP19_ts__ts 8641.975308641975ms linear infinite normal forwards}@keyframes ebOTaRVoNtP19_ts__ts { 0% {transform: scale(1,1);animation-timing-function: cubic-bezier(0.68,-0.55,0.265,1.55)} 50% {transform: scale(1,1)} 100% {transform: scale(1,1)}} #ebOTaRVoNtP29_to {animation: ebOTaRVoNtP29_to__to 8641.975308641975ms linear infinite normal forwards}@keyframes ebOTaRVoNtP29_to__to { 0% {offset-distance: 0%;animation-timing-function: cubic-bezier(0.445,0.05,0.55,0.95)} 17.142857% {offset-distance: 36.560559%;animation-timing-function: cubic-bezier(0.445,0.05,0.55,0.95)} 28.571429% {offset-distance: 42.615197%;animation-timing-function: cubic-bezier(0.445,0.05,0.55,0.95)} 50% {offset-distance: 75.177703%;animation-timing-function: cubic-bezier(0.445,0.05,0.55,0.95)} 71.428571% {offset-distance: 87.588852%;animation-timing-function: cubic-bezier(0.445,0.05,0.55,0.95)} 100% {offset-distance: 100%}} #ebOTaRVoNtP29_ts {animation: ebOTaRVoNtP29_ts__ts 8641.975308641975ms linear infinite normal forwards}@keyframes ebOTaRVoNtP29_ts__ts { 0% {transform: scale(1,1);animation-timing-function: cubic-bezier(0.68,-0.55,0.265,1.55)} 50% {transform: scale(1,1)} 100% {transform: scale(1,1)}} #ebOTaRVoNtP43_to {animation: ebOTaRVoNtP43_to__to 8641.975308641975ms linear infinite normal forwards}@keyframes ebOTaRVoNtP43_to__to { 0% {offset-distance: 0%;animation-timing-function: cubic-bezier(0.445,0.05,0.55,0.95)} 20% {offset-distance: 35.336822%;animation-timing-function: cubic-bezier(0.445,0.05,0.55,0.95)} 28.571429% {offset-distance: 40.701885%;animation-timing-function: cubic-bezier(0.445,0.05,0.55,0.95)} 50% {offset-distance: 78.802659%;animation-timing-function: cubic-bezier(0.445,0.05,0.55,0.95)} 71.428571% {offset-distance: 89.401329%;animation-timing-function: cubic-bezier(0.445,0.05,0.55,0.95)} 100% {offset-distance: 100%}} #ebOTaRVoNtP43_ts {animation: ebOTaRVoNtP43_ts__ts 8641.975308641975ms linear infinite normal forwards}@keyframes ebOTaRVoNtP43_ts__ts { 0% {transform: scale(1,1);animation-timing-function: cubic-bezier(0.68,-0.55,0.265,1.55)} 50% {transform: scale(1,1)} 100% {transform: scale(1,1)}} #ebOTaRVoNtP47_to {animation: ebOTaRVoNtP47_to__to 8641.975308641975ms linear infinite normal forwards}@keyframes ebOTaRVoNtP47_to__to { 0% {offset-distance: 0%;animation-timing-function: cubic-bezier(0.445,0.05,0.55,0.95)} 14.285714% {offset-distance: 33.87461%;animation-timing-function: cubic-bezier(0.445,0.05,0.55,0.95)} 28.571429% {offset-distance: 39.46701%;animation-timing-function: cubic-bezier(0.445,0.05,0.55,0.95)} 50% {offset-distance: 77.139447%;animation-timing-function: cubic-bezier(0.445,0.05,0.55,0.95)} 71.428571% {offset-distance: 88.569724%;animation-timing-function: cubic-bezier(0.445,0.05,0.55,0.95)} 100% {offset-distance: 100%}} #ebOTaRVoNtP47_ts {animation: ebOTaRVoNtP47_ts__ts 8641.975308641975ms linear infinite normal forwards}@keyframes ebOTaRVoNtP47_ts__ts { 0% {transform: scale(1,1);animation-timing-function: cubic-bezier(0.68,-0.55,0.265,1.55)} 8.571429% {transform: scale(1.3,1.3);animation-timing-function: cubic-bezier(0.68,-0.55,0.265,1.55)} 20% {transform: scale(2,2);animation-timing-function: cubic-bezier(0.68,-0.55,0.265,1.55)} 50% {transform: scale(1,1)} 100% {transform: scale(1,1)}} #ebOTaRVoNtP51_tr {animation: ebOTaRVoNtP51_tr__tr 8641.975308641975ms linear infinite normal forwards}@keyframes ebOTaRVoNtP51_tr__tr { 0% {transform: translate(289.315px,81.315px) rotate(0deg)} 7.142857% {transform: translate(289.315px,81.315px) rotate(0deg);animation-timing-function: cubic-bezier(0.445,0.05,0.55,0.95)} 14.285714% {transform: translate(289.315px,81.315px) rotate(0deg);animation-timing-function: cubic-bezier(0.445,0.05,0.55,0.95)} 28.571429% {transform: translate(289.315px,81.315px) rotate(360deg)} 100% {transform: translate(289.315px,81.315px) rotate(360deg)}} #ebOTaRVoNtP53_ts {animation: ebOTaRVoNtP53_ts__ts 8641.975308641975ms linear infinite normal forwards}@keyframes ebOTaRVoNtP53_ts__ts { 0% {transform: translate(288.26001px,79.016699px) scale(1,1)} 7.142857% {transform: translate(288.26001px,79.016699px) scale(1,1);animation-timing-function: cubic-bezier(0.445,0.05,0.55,0.95)} 14.285714% {transform: translate(288.26001px,79.016699px) scale(0,0);animation-timing-function: cubic-bezier(0.445,0.05,0.55,0.95)} 28.571429% {transform: translate(288.26001px,79.016699px) scale(0,0);animation-timing-function: cubic-bezier(0.445,0.05,0.55,0.95)} 35.714286% {transform: translate(288.26001px,79.016699px) scale(1,1)} 100% {transform: translate(288.26001px,79.016699px) scale(1,1)}}]]></style><defs><linearGradient id="ebOTaRVoNtP3-fill" x1="164.52" y1="50.8" x2="184.652" y2="74.0286" spreadMethod="pad" gradientUnits="userSpaceOnUse" gradientTransform="translate(0 0)"><stop id="ebOTaRVoNtP3-fill-0" offset="0%" stop-color="#369fab"/><stop id="ebOTaRVoNtP3-fill-1" offset="100%" stop-color="rgba(0,224,202,0)"/></linearGradient><linearGradient id="ebOTaRVoNtP4-fill" x1="165.54" y1="51.6765" x2="171.98" y2="58.5429" spreadMethod="pad" gradientUnits="userSpaceOnUse" gradientTransform="translate(0 0)"><stop id="ebOTaRVoNtP4-fill-0" offset="0%" stop-color="#00e0ca"/><stop id="ebOTaRVoNtP4-fill-1" offset="100%" stop-color="rgba(0,224,202,0)"/></linearGradient><linearGradient id="ebOTaRVoNtP5-fill" x1="182.539" y1="50.5185" x2="185.355" y2="64.5964" spreadMethod="pad" gradientUnits="userSpaceOnUse" gradientTransform="translate(0 0)"><stop id="ebOTaRVoNtP5-fill-0" offset="0%" stop-color="#00e0ca"/><stop id="ebOTaRVoNtP5-fill-1" offset="100%" stop-color="rgba(0,224,202,0)"/></linearGradient><linearGradient id="ebOTaRVoNtP7-fill" x1="274.749" y1="222.207" x2="315.501" y2="266" spreadMethod="pad" gradientUnits="userSpaceOnUse" gradientTransform="translate(0 0)"><stop id="ebOTaRVoNtP7-fill-0" offset="0%" stop-color="#00e0ca"/><stop id="ebOTaRVoNtP7-fill-1" offset="100%" stop-color="#145f57"/></linearGradient><linearGradient id="ebOTaRVoNtP8-fill" x1="276.417" y1="223.639" x2="286.935" y2="234.854" spreadMethod="pad" gradientUnits="userSpaceOnUse" gradientTransform="translate(0 0)"><stop id="ebOTaRVoNtP8-fill-0" offset="0%" stop-color="#00e0ca"/><stop id="ebOTaRVoNtP8-fill-1" offset="100%" stop-color="rgba(0,224,202,0)"/></linearGradient><linearGradient id="ebOTaRVoNtP9-fill" x1="304.18" y1="221.748" x2="308.778" y2="244.741" spreadMethod="pad" gradientUnits="userSpaceOnUse" gradientTransform="translate(0 0)"><stop id="ebOTaRVoNtP9-fill-0" offset="0%" stop-color="#00e0ca"/><stop id="ebOTaRVoNtP9-fill-1" offset="100%" stop-color="rgba(0,224,202,0)"/></linearGradient><linearGradient id="ebOTaRVoNtP16-fill" x1="108.581" y1="227.561" x2="123.344" y2="244.596" spreadMethod="pad" gradientUnits="userSpaceOnUse" gradientTransform="translate(0 0)"><stop id="ebOTaRVoNtP16-fill-0" offset="0%" stop-color="#00e0ca"/><stop id="ebOTaRVoNtP16-fill-1" offset="100%" stop-color="rgba(0,224,202,0)"/></linearGradient><linearGradient id="ebOTaRVoNtP17-fill" x1="109.329" y1="228.204" x2="114.052" y2="233.239" spreadMethod="pad" gradientUnits="userSpaceOnUse" gradientTransform="translate(0 0)"><stop id="ebOTaRVoNtP17-fill-0" offset="0%" stop-color="#00e0ca"/><stop id="ebOTaRVoNtP17-fill-1" offset="100%" stop-color="rgba(0,224,202,0)"/></linearGradient><linearGradient id="ebOTaRVoNtP18-fill" x1="121.796" y1="227.355" x2="123.861" y2="237.679" spreadMethod="pad" gradientUnits="userSpaceOnUse" gradientTransform="translate(0 0)"><stop id="ebOTaRVoNtP18-fill-0" offset="0%" stop-color="#00e0ca"/><stop id="ebOTaRVoNtP18-fill-1" offset="100%" stop-color="rgba(0,224,202,0)"/></linearGradient><linearGradient id="ebOTaRVoNtP20-fill" x1="162.746" y1="150.445" x2="222" y2="216.5" spreadMethod="pad" gradientUnits="userSpaceOnUse" gradientTransform="translate(0 0)"><stop id="ebOTaRVoNtP20-fill-0" offset="0%" stop-color="#145f57"/><stop id="ebOTaRVoNtP20-fill-1" offset="100%" stop-color="#00e0ca"/></linearGradient><linearGradient id="ebOTaRVoNtP22-fill" x1="165.285" y1="152.623" x2="181.287" y2="169.686" spreadMethod="pad" gradientUnits="userSpaceOnUse" gradientTransform="translate(0 0)"><stop id="ebOTaRVoNtP22-fill-0" offset="0%" stop-color="#00e0ca"/><stop id="ebOTaRVoNtP22-fill-1" offset="100%" stop-color="rgba(0,224,202,0)"/></linearGradient><linearGradient id="ebOTaRVoNtP23-fill" x1="207.526" y1="149.745" x2="214.523" y2="184.728" spreadMethod="pad" gradientUnits="userSpaceOnUse" gradientTransform="translate(0 0)"><stop id="ebOTaRVoNtP23-fill-0" offset="0%" stop-color="#00e0ca"/><stop id="ebOTaRVoNtP23-fill-1" offset="100%" stop-color="rgba(0,224,202,0)"/></linearGradient><linearGradient id="ebOTaRVoNtP30-fill" x1="32.90518" y1="88.084773" x2="124.91552" y2="111.025527" spreadMethod="pad" gradientUnits="userSpaceOnUse" gradientTransform="translate(0 0)"><stop id="ebOTaRVoNtP30-fill-0" offset="0%" stop-color="#369fab"/><stop id="ebOTaRVoNtP30-fill-1" offset="100%" stop-color="#145f57"/></linearGradient><linearGradient id="ebOTaRVoNtP32-fill" x1="51.0087" y1="66.4292" x2="70.8746" y2="87.6121" spreadMethod="pad" gradientUnits="userSpaceOnUse" gradientTransform="translate(0 0)"><stop id="ebOTaRVoNtP32-fill-0" offset="0%" stop-color="#00e0ca"/><stop id="ebOTaRVoNtP32-fill-1" offset="100%" stop-color="rgba(0,224,202,0)"/></linearGradient><linearGradient id="ebOTaRVoNtP33-fill" x1="103.45" y1="62.8567" x2="112.136" y2="106.287" spreadMethod="pad" gradientUnits="userSpaceOnUse" gradientTransform="translate(0 0)"><stop id="ebOTaRVoNtP33-fill-0" offset="0%" stop-color="#00e0ca"/><stop id="ebOTaRVoNtP33-fill-1" offset="100%" stop-color="rgba(0,224,202,0)"/></linearGradient><linearGradient id="ebOTaRVoNtP44-fill" x1="26.7259" y1="254.751" x2="99.7044" y2="259.944" spreadMethod="pad" gradientUnits="userSpaceOnUse" gradientTransform="translate(0 0)"><stop id="ebOTaRVoNtP44-fill-0" offset="0%" stop-color="#14cabf"/><stop id="ebOTaRVoNtP44-fill-1" offset="100%" stop-color="#145f57"/></linearGradient><linearGradient id="ebOTaRVoNtP45-fill" x1="29.9194" y1="254.505" x2="52.3141" y2="255.218" spreadMethod="pad" gradientUnits="userSpaceOnUse" gradientTransform="translate(0 0)"><stop id="ebOTaRVoNtP45-fill-0" offset="0%" stop-color="#00e0ca"/><stop id="ebOTaRVoNtP45-fill-1" offset="100%" stop-color="rgba(0,224,202,0)"/></linearGradient><linearGradient id="ebOTaRVoNtP46-fill" x1="56.572" y1="223.941" x2="85.0095" y2="242.888" spreadMethod="pad" gradientUnits="userSpaceOnUse" gradientTransform="translate(0 0)"><stop id="ebOTaRVoNtP46-fill-0" offset="0%" stop-color="#00e0ca"/><stop id="ebOTaRVoNtP46-fill-1" offset="100%" stop-color="rgba(0,224,202,0)"/></linearGradient><linearGradient id="ebOTaRVoNtP48-fill" x1="249.015" y1="37.833" x2="324.843" y2="125.328" spreadMethod="pad" gradientUnits="userSpaceOnUse" gradientTransform="translate(0 0)"><stop id="ebOTaRVoNtP48-fill-0" offset="0%" stop-color="#14cabf"/><stop id="ebOTaRVoNtP48-fill-1" offset="100%" stop-color="#145f57"/></linearGradient><linearGradient id="ebOTaRVoNtP50-fill" x1="252.863" y1="41.134" x2="277.118" y2="66.9974" spreadMethod="pad" gradientUnits="userSpaceOnUse" gradientTransform="translate(0 0)"><stop id="ebOTaRVoNtP50-fill-0" offset="0%" stop-color="#00e0ca"/><stop id="ebOTaRVoNtP50-fill-1" offset="100%" stop-color="rgba(0,224,202,0)"/></linearGradient><linearGradient id="ebOTaRVoNtP51-fill" x1="316.889" y1="36.7721" x2="327.494" y2="89.7988" spreadMethod="pad" gradientUnits="userSpaceOnUse" gradientTransform="translate(0 0)"><stop id="ebOTaRVoNtP51-fill-0" offset="0%" stop-color="#00e0ca"/><stop id="ebOTaRVoNtP51-fill-1" offset="100%" stop-color="rgba(0,224,202,0)"/></linearGradient></defs><g id="ebOTaRVoNtP2_to" style="offset-path:path('M175.219498,62.34395C152.821525,81.854505,171.96587,141.555859,189.536774,179.28805L189.536774,155C169.959314,120.796616,143.200607,92.100635,175.219498,62.34395L175.971891,44.914737L175.219498,62.34395');offset-rotate:0deg"><g id="ebOTaRVoNtP2_ts" transform="scale(1,1)"><g transform="translate(-175.219498,-62.34395)" opacity="0.2"><path d="M188.312,62.3439c0,7.2308-5.862,13.0925-13.093,13.0925-7.23,0-13.092-5.8617-13.092-13.0925c0-7.2307,5.862-13.0924,13.092-13.0924c7.231,0,13.093,5.8617,13.093,13.0924Z" fill="url(#ebOTaRVoNtP3-fill)"/><path d="M182.914,54.2864c-.997-1.1843-2.233-2.1444-3.627-2.8173-1.395-.6728-2.915-1.0433-4.463-1.087-1.547-.0437-3.087.2403-4.517.8334s-2.718,1.4818-3.781,2.6079c-1.062,1.1261-1.874,2.4642-2.383,3.9263s-.703,3.0153-.569,4.5577c.134,1.5423.592,3.0389,1.345,4.3916s1.784,2.5309,3.024,3.4573l2.658-3.558c-.739-.5517-1.353-1.2534-1.801-2.0591-.449-.8056-.722-1.697-.802-2.6156-.079-.9186.036-1.8436.339-2.7144.303-.8709.787-1.6678,1.42-2.3385.632-.6707,1.4-1.2,2.252-1.5532.851-.3533,1.768-.5224,2.69-.4964.921.0261,1.827.2467,2.657.6474.831.4008,1.567.9726,2.161,1.678l3.397-2.8601Z" fill="url(#ebOTaRVoNtP4-fill)"/><path d="M185.799,59.3732c.446-.1194.714-.579.561-1.0143-.775-2.2048-2.233-4.1058-4.163-5.4246-.381-.2605-.894-.121-1.124.2787-.231.3996-.092.9076.286,1.1732c1.549,1.0904,2.729,2.6284,3.381,4.4069.159.4332.614.6995,1.059.5801Z" fill="url(#ebOTaRVoNtP5-fill)"/></g></g></g><g id="ebOTaRVoNtP6_to" style="offset-path:path('M292.224503,241.062492C285.964565,211.03101,228.473918,188.768301,189.944999,177.818647L189.944999,155C235.872361,162.94232,306.125761,193.141191,292.224503,241.062492L248.487275,274.133882L292.224503,241.062492');offset-rotate:0deg"><g id="ebOTaRVoNtP6_ts" transform="scale(1,1)"><g transform="translate(-292.224503,-241.062492)" opacity="0.5"><path d="M313.609,241.062c0,11.811-9.575,21.385-21.385,21.385s-21.384-9.574-21.384-21.385c0-11.81,9.574-21.384,21.384-21.384s21.385,9.574,21.385,21.384Z" fill="url(#ebOTaRVoNtP7-fill)"/><path d="M304.794,227.902c-1.628-1.935-3.647-3.503-5.925-4.602-2.277-1.099-4.761-1.704-7.289-1.775-2.527-.072-5.041.392-7.377,1.361-2.336.968-4.44,2.42-6.175,4.259-1.735,1.84-3.062,4.025-3.893,6.413-.831,2.389-1.148,4.925-.929,7.445.218,2.519.967,4.963,2.197,7.173c1.23,2.209,2.913,4.133,4.939,5.646l4.34-5.811c-1.207-.901-2.209-2.047-2.942-3.363-.732-1.316-1.178-2.772-1.308-4.272-.13-1.501.058-3.012.553-4.434s1.285-2.724,2.319-3.819c1.033-1.096,2.287-1.96,3.678-2.537s2.888-.854,4.394-.811c1.505.043,2.984.403,4.341,1.057c1.356.655,2.559,1.589,3.528,2.741l5.549-4.671Z" fill="url(#ebOTaRVoNtP8-fill)"/><path d="M309.505,236.21c.728-.195,1.165-.945.915-1.657-1.265-3.601-3.647-6.706-6.798-8.86-.622-.425-1.461-.197-1.837.456-.377.652-.149,1.482.467,1.916c2.53,1.781,4.458,4.293,5.523,7.198.26.707,1.002,1.142,1.73.947Z" fill="url(#ebOTaRVoNtP9-fill)"/><g style="mix-blend-mode:color-dodge"><g style="mix-blend-mode:color-dodge"><path d="M297.979,231.095h-10.958v20.808h10.958v-20.808Zm-9.715,19.514v-18.22h1.928c.12.355.316.68.577.951.46.476,1.082.744,1.731.744s1.271-.268,1.731-.744c.261-.271.457-.596.577-.951h1.928v18.22h-8.472Z" clip-rule="evenodd" fill="#909fbe" fill-rule="evenodd"/></g><g style="mix-blend-mode:color-dodge"><path d="M286.203,228.999c-.663,0-1.203.558-1.203,1.25v22.5c0,.692.54,1.25,1.203,1.25h12.594c.663,0,1.203-.558,1.203-1.25v-22.5c0-.692-.54-1.25-1.203-1.25h-12.594Zm.04,23.706v-22.412h12.514v22.412h-12.514Z" clip-rule="evenodd" fill="#909fbe" fill-rule="evenodd"/></g></g></g></g></g><g id="ebOTaRVoNtP15_to" transform="translate(116.426998,236.027)"><g id="ebOTaRVoNtP15_ts" transform="scale(1,1)"><g transform="translate(-116.426998,-236.027)" opacity="0.1"><path d="M126.028,236.027c0,5.303-4.298,9.601-9.601,9.601-5.302,0-9.601-4.298-9.601-9.601s4.299-9.601,9.601-9.601c5.303,0,9.601,4.298,9.601,9.601Z" fill="url(#ebOTaRVoNtP16-fill)" fill-opacity="0.7"/><path d="M122.07,230.118c-.731-.868-1.638-1.573-2.66-2.066-1.023-.493-2.138-.765-3.273-.797-1.134-.032-2.263.176-3.312.611s-1.993,1.087-2.773,1.913c-.779.825-1.374,1.807-1.747,2.879s-.516,2.211-.417,3.342c.098,1.131.434,2.229.986,3.221s1.308,1.856,2.217,2.535l1.949-2.609c-.542-.405-.992-.919-1.321-1.51-.328-.591-.529-1.245-.587-1.918-.058-.674.026-1.352.248-1.991.223-.639.577-1.223,1.041-1.715s1.027-.88,1.652-1.139c.624-.259,1.297-.383,1.972-.364.676.019,1.341.181,1.949.475.609.294,1.149.713,1.585,1.23l2.491-2.097Z" fill="url(#ebOTaRVoNtP17-fill)"/><path d="M124.187,233.848c.327-.087.523-.424.411-.743-.568-1.617-1.637-3.011-3.052-3.978-.28-.191-.656-.089-.825.204s-.067.666.21.86c1.136.8,2.001,1.928,2.48,3.232.116.318.449.513.776.425Z" fill="url(#ebOTaRVoNtP18-fill)"/></g></g></g><g id="ebOTaRVoNtP19_to" transform="translate(189.333496,179.130997)"><g id="ebOTaRVoNtP19_ts" transform="scale(1,1)"><g transform="translate(-189.333496,-179.130997)" opacity="0.72"><path d="M221.868,179.131c0,17.969-14.566,32.535-32.534,32.535-17.969,0-32.535-14.566-32.535-32.535c0-17.968,14.566-32.535,32.535-32.535c17.968,0,32.534,14.567,32.534,32.535Z" fill="url(#ebOTaRVoNtP20-fill)"/><path d="M189.334,210.666c17.416,0,31.534-14.118,31.534-31.535c0-17.416-14.118-31.535-31.534-31.535-17.417,0-31.535,14.119-31.535,31.535c0,17.417,14.118,31.535,31.535,31.535Zm0,1c17.968,0,32.534-14.566,32.534-32.535c0-17.968-14.566-32.535-32.534-32.535-17.969,0-32.535,14.567-32.535,32.535c0,17.969,14.566,32.535,32.535,32.535Z" clip-rule="evenodd" fill="#369fab" fill-opacity="0.2" fill-rule="evenodd"/><path d="M208.458,159.108c-2.477-2.943-5.549-5.329-9.014-7.001s-7.244-2.592-11.089-2.701c-3.846-.109-7.671.597-11.225,2.071-3.553,1.474-6.755,3.682-9.395,6.481-2.64,2.798-4.658,6.123-5.922,9.756-1.265,3.634-1.746,7.494-1.414,11.326.332,3.833,1.472,7.552,3.343,10.914c1.871,3.361,4.431,6.289,7.514,8.591l6.603-8.842c-1.836-1.371-3.361-3.115-4.475-5.117-1.115-2.002-1.793-4.217-1.991-6.499-.198-2.283.089-4.582.842-6.746s1.955-4.144,3.527-5.811c1.573-1.667,3.48-2.982,5.596-3.86c2.117-.877,4.395-1.298,6.685-1.233s4.541.613,6.605,1.609c2.063.996,3.893,2.417,5.369,4.169l8.441-7.107Z" fill="url(#ebOTaRVoNtP22-fill)"/><path d="M203.103,200.539c.538,1.012,1.8,1.404,2.769.791c4.911-3.109,8.718-7.717,10.837-13.168s2.425-11.42.904-17.03c-.301-1.106-1.496-1.67-2.576-1.287-1.081.384-1.637,1.569-1.352,2.68c1.198,4.666.912,9.61-.846,14.132-1.759,4.523-4.887,8.361-8.922,10.993-.961.627-1.352,1.876-.814,2.889Z" fill="url(#ebOTaRVoNtP23-fill)"/><g style="mix-blend-mode:color-dodge"><g style="mix-blend-mode:color-dodge"><path d="M189.289,158.639l-17.6,17.81l1.928,1.285c.486.324.779.87.779,1.455v15.739c0,.579-.47,1.049-1.05,1.049-.579,0-1.049-.47-1.049-1.049v-15.551l-2.125-1.417c-.915-.61-1.047-1.902-.274-2.685l18.147-18.363c.684-.693,1.803-.693,2.488,0l18.103,18.319c.808.818.622,2.178-.376,2.748l-2.529,1.445v15.504c0,.579-.47,1.049-1.049,1.049-.58,0-1.05-.47-1.05-1.049v-15.707c0-.628.336-1.208.882-1.519l2.309-1.319-17.534-17.744Zm17.854,18.068c0-.001,0-.001,0-.001v.001Zm-35.807-.493l-.194.291.194-.291Z" clip-rule="evenodd" fill="#909fbe" fill-rule="evenodd"/></g><g style="mix-blend-mode:color-dodge"><path d="M191.798,176.382c-1.598-1.465-4.051-1.465-5.649,0-1.329,1.218-1.727,3.15-.989,4.794l3.813,8.489l3.814-8.489c.738-1.644.34-3.576-.989-4.794Zm-4.498,2.76c0-.924.749-1.673,1.673-1.673.925,0,1.674.749,1.674,1.673c0,.925-.749,1.674-1.674,1.674-.924,0-1.673-.749-1.673-1.674Z" clip-rule="evenodd" fill="#0fc1b7" fill-rule="evenodd"/></g></g></g></g></g><g id="ebOTaRVoNtP29_to" style="offset-path:path('M80.86475,99.338002C88.301707,143.922437,144.940726,181.829812,191,179.288L191,155C140.876076,142.787696,79.275403,130.436723,80.86475,99.338002L71.829442,50.377773L80.86475,99.338002');offset-rotate:0deg"><g id="ebOTaRVoNtP29_ts" transform="scale(1,1)"><g transform="translate(-80.86475,-99.338001)"><path d="M121.255,99.3381c0,22.3069-18.083,40.3899-40.3903,40.3899-22.3069,0-40.3902-18.083-40.3902-40.3899c0-22.3068,18.0833-40.3901,40.3902-40.3901c22.3073,0,40.3903,18.0833,40.3903,40.3901Z" fill="url(#ebOTaRVoNtP30-fill)"/><path d="M80.8647,138.728c21.7553,0,39.3903-17.635,39.3903-39.3899c0-21.7545-17.635-39.3901-39.3903-39.3901-21.7546,0-39.3902,17.6356-39.3902,39.3901c0,21.7549,17.6356,39.3899,39.3902,39.3899Zm0,1c22.3073,0,40.3903-18.083,40.3903-40.3899c0-22.3068-18.083-40.3901-40.3903-40.3901-22.3069,0-40.3902,18.0833-40.3902,40.3901c0,22.3069,18.0833,40.3899,40.3902,40.3899Z" clip-rule="evenodd" fill="#369fab" fill-opacity="0.2" fill-rule="evenodd"/><path d="M104.607,74.4807c-3.076-3.6536-6.8901-6.6155-11.1914-8.6913-4.3012-2.0758-8.9928-3.2186-13.7669-3.3535s-9.5227.7413-13.9343,2.5709c-4.4116,1.8297-8.3865,4.5715-11.6638,8.0456s-5.7829,7.6019-7.3525,12.1126c-1.5696,4.5111-2.1677,9.3021-1.755,14.0601s1.8269,9.3759,4.1497,13.5489c2.3229,4.173,5.5018,7.807,9.3284,10.665l8.1978-10.976c-2.279-1.702-4.1723-3.867-5.5558-6.352-1.3834-2.486-2.2257-5.236-2.4715-8.0699-.2458-2.833.1104-5.687,1.0453-8.374.9348-2.6862,2.4271-5.1447,4.379-7.2138s4.3193-3.7021,6.9468-4.7918c2.6274-1.0897,5.4557-1.6115,8.299-1.5312c2.8434.0803,5.6376.761,8.1994,1.9973s4.8331,3.0004,6.6651,5.1764l10.4807-8.8233Z" fill="url(#ebOTaRVoNtP32-fill)"/><path d="M113.278,107.19c1.364.406,2.81-.37,3.11-1.762c1.524-7.0529.76-14.4329-2.219-21.0541-2.979-6.621-7.996-12.0881-14.2855-15.6253-1.2408-.6979-2.7803-.1311-3.3819,1.1591-.6015,1.2902-.0361,2.8139,1.1951,3.5286c5.1733,3.003,9.2993,7.5595,11.7713,13.0529c2.472,5.4929,3.145,11.6039,1.961,17.4668-.281,1.395.484,2.829,1.849,3.234Z" fill="url(#ebOTaRVoNtP33-fill)"/><g style="mix-blend-mode:color-dodge"><g style="mix-blend-mode:color-dodge"><path d="M67.6039,105.17c-.1367.408-.5184.682-.9481.682h-.0671c-.6896,0-1.1723-.681-.9433-1.332l3.2991-9.3701c.1408-.401.5189-.668.9432-.668h1.127c.4241,0,.8021.267.9431.667l3.3036,9.3711c.2294.651-.2533,1.332-.9431,1.332h-.0669c-.4295,0-.8111-.274-.9479-.681l-2.7939-8.3151c-.0084-.025-.032-.042-.0585-.042-.0266,0-.0502.017-.0586.042L67.6039,105.17Zm-.1566-2.949c0-.457.3704-.827.8273-.827h4.3418c.4569,0,.8273.37.8273.827s-.3704.828-.8273.828h-4.3418c-.4569,0-.8273-.371-.8273-.828Z" fill="#0fc1b7"/></g><g style="mix-blend-mode:color-dodge"><path d="M85.0503,98.1129c-.4386,0-.8089-.298-1.0358-.673-.0272-.045-.0556-.089-.0852-.132-.1591-.241-.3516-.446-.5774-.617-.2221-.17-.4775-.298-.7662-.383-.2887-.089-.6033-.133-.9439-.133-.6107,0-1.1548.154-1.6323.461s-.8532.759-1.1271,1.355c-.2702.592-.4053,1.314-.4053,2.1651c0,.859.1351,1.586.4053,2.182s.6459,1.049,1.1271,1.36c.4812.307,1.0401.461,1.6768.461.5774,0,1.0771-.111,1.499-.333.4257-.222.7533-.537.9828-.944.2241-.401.3387-.869.344-1.405.0002-.02.0184-.036.0386-.033.0407.007.0361.067-.0051.067h-2.4334c-.1218,0-.2205-.099-.2205-.221v-.584c0-.445.3604-.8051.8051-.8051h2.8087c.5523,0,1,.4471,1,1.0001v.365c0,.974-.2072,1.816-.6218,2.527-.4146.71-.9846,1.258-1.7101,1.643-.7254.381-1.5583.572-2.4984.572-1.0475,0-1.9674-.235-2.7595-.705-.7884-.474-1.4047-1.146-1.8488-2.016-.4405-.873-.6607-1.91-.6607-3.109c0-.9181.1295-1.7381.3886-2.4591.2628-.722.6292-1.335,1.0993-1.838.4701-.507,1.0216-.892,1.6546-1.155.6329-.267,1.3214-.4,2.0654-.4.6292,0,1.2159.093,1.76.278.5441.181,1.0272.44,1.4491.777.4257.337.7755.737,1.0494,1.199.08.136.152.275.2159.418.2493.559-.2289,1.115-.8412,1.115h-.197Z" fill="#0fc1b7"/></g><g style="mix-blend-mode:color-dodge"><path d="M89.4979,105.852c-.5523,0-1-.447-1-1v-9.3701c0-.553.4477-1,1-1h5.5321c.4768,0,.8634.386.8634.863s-.3866.863-.8634.863h-3.4723c-.5522,0-1,.448-1,1v1.087c0,.553.4478,1,1,1h3.0892c.4768,0,.8634.387.8634.8641c0,.477-.3866.863-.8634.863h-3.0892c-.5522,0-1,.448-1,1v1.104c0,.552.4478,1,1,1h3.5167c.4769,0,.8634.386.8634.863s-.3865.863-.8634.863h-5.5765Z" fill="#0fc1b7"/></g><g style="mix-blend-mode:color-dodge"><path d="M103.414,94.118c.866-.2,1.411-1.067,1.154-1.919-1.318-4.377-3.827-8.3153-7.2599-11.366-3.8353-3.408-8.6348-5.5402-13.7346-6.1016s-10.2483.4756-14.7331,2.9677-8.0845,6.3161-10.3012,10.9429c-2.2168,4.627-2.9411,9.829-2.0728,14.886.8683,5.056,3.2863,9.718,6.9197,13.341c3.6333,3.622,8.3025,6.026,13.3617,6.88c4.5288.763,9.1698.251,13.4074-1.465.8242-.334,1.1583-1.302.7718-2.102-.3866-.801-1.3473-1.131-2.1747-.805-3.6336,1.43-7.5985,1.849-11.469,1.196-4.4012-.742-8.463-2.833-11.6238-5.985-3.1607-3.151-5.2642-7.206-6.0196-11.605s-.1253-8.924,1.8032-12.95c1.9284-4.0248,5.0599-7.3514,8.9613-9.5193c3.9015-2.1679,8.3802-3.0701,12.8167-2.5817c4.4365.4885,8.6117,2.3433,11.9481,5.308c2.9342,2.6073,5.0918,5.96,6.2548,9.688.264.849,1.123,1.391,1.99,1.19Z" fill="#909fbe"/></g></g></g></g></g><g id="ebOTaRVoNtP43_to" style="offset-path:path('M64.162569,256.162506C112.733508,266.838327,173.577357,224.701572,190.505841,179.131L190.505841,155C139.234527,158.596852,68.623931,211.847025,64.162569,256.162506L75.663366,209.899872L64.162569,256.162506');offset-rotate:0deg"><g id="ebOTaRVoNtP43_ts" transform="scale(1,1)"><g transform="translate(-64.162569,-256.162506)"><path d="M86.192,234.121c12.173,12.167,12.1783,31.898.0117,44.071s-31.8977,12.178-44.0706.012c-12.173-12.167-12.1782-31.898-.0117-44.071s31.8977-12.178,44.0706-.012Z" fill="url(#ebOTaRVoNtP44-fill)"/><path d="M63.5463,229.648c-3.6714-.314-7.3678.152-10.8466,1.367s-6.6613,3.152-9.3387,5.683c-2.6775,2.532-4.7894,5.601-6.1971,9.007-1.4076,3.405-2.0794,7.069-1.971,10.753.1083,3.683.9943,7.302,2.5996,10.618c1.6055,3.317,3.8941,6.257,6.7157,8.627s6.1125,4.116,9.6567,5.125c3.5442,1.008,7.2615,1.256,10.9081.727l-1.5186-10.461c-2.1718.316-4.3858.168-6.4967-.433-2.1108-.6-4.0708-1.64-5.7514-3.052-1.6805-1.411-3.0435-3.162-3.9997-5.138-.9562-1.975-1.4838-4.13-1.5483-6.324s.3355-4.376,1.1739-6.404c.8384-2.029,2.0962-3.857,3.6909-5.364c1.5946-1.508,3.4901-2.662,5.562-3.386c2.0719-.723,4.2734-1.001,6.46-.813l.9012-10.532Z" fill="url(#ebOTaRVoNtP45-fill)"/><path d="M86.1255,242.758c.9656-.524,1.3302-1.736.7349-2.659-3.0175-4.678-7.462-8.287-12.6999-10.272-5.238-1.985-10.9578-2.23-16.3182-.727-1.0575.297-1.5879,1.446-1.212,2.478.376,1.032,1.5159,1.554,2.5774,1.272c4.46-1.185,9.1971-.951,13.543.696s8.0475,4.613,10.6015,8.456c.6079.915,1.8077,1.279,2.7733.756Z" fill="url(#ebOTaRVoNtP46-fill)"/></g></g></g><g id="ebOTaRVoNtP47_to" style="offset-path:path('M289.315003,81.315003C232.746642,116.760549,162.263099,170.370609,191,180.116949L191,154.999999C124.629635,135.69825,205.090336,110.985416,289.315003,81.315003L292.499999,132.552505L289.315003,81.315003');offset-rotate:0deg"><g id="ebOTaRVoNtP47_ts" transform="scale(1,1)"><g transform="translate(-289.315002,-81.315002)"><path d="M338.63,81.3149c0,27.2361-22.079,49.3151-49.315,49.3151s-49.315-22.079-49.315-49.3151C240,54.079,262.079,32,289.315,32s49.315,22.079,49.315,49.3149Z" fill="url(#ebOTaRVoNtP48-fill)"/><path d="M289.315,129.63c26.684,0,48.315-21.632,48.315-48.3151C337.63,54.6313,315.999,33,289.315,33s-48.315,21.6313-48.315,48.3149c0,26.6831,21.631,48.3151,48.315,48.3151Zm0,1c27.236,0,49.315-22.079,49.315-49.3151C338.63,54.079,316.551,32,289.315,32s-49.315,22.079-49.315,49.3149c0,27.2361,22.079,49.3151,49.315,49.3151Z" clip-rule="evenodd" fill="#369fab" fill-opacity="0.2" fill-rule="evenodd"/><path d="M318.303,50.9646c-3.755-4.4609-8.412-8.0772-13.663-10.6117-5.252-2.5345-10.98-3.9298-16.809-4.0945s-11.627.905-17.013,3.139c-5.387,2.2339-10.24,5.5816-14.241,9.8233-4.002,4.2418-7.061,9.2817-8.978,14.7891-1.916,5.5073-2.646,11.3577-2.142,17.1672s2.23,11.4465,5.066,16.5415c2.836,5.0965,6.718,9.5335,11.39,13.0235l10.009-13.4025c-2.782-2.078-5.094-4.721-6.783-7.7559-1.689-3.0346-2.718-6.3921-3.018-9.8521s.135-6.9444,1.276-10.2245c1.142-3.2801,2.964-6.2818,5.347-8.8081s5.274-4.5201,8.482-5.8506s6.661-1.9677,10.132-1.8696c3.472.0981,6.884.9291,10.012,2.4386c3.127,1.5095,5.901,3.6634,8.137,6.3202l12.796-10.7729Z" fill="url(#ebOTaRVoNtP50-fill)"/><g id="ebOTaRVoNtP51_tr" transform="translate(289.315,81.315) rotate(0)"><path d="M329.169,70.1249c1.679-.4498,2.687-2.1808,2.111-3.8207-2.918-8.3047-8.412-15.4651-15.679-20.4327-1.435-.9809-3.368-.4554-4.237,1.0498s-.343,3.4188,1.078,4.4193c5.835,4.1071,10.281,9.9,12.737,16.5993.599,1.6318,2.311,2.6349,3.99,2.185Z" transform="translate(-289.315,-81.315)" fill="url(#ebOTaRVoNtP51-fill)"/></g><g style="mix-blend-mode:color-dodge"><g id="ebOTaRVoNtP53_ts" transform="translate(288.26001,79.016699) scale(1,1)"><g style="mix-blend-mode:color-dodge" transform="translate(-288.26001,-79.016699)"><path d="M285.163,47.609c.259-.0614.524-.0926.791-.0926h6.15c.167,0,.333.0122.498.0364l-.388,2.6397.388-2.6397c5.635.8279,8.779,4.7753,10.305,8.8547l-2.554.9555l2.554-.9555c1.108,2.9612,1.471,6.1988,1.427,9.0026.679.5442,1.193,1.2219,1.544,1.8985.697,1.3415.914,2.9117.688,4.4233-.226,1.511-.894,2.9514-1.963,4.0276l-1.893-1.8802l1.893,1.8802c-.483.4858-1.09.9302-1.793,1.2422-.678,2.5145-1.655,4.8512-2.947,6.8673-.119,2.4278-.123,5.2777.017,7.7046l12.168,2.634c1.636.354,2.712,1.803,2.712,3.372v9.4884c0,1.825-1.46,3.449-3.437,3.449h-46.127c-1.976,0-3.436-1.624-3.436-3.449v-9.4884c0-1.569,1.075-3.018,2.712-3.372L277.18,91.456c.177-1.9634.259-4.2139-.021-6.9093-1.549-2.2054-2.692-4.8431-3.455-7.6947-.571-.2972-1.069-.68-1.479-1.0925-1.069-1.0762-1.737-2.5166-1.964-4.0276-.226-1.5116-.009-3.0818.688-4.4233.354-.6815.873-1.3641,1.559-1.9103-.005-.345-.01-.6829-.016-1.0152v-.0021c-.003-.2088-.006-.4159-.009-.6201-.205-1.8761-.291-4.1146.084-6.431.572-3.5268,3.471-5.7614,5.659-7.0226c2.373-1.3686,5.052-2.251,6.937-2.6983ZM275.48,63.5724c.004.2488.008.5029.012.7623v.0009c.015.9104.03,1.8864.031,2.9379-.039.004-.079.0091-.118.0153-.796.126-1.417.6782-1.793,1.4029-.377.7246-.526,1.6461-.384,2.596.143.95.554,1.7827,1.125,2.3573.51.5129,1.165.8345,1.866.8081.731,3.5349,2.028,6.6376,3.829,8.9574.373,2.9678.339,5.4604.181,7.5835-.081,1.0896-.195,2.0816-.304,2.9916-.047-.014-.095-.02-.144-.018-.023.002-.045.005-.068.009l-14.606,3.163c-.202.044-.347.227-.347.44v9.4884c0,.248.195.449.436.449h46.127c.242,0,.437-.201.437-.449v-9.4884c0-.213-.145-.396-.347-.44l-14.338-3.105c-.36-3.187-.374-7.7319-.162-11.1554c1.6-2.2553,2.757-5.1635,3.423-8.4539l.018.0029c.796.126,1.549-.2085,2.121-.7832.57-.5746.982-1.4073,1.124-2.3573.142-.9499-.007-1.8714-.383-2.596-.377-.7247-.998-1.2769-1.793-1.4029-.026-.0041-.052-.0077-.078-.0109-.038-.0045-.076-.0081-.113-.0106.038-.4034.066-.8228.084-1.2547.111-2.6608-.186-5.7941-1.219-8.5539-1.281-3.4245-3.718-6.3187-7.931-6.9377-.021-.003-.041-.0046-.062-.0046h-6.15c-.033,0-.066.0039-.099.0115-1.692.4018-4.079,1.1952-6.131,2.3783-2.026,1.1681-3.853,2.7905-4.195,4.9036-.326,2.0092-.248,4.0074-.049,5.7626Z" clip-rule="evenodd" fill="#909fbe" fill-rule="evenodd"/></g></g></g></g></g></g></svg>