<svg viewBox="0 0 48 48" xmlns="http://www.w3.org/2000/svg">
  <path fill-rule="evenodd" clip-rule="evenodd" d="M27.563 15.574c0-.889-.821-1.605-1.675-2.11.152-.184.314-.356.488-.508.535-.447 1.187-.67 1.863-.85a.34.34 0 0 0 .14-.045.566.566 0 0 0 .21-.783.616.616 0 0 0-.816-.2 6.027 6.027 0 0 0-1.025.648 3.806 3.806 0 0 0-.838.872c-.138.216-.262.44-.372.672a9.885 9.885 0 0 0-.712-.337 2.027 2.027 0 0 0-1.642.024 10.72 10.72 0 0 0-.813.414 3.349 3.349 0 0 0-.42-.773 3.802 3.802 0 0 0-.839-.872 9.753 9.753 0 0 0-1.025-.649.335.335 0 0 0-.07-.022c-.023-.006-.046-.011-.07-.023a.576.576 0 0 0-.721.403c-.094.313.093.604.419.694.675.179 1.327.402 1.863.85.196.17.378.368.546.58-.822.516-1.594 1.213-1.594 2.015 0 .947.526 1.792 1.342 2.341-.383.21-.726.475-1.021.784a1.02 1.02 0 0 0-.065-.015c-4.052-.873-9.991-1.902-13.508-2.439-1.258-.179-2.003.537-2.166 1.32-.186.895.256 2.036 1.188 3.087 1.001 1.097 2.399 1.924 3.936 2.282.261.067.533.121.813.165-.05.18-.072.366-.068.551.023 1.634 1.747 2.752 3.26 2.752 2.518 0 4.558-1.506 5.869-2.818.159.335.36.643.597.92-.66 1.008-1.016 2.33-1.016 3.822 0 3.2 1.677 7.674 4.402 7.674s4.402-4.474 4.355-7.674c0-1.48-.349-2.787-.998-3.788.238-.271.44-.573.601-.901 1.313 1.307 3.335 2.765 5.824 2.765 1.514 0 3.237-1.14 3.26-2.752 0-.184-.025-.369-.076-.548.289-.045.571-.1.845-.168 1.537-.358 2.935-1.185 3.936-2.282.932-1.029 1.374-2.192 1.188-3.087-.163-.805-.908-1.521-2.166-1.32-3.517.537-9.432 1.566-13.508 2.439l-.028.006a4.186 4.186 0 0 0-1.018-.779c.816-.553 1.339-1.4 1.325-2.337Zm-1.636 10.031c-.6.264-1.249.399-1.904.395-.71 0-1.369-.148-1.95-.416-.373.634-.588 1.467-.628 2.413l.086.05c.262.15.517.296.792.413.233.132.474.24.723.33.14.05.132.25-.015.272a5.56 5.56 0 0 1-.87.07c-.23.01-.46.006-.687-.002.066.75.219 1.485.426 2.155.164.094.326.183.493.263.223.12.455.225.695.314.137.05.13.24-.013.266a6.913 6.913 0 0 1-.822.091h-.01c.517 1.21 1.195 2.036 1.757 2.036.56 0 1.235-.82 1.751-2.02a9.459 9.459 0 0 1-.757-.105c-.143-.026-.149-.218-.012-.267a7.345 7.345 0 0 0 1.094-.503c.22-.688.381-1.45.45-2.227-.204.006-.41.008-.616-.001a5.79 5.79 0 0 1-.872-.068c-.147-.023-.152-.219-.011-.267.255-.087.503-.192.743-.314.253-.129.505-.266.764-.407l.023-.013c-.033-.962-.252-1.805-.63-2.458ZM24.44 14.501a1.16 1.16 0 0 0-.827.014c-.516.205-1.335.6-1.335 1.037 0 .637.791 1.252 1.746 1.252.932 0 1.747-.502 1.747-1.252.014-.482-.81-.86-1.33-1.05l-.001-.001Zm-.416 4.63c-1.514 0-2.562 1.052-2.562 2.55 0 1.5 1.048 2.551 2.562 2.551 1.514 0 2.562-1.051 2.562-2.55 0-1.5-1.048-2.55-2.562-2.55v-.001Zm13.322 1.924c-2.795.649-6.963-.179-8.92-.626 3.82-.783 9.2-1.723 12.553-2.237-.186.715-1.35 2.326-3.633 2.863Zm-7.22 1.857c.979.806 2.26 1.544 3.68 1.544.536 0 .908-.269 1.095-.515.14-.179.14-.313.14-.358-.024-.022-.187-.134-.63-.156-1.327-.023-2.724-.202-4.285-.515Zm-23.127-4.72c.163.715 1.328 2.326 3.634 2.863 2.771.649 6.963-.179 8.92-.626-3.82-.783-9.2-1.723-12.554-2.237Zm6.568 5.235a25.989 25.989 0 0 0 4.285-.515c-.978.828-2.259 1.544-3.68 1.544a1.4 1.4 0 0 1-1.094-.515c-.14-.201-.14-.335-.14-.358.024-.044.187-.134.63-.156h-.001Z" class="icon-color-primary"/>
</svg>
