<svg viewBox="0 0 84 84" fill="none" xmlns="http://www.w3.org/2000/svg">
  <path d="M66.789 58.65c1.305 1.917 1.555 3.56.751 4.927-.803 1.368-2.44 2.052-4.91 2.052H22.37c-2.47 0-4.107-.684-4.91-2.052-.804-1.368-.554-3.01.751-4.927L35.79 33.028V20.136h-2.237c-.605 0-1.13-.205-1.572-.614-.443-.41-.664-.894-.664-1.454 0-.56.22-1.045.664-1.454.442-.41.966-.614 1.572-.614h17.894c.605 0 1.13.204 1.572.614.443.409.664.894.664 1.454 0 .56-.22 1.044-.664 1.454a2.237 2.237 0 0 1-1.572.614H49.21v12.892L66.789 58.65ZM39.564 35.225l-9.506 13.86h24.884l-9.506-13.86-.7-1.002V20.136h-4.473v14.087l-.699 1.002Z"/>
</svg>
