<svg viewBox="0 0 48 48" xmlns="http://www.w3.org/2000/svg">
  <path fill-rule="evenodd" clip-rule="evenodd" d="M13.993 17.177a3.84 3.84 0 0 1 2.843-4.045 3.86 3.86 0 0 1 4.493 2.089l.953-.255c2.907-.775 5.895.942 6.674 3.836l1.857 6.902c.779 2.894-.946 5.869-3.853 6.644l-9.242 2.466c-2.907.775-5.895-.942-6.674-3.836l-1.857-6.902c-.779-2.894.946-5.869 3.853-6.644l.954-.255Zm6.264 6.401a1.148 1.148 0 0 1-1.557.416c-.545-.31-.73-1-.415-1.54a1.148 1.148 0 0 1 1.557-.415c.545.31.73 1 .415 1.54Zm-6.002 2.91-.374-.214c-1.176-.67-1.16-2.356.029-3.013a1.766 1.766 0 0 1 1.722.008l3.21 1.818a.17.17 0 0 1 .08.195.17.17 0 0 1-.022.08l-1.815 3.203c-.3.53-.859.868-1.472.888-1.359.046-2.243-1.392-1.581-2.569l.223-.397Z" class="icon-color-primary"/>
  <path fill-rule="evenodd" clip-rule="evenodd" d="M25.934 34c-.32 0-.632-.033-.934-.095l2.456-.674a5.655 5.655 0 0 0 1.764-.831h6.091c1.727 0 3.126-1.433 3.126-3.2h-2.735c-1.942 0-3.517-1.612-3.517-3.6S33.76 22 35.702 22h2.735c0-1.767-1.4-3.2-3.126-3.2h-5.706l-.053-.202a5.855 5.855 0 0 0-1.714-2.853c.517-1.036 1.57-1.745 2.784-1.745 1.727 0 3.126 1.433 3.126 3.2h1.563C37.901 17.2 40 19.349 40 22v7.2c0 2.651-2.1 4.8-4.689 4.8h-9.377Zm9.768-10.4h2.735v4h-2.735c-1.08 0-1.954-.895-1.954-2s.875-2 1.954-2Z" class="icon-color-primary"/>
</svg>
