<svg viewBox="0 0 48 48" xmlns="http://www.w3.org/2000/svg">
  <path d="M12.857 8.425a3.888 3.888 0 0 0-2.723 1.123A3.817 3.817 0 0 0 9 12.247c0 2.1 1.738 3.822 3.857 3.822 2.12 0 3.857-1.722 3.857-3.822s-1.736-3.822-3.857-3.822Zm0 1.698A2.12 2.12 0 0 1 15 12.247a2.12 2.12 0 0 1-2.143 2.123 2.147 2.147 0 0 1-1.519-.618 2.11 2.11 0 0 1-.624-1.505 2.12 2.12 0 0 1 2.143-2.124Zm0 21.233a3.888 3.888 0 0 0-2.723 1.123A3.817 3.817 0 0 0 9 35.18C9 37.278 10.738 39 12.857 39c2.12 0 3.857-1.72 3.857-3.822 0-2.1-1.736-3.822-3.857-3.822Zm0 1.699A2.12 2.12 0 0 1 15 35.178a2.12 2.12 0 0 1-2.143 2.123 2.147 2.147 0 0 1-1.519-.618 2.11 2.11 0 0 1-.624-1.505 2.12 2.12 0 0 1 2.143-2.123Zm10.929-16.35c-3.776 0-6.857 3.053-6.857 6.795 0 3.743 3.081 6.794 6.857 6.794 3.777 0 6.857-3.051 6.857-6.794 0-3.742-3.08-6.794-6.857-6.794Zm0 1.7c2.85 0 5.143 2.271 5.143 5.095 0 2.825-2.292 5.096-5.143 5.096-2.85 0-5.143-2.271-5.143-5.096 0-2.824 2.293-5.096 5.143-5.096ZM34.714 8a3.888 3.888 0 0 0-2.723 1.123 3.817 3.817 0 0 0-1.134 2.699c0 2.1 1.738 3.822 3.857 3.822 2.12 0 3.857-1.722 3.857-3.822S36.835 8 34.714 8Zm0 1.699a2.12 2.12 0 0 1 2.143 2.123 2.12 2.12 0 0 1-2.143 2.123 2.147 2.147 0 0 1-1.519-.618 2.109 2.109 0 0 1-.624-1.505 2.12 2.12 0 0 1 2.143-2.123Zm.429 21.657a3.888 3.888 0 0 0-2.724 1.123 3.817 3.817 0 0 0-1.133 2.7c0 2.1 1.737 3.821 3.857 3.821S39 37.28 39 35.178c0-2.1-1.737-3.822-3.857-3.822Zm0 1.699a2.12 2.12 0 0 1 2.143 2.123 2.12 2.12 0 0 1-2.143 2.123 2.147 2.147 0 0 1-1.52-.618A2.11 2.11 0 0 1 33 35.178a2.12 2.12 0 0 1 2.143-2.123Z" class="icon-color-primary"/>
  <path d="M15.19 14a.787.787 0 0 0-.454.145.852.852 0 0 0-.3.386.901.901 0 0 0 .177.936l4.12 4.34a.792.792 0 0 0 1.155.001.884.884 0 0 0 .239-.608.884.884 0 0 0-.24-.609l-4.12-4.34A.795.795 0 0 0 15.19 14Zm11.432 13.272a.883.883 0 0 0-.239.608c0 .228.086.446.239.608l4.984 5.26c.153.161.36.252.577.252.217 0 .424-.09.577-.251a.884.884 0 0 0 .24-.608.884.884 0 0 0-.238-.608l-4.986-5.26a.781.781 0 0 0-1.155 0h.001Zm-7.66 0-4.74 4.994a.886.886 0 0 0-.222.602.883.883 0 0 0 .239.594c.15.158.352.248.564.252a.793.793 0 0 0 .571-.233l4.74-4.992a.883.883 0 0 0 .24-.607.884.884 0 0 0-.238-.609.796.796 0 0 0-.577-.252.796.796 0 0 0-.578.251Z" class="icon-color-primary"/>
</svg>
