<svg xmlns="http://www.w3.org/2000/svg" viewBox="0 0 48 48">
  <path d="M15.559 0h17c.66.059 1.32.125 1.976.168 3.387.227 6.524 1.094 9.113 3.437 2.922 2.641 4.196 6.063 4.262 9.864.125 7.047.11 14.094.004 21.14-.05 3.356-1.078 6.461-3.406 9.02-2.625 2.894-6.02 4.184-9.797 4.25-7.102.125-14.211.2-21.309-.012-7.48-.215-12.25-4.832-13.12-12.23C.16 34.609.093 33.574 0 32.543V15.551c.059-.684.137-1.371.168-2.055C.535 5.984 5.016 1.164 12.473.281 13.496.156 14.527.094 15.559 0Zm8.55 4.492c-3.367 0-6.734-.066-10.097.024-2.64.07-5.13.71-7.051 2.742-1.828 1.93-2.395 4.328-2.453 6.847-.11 4.965-.153 9.93-.145 14.899 0 2.21.074 4.433.313 6.633.441 4.07 2.855 6.75 6.703 7.597a15.9 15.9 0 0 0 3.098.368c4.726.078 9.453.144 14.183.136 2.32-.004 4.652-.07 6.957-.316 4.5-.484 7.348-3.344 7.832-7.848.239-2.195.309-4.422.309-6.633.004-4.964.004-9.933-.156-14.898-.196-6.094-3.454-9.32-9.559-9.531-3.309-.114-6.621-.02-9.934-.02Zm0 0"/>
  <path d="M11.707 24.047c0-6.863 5.508-12.356 12.39-12.348 6.817.008 12.313 5.516 12.313 12.348 0 6.863-5.508 12.351-12.39 12.348-6.817-.012-12.313-5.52-12.313-12.348Zm12.39 8.012c4.4-.02 7.985-3.633 7.977-8.032-.008-4.398-3.617-7.992-8.015-7.996-4.43 0-8.047 3.64-8.02 8.07.031 4.395 3.656 7.973 8.059 7.958ZM39.79 11.191a2.881 2.881 0 0 1-2.892 2.91 2.897 2.897 0 0 1-2.89-2.914 2.881 2.881 0 0 1 2.855-2.863c1.625-.015 2.918 1.25 2.926 2.867Zm0 0"/>
</svg>
