<?xml version="1.0" encoding="UTF-8"?>
<svg xmlns="http://www.w3.org/2000/svg" xmlns:xlink="http://www.w3.org/1999/xlink" width="48pt" height="48pt" viewBox="0 0 48 48" version="1.1">
<g id="surface1">
<path style=" stroke:none;fill-rule:nonzero;fill:black;fill-opacity:1;" d="M 42.691406 14.664062 C 42.722656 15.046875 42.722656 15.425781 42.722656 15.808594 C 42.722656 27.40625 33.367188 40.773438 16.273438 40.773438 C 11.007812 40.773438 6.117188 39.332031 2 36.832031 C 2.75 36.914062 3.46875 36.941406 4.246094 36.941406 C 8.589844 36.941406 12.589844 35.554688 15.785156 33.191406 C 11.699219 33.113281 8.273438 30.585938 7.09375 27.109375 C 7.667969 27.1875 8.246094 27.242188 8.847656 27.242188 C 9.683594 27.242188 10.519531 27.136719 11.296875 26.945312 C 7.035156 26.128906 3.839844 22.597656 3.839844 18.332031 L 3.839844 18.226562 C 5.078125 18.875 6.519531 19.285156 8.042969 19.339844 C 5.539062 17.761719 3.898438 15.074219 3.898438 12.03125 C 3.898438 10.402344 4.359375 8.90625 5.164062 7.601562 C 9.742188 12.925781 16.621094 16.40625 24.332031 16.785156 C 24.1875 16.132812 24.101562 15.453125 24.101562 14.773438 C 24.101562 9.9375 28.246094 6 33.398438 6 C 36.074219 6 38.492188 7.058594 40.1875 8.769531 C 42.289062 8.390625 44.304688 7.65625 46.089844 6.652344 C 45.398438 8.691406 43.929688 10.402344 42.003906 11.488281 C 43.871094 11.296875 45.6875 10.808594 47.355469 10.128906 C 46.089844 11.867188 44.507812 13.417969 42.691406 14.664062 Z M 42.691406 14.664062 "/>
</g>
</svg>
