<svg width="862" height="200" viewBox="0 0 862 200" fill="none" xmlns="http://www.w3.org/2000/svg">
<g clip-path="url(#clip0_859_5640)">
<rect width="862" height="200" fill="#40A1AC"/>
<path d="M0 0H862V200H0V0Z" fill="#111F3B"/>
<mask id="path-2-inside-1_859_5640" fill="white">
<path fill-rule="evenodd" clip-rule="evenodd" d="M126.199 -10.7706C124.968 -12.0018 122.947 -11.9769 121.685 -10.7148L120.343 -9.37353C119.842 -8.87239 119.536 -8.25154 119.426 -7.60798C118.783 -7.49815 118.162 -7.19207 117.661 -6.69093L114.978 -4.00833C114.477 -3.50719 114.171 -2.88634 114.061 -2.24278C113.417 -2.13296 112.797 -1.82688 112.295 -1.32574L109.613 1.35686C109.112 1.858 108.806 2.47885 108.696 3.12241C108.052 3.23223 107.431 3.53831 106.93 4.03946L104.248 6.72205C103.747 7.22319 103.44 7.84404 103.331 8.4876C102.687 8.59743 102.066 8.90351 101.565 9.40465L98.8825 12.0872C98.3813 12.5884 98.0753 13.2092 97.9654 13.8528C97.3219 13.9626 96.701 14.2687 96.1999 14.7698L93.5173 17.4524C93.0161 17.9536 92.7101 18.5744 92.6002 19.218C91.9567 19.3278 91.3358 19.6339 90.8347 20.135L88.1521 22.8176C87.651 23.3188 87.3449 23.9396 87.235 24.5832C86.5915 24.693 85.9706 24.9991 85.4695 25.5002L82.7869 28.1828C82.2858 28.684 81.9797 29.3048 81.8698 29.9484C81.2263 30.0582 80.6054 30.3643 80.1043 30.8654L77.4217 33.548C76.9206 34.0492 76.6145 34.67 76.5047 35.3136C75.8611 35.4234 75.2402 35.7295 74.7391 36.2306L72.0565 38.9132C71.5554 39.4144 71.2493 40.0352 71.1395 40.6788C70.4959 40.7886 69.875 41.0947 69.3739 41.5958L66.6913 44.2784C66.1902 44.7796 65.8841 45.4004 65.7743 46.044C65.1307 46.1538 64.5099 46.4599 64.0087 46.961L61.3261 49.6436C60.825 50.1447 60.5189 50.7656 60.4091 51.4092C59.7655 51.519 59.1447 51.8251 58.6435 52.3262L55.9609 55.0088C55.4598 55.5099 55.1537 56.1308 55.0439 56.7743C54.4003 56.8842 53.7795 57.1903 53.2783 57.6914L50.5957 60.374C50.0946 60.8751 49.7885 61.496 49.6787 62.1395C49.0351 62.2494 48.4143 62.5555 47.9131 63.0566L45.2305 65.7392C44.7294 66.2403 44.4233 66.8612 44.3135 67.5047C43.6699 67.6146 43.0491 67.9206 42.5479 68.4218L39.8653 71.1044C39.3642 71.6055 39.0581 72.2264 38.9483 72.8699C38.3047 72.9798 37.6839 73.2858 37.1827 73.787L34.5001 76.4696C33.999 76.9707 33.6929 77.5916 33.5831 78.2351C32.9395 78.345 32.3187 78.651 31.8175 79.1522L29.1349 81.8348C28.6338 82.3359 28.3277 82.9568 28.2179 83.6003C27.5743 83.7101 26.9535 84.0162 26.4523 84.5174L23.7698 87.2C23.2686 87.7011 22.9625 88.322 22.8527 88.9655C22.2091 89.0753 21.5883 89.3814 21.0872 89.8826L18.4046 92.5652C17.9034 93.0663 17.5973 93.6872 17.4875 94.3307C16.844 94.4405 16.2231 94.7466 15.722 95.2478L13.0394 97.9304C12.5382 98.4315 12.2321 99.0523 12.1223 99.6959C11.4788 99.8057 10.8579 100.112 10.3568 100.613L7.67416 103.296C7.17302 103.797 6.86693 104.418 6.7571 105.061C6.11354 105.171 5.49271 105.477 4.99158 105.978L2.30897 108.661C1.80784 109.162 1.50176 109.783 1.39193 110.426C0.748361 110.536 0.127511 110.842 -0.373622 111.343L-1.7149 112.685C-2.97696 113.947 -3.00192 115.968 -1.77063 117.199C-0.539345 118.431 1.48192 118.406 2.74398 117.144L4.08526 115.802C4.58639 115.301 4.89247 114.68 5.0023 114.037C5.64587 113.927 6.26672 113.621 6.76785 113.12L9.45046 110.437C9.95159 109.936 10.2577 109.315 10.3675 108.672C11.011 108.562 11.6319 108.256 12.133 107.754L14.8156 105.072C15.3168 104.571 15.6229 103.95 15.7327 103.306C16.3763 103.196 16.9971 102.89 17.4982 102.389L20.1808 99.7066C20.682 99.2055 20.9881 98.5847 21.0979 97.9411C21.7414 97.8313 22.3623 97.5252 22.8634 97.0241L25.546 94.3414C26.0472 93.8403 26.3533 93.2195 26.4631 92.5759C27.1066 92.4661 27.7275 92.16 28.2286 91.6589L30.9112 88.9763C31.4124 88.4751 31.7185 87.8543 31.8283 87.2107C32.4718 87.1009 33.0927 86.7948 33.5938 86.2937L36.2764 83.6111C36.7776 83.1099 37.0836 82.4891 37.1935 81.8455C37.837 81.7357 38.4579 81.4296 38.959 80.9285L41.6416 78.2459C42.1428 77.7447 42.4488 77.1239 42.5587 76.4803C43.2022 76.3705 43.8231 76.0644 44.3242 75.5633L47.0068 72.8807C47.508 72.3795 47.814 71.7587 47.9239 71.1151C48.5674 71.0053 49.1883 70.6992 49.6894 70.1981L52.372 67.5155C52.8732 67.0143 53.1792 66.3935 53.2891 65.7499C53.9326 65.6401 54.5535 65.334 55.0546 64.8329L57.7372 62.1503C58.2383 61.6491 58.5444 61.0283 58.6543 60.3847C59.2978 60.2749 59.9187 59.9688 60.4198 59.4677L63.1024 56.7851C63.6035 56.2839 63.9096 55.6631 64.0195 55.0195C64.663 54.9097 65.2839 54.6036 65.785 54.1025L68.4676 51.4199C68.9687 50.9187 69.2748 50.2979 69.3846 49.6543C70.0282 49.5445 70.649 49.2384 71.1502 48.7373L73.8328 46.0547C74.3339 45.5536 74.64 44.9327 74.7498 44.2891C75.3934 44.1793 76.0142 43.8732 76.5154 43.3721L79.198 40.6895C79.6991 40.1884 80.0052 39.5675 80.115 38.924C80.7586 38.8141 81.3794 38.508 81.8806 38.0069L84.5632 35.3243C85.0643 34.8232 85.3704 34.2023 85.4802 33.5588C86.1238 33.4489 86.7446 33.1428 87.2458 32.6417L89.9284 29.9591C90.4295 29.458 90.7356 28.8371 90.8454 28.1936C91.489 28.0837 92.1098 27.7777 92.611 27.2765L95.2936 24.5939C95.7947 24.0928 96.1008 23.4719 96.2106 22.8284C96.8542 22.7185 97.475 22.4125 97.9762 21.9113L100.659 19.2287C101.16 18.7276 101.466 18.1067 101.576 17.4632C102.219 17.3533 102.84 17.0473 103.341 16.5461L106.024 13.8635C106.525 13.3624 106.831 12.7415 106.941 12.098C107.585 11.9882 108.205 11.6821 108.707 11.1809L111.389 8.49833C111.89 7.99719 112.196 7.37635 112.306 6.73279C112.95 6.62296 113.571 6.31688 114.072 5.81574L116.754 3.13314C117.255 2.632 117.562 2.01115 117.671 1.3676C118.315 1.25777 118.936 0.951686 119.437 0.450543L122.12 -2.23205C122.621 -2.73319 122.927 -3.35404 123.037 -3.9976C123.68 -4.10742 124.301 -4.41351 124.802 -4.91465L126.143 -6.25595C127.405 -7.51801 127.43 -9.53928 126.199 -10.7706Z"/>
</mask>
<path fill-rule="evenodd" clip-rule="evenodd" d="M126.199 -10.7706C124.968 -12.0018 122.947 -11.9769 121.685 -10.7148L120.343 -9.37353C119.842 -8.87239 119.536 -8.25154 119.426 -7.60798C118.783 -7.49815 118.162 -7.19207 117.661 -6.69093L114.978 -4.00833C114.477 -3.50719 114.171 -2.88634 114.061 -2.24278C113.417 -2.13296 112.797 -1.82688 112.295 -1.32574L109.613 1.35686C109.112 1.858 108.806 2.47885 108.696 3.12241C108.052 3.23223 107.431 3.53831 106.93 4.03946L104.248 6.72205C103.747 7.22319 103.44 7.84404 103.331 8.4876C102.687 8.59743 102.066 8.90351 101.565 9.40465L98.8825 12.0872C98.3813 12.5884 98.0753 13.2092 97.9654 13.8528C97.3219 13.9626 96.701 14.2687 96.1999 14.7698L93.5173 17.4524C93.0161 17.9536 92.7101 18.5744 92.6002 19.218C91.9567 19.3278 91.3358 19.6339 90.8347 20.135L88.1521 22.8176C87.651 23.3188 87.3449 23.9396 87.235 24.5832C86.5915 24.693 85.9706 24.9991 85.4695 25.5002L82.7869 28.1828C82.2858 28.684 81.9797 29.3048 81.8698 29.9484C81.2263 30.0582 80.6054 30.3643 80.1043 30.8654L77.4217 33.548C76.9206 34.0492 76.6145 34.67 76.5047 35.3136C75.8611 35.4234 75.2402 35.7295 74.7391 36.2306L72.0565 38.9132C71.5554 39.4144 71.2493 40.0352 71.1395 40.6788C70.4959 40.7886 69.875 41.0947 69.3739 41.5958L66.6913 44.2784C66.1902 44.7796 65.8841 45.4004 65.7743 46.044C65.1307 46.1538 64.5099 46.4599 64.0087 46.961L61.3261 49.6436C60.825 50.1447 60.5189 50.7656 60.4091 51.4092C59.7655 51.519 59.1447 51.8251 58.6435 52.3262L55.9609 55.0088C55.4598 55.5099 55.1537 56.1308 55.0439 56.7743C54.4003 56.8842 53.7795 57.1903 53.2783 57.6914L50.5957 60.374C50.0946 60.8751 49.7885 61.496 49.6787 62.1395C49.0351 62.2494 48.4143 62.5555 47.9131 63.0566L45.2305 65.7392C44.7294 66.2403 44.4233 66.8612 44.3135 67.5047C43.6699 67.6146 43.0491 67.9206 42.5479 68.4218L39.8653 71.1044C39.3642 71.6055 39.0581 72.2264 38.9483 72.8699C38.3047 72.9798 37.6839 73.2858 37.1827 73.787L34.5001 76.4696C33.999 76.9707 33.6929 77.5916 33.5831 78.2351C32.9395 78.345 32.3187 78.651 31.8175 79.1522L29.1349 81.8348C28.6338 82.3359 28.3277 82.9568 28.2179 83.6003C27.5743 83.7101 26.9535 84.0162 26.4523 84.5174L23.7698 87.2C23.2686 87.7011 22.9625 88.322 22.8527 88.9655C22.2091 89.0753 21.5883 89.3814 21.0872 89.8826L18.4046 92.5652C17.9034 93.0663 17.5973 93.6872 17.4875 94.3307C16.844 94.4405 16.2231 94.7466 15.722 95.2478L13.0394 97.9304C12.5382 98.4315 12.2321 99.0523 12.1223 99.6959C11.4788 99.8057 10.8579 100.112 10.3568 100.613L7.67416 103.296C7.17302 103.797 6.86693 104.418 6.7571 105.061C6.11354 105.171 5.49271 105.477 4.99158 105.978L2.30897 108.661C1.80784 109.162 1.50176 109.783 1.39193 110.426C0.748361 110.536 0.127511 110.842 -0.373622 111.343L-1.7149 112.685C-2.97696 113.947 -3.00192 115.968 -1.77063 117.199C-0.539345 118.431 1.48192 118.406 2.74398 117.144L4.08526 115.802C4.58639 115.301 4.89247 114.68 5.0023 114.037C5.64587 113.927 6.26672 113.621 6.76785 113.12L9.45046 110.437C9.95159 109.936 10.2577 109.315 10.3675 108.672C11.011 108.562 11.6319 108.256 12.133 107.754L14.8156 105.072C15.3168 104.571 15.6229 103.95 15.7327 103.306C16.3763 103.196 16.9971 102.89 17.4982 102.389L20.1808 99.7066C20.682 99.2055 20.9881 98.5847 21.0979 97.9411C21.7414 97.8313 22.3623 97.5252 22.8634 97.0241L25.546 94.3414C26.0472 93.8403 26.3533 93.2195 26.4631 92.5759C27.1066 92.4661 27.7275 92.16 28.2286 91.6589L30.9112 88.9763C31.4124 88.4751 31.7185 87.8543 31.8283 87.2107C32.4718 87.1009 33.0927 86.7948 33.5938 86.2937L36.2764 83.6111C36.7776 83.1099 37.0836 82.4891 37.1935 81.8455C37.837 81.7357 38.4579 81.4296 38.959 80.9285L41.6416 78.2459C42.1428 77.7447 42.4488 77.1239 42.5587 76.4803C43.2022 76.3705 43.8231 76.0644 44.3242 75.5633L47.0068 72.8807C47.508 72.3795 47.814 71.7587 47.9239 71.1151C48.5674 71.0053 49.1883 70.6992 49.6894 70.1981L52.372 67.5155C52.8732 67.0143 53.1792 66.3935 53.2891 65.7499C53.9326 65.6401 54.5535 65.334 55.0546 64.8329L57.7372 62.1503C58.2383 61.6491 58.5444 61.0283 58.6543 60.3847C59.2978 60.2749 59.9187 59.9688 60.4198 59.4677L63.1024 56.7851C63.6035 56.2839 63.9096 55.6631 64.0195 55.0195C64.663 54.9097 65.2839 54.6036 65.785 54.1025L68.4676 51.4199C68.9687 50.9187 69.2748 50.2979 69.3846 49.6543C70.0282 49.5445 70.649 49.2384 71.1502 48.7373L73.8328 46.0547C74.3339 45.5536 74.64 44.9327 74.7498 44.2891C75.3934 44.1793 76.0142 43.8732 76.5154 43.3721L79.198 40.6895C79.6991 40.1884 80.0052 39.5675 80.115 38.924C80.7586 38.8141 81.3794 38.508 81.8806 38.0069L84.5632 35.3243C85.0643 34.8232 85.3704 34.2023 85.4802 33.5588C86.1238 33.4489 86.7446 33.1428 87.2458 32.6417L89.9284 29.9591C90.4295 29.458 90.7356 28.8371 90.8454 28.1936C91.489 28.0837 92.1098 27.7777 92.611 27.2765L95.2936 24.5939C95.7947 24.0928 96.1008 23.4719 96.2106 22.8284C96.8542 22.7185 97.475 22.4125 97.9762 21.9113L100.659 19.2287C101.16 18.7276 101.466 18.1067 101.576 17.4632C102.219 17.3533 102.84 17.0473 103.341 16.5461L106.024 13.8635C106.525 13.3624 106.831 12.7415 106.941 12.098C107.585 11.9882 108.205 11.6821 108.707 11.1809L111.389 8.49833C111.89 7.99719 112.196 7.37635 112.306 6.73279C112.95 6.62296 113.571 6.31688 114.072 5.81574L116.754 3.13314C117.255 2.632 117.562 2.01115 117.671 1.3676C118.315 1.25777 118.936 0.951686 119.437 0.450543L122.12 -2.23205C122.621 -2.73319 122.927 -3.35404 123.037 -3.9976C123.68 -4.10742 124.301 -4.41351 124.802 -4.91465L126.143 -6.25595C127.405 -7.51801 127.43 -9.53928 126.199 -10.7706Z" stroke="#D7E1F4" stroke-opacity="0.5" stroke-width="6" stroke-linecap="round" mask="url(#path-2-inside-1_859_5640)"/>
<mask id="path-3-inside-2_859_5640" fill="white">
<path fill-rule="evenodd" clip-rule="evenodd" d="M741.319 -1.86432C740.038 -0.684749 739.98 1.33583 741.189 2.64876L742.474 4.04412C742.954 4.56546 743.562 4.89683 744.2 5.03304C744.284 5.68058 744.564 6.31349 745.044 6.83483L747.614 9.62555C748.094 10.1469 748.702 10.4783 749.34 10.6145C749.424 11.262 749.704 11.8949 750.184 12.4163L752.754 15.207C753.234 15.7283 753.842 16.0597 754.48 16.1959C754.563 16.8434 754.844 17.4764 755.324 17.9977L757.894 20.7884C758.374 21.3097 758.982 21.6411 759.62 21.7773C759.703 22.4249 759.984 23.0578 760.464 23.5791L763.034 26.3698C763.514 26.8912 764.121 27.2225 764.76 27.3588C764.843 28.0063 765.123 28.6392 765.604 29.1605L768.174 31.9513C768.654 32.4726 769.261 32.804 769.9 32.9402C769.983 33.5877 770.263 34.2206 770.743 34.742L773.313 37.5327C773.793 38.054 774.401 38.3854 775.04 38.5216C775.123 39.1692 775.403 39.8021 775.883 40.3234L778.453 43.1141C778.933 43.6355 779.541 43.9668 780.18 44.1031C780.263 44.7506 780.543 45.3835 781.023 45.9048L783.593 48.6956C784.073 49.2169 784.681 49.5483 785.319 49.6845C785.403 50.332 785.683 50.9649 786.163 51.4863L788.733 54.277C789.213 54.7983 789.821 55.1297 790.459 55.2659C790.543 55.9135 790.823 56.5464 791.303 57.0677L793.873 59.8584C794.353 60.3798 794.961 60.7111 795.599 60.8473C795.682 61.4949 795.963 62.1278 796.443 62.6491L799.013 65.4398C799.493 65.9612 800.101 66.2926 800.739 66.4288C800.822 67.0763 801.103 67.7092 801.583 68.2306L804.153 71.0213C804.633 71.5426 805.24 71.874 805.879 72.0102C805.962 72.6577 806.242 73.2907 806.723 73.812L809.292 76.6027C809.773 77.1241 810.38 77.4554 811.019 77.5916C811.102 78.2392 811.382 78.8721 811.862 79.3934L814.432 82.1841C814.912 82.7055 815.52 83.0368 816.159 83.1731C816.242 83.8206 816.522 84.4535 817.002 84.9749L819.572 87.7656C820.052 88.2869 820.66 88.6183 821.299 88.7545C821.382 89.402 821.662 90.0349 822.142 90.5563L824.712 93.347C825.192 93.8683 825.8 94.1997 826.438 94.3359C826.522 94.9835 826.802 95.6164 827.282 96.1377L829.852 98.9284C830.332 99.4498 830.94 99.7811 831.578 99.9174C831.662 100.565 831.942 101.198 832.422 101.719L834.992 104.51C835.472 105.031 836.08 105.363 836.718 105.499C836.801 106.146 837.082 106.779 837.562 107.301L840.132 110.091C840.612 110.613 841.22 110.944 841.858 111.08C841.941 111.728 842.222 112.361 842.702 112.882L845.272 115.673C845.752 116.194 846.359 116.525 846.998 116.662C847.081 117.309 847.361 117.942 847.842 118.463L850.411 121.254C850.892 121.776 851.499 122.107 852.138 122.243C852.221 122.891 852.501 123.524 852.981 124.045L855.551 126.836C856.031 127.357 856.639 127.688 857.278 127.825C857.361 128.472 857.641 129.105 858.121 129.626L859.406 131.022C860.615 132.335 862.634 132.443 863.915 131.263C865.196 130.084 865.254 128.063 864.045 126.75L862.76 125.355C862.28 124.833 861.672 124.502 861.034 124.366C860.95 123.718 860.67 123.085 860.19 122.564L857.62 119.773C857.14 119.252 856.532 118.921 855.894 118.784C855.81 118.137 855.53 117.504 855.05 116.983L852.48 114.192C852 113.67 851.392 113.339 850.754 113.203C850.671 112.555 850.39 111.922 849.91 111.401L847.34 108.61C846.86 108.089 846.252 107.758 845.614 107.621C845.531 106.974 845.25 106.341 844.77 105.82L842.2 103.029C841.72 102.508 841.113 102.176 840.474 102.04C840.391 101.393 840.111 100.76 839.63 100.238L837.06 97.4475C836.58 96.9262 835.973 96.5948 835.334 96.4586C835.251 95.8111 834.971 95.1782 834.491 94.6568L831.921 91.8661C831.44 91.3448 830.833 91.0134 830.194 90.8772C830.111 90.2296 829.831 89.5967 829.351 89.0754L826.781 86.2847C826.301 85.7633 825.693 85.432 825.054 85.2958C824.971 84.6482 824.691 84.0153 824.211 83.494L821.641 80.7032C821.161 80.1819 820.553 79.8505 819.915 79.7143C819.831 79.0668 819.551 78.4339 819.071 77.9125L816.501 75.1218C816.021 74.6005 815.413 74.2691 814.775 74.1329C814.691 73.4854 814.411 72.8524 813.931 72.3311L811.361 69.5404C810.881 69.019 810.273 68.6877 809.635 68.5515C809.552 67.9039 809.271 67.271 808.791 66.7497L806.221 63.9589C805.741 63.4376 805.133 63.1062 804.495 62.97C804.412 62.3225 804.131 61.6896 803.651 61.1682L801.081 58.3775C800.601 57.8562 799.994 57.5248 799.355 57.3886C799.272 56.7411 798.992 56.1081 798.511 55.5868L795.942 52.7961C795.461 52.2748 794.854 51.9434 794.215 51.8072C794.132 51.1596 793.852 50.5267 793.372 50.0054L790.802 47.2147C790.322 46.6933 789.714 46.362 789.075 46.2257C788.992 45.5782 788.712 44.9453 788.232 44.4239L785.662 41.6332C785.182 41.1119 784.574 40.7805 783.935 40.6443C783.852 39.9968 783.572 39.3639 783.092 38.8425L780.522 36.0518C780.042 35.5305 779.434 35.1991 778.796 35.0629C778.712 34.4153 778.432 33.7824 777.952 33.2611L775.382 30.4704C774.902 29.949 774.294 29.6177 773.656 29.4814C773.572 28.8339 773.292 28.201 772.812 27.6796L770.242 24.8889C769.762 24.3676 769.154 24.0362 768.516 23.9C768.433 23.2525 768.152 22.6196 767.672 22.0982L765.102 19.3075C764.622 18.7862 764.014 18.4548 763.376 18.3186C763.293 17.671 763.012 17.0381 762.532 16.5168L759.962 13.7261C759.482 13.2047 758.875 12.8734 758.236 12.7372C758.153 12.0896 757.873 11.4567 757.392 10.9354L754.823 8.14465C754.342 7.62331 753.735 7.29194 753.096 7.15572C753.013 6.50819 752.733 5.87527 752.253 5.35393L749.683 2.56322C749.203 2.04188 748.595 1.7105 747.956 1.57429C747.873 0.926756 747.593 0.293841 747.113 -0.227498L745.828 -1.62286C744.619 -2.93579 742.6 -3.0439 741.319 -1.86432Z"/>
</mask>
<path fill-rule="evenodd" clip-rule="evenodd" d="M741.319 -1.86432C740.038 -0.684749 739.98 1.33583 741.189 2.64876L742.474 4.04412C742.954 4.56546 743.562 4.89683 744.2 5.03304C744.284 5.68058 744.564 6.31349 745.044 6.83483L747.614 9.62555C748.094 10.1469 748.702 10.4783 749.34 10.6145C749.424 11.262 749.704 11.8949 750.184 12.4163L752.754 15.207C753.234 15.7283 753.842 16.0597 754.48 16.1959C754.563 16.8434 754.844 17.4764 755.324 17.9977L757.894 20.7884C758.374 21.3097 758.982 21.6411 759.62 21.7773C759.703 22.4249 759.984 23.0578 760.464 23.5791L763.034 26.3698C763.514 26.8912 764.121 27.2225 764.76 27.3588C764.843 28.0063 765.123 28.6392 765.604 29.1605L768.174 31.9513C768.654 32.4726 769.261 32.804 769.9 32.9402C769.983 33.5877 770.263 34.2206 770.743 34.742L773.313 37.5327C773.793 38.054 774.401 38.3854 775.04 38.5216C775.123 39.1692 775.403 39.8021 775.883 40.3234L778.453 43.1141C778.933 43.6355 779.541 43.9668 780.18 44.1031C780.263 44.7506 780.543 45.3835 781.023 45.9048L783.593 48.6956C784.073 49.2169 784.681 49.5483 785.319 49.6845C785.403 50.332 785.683 50.9649 786.163 51.4863L788.733 54.277C789.213 54.7983 789.821 55.1297 790.459 55.2659C790.543 55.9135 790.823 56.5464 791.303 57.0677L793.873 59.8584C794.353 60.3798 794.961 60.7111 795.599 60.8473C795.682 61.4949 795.963 62.1278 796.443 62.6491L799.013 65.4398C799.493 65.9612 800.101 66.2926 800.739 66.4288C800.822 67.0763 801.103 67.7092 801.583 68.2306L804.153 71.0213C804.633 71.5426 805.24 71.874 805.879 72.0102C805.962 72.6577 806.242 73.2907 806.723 73.812L809.292 76.6027C809.773 77.1241 810.38 77.4554 811.019 77.5916C811.102 78.2392 811.382 78.8721 811.862 79.3934L814.432 82.1841C814.912 82.7055 815.52 83.0368 816.159 83.1731C816.242 83.8206 816.522 84.4535 817.002 84.9749L819.572 87.7656C820.052 88.2869 820.66 88.6183 821.299 88.7545C821.382 89.402 821.662 90.0349 822.142 90.5563L824.712 93.347C825.192 93.8683 825.8 94.1997 826.438 94.3359C826.522 94.9835 826.802 95.6164 827.282 96.1377L829.852 98.9284C830.332 99.4498 830.94 99.7811 831.578 99.9174C831.662 100.565 831.942 101.198 832.422 101.719L834.992 104.51C835.472 105.031 836.08 105.363 836.718 105.499C836.801 106.146 837.082 106.779 837.562 107.301L840.132 110.091C840.612 110.613 841.22 110.944 841.858 111.08C841.941 111.728 842.222 112.361 842.702 112.882L845.272 115.673C845.752 116.194 846.359 116.525 846.998 116.662C847.081 117.309 847.361 117.942 847.842 118.463L850.411 121.254C850.892 121.776 851.499 122.107 852.138 122.243C852.221 122.891 852.501 123.524 852.981 124.045L855.551 126.836C856.031 127.357 856.639 127.688 857.278 127.825C857.361 128.472 857.641 129.105 858.121 129.626L859.406 131.022C860.615 132.335 862.634 132.443 863.915 131.263C865.196 130.084 865.254 128.063 864.045 126.75L862.76 125.355C862.28 124.833 861.672 124.502 861.034 124.366C860.95 123.718 860.67 123.085 860.19 122.564L857.62 119.773C857.14 119.252 856.532 118.921 855.894 118.784C855.81 118.137 855.53 117.504 855.05 116.983L852.48 114.192C852 113.67 851.392 113.339 850.754 113.203C850.671 112.555 850.39 111.922 849.91 111.401L847.34 108.61C846.86 108.089 846.252 107.758 845.614 107.621C845.531 106.974 845.25 106.341 844.77 105.82L842.2 103.029C841.72 102.508 841.113 102.176 840.474 102.04C840.391 101.393 840.111 100.76 839.63 100.238L837.06 97.4475C836.58 96.9262 835.973 96.5948 835.334 96.4586C835.251 95.8111 834.971 95.1782 834.491 94.6568L831.921 91.8661C831.44 91.3448 830.833 91.0134 830.194 90.8772C830.111 90.2296 829.831 89.5967 829.351 89.0754L826.781 86.2847C826.301 85.7633 825.693 85.432 825.054 85.2958C824.971 84.6482 824.691 84.0153 824.211 83.494L821.641 80.7032C821.161 80.1819 820.553 79.8505 819.915 79.7143C819.831 79.0668 819.551 78.4339 819.071 77.9125L816.501 75.1218C816.021 74.6005 815.413 74.2691 814.775 74.1329C814.691 73.4854 814.411 72.8524 813.931 72.3311L811.361 69.5404C810.881 69.019 810.273 68.6877 809.635 68.5515C809.552 67.9039 809.271 67.271 808.791 66.7497L806.221 63.9589C805.741 63.4376 805.133 63.1062 804.495 62.97C804.412 62.3225 804.131 61.6896 803.651 61.1682L801.081 58.3775C800.601 57.8562 799.994 57.5248 799.355 57.3886C799.272 56.7411 798.992 56.1081 798.511 55.5868L795.942 52.7961C795.461 52.2748 794.854 51.9434 794.215 51.8072C794.132 51.1596 793.852 50.5267 793.372 50.0054L790.802 47.2147C790.322 46.6933 789.714 46.362 789.075 46.2257C788.992 45.5782 788.712 44.9453 788.232 44.4239L785.662 41.6332C785.182 41.1119 784.574 40.7805 783.935 40.6443C783.852 39.9968 783.572 39.3639 783.092 38.8425L780.522 36.0518C780.042 35.5305 779.434 35.1991 778.796 35.0629C778.712 34.4153 778.432 33.7824 777.952 33.2611L775.382 30.4704C774.902 29.949 774.294 29.6177 773.656 29.4814C773.572 28.8339 773.292 28.201 772.812 27.6796L770.242 24.8889C769.762 24.3676 769.154 24.0362 768.516 23.9C768.433 23.2525 768.152 22.6196 767.672 22.0982L765.102 19.3075C764.622 18.7862 764.014 18.4548 763.376 18.3186C763.293 17.671 763.012 17.0381 762.532 16.5168L759.962 13.7261C759.482 13.2047 758.875 12.8734 758.236 12.7372C758.153 12.0896 757.873 11.4567 757.392 10.9354L754.823 8.14465C754.342 7.62331 753.735 7.29194 753.096 7.15572C753.013 6.50819 752.733 5.87527 752.253 5.35393L749.683 2.56322C749.203 2.04188 748.595 1.7105 747.956 1.57429C747.873 0.926756 747.593 0.293841 747.113 -0.227498L745.828 -1.62286C744.619 -2.93579 742.6 -3.0439 741.319 -1.86432Z" stroke="#D7E1F4" stroke-opacity="0.5" stroke-width="6" stroke-linecap="round" mask="url(#path-3-inside-2_859_5640)"/>
<mask id="path-4-inside-3_859_5640" fill="white">
<path fill-rule="evenodd" clip-rule="evenodd" d="M899.267 -40.0146C896.598 -42.6839 892.216 -42.6298 889.479 -39.8937L886.572 -36.9858C885.485 -35.8994 884.822 -34.5534 884.583 -33.1582C883.188 -32.9201 881.842 -32.2565 880.756 -31.1701L874.94 -25.3543C873.854 -24.2679 873.19 -22.9219 872.952 -21.5267C871.557 -21.2886 870.211 -20.625 869.124 -19.5386L863.308 -13.7228C862.222 -12.6363 861.558 -11.2904 861.32 -9.89515C859.925 -9.65705 858.579 -8.99348 857.493 -7.90702L851.677 -2.09126C850.59 -1.0048 849.927 0.341168 849.689 1.73638C848.294 1.97448 846.948 2.63805 845.861 3.72451L840.045 9.54027C838.959 10.6267 838.295 11.9727 838.057 13.3679C836.662 13.606 835.316 14.2696 834.23 15.356L828.414 21.1718C827.327 22.2583 826.664 23.6042 826.426 24.9994C825.031 25.2375 823.685 25.9011 822.598 26.9876L816.782 32.8033C815.696 33.8898 815.032 35.2358 814.794 36.631C813.399 36.8691 812.053 37.5326 810.967 38.6191L805.151 44.4349C804.064 45.5213 803.401 46.8673 803.163 48.2625C801.767 48.5006 800.422 49.1642 799.335 50.2506L793.519 56.0664C792.433 57.1529 791.769 58.4988 791.531 59.894C790.136 60.1321 788.79 60.7957 787.704 61.8822L781.888 67.6979C780.801 68.7844 780.138 70.1304 779.9 71.5256C778.504 71.7637 777.158 72.4273 776.072 73.5137L770.256 79.3295C769.17 80.4159 768.506 81.7619 768.268 83.1571C766.873 83.3952 765.527 84.0588 764.44 85.1452L758.625 90.961C757.538 92.0475 756.875 93.3934 756.637 94.7886C755.241 95.0267 753.895 95.6903 752.809 96.7768L746.993 102.593C745.907 103.679 745.243 105.025 745.005 106.42C743.61 106.658 742.264 107.322 741.177 108.408L735.362 114.224C734.275 115.311 733.612 116.656 733.373 118.052C731.978 118.29 730.632 118.953 729.546 120.04L723.73 125.856C722.644 126.942 721.98 128.288 721.742 129.683C720.347 129.921 719.001 130.585 717.914 131.671L712.099 137.487C711.012 138.574 710.349 139.92 710.11 141.315C708.715 141.553 707.369 142.216 706.283 143.303L700.467 149.119C699.381 150.205 698.717 151.551 698.479 152.946C697.084 153.184 695.738 153.848 694.651 154.934L688.835 160.75C687.749 161.837 687.085 163.183 686.847 164.578C685.452 164.816 684.106 165.48 683.02 166.566L677.204 172.382C676.117 173.468 675.454 174.814 675.216 176.209C673.821 176.447 672.475 177.111 671.388 178.198L665.572 184.013C664.486 185.1 663.822 186.446 663.584 187.841C662.189 188.079 660.843 188.743 659.757 189.829L653.941 195.645C652.854 196.731 652.191 198.077 651.953 199.472C650.558 199.711 649.212 200.374 648.125 201.461L642.309 207.276C641.223 208.363 640.559 209.709 640.321 211.104C638.926 211.342 637.58 212.006 636.494 213.092L630.678 218.908C629.591 219.994 628.928 221.34 628.69 222.736C627.294 222.974 625.949 223.637 624.862 224.724L621.954 227.631C619.218 230.368 619.164 234.75 621.833 237.419C624.503 240.088 628.885 240.034 631.621 237.298L634.529 234.39C635.615 233.304 636.279 231.958 636.517 230.563C637.912 230.325 639.258 229.661 640.345 228.575L646.16 222.759C647.247 221.672 647.91 220.326 648.148 218.931C649.544 218.693 650.89 218.029 651.976 216.943L657.792 211.127C658.878 210.041 659.542 208.695 659.78 207.3C661.175 207.062 662.521 206.398 663.608 205.311L669.423 199.496C670.51 198.409 671.173 197.063 671.411 195.668C672.807 195.43 674.153 194.766 675.239 193.68L681.055 187.864C682.141 186.778 682.805 185.432 683.043 184.037C684.438 183.798 685.784 183.135 686.871 182.048L692.686 176.233C693.773 175.146 694.436 173.8 694.675 172.405C696.07 172.167 697.416 171.503 698.502 170.417L704.318 164.601C705.404 163.515 706.068 162.169 706.306 160.773C707.701 160.535 709.047 159.872 710.134 158.785L715.949 152.97C717.036 151.883 717.7 150.537 717.938 149.142C719.333 148.904 720.679 148.24 721.765 147.154L727.581 141.338C728.667 140.252 729.331 138.906 729.569 137.51C730.964 137.272 732.31 136.609 733.397 135.522L739.213 129.707C740.299 128.62 740.963 127.274 741.201 125.879C742.596 125.641 743.942 124.977 745.028 123.891L750.844 118.075C751.931 116.989 752.594 115.643 752.832 114.247C754.227 114.009 755.573 113.346 756.66 112.259L762.476 106.443C763.562 105.357 764.226 104.011 764.464 102.616C765.859 102.378 767.205 101.714 768.291 100.628L774.107 94.8119C775.194 93.7255 775.857 92.3795 776.095 90.9843C777.49 90.7462 778.836 90.0826 779.923 88.9961L785.739 83.1804C786.825 82.0939 787.489 80.748 787.727 79.3527C789.122 79.1146 790.468 78.4511 791.554 77.3646L797.37 71.5488C798.457 70.4624 799.12 69.1164 799.358 67.7212C800.754 67.4831 802.1 66.8195 803.186 65.7331L809.002 59.9173C810.088 58.8308 810.752 57.4849 810.99 56.0897C812.385 55.8516 813.731 55.188 814.818 54.1015L820.633 48.2858C821.72 47.1993 822.383 45.8534 822.621 44.4581C824.017 44.22 825.363 43.5565 826.449 42.47L832.265 36.6542C833.351 35.5678 834.015 34.2218 834.253 32.8266C835.648 32.5885 836.994 31.9249 838.081 30.8385L843.896 25.0227C844.983 23.9362 845.646 22.5903 845.884 21.1951C847.28 20.957 848.626 20.2934 849.712 19.2069L855.528 13.3912C856.614 12.3047 857.278 10.9588 857.516 9.56355C858.911 9.32545 860.257 8.66187 861.344 7.57541L867.159 1.75965C868.246 0.673192 868.909 -0.67277 869.148 -2.06798C870.543 -2.30609 871.889 -2.96966 872.975 -4.05611L878.791 -9.87188C879.877 -10.9583 880.541 -12.3043 880.779 -13.6995C882.174 -13.9376 883.52 -14.6012 884.607 -15.6876L890.422 -21.5034C891.509 -22.5899 892.172 -23.9358 892.411 -25.331C893.806 -25.5691 895.152 -26.2327 896.238 -27.3192L899.146 -30.2271C901.882 -32.9632 901.936 -37.3452 899.267 -40.0146Z"/>
</mask>
<path fill-rule="evenodd" clip-rule="evenodd" d="M899.267 -40.0146C896.598 -42.6839 892.216 -42.6298 889.479 -39.8937L886.572 -36.9858C885.485 -35.8994 884.822 -34.5534 884.583 -33.1582C883.188 -32.9201 881.842 -32.2565 880.756 -31.1701L874.94 -25.3543C873.854 -24.2679 873.19 -22.9219 872.952 -21.5267C871.557 -21.2886 870.211 -20.625 869.124 -19.5386L863.308 -13.7228C862.222 -12.6363 861.558 -11.2904 861.32 -9.89515C859.925 -9.65705 858.579 -8.99348 857.493 -7.90702L851.677 -2.09126C850.59 -1.0048 849.927 0.341168 849.689 1.73638C848.294 1.97448 846.948 2.63805 845.861 3.72451L840.045 9.54027C838.959 10.6267 838.295 11.9727 838.057 13.3679C836.662 13.606 835.316 14.2696 834.23 15.356L828.414 21.1718C827.327 22.2583 826.664 23.6042 826.426 24.9994C825.031 25.2375 823.685 25.9011 822.598 26.9876L816.782 32.8033C815.696 33.8898 815.032 35.2358 814.794 36.631C813.399 36.8691 812.053 37.5326 810.967 38.6191L805.151 44.4349C804.064 45.5213 803.401 46.8673 803.163 48.2625C801.767 48.5006 800.422 49.1642 799.335 50.2506L793.519 56.0664C792.433 57.1529 791.769 58.4988 791.531 59.894C790.136 60.1321 788.79 60.7957 787.704 61.8822L781.888 67.6979C780.801 68.7844 780.138 70.1304 779.9 71.5256C778.504 71.7637 777.158 72.4273 776.072 73.5137L770.256 79.3295C769.17 80.4159 768.506 81.7619 768.268 83.1571C766.873 83.3952 765.527 84.0588 764.44 85.1452L758.625 90.961C757.538 92.0475 756.875 93.3934 756.637 94.7886C755.241 95.0267 753.895 95.6903 752.809 96.7768L746.993 102.593C745.907 103.679 745.243 105.025 745.005 106.42C743.61 106.658 742.264 107.322 741.177 108.408L735.362 114.224C734.275 115.311 733.612 116.656 733.373 118.052C731.978 118.29 730.632 118.953 729.546 120.04L723.73 125.856C722.644 126.942 721.98 128.288 721.742 129.683C720.347 129.921 719.001 130.585 717.914 131.671L712.099 137.487C711.012 138.574 710.349 139.92 710.11 141.315C708.715 141.553 707.369 142.216 706.283 143.303L700.467 149.119C699.381 150.205 698.717 151.551 698.479 152.946C697.084 153.184 695.738 153.848 694.651 154.934L688.835 160.75C687.749 161.837 687.085 163.183 686.847 164.578C685.452 164.816 684.106 165.48 683.02 166.566L677.204 172.382C676.117 173.468 675.454 174.814 675.216 176.209C673.821 176.447 672.475 177.111 671.388 178.198L665.572 184.013C664.486 185.1 663.822 186.446 663.584 187.841C662.189 188.079 660.843 188.743 659.757 189.829L653.941 195.645C652.854 196.731 652.191 198.077 651.953 199.472C650.558 199.711 649.212 200.374 648.125 201.461L642.309 207.276C641.223 208.363 640.559 209.709 640.321 211.104C638.926 211.342 637.58 212.006 636.494 213.092L630.678 218.908C629.591 219.994 628.928 221.34 628.69 222.736C627.294 222.974 625.949 223.637 624.862 224.724L621.954 227.631C619.218 230.368 619.164 234.75 621.833 237.419C624.503 240.088 628.885 240.034 631.621 237.298L634.529 234.39C635.615 233.304 636.279 231.958 636.517 230.563C637.912 230.325 639.258 229.661 640.345 228.575L646.16 222.759C647.247 221.672 647.91 220.326 648.148 218.931C649.544 218.693 650.89 218.029 651.976 216.943L657.792 211.127C658.878 210.041 659.542 208.695 659.78 207.3C661.175 207.062 662.521 206.398 663.608 205.311L669.423 199.496C670.51 198.409 671.173 197.063 671.411 195.668C672.807 195.43 674.153 194.766 675.239 193.68L681.055 187.864C682.141 186.778 682.805 185.432 683.043 184.037C684.438 183.798 685.784 183.135 686.871 182.048L692.686 176.233C693.773 175.146 694.436 173.8 694.675 172.405C696.07 172.167 697.416 171.503 698.502 170.417L704.318 164.601C705.404 163.515 706.068 162.169 706.306 160.773C707.701 160.535 709.047 159.872 710.134 158.785L715.949 152.97C717.036 151.883 717.7 150.537 717.938 149.142C719.333 148.904 720.679 148.24 721.765 147.154L727.581 141.338C728.667 140.252 729.331 138.906 729.569 137.51C730.964 137.272 732.31 136.609 733.397 135.522L739.213 129.707C740.299 128.62 740.963 127.274 741.201 125.879C742.596 125.641 743.942 124.977 745.028 123.891L750.844 118.075C751.931 116.989 752.594 115.643 752.832 114.247C754.227 114.009 755.573 113.346 756.66 112.259L762.476 106.443C763.562 105.357 764.226 104.011 764.464 102.616C765.859 102.378 767.205 101.714 768.291 100.628L774.107 94.8119C775.194 93.7255 775.857 92.3795 776.095 90.9843C777.49 90.7462 778.836 90.0826 779.923 88.9961L785.739 83.1804C786.825 82.0939 787.489 80.748 787.727 79.3527C789.122 79.1146 790.468 78.4511 791.554 77.3646L797.37 71.5488C798.457 70.4624 799.12 69.1164 799.358 67.7212C800.754 67.4831 802.1 66.8195 803.186 65.7331L809.002 59.9173C810.088 58.8308 810.752 57.4849 810.99 56.0897C812.385 55.8516 813.731 55.188 814.818 54.1015L820.633 48.2858C821.72 47.1993 822.383 45.8534 822.621 44.4581C824.017 44.22 825.363 43.5565 826.449 42.47L832.265 36.6542C833.351 35.5678 834.015 34.2218 834.253 32.8266C835.648 32.5885 836.994 31.9249 838.081 30.8385L843.896 25.0227C844.983 23.9362 845.646 22.5903 845.884 21.1951C847.28 20.957 848.626 20.2934 849.712 19.2069L855.528 13.3912C856.614 12.3047 857.278 10.9588 857.516 9.56355C858.911 9.32545 860.257 8.66187 861.344 7.57541L867.159 1.75965C868.246 0.673192 868.909 -0.67277 869.148 -2.06798C870.543 -2.30609 871.889 -2.96966 872.975 -4.05611L878.791 -9.87188C879.877 -10.9583 880.541 -12.3043 880.779 -13.6995C882.174 -13.9376 883.52 -14.6012 884.607 -15.6876L890.422 -21.5034C891.509 -22.5899 892.172 -23.9358 892.411 -25.331C893.806 -25.5691 895.152 -26.2327 896.238 -27.3192L899.146 -30.2271C901.882 -32.9632 901.936 -37.3452 899.267 -40.0146Z" stroke="#D7E1F4" stroke-width="12" stroke-linecap="round" mask="url(#path-4-inside-3_859_5640)"/>
<mask id="path-5-inside-4_859_5640" fill="white">
<path fill-rule="evenodd" clip-rule="evenodd" d="M-54.4645 13.5355C-52.5119 11.5829 -49.3065 11.6225 -47.305 13.6239L-45.1779 15.751C-44.3832 16.5457 -43.8978 17.5303 -43.7237 18.5509C-42.7031 18.725 -41.7185 19.2104 -40.9238 20.0052L-36.6696 24.2593C-35.8749 25.0541 -35.3895 26.0386 -35.2153 27.0592C-34.1947 27.2334 -33.2102 27.7188 -32.4154 28.5135L-28.1613 32.7677C-27.3665 33.5624 -26.8811 34.547 -26.707 35.5676C-25.6864 35.7417 -24.7018 36.2271 -23.9071 37.0219L-19.6529 41.276C-18.8582 42.0708 -18.3728 43.0553 -18.1986 44.0759C-17.1781 44.2501 -16.1935 44.7355 -15.3988 45.5302L-11.1446 49.7844C-10.3499 50.5791 -9.86447 51.5637 -9.6903 52.5842C-8.66971 52.7584 -7.68516 53.2438 -6.89043 54.0385L-2.63626 58.2927C-1.84153 59.0874 -1.35613 60.072 -1.18196 61.0926C-0.161376 61.2667 0.823182 61.7521 1.61791 62.5469L5.87208 66.801C6.66682 67.5958 7.15221 68.5803 7.32638 69.6009C8.34697 69.7751 9.33152 70.2605 10.1263 71.0552L14.3804 75.3094C15.1752 76.1041 15.6606 77.0887 15.8347 78.1093C16.8553 78.2834 17.8399 78.7688 18.6346 79.5635L22.8888 83.8177C23.6835 84.6125 24.1689 85.597 24.3431 86.6176C25.3637 86.7918 26.3482 87.2772 27.1429 88.0719L31.3971 92.3261C32.1918 93.1208 32.6772 94.1054 32.8514 95.1259C33.872 95.3001 34.8566 95.7855 35.6513 96.5802L39.9055 100.834C40.7002 101.629 41.1856 102.614 41.3597 103.634C42.3803 103.808 43.3649 104.294 44.1596 105.089L48.4138 109.343C49.2085 110.137 49.6939 111.122 49.8681 112.143C50.8887 112.317 51.8732 112.802 52.668 113.597L56.9221 117.851C57.7169 118.646 58.2023 119.63 58.3764 120.651C59.397 120.825 60.3816 121.311 61.1763 122.105L65.4305 126.359C66.2252 127.154 66.7106 128.139 66.8848 129.159C67.9053 129.333 68.8899 129.819 69.6846 130.614L73.9388 134.868C74.7336 135.663 75.2189 136.647 75.3931 137.668C76.4137 137.842 77.3983 138.327 78.193 139.122L82.4472 143.376C83.2419 144.171 83.7273 145.155 83.9015 146.176C84.922 146.35 85.9066 146.836 86.7013 147.63L90.9555 151.884C91.7502 152.679 92.2356 153.664 92.4098 154.684C93.4304 154.859 94.4149 155.344 95.2097 156.139L99.4638 160.393C100.259 161.188 100.744 162.172 100.918 163.193C101.939 163.367 102.923 163.852 103.718 164.647L107.972 168.901C108.767 169.696 109.252 170.68 109.426 171.701C110.447 171.875 111.432 172.361 112.226 173.155L116.481 177.409C117.275 178.204 117.761 179.189 117.935 180.209C118.955 180.384 119.94 180.869 120.735 181.664L124.989 185.918C125.784 186.713 126.269 187.697 126.443 188.718C127.464 188.892 128.448 189.377 129.243 190.172L133.497 194.426C134.292 195.221 134.777 196.205 134.952 197.226C135.972 197.4 136.957 197.886 137.751 198.68L142.006 202.934C142.8 203.729 143.286 204.714 143.46 205.734C144.48 205.909 145.465 206.394 146.26 207.189L148.387 209.316C150.388 211.317 150.428 214.523 148.475 216.475C146.523 218.428 143.317 218.388 141.316 216.387L139.189 214.26C138.394 213.465 137.909 212.48 137.734 211.46C136.714 211.286 135.729 210.8 134.934 210.006L130.68 205.751C129.886 204.957 129.4 203.972 129.226 202.952C128.205 202.777 127.221 202.292 126.426 201.497L122.172 197.243C121.377 196.448 120.892 195.464 120.718 194.443C119.697 194.269 118.713 193.784 117.918 192.989L113.664 188.735C112.869 187.94 112.383 186.955 112.209 185.935C111.189 185.761 110.204 185.275 109.409 184.481L105.155 180.226C104.361 179.432 103.875 178.447 103.701 177.426C102.68 177.252 101.696 176.767 100.901 175.972L96.6469 171.718C95.8522 170.923 95.3668 169.939 95.1927 168.918C94.1721 168.744 93.1875 168.259 92.3928 167.464L88.1386 163.21C87.3439 162.415 86.8585 161.43 86.6843 160.41C85.6637 160.236 84.6792 159.75 83.8844 158.956L79.6303 154.701C78.8355 153.907 78.3501 152.922 78.176 151.901C77.1554 151.727 76.1708 151.242 75.3761 150.447L71.1219 146.193C70.3272 145.398 69.8418 144.414 69.6676 143.393C68.647 143.219 67.6625 142.734 66.8678 141.939L62.6136 137.685C61.8188 136.89 61.3334 135.905 61.1593 134.885C60.1387 134.711 59.1541 134.225 58.3594 133.43L54.1052 129.176C53.3105 128.382 52.8251 127.397 52.6509 126.376C51.6304 126.202 50.6458 125.717 49.8511 124.922L45.5969 120.668C44.8022 119.873 44.3168 118.889 44.1426 117.868C43.122 117.694 42.1375 117.209 41.3427 116.414L37.0886 112.16C36.2938 111.365 35.8084 110.38 35.6343 109.36C34.6137 109.186 33.6291 108.7 32.8344 107.905L28.5802 103.651C27.7855 102.857 27.3001 101.872 27.1259 100.851C26.1053 100.677 25.1208 100.192 24.326 99.3971L20.0719 95.143C19.2771 94.3482 18.7917 93.3637 18.6176 92.3431C17.597 92.1689 16.6124 91.6835 15.8177 90.8888L11.5635 86.6346C10.7688 85.8399 10.2834 84.8553 10.1092 83.8347C9.08866 83.6606 8.10409 83.1752 7.30936 82.3804L3.05519 78.1263C2.26045 77.3315 1.77506 76.347 1.6009 75.3264C0.580311 75.1522 -0.404253 74.6668 -1.19899 73.8721L-5.45316 69.6179C-6.24789 68.8232 -6.73328 67.8386 -6.90745 66.8181C-7.92803 66.6439 -8.9126 66.1585 -9.70733 65.3638L-13.9615 61.1096C-14.7562 60.3149 -15.2416 59.3303 -15.4158 58.3097C-16.4364 58.1356 -17.4209 57.6502 -18.2157 56.8554L-22.4698 52.6013C-23.2646 51.8065 -23.75 50.822 -23.9241 49.8014C-24.9447 49.6272 -25.9293 49.1418 -26.724 48.3471L-30.9782 44.0929C-31.7729 43.2982 -32.2583 42.3136 -32.4325 41.293C-33.453 41.1189 -34.4376 40.6335 -35.2323 39.8388L-39.4865 35.5846C-40.2812 34.7899 -40.7666 33.8053 -40.9408 32.7847C-41.9614 32.6105 -42.9459 32.1251 -43.7407 31.3304L-47.9948 27.0762C-48.7896 26.2815 -49.275 25.297 -49.4491 24.2764C-50.4697 24.1022 -51.4543 23.6168 -52.249 22.8221L-54.3761 20.695C-56.3775 18.6936 -56.4171 15.4882 -54.4645 13.5355Z"/>
</mask>
<path fill-rule="evenodd" clip-rule="evenodd" d="M-54.4645 13.5355C-52.5119 11.5829 -49.3065 11.6225 -47.305 13.6239L-45.1779 15.751C-44.3832 16.5457 -43.8978 17.5303 -43.7237 18.5509C-42.7031 18.725 -41.7185 19.2104 -40.9238 20.0052L-36.6696 24.2593C-35.8749 25.0541 -35.3895 26.0386 -35.2153 27.0592C-34.1947 27.2334 -33.2102 27.7188 -32.4154 28.5135L-28.1613 32.7677C-27.3665 33.5624 -26.8811 34.547 -26.707 35.5676C-25.6864 35.7417 -24.7018 36.2271 -23.9071 37.0219L-19.6529 41.276C-18.8582 42.0708 -18.3728 43.0553 -18.1986 44.0759C-17.1781 44.2501 -16.1935 44.7355 -15.3988 45.5302L-11.1446 49.7844C-10.3499 50.5791 -9.86447 51.5637 -9.6903 52.5842C-8.66971 52.7584 -7.68516 53.2438 -6.89043 54.0385L-2.63626 58.2927C-1.84153 59.0874 -1.35613 60.072 -1.18196 61.0926C-0.161376 61.2667 0.823182 61.7521 1.61791 62.5469L5.87208 66.801C6.66682 67.5958 7.15221 68.5803 7.32638 69.6009C8.34697 69.7751 9.33152 70.2605 10.1263 71.0552L14.3804 75.3094C15.1752 76.1041 15.6606 77.0887 15.8347 78.1093C16.8553 78.2834 17.8399 78.7688 18.6346 79.5635L22.8888 83.8177C23.6835 84.6125 24.1689 85.597 24.3431 86.6176C25.3637 86.7918 26.3482 87.2772 27.1429 88.0719L31.3971 92.3261C32.1918 93.1208 32.6772 94.1054 32.8514 95.1259C33.872 95.3001 34.8566 95.7855 35.6513 96.5802L39.9055 100.834C40.7002 101.629 41.1856 102.614 41.3597 103.634C42.3803 103.808 43.3649 104.294 44.1596 105.089L48.4138 109.343C49.2085 110.137 49.6939 111.122 49.8681 112.143C50.8887 112.317 51.8732 112.802 52.668 113.597L56.9221 117.851C57.7169 118.646 58.2023 119.63 58.3764 120.651C59.397 120.825 60.3816 121.311 61.1763 122.105L65.4305 126.359C66.2252 127.154 66.7106 128.139 66.8848 129.159C67.9053 129.333 68.8899 129.819 69.6846 130.614L73.9388 134.868C74.7336 135.663 75.2189 136.647 75.3931 137.668C76.4137 137.842 77.3983 138.327 78.193 139.122L82.4472 143.376C83.2419 144.171 83.7273 145.155 83.9015 146.176C84.922 146.35 85.9066 146.836 86.7013 147.63L90.9555 151.884C91.7502 152.679 92.2356 153.664 92.4098 154.684C93.4304 154.859 94.4149 155.344 95.2097 156.139L99.4638 160.393C100.259 161.188 100.744 162.172 100.918 163.193C101.939 163.367 102.923 163.852 103.718 164.647L107.972 168.901C108.767 169.696 109.252 170.68 109.426 171.701C110.447 171.875 111.432 172.361 112.226 173.155L116.481 177.409C117.275 178.204 117.761 179.189 117.935 180.209C118.955 180.384 119.94 180.869 120.735 181.664L124.989 185.918C125.784 186.713 126.269 187.697 126.443 188.718C127.464 188.892 128.448 189.377 129.243 190.172L133.497 194.426C134.292 195.221 134.777 196.205 134.952 197.226C135.972 197.4 136.957 197.886 137.751 198.68L142.006 202.934C142.8 203.729 143.286 204.714 143.46 205.734C144.48 205.909 145.465 206.394 146.26 207.189L148.387 209.316C150.388 211.317 150.428 214.523 148.475 216.475C146.523 218.428 143.317 218.388 141.316 216.387L139.189 214.26C138.394 213.465 137.909 212.48 137.734 211.46C136.714 211.286 135.729 210.8 134.934 210.006L130.68 205.751C129.886 204.957 129.4 203.972 129.226 202.952C128.205 202.777 127.221 202.292 126.426 201.497L122.172 197.243C121.377 196.448 120.892 195.464 120.718 194.443C119.697 194.269 118.713 193.784 117.918 192.989L113.664 188.735C112.869 187.94 112.383 186.955 112.209 185.935C111.189 185.761 110.204 185.275 109.409 184.481L105.155 180.226C104.361 179.432 103.875 178.447 103.701 177.426C102.68 177.252 101.696 176.767 100.901 175.972L96.6469 171.718C95.8522 170.923 95.3668 169.939 95.1927 168.918C94.1721 168.744 93.1875 168.259 92.3928 167.464L88.1386 163.21C87.3439 162.415 86.8585 161.43 86.6843 160.41C85.6637 160.236 84.6792 159.75 83.8844 158.956L79.6303 154.701C78.8355 153.907 78.3501 152.922 78.176 151.901C77.1554 151.727 76.1708 151.242 75.3761 150.447L71.1219 146.193C70.3272 145.398 69.8418 144.414 69.6676 143.393C68.647 143.219 67.6625 142.734 66.8678 141.939L62.6136 137.685C61.8188 136.89 61.3334 135.905 61.1593 134.885C60.1387 134.711 59.1541 134.225 58.3594 133.43L54.1052 129.176C53.3105 128.382 52.8251 127.397 52.6509 126.376C51.6304 126.202 50.6458 125.717 49.8511 124.922L45.5969 120.668C44.8022 119.873 44.3168 118.889 44.1426 117.868C43.122 117.694 42.1375 117.209 41.3427 116.414L37.0886 112.16C36.2938 111.365 35.8084 110.38 35.6343 109.36C34.6137 109.186 33.6291 108.7 32.8344 107.905L28.5802 103.651C27.7855 102.857 27.3001 101.872 27.1259 100.851C26.1053 100.677 25.1208 100.192 24.326 99.3971L20.0719 95.143C19.2771 94.3482 18.7917 93.3637 18.6176 92.3431C17.597 92.1689 16.6124 91.6835 15.8177 90.8888L11.5635 86.6346C10.7688 85.8399 10.2834 84.8553 10.1092 83.8347C9.08866 83.6606 8.10409 83.1752 7.30936 82.3804L3.05519 78.1263C2.26045 77.3315 1.77506 76.347 1.6009 75.3264C0.580311 75.1522 -0.404253 74.6668 -1.19899 73.8721L-5.45316 69.6179C-6.24789 68.8232 -6.73328 67.8386 -6.90745 66.8181C-7.92803 66.6439 -8.9126 66.1585 -9.70733 65.3638L-13.9615 61.1096C-14.7562 60.3149 -15.2416 59.3303 -15.4158 58.3097C-16.4364 58.1356 -17.4209 57.6502 -18.2157 56.8554L-22.4698 52.6013C-23.2646 51.8065 -23.75 50.822 -23.9241 49.8014C-24.9447 49.6272 -25.9293 49.1418 -26.724 48.3471L-30.9782 44.0929C-31.7729 43.2982 -32.2583 42.3136 -32.4325 41.293C-33.453 41.1189 -34.4376 40.6335 -35.2323 39.8388L-39.4865 35.5846C-40.2812 34.7899 -40.7666 33.8053 -40.9408 32.7847C-41.9614 32.6105 -42.9459 32.1251 -43.7407 31.3304L-47.9948 27.0762C-48.7896 26.2815 -49.275 25.297 -49.4491 24.2764C-50.4697 24.1022 -51.4543 23.6168 -52.249 22.8221L-54.3761 20.695C-56.3775 18.6936 -56.4171 15.4882 -54.4645 13.5355Z" stroke="#D7E1F4" stroke-width="8" stroke-linecap="round" mask="url(#path-5-inside-4_859_5640)"/>
<rect x="0.5" y="0.5" width="861" height="199" stroke="#293856"/>
<path fill-rule="evenodd" clip-rule="evenodd" d="M861 1H1V199H861V1ZM0 0V200H862V0H0Z" fill="#293858"/>
<mask id="path-8-inside-5_859_5640" fill="white">
<path fill-rule="evenodd" clip-rule="evenodd" d="M883 102.5C883 100.015 879.866 98 876 98L871.891 98C870.356 98 868.937 98.3177 867.783 98.8563C866.629 98.3177 865.209 98 863.674 98L855.457 98C853.921 98 852.502 98.3177 851.348 98.8563C850.194 98.3177 848.774 98 847.239 98L839.022 98C837.487 98 836.067 98.3177 834.913 98.8563C833.759 98.3177 832.339 98 830.804 98L822.587 98C821.052 98 819.632 98.3177 818.478 98.8563C817.324 98.3177 815.905 98 814.37 98L806.152 98C804.617 98 803.197 98.3177 802.043 98.8563C800.89 98.3177 799.47 98 797.935 98L789.717 98C788.182 98 786.763 98.3177 785.609 98.8563C784.455 98.3177 783.035 98 781.5 98L773.283 98C771.747 98 770.328 98.3177 769.174 98.8563C768.02 98.3177 766.6 98 765.065 98L756.848 98C755.313 98 753.893 98.3177 752.739 98.8563C751.585 98.3177 750.166 98 748.63 98L740.413 98C738.878 98 737.458 98.3177 736.304 98.8563C735.15 98.3177 733.731 98 732.196 98L723.978 98C722.443 98 721.023 98.3177 719.87 98.8563C718.716 98.3177 717.296 98 715.761 98L707.543 98C706.008 98 704.589 98.3177 703.435 98.8563C702.281 98.3177 700.861 98 699.326 98L691.109 98C689.574 98 688.154 98.3177 687 98.8563C685.846 98.3177 684.426 98 682.891 98L674.674 98C673.139 98 671.719 98.3177 670.565 98.8563C669.411 98.3177 667.992 98 666.456 98L658.239 98C656.704 98 655.284 98.3177 654.13 98.8563C652.977 98.3177 651.557 98 650.022 98L641.804 98C640.269 98 638.85 98.3177 637.696 98.8563C636.542 98.3177 635.122 98 633.587 98L625.37 98C623.834 98 622.415 98.3177 621.261 98.8563C620.107 98.3177 618.687 98 617.152 98L608.935 98C607.4 98 605.98 98.3177 604.826 98.8563C603.672 98.3177 602.252 98 600.717 98L592.5 98C590.965 98 589.545 98.3177 588.391 98.8563C587.237 98.3177 585.818 98 584.283 98L576.065 98C574.53 98 573.11 98.3177 571.956 98.8563C570.803 98.3177 569.383 98 567.848 98L559.63 98C558.095 98 556.676 98.3176 555.522 98.8563C554.368 98.3176 552.948 98 551.413 98L543.196 98C541.66 98 540.241 98.3176 539.087 98.8563C537.933 98.3176 536.513 98 534.978 98L526.761 98C525.226 98 523.806 98.3176 522.652 98.8563C521.498 98.3176 520.078 98 518.543 98L510.326 98C508.791 98 507.371 98.3176 506.217 98.8563C505.063 98.3176 503.644 98 502.109 98L498 98C494.134 98 491 100.015 491 102.5C491 104.985 494.134 107 498 107L502.109 107C503.644 107 505.063 106.682 506.217 106.144C507.371 106.682 508.791 107 510.326 107L518.543 107C520.078 107 521.498 106.682 522.652 106.144C523.806 106.682 525.226 107 526.761 107L534.978 107C536.513 107 537.933 106.682 539.087 106.144C540.241 106.682 541.66 107 543.196 107L551.413 107C552.948 107 554.368 106.682 555.522 106.144C556.676 106.682 558.095 107 559.63 107L567.848 107C569.383 107 570.803 106.682 571.956 106.144C573.11 106.682 574.53 107 576.065 107L584.283 107C585.818 107 587.237 106.682 588.391 106.144C589.545 106.682 590.965 107 592.5 107L600.717 107C602.252 107 603.672 106.682 604.826 106.144C605.98 106.682 607.4 107 608.935 107L617.152 107C618.687 107 620.107 106.682 621.261 106.144C622.415 106.682 623.834 107 625.37 107L633.587 107C635.122 107 636.542 106.682 637.696 106.144C638.85 106.682 640.269 107 641.804 107L650.022 107C651.557 107 652.977 106.682 654.13 106.144C655.284 106.682 656.704 107 658.239 107L666.456 107C667.992 107 669.411 106.682 670.565 106.144C671.719 106.682 673.139 107 674.674 107L682.891 107C684.426 107 685.846 106.682 687 106.144C688.154 106.682 689.574 107 691.109 107L699.326 107C700.861 107 702.281 106.682 703.435 106.144C704.589 106.682 706.008 107 707.543 107L715.761 107C717.296 107 718.716 106.682 719.87 106.144C721.023 106.682 722.443 107 723.978 107L732.196 107C733.731 107 735.15 106.682 736.304 106.144C737.458 106.682 738.878 107 740.413 107L748.63 107C750.166 107 751.585 106.682 752.739 106.144C753.893 106.682 755.313 107 756.848 107L765.065 107C766.6 107 768.02 106.682 769.174 106.144C770.328 106.682 771.747 107 773.283 107L781.5 107C783.035 107 784.455 106.682 785.609 106.144C786.763 106.682 788.182 107 789.717 107L797.935 107C799.47 107 800.89 106.682 802.043 106.144C803.197 106.682 804.617 107 806.152 107L814.37 107C815.905 107 817.324 106.682 818.478 106.144C819.632 106.682 821.052 107 822.587 107L830.804 107C832.339 107 833.759 106.682 834.913 106.144C836.067 106.682 837.487 107 839.022 107L847.239 107C848.774 107 850.194 106.682 851.348 106.144C852.502 106.682 853.921 107 855.457 107L863.674 107C865.209 107 866.629 106.682 867.783 106.144C868.937 106.682 870.356 107 871.891 107L876 107C879.866 107 883 104.985 883 102.5Z"/>
</mask>
<path fill-rule="evenodd" clip-rule="evenodd" d="M883 102.5C883 100.015 879.866 98 876 98L871.891 98C870.356 98 868.937 98.3177 867.783 98.8563C866.629 98.3177 865.209 98 863.674 98L855.457 98C853.921 98 852.502 98.3177 851.348 98.8563C850.194 98.3177 848.774 98 847.239 98L839.022 98C837.487 98 836.067 98.3177 834.913 98.8563C833.759 98.3177 832.339 98 830.804 98L822.587 98C821.052 98 819.632 98.3177 818.478 98.8563C817.324 98.3177 815.905 98 814.37 98L806.152 98C804.617 98 803.197 98.3177 802.043 98.8563C800.89 98.3177 799.47 98 797.935 98L789.717 98C788.182 98 786.763 98.3177 785.609 98.8563C784.455 98.3177 783.035 98 781.5 98L773.283 98C771.747 98 770.328 98.3177 769.174 98.8563C768.02 98.3177 766.6 98 765.065 98L756.848 98C755.313 98 753.893 98.3177 752.739 98.8563C751.585 98.3177 750.166 98 748.63 98L740.413 98C738.878 98 737.458 98.3177 736.304 98.8563C735.15 98.3177 733.731 98 732.196 98L723.978 98C722.443 98 721.023 98.3177 719.87 98.8563C718.716 98.3177 717.296 98 715.761 98L707.543 98C706.008 98 704.589 98.3177 703.435 98.8563C702.281 98.3177 700.861 98 699.326 98L691.109 98C689.574 98 688.154 98.3177 687 98.8563C685.846 98.3177 684.426 98 682.891 98L674.674 98C673.139 98 671.719 98.3177 670.565 98.8563C669.411 98.3177 667.992 98 666.456 98L658.239 98C656.704 98 655.284 98.3177 654.13 98.8563C652.977 98.3177 651.557 98 650.022 98L641.804 98C640.269 98 638.85 98.3177 637.696 98.8563C636.542 98.3177 635.122 98 633.587 98L625.37 98C623.834 98 622.415 98.3177 621.261 98.8563C620.107 98.3177 618.687 98 617.152 98L608.935 98C607.4 98 605.98 98.3177 604.826 98.8563C603.672 98.3177 602.252 98 600.717 98L592.5 98C590.965 98 589.545 98.3177 588.391 98.8563C587.237 98.3177 585.818 98 584.283 98L576.065 98C574.53 98 573.11 98.3177 571.956 98.8563C570.803 98.3177 569.383 98 567.848 98L559.63 98C558.095 98 556.676 98.3176 555.522 98.8563C554.368 98.3176 552.948 98 551.413 98L543.196 98C541.66 98 540.241 98.3176 539.087 98.8563C537.933 98.3176 536.513 98 534.978 98L526.761 98C525.226 98 523.806 98.3176 522.652 98.8563C521.498 98.3176 520.078 98 518.543 98L510.326 98C508.791 98 507.371 98.3176 506.217 98.8563C505.063 98.3176 503.644 98 502.109 98L498 98C494.134 98 491 100.015 491 102.5C491 104.985 494.134 107 498 107L502.109 107C503.644 107 505.063 106.682 506.217 106.144C507.371 106.682 508.791 107 510.326 107L518.543 107C520.078 107 521.498 106.682 522.652 106.144C523.806 106.682 525.226 107 526.761 107L534.978 107C536.513 107 537.933 106.682 539.087 106.144C540.241 106.682 541.66 107 543.196 107L551.413 107C552.948 107 554.368 106.682 555.522 106.144C556.676 106.682 558.095 107 559.63 107L567.848 107C569.383 107 570.803 106.682 571.956 106.144C573.11 106.682 574.53 107 576.065 107L584.283 107C585.818 107 587.237 106.682 588.391 106.144C589.545 106.682 590.965 107 592.5 107L600.717 107C602.252 107 603.672 106.682 604.826 106.144C605.98 106.682 607.4 107 608.935 107L617.152 107C618.687 107 620.107 106.682 621.261 106.144C622.415 106.682 623.834 107 625.37 107L633.587 107C635.122 107 636.542 106.682 637.696 106.144C638.85 106.682 640.269 107 641.804 107L650.022 107C651.557 107 652.977 106.682 654.13 106.144C655.284 106.682 656.704 107 658.239 107L666.456 107C667.992 107 669.411 106.682 670.565 106.144C671.719 106.682 673.139 107 674.674 107L682.891 107C684.426 107 685.846 106.682 687 106.144C688.154 106.682 689.574 107 691.109 107L699.326 107C700.861 107 702.281 106.682 703.435 106.144C704.589 106.682 706.008 107 707.543 107L715.761 107C717.296 107 718.716 106.682 719.87 106.144C721.023 106.682 722.443 107 723.978 107L732.196 107C733.731 107 735.15 106.682 736.304 106.144C737.458 106.682 738.878 107 740.413 107L748.63 107C750.166 107 751.585 106.682 752.739 106.144C753.893 106.682 755.313 107 756.848 107L765.065 107C766.6 107 768.02 106.682 769.174 106.144C770.328 106.682 771.747 107 773.283 107L781.5 107C783.035 107 784.455 106.682 785.609 106.144C786.763 106.682 788.182 107 789.717 107L797.935 107C799.47 107 800.89 106.682 802.043 106.144C803.197 106.682 804.617 107 806.152 107L814.37 107C815.905 107 817.324 106.682 818.478 106.144C819.632 106.682 821.052 107 822.587 107L830.804 107C832.339 107 833.759 106.682 834.913 106.144C836.067 106.682 837.487 107 839.022 107L847.239 107C848.774 107 850.194 106.682 851.348 106.144C852.502 106.682 853.921 107 855.457 107L863.674 107C865.209 107 866.629 106.682 867.783 106.144C868.937 106.682 870.356 107 871.891 107L876 107C879.866 107 883 104.985 883 102.5Z" stroke="url(#paint0_linear_859_5640)" stroke-width="8" stroke-linecap="round" mask="url(#path-8-inside-5_859_5640)"/>
<mask id="path-9-inside-6_859_5640" fill="white">
<path fill-rule="evenodd" clip-rule="evenodd" d="M-25 102.5C-25 100.015 -21.866 98 -18 98L-13.8913 98C-12.3562 98 -10.9365 98.3177 -9.78261 98.8563C-8.62872 98.3177 -7.20902 98 -5.67391 98L2.54348 98C4.07859 98 5.49829 98.3177 6.65218 98.8563C7.80607 98.3177 9.22576 98 10.7609 98L18.9783 98C20.5134 98 21.9331 98.3177 23.087 98.8563C24.2409 98.3177 25.6605 98 27.1957 98L35.413 98C36.9482 98 38.3678 98.3177 39.5217 98.8563C40.6756 98.3177 42.0953 98 43.6304 98L51.8478 98C53.3829 98 54.8026 98.3177 55.9565 98.8563C57.1104 98.3177 58.5301 98 60.0652 98L68.2826 98C69.8177 98 71.2374 98.3177 72.3913 98.8563C73.5452 98.3177 74.9649 98 76.5 98L84.7174 98C86.2525 98 87.6722 98.3177 88.8261 98.8563C89.98 98.3177 91.3997 98 92.9348 98L101.152 98C102.687 98 104.107 98.3177 105.261 98.8563C106.415 98.3177 107.834 98 109.37 98L117.587 98C119.122 98 120.542 98.3177 121.696 98.8563C122.85 98.3177 124.269 98 125.804 98L134.022 98C135.557 98 136.977 98.3177 138.13 98.8563C139.284 98.3177 140.704 98 142.239 98L150.457 98C151.992 98 153.411 98.3177 154.565 98.8563C155.719 98.3177 157.139 98 158.674 98L166.891 98C168.426 98 169.846 98.3177 171 98.8563C172.154 98.3177 173.574 98 175.109 98L183.326 98C184.861 98 186.281 98.3177 187.435 98.8563C188.589 98.3177 190.008 98 191.544 98L199.761 98C201.296 98 202.716 98.3177 203.87 98.8563C205.023 98.3177 206.443 98 207.978 98L216.196 98C217.731 98 219.15 98.3177 220.304 98.8563C221.458 98.3177 222.878 98 224.413 98L232.63 98C234.166 98 235.585 98.3177 236.739 98.8563C237.893 98.3177 239.313 98 240.848 98L249.065 98C250.6 98 252.02 98.3177 253.174 98.8563C254.328 98.3177 255.748 98 257.283 98L265.5 98C267.035 98 268.455 98.3177 269.609 98.8563C270.763 98.3177 272.182 98 273.717 98L281.935 98C283.47 98 284.89 98.3177 286.044 98.8563C287.197 98.3177 288.617 98 290.152 98L298.37 98C299.905 98 301.324 98.3176 302.478 98.8563C303.632 98.3176 305.052 98 306.587 98L314.804 98C316.34 98 317.759 98.3176 318.913 98.8563C320.067 98.3176 321.487 98 323.022 98L331.239 98C332.774 98 334.194 98.3176 335.348 98.8563C336.502 98.3176 337.922 98 339.457 98L347.674 98C349.209 98 350.629 98.3176 351.783 98.8563C352.937 98.3176 354.356 98 355.891 98L360 98C363.866 98 367 100.015 367 102.5C367 104.985 363.866 107 360 107L355.891 107C354.356 107 352.937 106.682 351.783 106.144C350.629 106.682 349.209 107 347.674 107L339.457 107C337.922 107 336.502 106.682 335.348 106.144C334.194 106.682 332.774 107 331.239 107L323.022 107C321.487 107 320.067 106.682 318.913 106.144C317.759 106.682 316.34 107 314.804 107L306.587 107C305.052 107 303.632 106.682 302.478 106.144C301.324 106.682 299.905 107 298.37 107L290.152 107C288.617 107 287.197 106.682 286.044 106.144C284.89 106.682 283.47 107 281.935 107L273.717 107C272.182 107 270.763 106.682 269.609 106.144C268.455 106.682 267.035 107 265.5 107L257.283 107C255.748 107 254.328 106.682 253.174 106.144C252.02 106.682 250.6 107 249.065 107L240.848 107C239.313 107 237.893 106.682 236.739 106.144C235.585 106.682 234.166 107 232.63 107L224.413 107C222.878 107 221.458 106.682 220.304 106.144C219.15 106.682 217.731 107 216.196 107L207.978 107C206.443 107 205.023 106.682 203.87 106.144C202.716 106.682 201.296 107 199.761 107L191.544 107C190.008 107 188.589 106.682 187.435 106.144C186.281 106.682 184.861 107 183.326 107L175.109 107C173.574 107 172.154 106.682 171 106.144C169.846 106.682 168.426 107 166.891 107L158.674 107C157.139 107 155.719 106.682 154.565 106.144C153.411 106.682 151.992 107 150.457 107L142.239 107C140.704 107 139.284 106.682 138.13 106.144C136.977 106.682 135.557 107 134.022 107L125.804 107C124.269 107 122.85 106.682 121.696 106.144C120.542 106.682 119.122 107 117.587 107L109.37 107C107.834 107 106.415 106.682 105.261 106.144C104.107 106.682 102.687 107 101.152 107L92.9348 107C91.3997 107 89.98 106.682 88.8261 106.144C87.6722 106.682 86.2525 107 84.7174 107L76.5 107C74.9649 107 73.5452 106.682 72.3913 106.144C71.2374 106.682 69.8177 107 68.2826 107L60.0652 107C58.5301 107 57.1104 106.682 55.9565 106.144C54.8026 106.682 53.3829 107 51.8478 107L43.6304 107C42.0953 107 40.6756 106.682 39.5217 106.144C38.3678 106.682 36.9482 107 35.413 107L27.1957 107C25.6605 107 24.2409 106.682 23.087 106.144C21.9331 106.682 20.5134 107 18.9783 107L10.7609 107C9.22576 107 7.80607 106.682 6.65218 106.144C5.49829 106.682 4.07859 107 2.54348 107L-5.67391 107C-7.20902 107 -8.62871 106.682 -9.78261 106.144C-10.9365 106.682 -12.3562 107 -13.8913 107L-18 107C-21.866 107 -25 104.985 -25 102.5Z"/>
</mask>
<path fill-rule="evenodd" clip-rule="evenodd" d="M-25 102.5C-25 100.015 -21.866 98 -18 98L-13.8913 98C-12.3562 98 -10.9365 98.3177 -9.78261 98.8563C-8.62872 98.3177 -7.20902 98 -5.67391 98L2.54348 98C4.07859 98 5.49829 98.3177 6.65218 98.8563C7.80607 98.3177 9.22576 98 10.7609 98L18.9783 98C20.5134 98 21.9331 98.3177 23.087 98.8563C24.2409 98.3177 25.6605 98 27.1957 98L35.413 98C36.9482 98 38.3678 98.3177 39.5217 98.8563C40.6756 98.3177 42.0953 98 43.6304 98L51.8478 98C53.3829 98 54.8026 98.3177 55.9565 98.8563C57.1104 98.3177 58.5301 98 60.0652 98L68.2826 98C69.8177 98 71.2374 98.3177 72.3913 98.8563C73.5452 98.3177 74.9649 98 76.5 98L84.7174 98C86.2525 98 87.6722 98.3177 88.8261 98.8563C89.98 98.3177 91.3997 98 92.9348 98L101.152 98C102.687 98 104.107 98.3177 105.261 98.8563C106.415 98.3177 107.834 98 109.37 98L117.587 98C119.122 98 120.542 98.3177 121.696 98.8563C122.85 98.3177 124.269 98 125.804 98L134.022 98C135.557 98 136.977 98.3177 138.13 98.8563C139.284 98.3177 140.704 98 142.239 98L150.457 98C151.992 98 153.411 98.3177 154.565 98.8563C155.719 98.3177 157.139 98 158.674 98L166.891 98C168.426 98 169.846 98.3177 171 98.8563C172.154 98.3177 173.574 98 175.109 98L183.326 98C184.861 98 186.281 98.3177 187.435 98.8563C188.589 98.3177 190.008 98 191.544 98L199.761 98C201.296 98 202.716 98.3177 203.87 98.8563C205.023 98.3177 206.443 98 207.978 98L216.196 98C217.731 98 219.15 98.3177 220.304 98.8563C221.458 98.3177 222.878 98 224.413 98L232.63 98C234.166 98 235.585 98.3177 236.739 98.8563C237.893 98.3177 239.313 98 240.848 98L249.065 98C250.6 98 252.02 98.3177 253.174 98.8563C254.328 98.3177 255.748 98 257.283 98L265.5 98C267.035 98 268.455 98.3177 269.609 98.8563C270.763 98.3177 272.182 98 273.717 98L281.935 98C283.47 98 284.89 98.3177 286.044 98.8563C287.197 98.3177 288.617 98 290.152 98L298.37 98C299.905 98 301.324 98.3176 302.478 98.8563C303.632 98.3176 305.052 98 306.587 98L314.804 98C316.34 98 317.759 98.3176 318.913 98.8563C320.067 98.3176 321.487 98 323.022 98L331.239 98C332.774 98 334.194 98.3176 335.348 98.8563C336.502 98.3176 337.922 98 339.457 98L347.674 98C349.209 98 350.629 98.3176 351.783 98.8563C352.937 98.3176 354.356 98 355.891 98L360 98C363.866 98 367 100.015 367 102.5C367 104.985 363.866 107 360 107L355.891 107C354.356 107 352.937 106.682 351.783 106.144C350.629 106.682 349.209 107 347.674 107L339.457 107C337.922 107 336.502 106.682 335.348 106.144C334.194 106.682 332.774 107 331.239 107L323.022 107C321.487 107 320.067 106.682 318.913 106.144C317.759 106.682 316.34 107 314.804 107L306.587 107C305.052 107 303.632 106.682 302.478 106.144C301.324 106.682 299.905 107 298.37 107L290.152 107C288.617 107 287.197 106.682 286.044 106.144C284.89 106.682 283.47 107 281.935 107L273.717 107C272.182 107 270.763 106.682 269.609 106.144C268.455 106.682 267.035 107 265.5 107L257.283 107C255.748 107 254.328 106.682 253.174 106.144C252.02 106.682 250.6 107 249.065 107L240.848 107C239.313 107 237.893 106.682 236.739 106.144C235.585 106.682 234.166 107 232.63 107L224.413 107C222.878 107 221.458 106.682 220.304 106.144C219.15 106.682 217.731 107 216.196 107L207.978 107C206.443 107 205.023 106.682 203.87 106.144C202.716 106.682 201.296 107 199.761 107L191.544 107C190.008 107 188.589 106.682 187.435 106.144C186.281 106.682 184.861 107 183.326 107L175.109 107C173.574 107 172.154 106.682 171 106.144C169.846 106.682 168.426 107 166.891 107L158.674 107C157.139 107 155.719 106.682 154.565 106.144C153.411 106.682 151.992 107 150.457 107L142.239 107C140.704 107 139.284 106.682 138.13 106.144C136.977 106.682 135.557 107 134.022 107L125.804 107C124.269 107 122.85 106.682 121.696 106.144C120.542 106.682 119.122 107 117.587 107L109.37 107C107.834 107 106.415 106.682 105.261 106.144C104.107 106.682 102.687 107 101.152 107L92.9348 107C91.3997 107 89.98 106.682 88.8261 106.144C87.6722 106.682 86.2525 107 84.7174 107L76.5 107C74.9649 107 73.5452 106.682 72.3913 106.144C71.2374 106.682 69.8177 107 68.2826 107L60.0652 107C58.5301 107 57.1104 106.682 55.9565 106.144C54.8026 106.682 53.3829 107 51.8478 107L43.6304 107C42.0953 107 40.6756 106.682 39.5217 106.144C38.3678 106.682 36.9482 107 35.413 107L27.1957 107C25.6605 107 24.2409 106.682 23.087 106.144C21.9331 106.682 20.5134 107 18.9783 107L10.7609 107C9.22576 107 7.80607 106.682 6.65218 106.144C5.49829 106.682 4.07859 107 2.54348 107L-5.67391 107C-7.20902 107 -8.62871 106.682 -9.78261 106.144C-10.9365 106.682 -12.3562 107 -13.8913 107L-18 107C-21.866 107 -25 104.985 -25 102.5Z" stroke="url(#paint1_linear_859_5640)" stroke-width="8" stroke-linecap="round" mask="url(#path-9-inside-6_859_5640)"/>
<path d="M416.75 33.8046C424.33 29.4281 433.67 29.4281 441.25 33.8046L480.202 56.2935C487.782 60.67 492.452 68.7581 492.452 77.5111V122.489C492.452 131.242 487.782 139.33 480.202 143.707L441.25 166.195C433.67 170.572 424.33 170.572 416.75 166.195L377.798 143.707C370.218 139.33 365.548 131.242 365.548 122.489V77.5111C365.548 68.7581 370.218 60.67 377.798 56.2935L416.75 33.8046Z" stroke="#D7E1F4" stroke-width="3"/>
<path d="M416 20.5056C424.044 15.8611 433.956 15.8611 442 20.5056L491.344 48.9944C499.389 53.6389 504.344 62.2222 504.344 71.5111V128.489C504.344 137.778 499.389 146.361 491.344 151.006L442 179.494C433.956 184.139 424.044 184.139 416 179.494L366.656 151.006C358.611 146.361 353.656 137.778 353.656 128.489V71.5111C353.656 62.2222 358.611 53.6389 366.656 48.9944L416 20.5056Z" stroke="#0FC1B7" stroke-linecap="round" stroke-dasharray="6 6"/>
<path d="M389.229 71.0316L429 54.5413L468.797 71.0425L429.995 90.4437L389.229 71.0316Z" fill="url(#paint2_linear_859_5640)" stroke="url(#paint3_linear_859_5640)"/>
<path d="M389.226 127.03L428.686 110.541L468.793 127.044L429.995 146.444L389.226 127.03Z" fill="url(#paint4_linear_859_5640)" stroke="url(#paint5_linear_859_5640)"/>
<path d="M429.794 90.4556C429.928 90.5162 430.082 90.5147 430.215 90.4516L469.5 71.791V126.688L429.995 145.946L388.5 126.681V71.775L429.794 90.4556Z" fill="url(#paint6_linear_859_5640)" stroke="url(#paint7_linear_859_5640)" stroke-linecap="round" stroke-linejoin="round"/>
<g style="mix-blend-mode:color-dodge">
<path d="M432.983 85.7587C431.823 85.2565 430.576 84.9984 429.316 85C428.056 85.0016 426.809 85.2628 425.65 85.768C424.492 86.2732 423.445 87.0119 422.573 87.94C421.701 88.868 421.021 89.9662 420.575 91.1688C420.211 92.1477 420.009 93.1793 419.973 94.2223C419.954 94.8048 420.437 95.2367 420.976 95.2145C421.529 95.1917 421.93 94.721 421.955 94.1926C421.992 93.404 422.15 92.6249 422.425 91.8841C422.777 90.9357 423.313 90.0696 424.001 89.3378C424.688 88.6059 425.514 88.0233 426.428 87.6249C427.341 87.2265 428.325 87.0205 429.318 87.0193C430.312 87.018 431.295 87.2215 432.21 87.6176C433.125 88.0137 433.952 88.5942 434.641 89.3243C435.331 90.0544 435.869 90.9191 436.223 91.8666C436.5 92.6067 436.66 93.3854 436.699 94.1739C436.725 94.7022 437.128 95.172 437.68 95.1933C438.219 95.2142 438.701 94.781 438.68 94.1986C438.642 93.1557 438.437 92.1246 438.072 91.1466C437.622 89.9452 436.94 88.8487 436.066 87.9229C435.191 86.9971 434.143 86.261 432.983 85.7587Z" fill="#D6E0F3"/>
<path d="M429.48 102.095C428.021 102.095 426.839 103.302 426.839 104.791C426.839 105.663 427.245 106.439 427.875 106.931V109.151C427.875 110.014 428.625 110.658 429.48 110.658C430.335 110.658 431.085 110.014 431.085 109.151V106.931C431.715 106.439 432.121 105.663 432.121 104.791C432.121 103.302 430.939 102.095 429.48 102.095Z" fill="#D6E0F3"/>
<path fill-rule="evenodd" clip-rule="evenodd" d="M420.15 95.7528C418.412 95.7528 417 97.1855 417 98.9557V113.797C417 115.567 418.412 117 420.15 117H438.81C440.548 117 441.96 115.567 441.96 113.797V98.9557C441.96 97.1855 440.548 95.7528 438.81 95.7528H420.15ZM418.838 98.9557C418.838 98.2214 419.424 97.6238 420.15 97.6238H438.81C439.536 97.6238 440.122 98.2214 440.122 98.9557V113.797C440.122 114.531 439.536 115.129 438.81 115.129H420.15C419.424 115.129 418.838 114.531 418.838 113.797V98.9557Z" fill="#D6E0F3"/>
</g>
</g>
<defs>
<linearGradient id="paint0_linear_859_5640" x1="509.5" y1="98" x2="815.5" y2="98" gradientUnits="userSpaceOnUse">
<stop stop-color="#D7E1F4"/>
<stop offset="1" stop-color="#A9B8D6" stop-opacity="0"/>
</linearGradient>
<linearGradient id="paint1_linear_859_5640" x1="348.5" y1="98" x2="42.5" y2="98" gradientUnits="userSpaceOnUse">
<stop stop-color="#D7E1F4"/>
<stop offset="1" stop-color="#A9B8D6" stop-opacity="0"/>
</linearGradient>
<linearGradient id="paint2_linear_859_5640" x1="429" y1="41.9263" x2="429" y2="110.084" gradientUnits="userSpaceOnUse">
<stop offset="0.263846" stop-color="#0FC1B7"/>
<stop offset="1" stop-color="#0FC1B7" stop-opacity="0"/>
</linearGradient>
<linearGradient id="paint3_linear_859_5640" x1="429" y1="54" x2="429" y2="91" gradientUnits="userSpaceOnUse">
<stop stop-color="#0FC1B7"/>
<stop offset="0.830831" stop-color="#0FC1B7" stop-opacity="0"/>
</linearGradient>
<linearGradient id="paint4_linear_859_5640" x1="429" y1="97.9263" x2="429" y2="166.084" gradientUnits="userSpaceOnUse">
<stop offset="0.416092" stop-color="#0FC1B7" stop-opacity="0"/>
<stop offset="0.703475" stop-color="#0FC1B7"/>
</linearGradient>
<linearGradient id="paint5_linear_859_5640" x1="429" y1="110" x2="429" y2="147" gradientUnits="userSpaceOnUse">
<stop offset="0.251742" stop-color="#0FC1B7" stop-opacity="0"/>
<stop offset="0.825996" stop-color="#0FC1B7"/>
</linearGradient>
<linearGradient id="paint6_linear_859_5640" x1="428.75" y1="71" x2="428.75" y2="146.5" gradientUnits="userSpaceOnUse">
<stop offset="0.00778014" stop-color="#0FC1B6"/>
<stop offset="0.48624" stop-color="#111F3B" stop-opacity="0.56"/>
<stop offset="1" stop-color="#0FC1B6" stop-opacity="0"/>
</linearGradient>
<linearGradient id="paint7_linear_859_5640" x1="429" y1="71" x2="429" y2="146.5" gradientUnits="userSpaceOnUse">
<stop offset="0.0539115" stop-color="#0FBEB5"/>
<stop offset="0.237545" stop-color="#0FBEB5" stop-opacity="0"/>
<stop offset="0.432046" stop-color="#0FBEB5"/>
<stop offset="0.677516" stop-color="#0FBEB5" stop-opacity="0"/>
</linearGradient>
<clipPath id="clip0_859_5640">
<rect width="862" height="200" fill="white"/>
</clipPath>
</defs>
</svg>
