<svg width="862" height="489" viewBox="0 0 862 489" fill="none" xmlns="http://www.w3.org/2000/svg">
<rect x="0.5" y="0.5" width="861" height="488" fill="#111F3B" stroke="#293856"/>
<path d="M31.1378 28.9091V42H33.8224V33.4474H33.9311L37.3189 41.9361H39.147L42.5348 33.4794H42.6435V42H45.3281V28.9091H41.9148L38.3097 37.7045H38.1562L34.5511 28.9091H31.1378ZM52.0318 42.1918C54.4608 42.1918 56.0971 41.0092 56.4806 39.1875L53.9622 39.0213C53.6873 39.7692 52.9842 40.1591 52.0765 40.1591C50.715 40.1591 49.8521 39.2578 49.8521 37.794V37.7876H56.5382V37.0398C56.5382 33.7031 54.5183 32.054 51.9231 32.054C49.0339 32.054 47.161 34.1058 47.161 37.1357C47.161 40.2486 49.0083 42.1918 52.0318 42.1918ZM49.8521 36.1001C49.9096 34.9815 50.7598 34.0866 51.9679 34.0866C53.1504 34.0866 53.9686 34.9304 53.975 36.1001H49.8521ZM66.4842 34.9815C66.2413 33.1726 64.7839 32.054 62.3038 32.054C59.7917 32.054 58.1362 33.2173 58.1426 35.1094C58.1362 36.5795 59.063 37.532 60.9806 37.9155L62.6809 38.2543C63.5375 38.4268 63.9274 38.7401 63.9402 39.2322C63.9274 39.8139 63.2946 40.2294 62.3422 40.2294C61.3706 40.2294 60.725 39.8139 60.5588 39.0149L57.8805 39.1555C58.1362 41.0348 59.7342 42.1918 62.3358 42.1918C64.8798 42.1918 66.7015 40.8942 66.7079 38.9574C66.7015 37.5384 65.7747 36.6882 63.8699 36.2983L62.0929 35.9403C61.1788 35.7422 60.84 35.429 60.8464 34.956C60.84 34.3679 61.5048 33.9844 62.3485 33.9844C63.2946 33.9844 63.8571 34.5021 63.9913 35.1349L66.4842 34.9815ZM76.5916 34.9815C76.3487 33.1726 74.8913 32.054 72.4112 32.054C69.8991 32.054 68.2436 33.2173 68.25 35.1094C68.2436 36.5795 69.1705 37.532 71.0881 37.9155L72.7884 38.2543C73.6449 38.4268 74.0348 38.7401 74.0476 39.2322C74.0348 39.8139 73.402 40.2294 72.4496 40.2294C71.478 40.2294 70.8324 39.8139 70.6662 39.0149L67.9879 39.1555C68.2436 41.0348 69.8416 42.1918 72.4432 42.1918C74.9872 42.1918 76.8089 40.8942 76.8153 38.9574C76.8089 37.5384 75.8821 36.6882 73.9773 36.2983L72.2003 35.9403C71.2862 35.7422 70.9474 35.429 70.9538 34.956C70.9474 34.3679 71.6122 33.9844 72.456 33.9844C73.402 33.9844 73.9645 34.5021 74.0987 35.1349L76.5916 34.9815ZM81.3297 42.1854C82.7807 42.1854 83.7203 41.5526 84.1998 40.6385H84.2765V42H86.8588V35.3778C86.8588 33.0384 84.8773 32.054 82.6912 32.054C80.339 32.054 78.7921 33.179 78.415 34.9688L80.9334 35.1733C81.1188 34.5213 81.7005 34.0419 82.6784 34.0419C83.6053 34.0419 84.1358 34.5085 84.1358 35.3139V35.3523C84.1358 35.9851 83.4647 36.0682 81.758 36.2344C79.8148 36.4134 78.0698 37.0653 78.0698 39.2578C78.0698 41.201 79.4569 42.1854 81.3297 42.1854ZM82.1096 40.3061C81.2722 40.3061 80.6713 39.9162 80.6713 39.1683C80.6713 38.4013 81.3042 38.0241 82.263 37.8899C82.8574 37.8068 83.829 37.6662 84.155 37.4489V38.4908C84.155 39.5199 83.3049 40.3061 82.1096 40.3061ZM93.3947 45.8864C96.2008 45.8864 98.1951 44.608 98.1951 42.0959V32.1818H95.4913V33.831H95.389C95.0247 33.032 94.2257 32.054 92.5829 32.054C90.4288 32.054 88.6071 33.7287 88.6071 37.0717C88.6071 40.3381 90.3777 41.8594 92.5893 41.8594C94.1554 41.8594 95.0311 41.0732 95.389 40.2614H95.5041V42.0575C95.5041 43.4062 94.6412 43.9304 93.4586 43.9304C92.2569 43.9304 91.6497 43.4062 91.426 42.8118L88.9075 43.1506C89.2335 44.6974 90.7484 45.8864 93.3947 45.8864ZM93.4522 39.8139C92.1163 39.8139 91.3876 38.7528 91.3876 37.0589C91.3876 35.3906 92.1035 34.2209 93.4522 34.2209C94.7754 34.2209 95.5169 35.3395 95.5169 37.0589C95.5169 38.7912 94.7626 39.8139 93.4522 39.8139ZM104.836 42.1918C107.265 42.1918 108.902 41.0092 109.285 39.1875L106.767 39.0213C106.492 39.7692 105.789 40.1591 104.881 40.1591C103.52 40.1591 102.657 39.2578 102.657 37.794V37.7876H109.343V37.0398C109.343 33.7031 107.323 32.054 104.728 32.054C101.839 32.054 99.9657 34.1058 99.9657 37.1357C99.9657 40.2486 101.813 42.1918 104.836 42.1918ZM102.657 36.1001C102.714 34.9815 103.564 34.0866 104.773 34.0866C105.955 34.0866 106.773 34.9304 106.78 36.1001H102.657ZM119.289 34.9815C119.046 33.1726 117.589 32.054 115.108 32.054C112.596 32.054 110.941 33.2173 110.947 35.1094C110.941 36.5795 111.868 37.532 113.785 37.9155L115.486 38.2543C116.342 38.4268 116.732 38.7401 116.745 39.2322C116.732 39.8139 116.099 40.2294 115.147 40.2294C114.175 40.2294 113.53 39.8139 113.363 39.0149L110.685 39.1555C110.941 41.0348 112.539 42.1918 115.14 42.1918C117.684 42.1918 119.506 40.8942 119.513 38.9574C119.506 37.5384 118.579 36.6882 116.675 36.2983L114.898 35.9403C113.983 35.7422 113.645 35.429 113.651 34.956C113.645 34.3679 114.309 33.9844 115.153 33.9844C116.099 33.9844 116.662 34.5021 116.796 35.1349L119.289 34.9815ZM125.393 42H128.116V32.1818H125.393V42ZM126.761 30.9162C127.573 30.9162 128.238 30.2962 128.238 29.5355C128.238 28.7812 127.573 28.1612 126.761 28.1612C125.956 28.1612 125.291 28.7812 125.291 29.5355C125.291 30.2962 125.956 30.9162 126.761 30.9162ZM133.021 36.3239C133.027 35.0582 133.781 34.3168 134.881 34.3168C135.974 34.3168 136.632 35.0327 136.626 36.2344V42H139.349V35.7486C139.349 33.4602 138.006 32.054 135.961 32.054C134.504 32.054 133.449 32.7699 133.008 33.9141H132.893V32.1818H130.298V42H133.021V36.3239ZM145.213 31.1911H149.221V42H151.957V31.1911H155.965V28.9091H145.213V31.1911ZM159.148 42.1854C160.599 42.1854 161.539 41.5526 162.018 40.6385H162.095V42H164.677V35.3778C164.677 33.0384 162.696 32.054 160.51 32.054C158.157 32.054 156.61 33.179 156.233 34.9688L158.752 35.1733C158.937 34.5213 159.519 34.0419 160.497 34.0419C161.424 34.0419 161.954 34.5085 161.954 35.3139V35.3523C161.954 35.9851 161.283 36.0682 159.576 36.2344C157.633 36.4134 155.888 37.0653 155.888 39.2578C155.888 41.201 157.275 42.1854 159.148 42.1854ZM159.928 40.3061C159.091 40.3061 158.49 39.9162 158.49 39.1683C158.49 38.4013 159.123 38.0241 160.081 37.8899C160.676 37.8068 161.647 37.6662 161.973 37.4489V38.4908C161.973 39.5199 161.123 40.3061 159.928 40.3061ZM169.513 36.3239C169.519 35.0582 170.273 34.3168 171.373 34.3168C172.466 34.3168 173.124 35.0327 173.118 36.2344V42H175.841V35.7486C175.841 33.4602 174.499 32.054 172.453 32.054C170.996 32.054 169.941 32.7699 169.5 33.9141H169.385V32.1818H166.79V42H169.513V36.3239ZM182.41 45.8864C185.216 45.8864 187.211 44.608 187.211 42.0959V32.1818H184.507V33.831H184.405C184.04 33.032 183.241 32.054 181.599 32.054C179.444 32.054 177.623 33.7287 177.623 37.0717C177.623 40.3381 179.393 41.8594 181.605 41.8594C183.171 41.8594 184.047 41.0732 184.405 40.2614H184.52V42.0575C184.52 43.4062 183.657 43.9304 182.474 43.9304C181.273 43.9304 180.665 43.4062 180.442 42.8118L177.923 43.1506C178.249 44.6974 179.764 45.8864 182.41 45.8864ZM182.468 39.8139C181.132 39.8139 180.403 38.7528 180.403 37.0589C180.403 35.3906 181.119 34.2209 182.468 34.2209C183.791 34.2209 184.532 35.3395 184.532 37.0589C184.532 38.7912 183.778 39.8139 182.468 39.8139ZM192.101 28.9091H189.378V42H192.101V28.9091ZM198.756 42.1918C201.185 42.1918 202.822 41.0092 203.205 39.1875L200.687 39.0213C200.412 39.7692 199.709 40.1591 198.801 40.1591C197.44 40.1591 196.577 39.2578 196.577 37.794V37.7876H203.263V37.0398C203.263 33.7031 201.243 32.054 198.648 32.054C195.759 32.054 193.886 34.1058 193.886 37.1357C193.886 40.2486 195.733 42.1918 198.756 42.1918ZM196.577 36.1001C196.634 34.9815 197.484 34.0866 198.692 34.0866C199.875 34.0866 200.693 34.9304 200.7 36.1001H196.577Z" fill="#4079A2"/>
<g filter="url(#filter0_d_142:2)">
<path d="M354 74L359.745 74.5743L357.37 69.312L354 74ZM466.794 22.5443L357.896 71.6931L358.307 72.6046L467.206 23.4557L466.794 22.5443Z" fill="#294C6F"/>
</g>
<g filter="url(#filter1_d_142:2)">
<path d="M431 70L436.453 68.1027L432.083 64.329L431 70ZM468.622 25.6732L433.563 66.2675L434.32 66.9211L469.378 26.3268L468.622 25.6732Z" fill="#294C6F"/>
</g>
<g filter="url(#filter2_d_142:2)">
<path d="M435 76L440.7 76.9177L438.645 71.5224L435 76ZM497.822 51.5328L439.027 73.9308L439.383 74.8653L498.178 52.4672L497.822 51.5328Z" fill="#294C6F"/>
</g>
<path d="M476 26L478.016 31.41L481.693 26.9588L476 26ZM499.318 44.6145L479.788 28.4805L479.151 29.2514L498.682 45.3855L499.318 44.6145Z" fill="#294C6F"/>
<path d="M507 85L509.201 79.6623L503.478 80.4254L507 85ZM502.504 55.0661L505.91 80.6056L506.901 80.4734L503.496 54.9339L502.504 55.0661Z" fill="#294C6F"/>
<g filter="url(#filter3_d_142:2)">
<path d="M476 141L481.147 138.385L476.309 135.235L476 141ZM503.581 97.7272L478.037 136.956L478.875 137.502L504.419 98.2728L503.581 97.7272Z" fill="#4079A2"/>
</g>
<path d="M419 118L422.646 113.523L416.946 112.604L419 118ZM423.506 86.9204L419.223 113.478L420.21 113.637L424.494 87.0796L423.506 86.9204Z" fill="#346288"/>
<path d="M337 132L340.653 127.529L334.954 126.601L337 132ZM343.506 88.9197L337.23 127.478L338.217 127.639L344.494 89.0803L343.506 88.9197Z" fill="#346288"/>
<path d="M263 128L268.772 127.891L265.792 122.947L263 128ZM335.742 83.5718L266.596 125.249L267.112 126.105L336.258 84.4282L335.742 83.5718Z" fill="#346288"/>
<path d="M279 226L284.412 223.99L279.966 220.308L279 226ZM331.615 161.681L281.485 222.215L282.255 222.853L332.385 162.319L331.615 161.681Z" fill="#4078A1"/>
<path d="M195 183L200.677 181.949L196.929 177.558L195 183ZM235.675 147.62L198.098 179.698L198.747 180.459L236.325 148.38L235.675 147.62Z" fill="#4078A1"/>
<path d="M129 230L134.74 229.377L131.33 224.718L129 230ZM169.705 199.596L132.336 226.939L132.927 227.746L170.295 200.404L169.705 199.596Z" fill="#4078A1"/>
<path d="M75 306L80.0274 303.161L75.0552 300.227L75 306ZM110.569 244.746L76.8565 301.87L77.7177 302.379L111.431 245.254L110.569 244.746Z" fill="#346288"/>
<path d="M197 279L202.771 279.16L200.024 274.082L197 279ZM257.762 245.56L200.72 276.419L201.196 277.299L258.238 246.44L257.762 245.56Z" fill="#4078A1"/>
<path d="M429 194L434.536 192.36L430.347 188.386L429 194ZM465.637 154.656L431.734 190.391L432.46 191.08L466.363 155.344L465.637 154.656Z" fill="#346288"/>
<path d="M418.044 187.999L420.927 182.996L415.153 183.002L418.044 187.999ZM417.5 140L417.54 183.499L418.54 183.499L418.5 140L417.5 140Z" fill="#346288"/>
<path d="M354 147L359.544 148.611L358.167 143.004L354 147ZM410.881 132.514L358.251 145.441L358.489 146.412L411.119 133.486L410.881 132.514Z" fill="#346288"/>
<path d="M365 236L366.157 230.344L360.68 232.169L365 236ZM340.526 164.158L363.103 231.889L364.051 231.573L341.474 163.842L340.526 164.158Z" fill="#4078A1"/>
<path d="M384 241L389.52 239.308L385.294 235.373L384 241ZM410.634 211.659L386.7 237.366L387.432 238.047L411.366 212.341L410.634 211.659Z" fill="#4078A1"/>
<path d="M284 240L288.549 243.556L289.354 237.839L284 240ZM355.07 249.505L288.526 240.132L288.386 241.123L354.93 250.495L355.07 249.505Z" fill="#369FAB"/>
<path d="M309 301L314.699 300.074L311.048 295.602L309 301ZM357.684 260.613L312.17 297.767L312.802 298.542L358.316 261.387L357.684 260.613Z" fill="#369FAB"/>
<path d="M247 367L252.317 364.749L247.709 361.27L247 367ZM283.601 317.699L249.313 363.108L250.111 363.71L284.399 318.301L283.601 317.699Z" fill="#4078A1"/>
<path d="M147 351L151.069 355.096L152.582 349.525L147 351ZM228.131 372.517L151.474 351.697L151.212 352.662L227.869 373.483L228.131 372.517Z" fill="#346288"/>
<path d="M176 401L181.691 401.97L179.686 396.556L176 401ZM229.826 380.531L180.046 398.968L180.394 399.906L230.174 381.469L229.826 380.531Z" fill="#346288"/>
<path d="M142 342L147.209 339.511L142.449 336.244L142 342ZM176.588 290.717L144.134 338.007L144.959 338.573L177.412 291.283L176.588 290.717Z" fill="#346288"/>
<path d="M135 341L137.054 335.604L131.354 336.523L135 341ZM119.506 248.08L133.79 336.637L134.777 336.478L120.494 247.92L119.506 248.08Z" fill="#346288"/>
<path d="M93 402L98.4315 400.042L94.0203 396.317L93 402ZM130.618 356.677L95.5213 398.239L96.2853 398.884L131.382 357.323L130.618 356.677Z" fill="#346288"/>
<path d="M47 368L51.7589 364.731L46.5484 362.244L47 368ZM67.5488 323.785L48.487 363.723L49.3895 364.154L68.4512 324.215L67.5488 323.785Z" fill="#346288"/>
<path d="M83 399L85.2006 393.662L79.4778 394.425L83 399ZM72.5044 324.066L81.9096 394.606L82.9009 394.473L73.4956 323.934L72.5044 324.066Z" fill="#346288"/>
<path d="M93 451L98.7663 450.711L95.6329 445.862L93 451ZM157.729 408.58L96.5083 448.138L97.051 448.978L158.271 409.42L157.729 408.58Z" fill="#346288"/>
<path d="M86 447L88.8868 442H83.1132L86 447ZM85.5 416V442.5H86.5V416H85.5Z" fill="#294C6F"/>
<path d="M196 200L199.181 204.818L201.763 199.654L196 200ZM256.224 229.553L200.249 201.565L199.801 202.46L255.776 230.447L256.224 229.553Z" fill="#4078A1"/>
<path d="M288 295L289.197 289.352L283.707 291.139L288 295ZM273.525 252.155L286.131 290.876L287.082 290.566L274.475 251.845L273.525 252.155Z" fill="#4078A1"/>
<path d="M266 222L267.85 216.531L262.189 217.663L266 222ZM251.51 152.098L264.627 217.685L265.608 217.489L252.49 151.902L251.51 152.098Z" fill="#4078A1"/>
<path d="M186.047 272.998L188.696 267.868L182.929 268.138L186.047 272.998ZM182.501 208.023L185.337 268.526L186.336 268.479L183.499 207.977L182.501 208.023Z" fill="#4078A1"/>
<path d="M232 365L232.205 359.23L227.105 361.938L232 365ZM193.058 292.734L229.448 361.26L230.331 360.791L193.942 292.265L193.058 292.734Z" fill="#346288"/>
<circle cx="71.1381" cy="315.138" r="10.161" transform="rotate(21.1048 71.1381 315.138)" fill="#346288"/>
<circle cx="470.064" cy="149.256" r="10.3572" transform="rotate(-131.409 470.064 149.256)" fill="#346288"/>
<circle cx="45.1554" cy="376.112" r="8.6275" transform="rotate(21.1048 45.1554 376.112)" fill="#294C6F"/>
<circle cx="507.491" cy="92.374" r="6.9821" transform="rotate(-131.409 507.491 92.374)" fill="#294C6F"/>
<circle cx="118.516" cy="236.516" r="12" transform="rotate(21.1048 118.516 236.516)" fill="#346288"/>
<circle cx="418.147" cy="201.487" r="13.0272" transform="rotate(-131.409 418.147 201.487)" fill="#4079A2"/>
<circle cx="136.964" cy="351" r="10" fill="#346288"/>
<circle cx="424.319" cy="77.6185" r="10.3572" transform="rotate(-131.409 424.319 77.6185)" fill="#346288"/>
<circle cx="85.7045" cy="407.293" r="8.6275" transform="rotate(21.1048 85.7045 407.293)" fill="#294C6F"/>
<circle cx="502.604" cy="49.7831" r="6.9821" transform="rotate(-131.409 502.604 49.7831)" fill="#294C6F"/>
<circle cx="186.516" cy="284.516" r="12" transform="rotate(21.1048 186.516 284.516)" fill="#346288"/>
<circle cx="418.937" cy="129.937" r="12" transform="rotate(-131.409 418.937 129.937)" fill="#346288"/>
<circle cx="238.516" cy="375.516" r="12" transform="rotate(21.1048 238.516 375.516)" fill="#346288"/>
<circle cx="343.87" cy="78.8699" r="11.2438" transform="rotate(-131.409 343.87 78.8699)" fill="#346288"/>
<ellipse cx="296" cy="308.5" rx="15" ry="15.5" fill="#4079A2"/>
<ellipse cx="269" cy="237.5" rx="15" ry="15.5" fill="#4079A2"/>
<ellipse cx="183" cy="192.5" rx="15" ry="15.5" fill="#4079A2"/>
<circle cx="249" cy="138" r="17" fill="#4079A2"/>
<circle cx="337" cy="149" r="17" fill="#4079A2"/>
<circle cx="371" cy="252" r="17" fill="#369FAB"/>
<circle cx="371" cy="252" r="20.5" stroke="#369FAB" stroke-opacity="0.5" stroke-width="3"/>
<circle cx="371" cy="252" r="29" stroke="#369FAB" stroke-opacity="0.15" stroke-width="2"/>
<circle cx="166.821" cy="404.894" r="10.161" transform="rotate(21.1048 166.821 404.894)" fill="#346288"/>
<circle cx="85.7045" cy="455.607" r="8.6275" transform="rotate(21.1048 85.7045 455.607)" fill="#294C6F"/>
<circle cx="470.486" cy="21.8547" r="6.9821" transform="rotate(-131.409 470.486 21.8547)" fill="#294C6F"/>
<rect x="549" y="74" width="270" height="370" rx="15" stroke="#369FAB" stroke-width="3" stroke-dasharray="8 8"/>
<line x1="388" y1="251.5" x2="543" y2="251.5" stroke="#369FAB" stroke-width="3" stroke-dasharray="8 8"/>
<path d="M644.138 46.9091V60H646.822V51.4474H646.931L650.319 59.9361H652.147L655.535 51.4794H655.643V60H658.328V46.9091H654.915L651.31 55.7045H651.156L647.551 46.9091H644.138ZM665.032 60.1918C667.461 60.1918 669.097 59.0092 669.481 57.1875L666.962 57.0213C666.687 57.7692 665.984 58.1591 665.077 58.1591C663.715 58.1591 662.852 57.2578 662.852 55.794V55.7876H669.538V55.0398C669.538 51.7031 667.518 50.054 664.923 50.054C662.034 50.054 660.161 52.1058 660.161 55.1357C660.161 58.2486 662.008 60.1918 665.032 60.1918ZM662.852 54.1001C662.91 52.9815 663.76 52.0866 664.968 52.0866C666.15 52.0866 666.969 52.9304 666.975 54.1001H662.852ZM679.484 52.9815C679.241 51.1726 677.784 50.054 675.304 50.054C672.792 50.054 671.136 51.2173 671.143 53.1094C671.136 54.5795 672.063 55.532 673.981 55.9155L675.681 56.2543C676.537 56.4268 676.927 56.7401 676.94 57.2322C676.927 57.8139 676.295 58.2294 675.342 58.2294C674.371 58.2294 673.725 57.8139 673.559 57.0149L670.881 57.1555C671.136 59.0348 672.734 60.1918 675.336 60.1918C677.88 60.1918 679.702 58.8942 679.708 56.9574C679.702 55.5384 678.775 54.6882 676.87 54.2983L675.093 53.9403C674.179 53.7422 673.84 53.429 673.846 52.956C673.84 52.3679 674.505 51.9844 675.349 51.9844C676.295 51.9844 676.857 52.5021 676.991 53.1349L679.484 52.9815ZM689.592 52.9815C689.349 51.1726 687.891 50.054 685.411 50.054C682.899 50.054 681.244 51.2173 681.25 53.1094C681.244 54.5795 682.17 55.532 684.088 55.9155L685.788 56.2543C686.645 56.4268 687.035 56.7401 687.048 57.2322C687.035 57.8139 686.402 58.2294 685.45 58.2294C684.478 58.2294 683.832 57.8139 683.666 57.0149L680.988 57.1555C681.244 59.0348 682.842 60.1918 685.443 60.1918C687.987 60.1918 689.809 58.8942 689.815 56.9574C689.809 55.5384 688.882 54.6882 686.977 54.2983L685.2 53.9403C684.286 53.7422 683.947 53.429 683.954 52.956C683.947 52.3679 684.612 51.9844 685.456 51.9844C686.402 51.9844 686.964 52.5021 687.099 53.1349L689.592 52.9815ZM694.33 60.1854C695.781 60.1854 696.72 59.5526 697.2 58.6385H697.276V60H699.859V53.3778C699.859 51.0384 697.877 50.054 695.691 50.054C693.339 50.054 691.792 51.179 691.415 52.9688L693.933 53.1733C694.119 52.5213 694.7 52.0419 695.678 52.0419C696.605 52.0419 697.136 52.5085 697.136 53.3139V53.3523C697.136 53.9851 696.465 54.0682 694.758 54.2344C692.815 54.4134 691.07 55.0653 691.07 57.2578C691.07 59.201 692.457 60.1854 694.33 60.1854ZM695.11 58.3061C694.272 58.3061 693.671 57.9162 693.671 57.1683C693.671 56.4013 694.304 56.0241 695.263 55.8899C695.857 55.8068 696.829 55.6662 697.155 55.4489V56.4908C697.155 57.5199 696.305 58.3061 695.11 58.3061ZM706.395 63.8864C709.201 63.8864 711.195 62.608 711.195 60.0959V50.1818H708.491V51.831H708.389C708.025 51.032 707.226 50.054 705.583 50.054C703.429 50.054 701.607 51.7287 701.607 55.0717C701.607 58.3381 703.378 59.8594 705.589 59.8594C707.155 59.8594 708.031 59.0732 708.389 58.2614H708.504V60.0575C708.504 61.4062 707.641 61.9304 706.459 61.9304C705.257 61.9304 704.65 61.4062 704.426 60.8118L701.907 61.1506C702.233 62.6974 703.748 63.8864 706.395 63.8864ZM706.452 57.8139C705.116 57.8139 704.388 56.7528 704.388 55.0589C704.388 53.3906 705.104 52.2209 706.452 52.2209C707.775 52.2209 708.517 53.3395 708.517 55.0589C708.517 56.7912 707.763 57.8139 706.452 57.8139ZM717.836 60.1918C720.265 60.1918 721.902 59.0092 722.285 57.1875L719.767 57.0213C719.492 57.7692 718.789 58.1591 717.881 58.1591C716.52 58.1591 715.657 57.2578 715.657 55.794V55.7876H722.343V55.0398C722.343 51.7031 720.323 50.054 717.728 50.054C714.839 50.054 712.966 52.1058 712.966 55.1357C712.966 58.2486 714.813 60.1918 717.836 60.1918ZM715.657 54.1001C715.714 52.9815 716.564 52.0866 717.773 52.0866C718.955 52.0866 719.773 52.9304 719.78 54.1001H715.657Z" fill="#369FAB"/>
<rect x="569.5" y="94.5" width="108" height="29" rx="4.5" stroke="#369FAB"/>
<rect x="690.5" y="94.5" width="108" height="29" rx="4.5" stroke="#369FAB"/>
<rect x="629.5" y="138.5" width="108" height="29" rx="4.5" stroke="#369FAB"/>
<path d="M618.565 113H619.738V105.364H618.565V113ZM619.162 104.091C619.619 104.091 619.997 103.733 619.997 103.295C619.997 102.858 619.619 102.5 619.162 102.5C618.704 102.5 618.326 102.858 618.326 103.295C618.326 103.733 618.704 104.091 619.162 104.091ZM624.771 113.159C626.242 113.159 626.74 112.244 626.998 111.827H627.137V113H628.271V102.818H627.098V106.577H626.998C626.74 106.179 626.282 105.264 624.791 105.264C622.862 105.264 621.529 106.795 621.529 109.202C621.529 111.628 622.862 113.159 624.771 113.159ZM624.93 112.105C623.458 112.105 622.703 110.812 622.703 109.182C622.703 107.571 623.438 106.318 624.93 106.318C626.362 106.318 627.117 107.472 627.117 109.182C627.117 110.912 626.342 112.105 624.93 112.105Z" fill="#369FAB"/>
<path d="M708.82 102.818H707.606V110.832H707.507L701.939 102.818H700.746V113H701.979V105.006H702.078L707.626 113H708.82V102.818ZM714.23 113.159C716.298 113.159 717.69 111.588 717.69 109.222C717.69 106.835 716.298 105.264 714.23 105.264C712.162 105.264 710.77 106.835 710.77 109.222C710.77 111.588 712.162 113.159 714.23 113.159ZM714.23 112.105C712.659 112.105 711.943 110.753 711.943 109.222C711.943 107.69 712.659 106.318 714.23 106.318C715.801 106.318 716.517 107.69 716.517 109.222C716.517 110.753 715.801 112.105 714.23 112.105ZM720.654 108.406C720.654 107.074 721.48 106.318 722.603 106.318C723.692 106.318 724.353 107.029 724.353 108.227V113H725.527V108.148C725.527 106.199 724.487 105.264 722.941 105.264C721.788 105.264 721.072 105.781 720.714 106.557H720.615V105.364H719.481V113H720.654V108.406ZM730.773 113.159C732.463 113.159 733.577 112.125 733.776 110.773H732.602C732.384 111.608 731.688 112.105 730.773 112.105C729.381 112.105 728.486 110.952 728.486 109.182C728.486 107.452 729.401 106.318 730.773 106.318C731.807 106.318 732.423 106.955 732.602 107.651H733.776C733.577 106.219 732.364 105.264 730.753 105.264C728.685 105.264 727.313 106.895 727.313 109.222C727.313 111.509 728.625 113.159 730.773 113.159ZM738.693 113.159C740.244 113.159 741.377 112.384 741.735 111.23L740.602 110.912C740.303 111.707 739.612 112.105 738.693 112.105C737.315 112.105 736.366 111.215 736.311 109.58H741.854V109.082C741.854 106.239 740.164 105.264 738.573 105.264C736.505 105.264 735.133 106.895 735.133 109.241C735.133 111.588 736.485 113.159 738.693 113.159ZM736.311 108.565C736.391 107.377 737.231 106.318 738.573 106.318C739.846 106.318 740.661 107.273 740.661 108.565H736.311ZM747.994 108.705C747.994 111.21 748.671 113.298 749.884 115.068H750.918C749.963 113.756 749.207 111.071 749.207 108.705C749.207 106.338 749.963 103.653 750.918 102.341H749.884C748.671 104.111 747.994 106.199 747.994 108.705ZM752.808 113H754.041V109.281H756.268C758.64 109.281 759.709 107.839 759.709 106.04C759.709 104.24 758.64 102.818 756.248 102.818H752.808V113ZM754.041 108.188V103.912H756.209C757.864 103.912 758.496 104.817 758.496 106.04C758.496 107.263 757.864 108.188 756.229 108.188H754.041ZM770.286 107.909C770.286 104.688 768.397 102.679 765.791 102.679C763.186 102.679 761.297 104.688 761.297 107.909C761.297 111.131 763.186 113.139 765.791 113.139C768.397 113.139 770.286 111.131 770.286 107.909ZM769.093 107.909C769.093 110.554 767.641 111.986 765.791 111.986C763.942 111.986 762.49 110.554 762.49 107.909C762.49 105.264 763.942 103.832 765.791 103.832C767.641 103.832 769.093 105.264 769.093 107.909ZM774.208 113H775.481L777.728 104.886H777.808L780.055 113H781.328L784.112 102.818H782.859L780.731 111.111H780.632L778.464 102.818H777.072L774.904 111.111H774.805L772.677 102.818H771.424L774.208 113ZM787.995 107.909C787.995 105.403 787.318 103.315 786.105 101.545H785.071C786.026 102.858 786.782 105.543 786.782 107.909C786.782 110.276 786.026 112.96 785.071 114.273H786.105C787.318 112.503 787.995 110.415 787.995 107.909Z" fill="#369FAB"/>
<path d="M659.575 159.864H660.748V155.827H660.848C661.106 156.244 661.603 157.159 663.075 157.159C664.984 157.159 666.316 155.628 666.316 153.202C666.316 150.795 664.984 149.264 663.055 149.264C661.563 149.264 661.106 150.179 660.848 150.577H660.708V149.364H659.575V159.864ZM660.728 153.182C660.728 151.472 661.484 150.318 662.916 150.318C664.407 150.318 665.143 151.571 665.143 153.182C665.143 154.812 664.387 156.105 662.916 156.105C661.504 156.105 660.728 154.912 660.728 153.182ZM670.353 157.179C671.686 157.179 672.382 156.463 672.62 155.966H672.68V157H673.853V151.969C673.853 149.543 672.004 149.264 671.029 149.264C669.876 149.264 668.563 149.662 667.967 151.054L669.081 151.452C669.339 150.895 669.951 150.298 671.069 150.298C672.148 150.298 672.68 150.87 672.68 151.849V151.889C672.68 152.456 672.103 152.406 670.711 152.585C669.294 152.769 667.748 153.082 667.748 154.832C667.748 156.324 668.902 157.179 670.353 157.179ZM670.532 156.125C669.598 156.125 668.921 155.707 668.921 154.892C668.921 153.997 669.737 153.719 670.652 153.599C671.149 153.54 672.481 153.401 672.68 153.162V154.236C672.68 155.19 671.924 156.125 670.532 156.125ZM675.995 157H677.168V152.168C677.168 151.134 677.983 150.378 679.097 150.378C679.41 150.378 679.733 150.438 679.813 150.457V149.264C679.679 149.254 679.37 149.244 679.196 149.244C678.282 149.244 677.486 149.761 677.208 150.517H677.128V149.364H675.995V157ZM684.173 157.159C685.724 157.159 686.858 156.384 687.216 155.23L686.082 154.912C685.784 155.707 685.093 156.105 684.173 156.105C682.796 156.105 681.846 155.215 681.792 153.58H687.335V153.082C687.335 150.239 685.645 149.264 684.054 149.264C681.986 149.264 680.613 150.895 680.613 153.241C680.613 155.588 681.966 157.159 684.173 157.159ZM681.792 152.565C681.871 151.377 682.711 150.318 684.054 150.318C685.326 150.318 686.142 151.273 686.142 152.565H681.792ZM690.293 152.406C690.293 151.074 691.118 150.318 692.242 150.318C693.331 150.318 693.992 151.029 693.992 152.227V157H695.165V152.148C695.165 150.199 694.126 149.264 692.58 149.264C691.427 149.264 690.711 149.781 690.353 150.557H690.253V149.364H689.12V157H690.293V152.406ZM700.63 149.364H699V147.534H697.826V149.364H696.673V150.358H697.826V155.131C697.826 156.463 698.9 157.099 699.894 157.099C700.332 157.099 700.61 157.02 700.769 156.96L700.531 155.906C700.431 155.926 700.272 155.966 700.014 155.966C699.497 155.966 699 155.807 699 154.812V150.358H700.63V149.364ZM707.668 151.074C707.3 149.99 706.474 149.264 704.963 149.264C703.352 149.264 702.159 150.179 702.159 151.472C702.159 152.526 702.785 153.232 704.187 153.56L705.46 153.858C706.231 154.037 706.594 154.405 706.594 154.932C706.594 155.588 705.898 156.125 704.804 156.125C703.844 156.125 703.243 155.712 703.034 154.892L701.92 155.17C702.194 156.468 703.263 157.159 704.824 157.159C706.599 157.159 707.807 156.19 707.807 154.872C707.807 153.808 707.141 153.137 705.778 152.804L704.645 152.526C703.74 152.302 703.332 151.999 703.332 151.412C703.332 150.756 704.028 150.278 704.963 150.278C705.987 150.278 706.41 150.845 706.614 151.372L707.668 151.074Z" fill="#369FAB"/>
<rect x="570" y="218" width="228" height="199" rx="4" stroke="#4079A2" stroke-width="2" stroke-dasharray="4 4"/>
<path d="M659.393 208H660.45V204.812H662.359C664.391 204.812 665.308 203.577 665.308 202.034C665.308 200.491 664.391 199.273 662.342 199.273H659.393V208ZM660.45 203.875V200.21H662.308C663.727 200.21 664.268 200.986 664.268 202.034C664.268 203.082 663.727 203.875 662.325 203.875H660.45ZM668.8 208.153C669.942 208.153 670.538 207.54 670.743 207.114H670.794V208H671.8V203.688C671.8 201.608 670.214 201.369 669.379 201.369C668.391 201.369 667.266 201.71 666.754 202.903L667.709 203.244C667.93 202.767 668.455 202.256 669.413 202.256C670.338 202.256 670.794 202.746 670.794 203.585V203.619C670.794 204.105 670.3 204.062 669.107 204.216C667.892 204.374 666.567 204.642 666.567 206.142C666.567 207.42 667.555 208.153 668.8 208.153ZM668.953 207.25C668.152 207.25 667.572 206.892 667.572 206.193C667.572 205.426 668.271 205.188 669.055 205.085C669.482 205.034 670.624 204.915 670.794 204.71V205.631C670.794 206.449 670.146 207.25 668.953 207.25ZM674.049 210.455C674.956 210.455 675.596 209.973 675.975 208.955L678.762 201.472L677.662 201.455L675.855 206.67H675.787L673.98 201.455H672.89L675.31 208.034L675.123 208.545C674.756 209.543 674.304 209.636 673.571 209.449L673.316 210.335C673.418 210.386 673.708 210.455 674.049 210.455ZM681.098 199.273H680.092V208H681.098V199.273ZM685.599 208.136C687.372 208.136 688.565 206.79 688.565 204.761C688.565 202.716 687.372 201.369 685.599 201.369C683.826 201.369 682.633 202.716 682.633 204.761C682.633 206.79 683.826 208.136 685.599 208.136ZM685.599 207.233C684.252 207.233 683.639 206.074 683.639 204.761C683.639 203.449 684.252 202.273 685.599 202.273C686.946 202.273 687.559 203.449 687.559 204.761C687.559 206.074 686.946 207.233 685.599 207.233ZM692.026 208.153C693.168 208.153 693.765 207.54 693.969 207.114H694.021V208H695.026V203.688C695.026 201.608 693.441 201.369 692.606 201.369C691.617 201.369 690.492 201.71 689.981 202.903L690.935 203.244C691.157 202.767 691.681 202.256 692.64 202.256C693.565 202.256 694.021 202.746 694.021 203.585V203.619C694.021 204.105 693.526 204.062 692.333 204.216C691.119 204.374 689.793 204.642 689.793 206.142C689.793 207.42 690.782 208.153 692.026 208.153ZM692.18 207.25C691.379 207.25 690.799 206.892 690.799 206.193C690.799 205.426 691.498 205.188 692.282 205.085C692.708 205.034 693.85 204.915 694.021 204.71V205.631C694.021 206.449 693.373 207.25 692.18 207.25ZM699.333 208.136C700.595 208.136 701.021 207.352 701.243 206.994H701.362V208H702.333V199.273H701.328V202.494H701.243C701.021 202.153 700.629 201.369 699.35 201.369C697.697 201.369 696.555 202.682 696.555 204.744C696.555 206.824 697.697 208.136 699.333 208.136ZM699.47 207.233C698.208 207.233 697.561 206.125 697.561 204.727C697.561 203.347 698.191 202.273 699.47 202.273C700.697 202.273 701.345 203.261 701.345 204.727C701.345 206.21 700.68 207.233 699.47 207.233ZM708.951 202.92C708.636 201.991 707.929 201.369 706.633 201.369C705.252 201.369 704.23 202.153 704.23 203.261C704.23 204.165 704.767 204.77 705.968 205.051L707.059 205.307C707.72 205.46 708.031 205.776 708.031 206.227C708.031 206.79 707.434 207.25 706.497 207.25C705.674 207.25 705.159 206.896 704.98 206.193L704.025 206.432C704.26 207.544 705.176 208.136 706.514 208.136C708.035 208.136 709.071 207.305 709.071 206.176C709.071 205.264 708.5 204.689 707.332 204.403L706.36 204.165C705.585 203.973 705.235 203.713 705.235 203.21C705.235 202.648 705.832 202.239 706.633 202.239C707.511 202.239 707.873 202.724 708.048 203.176L708.951 202.92Z" fill="#4079A2"/>
<rect x="588" y="237" width="192" height="30" rx="5" fill="#3C7266"/>
<rect x="588" y="281" width="192" height="30" rx="5" fill="#4EA793"/>
<rect x="588" y="325" width="192" height="30" rx="5" fill="#C56550"/>
<rect x="588" y="369" width="192" height="30" rx="5" fill="#485A68"/>
<path d="M619.489 247.912H622.69V257H623.923V247.912H627.125V246.818H619.489V247.912ZM628.076 257H629.249V252.168C629.249 251.134 630.064 250.378 631.178 250.378C631.491 250.378 631.814 250.438 631.894 250.457V249.264C631.76 249.254 631.452 249.244 631.278 249.244C630.363 249.244 629.567 249.761 629.289 250.517H629.209V249.364H628.076V257ZM635.532 257.179C636.864 257.179 637.56 256.463 637.799 255.966H637.859V257H639.032V251.969C639.032 249.543 637.183 249.264 636.208 249.264C635.055 249.264 633.742 249.662 633.146 251.054L634.259 251.452C634.518 250.895 635.129 250.298 636.248 250.298C637.327 250.298 637.859 250.87 637.859 251.849V251.889C637.859 252.456 637.282 252.406 635.89 252.585C634.473 252.769 632.927 253.082 632.927 254.832C632.927 256.324 634.08 257.179 635.532 257.179ZM635.711 256.125C634.776 256.125 634.1 255.707 634.1 254.892C634.1 253.997 634.915 253.719 635.83 253.599C636.327 253.54 637.66 253.401 637.859 253.162V254.236C637.859 255.19 637.103 256.125 635.711 256.125ZM642.347 252.406C642.347 251.074 643.172 250.318 644.296 250.318C645.384 250.318 646.046 251.029 646.046 252.227V257H647.219V252.148C647.219 250.199 646.18 249.264 644.634 249.264C643.48 249.264 642.764 249.781 642.406 250.557H642.307V249.364H641.173V257H642.347V252.406ZM654.772 251.074C654.404 249.99 653.579 249.264 652.067 249.264C650.457 249.264 649.263 250.179 649.263 251.472C649.263 252.526 649.89 253.232 651.292 253.56L652.565 253.858C653.335 254.037 653.698 254.405 653.698 254.932C653.698 255.588 653.002 256.125 651.908 256.125C650.949 256.125 650.347 255.712 650.138 254.892L649.025 255.17C649.298 256.468 650.367 257.159 651.928 257.159C653.703 257.159 654.911 256.19 654.911 254.872C654.911 253.808 654.245 253.137 652.883 252.804L651.749 252.526C650.844 252.302 650.437 251.999 650.437 251.412C650.437 250.756 651.133 250.278 652.067 250.278C653.092 250.278 653.514 250.845 653.718 251.372L654.772 251.074ZM658.925 257.179C660.257 257.179 660.953 256.463 661.192 255.966H661.251V257H662.425V251.969C662.425 249.543 660.575 249.264 659.601 249.264C658.447 249.264 657.135 249.662 656.538 251.054L657.652 251.452C657.91 250.895 658.522 250.298 659.64 250.298C660.719 250.298 661.251 250.87 661.251 251.849V251.889C661.251 252.456 660.675 252.406 659.282 252.585C657.866 252.769 656.319 253.082 656.319 254.832C656.319 256.324 657.473 257.179 658.925 257.179ZM659.104 256.125C658.169 256.125 657.493 255.707 657.493 254.892C657.493 253.997 658.308 253.719 659.223 253.599C659.72 253.54 661.052 253.401 661.251 253.162V254.236C661.251 255.19 660.496 256.125 659.104 256.125ZM667.668 257.159C669.359 257.159 670.472 256.125 670.671 254.773H669.498C669.279 255.608 668.583 256.105 667.668 256.105C666.276 256.105 665.381 254.952 665.381 253.182C665.381 251.452 666.296 250.318 667.668 250.318C668.702 250.318 669.319 250.955 669.498 251.651H670.671C670.472 250.219 669.259 249.264 667.648 249.264C665.58 249.264 664.208 250.895 664.208 253.222C664.208 255.509 665.521 257.159 667.668 257.159ZM675.707 249.364H674.077V247.534H672.903V249.364H671.75V250.358H672.903V255.131C672.903 256.463 673.977 257.099 674.972 257.099C675.409 257.099 675.688 257.02 675.847 256.96L675.608 255.906C675.509 255.926 675.349 255.966 675.091 255.966C674.574 255.966 674.077 255.807 674.077 254.812V250.358H675.707V249.364ZM677.472 257H678.646V249.364H677.472V257ZM678.069 248.091C678.526 248.091 678.904 247.733 678.904 247.295C678.904 246.858 678.526 246.5 678.069 246.5C677.612 246.5 677.234 246.858 677.234 247.295C677.234 247.733 677.612 248.091 678.069 248.091ZM683.897 257.159C685.965 257.159 687.357 255.588 687.357 253.222C687.357 250.835 685.965 249.264 683.897 249.264C681.829 249.264 680.437 250.835 680.437 253.222C680.437 255.588 681.829 257.159 683.897 257.159ZM683.897 256.105C682.326 256.105 681.61 254.753 681.61 253.222C681.61 251.69 682.326 250.318 683.897 250.318C685.468 250.318 686.184 251.69 686.184 253.222C686.184 254.753 685.468 256.105 683.897 256.105ZM690.321 252.406C690.321 251.074 691.147 250.318 692.27 250.318C693.359 250.318 694.02 251.029 694.02 252.227V257H695.194V252.148C695.194 250.199 694.154 249.264 692.608 249.264C691.455 249.264 690.739 249.781 690.381 250.557H690.282V249.364H689.148V257H690.321V252.406ZM701.693 252.705C701.693 255.21 702.369 257.298 703.582 259.068H704.616C703.661 257.756 702.906 255.071 702.906 252.705C702.906 250.338 703.661 247.653 704.616 246.341H703.582C702.369 248.111 701.693 250.199 701.693 252.705ZM713.188 246.818V253.46C713.188 254.952 712.164 256.026 710.464 256.026C708.763 256.026 707.739 254.952 707.739 253.46V246.818H706.506V253.56C706.506 255.648 708.067 257.179 710.464 257.179C712.86 257.179 714.421 255.648 714.421 253.56V246.818H713.188ZM716.327 247.912H719.528V257H720.761V247.912H723.963V246.818H716.327V247.912ZM726.462 246.818H725.011L728.292 251.909L725.011 257H726.462L729.087 252.844H729.167L731.792 257H733.244L730.042 251.909L733.244 246.818H731.792L729.167 251.054H729.087L726.462 246.818ZM743.275 251.909C743.275 248.688 741.386 246.679 738.781 246.679C736.176 246.679 734.286 248.688 734.286 251.909C734.286 255.131 736.176 257.139 738.781 257.139C741.386 257.139 743.275 255.131 743.275 251.909ZM742.082 251.909C742.082 254.554 740.63 255.986 738.781 255.986C736.931 255.986 735.48 254.554 735.48 251.909C735.48 249.264 736.931 247.832 738.781 247.832C740.63 247.832 742.082 249.264 742.082 251.909ZM747.695 251.909C747.695 249.403 747.019 247.315 745.806 245.545H744.771C745.726 246.858 746.482 249.543 746.482 251.909C746.482 254.276 745.726 256.96 744.771 258.273H745.806C747.019 256.503 747.695 254.415 747.695 251.909Z" fill="white"/>
<path d="M653.104 290.818V301H654.257V293.264H654.357L657.539 301H658.652L661.834 293.264H661.934V301H663.087V290.818H661.615L658.155 299.27H658.036L654.576 290.818H653.104ZM665.4 301H666.573V293.364H665.4V301ZM665.997 292.091C666.454 292.091 666.832 291.733 666.832 291.295C666.832 290.858 666.454 290.5 665.997 290.5C665.539 290.5 665.161 290.858 665.161 291.295C665.161 291.733 665.539 292.091 665.997 292.091ZM669.896 290.818H668.722V301H669.896V290.818ZM675.246 301.159C676.797 301.159 677.931 300.384 678.289 299.23L677.155 298.912C676.857 299.707 676.166 300.105 675.246 300.105C673.869 300.105 672.92 299.215 672.865 297.58H678.408V297.082C678.408 294.239 676.718 293.264 675.127 293.264C673.059 293.264 671.687 294.895 671.687 297.241C671.687 299.588 673.039 301.159 675.246 301.159ZM672.865 296.565C672.944 295.377 673.785 294.318 675.127 294.318C676.4 294.318 677.215 295.273 677.215 296.565H672.865ZM685.602 295.074C685.234 293.99 684.409 293.264 682.898 293.264C681.287 293.264 680.094 294.179 680.094 295.472C680.094 296.526 680.72 297.232 682.122 297.56L683.395 297.858C684.165 298.037 684.528 298.405 684.528 298.932C684.528 299.588 683.832 300.125 682.738 300.125C681.779 300.125 681.177 299.712 680.969 298.892L679.855 299.17C680.128 300.468 681.197 301.159 682.758 301.159C684.533 301.159 685.741 300.19 685.741 298.872C685.741 297.808 685.075 297.137 683.713 296.804L682.579 296.526C681.675 296.302 681.267 295.999 681.267 295.412C681.267 294.756 681.963 294.278 682.898 294.278C683.922 294.278 684.344 294.845 684.548 295.372L685.602 295.074ZM690.828 293.364H689.198V291.534H688.025V293.364H686.871V294.358H688.025V299.131C688.025 300.463 689.098 301.099 690.093 301.099C690.53 301.099 690.809 301.02 690.968 300.96L690.729 299.906C690.63 299.926 690.471 299.966 690.212 299.966C689.695 299.966 689.198 299.807 689.198 298.812V294.358H690.828V293.364ZM695.614 301.159C697.682 301.159 699.074 299.588 699.074 297.222C699.074 294.835 697.682 293.264 695.614 293.264C693.545 293.264 692.153 294.835 692.153 297.222C692.153 299.588 693.545 301.159 695.614 301.159ZM695.614 300.105C694.043 300.105 693.327 298.753 693.327 297.222C693.327 295.69 694.043 294.318 695.614 294.318C697.185 294.318 697.901 295.69 697.901 297.222C697.901 298.753 697.185 300.105 695.614 300.105ZM702.038 296.406C702.038 295.074 702.863 294.318 703.987 294.318C705.076 294.318 705.737 295.029 705.737 296.227V301H706.91V296.148C706.91 294.199 705.871 293.264 704.325 293.264C703.172 293.264 702.456 293.781 702.098 294.557H701.998V293.364H700.865V301H702.038V296.406ZM712.256 301.159C713.807 301.159 714.941 300.384 715.299 299.23L714.165 298.912C713.867 299.707 713.176 300.105 712.256 300.105C710.879 300.105 709.929 299.215 709.875 297.58H715.418V297.082C715.418 294.239 713.728 293.264 712.137 293.264C710.069 293.264 708.696 294.895 708.696 297.241C708.696 299.588 710.049 301.159 712.256 301.159ZM709.875 296.565C709.954 295.377 710.794 294.318 712.137 294.318C713.409 294.318 714.225 295.273 714.225 296.565H709.875Z" fill="white"/>
<path d="M642.723 334.818H641.49V345H642.723V334.818ZM646.209 340.406C646.209 339.074 647.034 338.318 648.158 338.318C649.247 338.318 649.908 339.029 649.908 340.227V345H651.081V340.148C651.081 338.199 650.042 337.264 648.496 337.264C647.343 337.264 646.627 337.781 646.269 338.557H646.169V337.364H645.036V345H646.209V340.406ZM656.109 345.159C657.58 345.159 658.078 344.244 658.336 343.827H658.475V345H659.609V334.818H658.435V338.577H658.336C658.078 338.179 657.62 337.264 656.129 337.264C654.2 337.264 652.867 338.795 652.867 341.202C652.867 343.628 654.2 345.159 656.109 345.159ZM656.268 344.105C654.796 344.105 654.041 342.812 654.041 341.182C654.041 339.571 654.776 338.318 656.268 338.318C657.7 338.318 658.455 339.472 658.455 341.182C658.455 342.912 657.68 344.105 656.268 344.105ZM665.122 345.159C666.673 345.159 667.807 344.384 668.165 343.23L667.031 342.912C666.733 343.707 666.042 344.105 665.122 344.105C663.745 344.105 662.796 343.215 662.741 341.58H668.284V341.082C668.284 338.239 666.594 337.264 665.003 337.264C662.935 337.264 661.563 338.895 661.563 341.241C661.563 343.588 662.915 345.159 665.122 345.159ZM662.741 340.565C662.82 339.377 663.661 338.318 665.003 338.318C666.276 338.318 667.091 339.273 667.091 340.565H662.741ZM670.739 337.364H669.387L671.813 341.182L669.387 345H670.739L672.568 342.037L674.398 345H675.75L673.284 341.182L675.75 337.364H674.398L672.568 340.486L670.739 337.364ZM680.312 345.159C681.863 345.159 682.996 344.384 683.354 343.23L682.221 342.912C681.922 343.707 681.231 344.105 680.312 344.105C678.935 344.105 677.985 343.215 677.93 341.58H683.474V341.082C683.474 338.239 681.783 337.264 680.192 337.264C678.124 337.264 676.752 338.895 676.752 341.241C676.752 343.588 678.104 345.159 680.312 345.159ZM677.93 340.565C678.01 339.377 678.85 338.318 680.192 338.318C681.465 338.318 682.28 339.273 682.28 340.565H677.93ZM688.142 345.159C689.614 345.159 690.111 344.244 690.369 343.827H690.508V345H691.642V334.818H690.469V338.577H690.369C690.111 338.179 689.653 337.264 688.162 337.264C686.233 337.264 684.9 338.795 684.9 341.202C684.9 343.628 686.233 345.159 688.142 345.159ZM688.301 344.105C686.829 344.105 686.074 342.812 686.074 341.182C686.074 339.571 686.81 338.318 688.301 338.318C689.733 338.318 690.489 339.472 690.489 341.182C690.489 342.912 689.713 344.105 688.301 344.105ZM701.192 345C704.295 345 706.045 343.071 706.045 339.889C706.045 336.727 704.295 334.818 701.332 334.818H698.05V345H701.192ZM699.283 343.906V335.912H701.252C703.638 335.912 704.851 337.423 704.851 339.889C704.851 342.375 703.638 343.906 701.113 343.906H699.283ZM710.201 345.179C711.533 345.179 712.229 344.463 712.468 343.966H712.528V345H713.701V339.969C713.701 337.543 711.851 337.264 710.877 337.264C709.724 337.264 708.411 337.662 707.815 339.054L708.928 339.452C709.187 338.895 709.798 338.298 710.917 338.298C711.996 338.298 712.528 338.87 712.528 339.849V339.889C712.528 340.456 711.951 340.406 710.559 340.585C709.142 340.769 707.596 341.082 707.596 342.832C707.596 344.324 708.749 345.179 710.201 345.179ZM710.38 344.125C709.445 344.125 708.769 343.707 708.769 342.892C708.769 341.997 709.584 341.719 710.499 341.599C710.996 341.54 712.329 341.401 712.528 341.162V342.236C712.528 343.19 711.772 344.125 710.38 344.125ZM719.163 337.364H717.533V335.534H716.359V337.364H715.206V338.358H716.359V343.131C716.359 344.463 717.433 345.099 718.428 345.099C718.865 345.099 719.144 345.02 719.303 344.96L719.064 343.906C718.965 343.926 718.805 343.966 718.547 343.966C718.03 343.966 717.533 343.807 717.533 342.812V338.358H719.163V337.364ZM723.176 345.179C724.508 345.179 725.204 344.463 725.443 343.966H725.502V345H726.676V339.969C726.676 337.543 724.826 337.264 723.852 337.264C722.698 337.264 721.386 337.662 720.789 339.054L721.903 339.452C722.161 338.895 722.773 338.298 723.891 338.298C724.97 338.298 725.502 338.87 725.502 339.849V339.889C725.502 340.456 724.926 340.406 723.533 340.585C722.117 340.769 720.57 341.082 720.57 342.832C720.57 344.324 721.724 345.179 723.176 345.179ZM723.354 344.125C722.42 344.125 721.744 343.707 721.744 342.892C721.744 341.997 722.559 341.719 723.474 341.599C723.971 341.54 725.303 341.401 725.502 341.162V342.236C725.502 343.19 724.747 344.125 723.354 344.125Z" fill="white"/>
<path d="M633.217 389.08C633.709 389.08 634.112 388.677 634.112 388.185C634.112 387.692 633.709 387.29 633.217 387.29C632.725 387.29 632.322 387.692 632.322 388.185C632.322 388.677 632.725 389.08 633.217 389.08ZM637.073 389.08C637.565 389.08 637.967 388.677 637.967 388.185C637.967 387.692 637.565 387.29 637.073 387.29C636.58 387.29 636.178 387.692 636.178 388.185C636.178 388.677 636.58 389.08 637.073 389.08ZM640.928 389.08C641.42 389.08 641.823 388.677 641.823 388.185C641.823 387.692 641.42 387.29 640.928 387.29C640.436 387.29 640.033 387.692 640.033 388.185C640.033 388.677 640.436 389.08 640.928 389.08ZM643.928 391.864H645.102V387.827H645.201C645.46 388.244 645.957 389.159 647.428 389.159C649.337 389.159 650.67 387.628 650.67 385.202C650.67 382.795 649.337 381.264 647.408 381.264C645.917 381.264 645.46 382.179 645.201 382.577H645.062V381.364H643.928V391.864ZM645.082 385.182C645.082 383.472 645.837 382.318 647.269 382.318C648.761 382.318 649.497 383.571 649.497 385.182C649.497 386.812 648.741 388.105 647.269 388.105C645.857 388.105 645.082 386.912 645.082 385.182ZM654.707 389.179C656.039 389.179 656.735 388.463 656.974 387.966H657.033V389H658.207V383.969C658.207 381.543 656.357 381.264 655.383 381.264C654.229 381.264 652.917 381.662 652.32 383.054L653.434 383.452C653.693 382.895 654.304 382.298 655.423 382.298C656.502 382.298 657.033 382.87 657.033 383.849V383.889C657.033 384.456 656.457 384.406 655.065 384.585C653.648 384.769 652.102 385.082 652.102 386.832C652.102 388.324 653.255 389.179 654.707 389.179ZM654.886 388.125C653.951 388.125 653.275 387.707 653.275 386.892C653.275 385.997 654.09 385.719 655.005 385.599C655.502 385.54 656.835 385.401 657.033 385.162V386.236C657.033 387.19 656.278 388.125 654.886 388.125ZM660.831 391.864C661.889 391.864 662.635 391.302 663.078 390.114L666.329 381.384L665.046 381.364L662.938 387.449H662.859L660.751 381.364H659.478L662.302 389.04L662.083 389.636C661.656 390.8 661.129 390.909 660.274 390.69L659.975 391.724C660.095 391.784 660.433 391.864 660.831 391.864ZM669.055 378.818H667.881V389H669.055V378.818ZM674.306 389.159C676.374 389.159 677.766 387.588 677.766 385.222C677.766 382.835 676.374 381.264 674.306 381.264C672.238 381.264 670.846 382.835 670.846 385.222C670.846 387.588 672.238 389.159 674.306 389.159ZM674.306 388.105C672.735 388.105 672.019 386.753 672.019 385.222C672.019 383.69 672.735 382.318 674.306 382.318C675.877 382.318 676.593 383.69 676.593 385.222C676.593 386.753 675.877 388.105 674.306 388.105ZM681.804 389.179C683.137 389.179 683.833 388.463 684.071 387.966H684.131V389H685.304V383.969C685.304 381.543 683.455 381.264 682.481 381.264C681.327 381.264 680.015 381.662 679.418 383.054L680.532 383.452C680.79 382.895 681.402 382.298 682.52 382.298C683.599 382.298 684.131 382.87 684.131 383.849V383.889C684.131 384.456 683.554 384.406 682.162 384.585C680.745 384.769 679.199 385.082 679.199 386.832C679.199 388.324 680.353 389.179 681.804 389.179ZM681.983 388.125C681.049 388.125 680.373 387.707 680.373 386.892C680.373 385.997 681.188 385.719 682.103 385.599C682.6 385.54 683.932 385.401 684.131 385.162V386.236C684.131 387.19 683.375 388.125 681.983 388.125ZM690.329 389.159C691.801 389.159 692.298 388.244 692.557 387.827H692.696V389H693.829V378.818H692.656V382.577H692.557C692.298 382.179 691.841 381.264 690.349 381.264C688.42 381.264 687.088 382.795 687.088 385.202C687.088 387.628 688.42 389.159 690.329 389.159ZM690.489 388.105C689.017 388.105 688.261 386.812 688.261 385.182C688.261 383.571 688.997 382.318 690.489 382.318C691.92 382.318 692.676 383.472 692.676 385.182C692.676 386.912 691.9 388.105 690.489 388.105ZM699.681 382H700.795V381.085C700.795 380.349 701.153 379.713 701.57 379.116L700.934 378.599C700.138 379.236 699.681 380.29 699.681 381.105V382ZM702.226 382H703.34V381.085C703.34 380.349 703.698 379.713 704.116 379.116L703.479 378.599C702.684 379.236 702.226 380.29 702.226 381.105V382ZM706.166 378.818H704.715L707.996 383.909L704.715 389H706.166L708.791 384.844H708.871L711.496 389H712.948L709.746 383.909L712.948 378.818H711.496L708.871 383.054H708.791L706.166 378.818ZM713.677 378.818L717.356 384.804V389H718.589V384.804L722.268 378.818H720.856L718.032 383.571H717.913L715.089 378.818H713.677ZM723.525 389H730.545V387.906H724.996L730.485 379.713V378.818H723.465V379.912H729.013L723.525 388.105V389ZM733.488 378.818H732.374V379.733C732.374 380.469 732.016 381.105 731.599 381.702L732.235 382.219C733.03 381.582 733.488 380.528 733.488 379.713V378.818ZM736.033 378.818H734.92V379.733C734.92 380.469 734.562 381.105 734.144 381.702L734.78 382.219C735.576 381.582 736.033 380.528 736.033 379.713V378.818Z" fill="white"/>
<defs>
<filter id="filter0_d_142:2" x="350" y="22.5442" width="121.206" height="60.03" filterUnits="userSpaceOnUse" color-interpolation-filters="sRGB">
<feFlood flood-opacity="0" result="BackgroundImageFix"/>
<feColorMatrix in="SourceAlpha" type="matrix" values="0 0 0 0 0 0 0 0 0 0 0 0 0 0 0 0 0 0 127 0" result="hardAlpha"/>
<feOffset dy="4"/>
<feGaussianBlur stdDeviation="2"/>
<feComposite in2="hardAlpha" operator="out"/>
<feColorMatrix type="matrix" values="0 0 0 0 0 0 0 0 0 0 0 0 0 0 0 0 0 0 0.25 0"/>
<feBlend mode="normal" in2="BackgroundImageFix" result="effect1_dropShadow_142:2"/>
<feBlend mode="normal" in="SourceGraphic" in2="effect1_dropShadow_142:2" result="shape"/>
</filter>
<filter id="filter1_d_142:2" x="427" y="25.6731" width="46.3784" height="52.3269" filterUnits="userSpaceOnUse" color-interpolation-filters="sRGB">
<feFlood flood-opacity="0" result="BackgroundImageFix"/>
<feColorMatrix in="SourceAlpha" type="matrix" values="0 0 0 0 0 0 0 0 0 0 0 0 0 0 0 0 0 0 127 0" result="hardAlpha"/>
<feOffset dy="4"/>
<feGaussianBlur stdDeviation="2"/>
<feComposite in2="hardAlpha" operator="out"/>
<feColorMatrix type="matrix" values="0 0 0 0 0 0 0 0 0 0 0 0 0 0 0 0 0 0 0.25 0"/>
<feBlend mode="normal" in2="BackgroundImageFix" result="effect1_dropShadow_142:2"/>
<feBlend mode="normal" in="SourceGraphic" in2="effect1_dropShadow_142:2" result="shape"/>
</filter>
<filter id="filter2_d_142:2" x="431" y="51.5327" width="71.178" height="33.385" filterUnits="userSpaceOnUse" color-interpolation-filters="sRGB">
<feFlood flood-opacity="0" result="BackgroundImageFix"/>
<feColorMatrix in="SourceAlpha" type="matrix" values="0 0 0 0 0 0 0 0 0 0 0 0 0 0 0 0 0 0 127 0" result="hardAlpha"/>
<feOffset dy="4"/>
<feGaussianBlur stdDeviation="2"/>
<feComposite in2="hardAlpha" operator="out"/>
<feColorMatrix type="matrix" values="0 0 0 0 0 0 0 0 0 0 0 0 0 0 0 0 0 0 0.25 0"/>
<feBlend mode="normal" in2="BackgroundImageFix" result="effect1_dropShadow_142:2"/>
<feBlend mode="normal" in="SourceGraphic" in2="effect1_dropShadow_142:2" result="shape"/>
</filter>
<filter id="filter3_d_142:2" x="472" y="97.7271" width="36.4189" height="51.2729" filterUnits="userSpaceOnUse" color-interpolation-filters="sRGB">
<feFlood flood-opacity="0" result="BackgroundImageFix"/>
<feColorMatrix in="SourceAlpha" type="matrix" values="0 0 0 0 0 0 0 0 0 0 0 0 0 0 0 0 0 0 127 0" result="hardAlpha"/>
<feOffset dy="4"/>
<feGaussianBlur stdDeviation="2"/>
<feComposite in2="hardAlpha" operator="out"/>
<feColorMatrix type="matrix" values="0 0 0 0 0 0 0 0 0 0 0 0 0 0 0 0 0 0 0.25 0"/>
<feBlend mode="normal" in2="BackgroundImageFix" result="effect1_dropShadow_142:2"/>
<feBlend mode="normal" in="SourceGraphic" in2="effect1_dropShadow_142:2" result="shape"/>
</filter>
</defs>
</svg>
