<svg viewBox="0 0 48 48" xmlns="http://www.w3.org/2000/svg">
  <path fill-rule="evenodd" clip-rule="evenodd" d="M23.302 15.296h-2.596l1.112-2.299 1.484 2.3v-.001Zm-2.243-5.32L18 16.295V32.89l3.059 5.136L24.882 40l3.06-1.975L31 32.889V16.296l-3.441-6.32L24.5 8l-3.441 1.975v.001Zm1.954 1.184 1.426-.819 1.282.828-1.271 2.217-1.437-2.226Zm3.939 1.883-1.292 2.253h2.518l-1.226-2.253ZM29 20.503v10.701l-3.084.85L29 20.504v-.001Zm-2.712 13.523 2.042-.563-1.034 1.736-1.008-1.173Zm-.211 2.822-1.525-1.773-1.357 1.802 1.576.814 1.306-.843Zm-4.262-1.462 1.002-1.331-2.147-.591 1.145 1.922ZM20 31.204l3.084.85L20 20.504v10.7Zm1.214-13.908h6.572L24.5 29.605l-3.286-12.309Z" class="icon-color-primary"/>
</svg>
