<svg width="48" height="49" viewBox="0 0 48 49" fill="none" xmlns="http://www.w3.org/2000/svg">
<path fill-rule="evenodd" clip-rule="evenodd" d="M6.29688 11.7188C4.08774 11.7188 2.29688 13.5096 2.29688 15.7188V33.4453C2.29688 35.6545 4.08774 37.4453 6.29688 37.4453H41.7051C43.9142 37.4453 45.7051 35.6545 45.7051 33.4453V15.7188C45.7051 13.5096 43.9142 11.7188 41.7051 11.7188H6.29688ZM7.65244 19.1795V29.8606H15.8899V28.0643H9.88578V25.3454H14.4334V23.6299H9.88578V20.9758H15.6633V19.1795H7.65244ZM23.2342 29.8606L27.1183 19.1795H24.8202L22.5545 25.9928L21.9557 28.0804L21.3407 25.9766L19.0912 19.1795H16.7284L20.6287 29.8606H23.2342ZM40.3552 29.8606V19.1795H37.2156L35.3059 25.0217L34.61 27.4169H34.5777L33.8979 25.0056L31.9721 19.1795H28.7354V29.8606H30.7583V24.2935L30.645 21.17H30.6774L33.6228 29.8606H35.4516L38.4132 21.17H38.4455L38.3322 24.2935V29.8606H40.3552Z" fill="white"/>
</svg>
