<svg viewBox="0 0 48 48" xmlns="http://www.w3.org/2000/svg">
  <path fill-rule="evenodd" clip-rule="evenodd" d="M24.876 13.038c.424 0 .816.12 1.145.332.147-.293.312-.576.494-.849.579-.868 1.19-1.41 1.878-1.907C29.866 9.62 31.88 8.992 33.01 9c1.13.009 1.271 2.038-.098 1.986-2.707-.102-4.927.405-6.569 2.637.427.409.69 1.001.69 1.672 0 1.12-.733 2.02-1.738 2.217.45.199.859.493 1.309.83.02.02.096.082.215.18 1.144.939 6.382 5.238 7.726 8.517 1.421 3.402-.903 6.43-1.23 6.855l-.032.041c-.402.54-1.369.48-1.632-.14l-5.173-11.183c-.217.21-.463.39-.729.532-.376.325-.606.778-.606 1.145 0 .404.143.508.78.97l.1.072c.038.028.06.055.065.08.857.609 1.462 1.596 1.595 2.776l.005.054c.157 2.287.174 5.76-.597 8.322a1.61 1.61 0 0 1-.01.036c-.315.94-.69 1.736-1.137 2.32C25.5 39.493 24.87 40 24.063 40c-.806 0-1.436-.506-1.879-1.082-.445-.58-.817-1.37-1.13-2.302-.948-2.593-.927-6.079-.69-8.39a3.68 3.68 0 0 1 2.013-3.077c.525-.372.596-.49.596-.86 0-.42-.537-.942-1.028-1.287-.031-.022-.04-.042-.031-.06a3.192 3.192 0 0 1-.393-.324l-5.17 11.178c-.264.619-1.23.678-1.633.14a2.096 2.096 0 0 0-.031-.041c-.328-.427-2.652-3.454-1.23-6.856 1.392-3.398 6.886-7.86 7.823-8.621l.093-.075c.329-.27.802-.6 1.352-.827-1.015-.19-1.757-1.094-1.757-2.221 0-.676.267-1.273.701-1.682-1.641-2.224-3.859-2.729-6.562-2.627-1.369.052-1.228-1.977-.098-1.986 1.13-.008 3.143.62 4.616 1.614.688.496 1.3 1.039 1.879 1.907.182.274.345.554.489.84a2.108 2.108 0 0 1 1.131-.323h1.752Zm-2.094 6.854.093-.203c.215-.359.65-.619 1.12-.619.669 0 1.262.523 1.262 1.11v.457c0 .588-.593 1.11-1.261 1.11-.668 0-1.262-.522-1.262-1.11v-.457c0-.099.017-.195.048-.288Zm9.906 7.844c-.593-1.463-2.152-3.205-3.71-4.737l3.71 8.08c.297-.905.52-2.16 0-3.343Zm-13.666-4.737c-1.558 1.532-3.117 3.274-3.71 4.737-.52 1.184-.297 2.438 0 3.343l3.71-8.08Zm5.944-8.11c.149 0 .297.203.297.406s-.148.407-.297.407h-1.932c-.148 0-.297-.204-.297-.407 0-.203.149-.406.297-.406h1.932Zm.574 17.586c.042-.7.056-1.41.048-2.094l-1.114.749a.843.843 0 0 1-.948 0l-1.11-.746c-.017.698-.001 1.397.047 2.094L24 33.51l1.54-1.036v.001Zm-.285 2.373c-.067.341-.145.668-.236.973-.269.8-.536 1.31-.759 1.6a1.091 1.091 0 0 1-.197.208c-.04-.03-.106-.09-.197-.209-.224-.291-.493-.808-.764-1.617a8.4 8.4 0 0 1-.276-.901l.7.471a.844.844 0 0 0 .948 0l.781-.525ZM24 29.268l1.48-.995c-.16-.677-.731-1.175-1.456-1.175-.806 0-1.382.575-1.472 1.196l1.448.974Z" class="icon-color-primary"/>
</svg>
