<?xml version="1.0" encoding="UTF-8" standalone="no"?>
<!DOCTYPE svg PUBLIC "-//W3C//DTD SVG 1.1//EN" "http://www.w3.org/Graphics/SVG/1.1/DTD/svg11.dtd">
<svg width="100%" height="100%" viewBox="0 0 32 31" version="1.1" xmlns="http://www.w3.org/2000/svg" xmlns:xlink="http://www.w3.org/1999/xlink" xml:space="preserve" xmlns:serif="http://www.serif.com/" style="fill-rule:evenodd;clip-rule:evenodd;stroke-linejoin:round;stroke-miterlimit:2;">
    <path d="M18.906,8.564C18.906,7.789 18.218,7.164 17.502,6.724C17.63,6.562 17.766,6.412 17.911,6.28C18.36,5.89 18.906,5.695 19.472,5.539C19.511,5.539 19.55,5.519 19.589,5.5C19.824,5.363 19.902,5.051 19.765,4.817C19.628,4.582 19.316,4.504 19.082,4.641C18.77,4.797 18.497,4.992 18.223,5.207C17.95,5.422 17.716,5.675 17.521,5.968C17.405,6.162 17.297,6.355 17.209,6.554C16.999,6.439 16.795,6.341 16.613,6.26C16.172,6.064 15.672,6.073 15.237,6.281C15.031,6.379 14.795,6.501 14.556,6.642C14.466,6.406 14.352,6.176 14.203,5.968C14.008,5.675 13.774,5.422 13.501,5.207C13.227,4.992 12.935,4.817 12.642,4.641C12.623,4.631 12.603,4.626 12.583,4.622C12.564,4.617 12.544,4.612 12.525,4.602C12.252,4.524 11.998,4.68 11.92,4.953C11.842,5.227 11.998,5.48 12.271,5.558C12.837,5.714 13.384,5.91 13.832,6.3C13.996,6.449 14.149,6.621 14.29,6.807C13.601,7.256 12.954,7.864 12.954,8.564C12.954,9.39 13.395,10.127 14.079,10.606C13.758,10.789 13.471,11.02 13.223,11.29C13.205,11.285 13.187,11.28 13.169,11.276C9.773,10.515 4.797,9.617 1.85,9.149C0.796,8.993 0.172,9.617 0.035,10.3C-0.121,11.081 0.25,12.076 1.03,12.993C1.87,13.95 3.04,14.672 4.328,14.984C4.548,15.042 4.775,15.089 5.01,15.128C4.968,15.285 4.949,15.447 4.953,15.609C4.972,17.033 6.417,18.009 7.685,18.009C9.795,18.009 11.504,16.695 12.602,15.551C12.735,15.843 12.904,16.112 13.102,16.353C12.55,17.232 12.252,18.385 12.252,19.687C12.252,22.478 13.657,26.381 15.94,26.381C18.223,26.381 19.628,22.478 19.589,19.687C19.589,18.396 19.297,17.257 18.753,16.383C18.952,16.147 19.121,15.883 19.257,15.597C20.356,16.737 22.051,18.009 24.136,18.009C25.405,18.009 26.849,17.014 26.869,15.609C26.869,15.448 26.847,15.287 26.804,15.13C27.046,15.091 27.283,15.043 27.513,14.984C28.801,14.672 29.972,13.95 30.811,12.994C31.591,12.096 31.962,11.081 31.806,10.301C31.669,9.598 31.045,8.973 29.991,9.149C27.044,9.617 22.087,10.515 18.672,11.276C18.664,11.278 18.657,11.28 18.649,11.282C18.402,11.013 18.115,10.784 17.795,10.603C18.48,10.12 18.918,9.38 18.906,8.564ZM17.535,17.314C17.058,17.536 16.519,17.658 15.94,17.658C15.345,17.658 14.793,17.529 14.306,17.296C13.993,17.848 13.813,18.575 13.78,19.4L13.852,19.443C14.071,19.574 14.285,19.702 14.515,19.804C14.711,19.919 14.912,20.014 15.121,20.092C15.238,20.136 15.232,20.309 15.109,20.329C14.87,20.368 14.628,20.39 14.379,20.39C14.187,20.399 13.994,20.395 13.804,20.389C13.859,21.043 13.987,21.684 14.161,22.268C14.298,22.35 14.434,22.428 14.574,22.498C14.761,22.603 14.955,22.694 15.157,22.771C15.271,22.815 15.266,22.982 15.146,23.003C14.918,23.045 14.684,23.071 14.457,23.083L14.448,23.083C14.881,24.138 15.449,24.859 15.921,24.859C16.39,24.859 16.955,24.144 17.388,23.097C17.17,23.074 16.959,23.045 16.754,23.005C16.633,22.983 16.629,22.815 16.743,22.772C16.944,22.697 17.139,22.61 17.326,22.517C17.439,22.46 17.549,22.399 17.66,22.334C17.844,21.733 17.979,21.069 18.037,20.391C17.866,20.396 17.693,20.398 17.521,20.39C17.275,20.39 17.028,20.369 16.791,20.331C16.667,20.311 16.663,20.14 16.781,20.098C16.998,20.021 17.205,19.929 17.404,19.824C17.615,19.712 17.827,19.592 18.044,19.469L18.063,19.458C18.035,18.619 17.852,17.883 17.535,17.314ZM16.288,7.628C16.064,7.543 15.817,7.548 15.596,7.64C15.163,7.819 14.476,8.163 14.476,8.544C14.476,9.1 15.14,9.637 15.94,9.637C16.721,9.637 17.404,9.199 17.404,8.544C17.415,8.124 16.725,7.794 16.288,7.628ZM15.94,11.666C14.672,11.666 13.793,12.584 13.793,13.891C13.793,15.199 14.672,16.116 15.94,16.116C17.209,16.116 18.087,15.199 18.087,13.891C18.087,12.584 17.209,11.666 15.94,11.666ZM27.103,13.345C24.761,13.911 21.268,13.189 19.628,12.799C22.829,12.115 27.337,11.296 30.147,10.847C29.991,11.471 29.015,12.877 27.103,13.345ZM21.053,14.965C21.873,15.667 22.946,16.311 24.136,16.311C24.585,16.311 24.898,16.077 25.054,15.862C25.171,15.706 25.171,15.589 25.171,15.55C25.151,15.531 25.015,15.433 24.644,15.414C23.532,15.394 22.361,15.238 21.053,14.965ZM1.674,10.847C1.811,11.471 2.787,12.876 4.719,13.345C7.041,13.911 10.554,13.189 12.193,12.798C8.993,12.115 4.485,11.296 1.674,10.847ZM7.178,15.413C8.29,15.374 9.461,15.238 10.769,14.965C9.949,15.687 8.876,16.311 7.685,16.311C7.256,16.311 6.924,16.077 6.768,15.862C6.651,15.687 6.651,15.57 6.651,15.55C6.67,15.511 6.807,15.433 7.178,15.413Z" style="fill:white;"/>
    <path d="M22.677,1.596C20.562,0.544 18.232,-0.002 15.869,0C13.507,0.003 11.177,0.554 9.064,1.61C6.951,2.666 5.112,4.199 3.693,6.087C3.371,6.514 3.457,7.121 3.884,7.443C4.312,7.764 4.919,7.678 5.24,7.251C6.48,5.602 8.085,4.264 9.93,3.342C11.775,2.42 13.809,1.939 15.871,1.937C17.934,1.934 19.969,2.411 21.815,3.329C23.662,4.248 25.27,5.582 26.513,7.228C26.836,7.655 27.443,7.74 27.869,7.417C28.296,7.095 28.381,6.488 28.059,6.061C26.635,4.176 24.793,2.647 22.677,1.596ZM30.954,17.633C31.037,17.105 30.677,16.609 30.148,16.526C29.62,16.442 29.125,16.803 29.041,17.331C28.547,20.461 26.954,23.311 24.548,25.372C22.142,27.432 19.08,28.568 15.912,28.574C12.744,28.58 9.677,27.457 7.263,25.406C4.848,23.355 3.244,20.511 2.738,17.383C2.652,16.855 2.155,16.497 1.627,16.582C1.099,16.668 0.741,17.165 0.826,17.693C1.406,21.275 3.243,24.533 6.009,26.882C8.774,29.231 12.287,30.517 15.915,30.51C19.544,30.503 23.051,29.203 25.807,26.843C28.564,24.483 30.388,21.217 30.954,17.633Z" style="fill:white;"/>
</svg>
