<svg width="24" height="24" viewBox="0 0 24 24" fill="none" xmlns="http://www.w3.org/2000/svg">
<g clip-path="url(#clip0)">
<path fill-rule="evenodd" clip-rule="evenodd" d="M15 6C15 6.76836 14.7112 7.46925 14.2361 8L14.2501 8.01568C15.1663 7.39283 16.5067 7 18.0001 7C22.0001 7 24.6644 7.50392 23.0001 10C22.4657 10.8016 21.8632 11.6032 20.9965 12.1758C20.9711 12.8054 20.7961 13.5965 20.124 14.1332C19.3827 14.7251 18.3653 14.7471 17.2575 14.4701C16.3922 14.2538 15.4654 13.9806 14.6483 13.6486C14.8728 14.3495 15 15.15 15 16C15 18.7614 13.6569 21 12 21C10.3432 21 9.00004 18.7614 9.00004 16C9.00004 15.15 9.12731 14.3495 9.35182 13.6486C8.53466 13.9806 7.60785 14.2538 6.74258 14.4701C5.63483 14.7471 4.61744 14.7251 3.87608 14.1332C3.30657 13.6784 3.09397 13.0409 3.02687 12.4738C1.87019 11.9054 1.13882 10.9527 0.503613 10C-1.1606 7.50392 1.50361 7 5.50361 7C7.17572 7 8.65612 7.49247 9.56388 8.24887C9.62619 8.16235 9.69299 8.07928 9.76394 8C9.2889 7.46925 9.00004 6.76836 9.00004 6C9.00004 4.34315 10.3432 3 12 3C13.6569 3 15 4.34315 15 6ZM12 7C12.5523 7 13 6.55228 13 6C13 5.44772 12.5523 5 12 5C11.4478 5 11 5.44772 11 6C11 6.55228 11.4478 7 12 7ZM12 11C12.5519 10.9995 13 10.552 13 10C13 9.44772 12.5523 9 12 9C11.4478 9 11 9.44772 11 10C11 10.552 11.4482 10.9995 12 11ZM13 16C13 17.0806 12.7331 17.962 12.4064 18.5065C12.2186 18.8196 12.0723 18.9388 12 18.9821C11.9278 18.9388 11.7815 18.8196 11.5937 18.5065C11.267 17.962 11 17.0806 11 16C11 14.9194 11.267 14.038 11.5937 13.4935C11.7815 13.1804 11.9278 13.0612 12 13.0179C12.0723 13.0612 12.2186 13.1804 12.4064 13.4935C12.7331 14.038 13 14.9194 13 16ZM15.4936 10.4063C16.0382 10.7331 16.9196 11 18.0001 11C18.9803 11 19.5669 10.7461 19.9906 10.4405C20.3937 10.1497 20.7405 9.74785 21.126 9.19822C20.9475 9.16492 20.735 9.13326 20.4849 9.10581C19.8022 9.03094 18.9675 9 18.0001 9C16.9196 9 16.0382 9.26692 15.4936 9.59367C15.1806 9.78148 15.0613 9.92773 15.018 10C15.0613 10.0723 15.1806 10.2185 15.4936 10.4063ZM5.50361 11C6.58416 11 7.46558 10.7331 8.01015 10.4063C8.32317 10.2185 8.44244 10.0723 8.48571 10C8.44244 9.92773 8.32317 9.78148 8.01015 9.59367C7.46558 9.26692 6.58416 9 5.50361 9C4.53624 9 3.7015 9.03094 3.0189 9.10581C2.76872 9.13326 2.55627 9.16492 2.37771 9.19822C2.76323 9.74785 3.11005 10.1497 3.51314 10.4405C3.93688 10.7461 4.52349 11 5.50361 11Z" fill="white"/>
</g>
<defs>
<clipPath id="clip0">
<rect width="24" height="24" fill="white"/>
</clipPath>
</defs>
</svg>
