<?xml version="1.0" encoding="UTF-8" standalone="no"?>
<!DOCTYPE svg PUBLIC "-//W3C//DTD SVG 1.1//EN" "http://www.w3.org/Graphics/SVG/1.1/DTD/svg11.dtd">
<svg width="100%" height="100%" viewBox="0 0 20 23" version="1.1" xmlns="http://www.w3.org/2000/svg" xmlns:xlink="http://www.w3.org/1999/xlink" xml:space="preserve" xmlns:serif="http://www.serif.com/" style="fill-rule:evenodd;clip-rule:evenodd;">
    <path d="M19,15.514C19,16.23 18.618,16.891 17.997,17.248L10.997,21.273C10.38,21.628 9.62,21.628 9.003,21.273L2.003,17.248C1.383,16.891 1,16.23 1,15.514L1,7.486C1,6.77 1.383,6.109 2.003,5.752L9.003,1.727C9.62,1.372 10.38,1.372 10.997,1.727L17.997,5.752C18.618,6.109 19,6.77 19,7.486L19,15.514Z" style="fill:none;fill-rule:nonzero;stroke:white;stroke-width:2px;"/>
    <path d="M13,12.58C13,12.942 12.805,13.275 12.49,13.452L10.49,14.577C10.186,14.748 9.814,14.748 9.51,14.577L7.51,13.452C7.195,13.275 7,12.942 7,12.58L7,10.42C7,10.059 7.195,9.725 7.51,9.548L9.51,8.423C9.814,8.252 10.186,8.252 10.49,8.423L12.49,9.548C12.805,9.725 13,10.059 13,10.42L13,12.58Z" style="fill:none;fill-rule:nonzero;stroke:white;stroke-width:2px;"/>
</svg>
