<svg width="24" height="24" viewBox="0 0 24 24" fill="none" xmlns="http://www.w3.org/2000/svg">
<path fill-rule="evenodd" clip-rule="evenodd" d="M14.9806 14.6855C15.6103 14.3486 16 13.7148 16 13.0275V10.9725C16 10.2852 15.6103 9.65142 14.9806 9.31447L12.9806 8.24433C12.3717 7.91856 11.6283 7.91856 11.0194 8.24433L9.01944 9.31447C8.38971 9.65142 8 10.2852 8 10.9725V13.0275C8 13.7148 8.38971 14.3486 9.01944 14.6855L11.0194 15.7557C11.6283 16.0814 12.3717 16.0814 12.9806 15.7557L14.9806 14.6855ZM14 12.9419V11.0581L12.037 10.0078C12.0311 10.0046 12.0184 10 12 10C11.9816 10 11.9689 10.0046 11.963 10.0078L10 11.0581V12.9419L11.963 13.9922C11.9689 13.9954 11.9816 14 12 14C12.0184 14 12.0311 13.9954 12.037 13.9922L14 12.9419Z" fill="black"/>
<path fill-rule="evenodd" clip-rule="evenodd" d="M19.5117 18.1016C20.4333 17.5654 21 16.5813 21 15.5172V8.48278C21 7.41866 20.4333 6.43461 19.5117 5.89841L13.5117 2.4076C12.5776 1.86413 11.4224 1.86413 10.4883 2.4076L4.48833 5.89841C3.56671 6.43461 3 7.41866 3 8.48278V15.5172C3 16.5813 3.56671 17.5654 4.48833 18.1016L10.4883 21.5924C11.4224 22.1359 12.5776 22.1359 13.5117 21.5924L19.5117 18.1016ZM19 8.48278V15.5172C19 15.8674 18.8135 16.1939 18.5059 16.3729L12.5059 19.8637C12.1935 20.0454 11.8065 20.0454 11.4941 19.8637L5.49409 16.3729C5.1865 16.1939 5 15.8674 5 15.5172V8.48278C5 8.13258 5.18649 7.80608 5.4941 7.62712L11.4941 4.13631C11.8065 3.95456 12.1935 3.95456 12.5059 4.13631L18.5059 7.62712C18.8135 7.80608 19 8.13258 19 8.48278Z" fill="black"/>
</svg>
