<svg width="24" height="24" viewBox="0 0 24 24" fill="none" xmlns="http://www.w3.org/2000/svg">
<path fill-rule="evenodd" clip-rule="evenodd" d="M10.6093 8.46773C10.359 8.3083 10.0834 8.18497 9.78991 8.10508C9.92549 7.76309 10 7.39024 10 7C10 5.34314 8.65685 4 7 4C5.34315 4 4 5.34314 4 7C4 8.38346 4.93647 9.54821 6.21009 9.89492C6.07451 10.2369 6 10.6097 6 11C6 11.9474 6.43919 12.7923 7.12509 13.3421C6.52605 13.8543 5.96244 14.5291 5.5 15.3301C4.11929 17.7216 4.1632 20.3318 5.59808 21.1602C7.03295 21.9887 9.31544 20.7216 10.6962 18.3301C11.8381 16.3522 12.0055 14.2247 11.2175 13.0793C11.311 13.1129 11.4039 13.1404 11.4943 13.1629C11.9779 13.2833 12.5196 13.2954 13.0438 13.26C14.0987 13.1888 15.3271 12.9057 16.4222 12.5924C17.52 12.2784 18.3901 11.7507 18.7362 10.8674C19.0499 10.0666 18.8059 9.29383 18.5131 8.73592C18.9773 7.80668 19.0983 6.81125 19.1603 5.84986C19.3535 2.85608 16.7943 3.75178 13.3302 5.75178C12.0536 6.48883 11.0974 7.48285 10.6093 8.46773ZM15.3302 9.21588C14.3944 9.75616 13.4976 9.9657 12.8626 9.95502C12.4977 9.94888 12.3212 9.88186 12.2476 9.8409C12.249 9.75668 12.2791 9.57039 12.4563 9.25123C12.7646 8.69598 13.3944 8.02411 14.3302 7.48383C15.168 7.00014 15.9063 6.60957 16.5349 6.33311C16.7653 6.23179 16.9651 6.15299 17.1364 6.09254C17.0774 6.7613 16.9779 7.28271 16.7742 7.73607C16.5601 8.21264 16.179 8.72582 15.3302 9.21588ZM12.2077 9.81422C12.2047 9.81077 12.2029 9.80939 12.2029 9.80939L12.2044 9.81113L12.2077 9.81422ZM7 8C7.55228 8 8 7.55228 8 7C8 6.44771 7.55228 6 7 6C6.44772 6 6 6.44771 6 7C6 7.55228 6.44772 8 7 8ZM9 12C9.55228 12 10 11.5523 10 11C10 10.4477 9.55228 10 9 10C8.44772 10 8 10.4477 8 11C8 11.5523 8.44772 12 9 12ZM8.9641 17.3301C8.42383 18.2659 7.75195 18.8958 7.1967 19.204C6.87755 19.3812 6.69125 19.4114 6.60703 19.4127C6.56608 19.3391 6.49905 19.1627 6.49291 18.7977C6.48223 18.1627 6.69178 17.2659 7.23205 16.3301C7.77233 15.3943 8.4442 14.7645 8.99945 14.4562C9.31861 14.2791 9.5049 14.2489 9.58912 14.2476C9.63007 14.3212 9.6971 14.4976 9.70324 14.8626C9.71393 15.4975 9.50438 16.3943 8.9641 17.3301Z" fill="black"/>
</svg>
