<?xml version="1.0" encoding="UTF-8" standalone="no"?>
<!DOCTYPE svg PUBLIC "-//W3C//DTD SVG 1.1//EN" "http://www.w3.org/Graphics/SVG/1.1/DTD/svg11.dtd">
<svg width="100%" height="100%" viewBox="0 0 35 35" version="1.1" xmlns="http://www.w3.org/2000/svg" xmlns:xlink="http://www.w3.org/1999/xlink" xml:space="preserve" xmlns:serif="http://www.serif.com/" style="fill-rule:evenodd;clip-rule:evenodd;stroke-linejoin:round;stroke-miterlimit:2;">
    <path d="M32.06,14.455C31.538,14.597 31.206,15.167 31.372,15.689C32.416,19.414 31.443,22.903 30.162,24.944C29.877,25.418 30.019,26.035 30.494,26.32C30.66,26.415 30.85,26.462 31.016,26.462C31.348,26.462 31.68,26.296 31.87,25.988C33.792,22.927 34.338,18.75 33.294,15.119C33.152,14.597 32.606,14.289 32.06,14.455Z" style="fill:white;fill-rule:nonzero;"/>
    <path d="M11.557,30.876C5.838,28.883 2.017,23.377 2.017,17.184C2.017,13.482 3.536,9.78 6.17,7.051C8.923,4.179 12.625,2.613 16.564,2.613C18.723,2.613 20.907,3.064 22.425,3.824C22.924,4.085 23.517,3.871 23.778,3.373C24.015,2.874 23.825,2.281 23.327,2.02C21.547,1.118 19.079,0.596 16.564,0.596C12.079,0.596 7.855,2.4 4.722,5.651C1.732,8.759 0,12.96 0,17.184C0,24.232 4.366,30.497 10.892,32.775C11.011,32.822 11.106,32.822 11.225,32.822C11.628,32.822 12.031,32.561 12.174,32.158C12.364,31.636 12.079,31.066 11.557,30.876Z" style="fill:white;fill-rule:nonzero;"/>
    <path d="M29.097,13.221C31.613,11.56 33.226,8.878 33.796,5.485C34.199,2.969 33.891,0.952 33.891,0.857C33.843,0.501 33.606,0.216 33.274,0.074C32.942,-0.068 32.562,0.003 32.301,0.216L17.042,12.011C17.303,10.966 17.113,9.898 16.497,9.044C15.5,7.715 13.815,7.478 12.486,8L12.296,7.881C11.323,7.241 10.303,7.098 9.282,7.478C7.313,8.214 5.77,10.824 5.106,13.078C5.058,13.268 5.153,13.482 5.343,13.553C5.391,13.577 5.438,13.577 5.509,13.577C5.652,13.577 5.794,13.506 5.865,13.363C6.909,11.251 8.642,9.424 9.899,9.115C10.255,9.02 10.564,9.068 10.825,9.234L10.896,9.281C10.232,10.112 9.828,11.18 9.686,12.438C9.543,13.743 9.733,15.167 10.16,16.14C10.327,16.519 10.682,16.733 11.086,16.733C11.181,16.733 11.3,16.709 11.394,16.685C12.32,16.377 13.815,15.784 15.049,14.858C14.883,15.214 14.788,15.594 14.764,15.997C14.693,16.923 14.978,17.824 15.571,18.536C16.164,19.248 17.019,19.699 17.944,19.77C18.039,19.77 18.158,19.794 18.253,19.794L18.347,19.794C17.493,21.004 17.185,22.713 17.991,24.588C19.748,28.622 17.541,31.303 15.974,32.253C15.618,32.466 15.429,32.893 15.547,33.297C15.666,33.7 16.022,33.985 16.449,34.009L16.876,34.009C22.524,34.009 25.016,31.232 26.012,29.547C27.602,26.842 27.531,23.354 25.823,20.459C24.945,18.964 23.236,17.73 21.314,17.991C21.551,17.563 21.693,17.113 21.741,16.614C21.788,16.068 21.717,15.546 21.504,15.048C21.955,15.095 22.405,15.119 22.88,15.119C24.802,15.048 27.009,14.621 29.097,13.221ZM11.727,14.384C11.632,13.862 11.584,13.245 11.655,12.604C11.75,11.773 12.035,10.658 12.937,10.017C13.15,9.851 13.483,9.756 13.815,9.756C14.195,9.756 14.598,9.898 14.859,10.254C15.334,10.919 15.12,11.797 14.693,12.366C14.123,13.102 13.079,13.838 11.727,14.384ZM18.086,17.73C17.683,17.706 17.327,17.516 17.066,17.208C16.805,16.899 16.686,16.519 16.71,16.116C16.734,15.712 16.924,15.357 17.232,15.095C17.493,14.858 17.849,14.74 18.181,14.74L18.3,14.74C18.703,14.763 19.059,14.953 19.32,15.262C19.581,15.57 19.7,15.95 19.676,16.353C19.653,16.757 19.463,17.113 19.154,17.374C18.87,17.635 18.49,17.753 18.086,17.73ZM21.836,19.794C22.453,19.794 23.117,20.055 23.711,20.72C23.782,20.791 23.782,20.886 23.758,20.957C23.402,21.716 22.643,22.642 21.907,23.116C21.788,23.188 21.741,23.354 21.788,23.472C21.836,23.615 22.002,23.686 22.144,23.662C22.738,23.544 23.592,23.211 24.304,22.76C24.375,22.713 24.422,22.689 24.494,22.642C24.612,22.547 24.802,22.618 24.85,22.76C25.158,23.638 25.3,24.54 25.277,25.418C25.277,25.513 25.206,25.608 25.111,25.632C24.351,25.893 23.45,26.035 22.738,25.917C22.571,25.893 22.405,25.94 22.358,26.106C22.287,26.273 22.382,26.415 22.524,26.51C23.046,26.818 23.829,27.151 24.66,27.34C24.802,27.364 24.897,27.53 24.826,27.649C24.707,27.957 24.565,28.242 24.399,28.527C24.138,28.978 23.829,29.381 23.473,29.737C23.402,29.808 23.283,29.832 23.188,29.785C22.809,29.595 22.453,29.357 22.192,29.144C22.097,29.049 21.955,29.049 21.86,29.144C21.765,29.215 21.717,29.381 21.788,29.5C21.907,29.737 22.121,30.046 22.358,30.378C22.429,30.497 22.405,30.639 22.31,30.71C21.551,31.185 20.697,31.541 19.724,31.778C19.51,31.825 19.368,31.612 19.463,31.422C20.91,29.073 20.768,26.106 19.771,23.805C18.988,22.001 19.771,20.601 20.839,20.079C21.076,19.889 21.432,19.794 21.836,19.794ZM19.605,12.58L31.992,2.993C31.969,5.319 31.375,9.305 27.982,11.56C24.992,13.529 21.575,13.102 19.605,12.58Z" style="fill:white;fill-rule:nonzero;"/>
</svg>
