<?xml version="1.0" encoding="UTF-8" standalone="no"?>
<!DOCTYPE svg PUBLIC "-//W3C//DTD SVG 1.1//EN" "http://www.w3.org/Graphics/SVG/1.1/DTD/svg11.dtd">
<svg width="100%" height="100%" viewBox="0 0 108 108" version="1.1" xmlns="http://www.w3.org/2000/svg" xmlns:xlink="http://www.w3.org/1999/xlink" xml:space="preserve" xmlns:serif="http://www.serif.com/" style="fill-rule:evenodd;clip-rule:evenodd;stroke-linejoin:round;stroke-miterlimit:2;">
    <g transform="matrix(1,0,0,1,-53.5229,-62.2612)">
        <path d="M53.523,66.63C53.523,64.217 55.479,62.261 57.892,62.261L107.046,62.261C118.042,62.261 128.277,65.582 136.784,71.277C138.789,72.619 139.326,75.333 137.984,77.338C136.642,79.343 133.928,79.881 131.923,78.539C124.809,73.777 116.258,71 107.046,71L57.892,71C55.479,71 53.523,69.044 53.523,66.63ZM143.284,82.289C145.193,80.813 147.937,81.164 149.413,83.073C156.405,92.118 160.569,103.471 160.569,115.784C160.569,137.041 148.176,155.395 130.241,164.032C128.067,165.079 125.456,164.165 124.409,161.991C123.362,159.817 124.276,157.206 126.45,156.159C141.476,148.923 151.83,133.559 151.83,115.784C151.83,105.473 148.351,95.987 142.499,88.418C141.023,86.509 141.375,83.765 143.284,82.289ZM53.523,164.938C53.523,162.525 55.479,160.568 57.892,160.568L113.6,160.568C116.013,160.568 117.969,162.525 117.969,164.938C117.969,167.351 116.013,169.307 113.6,169.307L57.892,169.307C55.479,169.307 53.523,167.351 53.523,164.938Z" style="fill:white;"/>
    </g>
    <g transform="matrix(1,0,0,1,-53.5229,-62.2612)">
        <path d="M62.261,86.292C62.261,83.879 64.217,81.923 66.63,81.923L107.046,81.923C118.517,81.923 128.654,87.631 134.772,96.342C136.159,98.317 135.683,101.042 133.708,102.429C131.733,103.816 129.008,103.339 127.621,101.365C123.069,94.883 115.55,90.661 107.046,90.661L66.63,90.661C64.217,90.661 62.261,88.705 62.261,86.292ZM136.538,111.415C138.951,111.415 140.907,113.371 140.907,115.784C140.907,134.485 125.747,149.646 107.046,149.646L66.63,149.646C64.217,149.646 62.261,147.689 62.261,145.276C62.261,142.863 64.217,140.907 66.63,140.907L107.046,140.907C120.921,140.907 132.169,129.659 132.169,115.784C132.169,113.371 134.125,111.415 136.538,111.415Z" style="fill:white;"/>
    </g>
    <g transform="matrix(1,0,0,1,-53.5229,-62.2612)">
        <path d="M68.815,104.861C68.815,102.448 70.771,100.492 73.184,100.492L104.861,100.492C113.307,100.492 120.153,107.338 120.153,115.784C120.153,124.23 113.307,131.076 104.861,131.076C102.448,131.076 100.492,129.12 100.492,126.707C100.492,124.294 102.448,122.338 104.861,122.338C108.48,122.338 111.415,119.404 111.415,115.784C111.415,112.164 108.48,109.23 104.861,109.23L73.184,109.23C70.771,109.23 68.815,107.274 68.815,104.861ZM68.815,126.707C68.815,124.294 70.771,122.338 73.184,122.338L88.476,122.338C90.889,122.338 92.846,124.294 92.846,126.707C92.846,129.12 90.889,131.076 88.476,131.076L73.184,131.076C70.771,131.076 68.815,129.12 68.815,126.707Z" style="fill:white;"/>
    </g>
</svg>
