<svg width="24" height="24" viewBox="0 0 24 24" fill="none" xmlns="http://www.w3.org/2000/svg">
<path d="M16.0473 4.30886C16.6837 4.30886 17.1996 3.792 17.1996 3.15443C17.1996 2.51685 16.6837 2 16.0473 2C15.4109 2 14.895 2.51685 14.895 3.15443C14.895 3.792 15.4109 4.30886 16.0473 4.30886Z" fill="black"/>
<path d="M17.3437 20.6153C17.98 20.6153 18.4959 20.0985 18.4959 19.4609C18.4959 18.8233 17.98 18.3065 17.3437 18.3065C16.7073 18.3065 16.1914 18.8233 16.1914 19.4609C16.1914 20.0985 16.7073 20.6153 17.3437 20.6153Z" fill="black"/>
<path d="M16.3765 7.19493C16.9106 7.19493 17.3436 6.76114 17.3436 6.22604C17.3436 5.69093 16.9106 5.25714 16.3765 5.25714C15.8424 5.25714 15.4094 5.69093 15.4094 6.22604C15.4094 6.76114 15.8424 7.19493 16.3765 7.19493Z" fill="black"/>
<path d="M18.9488 7.56596C19.4829 7.56596 19.9158 7.13217 19.9158 6.59707C19.9158 6.06196 19.4829 5.62817 18.9488 5.62817C18.4147 5.62817 17.9817 6.06196 17.9817 6.59707C17.9817 7.13217 18.4147 7.56596 18.9488 7.56596Z" fill="black"/>
<path d="M16.0474 9.6479C16.502 9.6479 16.8705 9.27872 16.8705 8.82331C16.8705 8.3679 16.502 7.99872 16.0474 7.99872C15.5929 7.99872 15.2244 8.3679 15.2244 8.82331C15.2244 9.27872 15.5929 9.6479 16.0474 9.6479Z" fill="black"/>
<path d="M18.6192 9.99873C19.0737 9.99873 19.4422 9.62955 19.4422 9.17414C19.4422 8.71873 19.0737 8.34955 18.6192 8.34955C18.1646 8.34955 17.7961 8.71873 17.7961 9.17414C17.7961 9.62955 18.1646 9.99873 18.6192 9.99873Z" fill="black"/>
<path d="M20.6768 10.8029C21.1314 10.8029 21.4999 10.4337 21.4999 9.97828C21.4999 9.52287 21.1314 9.15369 20.6768 9.15369C20.2223 9.15369 19.8538 9.52287 19.8538 9.97828C19.8538 10.4337 20.2223 10.8029 20.6768 10.8029Z" fill="black"/>
<path d="M17.8579 11.9776C18.2556 11.9776 18.578 11.6546 18.578 11.2561C18.578 10.8576 18.2556 10.5346 17.8579 10.5346C17.4601 10.5346 17.1377 10.8576 17.1377 11.2561C17.1377 11.6546 17.4601 11.9776 17.8579 11.9776Z" fill="black"/>
<path d="M15.2861 11.6268C15.6838 11.6268 16.0063 11.3038 16.0063 10.9053C16.0063 10.5068 15.6838 10.1838 15.2861 10.1838C14.8883 10.1838 14.5659 10.5068 14.5659 10.9053C14.5659 11.3038 14.8883 11.6268 15.2861 11.6268Z" fill="black"/>
<path d="M19.9362 12.7818C20.334 12.7818 20.6564 12.4587 20.6564 12.0603C20.6564 11.6618 20.334 11.3387 19.9362 11.3387C19.5385 11.3387 19.2161 11.6618 19.2161 12.0603C19.2161 12.4587 19.5385 12.7818 19.9362 12.7818Z" fill="black"/>
<path d="M16.8294 13.4824C17.1704 13.4824 17.4467 13.2055 17.4467 12.864C17.4467 12.5224 17.1704 12.2455 16.8294 12.2455C16.4885 12.2455 16.2122 12.5224 16.2122 12.864C16.2122 13.2055 16.4885 13.4824 16.8294 13.4824Z" fill="black"/>
<path d="M18.9076 14.2659C19.2485 14.2659 19.5249 13.989 19.5249 13.6474C19.5249 13.3059 19.2485 13.029 18.9076 13.029C18.5667 13.029 18.2903 13.3059 18.2903 13.6474C18.2903 13.989 18.5667 14.2659 18.9076 14.2659Z" fill="black"/>
<path d="M14.2777 13.1113C14.6186 13.1113 14.895 12.8344 14.895 12.4929C14.895 12.1513 14.6186 11.8745 14.2777 11.8745C13.9368 11.8745 13.6604 12.1513 13.6604 12.4929C13.6604 12.8344 13.9368 13.1113 14.2777 13.1113Z" fill="black"/>
<path d="M15.6975 14.4924C15.9816 14.4924 16.2119 14.2617 16.2119 13.977C16.2119 13.6924 15.9816 13.4617 15.6975 13.4617C15.4134 13.4617 15.1831 13.6924 15.1831 13.977C15.1831 14.2617 15.4134 14.4924 15.6975 14.4924Z" fill="black"/>
<path d="M16.5823 15.9149C16.8323 15.9149 17.035 15.7119 17.035 15.4614C17.035 15.2109 16.8323 15.0079 16.5823 15.0079C16.3323 15.0079 16.1296 15.2109 16.1296 15.4614C16.1296 15.7119 16.3323 15.9149 16.5823 15.9149Z" fill="black"/>
<path d="M15.4917 16.2039C15.6963 16.2039 15.8621 16.0377 15.8621 15.8328C15.8621 15.6279 15.6963 15.4617 15.4917 15.4617C15.2872 15.4617 15.1213 15.6279 15.1213 15.8328C15.1213 16.0377 15.2872 16.2039 15.4917 16.2039Z" fill="black"/>
<path d="M14.5247 15.1314C14.7747 15.1314 14.9774 14.9284 14.9774 14.6779C14.9774 14.4274 14.7747 14.2244 14.5247 14.2244C14.2747 14.2244 14.072 14.4274 14.072 14.6779C14.072 14.9284 14.2747 15.1314 14.5247 15.1314Z" fill="black"/>
<path d="M13.1257 14.1421C13.4098 14.1421 13.6401 13.9114 13.6401 13.6268C13.6401 13.3421 13.4098 13.1114 13.1257 13.1114C12.8416 13.1114 12.6113 13.3421 12.6113 13.6268C12.6113 13.9114 12.8416 14.1421 13.1257 14.1421Z" fill="black"/>
<path d="M13.105 10.2663C13.3891 10.2663 13.6194 10.0355 13.6194 9.75091C13.6194 9.46627 13.3891 9.23553 13.105 9.23553C12.8209 9.23553 12.5906 9.46627 12.5906 9.75091C12.5906 10.0355 12.8209 10.2663 13.105 10.2663Z" fill="black"/>
<path d="M13.3311 8.4524C13.5811 8.4524 13.7838 8.24935 13.7838 7.99887C13.7838 7.7484 13.5811 7.54535 13.3311 7.54535C13.0811 7.54535 12.8784 7.7484 12.8784 7.99887C12.8784 8.24935 13.0811 8.4524 13.3311 8.4524Z" fill="black"/>
<path d="M13.8252 6.96815C14.0298 6.96815 14.1956 6.80202 14.1956 6.59708C14.1956 6.39215 14.0298 6.22601 13.8252 6.22601C13.6207 6.22601 13.4548 6.39215 13.4548 6.59708C13.4548 6.80202 13.6207 6.96815 13.8252 6.96815Z" fill="black"/>
<path d="M12.961 6.26734C13.211 6.26734 13.4137 6.06429 13.4137 5.81382C13.4137 5.56334 13.211 5.36029 12.961 5.36029C12.711 5.36029 12.5083 5.56334 12.5083 5.81382C12.5083 6.06429 12.711 6.26734 12.961 6.26734Z" fill="black"/>
<path d="M17.7551 15.2759C18.0392 15.2759 18.2695 15.0451 18.2695 14.7605C18.2695 14.4759 18.0392 14.2451 17.7551 14.2451C17.471 14.2451 17.2407 14.4759 17.2407 14.7605C17.2407 15.0451 17.471 15.2759 17.7551 15.2759Z" fill="black"/>
<path d="M11.7881 5.66917C12.0722 5.66917 12.3025 5.43843 12.3025 5.1538C12.3025 4.86917 12.0722 4.63843 11.7881 4.63843C11.504 4.63843 11.2737 4.86917 11.2737 5.1538C11.2737 5.43843 11.504 5.66917 11.7881 5.66917Z" fill="black"/>
<path d="M12.1379 7.85478C12.422 7.85478 12.6523 7.62404 12.6523 7.33941C12.6523 7.05477 12.422 6.82404 12.1379 6.82404C11.8538 6.82404 11.6235 7.05477 11.6235 7.33941C11.6235 7.62404 11.8538 7.85478 12.1379 7.85478Z" fill="black"/>
<path d="M11.5619 9.93666C11.9028 9.93666 12.1792 9.65977 12.1792 9.31821C12.1792 8.97665 11.9028 8.69977 11.5619 8.69977C11.2209 8.69977 10.9446 8.97665 10.9446 9.31821C10.9446 9.65977 11.2209 9.93666 11.5619 9.93666Z" fill="black"/>
<path d="M9.68916 9.93657C10.0869 9.93657 10.4093 9.61353 10.4093 9.21505C10.4093 8.81657 10.0869 8.49353 9.68916 8.49353C9.29142 8.49353 8.96899 8.81657 8.96899 9.21505C8.96899 9.61353 9.29142 9.93657 9.68916 9.93657Z" fill="black"/>
<path d="M7.50835 10.4319C7.96291 10.4319 8.3314 10.0627 8.3314 9.60731C8.3314 9.1519 7.96291 8.78271 7.50835 8.78271C7.05379 8.78271 6.6853 9.1519 6.6853 9.60731C6.6853 10.0627 7.05379 10.4319 7.50835 10.4319Z" fill="black"/>
<path d="M5.12162 11.6066C5.65573 11.6066 6.08871 11.1728 6.08871 10.6377C6.08871 10.1026 5.65573 9.66876 5.12162 9.66876C4.58752 9.66876 4.15454 10.1026 4.15454 10.6377C4.15454 11.1728 4.58752 11.6066 5.12162 11.6066Z" fill="black"/>
<path d="M2.65227 13.5855C3.28865 13.5855 3.80454 13.0686 3.80454 12.431C3.80454 11.7935 3.28865 11.2766 2.65227 11.2766C2.01589 11.2766 1.5 11.7935 1.5 12.431C1.5 13.0686 2.01589 13.5855 2.65227 13.5855Z" fill="black"/>
<path d="M4.15458 9.1945C4.68869 9.1945 5.12166 8.76071 5.12166 8.22561C5.12166 7.6905 4.68869 7.25671 4.15458 7.25671C3.62048 7.25671 3.1875 7.6905 3.1875 8.22561C3.1875 8.76071 3.62048 9.1945 4.15458 9.1945Z" fill="black"/>
<path d="M6.54107 8.01936C6.99562 8.01936 7.36411 7.65018 7.36411 7.19477C7.36411 6.73936 6.99562 6.37018 6.54107 6.37018C6.08651 6.37018 5.71802 6.73936 5.71802 7.19477C5.71802 7.65018 6.08651 8.01936 6.54107 8.01936Z" fill="black"/>
<path d="M6.19121 5.83424C6.64577 5.83424 7.01426 5.46506 7.01426 5.00965C7.01426 4.55424 6.64577 4.18506 6.19121 4.18506C5.73666 4.18506 5.36816 4.55424 5.36816 5.00965C5.36816 5.46506 5.73666 5.83424 6.19121 5.83424Z" fill="black"/>
<path d="M8.37251 5.33946C8.77025 5.33946 9.09268 5.01642 9.09268 4.61794C9.09268 4.21946 8.77025 3.89642 8.37251 3.89642C7.97477 3.89642 7.65234 4.21946 7.65234 4.61794C7.65234 5.01642 7.97477 5.33946 8.37251 5.33946Z" fill="black"/>
<path d="M10.2447 5.33955C10.5856 5.33955 10.862 5.06266 10.862 4.72111C10.862 4.37955 10.5856 4.10266 10.2447 4.10266C9.90381 4.10266 9.62744 4.37955 9.62744 4.72111C9.62744 5.06266 9.90381 5.33955 10.2447 5.33955Z" fill="black"/>
<path d="M10.5946 7.52461C10.9355 7.52461 11.2119 7.24772 11.2119 6.90616C11.2119 6.56461 10.9355 6.28772 10.5946 6.28772C10.2537 6.28772 9.97729 6.56461 9.97729 6.90616C9.97729 7.24772 10.2537 7.52461 10.5946 7.52461Z" fill="black"/>
<path d="M8.72237 7.54533C9.1201 7.54533 9.44253 7.22229 9.44253 6.82381C9.44253 6.42533 9.1201 6.10229 8.72237 6.10229C8.32463 6.10229 8.0022 6.42533 8.0022 6.82381C8.0022 7.22229 8.32463 7.54533 8.72237 7.54533Z" fill="black"/>
<path d="M6.68507 13.0291C6.88962 13.0291 7.05544 12.863 7.05544 12.6581C7.05544 12.4531 6.88962 12.287 6.68507 12.287C6.48052 12.287 6.3147 12.4531 6.3147 12.6581C6.3147 12.863 6.48052 13.0291 6.68507 13.0291Z" fill="black"/>
<path d="M8.16679 12.8433C8.41679 12.8433 8.61946 12.6402 8.61946 12.3897C8.61946 12.1393 8.41679 11.9362 8.16679 11.9362C7.91678 11.9362 7.71411 12.1393 7.71411 12.3897C7.71411 12.6402 7.91678 12.8433 8.16679 12.8433Z" fill="black"/>
<path d="M9.79199 12.225C10.0761 12.225 10.3064 11.9942 10.3064 11.7096C10.3064 11.425 10.0761 11.1942 9.79199 11.1942C9.50789 11.1942 9.27759 11.425 9.27759 11.7096C9.27759 11.9942 9.50789 12.225 9.79199 12.225Z" fill="black"/>
<path d="M10.183 13.8742C10.5239 13.8742 10.8002 13.5973 10.8002 13.2557C10.8002 12.9142 10.5239 12.6373 10.183 12.6373C9.84204 12.6373 9.56567 12.9142 9.56567 13.2557C9.56567 13.5973 9.84204 13.8742 10.183 13.8742Z" fill="black"/>
<path d="M8.20801 14.266C8.49211 14.266 8.72241 14.0352 8.72241 13.7506C8.72241 13.466 8.49211 13.2352 8.20801 13.2352C7.92391 13.2352 7.6936 13.466 7.6936 13.7506C7.6936 14.0352 7.92391 14.266 8.20801 14.266Z" fill="black"/>
<path d="M6.45878 14.2454C6.70879 14.2454 6.91146 14.0423 6.91146 13.7918C6.91146 13.5414 6.70879 13.3383 6.45878 13.3383C6.20877 13.3383 6.0061 13.5414 6.0061 13.7918C6.0061 14.0423 6.20877 14.2454 6.45878 14.2454Z" fill="black"/>
<path d="M6.47925 15.6676C6.76335 15.6676 6.99366 15.4368 6.99366 15.1522C6.99366 14.8676 6.76335 14.6368 6.47925 14.6368C6.19515 14.6368 5.96484 14.8676 5.96484 15.1522C5.96484 15.4368 6.19515 15.6676 6.47925 15.6676Z" fill="black"/>
<path d="M8.57822 15.9354C8.91914 15.9354 9.19551 15.6585 9.19551 15.3169C9.19551 14.9754 8.91914 14.6985 8.57822 14.6985C8.23731 14.6985 7.96094 14.9754 7.96094 15.3169C7.96094 15.6585 8.23731 15.9354 8.57822 15.9354Z" fill="black"/>
<path d="M11.0268 15.6674C11.4245 15.6674 11.747 15.3444 11.747 14.9459C11.747 14.5474 11.4245 14.2244 11.0268 14.2244C10.6291 14.2244 10.3066 14.5474 10.3066 14.9459C10.3066 15.3444 10.6291 15.6674 11.0268 15.6674Z" fill="black"/>
<path d="M12.4668 17.4611C12.9214 17.4611 13.2899 17.092 13.2899 16.6365C13.2899 16.1811 12.9214 15.812 12.4668 15.812C12.0123 15.812 11.6438 16.1811 11.6438 16.6365C11.6438 17.092 12.0123 17.4611 12.4668 17.4611Z" fill="black"/>
<path d="M9.44233 17.7085C9.84007 17.7085 10.1625 17.3854 10.1625 16.987C10.1625 16.5885 9.84007 16.2654 9.44233 16.2654C9.0446 16.2654 8.72217 16.5885 8.72217 16.987C8.72217 17.3854 9.0446 17.7085 9.44233 17.7085Z" fill="black"/>
<path d="M7.73457 19.11C8.13231 19.11 8.45474 18.787 8.45474 18.3885C8.45474 17.99 8.13231 17.667 7.73457 17.667C7.33683 17.667 7.0144 17.99 7.0144 18.3885C7.0144 18.787 7.33683 19.11 7.73457 19.11Z" fill="black"/>
<path d="M9.15435 20.9245C9.6089 20.9245 9.97739 20.5553 9.97739 20.0999C9.97739 19.6445 9.6089 19.2753 9.15435 19.2753C8.69979 19.2753 8.3313 19.6445 8.3313 20.0999C8.3313 20.5553 8.69979 20.9245 9.15435 20.9245Z" fill="black"/>
<path d="M12.9405 21.2547C13.4746 21.2547 13.9076 20.8209 13.9076 20.2858C13.9076 19.7507 13.4746 19.3169 12.9405 19.3169C12.4064 19.3169 11.9734 19.7507 11.9734 20.2858C11.9734 20.8209 12.4064 21.2547 12.9405 21.2547Z" fill="black"/>
<path d="M10.8621 19.5223C11.3167 19.5223 11.6852 19.1532 11.6852 18.6978C11.6852 18.2423 11.3167 17.8732 10.8621 17.8732C10.4076 17.8732 10.0391 18.2423 10.0391 18.6978C10.0391 19.1532 10.4076 19.5223 10.8621 19.5223Z" fill="black"/>
<path d="M14.5249 19.1929C15.059 19.1929 15.492 18.7591 15.492 18.224C15.492 17.6889 15.059 17.2551 14.5249 17.2551C13.9908 17.2551 13.5579 17.6889 13.5579 18.224C13.5579 18.7591 13.9908 19.1929 14.5249 19.1929Z" fill="black"/>
<path d="M6.87022 17.3375C7.21114 17.3375 7.4875 17.0606 7.4875 16.7191C7.4875 16.3775 7.21114 16.1006 6.87022 16.1006C6.5293 16.1006 6.25293 16.3775 6.25293 16.7191C6.25293 17.0606 6.5293 17.3375 6.87022 17.3375Z" fill="black"/>
</svg>
