<svg width="24" height="24" viewBox="0 0 24 24" fill="none" xmlns="http://www.w3.org/2000/svg">
<path d="M6.60127 13.8687H10.5809V12.8274H8.55562V12.7993L9.04168 12.424C10.2239 11.5117 10.5252 11.038 10.5252 10.4822C10.5252 9.58631 9.73279 9 8.4898 9C7.28226 9 6.49748 9.62149 6.50001 10.6323H7.83666C7.83413 10.2289 8.09994 10.0038 8.4898 10.0038C8.87713 10.0038 9.15306 10.2266 9.15306 10.5947C9.15306 10.9348 8.91763 11.1553 8.53537 11.4484L6.60127 12.9306V13.8687Z" fill="white"/>
<path d="M11.8522 13.9437C12.2244 13.9437 12.556 13.6529 12.5611 13.2871C12.556 12.9306 12.2244 12.6398 11.8522 12.6398C11.4598 12.6398 11.1383 12.9306 11.1434 13.2871C11.1383 13.6529 11.4598 13.9437 11.8522 13.9437Z" fill="white"/>
<path fill-rule="evenodd" clip-rule="evenodd" d="M17.5 11.4766C17.4975 13.0666 16.6216 14.0023 15.2115 14C13.7989 13.9977 12.9179 13.0596 12.923 11.4766C12.928 9.89119 13.7989 9 15.2115 9C16.6216 9 17.5025 9.89588 17.5 11.4766ZM14.3811 11.4766C14.3761 12.4873 14.7254 12.94 15.2115 12.94C15.6975 12.94 16.0444 12.4873 16.0418 11.4766C16.0393 10.4892 15.6975 10.0507 15.2115 10.0507C14.7254 10.0507 14.3862 10.4892 14.3811 11.4766Z" fill="white"/>
<path fill-rule="evenodd" clip-rule="evenodd" d="M19.5117 18.1016C20.4333 17.5654 21 16.5813 21 15.5172V8.48278C21 7.41866 20.4333 6.43461 19.5117 5.89841L13.5117 2.4076C12.5776 1.86413 11.4224 1.86413 10.4883 2.4076L4.48833 5.89841C3.56671 6.43461 3 7.41866 3 8.48278V15.5172C3 16.5813 3.56671 17.5654 4.48833 18.1016L10.4883 21.5924C11.4224 22.1359 12.5776 22.1359 13.5117 21.5924L19.5117 18.1016ZM19 8.48278V15.5172C19 15.8674 18.8135 16.1939 18.5059 16.3729L12.5059 19.8637C12.1935 20.0454 11.8065 20.0454 11.4941 19.8637L5.49409 16.3729C5.1865 16.1939 5 15.8674 5 15.5172V8.48278C5 8.13258 5.18649 7.80608 5.4941 7.62712L11.4941 4.13631C11.8065 3.95456 12.1935 3.95456 12.5059 4.13631L18.5059 7.62712C18.8135 7.80608 19 8.13258 19 8.48278Z" fill="white"/>
</svg>
