<svg width="24" height="24" viewBox="0 0 24 24" fill="none" xmlns="http://www.w3.org/2000/svg">
<mask id="path-1-outside-1" maskUnits="userSpaceOnUse" x="3" y="2" width="18" height="20" fill="black">
<rect fill="white" x="3" y="2" width="18" height="20"/>
<path fill-rule="evenodd" clip-rule="evenodd" d="M14.3235 5.54611C14.3427 5.28905 14.2159 5.04345 13.9971 4.91407L12.8352 4.22678C12.324 3.92441 11.693 3.92441 11.1818 4.22678L10.1153 4.8576C9.8966 4.98698 9.76981 5.23257 9.78904 5.48963L9.86333 6.48258C9.88185 6.73013 9.76491 6.96791 9.55923 7.10087L8.72021 7.64329C8.39233 7.85526 7.95666 7.73373 7.78032 7.38112L7.6554 7.13132C7.48375 6.78806 7.06462 6.66205 6.73772 6.85541L5.8206 7.39787C5.22841 7.74815 4.9105 8.43533 5.0221 9.12394L5.97025 14.9746C6.12375 15.9218 6.66757 16.7568 7.46434 17.2686L11.4752 19.8449C11.8005 20.0538 12.2151 20.0515 12.5381 19.839L16.4681 17.253C17.2333 16.7496 17.7598 15.9456 17.9228 15.0322L18.9733 9.1405C19.0976 8.44407 18.78 7.74304 18.1794 7.3878L17.3563 6.90093C17.0293 6.70756 16.6102 6.83357 16.4386 7.17683L16.3364 7.38113C16.1601 7.73374 15.7244 7.85527 15.3966 7.6433L14.5575 7.10088C14.3519 6.96792 14.2349 6.73014 14.2534 6.48259L14.3235 5.54611ZM12.7306 13.0525C13.2768 12.7824 13.6535 12.2116 13.6535 11.5512C13.6535 10.6301 12.921 9.88347 12.0175 9.88347C11.114 9.88347 10.3815 10.6301 10.3815 11.5512C10.3815 12.1772 10.72 12.7228 11.2205 13.0079V14.9293C11.2205 15.3544 11.5586 15.6991 11.9755 15.6991C12.3925 15.6991 12.7306 15.3544 12.7306 14.9293V13.0525Z"/>
</mask>
<path d="M14.3235 5.54611L16.3179 5.69534L16.3179 5.69532L14.3235 5.54611ZM13.9971 4.91407L12.9789 6.63547L12.9791 6.63556L13.9971 4.91407ZM12.8352 4.22678L13.8534 2.50538L13.8534 2.50536L12.8352 4.22678ZM11.1818 4.22678L10.1636 2.50536L10.1636 2.50537L11.1818 4.22678ZM10.1153 4.8576L11.1335 6.57903L11.1336 6.57901L10.1153 4.8576ZM9.78904 5.48963L7.79461 5.63884L7.79461 5.63885L9.78904 5.48963ZM9.86333 6.48258L7.8689 6.63179L7.8689 6.63182L9.86333 6.48258ZM9.55923 7.10087L10.6451 8.78045L10.6451 8.78045L9.55923 7.10087ZM8.72021 7.64329L9.80603 9.32287L9.80604 9.32287L8.72021 7.64329ZM7.78032 7.38112L9.56912 6.48658L9.56912 6.48657L7.78032 7.38112ZM7.6554 7.13132L5.86659 8.02583L5.86661 8.02587L7.6554 7.13132ZM6.73772 6.85541L5.71953 5.13399L5.71953 5.13399L6.73772 6.85541ZM5.8206 7.39787L4.80241 5.67645L4.8024 5.67646L5.8206 7.39787ZM5.0221 9.12394L3.04786 9.44389L3.04786 9.44389L5.0221 9.12394ZM5.97025 14.9746L7.9445 14.6547L7.9445 14.6547L5.97025 14.9746ZM7.46434 17.2686L8.54523 15.5858L8.5452 15.5858L7.46434 17.2686ZM11.4752 19.8449L12.5561 18.1621L12.5561 18.1621L11.4752 19.8449ZM12.5381 19.839L13.6373 21.5099L13.6375 21.5098L12.5381 19.839ZM16.4681 17.253L15.3688 15.5822L15.3687 15.5823L16.4681 17.253ZM17.9228 15.0322L19.8917 15.3833L19.8917 15.3833L17.9228 15.0322ZM18.9733 9.1405L17.0044 8.78928L17.0044 8.7894L18.9733 9.1405ZM18.1794 7.3878L17.1612 9.10921L17.1612 9.10922L18.1794 7.3878ZM17.3563 6.90093L18.3745 5.17951L18.3744 5.17947L17.3563 6.90093ZM16.4386 7.17683L18.2273 8.07159L18.2275 8.07119L16.4386 7.17683ZM16.3364 7.38113L14.5477 6.48637L14.5476 6.48662L16.3364 7.38113ZM15.3966 7.6433L16.4825 5.9638L16.4824 5.9637L15.3966 7.6433ZM14.5575 7.10088L13.4716 8.78043L13.4717 8.78047L14.5575 7.10088ZM14.2534 6.48259L16.2478 6.63218L16.2478 6.63182L14.2534 6.48259ZM12.7306 13.0525L11.8441 11.2597L10.7306 11.8103V13.0525H12.7306ZM11.2205 13.0079H13.2205V11.8456L12.2106 11.2702L11.2205 13.0079ZM16.3179 5.69532C16.3929 4.69354 15.9005 3.71613 15.0152 3.19259L12.9791 6.63556C12.5313 6.37078 12.2926 5.88455 12.3291 5.3969L16.3179 5.69532ZM15.0154 3.19268L13.8534 2.50538L11.817 5.94818L12.9789 6.63547L15.0154 3.19268ZM13.8534 2.50536C12.7142 1.83155 11.3028 1.83155 10.1636 2.50536L12.2 5.94821C12.0832 6.01726 11.9338 6.01726 11.817 5.94821L13.8534 2.50536ZM10.1636 2.50537L9.09713 3.13619L11.1336 6.57901L12.2 5.94819L10.1636 2.50537ZM9.09716 3.13618C8.21192 3.65978 7.71967 4.63719 7.79461 5.63884L11.7835 5.34042C11.8199 5.82796 11.5813 6.31419 11.1335 6.57903L9.09716 3.13618ZM7.79461 5.63885L7.8689 6.63179L11.8578 6.33336L11.7835 5.34042L7.79461 5.63885ZM7.8689 6.63182C7.83374 6.16188 8.05395 5.69247 8.4734 5.4213L10.6451 8.78045C11.4759 8.24334 11.93 7.29838 11.8577 6.33334L7.8689 6.63182ZM8.47341 5.42129L7.63439 5.96371L9.80604 9.32287L10.6451 8.78045L8.47341 5.42129ZM7.63439 5.96371C8.32541 5.51697 9.22219 5.79283 9.56912 6.48658L5.99153 8.27567C6.69113 9.67463 8.45925 10.1935 9.80603 9.32287L7.63439 5.96371ZM9.56912 6.48657L9.44419 6.23677L5.86661 8.02587L5.99153 8.27567L9.56912 6.48657ZM9.44421 6.2368C8.76353 4.8756 7.06357 4.33901 5.71953 5.13399L7.75591 8.57683C7.06567 8.9851 6.20398 8.70053 5.86659 8.02583L9.44421 6.2368ZM5.71953 5.13399L4.80241 5.67645L6.83879 9.11929L7.75591 8.57683L5.71953 5.13399ZM4.8024 5.67646C3.48887 6.4534 2.80705 7.95798 3.04786 9.44389L6.99634 8.804C7.01396 8.91269 6.96794 9.0429 6.83881 9.11928L4.8024 5.67646ZM3.04786 9.44389L3.99601 15.2946L7.9445 14.6547L6.99634 8.804L3.04786 9.44389ZM3.99601 15.2946C4.23896 16.7937 5.10172 18.1281 6.38348 18.9514L8.5452 15.5858C8.23342 15.3855 8.00855 15.0499 7.9445 14.6547L3.99601 15.2946ZM6.38346 18.9513L10.3943 21.5277L12.5561 18.1621L8.54523 15.5858L6.38346 18.9513ZM10.3943 21.5276C11.3849 22.1639 12.654 22.1567 13.6373 21.5099L11.439 18.1681C11.7762 17.9463 12.216 17.9437 12.5561 18.1621L10.3943 21.5276ZM13.6375 21.5098L17.5675 18.9238L15.3687 15.5823L11.4387 18.1683L13.6375 21.5098ZM17.5674 18.9238C18.7981 18.1141 19.6338 16.8293 19.8917 15.3833L15.9538 14.681C15.8859 15.0619 15.6685 15.3851 15.3688 15.5822L17.5674 18.9238ZM19.8917 15.3833L20.9423 9.4916L17.0044 8.7894L15.9538 14.6811L19.8917 15.3833ZM20.9423 9.49172C21.2103 7.98887 20.5296 6.45427 19.1976 5.66638L17.1612 9.10922C17.0303 9.03182 16.9848 8.89927 17.0044 8.78928L20.9423 9.49172ZM19.1976 5.66638L18.3745 5.17951L16.3381 8.62234L17.1612 9.10921L19.1976 5.66638ZM18.3744 5.17947C17.0305 4.38461 15.3304 4.92098 14.6497 6.28247L18.2275 8.07119C17.89 8.74617 17.0282 9.03051 16.3381 8.62238L18.3744 5.17947ZM14.6499 6.28206L14.5477 6.48637L18.1251 8.2759L18.2273 8.07159L14.6499 6.28206ZM14.5476 6.48662C14.8945 5.79293 15.7913 5.51686 16.4825 5.9638L14.3106 9.32279C15.6575 10.1937 17.4257 9.67456 18.1252 8.27565L14.5476 6.48662ZM16.4824 5.9637L15.6433 5.42129L13.4717 8.78047L14.3108 9.32289L16.4824 5.9637ZM15.6434 5.42133C16.0625 5.69232 16.2831 6.16164 16.2478 6.63218L12.259 6.33299C12.1866 7.29863 12.6412 8.24352 13.4716 8.78043L15.6434 5.42133ZM16.2478 6.63182L16.3179 5.69534L12.3291 5.39687L12.259 6.33335L16.2478 6.63182ZM13.6171 14.8453C14.8329 14.2441 15.6535 12.986 15.6535 11.5512H11.6535C11.6535 11.4372 11.7207 11.3207 11.8441 11.2597L13.6171 14.8453ZM15.6535 11.5512C15.6535 9.56184 14.0615 7.88347 12.0175 7.88347V11.8835C11.7805 11.8835 11.6535 11.6984 11.6535 11.5512H15.6535ZM12.0175 7.88347C9.97333 7.88347 8.38152 9.56194 8.38152 11.5512H12.3815C12.3815 11.6983 12.2546 11.8835 12.0175 11.8835V7.88347ZM8.38152 11.5512C8.38152 12.9116 9.11929 14.1126 10.2304 14.7457L12.2106 11.2702C12.3206 11.3329 12.3815 11.4429 12.3815 11.5512H8.38152ZM9.2205 13.0079V14.9293H13.2205V13.0079H9.2205ZM9.2205 14.9293C9.2205 16.4225 10.4179 17.6991 11.9755 17.6991V13.6991C12.6993 13.6991 13.2205 14.2864 13.2205 14.9293H9.2205ZM11.9755 17.6991C13.5332 17.6991 14.7306 16.4225 14.7306 14.9293H10.7306C10.7306 14.2864 11.2518 13.6991 11.9755 13.6991V17.6991ZM14.7306 14.9293V13.0525H10.7306V14.9293H14.7306Z" fill="black" mask="url(#path-1-outside-1)"/>
</svg>
