<?xml version="1.0" encoding="UTF-8" standalone="no"?>
<!DOCTYPE svg PUBLIC "-//W3C//DTD SVG 1.1//EN" "http://www.w3.org/Graphics/SVG/1.1/DTD/svg11.dtd">
<svg width="100%" height="100%" viewBox="0 0 28 29" version="1.1" xmlns="http://www.w3.org/2000/svg" xmlns:xlink="http://www.w3.org/1999/xlink" xml:space="preserve" xmlns:serif="http://www.serif.com/" style="fill-rule:evenodd;clip-rule:evenodd;stroke-linejoin:round;stroke-miterlimit:2;">
    <g transform="matrix(1,0,0,1,-0.499772,-0.5)">
        <path d="M1.007,8L1.007,5.244C1.007,4.802 1.297,4.413 1.72,4.286L4.72,3.386C5.361,3.194 6.007,3.674 6.007,4.344L6.007,5.28C6.007,5.911 6.585,6.385 7.203,6.261L10.203,5.661C10.671,5.567 11.007,5.157 11.007,4.68L11.007,2C11.007,1.448 11.455,1 12.007,1L16.508,1C17.061,1 17.508,1.448 17.508,2L17.508,4.698C17.508,5.167 17.834,5.572 18.291,5.674L20.79,6.23C21.415,6.368 22.007,5.893 22.007,5.253L22.007,4.477C22.007,3.77 22.722,3.286 23.379,3.549L26.379,4.749C26.758,4.9 27.007,5.268 27.007,5.677L27.007,8C27.172,13.943 25.048,25.281 14.32,28.898C14.12,28.965 13.896,28.964 13.696,28.893C3.455,25.272 0.842,13.94 1.007,8ZM13.008,11C12.456,11 12.008,11.448 12.008,12L12.008,17C12.008,17.552 12.456,18 13.008,18L15.008,18C15.56,18 16.008,17.552 16.008,17L16.008,12C16.008,11.448 15.56,11 15.008,11L13.008,11Z" style="fill:none;stroke:white;stroke-width:1px;"/>
    </g>
</svg>
