<?xml version="1.0" encoding="UTF-8" standalone="no"?>
<!DOCTYPE svg PUBLIC "-//W3C//DTD SVG 1.1//EN" "http://www.w3.org/Graphics/SVG/1.1/DTD/svg11.dtd">
<svg width="100%" height="100%" viewBox="0 0 24 24" version="1.1" xmlns="http://www.w3.org/2000/svg" xmlns:xlink="http://www.w3.org/1999/xlink" xml:space="preserve" xmlns:serif="http://www.serif.com/" style="fill-rule:evenodd;clip-rule:evenodd;">
    <path d="M23,6C23,3.24 20.76,1 18,1L6,1C3.24,1 1,3.24 1,6L1,18C1,20.76 3.24,23 6,23L18,23C20.76,23 23,20.76 23,18L23,6Z" style="fill:none;stroke:white;stroke-width:2px;"/>
    <path d="M12,8.72C12,8.167 12.448,7.72 13,7.72L22,7.72C22.552,7.72 23,8.167 23,8.72L23,15.28C23,15.832 22.552,16.28 22,16.28L13,16.28C12.448,16.28 12,15.832 12,15.28L12,8.72Z" style="fill:none;fill-rule:nonzero;stroke:white;stroke-width:2px;"/>
    <ellipse cx="16.563" cy="12.06" rx="1.563" ry="1.5" style="fill:white;"/>
</svg>
