<svg width="24" height="24" viewBox="0 0 24 24" fill="none" xmlns="http://www.w3.org/2000/svg">
<path fill-rule="evenodd" clip-rule="evenodd" d="M12 2C13.6569 2 15 3.34315 15 5L17 5C19.2091 5 21 6.79086 21 9V17C21 19.2091 19.2091 21 17 21H7C4.79086 21 3 19.2091 3 17V9C3 6.79086 4.79086 5 7 5H9C9 3.34315 10.3431 2 12 2ZM19 14V12H15C14.4477 12 14 12.4477 14 13C14 13.5523 14.4477 14 15 14H19ZM19 10H15C13.3431 10 12 11.3431 12 13C12 14.6569 13.3431 16 15 16H19V17C19 18.1046 18.1046 19 17 19H7C5.89543 19 5 18.1046 5 17V9C5 7.89543 5.89543 7 7 7H17C18.1046 7 19 7.89543 19 9V10Z" fill="black"/>
</svg>
