<?xml version="1.0" encoding="UTF-8" standalone="no"?>
<!DOCTYPE svg PUBLIC "-//W3C//DTD SVG 1.1//EN" "http://www.w3.org/Graphics/SVG/1.1/DTD/svg11.dtd">
<svg width="100%" height="100%" viewBox="0 0 325 325" version="1.1" xmlns="http://www.w3.org/2000/svg" xmlns:xlink="http://www.w3.org/1999/xlink" xml:space="preserve" xmlns:serif="http://www.serif.com/" style="fill-rule:evenodd;clip-rule:evenodd;stroke-linejoin:round;stroke-miterlimit:2;">
    <g id="path4175" transform="matrix(1,0,0,1,-43.538,-45.5996)">
        <path d="M180.839,368.569C112.993,358.018 59.04,305.722 45.825,237.7C43.053,223.429 42.745,195.392 45.207,181.333C50.076,153.522 63.113,125.071 80.641,104C88.91,94.061 93.902,92.447 99.394,97.939C104.365,102.91 103.708,107.971 97.102,115.586C72.52,143.919 59.558,185.389 63.821,222.062C67.972,257.769 81.629,285.684 106.872,310.06C126.096,328.624 146.36,339.927 172.756,346.811C182.903,349.458 187.825,349.909 206,349.856C224.8,349.801 228.917,349.37 240.667,346.225C268.629,338.741 296.466,321.294 314.125,300.184C335.447,274.695 346.246,246.887 347.595,214C349.089,177.564 338.572,146.007 315.131,116.593C310.955,111.354 308,106.312 308,104.429C308,100.068 313.656,94.667 318.222,94.667C325.745,94.667 344.341,119.722 354.769,143.909C364.743,167.045 368.798,189.592 367.613,215.333C366.44,240.803 360.924,261.621 349.701,282.939C317.146,344.779 249.252,379.208 180.839,368.569ZM198,329.907C191.467,326.517 186.726,321.166 182.604,312.533C175.47,297.59 174.139,288.984 174.066,257.333L174,228.667L177.704,222.366C179.741,218.901 184.241,213.904 187.704,211.263C191.167,208.621 194.399,205.393 194.886,204.089C196.071,200.918 193.569,196.322 188.578,192.5L184.49,189.369L161.912,236.188C145.606,270 138.517,283.382 136.393,284.357C131.78,286.475 126.45,283.42 121.459,275.795C114.511,265.183 111.54,255.557 111.43,243.305C111.345,233.852 111.829,231.608 115.603,223.972C121.406,212.233 134.807,195.866 150.384,181.494C163.452,169.436 185.227,151.531 189.795,149.086C192.047,147.881 191.853,147.479 187.64,144.617C179.014,138.755 176.665,125.933 182.79,118.146L185.279,114.981L178.652,108.782C168.176,98.983 155.299,94.667 136.54,94.667C127.706,94.667 126.165,94.287 123.273,91.394C121.473,89.594 120,87.454 120,86.64C120,84.585 122.762,79.536 124.533,78.354C127.221,76.559 135.617,77.302 144.86,80.152C161.911,85.41 173.819,92.966 182.64,104.125L188.061,110.983L223.492,111.333L227.253,105.56C236.346,91.603 263.49,77.333 280.947,77.333C288.847,77.333 293.29,85.236 288.823,91.345C287.28,93.456 284.513,94.011 271.823,94.756C251.833,95.929 239.615,100.521 230.242,110.382L226.484,114.336L229.242,119.482C234.335,128.984 231.593,139.71 222.687,145.126L218.683,147.561L225.056,151.691C243.252,163.482 280.245,199.131 290.406,214.667C303.903,235.304 303.128,256.013 288.037,277.947C283.341,284.772 278.841,286.628 274.261,283.627C272.263,282.318 263.631,265.928 249.271,236.174C237.205,211.175 226.705,190.709 225.937,190.694C223.72,190.651 214.667,200.547 214.667,203.014C214.667,204.243 217.909,207.644 221.872,210.572C235.919,220.949 237.822,226.347 237.89,256C237.929,272.553 237.351,280.546 235.557,288.285C230.432,310.395 222.629,324.511 212.939,329.201C206.047,332.538 203.317,332.667 198,329.907ZM209.945,303.667C211.667,299.817 213.5,295.237 214.018,293.489C214.935,290.394 214.878,290.367 211.85,292.489C207.976,295.202 204.972,295.238 199.934,292.632C195.416,290.296 195.245,290.857 198.051,298.811C200.51,305.781 203.554,310.667 205.438,310.667C206.195,310.667 208.223,307.517 209.945,303.667ZM213.232,272.731C218.608,269.337 218.667,269.213 218.667,261.269L218.667,253.237L213.691,256.619C207.459,260.853 205.021,260.852 197.784,256.611L192,253.221L192.018,258.944C192.046,267.706 193.021,269.742 199.074,273.672C205.23,277.67 205.429,277.656 213.232,272.731L213.232,272.731ZM137.888,243.667C141.078,236.883 147.659,222.933 152.512,212.667L161.335,194L151.314,204.455C134.767,221.72 129.315,231.495 129.352,243.834C129.37,249.93 130.458,256 131.533,256C131.838,256 134.698,250.45 137.888,243.667ZM281.791,244.408C281.856,236.576 281.251,234.182 277.374,226.926C274.825,222.155 268.078,213.504 261.775,206.926L250.668,195.333L256.523,208C273.413,244.539 279.252,255.948 280.448,254.752C281.146,254.055 281.75,249.4 281.791,244.408ZM211.524,239C214.717,236.983 217.33,234.627 217.331,233.763C217.332,232.9 215.752,230.95 213.82,229.43C208.804,225.485 200.825,225.721 196.606,229.939C194.806,231.739 193.338,233.689 193.343,234.273C193.351,235.202 203.808,242.59 205.194,242.646C205.483,242.658 208.332,241.017 211.524,239ZM212.487,178.57C218.928,173.503 216.219,162.472 208.096,160.688C202.651,159.492 196.445,162.939 195.389,167.745C193.022,178.522 203.841,185.371 212.487,178.57ZM215.75,129C216.142,126.948 215.006,126.667 206.32,126.667C195.825,126.667 194.416,127.129 195.589,130.185C196.157,131.667 198.513,132.021 205.816,131.722C213.609,131.403 215.385,130.916 215.75,129ZM156.776,68.121C153.5,64.501 153.501,57.901 156.777,54.651C162.39,49.085 193.476,44.419 215.307,45.866C233.04,47.041 250.095,50.837 253.659,54.401C257.471,58.213 257.347,65.017 253.407,68.208C249.778,71.146 245.992,71.228 235.332,68.598C221.788,65.256 198.541,64.677 183.999,67.319C162.358,71.251 159.679,71.33 156.775,68.121L156.776,68.121Z" style="fill:white;fill-rule:nonzero;"/>
    </g>
</svg>
