<svg width="24" height="24" viewBox="0 0 24 24" fill="none" xmlns="http://www.w3.org/2000/svg">
<path fill-rule="evenodd" clip-rule="evenodd" d="M15 6C15 6.71867 14.7473 7.37832 14.3259 7.89494C15.7536 7.74565 18.1114 11.0155 19.3279 13.1226C21.232 16.4206 22.0847 18.8572 19.2342 18.6734C17.7606 18.5784 16.203 18.3379 14.9596 16.823C14.7241 19.1928 13.4887 21 12 21C10.4993 21 9.25594 19.1634 9.03494 16.7653C7.78396 18.3318 6.20572 18.5772 4.71358 18.6734C1.86308 18.8572 2.71578 16.4206 4.61989 13.1226C5.8533 10.9863 8.25992 7.65455 9.68085 7.90315C9.25541 7.38532 9.00002 6.72249 9.00002 6C9.00002 4.34315 10.3432 3 12 3C13.6569 3 15 4.34315 15 6ZM12 7C12.5523 7 13 6.55228 13 6C13 5.44772 12.5523 5 12 5C11.4477 5 11 5.44772 11 6C11 6.55228 11.4477 7 12 7ZM12 11.5C12.5 11.5 13.5 11 13.5 10C13.5 9 12.5 8.5 12 8.5C11.5 8.5 10.5 9 10.5 10C10.5 11 11.5 11.5 12 11.5ZM13 16C13 17.0806 12.7331 17.962 12.4064 18.5065C12.2185 18.8196 12.0723 18.9388 12 18.9821C11.9277 18.9388 11.7815 18.8196 11.5937 18.5065C11.2669 17.962 11 17.0806 11 16C11 14.9194 11.2669 14.038 11.5937 13.4935C11.7815 13.1804 11.9277 13.0612 12 13.0179C12.0723 13.0612 12.2185 13.1804 12.4064 13.4935C12.7331 14.038 13 14.9194 13 16ZM15.1809 11.3058C15.2708 12.733 15.6611 14.1976 16.1123 14.9791C16.5692 15.7705 17.0429 16.1191 17.4774 16.3143C17.8615 16.4868 18.3016 16.5795 18.8612 16.6367C18.8132 16.5102 18.7556 16.369 18.6866 16.2123C18.4255 15.6184 18.0556 14.9188 17.5958 14.1226C16.981 13.0576 16.072 11.7108 15.2046 10.7583L15.1622 10.712C15.1617 10.8965 15.1676 11.095 15.1809 11.3058ZM7.8355 14.9791C8.28672 14.1976 8.677 12.733 8.76691 11.3058C8.78019 11.095 8.78607 10.8965 8.7856 10.712L8.74314 10.7583C7.87575 11.7108 6.96683 13.0576 6.35195 14.1226C5.89223 14.9188 5.52233 15.6184 5.26115 16.2123C5.19222 16.369 5.13456 16.5102 5.08661 16.6367C5.64623 16.5795 6.08632 16.4868 6.47038 16.3143C6.90493 16.1191 7.37856 15.7705 7.8355 14.9791Z" fill="black"/>
</svg>
