<svg width="107" height="26" viewBox="0 0 107 26" fill="none" xmlns="http://www.w3.org/2000/svg">
<rect x="46" width="2" height="26" fill="#131F37"/>
<path d="M19.6444 3.10281C19.9511 3.10175 20.2506 3.00985 20.5051 2.83873C20.7596 2.66761 20.9577 2.42495 21.0743 2.14137C21.191 1.85779 21.2209 1.54603 21.1604 1.24544C21.1 0.944852 20.9517 0.668923 20.7345 0.452494C20.5172 0.236065 20.2407 0.0888432 19.9398 0.029418C19.6389 -0.0300072 19.3271 0.00102967 19.0438 0.118609C18.7605 0.236189 18.5185 0.435039 18.3482 0.690048C18.1779 0.945058 18.087 1.24479 18.087 1.5514C18.0872 1.75552 18.1277 1.9576 18.2061 2.14607C18.2846 2.33454 18.3994 2.50571 18.544 2.6498C18.6886 2.79388 18.8603 2.90806 19.0491 2.98579C19.2379 3.06352 19.4402 3.10329 19.6444 3.10281Z" fill="#131F37"/>
<path d="M21.3944 25.016C21.7012 25.0151 22.0009 24.9233 22.2556 24.7523C22.5102 24.5812 22.7084 24.3385 22.8252 24.0548C22.9419 23.7711 22.9719 23.4592 22.9113 23.1585C22.8508 22.8578 22.7025 22.5818 22.4851 22.3654C22.2676 22.1489 21.9909 22.0018 21.6899 21.9425C21.3889 21.8832 21.077 21.9144 20.7937 22.0323C20.5104 22.1501 20.2684 22.3492 20.0983 22.6045C19.9282 22.8597 19.8376 23.1597 19.8379 23.4664C19.8383 23.6703 19.8788 23.8722 19.9572 24.0605C20.0357 24.2487 20.1504 24.4197 20.295 24.5636C20.4395 24.7075 20.611 24.8215 20.7996 24.8992C20.9883 24.9768 21.1904 25.0165 21.3944 25.016Z" fill="#131F37"/>
<path d="M20.0882 6.98132C20.3457 6.98079 20.5973 6.90397 20.8112 6.76056C21.025 6.61716 21.1916 6.4136 21.2897 6.17562C21.3879 5.93764 21.4133 5.67591 21.3628 5.4235C21.3122 5.17109 21.1879 4.93932 21.0056 4.75748C20.8234 4.57564 20.5912 4.45189 20.3386 4.40187C20.086 4.35184 19.8243 4.37779 19.5864 4.47642C19.3485 4.57506 19.1453 4.74196 19.0022 4.95603C18.8592 5.17011 18.7829 5.42176 18.7829 5.67918C18.7834 6.02485 18.9211 6.35619 19.1659 6.60036C19.4107 6.84453 19.7424 6.98156 20.0882 6.98132Z" fill="#131F37"/>
<path d="M23.5621 7.47987C23.8195 7.47916 24.071 7.40218 24.2848 7.25867C24.4985 7.11516 24.6649 6.91154 24.7629 6.67355C24.861 6.43555 24.8863 6.17385 24.8356 5.9215C24.7849 5.66914 24.6606 5.43746 24.4783 5.25571C24.296 5.07397 24.0639 4.95031 23.8113 4.90035C23.5587 4.8504 23.297 4.8764 23.0592 4.97506C22.8213 5.07372 22.6181 5.24062 22.4751 5.45468C22.3322 5.66873 22.2559 5.92034 22.2559 6.17773C22.256 6.349 22.2899 6.51856 22.3556 6.67673C22.4213 6.83489 22.5176 6.97855 22.6389 7.09949C22.7602 7.22043 22.9042 7.31627 23.0626 7.38154C23.221 7.44681 23.3907 7.48022 23.5621 7.47987Z" fill="#131F37"/>
<path d="M19.6444 10.2785C19.8636 10.278 20.0777 10.2125 20.2598 10.0904C20.4418 9.96823 20.5835 9.79489 20.6671 9.59226C20.7506 9.38964 20.7722 9.1668 20.7291 8.95192C20.686 8.73704 20.5801 8.53975 20.4249 8.38497C20.2697 8.23019 20.0721 8.12487 19.857 8.08231C19.642 8.03975 19.4191 8.06186 19.2166 8.14585C19.0141 8.22984 18.8411 8.37194 18.7193 8.5542C18.5976 8.73646 18.5326 8.95071 18.5326 9.16986C18.5326 9.31568 18.5614 9.46007 18.6173 9.59475C18.6732 9.72944 18.7551 9.85178 18.8584 9.95476C18.9617 10.0577 19.0842 10.1394 19.2191 10.1949C19.354 10.2505 19.4985 10.2789 19.6444 10.2785Z" fill="#131F37"/>
<path d="M23.1165 10.7492C23.3355 10.7485 23.5494 10.6829 23.7311 10.5608C23.9129 10.4387 24.0543 10.2655 24.1377 10.063C24.221 9.86062 24.2425 9.63805 24.1994 9.42342C24.1563 9.2088 24.0506 9.01175 23.8956 8.85715C23.7405 8.70255 23.5432 8.59733 23.3283 8.55478C23.1135 8.51222 22.8909 8.53424 22.6886 8.61805C22.4863 8.70187 22.3134 8.84371 22.1917 9.02569C22.07 9.20766 22.0049 9.4216 22.0048 9.64051C22.0049 9.78629 22.0337 9.93063 22.0897 10.0653C22.1456 10.1999 22.2276 10.3222 22.3308 10.4251C22.4341 10.5281 22.5566 10.6097 22.6914 10.6653C22.8262 10.7209 22.9707 10.7494 23.1165 10.7492Z" fill="#131F37"/>
<path d="M25.8945 11.829C26.1136 11.8285 26.3277 11.7631 26.5096 11.641C26.6915 11.5189 26.8331 11.3456 26.9165 11.1431C26.9999 10.9406 27.0214 10.7179 26.9783 10.5032C26.9352 10.2884 26.8293 10.0913 26.6742 9.9367C26.519 9.78208 26.3214 9.67691 26.1065 9.63449C25.8915 9.59207 25.6688 9.61429 25.4665 9.69835C25.2642 9.78241 25.0914 9.92454 24.9698 10.1068C24.8483 10.289 24.7835 10.5032 24.7837 10.7222C24.7839 10.8678 24.8128 11.0119 24.8688 11.1463C24.9248 11.2807 25.0066 11.4028 25.1098 11.5056C25.213 11.6084 25.3353 11.6898 25.47 11.7453C25.6046 11.8008 25.7489 11.8293 25.8945 11.829Z" fill="#131F37"/>
<path d="M22.0884 13.4083C22.2803 13.408 22.4678 13.3508 22.6272 13.2439C22.7865 13.1371 22.9106 12.9854 22.9838 12.808C23.0569 12.6307 23.0758 12.4356 23.0381 12.2476C23.0004 12.0595 22.9077 11.8868 22.7719 11.7513C22.636 11.6159 22.463 11.5238 22.2747 11.4866C22.0865 11.4494 21.8914 11.4688 21.7142 11.5424C21.537 11.6161 21.3856 11.7405 21.2792 11.9001C21.1727 12.0598 21.116 12.2473 21.1162 12.4391C21.1167 12.6965 21.2193 12.9432 21.4016 13.1249C21.5839 13.3066 21.831 13.4086 22.0884 13.4083Z" fill="#131F37"/>
<path d="M18.6155 12.9377C18.8074 12.9375 18.995 12.8804 19.1545 12.7737C19.314 12.667 19.4382 12.5153 19.5115 12.338C19.5848 12.1607 19.6038 11.9656 19.5662 11.7775C19.5286 11.5893 19.436 11.4166 19.3002 11.281C19.1643 11.1455 18.9913 11.0532 18.803 11.016C18.6148 10.9787 18.4196 10.9981 18.2424 11.0717C18.0651 11.1453 17.9137 11.2698 17.8072 11.4294C17.7007 11.589 17.644 11.7766 17.6442 11.9685C17.6446 12.2257 17.7472 12.4722 17.9293 12.6539C18.1114 12.8356 18.3582 12.9377 18.6155 12.9377Z" fill="#131F37"/>
<path d="M24.8943 14.4891C25.0862 14.4887 25.2736 14.4315 25.433 14.3247C25.5923 14.2179 25.7164 14.0663 25.7896 13.889C25.8628 13.7117 25.8818 13.5167 25.8441 13.3287C25.8065 13.1406 25.7139 12.9679 25.5781 12.8324C25.4423 12.6969 25.2694 12.6047 25.0812 12.5674C24.893 12.5302 24.698 12.5495 24.5208 12.623C24.3435 12.6964 24.1921 12.8208 24.0855 12.9803C23.979 13.1397 23.9221 13.3272 23.9221 13.519C23.9222 13.6465 23.9475 13.7728 23.9964 13.8905C24.0453 14.0083 24.117 14.1153 24.2073 14.2053C24.2975 14.2954 24.4047 14.3668 24.5226 14.4155C24.6405 14.4642 24.7668 14.4892 24.8943 14.4891Z" fill="#131F37"/>
<path d="M20.6994 15.4313C20.8639 15.4309 21.0245 15.3819 21.1611 15.2903C21.2976 15.1987 21.404 15.0687 21.4666 14.9167C21.5293 14.7648 21.5455 14.5976 21.5132 14.4365C21.4809 14.2753 21.4016 14.1273 21.2852 14.0112C21.1688 13.8951 21.0206 13.8161 20.8593 13.7841C20.698 13.7522 20.5308 13.7688 20.3789 13.8317C20.227 13.8947 20.0972 14.0013 20.0059 14.138C19.9146 14.2747 19.8658 14.4354 19.8658 14.5998C19.8663 14.8205 19.9544 15.032 20.1106 15.1878C20.2669 15.3437 20.4787 15.4313 20.6994 15.4313Z" fill="#131F37"/>
<path d="M23.509 16.4842C23.6735 16.484 23.8342 16.4351 23.9709 16.3436C24.1075 16.2521 24.214 16.1222 24.2768 15.9702C24.3397 15.8183 24.356 15.6511 24.3238 15.4899C24.2916 15.3287 24.2123 15.1806 24.0959 15.0644C23.9796 14.9482 23.8314 14.8691 23.67 14.8371C23.5087 14.8051 23.3415 14.8216 23.1896 14.8845C23.0376 14.9475 22.9078 15.0541 22.8164 15.1908C22.7251 15.3275 22.6763 15.4883 22.6763 15.6527C22.6768 15.8732 22.7647 16.0846 22.9208 16.2404C23.0769 16.3963 23.2884 16.4839 23.509 16.4842Z" fill="#131F37"/>
<path d="M17.2543 14.9319C17.4187 14.9315 17.5794 14.8824 17.7159 14.7908C17.8525 14.6993 17.9588 14.5693 18.0215 14.4173C18.0842 14.2653 18.1004 14.0982 18.0681 13.937C18.0358 13.7759 17.9564 13.6279 17.84 13.5118C17.7236 13.3957 17.5754 13.3166 17.4141 13.2847C17.2528 13.2528 17.0857 13.2693 16.9338 13.3323C16.7819 13.3953 16.6521 13.5019 16.5608 13.6386C16.4695 13.7753 16.4207 13.936 16.4207 14.1004C16.4207 14.2097 16.4423 14.318 16.4842 14.419C16.5261 14.52 16.5875 14.6117 16.665 14.689C16.7424 14.7662 16.8343 14.8274 16.9354 14.8691C17.0366 14.9108 17.1449 14.9321 17.2543 14.9319Z" fill="#131F37"/>
<path d="M19.1718 16.7883C19.3088 16.788 19.4427 16.747 19.5564 16.6707C19.6702 16.5943 19.7587 16.486 19.8109 16.3593C19.8631 16.2327 19.8766 16.0934 19.8496 15.9591C19.8227 15.8248 19.7565 15.7015 19.6595 15.6048C19.5625 15.5081 19.439 15.4423 19.3046 15.4157C19.1702 15.3891 19.0309 15.4029 18.9043 15.4554C18.7778 15.5079 18.6696 15.5967 18.5935 15.7106C18.5174 15.8245 18.4768 15.9584 18.4768 16.0954C18.477 16.1865 18.495 16.2767 18.53 16.3609C18.565 16.445 18.6162 16.5214 18.6808 16.5857C18.7453 16.6501 18.8219 16.7011 18.9061 16.7359C18.9904 16.7706 19.0807 16.7884 19.1718 16.7883Z" fill="#131F37"/>
<path d="M20.3655 18.697C20.486 18.6968 20.6037 18.6609 20.7038 18.5939C20.804 18.5268 20.8819 18.4316 20.9279 18.3203C20.9739 18.209 20.9858 18.0865 20.9622 17.9684C20.9386 17.8502 20.8805 17.7418 20.7952 17.6567C20.71 17.5716 20.6014 17.5136 20.4832 17.4902C20.365 17.4668 20.2425 17.4789 20.1312 17.525C20.0199 17.5711 19.9247 17.6492 19.8578 17.7494C19.7909 17.8496 19.7552 17.9673 19.7552 18.0878C19.7552 18.1679 19.771 18.2471 19.8016 18.3211C19.8323 18.3951 19.8773 18.4623 19.934 18.5189C19.9907 18.5755 20.058 18.6203 20.132 18.6509C20.206 18.6814 20.2854 18.6971 20.3655 18.697Z" fill="#131F37"/>
<path d="M18.8936 19.0884C18.9924 19.0884 19.089 19.0591 19.1711 19.0043C19.2533 18.9494 19.3173 18.8714 19.3552 18.7801C19.393 18.6889 19.4029 18.5884 19.3836 18.4916C19.3643 18.3947 19.3167 18.3057 19.2469 18.2358C19.177 18.166 19.088 18.1184 18.991 18.0992C18.8941 18.0799 18.7937 18.0898 18.7024 18.1276C18.6111 18.1654 18.5331 18.2294 18.4782 18.3115C18.4233 18.3937 18.394 18.4902 18.394 18.589C18.3944 18.7213 18.4472 18.8481 18.5408 18.9416C18.6344 19.0352 18.7612 19.088 18.8936 19.0884Z" fill="#131F37"/>
<path d="M17.5875 17.6468C17.708 17.6465 17.8256 17.6104 17.9256 17.5433C18.0256 17.4761 18.1034 17.3808 18.1493 17.2695C18.1951 17.1581 18.2069 17.0357 18.1832 16.9176C18.1595 16.7996 18.1013 16.6912 18.016 16.6062C17.9307 16.5212 17.8221 16.4633 17.7039 16.44C17.5858 16.4166 17.4633 16.4288 17.3521 16.4749C17.2408 16.5211 17.1457 16.5992 17.0788 16.6993C17.012 16.7995 16.9763 16.9172 16.9763 17.0376C16.9763 17.1178 16.9921 17.1971 17.0228 17.2712C17.0536 17.3452 17.0986 17.4124 17.1554 17.469C17.2122 17.5256 17.2796 17.5705 17.3537 17.601C17.4279 17.6315 17.5073 17.6471 17.5875 17.6468Z" fill="#131F37"/>
<path d="M15.6987 16.3177C15.8358 16.3173 15.9696 16.2764 16.0834 16.2C16.1971 16.1237 16.2857 16.0153 16.3379 15.8887C16.39 15.762 16.4035 15.6228 16.3766 15.4885C16.3496 15.3542 16.2835 15.2309 16.1864 15.1342C16.0894 15.0374 15.9659 14.9716 15.8315 14.945C15.6971 14.9184 15.5578 14.9323 15.4313 14.9848C15.3047 15.0373 15.1966 15.1261 15.1205 15.24C15.0444 15.3539 15.0038 15.4878 15.0038 15.6248C15.0039 15.7159 15.022 15.8061 15.057 15.8902C15.092 15.9743 15.1432 16.0508 15.2077 16.1151C15.2722 16.1794 15.3488 16.2305 15.4331 16.2652C15.5173 16.3 15.6076 16.3178 15.6987 16.3177Z" fill="#131F37"/>
<path d="M15.6709 11.1091C15.808 11.1088 15.9418 11.0678 16.0556 10.9915C16.1693 10.9151 16.2579 10.8068 16.3101 10.6801C16.3622 10.5535 16.3757 10.4142 16.3488 10.2799C16.3218 10.1456 16.2557 10.0223 16.1587 9.92561C16.0616 9.82889 15.9381 9.76307 15.8037 9.73648C15.6693 9.70989 15.53 9.72372 15.4035 9.77621C15.2769 9.82871 15.1688 9.91752 15.0927 10.0314C15.0166 10.1453 14.976 10.2792 14.976 10.4162C14.9761 10.5073 14.9942 10.5975 15.0292 10.6817C15.0641 10.7658 15.1154 10.8422 15.1799 10.9065C15.2444 10.9709 15.321 11.0219 15.4053 11.0567C15.4895 11.0914 15.5798 11.1092 15.6709 11.1091Z" fill="#131F37"/>
<path d="M15.976 8.67132C16.0967 8.67114 16.2147 8.63518 16.3149 8.56799C16.4152 8.5008 16.4933 8.4054 16.5393 8.29384C16.5854 8.18229 16.5973 8.0596 16.5735 7.94128C16.5498 7.82296 16.4915 7.71433 16.406 7.62913C16.3205 7.54393 16.2117 7.48598 16.0933 7.46261C15.9748 7.43925 15.8521 7.45151 15.7407 7.49785C15.6292 7.5442 15.534 7.62254 15.4671 7.72297C15.4002 7.82341 15.3646 7.94142 15.3647 8.06209C15.3652 8.22383 15.4298 8.37879 15.5444 8.49299C15.659 8.60719 15.8142 8.67132 15.976 8.67132Z" fill="#131F37"/>
<path d="M16.643 6.67717C16.7418 6.67717 16.8384 6.64788 16.9206 6.593C17.0028 6.53813 17.0668 6.46012 17.1046 6.36886C17.1424 6.2776 17.1523 6.17718 17.133 6.0803C17.1138 5.98342 17.0662 5.89443 16.9963 5.82458C16.9264 5.75473 16.8374 5.70717 16.7405 5.6879C16.6436 5.66862 16.5431 5.67852 16.4518 5.71632C16.3605 5.75412 16.2825 5.81813 16.2276 5.90026C16.1727 5.9824 16.1434 6.07896 16.1434 6.17774C16.1439 6.31005 16.1967 6.43681 16.2903 6.53037C16.3839 6.62393 16.5107 6.6767 16.643 6.67717Z" fill="#131F37"/>
<path d="M15.4756 5.73858C15.5961 5.7384 15.7138 5.70252 15.814 5.63547C15.9141 5.56842 15.992 5.47321 16.038 5.36187C16.084 5.25053 16.0959 5.12807 16.0723 5.00995C16.0487 4.89183 15.9906 4.78336 15.9053 4.69825C15.8201 4.61314 15.7115 4.5552 15.5933 4.53177C15.4751 4.50833 15.3526 4.52045 15.2413 4.56659C15.13 4.61273 15.0348 4.69081 14.9679 4.79098C14.901 4.89115 14.8653 5.0089 14.8653 5.12935C14.8653 5.20943 14.8811 5.28873 14.9117 5.3627C14.9424 5.43667 14.9874 5.50387 15.0441 5.56046C15.1008 5.61704 15.1681 5.6619 15.2421 5.69246C15.3162 5.72302 15.3955 5.7387 15.4756 5.73858Z" fill="#131F37"/>
<path d="M21.9498 17.8412C22.0868 17.8408 22.2207 17.7999 22.3344 17.7235C22.4482 17.6472 22.5367 17.5388 22.5889 17.4122C22.6411 17.2856 22.6546 17.1463 22.6276 17.012C22.6007 16.8777 22.5345 16.7544 22.4375 16.6577C22.3405 16.561 22.217 16.4951 22.0826 16.4686C21.9482 16.442 21.8089 16.4558 21.6823 16.5083C21.5558 16.5608 21.4476 16.6496 21.3715 16.7635C21.2955 16.8774 21.2549 17.0113 21.2549 17.1483C21.255 17.2394 21.273 17.3296 21.308 17.4137C21.343 17.4979 21.3942 17.5743 21.4588 17.6386C21.5233 17.703 21.5999 17.754 21.6841 17.7887C21.7684 17.8235 21.8587 17.8413 21.9498 17.8412Z" fill="#131F37"/>
<path d="M13.893 4.92869C14.03 4.92815 14.1637 4.88706 14.2773 4.8106C14.391 4.73414 14.4794 4.62573 14.5314 4.49907C14.5835 4.37242 14.5968 4.23318 14.5698 4.09894C14.5427 3.96471 14.4765 3.8415 14.3795 3.74486C14.2824 3.64822 14.1589 3.5825 14.0245 3.55598C13.8901 3.52946 13.7509 3.54334 13.6244 3.59586C13.4979 3.64839 13.3898 3.7372 13.3137 3.85109C13.2377 3.96498 13.1971 4.09884 13.1971 4.23577C13.1972 4.32696 13.2153 4.41723 13.2504 4.50142C13.2854 4.58562 13.3367 4.66207 13.4014 4.72643C13.466 4.79078 13.5427 4.84177 13.627 4.87648C13.7114 4.91118 13.8018 4.92892 13.893 4.92869Z" fill="#131F37"/>
<path d="M14.3647 7.86863C14.5017 7.86828 14.6356 7.82734 14.7493 7.75098C14.8631 7.67463 14.9516 7.56629 15.0038 7.43964C15.056 7.313 15.0695 7.17373 15.0425 7.03944C15.0156 6.90514 14.9494 6.78185 14.8524 6.68512C14.7554 6.58839 14.6319 6.52258 14.4975 6.49599C14.3631 6.4694 14.2238 6.48322 14.0972 6.53572C13.9707 6.58822 13.8625 6.67703 13.7864 6.79094C13.7103 6.90485 13.6697 7.03875 13.6697 7.17572C13.6699 7.26683 13.6879 7.35703 13.7229 7.44116C13.7579 7.52529 13.8091 7.60171 13.8737 7.66606C13.9382 7.7304 14.0148 7.78141 14.099 7.81617C14.1833 7.85092 14.2736 7.86875 14.3647 7.86863Z" fill="#131F37"/>
<path d="M13.5868 10.6655C13.7511 10.6651 13.9116 10.6161 14.048 10.5246C14.1844 10.4331 14.2906 10.3033 14.3532 10.1515C14.4158 9.99968 14.432 9.83273 14.3998 9.67173C14.3675 9.51073 14.2882 9.3629 14.1719 9.24691C14.0557 9.13093 13.9076 9.052 13.7465 9.0201C13.5854 8.9882 13.4184 9.00475 13.2667 9.06767C13.1149 9.13059 12.9853 9.23705 12.8941 9.3736C12.8028 9.51015 12.7542 9.67067 12.7542 9.83487C12.7546 10.0553 12.8426 10.2666 12.9987 10.4223C13.1548 10.578 13.3663 10.6655 13.5868 10.6655Z" fill="#131F37"/>
<path d="M11.0582 10.6655C11.2501 10.6651 11.4377 10.6079 11.5971 10.5009C11.7565 10.394 11.8806 10.2422 11.9537 10.0648C12.0268 9.88731 12.0456 9.69217 12.0077 9.50404C11.9699 9.31591 11.877 9.14323 11.741 9.00785C11.6049 8.87247 11.4317 8.78047 11.2434 8.74349C11.055 8.70651 10.8599 8.72621 10.6827 8.8001C10.5055 8.87399 10.3543 8.99875 10.248 9.1586C10.1418 9.31844 10.0854 9.50619 10.0859 9.69809C10.0867 9.95522 10.1895 10.2015 10.3718 10.3829C10.5541 10.5643 10.8009 10.666 11.0582 10.6655Z" fill="#131F37"/>
<path d="M8.11542 11.3314C8.33466 11.3309 8.54882 11.2654 8.73085 11.1432C8.91288 11.0211 9.05461 10.8478 9.13814 10.6451C9.22166 10.4425 9.24324 10.2197 9.20014 10.0048C9.15705 9.78991 9.05121 9.59262 8.896 9.43784C8.74078 9.28306 8.54316 9.17774 8.3281 9.13518C8.11304 9.09262 7.89018 9.11473 7.68768 9.19872C7.48519 9.28272 7.31213 9.42482 7.19039 9.60708C7.06864 9.78934 7.00366 10.0036 7.00366 10.2227C7.00414 10.5171 7.12151 10.7992 7.32998 11.0071C7.53845 11.215 7.82096 11.3316 8.11542 11.3314Z" fill="#131F37"/>
<path d="M4.88996 12.9098C5.14748 12.9093 5.39906 12.8324 5.61291 12.689C5.82677 12.5456 5.99331 12.3421 6.09148 12.1041C6.18966 11.8661 6.21507 11.6044 6.16451 11.352C6.11394 11.0996 5.98967 10.8678 5.80739 10.6859C5.62511 10.5041 5.393 10.3804 5.14039 10.3303C4.88779 10.2803 4.62602 10.3063 4.38815 10.4049C4.15029 10.5035 3.94701 10.6704 3.804 10.8845C3.66099 11.0986 3.58466 11.3502 3.58466 11.6076C3.58513 11.9533 3.7229 12.2847 3.96766 12.5288C4.21243 12.773 4.54417 12.91 4.88996 12.9098Z" fill="#131F37"/>
<path d="M1.55646 15.5699C1.86318 15.569 2.16276 15.4773 2.41736 15.3063C2.67197 15.1353 2.87019 14.8928 2.98699 14.6093C3.10379 14.3257 3.13394 14.014 3.07362 13.7134C3.0133 13.4128 2.86523 13.1367 2.64809 12.9202C2.43096 12.7036 2.1545 12.5562 1.85364 12.4966C1.55277 12.437 1.24098 12.4679 0.95764 12.5853C0.674302 12.7027 0.432122 12.9014 0.26168 13.1564C0.0912382 13.4113 0.000179201 13.711 0 14.0176C0.000236298 14.2216 0.0406828 14.4237 0.11903 14.6122C0.197378 14.8006 0.312092 14.9718 0.456623 15.116C0.601154 15.2601 0.772671 15.3744 0.961382 15.4523C1.15009 15.5301 1.3523 15.5701 1.55646 15.5699Z" fill="#131F37"/>
<path d="M3.58462 9.66839C3.84209 9.66768 4.09358 9.59071 4.30732 9.4472C4.52106 9.30368 4.68746 9.10007 4.7855 8.86207C4.88354 8.62407 4.90882 8.36237 4.85815 8.11002C4.80749 7.85767 4.68314 7.62598 4.50083 7.44424C4.31851 7.26249 4.0864 7.13883 3.83382 7.08888C3.58124 7.03892 3.31951 7.06492 3.0817 7.16358C2.84389 7.26224 2.64067 7.42914 2.49769 7.6432C2.35472 7.85726 2.27841 8.10887 2.27841 8.36625C2.27853 8.53752 2.31242 8.70709 2.37815 8.86525C2.44388 9.02342 2.54016 9.16708 2.66147 9.28802C2.78279 9.40895 2.92676 9.5048 3.08517 9.57007C3.24357 9.63534 3.41329 9.66875 3.58462 9.66839Z" fill="#131F37"/>
<path d="M6.80652 8.09001C7.02584 8.08983 7.24017 8.02466 7.42244 7.90273C7.60471 7.7808 7.74671 7.60759 7.83052 7.40499C7.91432 7.20239 7.93616 6.9795 7.89326 6.7645C7.85037 6.5495 7.74467 6.35204 7.58953 6.19708C7.43439 6.04212 7.23677 5.93662 7.02166 5.89392C6.80655 5.85121 6.5836 5.87322 6.381 5.95716C6.17839 6.0411 6.00524 6.1832 5.88341 6.3655C5.76159 6.5478 5.69656 6.76211 5.69656 6.98135C5.6968 7.27546 5.81385 7.55745 6.02198 7.76534C6.23011 7.97323 6.5123 8.09001 6.80652 8.09001Z" fill="#131F37"/>
<path d="M6.3348 5.15275C6.55411 5.15239 6.7684 5.08705 6.95057 4.96497C7.13273 4.84289 7.2746 4.66956 7.35824 4.4669C7.44188 4.26423 7.46354 4.04133 7.42047 3.82636C7.3774 3.6114 7.27154 3.41403 7.11627 3.25919C6.961 3.10436 6.7633 2.99902 6.54815 2.95649C6.33301 2.91396 6.11008 2.93615 5.90754 3.02025C5.70501 3.10435 5.53196 3.24659 5.41029 3.42899C5.28861 3.61139 5.22376 3.82575 5.22394 4.04499C5.22442 4.3391 5.34169 4.621 5.54999 4.82872C5.75829 5.03644 6.04058 5.15299 6.3348 5.15275Z" fill="#131F37"/>
<path d="M9.2802 4.48773C9.4718 4.48702 9.65889 4.42958 9.81785 4.32265C9.97682 4.21572 10.1005 4.06411 10.1734 3.88695C10.2462 3.7098 10.2649 3.51504 10.2271 3.32728C10.1892 3.13951 10.0966 2.96716 9.96088 2.83197C9.82515 2.69679 9.65239 2.60484 9.46442 2.56774C9.27645 2.53063 9.08169 2.55004 8.90475 2.62349C8.7278 2.69695 8.57659 2.82118 8.47021 2.98048C8.36384 3.13978 8.30707 3.32702 8.30707 3.51855C8.30719 3.6461 8.33246 3.77237 8.38145 3.89013C8.43044 4.0079 8.50218 4.11486 8.59257 4.20488C8.68296 4.2949 8.79022 4.36622 8.90821 4.41475C9.0262 4.46329 9.15261 4.48809 9.2802 4.48773Z" fill="#131F37"/>
<path d="M11.8063 4.48775C11.9705 4.48739 12.131 4.43838 12.2674 4.34689C12.4038 4.25541 12.51 4.12556 12.5726 3.97376C12.6352 3.82196 12.6514 3.65501 12.6192 3.49401C12.5869 3.33301 12.5076 3.18518 12.3914 3.06919C12.2751 2.95321 12.127 2.87429 11.9659 2.84238C11.8048 2.81048 11.6378 2.82703 11.4861 2.88995C11.3344 2.95287 11.2047 3.05933 11.1135 3.19588C11.0223 3.33243 10.9736 3.49295 10.9736 3.65715C10.974 3.8776 11.062 4.08887 11.2181 4.24458C11.3742 4.4003 11.5857 4.48775 11.8063 4.48775Z" fill="#131F37"/>
<path d="M12.2807 7.42407C12.4449 7.42336 12.6052 7.37404 12.7413 7.28234C12.8775 7.19064 12.9834 7.06067 13.0458 6.90884C13.1081 6.75701 13.124 6.59012 13.0916 6.42923C13.0591 6.26835 12.9797 6.12069 12.8634 6.00489C12.747 5.88909 12.599 5.81034 12.4379 5.77858C12.2768 5.74682 12.1099 5.76348 11.9583 5.82645C11.8067 5.88942 11.6771 5.99588 11.586 6.13239C11.4948 6.2689 11.4462 6.42935 11.4462 6.59347C11.4464 6.70278 11.4682 6.81098 11.5103 6.91188C11.5523 7.01278 11.6139 7.10441 11.6914 7.18154C11.7689 7.25866 11.8608 7.31978 11.9619 7.36139C12.063 7.40301 12.1713 7.4243 12.2807 7.42407Z" fill="#131F37"/>
<path d="M9.75285 7.44838C9.94471 7.44785 10.1321 7.39048 10.2913 7.28352C10.4506 7.17656 10.5746 7.02482 10.6476 6.84746C10.7206 6.6701 10.7394 6.47509 10.7015 6.28707C10.6637 6.09904 10.571 5.92645 10.4351 5.79108C10.2992 5.65572 10.1262 5.56367 9.93793 5.52656C9.7497 5.48945 9.55469 5.50894 9.37754 5.58258C9.20039 5.65622 9.04905 5.7807 8.94265 5.94029C8.83624 6.09988 8.77955 6.28741 8.77972 6.4792C8.77996 6.60671 8.80532 6.73293 8.85435 6.85064C8.90338 6.96836 8.97513 7.07526 9.06549 7.16526C9.15585 7.25526 9.26307 7.32658 9.38101 7.37516C9.49894 7.42374 9.6253 7.44862 9.75285 7.44838Z" fill="#131F37"/>
<path d="M7.00186 14.8212C7.10042 14.8208 7.19666 14.7913 7.27844 14.7363C7.36021 14.6813 7.42386 14.6033 7.46133 14.5122C7.4988 14.421 7.50842 14.3208 7.48897 14.2243C7.46953 14.1277 7.42188 14.039 7.35207 13.9695C7.28225 13.8999 7.19339 13.8526 7.09669 13.8335C7 13.8144 6.89982 13.8244 6.8088 13.8622C6.71777 13.9 6.63999 13.9639 6.58527 14.0458C6.53055 14.1278 6.50134 14.2241 6.50134 14.3226C6.50146 14.3882 6.5145 14.4531 6.53972 14.5137C6.56494 14.5742 6.60184 14.6292 6.64831 14.6755C6.69479 14.7218 6.74993 14.7585 6.81059 14.7835C6.87126 14.8085 6.93625 14.8213 7.00186 14.8212Z" fill="#131F37"/>
<path d="M9.00307 14.5719C9.12349 14.5714 9.24106 14.5352 9.34092 14.4679C9.44079 14.4006 9.51848 14.3053 9.5642 14.1939C9.60991 14.0826 9.6216 13.9602 9.59778 13.8422C9.57396 13.7242 9.5157 13.6159 9.43036 13.5309C9.34502 13.446 9.23643 13.3883 9.11828 13.365C9.00013 13.3417 8.87773 13.3539 8.76653 13.4001C8.65533 13.4463 8.5603 13.5244 8.49346 13.6245C8.42661 13.7246 8.39093 13.8423 8.39093 13.9627C8.39141 14.1246 8.45614 14.2797 8.57091 14.3939C8.68569 14.5081 8.84112 14.5721 9.00307 14.5719Z" fill="#131F37"/>
<path d="M11.1968 13.7413C11.3339 13.7411 11.4678 13.7003 11.5817 13.624C11.6956 13.5477 11.7843 13.4394 11.8366 13.3127C11.8889 13.186 11.9025 13.0467 11.8755 12.9123C11.8486 12.7779 11.7824 12.6546 11.6854 12.5578C11.5883 12.461 11.4647 12.3952 11.3302 12.3686C11.1957 12.342 11.0564 12.3559 10.9298 12.4086C10.8032 12.4612 10.6951 12.5501 10.619 12.6642C10.543 12.7782 10.5025 12.9122 10.5027 13.0493C10.5028 13.1403 10.5209 13.2304 10.5558 13.3144C10.5908 13.3984 10.6419 13.4747 10.7064 13.539C10.7708 13.6032 10.8473 13.6542 10.9314 13.6889C11.0156 13.7236 11.1058 13.7414 11.1968 13.7413Z" fill="#131F37"/>
<path d="M11.7252 15.9568C11.8894 15.9563 12.0498 15.9071 12.1861 15.8155C12.3224 15.7239 12.4285 15.594 12.4909 15.4422C12.5534 15.2904 12.5695 15.1235 12.5371 14.9625C12.5048 14.8016 12.4254 14.6538 12.3091 14.5379C12.1928 14.4221 12.0447 14.3432 11.8836 14.3114C11.7225 14.2796 11.5556 14.2962 11.4039 14.3591C11.2523 14.4221 11.1227 14.5285 11.0315 14.665C10.9403 14.8016 10.8916 14.9621 10.8916 15.1262C10.8918 15.2355 10.9134 15.3437 10.9554 15.4446C10.9973 15.5455 11.0588 15.6371 11.1362 15.7142C11.2136 15.7914 11.3055 15.8525 11.4066 15.8941C11.5076 15.9358 11.6159 15.9571 11.7252 15.9568Z" fill="#131F37"/>
<path d="M9.05795 16.4833C9.19501 16.4831 9.32893 16.4423 9.44281 16.3661C9.55668 16.2898 9.64538 16.1815 9.69771 16.0549C9.75004 15.9283 9.76363 15.789 9.73679 15.6546C9.70994 15.5203 9.64385 15.3969 9.54687 15.3001C9.4499 15.2033 9.32639 15.1374 9.19195 15.1107C9.05752 15.084 8.91819 15.0978 8.79158 15.1503C8.66498 15.2027 8.55677 15.2916 8.48065 15.4055C8.40452 15.5194 8.36389 15.6534 8.36389 15.7904C8.36413 15.9742 8.43736 16.1505 8.56749 16.2804C8.69763 16.4103 8.87403 16.4833 9.05795 16.4833Z" fill="#131F37"/>
<path d="M6.69576 16.4563C6.81648 16.4563 6.93448 16.4205 7.03485 16.3534C7.13522 16.2864 7.21345 16.1911 7.25964 16.0796C7.30584 15.9681 7.31793 15.8455 7.29438 15.7271C7.27083 15.6088 7.2127 15.5 7.12734 15.4147C7.04198 15.3294 6.93323 15.2713 6.81483 15.2477C6.69644 15.2242 6.57372 15.2363 6.46219 15.2825C6.35067 15.3286 6.25534 15.4068 6.18828 15.5072C6.12121 15.6075 6.08542 15.7255 6.08542 15.8461C6.08566 16.0079 6.15004 16.1629 6.26445 16.2773C6.37886 16.3917 6.53396 16.456 6.69576 16.4563Z" fill="#131F37"/>
<path d="M6.72368 18.3676C6.8607 18.3673 6.99454 18.3263 7.10829 18.25C7.22204 18.1736 7.3106 18.0653 7.36279 17.9386C7.41498 17.812 7.42845 17.6727 7.4015 17.5384C7.37455 17.4041 7.30839 17.2808 7.21138 17.1841C7.11437 17.0874 6.99086 17.0216 6.85645 16.995C6.72204 16.9684 6.58276 16.9822 6.4562 17.0347C6.32965 17.0872 6.2215 17.176 6.14541 17.2899C6.06932 17.4038 6.02872 17.5377 6.02872 17.6747C6.02884 17.7658 6.0469 17.856 6.08189 17.9402C6.11688 18.0243 6.1681 18.1007 6.23264 18.165C6.29717 18.2294 6.37375 18.2804 6.458 18.3152C6.54226 18.3499 6.63253 18.3677 6.72368 18.3676Z" fill="#131F37"/>
<path d="M9.55572 18.7276C9.72019 18.7274 9.88092 18.6785 10.0176 18.587C10.1543 18.4955 10.2607 18.3656 10.3235 18.2137C10.3864 18.0617 10.4027 17.8946 10.3705 17.7333C10.3383 17.5721 10.259 17.424 10.1427 17.3078C10.0263 17.1916 9.87809 17.1125 9.71676 17.0805C9.55543 17.0485 9.38823 17.065 9.23629 17.128C9.08436 17.1909 8.9545 17.2975 8.86314 17.4342C8.77178 17.5709 8.72302 17.7317 8.72302 17.8961C8.72326 18.1167 8.8111 18.3282 8.96723 18.4841C9.12337 18.64 9.33503 18.7276 9.55572 18.7276Z" fill="#131F37"/>
<path d="M12.8649 18.3677C13.0569 18.368 13.2447 18.3114 13.4046 18.205C13.5644 18.0987 13.689 17.9473 13.7628 17.7701C13.8365 17.5928 13.856 17.3977 13.8187 17.2094C13.7815 17.0211 13.6892 16.8481 13.5536 16.7123C13.4179 16.5764 13.245 16.4838 13.0567 16.4463C12.8684 16.4087 12.6732 16.4278 12.4958 16.5012C12.3184 16.5745 12.1667 16.6989 12.06 16.8584C11.9533 17.018 11.8963 17.2056 11.8963 17.3976C11.8965 17.6545 11.9986 17.9008 12.1802 18.0826C12.3617 18.2644 12.6079 18.3669 12.8649 18.3677Z" fill="#131F37"/>
<path d="M14.8094 20.7775C15.0286 20.7768 15.2428 20.7112 15.4247 20.5889C15.6066 20.4666 15.7482 20.2931 15.8316 20.0904C15.9149 19.8877 15.9363 19.6649 15.8931 19.4501C15.8498 19.2352 15.7438 19.038 15.5884 18.8833C15.4331 18.7287 15.2354 18.6235 15.0203 18.5811C14.8052 18.5388 14.5824 18.5611 14.3799 18.6452C14.1775 18.7294 14.0046 18.8716 13.883 19.054C13.7614 19.2363 13.6966 19.4506 13.6967 19.6698C13.697 19.8156 13.726 19.9599 13.782 20.0945C13.8381 20.229 13.9201 20.3513 14.0234 20.4541C14.1268 20.557 14.2494 20.6385 14.3842 20.694C14.5191 20.7495 14.6636 20.7779 14.8094 20.7775Z" fill="#131F37"/>
<path d="M10.726 21.1096C10.9177 21.1091 11.105 21.0518 11.2642 20.945C11.4233 20.8382 11.5473 20.6866 11.6204 20.5095C11.6935 20.3323 11.7125 20.1375 11.675 19.9496C11.6374 19.7617 11.5451 19.5891 11.4095 19.4536C11.274 19.3181 11.1013 19.2257 10.9133 19.1882C10.7253 19.1507 10.5304 19.1697 10.3532 19.2428C10.176 19.3158 10.0244 19.4398 9.91757 19.5989C9.81074 19.758 9.75344 19.9452 9.7529 20.1368C9.75266 20.2646 9.77767 20.3912 9.82649 20.5094C9.87531 20.6275 9.94698 20.7348 10.0374 20.8252C10.1278 20.9156 10.2352 20.9872 10.3533 21.036C10.4715 21.0848 10.5982 21.1098 10.726 21.1096Z" fill="#131F37"/>
<path d="M8.41873 22.994C8.6107 22.9936 8.79826 22.9364 8.95766 22.8294C9.11707 22.7225 9.24117 22.5707 9.31426 22.3933C9.38736 22.2158 9.40616 22.0207 9.36829 21.8325C9.33042 21.6444 9.23759 21.4717 9.10153 21.3364C8.96547 21.201 8.7923 21.109 8.60393 21.072C8.41556 21.035 8.22045 21.0547 8.04328 21.1286C7.86611 21.2025 7.71484 21.3273 7.60861 21.4871C7.50239 21.6469 7.44597 21.8347 7.44651 22.0266C7.44746 22.2836 7.55034 22.5298 7.73259 22.7112C7.91484 22.8925 8.16159 22.9942 8.41873 22.994Z" fill="#131F37"/>
<path d="M10.3363 25.4318C10.5556 25.4312 10.7697 25.3657 10.9518 25.2436C11.1338 25.1214 11.2756 24.948 11.3591 24.7453C11.4426 24.5426 11.4641 24.3197 11.4209 24.1048C11.3778 23.8899 11.2718 23.6926 11.1165 23.5379C10.9612 23.3832 10.7635 23.2779 10.5484 23.2354C10.3333 23.193 10.1104 23.2152 9.90791 23.2994C9.70543 23.3835 9.53244 23.5257 9.4108 23.7081C9.28917 23.8905 9.22434 24.1048 9.22452 24.324C9.22464 24.4698 9.2535 24.614 9.30946 24.7486C9.36541 24.8832 9.44737 25.0054 9.55063 25.1083C9.65389 25.2112 9.77643 25.2927 9.91124 25.3482C10.046 25.4038 10.1905 25.4321 10.3363 25.4318Z" fill="#131F37"/>
<path d="M15.4486 25.8754C15.7062 25.8756 15.9582 25.7994 16.1725 25.6564C16.3868 25.5134 16.5539 25.3101 16.6526 25.0722C16.7514 24.8343 16.7773 24.5724 16.7271 24.3198C16.677 24.0671 16.553 23.835 16.3709 23.6528C16.1887 23.4706 15.9566 23.3465 15.7039 23.2962C15.4512 23.2459 15.1892 23.2716 14.9512 23.3702C14.7131 23.4687 14.5096 23.6356 14.3664 23.8498C14.2233 24.0639 14.1469 24.3157 14.1469 24.5733C14.1473 24.9183 14.2846 25.2491 14.5286 25.4932C14.7726 25.7373 15.1034 25.8747 15.4486 25.8754Z" fill="#131F37"/>
<path d="M12.6426 23.5474C12.8619 23.5469 13.076 23.4814 13.2581 23.3592C13.4401 23.237 13.5819 23.0636 13.6654 22.8609C13.7489 22.6582 13.7704 22.4354 13.7272 22.2205C13.6841 22.0055 13.5781 21.8083 13.4228 21.6535C13.2675 21.4988 13.0698 21.3935 12.8547 21.3511C12.6396 21.3086 12.4167 21.3308 12.2142 21.415C12.0117 21.4991 11.8387 21.6413 11.7171 21.8237C11.5955 22.0061 11.5306 22.2204 11.5308 22.4396C11.5311 22.5853 11.56 22.7296 11.616 22.8641C11.672 22.9986 11.754 23.1208 11.8572 23.2237C11.9604 23.3265 12.0829 23.4081 12.2177 23.4636C12.3524 23.5192 12.4968 23.5476 12.6426 23.5474Z" fill="#131F37"/>
<path d="M17.5874 23.1064C17.8449 23.1059 18.0965 23.0291 18.3103 22.8857C18.5242 22.7423 18.6907 22.5387 18.7889 22.3007C18.8871 22.0628 18.9125 21.801 18.8619 21.5486C18.8114 21.2962 18.6871 21.0644 18.5048 20.8826C18.3225 20.7008 18.0904 20.577 17.8378 20.527C17.5852 20.477 17.3234 20.5029 17.0856 20.6015C16.8477 20.7002 16.6444 20.8671 16.5014 21.0812C16.3584 21.2952 16.2821 21.5469 16.2821 21.8043C16.2826 22.15 16.4203 22.4813 16.6651 22.7255C16.9098 22.9697 17.2416 23.1067 17.5874 23.1064Z" fill="#131F37"/>
<path d="M7.25216 20.612C7.41656 20.6114 7.57711 20.5622 7.71354 20.4705C7.84998 20.3788 7.95617 20.2488 8.01871 20.0968C8.08125 19.9448 8.09734 19.7777 8.06494 19.6166C8.03254 19.4555 7.95311 19.3076 7.83667 19.1915C7.72024 19.0755 7.57202 18.9966 7.41074 18.9647C7.24946 18.9329 7.08236 18.9495 6.93052 19.0125C6.77869 19.0755 6.64894 19.1821 6.55766 19.3188C6.46638 19.4555 6.41766 19.6161 6.41766 19.7805C6.41778 19.8898 6.43947 19.9981 6.48148 20.0991C6.52349 20.2001 6.58501 20.2919 6.66251 20.3691C6.74001 20.4463 6.83198 20.5075 6.93315 20.5492C7.03433 20.5909 7.14273 20.6122 7.25216 20.612Z" fill="#131F37"/>
<path d="M63.104 20H65.786L68.72 11.504L71.636 20H74.3L78.044 7.634H75.164L72.878 15.932L70.142 7.634H67.262L64.526 15.932L62.24 7.634H59.36L63.104 20ZM81.4662 20H84.1302V7.634H81.4662V20ZM88.4882 20H91.1342V16.544L92.6822 14.888L96.4802 20H99.7022L94.5362 12.998L99.3602 7.634H96.1382L91.1342 13.304V7.634H88.4882V20ZM102.82 20H105.484V7.634H102.82V20Z" fill="#131F37"/>
</svg>
