<svg width="24" height="25" viewBox="0 0 24 25" fill="none" xmlns="http://www.w3.org/2000/svg">
<path d="M7.77864 0C10.6125 0 13.4463 0 16.2802 0C16.6095 0.0300575 16.9389 0.0645679 17.2683 0.0879459C18.9611 0.204836 20.5299 0.656811 21.8238 1.87692C23.2846 3.254 23.9219 5.03629 23.9551 7.01563C24.0171 10.6849 24.0096 14.3563 23.9572 18.0256C23.9316 19.7734 23.4183 21.3909 22.2548 22.7245C20.9405 24.2308 19.2434 24.902 17.356 24.9366C13.8046 25.0033 10.25 25.0401 6.70071 24.9321C2.9611 24.8186 0.575324 22.414 0.140088 18.561C0.0791338 18.0256 0.0459832 17.4868 0 16.9491C0 13.999 0 11.0489 0 8.09881C0.0288732 7.74258 0.0684401 7.38634 0.0844807 7.02899C0.268413 3.11707 2.50876 0.605602 6.2366 0.145834C6.74883 0.0823797 7.26427 0.0478693 7.77864 0ZM12.054 2.33892V2.34003C10.3708 2.34003 8.68761 2.3044 7.00655 2.35116C5.6848 2.38901 4.44219 2.72187 3.48082 3.77945C2.5665 4.7847 2.28312 6.03376 2.25424 7.34738C2.19864 9.93232 2.17832 12.5195 2.18153 15.1055C2.1826 16.2577 2.21789 17.4166 2.33766 18.561C2.55902 20.6818 3.76527 22.0778 5.68908 22.5175C6.19489 22.6333 6.71996 22.6989 7.23754 22.709C9.60086 22.7513 11.9652 22.7858 14.3296 22.7802C15.4899 22.778 16.6566 22.7446 17.8094 22.6154C20.0594 22.3627 21.4827 20.8743 21.7254 18.5287C21.8441 17.3843 21.8784 16.2255 21.8784 15.0733C21.8805 12.4872 21.8816 9.90003 21.8014 7.31509C21.703 4.14125 20.0733 2.45915 17.0213 2.34893C15.368 2.28993 13.7105 2.33892 12.054 2.33892Z" fill="white"/>
<path d="M5.85254 12.5249C5.85254 8.95032 8.60832 6.09041 12.0485 6.09375C15.4577 6.09709 18.206 8.96702 18.206 12.5238C18.206 16.0984 15.4502 18.9583 12.01 18.955C8.60084 18.9505 5.85254 16.0806 5.85254 12.5249ZM12.0485 16.6973C14.2471 16.6873 16.0416 14.8048 16.0373 12.5138C16.033 10.2239 14.229 8.3514 12.0293 8.35029C9.81351 8.35029 8.00626 10.2461 8.02016 12.5539C8.03514 14.8427 9.84773 16.7063 12.0485 16.6973Z" fill="white"/>
<path d="M19.8945 5.82888C19.8988 6.66938 19.255 7.34511 18.4497 7.34511C17.6477 7.34511 16.9975 6.66158 17.004 5.82665C17.0104 5.00397 17.6424 4.34493 18.4316 4.33603C19.2443 4.32712 19.8902 4.98616 19.8945 5.82888Z" fill="white"/>
</svg>
