<svg width="32" height="31" viewBox="0 0 32 31" fill="none" xmlns="http://www.w3.org/2000/svg">
<g clip-path="url(#clip0)">
<path d="M28.4858 8.95999C28.506 9.22858 28.506 9.49724 28.506 9.76583C28.506 17.9583 21.9587 27.398 9.99221 27.398C6.30555 27.398 2.88083 26.3811 0 24.616C0.523804 24.6735 1.02739 24.6927 1.57135 24.6927C4.61328 24.6927 7.41356 23.7143 9.64972 22.0451C6.78905 21.9875 4.39172 20.2032 3.56573 17.7473C3.96868 17.8048 4.37156 17.8432 4.79466 17.8432C5.37886 17.8432 5.96313 17.7664 6.50702 17.6322C3.52549 17.0566 1.28926 14.5624 1.28926 11.5501V11.4734C2.15549 11.9339 3.16285 12.2217 4.23049 12.26C2.47782 11.1472 1.32957 9.24778 1.32957 7.0989C1.32957 5.94775 1.65184 4.89251 2.21595 3.97156C5.41911 7.73206 10.2339 10.1879 15.6329 10.4565C15.5322 9.99604 15.4717 9.51643 15.4717 9.03676C15.4717 5.62157 18.3727 2.8396 21.9787 2.8396C23.8523 2.8396 25.5445 3.58786 26.7331 4.7966C28.2037 4.528 29.6139 4.00995 30.8629 3.30007C30.3794 4.73907 29.352 5.94781 28.0023 6.7152C29.3117 6.58097 30.5809 6.23554 31.7493 5.75593C30.8631 6.9838 29.755 8.07737 28.4858 8.95999Z" fill="white"/>
</g>
<defs>
<clipPath id="clip0">
<rect width="31.7494" height="30.2376" fill="white"/>
</clipPath>
</defs>
</svg>
