<svg width="862" height="427" viewBox="0 0 862 427" fill="none" xmlns="http://www.w3.org/2000/svg">
<path d="M0 0H862V427H0V0Z" fill="#111F3B"/>
<path fill-rule="evenodd" clip-rule="evenodd" d="M861 1H1V426H861V1ZM0 0V427H862V0H0Z" fill="#293856"/>
<path d="M103.759 128.001H107.487C109.447 128.001 110.491 126.978 110.491 125.589C110.491 124.298 109.567 123.518 108.574 123.471V123.386C109.482 123.181 110.151 122.538 110.151 121.511C110.151 120.202 109.179 119.273 107.253 119.273H103.759V128.001ZM105.604 126.492V124.174H107.151C108.037 124.174 108.587 124.685 108.587 125.406C108.587 126.062 108.139 126.492 107.108 126.492H105.604ZM105.604 122.925V120.765H107.006C107.824 120.765 108.288 121.187 108.288 121.817C108.288 122.508 107.726 122.925 106.972 122.925H105.604Z" fill="#369FAB"/>
<path d="M114.615 128.129C116.601 128.129 117.837 126.769 117.837 124.754C117.837 122.725 116.601 121.37 114.615 121.37C112.63 121.37 111.394 122.725 111.394 124.754C111.394 126.769 112.63 128.129 114.615 128.129ZM114.624 126.722C113.708 126.722 113.239 125.883 113.239 124.741C113.239 123.599 113.708 122.755 114.624 122.755C115.523 122.755 115.992 123.599 115.992 124.741C115.992 125.883 115.523 126.722 114.624 126.722Z" fill="#369FAB"/>
<path d="M119.052 128.001H120.841V126.952H120.922C121.174 127.498 121.723 128.107 122.78 128.107C124.272 128.107 125.435 126.927 125.435 124.737C125.435 122.487 124.221 121.37 122.784 121.37C121.689 121.37 121.165 122.022 120.922 122.555H120.867V119.273H119.052V128.001ZM120.829 124.728C120.829 123.56 121.323 122.815 122.205 122.815C123.104 122.815 123.581 123.594 123.581 124.728C123.581 125.87 123.096 126.663 122.205 126.663C121.331 126.663 120.829 125.896 120.829 124.728Z" fill="#369FAB"/>
<path fill-rule="evenodd" clip-rule="evenodd" d="M150 111H80C78.3431 111 77 112.343 77 114V217C77 218.657 78.3431 220 80 220H150C151.657 220 153 218.657 153 217V114C153 112.343 151.657 111 150 111ZM80 109C77.2386 109 75 111.239 75 114V217C75 219.761 77.2386 222 80 222H150C152.761 222 155 219.761 155 217V114C155 111.239 152.761 109 150 109H80Z" fill="#369FAB"/>
<path d="M102.085 167.459C102.404 169.533 101.402 171.408 99.8469 171.647C98.2919 171.886 96.7726 170.4 96.4534 168.326C96.1342 166.253 97.136 164.378 98.691 164.139C100.246 163.899 101.765 165.386 102.085 167.459Z" fill="#F2CEA5"/>
<path d="M127.269 167.459C126.95 169.533 127.952 171.408 129.507 171.647C131.062 171.886 132.581 170.4 132.901 168.326C133.22 166.253 132.218 164.378 130.663 164.139C129.108 163.899 127.589 165.386 127.269 167.459Z" fill="#F2CEA5"/>
<path d="M104.991 199.03C104.991 195.232 106.891 189.535 104.991 180.039H123.983C123.35 185.42 123.413 196.752 124.932 199.03H104.991Z" fill="#F2CEA5"/>
<path fill-rule="evenodd" clip-rule="evenodd" d="M104.382 179.539H124.545L124.479 180.097C124.167 182.757 124.024 186.909 124.15 190.681C124.213 192.567 124.343 194.345 124.549 195.788C124.652 196.509 124.773 197.138 124.912 197.65C125.053 198.171 125.203 198.535 125.349 198.753L125.867 199.53H104.491V199.03C104.491 198.046 104.614 196.949 104.762 195.735C104.781 195.585 104.799 195.433 104.818 195.278C104.954 194.178 105.102 192.974 105.205 191.633C105.44 188.582 105.44 184.831 104.501 180.137L104.382 179.539ZM105.597 180.539C106.442 185.063 106.432 188.719 106.202 191.71C106.097 193.075 105.946 194.303 105.811 195.402C105.792 195.556 105.773 195.707 105.755 195.857C105.633 196.86 105.533 197.741 105.502 198.53H124.141C124.07 198.337 124.006 198.13 123.947 197.912C123.794 197.347 123.666 196.675 123.559 195.929C123.346 194.438 123.214 192.62 123.151 190.715C123.032 187.158 123.148 183.256 123.425 180.539H105.597Z" fill="#F2CEA5"/>
<path d="M127.781 166.745C127.781 179.856 121.829 190.485 114.487 190.485C107.145 190.485 101.193 179.856 101.193 166.745C101.193 153.635 107.145 151.359 114.487 151.359C121.829 151.359 127.781 153.635 127.781 166.745Z" fill="#B49675"/>
<path d="M129.68 163.897C129.68 177.008 123.927 187.636 114.487 187.636C105.047 187.636 99.2939 176.815 99.2939 163.704C99.2939 150.593 105.047 150.41 114.487 150.41C123.927 150.41 129.68 150.786 129.68 163.897Z" fill="#F2CEA5"/>
<path d="M114.487 199.98C109.929 199.98 105.624 197.448 104.042 196.182L86 199.98V211.375H142.974V199.98L124.932 196.182C123.35 197.448 119.045 199.98 114.487 199.98Z" fill="#4079A2"/>
<path fill-rule="evenodd" clip-rule="evenodd" d="M104.17 195.645L104.354 195.792C105.889 197.02 110.086 199.481 114.487 199.481C118.888 199.481 123.085 197.02 124.62 195.792L124.804 195.645L143.474 199.575V211.876H85.5V199.575L104.17 195.645ZM86.5 200.386V210.876H142.474V200.386L125.057 196.72C123.294 198.062 119.031 200.481 114.487 200.481C109.943 200.481 105.68 198.062 103.918 196.72L86.5 200.386Z" fill="#4078A1"/>
<path d="M99.2937 152.308C100.053 147.75 107.524 144.95 111.638 144H119.235C129.87 145.519 130.946 158.955 129.68 165.602C129.68 162.754 129.3 156.486 127.781 154.207C126.262 151.928 122.084 150.726 120.185 150.409C118.918 150.726 115.627 151.169 112.588 150.409C108.79 149.46 103.092 153.258 101.193 154.207C99.844 154.882 99.9323 161.307 100.097 164.291C100.186 164.829 100.243 165.273 100.243 165.602C100.243 166.152 100.164 165.508 100.097 164.291C99.6702 161.727 98.5088 157.018 99.2937 152.308Z" fill="#6B5948"/>
<path fill-rule="evenodd" clip-rule="evenodd" d="M111.526 143.513C111.563 143.504 111.601 143.5 111.638 143.5H119.235C119.259 143.5 119.283 143.502 119.306 143.505C124.875 144.301 127.919 148.232 129.396 152.722C130.867 157.198 130.817 162.307 130.171 165.696C130.123 165.949 129.89 166.124 129.633 166.1C129.377 166.076 129.18 165.86 129.18 165.602C129.18 164.195 129.086 161.938 128.805 159.755C128.664 158.664 128.477 157.6 128.235 156.675C127.991 155.742 127.699 154.986 127.365 154.485C126.689 153.47 125.377 152.647 123.93 152.033C122.55 151.446 121.124 151.082 120.202 150.919C118.819 151.246 115.53 151.66 112.467 150.894C110.746 150.464 108.512 151.106 106.382 152.053C105.332 152.519 104.338 153.046 103.482 153.518C103.194 153.677 102.918 153.832 102.66 153.976C102.165 154.254 101.737 154.495 101.417 154.655C101.386 154.67 101.302 154.735 101.197 154.94C101.096 155.137 101 155.413 100.916 155.765C100.747 156.467 100.639 157.393 100.576 158.414C100.453 160.438 100.514 162.753 100.595 164.236C100.682 164.764 100.743 165.234 100.743 165.602C100.743 165.674 100.742 165.738 100.739 165.789C100.737 165.81 100.734 165.851 100.724 165.895L100.724 165.895C100.721 165.911 100.709 165.969 100.674 166.033C100.658 166.064 100.615 166.137 100.532 166.2C100.431 166.276 100.279 166.328 100.11 166.286C99.9696 166.251 99.8861 166.167 99.8528 166.13C99.8151 166.087 99.7929 166.047 99.7821 166.026C99.7602 165.983 99.7486 165.946 99.744 165.931C99.7332 165.895 99.7266 165.861 99.7226 165.839C99.7139 165.791 99.7059 165.731 99.6985 165.667C99.6689 165.411 99.6323 164.944 99.599 164.346C99.5387 163.986 99.4629 163.579 99.3797 163.131C98.8812 160.452 98.1154 156.337 98.8006 152.226C99.2204 149.707 101.463 147.767 103.963 146.365C106.493 144.946 109.438 143.995 111.526 143.513ZM99.6156 157.821C99.6829 156.975 99.787 156.182 99.9435 155.531C100.038 155.139 100.156 154.779 100.307 154.484C100.454 154.197 100.663 153.914 100.97 153.76L101.193 154.207L100.97 153.76C101.269 153.611 101.661 153.391 102.137 153.123C102.4 152.976 102.687 152.814 102.999 152.642C103.865 152.165 104.888 151.623 105.975 151.139C108.118 150.187 110.632 149.405 112.709 149.924C115.643 150.658 118.848 150.228 120.063 149.924C120.13 149.907 120.199 149.905 120.267 149.916C121.25 150.08 122.808 150.47 124.321 151.112C125.818 151.748 127.354 152.666 128.197 153.93C128.623 154.568 128.948 155.45 129.203 156.422C129.253 156.614 129.301 156.811 129.346 157.012C129.162 155.67 128.869 154.323 128.446 153.034C127.045 148.775 124.243 145.235 119.199 144.5H111.696C109.673 144.972 106.854 145.891 104.452 147.237C101.999 148.613 100.127 150.351 99.787 152.391C99.478 154.245 99.4775 156.098 99.6156 157.821Z" fill="#6B5948"/>
<path d="M118.285 182.695H110.689V186.494C111.322 186.81 112.968 187.443 114.487 187.443C116.006 187.443 117.652 186.81 118.285 186.494V182.695Z" fill="#6B5948"/>
<path fill-rule="evenodd" clip-rule="evenodd" d="M110.189 182.695C110.189 182.419 110.413 182.195 110.689 182.195H118.285C118.561 182.195 118.785 182.419 118.785 182.695V186.494C118.785 186.683 118.678 186.856 118.509 186.941C117.841 187.275 116.115 187.943 114.487 187.943C112.859 187.943 111.133 187.275 110.465 186.941C110.296 186.856 110.189 186.683 110.189 186.494V182.695ZM111.189 183.195V186.175C111.911 186.489 113.258 186.943 114.487 186.943C115.716 186.943 117.063 186.489 117.785 186.175V183.195H111.189Z" fill="#6B5948"/>
<path d="M735.759 128.001H739.487C741.447 128.001 742.491 126.978 742.491 125.589C742.491 124.298 741.567 123.518 740.574 123.471V123.386C741.482 123.181 742.151 122.538 742.151 121.511C742.151 120.202 741.179 119.273 739.253 119.273H735.759V128.001ZM737.604 126.492V124.174H739.151C740.037 124.174 740.587 124.685 740.587 125.406C740.587 126.062 740.139 126.492 739.108 126.492H737.604ZM737.604 122.925V120.765H739.006C739.824 120.765 740.288 121.187 740.288 121.817C740.288 122.508 739.726 122.925 738.972 122.925H737.604Z" fill="#369FAB"/>
<path d="M746.615 128.129C748.601 128.129 749.837 126.769 749.837 124.754C749.837 122.725 748.601 121.37 746.615 121.37C744.63 121.37 743.394 122.725 743.394 124.754C743.394 126.769 744.63 128.129 746.615 128.129ZM746.624 126.722C745.708 126.722 745.239 125.883 745.239 124.741C745.239 123.599 745.708 122.755 746.624 122.755C747.523 122.755 747.992 123.599 747.992 124.741C747.992 125.883 747.523 126.722 746.624 126.722Z" fill="#369FAB"/>
<path d="M751.052 128.001H752.841V126.952H752.922C753.174 127.498 753.723 128.107 754.78 128.107C756.272 128.107 757.435 126.927 757.435 124.737C757.435 122.487 756.221 121.37 754.784 121.37C753.689 121.37 753.165 122.022 752.922 122.555H752.867V119.273H751.052V128.001ZM752.829 124.728C752.829 123.56 753.323 122.815 754.205 122.815C755.104 122.815 755.581 123.594 755.581 124.728C755.581 125.87 755.096 126.663 754.205 126.663C753.331 126.663 752.829 125.896 752.829 124.728Z" fill="#369FAB"/>
<path fill-rule="evenodd" clip-rule="evenodd" d="M782 111H712C710.343 111 709 112.343 709 114V217C709 218.657 710.343 220 712 220H782C783.657 220 785 218.657 785 217V114C785 112.343 783.657 111 782 111ZM712 109C709.239 109 707 111.239 707 114V217C707 219.761 709.239 222 712 222H782C784.761 222 787 219.761 787 217V114C787 111.239 784.761 109 782 109H712Z" fill="#369FAB"/>
<path d="M734.085 167.459C734.404 169.533 733.402 171.408 731.847 171.647C730.292 171.886 728.773 170.4 728.453 168.326C728.134 166.253 729.136 164.378 730.691 164.139C732.246 163.899 733.765 165.386 734.085 167.459Z" fill="#F2CEA5"/>
<path d="M759.269 167.459C758.95 169.533 759.952 171.408 761.507 171.647C763.062 171.886 764.581 170.4 764.901 168.326C765.22 166.253 764.218 164.378 762.663 164.139C761.108 163.899 759.589 165.386 759.269 167.459Z" fill="#F2CEA5"/>
<path d="M736.991 199.03C736.991 195.232 738.891 189.535 736.991 180.039H755.983C755.35 185.42 755.413 196.752 756.932 199.03H736.991Z" fill="#F2CEA5"/>
<path fill-rule="evenodd" clip-rule="evenodd" d="M736.382 179.539H756.545L756.479 180.097C756.167 182.757 756.024 186.909 756.15 190.681C756.213 192.567 756.343 194.345 756.549 195.788C756.652 196.509 756.773 197.138 756.912 197.65C757.053 198.171 757.203 198.535 757.349 198.753L757.867 199.53H736.491V199.03C736.491 198.046 736.614 196.949 736.762 195.735C736.781 195.585 736.799 195.433 736.818 195.278C736.954 194.178 737.102 192.974 737.205 191.633C737.44 188.582 737.44 184.831 736.501 180.137L736.382 179.539ZM737.597 180.539C738.442 185.063 738.432 188.719 738.202 191.71C738.097 193.075 737.946 194.303 737.811 195.402C737.792 195.556 737.773 195.707 737.755 195.857C737.633 196.86 737.533 197.741 737.502 198.53H756.141C756.07 198.337 756.006 198.13 755.947 197.912C755.794 197.347 755.666 196.675 755.559 195.929C755.346 194.438 755.214 192.62 755.151 190.715C755.032 187.158 755.148 183.256 755.425 180.539H737.597Z" fill="#F2CEA5"/>
<path d="M759.781 166.745C759.781 179.856 753.829 190.485 746.487 190.485C739.145 190.485 733.193 179.856 733.193 166.745C733.193 153.635 739.145 151.359 746.487 151.359C753.829 151.359 759.781 153.635 759.781 166.745Z" fill="#B49675"/>
<path d="M761.68 163.897C761.68 177.008 755.927 187.636 746.487 187.636C737.047 187.636 731.294 176.815 731.294 163.704C731.294 150.593 737.047 150.41 746.487 150.41C755.927 150.41 761.68 150.786 761.68 163.897Z" fill="#F2CEA5"/>
<path d="M746.487 199.98C741.929 199.98 737.624 197.448 736.042 196.182L718 199.98V211.375H774.974V199.98L756.932 196.182C755.35 197.448 751.045 199.98 746.487 199.98Z" fill="#4079A2"/>
<path fill-rule="evenodd" clip-rule="evenodd" d="M736.17 195.645L736.354 195.792C737.889 197.02 742.086 199.481 746.487 199.481C750.888 199.481 755.085 197.02 756.62 195.792L756.804 195.645L775.474 199.575V211.876H717.5V199.575L736.17 195.645ZM718.5 200.386V210.876H774.474V200.386L757.057 196.72C755.294 198.062 751.031 200.481 746.487 200.481C741.943 200.481 737.68 198.062 735.918 196.72L718.5 200.386Z" fill="#4078A1"/>
<path d="M731.294 152.308C732.053 147.75 739.524 144.95 743.638 144H751.235C761.87 145.519 762.946 158.955 761.68 165.602C761.68 162.754 761.3 156.486 759.781 154.207C758.262 151.928 754.084 150.726 752.185 150.409C750.918 150.726 747.627 151.169 744.588 150.409C740.79 149.46 735.092 153.258 733.193 154.207C731.844 154.882 731.932 161.307 732.097 164.291C732.186 164.829 732.243 165.273 732.243 165.602C732.243 166.152 732.164 165.508 732.097 164.291C731.67 161.727 730.509 157.018 731.294 152.308Z" fill="#6B5948"/>
<path fill-rule="evenodd" clip-rule="evenodd" d="M743.526 143.513C743.563 143.504 743.601 143.5 743.638 143.5H751.235C751.259 143.5 751.283 143.502 751.306 143.505C756.875 144.301 759.919 148.232 761.396 152.722C762.867 157.198 762.817 162.307 762.171 165.696C762.123 165.949 761.89 166.124 761.633 166.1C761.377 166.076 761.18 165.86 761.18 165.602C761.18 164.195 761.086 161.938 760.805 159.755C760.664 158.664 760.477 157.6 760.235 156.675C759.991 155.742 759.699 154.986 759.365 154.485C758.689 153.47 757.377 152.647 755.93 152.033C754.55 151.446 753.124 151.082 752.202 150.919C750.819 151.246 747.53 151.66 744.467 150.894C742.746 150.464 740.512 151.106 738.382 152.053C737.332 152.519 736.338 153.046 735.482 153.518C735.194 153.677 734.918 153.832 734.66 153.976C734.165 154.254 733.737 154.495 733.417 154.655C733.386 154.67 733.302 154.735 733.197 154.94C733.096 155.137 733 155.413 732.916 155.765C732.747 156.467 732.639 157.393 732.576 158.414C732.453 160.438 732.514 162.753 732.595 164.236C732.682 164.764 732.743 165.234 732.743 165.602C732.743 165.674 732.742 165.738 732.739 165.789C732.737 165.81 732.734 165.851 732.724 165.895L732.724 165.895C732.721 165.911 732.709 165.969 732.674 166.033C732.658 166.064 732.615 166.137 732.532 166.2C732.431 166.276 732.279 166.328 732.11 166.286C731.97 166.251 731.886 166.167 731.853 166.13C731.815 166.087 731.793 166.047 731.782 166.026C731.76 165.983 731.749 165.946 731.744 165.931C731.733 165.895 731.727 165.861 731.723 165.839C731.714 165.791 731.706 165.731 731.699 165.667C731.669 165.411 731.632 164.944 731.599 164.346C731.539 163.986 731.463 163.579 731.38 163.131C730.881 160.452 730.115 156.337 730.801 152.226C731.22 149.707 733.463 147.767 735.963 146.365C738.493 144.946 741.438 143.995 743.526 143.513ZM731.616 157.821C731.683 156.975 731.787 156.182 731.943 155.531C732.038 155.139 732.156 154.779 732.307 154.484C732.454 154.197 732.663 153.914 732.97 153.76L733.193 154.207L732.97 153.76C733.269 153.611 733.661 153.391 734.137 153.123C734.4 152.976 734.687 152.814 734.999 152.642C735.865 152.165 736.888 151.623 737.975 151.139C740.118 150.187 742.632 149.405 744.709 149.924C747.643 150.658 750.848 150.228 752.063 149.924C752.13 149.907 752.199 149.905 752.267 149.916C753.25 150.08 754.808 150.47 756.321 151.112C757.818 151.748 759.354 152.666 760.197 153.93C760.623 154.568 760.948 155.45 761.203 156.422C761.253 156.614 761.301 156.811 761.346 157.012C761.162 155.67 760.869 154.323 760.446 153.034C759.045 148.775 756.243 145.235 751.199 144.5H743.696C741.673 144.972 738.854 145.891 736.452 147.237C733.999 148.613 732.127 150.351 731.787 152.391C731.478 154.245 731.478 156.098 731.616 157.821Z" fill="#6B5948"/>
<path d="M750.285 182.695H742.689V186.494C743.322 186.81 744.968 187.443 746.487 187.443C748.006 187.443 749.652 186.81 750.285 186.494V182.695Z" fill="#6B5948"/>
<path fill-rule="evenodd" clip-rule="evenodd" d="M742.189 182.695C742.189 182.419 742.413 182.195 742.689 182.195H750.285C750.561 182.195 750.785 182.419 750.785 182.695V186.494C750.785 186.683 750.678 186.856 750.509 186.941C749.841 187.275 748.115 187.943 746.487 187.943C744.859 187.943 743.133 187.275 742.465 186.941C742.296 186.856 742.189 186.683 742.189 186.494V182.695ZM743.189 183.195V186.175C743.911 186.489 745.258 186.943 746.487 186.943C747.716 186.943 749.063 186.489 749.785 186.175V183.195H743.189Z" fill="#6B5948"/>
<path d="M294 68.0009H296.768V62.5932H302.386V68.0009H305.148V54.91H302.386V60.3113H296.768V54.91H294V68.0009Z" fill="#4079A2"/>
<path d="M311.815 68.1926C314.793 68.1926 316.647 66.1536 316.647 63.1301C316.647 60.0875 314.793 58.0549 311.815 58.0549C308.836 58.0549 306.982 60.0875 306.982 63.1301C306.982 66.1536 308.836 68.1926 311.815 68.1926ZM311.827 66.0833C310.453 66.0833 309.75 64.824 309.75 63.111C309.75 61.3979 310.453 60.1323 311.827 60.1323C313.176 60.1323 313.879 61.3979 313.879 63.111C313.879 64.824 313.176 66.0833 311.827 66.0833Z" fill="#4079A2"/>
<path d="M320.108 68.0009H322.985L324.672 61.8262H324.794L326.481 68.0009H329.364L332.029 58.1827H329.281L327.785 64.7409H327.702L326.091 58.1827H323.387L321.802 64.7793H321.713L320.191 58.1827L317.436 58.1827L320.108 68.0009Z" fill="#4079A2"/>
<path d="M337.699 68.0009H340.467V63.7566H342.794C345.804 63.7566 347.556 61.9604 347.556 59.3461C347.556 56.7445 345.836 54.91 342.864 54.91H337.699V68.0009ZM340.467 61.5385V57.1728H342.333C343.931 57.1728 344.705 58.0421 344.705 59.3461C344.705 60.6436 343.931 61.5385 342.346 61.5385H340.467Z" fill="#4079A2"/>
<path d="M349.302 68.0009H352.025V62.4462C352.025 61.2381 352.907 60.4071 354.109 60.4071C354.486 60.4071 355.004 60.4711 355.26 60.5542V58.138C355.017 58.0804 354.678 58.0421 354.403 58.0421C353.304 58.0421 352.403 58.6813 352.045 59.8958H351.942V58.1827H349.302V68.0009Z" fill="#4079A2"/>
<path d="M360.685 68.1926C363.114 68.1926 364.75 67.0101 365.134 65.1884L362.615 65.0222C362.341 65.7701 361.637 66.16 360.73 66.16C359.368 66.16 358.505 65.2587 358.505 63.7949V63.7885H365.191V63.0407C365.191 59.704 363.172 58.0549 360.576 58.0549C357.687 58.0549 355.814 60.1067 355.814 63.1365C355.814 66.2495 357.662 68.1926 360.685 68.1926ZM358.505 62.101C358.563 60.9824 359.413 60.0875 360.621 60.0875C361.804 60.0875 362.622 60.9313 362.628 62.101H358.505Z" fill="#4079A2"/>
<path d="M373.086 61.5449H367.115V63.7054H373.086V61.5449Z" fill="#4079A2"/>
<path d="M375.457 68.0009H383.837V65.7189H378.225V54.91H375.457V68.0009Z" fill="#4079A2"/>
<path d="M388.418 68.1863C389.869 68.1863 390.809 67.5534 391.289 66.6394H391.365V68.0009H393.948V61.3787C393.948 59.0392 391.966 58.0549 389.78 58.0549C387.428 58.0549 385.881 59.1799 385.504 60.9696L388.022 61.1742C388.208 60.5222 388.789 60.0428 389.767 60.0428C390.694 60.0428 391.225 60.5094 391.225 61.3148V61.3532C391.225 61.986 390.553 62.0691 388.847 62.2353C386.904 62.4142 385.159 63.0662 385.159 65.2587C385.159 67.2019 386.546 68.1863 388.418 68.1863ZM389.198 66.307C388.361 66.307 387.76 65.9171 387.76 65.1692C387.76 64.4022 388.393 64.025 389.352 63.8908C389.946 63.8077 390.918 63.6671 391.244 63.4498V64.4917C391.244 65.5208 390.394 66.307 389.198 66.307Z" fill="#4079A2"/>
<path d="M402.356 63.8205C402.363 65.1373 401.461 65.8276 400.483 65.8276C399.454 65.8276 398.79 65.1053 398.783 63.9483V58.1827H396.06V64.4341C396.067 66.7289 397.409 68.1287 399.384 68.1287C400.861 68.1287 401.922 67.3681 402.363 66.2175H402.465V68.0009H405.079V58.1827H402.356V63.8205Z" fill="#4079A2"/>
<path d="M409.98 62.3248C409.987 61.0591 410.741 60.3176 411.841 60.3176C412.934 60.3176 413.592 61.0336 413.586 62.2353V68.0009H416.309V61.7495C416.309 59.4611 414.966 58.0549 412.921 58.0549C411.463 58.0549 410.409 58.7708 409.968 59.915H409.853V58.1827H407.257V68.0009H409.98V62.3248Z" fill="#4079A2"/>
<path d="M422.891 68.1926C425.505 68.1926 427.148 66.6586 427.276 64.4022H424.706C424.546 65.4505 423.856 66.0385 422.923 66.0385C421.651 66.0385 420.826 64.9711 420.826 63.0918C420.826 61.2381 421.657 60.177 422.923 60.177C423.92 60.177 424.559 60.8354 424.706 61.8134H427.276C427.161 59.5442 425.441 58.0549 422.878 58.0549C419.899 58.0549 418.058 60.1195 418.058 63.1301C418.058 66.1152 419.867 68.1926 422.891 68.1926Z" fill="#4079A2"/>
<path d="M431.742 62.3248C431.749 61.0591 432.522 60.3176 433.634 60.3176C434.74 60.3176 435.392 61.0272 435.386 62.2353V68.0009H438.109V61.7495C438.115 59.4483 436.76 58.0549 434.714 58.0549C433.225 58.0549 432.228 58.758 431.781 59.915H431.665V54.91H429.019V68.0009H431.742V62.3248Z" fill="#4079A2"/>
<path d="M451.57 58.6749H454.223C454.185 56.3418 452.267 54.731 449.352 54.731C446.482 54.731 444.379 56.3162 444.392 58.6941C444.386 60.6245 445.747 61.7303 447.959 62.2608L449.384 62.6188C450.81 62.964 451.602 63.373 451.609 64.2551C451.602 65.214 450.695 65.8659 449.288 65.8659C447.85 65.8659 446.815 65.2012 446.725 63.8908H444.047C444.117 66.7225 446.143 68.1863 449.32 68.1863C452.516 68.1863 454.396 66.6586 454.402 64.2615C454.396 62.0819 452.753 60.9249 450.477 60.4135L449.301 60.1323C448.163 59.8702 447.211 59.4483 447.23 58.5087C447.23 57.665 447.978 57.0449 449.333 57.0449C450.656 57.0449 451.468 57.6458 451.57 58.6749Z" fill="#4079A2"/>
<path d="M461.435 58.1827H459.588V55.8304H456.865V58.1827H455.522V60.2282H456.865V65.3418C456.852 67.2658 458.162 68.2182 460.137 68.1351C460.84 68.1096 461.339 67.9689 461.614 67.8794L461.186 65.8532C461.051 65.8787 460.764 65.9426 460.508 65.9426C459.965 65.9426 459.588 65.7381 459.588 64.9838V60.2282H461.435V58.1827Z" fill="#4079A2"/>
<path d="M466.008 68.1863C467.459 68.1863 468.399 67.5534 468.878 66.6394H468.955V68.0009H471.537V61.3787C471.537 59.0392 469.556 58.0549 467.37 58.0549C465.018 58.0549 463.471 59.1799 463.094 60.9696L465.612 61.1742C465.797 60.5222 466.379 60.0428 467.357 60.0428C468.284 60.0428 468.814 60.5094 468.814 61.3148V61.3532C468.814 61.986 468.143 62.0691 466.437 62.2353C464.493 62.4142 462.748 63.0662 462.748 65.2587C462.748 67.2019 464.135 68.1863 466.008 68.1863ZM466.788 66.307C465.951 66.307 465.35 65.9171 465.35 65.1692C465.35 64.4022 465.983 64.025 466.942 63.8908C467.536 63.8077 468.508 63.6671 468.834 63.4498V64.4917C468.834 65.5208 467.983 66.307 466.788 66.307Z" fill="#4079A2"/>
<path d="M473.65 68.0009H476.373V64.8816L477.108 64.0442L479.786 68.0009H482.976L479.147 62.4334L482.791 58.1827H479.665L476.52 61.9093H476.373V54.91H473.65V68.0009Z" fill="#4079A2"/>
<path d="M484.127 68.0009H486.85V58.1827H484.127V68.0009ZM485.494 56.9171C486.306 56.9171 486.971 56.2971 486.971 55.5364C486.971 54.7821 486.306 54.1621 485.494 54.1621C484.689 54.1621 484.024 54.7821 484.024 55.5364C484.024 56.2971 484.689 56.9171 485.494 56.9171Z" fill="#4079A2"/>
<path d="M491.754 62.3248C491.76 61.0591 492.515 60.3176 493.614 60.3176C494.707 60.3176 495.365 61.0336 495.359 62.2353V68.0009H498.082V61.7495C498.082 59.4611 496.74 58.0549 494.694 58.0549C493.237 58.0549 492.182 58.7708 491.741 59.915H491.626V58.1827H489.031V68.0009H491.754V62.3248Z" fill="#4079A2"/>
<path d="M504.651 71.8873C507.458 71.8873 509.452 70.6088 509.452 68.0968V58.1827H506.748V59.8319H506.646C506.281 59.0328 505.482 58.0549 503.84 58.0549C501.686 58.0549 499.864 59.7296 499.864 63.0726C499.864 66.339 501.634 67.8603 503.846 67.8603C505.412 67.8603 506.288 67.074 506.646 66.2623H506.761V68.0584C506.761 69.4071 505.898 69.9313 504.715 69.9313C503.514 69.9313 502.906 69.4071 502.683 68.8127L500.164 69.1515C500.49 70.6983 502.005 71.8873 504.651 71.8873ZM504.709 65.8148C503.373 65.8148 502.644 64.7537 502.644 63.0598C502.644 61.3915 503.36 60.2218 504.709 60.2218C506.032 60.2218 506.774 61.3404 506.774 63.0598C506.774 64.7921 506.019 65.8148 504.709 65.8148Z" fill="#4079A2"/>
<path d="M517.722 68.0009L520.598 68.0009L522.286 61.8262H522.407L524.094 68.0009H526.977L529.643 58.1827H526.894L525.398 64.7409H525.315L523.705 58.1827H521.001L519.415 64.7793H519.326L517.805 58.1827H515.05L517.722 68.0009Z" fill="#4079A2"/>
<path d="M535.285 68.1926C538.264 68.1926 540.118 66.1536 540.118 63.1301C540.118 60.0875 538.264 58.0549 535.285 58.0549C532.307 58.0549 530.453 60.0875 530.453 63.1301C530.453 66.1536 532.307 68.1926 535.285 68.1926ZM535.298 66.0833C533.924 66.0833 533.221 64.824 533.221 63.111C533.221 61.3979 533.924 60.1323 535.298 60.1323C536.647 60.1323 537.35 61.3979 537.35 63.111C537.35 64.824 536.647 66.0833 535.298 66.0833Z" fill="#4079A2"/>
<path d="M541.888 68.0009H544.611V62.4462C544.611 61.2381 545.493 60.4071 546.695 60.4071C547.072 60.4071 547.59 60.4711 547.846 60.5542V58.138C547.603 58.0804 547.264 58.0421 546.989 58.0421C545.89 58.0421 544.988 58.6813 544.631 59.8958H544.528V58.1827H541.888V68.0009Z" fill="#4079A2"/>
<path d="M549.254 68.0009H551.977V64.8816L552.712 64.0442L555.39 68.0009H558.58L554.751 62.4334L558.394 58.1827H555.268L552.124 61.9093H551.977V54.91H549.254V68.0009Z" fill="#4079A2"/>
<path d="M567.899 60.9824C567.656 59.1735 566.199 58.0549 563.719 58.0549C561.207 58.0549 559.551 59.2182 559.558 61.1103C559.551 62.5804 560.478 63.5328 562.396 63.9164L564.096 64.2551C564.952 64.4277 565.342 64.7409 565.355 65.2331C565.342 65.8148 564.71 66.2303 563.757 66.2303C562.786 66.2303 562.14 65.8148 561.974 65.0158L559.295 65.1564C559.551 67.0357 561.149 68.1926 563.751 68.1926C566.295 68.1926 568.116 66.8951 568.123 64.9583C568.116 63.5392 567.19 62.6891 565.285 62.2992L563.508 61.9412C562.594 61.7431 562.255 61.4299 562.261 60.9569C562.255 60.3688 562.92 59.9853 563.763 59.9853C564.71 59.9853 565.272 60.503 565.406 61.1358L567.899 60.9824Z" fill="#4079A2"/>
<path d="M127.126 301.783C130.054 304.74 134.801 304.74 137.728 301.783C140.656 298.826 140.656 294.031 137.728 291.073C134.801 288.116 130.054 288.116 127.126 291.073C124.198 294.031 124.198 298.826 127.126 301.783Z" fill="#369FAB"/>
<path d="M110.703 304.739C105.534 303.219 99.9569 304.713 96.2131 308.621L92.532 312.464C86.3126 318.956 89.4746 329.819 98.1829 331.877C102.115 332.807 106.242 331.588 109.059 328.665L126.063 311.019C126.662 310.396 126.39 309.352 125.564 309.11L110.703 304.739Z" fill="#6CD4E0"/>
<path d="M110.909 315.661C105.765 317.267 100.164 315.865 96.3576 312.02L92.6146 308.239C86.2906 301.851 89.2757 290.937 97.9494 288.734C101.866 287.739 106.012 288.89 108.876 291.766L126.164 309.128C126.774 309.74 126.519 310.789 125.697 311.045L110.909 315.661Z" fill="#369FAB"/>
<path fill-rule="evenodd" clip-rule="evenodd" d="M96.3577 312.018C100.164 315.864 105.765 317.265 110.909 315.66L125.697 311.044C125.981 310.955 126.197 310.772 126.334 310.545C126.506 309.964 126.198 309.296 125.559 309.108L110.698 304.737C105.529 303.217 99.9514 304.711 96.2076 308.619L94.6265 310.27L96.3577 312.018Z" fill="#2C818B"/>
<path fill-rule="evenodd" clip-rule="evenodd" d="M565 153H302C300.343 153 299 154.343 299 156V343C299 344.657 300.343 346 302 346H565C566.657 346 568 344.657 568 343V156C568 154.343 566.657 153 565 153ZM302 151C299.239 151 297 153.239 297 156V343C297 345.761 299.239 348 302 348H565C567.761 348 570 345.761 570 343V156C570 153.239 567.761 151 565 151H302Z" fill="#369FAB"/>
<path fill-rule="evenodd" clip-rule="evenodd" d="M150 275H80C78.3431 275 77 276.343 77 278V343C77 344.657 78.3431 346 80 346H150C151.657 346 153 344.657 153 343V278C153 276.343 151.657 275 150 275ZM80 273C77.2386 273 75 275.239 75 278V343C75 345.761 77.2386 348 80 348H150C152.761 348 155 345.761 155 343V278C155 275.239 152.761 273 150 273H80Z" fill="#369FAB"/>
<path fill-rule="evenodd" clip-rule="evenodd" d="M120.773 275L115 280.774L109.226 275L114 270.226V222H116V270.226L120.773 275Z" fill="#369FAB"/>
<path d="M465 345.5C465 364.002 450.002 379 431.5 379C412.998 379 398 364.002 398 345.5C398 326.998 412.998 312 431.5 312C450.002 312 465 326.998 465 345.5Z" fill="#111F3B"/>
<path d="M455.228 343.103C454.404 343.329 453.879 344.233 454.141 345.062C455.79 350.977 454.254 356.515 452.231 359.755C451.781 360.509 452.006 361.489 452.755 361.941C453.017 362.091 453.317 362.167 453.579 362.167C454.104 362.167 454.628 361.903 454.928 361.413C457.963 356.553 458.824 349.922 457.176 344.158C456.951 343.329 456.089 342.839 455.228 343.103V343.103Z" fill="#369FAB"/>
<path d="M423.39 369.195C414.289 366.081 408.209 357.478 408.209 347.8C408.209 342.016 410.626 336.231 414.818 331.967C419.199 327.48 425.09 325.033 431.358 325.033C434.795 325.033 438.269 325.737 440.686 326.924C441.479 327.332 442.423 326.998 442.838 326.219C443.216 325.441 442.914 324.514 442.121 324.106C439.289 322.697 435.361 321.881 431.358 321.881C424.221 321.881 417.499 324.699 412.515 329.779C407.757 334.637 405 341.2 405 347.801C405 358.813 411.948 368.603 422.333 372.163C422.522 372.237 422.673 372.237 422.862 372.237C423.504 372.237 424.146 371.829 424.372 371.199C424.675 370.383 424.221 369.493 423.391 369.197L423.39 369.195Z" fill="#369FAB"/>
<path d="M450.363 341.623C454.278 339.016 456.79 334.808 457.677 329.481C458.305 325.533 457.824 322.367 457.824 322.218C457.751 321.66 457.381 321.213 456.864 320.989C456.347 320.766 455.756 320.878 455.35 321.213L431.598 339.724C432.005 338.086 431.709 336.41 430.749 335.069C429.198 332.983 426.575 332.61 424.506 333.43L424.211 333.244C422.697 332.238 421.108 332.014 419.52 332.61C416.454 333.765 414.053 337.862 413.019 341.4C412.945 341.698 413.093 342.034 413.388 342.145C413.462 342.183 413.536 342.183 413.647 342.183C413.868 342.183 414.09 342.071 414.201 341.847C415.826 338.533 418.523 335.665 420.48 335.18C421.034 335.031 421.515 335.106 421.921 335.367L422.032 335.441C420.997 336.745 420.369 338.421 420.148 340.395C419.926 342.443 420.222 344.678 420.887 346.205C421.145 346.801 421.699 347.136 422.327 347.136C422.475 347.136 422.66 347.099 422.807 347.062C424.248 346.578 426.575 345.646 428.496 344.194C428.237 344.753 428.089 345.348 428.053 345.982C427.942 347.434 428.385 348.85 429.308 349.967C430.232 351.084 431.562 351.792 433.002 351.904C433.15 351.904 433.335 351.941 433.482 351.941H433.63C432.3 353.84 431.82 356.522 433.076 359.465C435.809 365.796 432.374 370.005 429.936 371.495C429.382 371.83 429.087 372.5 429.271 373.134C429.456 373.767 430.01 374.214 430.675 374.251H431.34C440.131 374.251 444.01 369.893 445.561 367.249C448.036 363.003 447.925 357.528 445.265 352.984C443.899 350.637 441.239 348.701 438.247 349.11C438.617 348.44 438.838 347.732 438.912 346.95C438.986 346.093 438.875 345.274 438.543 344.492C439.245 344.566 439.946 344.603 440.685 344.603C443.677 344.492 447.112 343.821 450.363 341.623ZM423.325 343.448C423.177 342.629 423.103 341.661 423.214 340.655C423.362 339.351 423.805 337.601 425.209 336.595C425.541 336.334 426.058 336.185 426.576 336.185C427.166 336.185 427.794 336.409 428.201 336.968C428.939 338.01 428.607 339.389 427.942 340.282C427.056 341.437 425.43 342.592 423.325 343.448ZM433.224 348.7C432.596 348.663 432.042 348.365 431.636 347.881C431.23 347.396 431.045 346.801 431.082 346.167C431.119 345.534 431.414 344.976 431.895 344.566C432.301 344.193 432.855 344.007 433.372 344.007H433.557C434.185 344.044 434.739 344.342 435.145 344.826C435.551 345.311 435.736 345.907 435.699 346.54C435.662 347.173 435.367 347.732 434.887 348.141C434.443 348.551 433.852 348.737 433.224 348.7ZM439.061 351.94C440.021 351.94 441.055 352.35 441.978 353.393C442.089 353.505 442.089 353.654 442.052 353.765C441.498 354.957 440.316 356.41 439.171 357.155C438.987 357.266 438.913 357.527 438.987 357.713C439.061 357.937 439.319 358.049 439.541 358.011C440.464 357.825 441.794 357.304 442.902 356.596C443.013 356.522 443.087 356.484 443.197 356.41C443.382 356.261 443.678 356.373 443.752 356.596C444.232 357.974 444.453 359.389 444.416 360.767C444.416 360.917 444.306 361.066 444.158 361.103C442.976 361.513 441.572 361.736 440.464 361.55C440.206 361.513 439.947 361.587 439.873 361.848C439.762 362.108 439.91 362.332 440.132 362.481C440.944 362.965 442.163 363.486 443.456 363.784C443.678 363.822 443.825 364.082 443.715 364.269C443.53 364.753 443.308 365.2 443.05 365.647C442.643 366.354 442.163 366.987 441.609 367.546C441.498 367.658 441.314 367.695 441.166 367.621C440.575 367.323 440.021 366.95 439.614 366.615C439.467 366.466 439.245 366.466 439.097 366.615C438.95 366.727 438.876 366.987 438.987 367.174C439.171 367.546 439.504 368.03 439.873 368.552C439.984 368.738 439.947 368.962 439.799 369.073C438.617 369.818 437.287 370.377 435.773 370.749C435.44 370.824 435.219 370.489 435.367 370.191C437.62 366.503 437.398 361.848 435.847 358.235C434.628 355.404 435.847 353.207 437.509 352.387C437.878 352.089 438.432 351.94 439.061 351.94ZM435.588 340.618L454.87 325.57C454.833 329.221 453.91 335.478 448.628 339.016C443.973 342.108 438.654 341.437 435.588 340.618Z" fill="#369FAB"/>
<path fill-rule="evenodd" clip-rule="evenodd" d="M163 317C163 316.448 163.448 316 164 316L165.983 316C166.536 316 166.983 316.448 166.983 317C166.983 317.552 166.536 318 165.983 318L164 318C163.448 318 163 317.552 163 317ZM168.95 317C168.95 316.448 169.398 316 169.95 316L173.917 316C174.469 316 174.917 316.448 174.917 317C174.917 317.552 174.469 318 173.917 318L169.95 318C169.398 318 168.95 317.552 168.95 317ZM176.883 317C176.883 316.448 177.331 316 177.883 316L181.85 316C182.402 316 182.85 316.448 182.85 317C182.85 317.552 182.402 318 181.85 318L177.883 318C177.331 318 176.883 317.552 176.883 317ZM184.817 317C184.817 316.448 185.264 316 185.817 316L189.783 316C190.336 316 190.783 316.448 190.783 317C190.783 317.552 190.336 318 189.783 318L185.817 318C185.264 318 184.817 317.552 184.817 317ZM192.75 317C192.75 316.448 193.198 316 193.75 316L197.717 316C198.269 316 198.717 316.448 198.717 317C198.717 317.552 198.269 318 197.717 318L193.75 318C193.198 318 192.75 317.552 192.75 317ZM200.683 317C200.683 316.448 201.131 316 201.683 316L205.65 316C206.202 316 206.65 316.448 206.65 317C206.65 317.552 206.202 318 205.65 318L201.683 318C201.131 318 200.683 317.552 200.683 317ZM208.617 317C208.617 316.448 209.064 316 209.617 316L213.583 316C214.136 316 214.583 316.448 214.583 317C214.583 317.552 214.136 318 213.583 318L209.617 318C209.064 318 208.617 317.552 208.617 317ZM216.55 317C216.55 316.448 216.998 316 217.55 316L221.517 316C222.069 316 222.517 316.448 222.517 317C222.517 317.552 222.069 318 221.517 318L217.55 318C216.998 318 216.55 317.552 216.55 317ZM224.483 317C224.483 316.448 224.931 316 225.483 316L229.45 316C230.002 316 230.45 316.448 230.45 317C230.45 317.552 230.002 318 229.45 318L225.483 318C224.931 318 224.483 317.552 224.483 317ZM232.417 317C232.417 316.448 232.864 316 233.417 316L237.383 316C237.936 316 238.383 316.448 238.383 317C238.383 317.552 237.936 318 237.383 318L233.417 318C232.864 318 232.417 317.552 232.417 317ZM240.35 317C240.35 316.448 240.798 316 241.35 316L245.317 316C245.869 316 246.317 316.448 246.317 317C246.317 317.552 245.869 318 245.317 318L241.35 318C240.798 318 240.35 317.552 240.35 317ZM248.283 317C248.283 316.448 248.731 316 249.283 316L253.25 316C253.802 316 254.25 316.448 254.25 317C254.25 317.552 253.802 318 253.25 318L249.283 318C248.731 318 248.283 317.552 248.283 317ZM256.217 317C256.217 316.448 256.664 316 257.217 316L261.183 316C261.736 316 262.183 316.448 262.183 317C262.183 317.552 261.736 318 261.183 318L257.217 318C256.664 318 256.217 317.552 256.217 317ZM264.15 317C264.15 316.448 264.598 316 265.15 316L269.117 316C269.669 316 270.117 316.448 270.117 317C270.117 317.552 269.669 318 269.117 318L265.15 318C264.598 318 264.15 317.552 264.15 317ZM272.083 317C272.083 316.448 272.531 316 273.083 316L277.05 316C277.602 316 278.05 316.448 278.05 317C278.05 317.552 277.602 318 277.05 318L273.083 318C272.531 318 272.083 317.552 272.083 317ZM280.017 317C280.017 316.448 280.464 316 281.017 316L283 316C283.552 316 284 316.448 284 317C284 317.552 283.552 318 283 318L281.017 318C280.464 318 280.017 317.552 280.017 317Z" fill="#369FAB"/>
<path d="M550.572 171.675L315.025 283.096C314.06 283.552 314.385 285 315.453 285H551C551.552 285 552 284.552 552 284V172.579C552 171.845 551.236 171.362 550.572 171.675Z" fill="#369FAB"/>
<path d="M375.699 276.807H377.608V274.608H379.807V272.699H377.608V270.5H375.699V272.699H373.5V274.608H375.699V276.807Z" fill="#111F3B"/>
<path d="M385.672 269.273H383.491L381.343 270.585V272.597L383.252 271.455H383.303V278H385.672V269.273Z" fill="#111F3B"/>
<path d="M394.542 272H396.809C396.801 270.287 395.48 269.153 393.366 269.153C391.291 269.153 389.825 270.27 389.838 271.932C389.834 273.295 390.78 274.054 392.326 274.386L393.196 274.574C394.167 274.787 394.5 275.03 394.508 275.426C394.5 275.857 394.108 276.159 393.349 276.159C392.442 276.159 391.905 275.733 391.866 274.932H389.616C389.625 277.122 391.108 278.102 393.383 278.102C395.595 278.102 396.92 277.148 396.929 275.426C396.92 274.097 396.128 273.163 394.201 272.75L393.486 272.597C392.659 272.422 392.288 272.179 392.309 271.761C392.314 271.378 392.633 271.097 393.366 271.097C394.133 271.097 394.495 271.433 394.542 272Z" fill="#111F3B"/>
<path d="M397.83 269.273V278H400.148V272.92H400.216L402.16 277.932H403.557L405.5 272.955H405.569V278H407.887V269.273H404.938L402.91 274.216H402.807L400.779 269.273H397.83Z" fill="#111F3B"/>
<path d="M409.01 278H411.379V275.119H412.197L413.731 278H416.305L414.532 274.744C415.461 274.297 416.015 273.449 416.015 272.239C416.015 270.381 414.716 269.273 412.777 269.273H409.01V278ZM411.379 273.278V271.165H412.214C413.045 271.165 413.544 271.489 413.544 272.239C413.544 272.984 413.045 273.278 412.214 273.278H411.379Z" fill="#111F3B"/>
<path d="M423.728 268.864H421.734L418.922 279.312H420.916L423.728 268.864Z" fill="#111F3B"/>
<path d="M426.752 269.273V278H429.07V272.92H429.138L431.081 277.932H432.479L434.422 272.955H434.491V278H436.809V269.273H433.86L431.831 274.216H431.729L429.701 269.273H426.752Z" fill="#111F3B"/>
<path d="M437.966 278H440.318V271.455H437.966V278ZM439.142 270.773C439.781 270.773 440.301 270.291 440.301 269.699C440.301 269.107 439.781 268.625 439.142 268.625C438.503 268.625 437.983 269.107 437.983 269.699C437.983 270.291 438.503 270.773 439.142 270.773Z" fill="#111F3B"/>
<path d="M448.185 268.864H446.191L443.379 279.312H445.373L448.185 268.864Z" fill="#111F3B"/>
<path d="M455.504 269.273H453.323L451.175 270.585V272.597L453.084 271.455H453.135V278H455.504V269.273Z" fill="#111F3B"/>
<path d="M461.097 278.239C463.471 278.243 464.945 276.543 464.95 273.653C464.954 270.781 463.471 269.153 461.097 269.153C458.72 269.153 457.254 270.773 457.245 273.653C457.237 276.53 458.72 278.234 461.097 278.239ZM461.097 276.312C460.279 276.312 459.691 275.49 459.7 273.653C459.708 271.859 460.279 271.062 461.097 271.062C461.916 271.062 462.491 271.859 462.495 273.653C462.499 275.49 461.916 276.312 461.097 276.312Z" fill="#111F3B"/>
<path d="M474.453 273.585C474.393 272.2 473.242 271.369 471.35 271.369C469.48 271.369 468.325 272.136 468.333 273.5C468.325 274.531 468.994 275.192 470.328 275.426L471.487 275.631C471.998 275.724 472.228 275.861 472.237 276.108C472.228 276.381 471.917 276.534 471.487 276.534C470.954 276.534 470.579 276.304 470.515 275.886H468.18C468.308 277.229 469.467 278.119 471.47 278.119C473.281 278.119 474.614 277.237 474.623 275.835C474.614 274.868 473.967 274.305 472.629 274.062L471.299 273.824C470.801 273.734 470.66 273.555 470.668 273.364C470.66 273.091 470.997 272.938 471.401 272.938C471.866 272.938 472.254 273.185 472.288 273.585H474.453Z" fill="#111F3B"/>
<path d="M478.661 278.119C480.476 278.119 481.644 277.25 481.865 275.886H479.717C479.581 276.257 479.193 276.466 478.712 276.466C478.013 276.466 477.604 276.006 477.604 275.375V275.273H481.865V274.727C481.865 272.643 480.587 271.369 478.609 271.369C476.581 271.369 475.286 272.716 475.286 274.744C475.286 276.862 476.564 278.119 478.661 278.119ZM477.604 273.977C477.617 273.411 478.085 273.023 478.661 273.023C479.244 273.023 479.688 273.415 479.7 273.977H477.604Z" fill="#111F3B"/>
<path d="M485.978 278.119C487.917 278.119 489.106 277.007 489.132 275.273H486.95C486.899 275.959 486.528 276.33 486.013 276.33C485.395 276.33 484.99 275.801 484.99 274.727C484.99 273.653 485.395 273.125 486.013 273.125C486.532 273.125 486.886 273.496 486.95 274.182H489.132C489.119 272.477 487.905 271.369 485.978 271.369C483.848 271.369 482.586 272.733 482.586 274.744C482.586 276.756 483.848 278.119 485.978 278.119Z" fill="#111F3B"/>
<path d="M390.752 293.274V302.001H393.07V296.921H393.138L395.081 301.933H396.479L398.422 296.955H398.491V302.001H400.809V293.274H397.86L395.831 298.217H395.729L393.701 293.274H390.752Z" fill="#369FAB"/>
<path d="M404.199 302.001L404.702 300.33H407.582L408.085 302.001H410.642L407.761 293.274H404.523L401.642 302.001H404.199ZM405.238 298.558L406.108 295.677H406.176L407.045 298.558H405.238Z" fill="#369FAB"/>
<path d="M414.022 293.274H411.363L413.954 297.637L411.278 302.001H413.971L415.454 299.41H415.522L417.005 302.001H419.715L417.005 297.637L419.613 293.274H416.971L415.522 295.813H415.454L414.022 293.274Z" fill="#369FAB"/>
<path d="M426.452 293.154C424.381 293.154 422.949 294.399 422.957 296.257C422.966 297.842 424.023 299.001 425.599 299.001C426.596 299.001 427.5 298.524 427.832 297.722H427.883C427.875 299.171 427.432 300.109 426.434 300.109C425.932 300.109 425.506 299.887 425.395 299.359H423.059C423.204 300.893 424.5 302.12 426.434 302.12C428.727 302.12 430.244 300.365 430.236 297.501C430.227 294.365 428.488 293.154 426.452 293.154ZM426.469 294.944C427.159 294.944 427.67 295.472 427.679 296.171C427.687 296.87 427.159 297.399 426.469 297.399C425.761 297.399 425.267 296.87 425.258 296.171C425.25 295.472 425.761 294.944 426.469 294.944Z" fill="#369FAB"/>
<path d="M435.058 302.24C437.432 302.244 438.906 300.544 438.911 297.654C438.915 294.782 437.432 293.154 435.058 293.154C432.681 293.154 431.215 294.774 431.206 297.654C431.198 300.531 432.681 302.235 435.058 302.24ZM435.058 300.313C434.24 300.313 433.652 299.491 433.661 297.654C433.669 295.86 434.24 295.063 435.058 295.063C435.877 295.063 436.452 295.86 436.456 297.654C436.46 299.491 435.877 300.313 435.058 300.313Z" fill="#369FAB"/>
<path d="M445.754 302.001C448.414 302.001 450.101 300.365 450.101 297.637C450.101 294.91 448.414 293.274 445.72 293.274H442.396V302.001H445.754ZM444.766 299.99V295.285H445.601C446.965 295.285 447.715 295.813 447.715 297.637C447.715 299.461 446.965 299.99 445.669 299.99H444.766Z" fill="#369FAB"/>
<path d="M453.055 302.103C453.907 302.103 454.551 301.813 454.947 301.08H454.998V302.001H457.197V297.518C457.197 296.308 456.051 295.37 454.18 295.37C452.224 295.37 451.261 296.393 451.18 297.586H453.345C453.4 297.181 453.699 296.99 454.146 296.99C454.555 296.99 454.845 297.177 454.845 297.518V297.535C454.845 297.914 454.427 298.034 453.328 298.115C451.977 298.213 450.925 298.758 450.925 300.194C450.925 301.498 451.802 302.103 453.055 302.103ZM453.822 300.62C453.422 300.62 453.14 300.424 453.14 300.058C453.14 299.721 453.379 299.461 453.925 299.376C454.3 299.316 454.615 299.24 454.862 299.137V299.683C454.862 300.279 454.355 300.62 453.822 300.62Z" fill="#369FAB"/>
<path d="M459.519 304.455C461.164 304.455 461.935 303.629 462.297 302.546L464.683 295.455H462.212L461.138 299.99H461.07L460.013 295.455H457.558L459.86 302.291L459.808 302.41C459.651 302.772 459.195 302.759 458.615 302.555L458.104 304.225C458.47 304.37 458.977 304.455 459.519 304.455Z" fill="#369FAB"/>
<path d="M471.335 297.586C471.276 296.201 470.125 295.37 468.233 295.37C466.362 295.37 465.208 296.137 465.216 297.501C465.208 298.532 465.877 299.193 467.21 299.427L468.369 299.632C468.881 299.725 469.111 299.862 469.119 300.109C469.111 300.382 468.8 300.535 468.369 300.535C467.837 300.535 467.462 300.305 467.398 299.887H465.063C465.191 301.23 466.35 302.12 468.352 302.12C470.164 302.12 471.497 301.238 471.506 299.836C471.497 298.869 470.85 298.306 469.512 298.063L468.182 297.825C467.683 297.735 467.543 297.556 467.551 297.365C467.543 297.092 467.879 296.938 468.284 296.938C468.749 296.938 469.137 297.186 469.171 297.586H471.335Z" fill="#369FAB"/>
<path d="M604.111 304.001H606.016L609.638 296.803V295.274H603.515V296.782H607.729V296.842L604.111 304.001Z" fill="white"/>
<path d="M611.482 304.001H613.387L617.009 296.803V295.274H610.886V296.782H615.1V296.842L611.482 304.001Z" fill="white"/>
<path d="M618.853 304.001H620.758L624.38 296.803V295.274H618.257V296.782H622.471V296.842L618.853 304.001Z" fill="white"/>
<path d="M626.135 302.808H624.635L624.614 303.285C624.563 304.444 624.23 305.633 624.107 306.132H625.283C625.487 305.616 625.973 304.406 626.088 303.276L626.135 302.808Z" fill="white"/>
<path d="M630.764 304.12C632.707 304.129 634.032 302.855 634.028 301.078C634.032 299.441 632.89 298.261 631.343 298.261C630.385 298.261 629.537 298.721 629.145 299.492H629.085C629.093 297.792 629.69 296.735 630.828 296.735C631.497 296.735 631.978 297.102 632.119 297.711H633.939C633.764 296.275 632.571 295.154 630.828 295.154C628.672 295.154 627.287 296.901 627.278 299.833C627.274 303.029 628.97 304.112 630.764 304.12ZM630.755 302.671C629.903 302.671 629.272 301.985 629.272 301.133C629.277 300.285 629.92 299.595 630.768 299.595C631.62 299.595 632.243 300.264 632.238 301.129C632.243 302.002 631.608 302.671 630.755 302.671Z" fill="white"/>
<path d="M638.758 304.193C640.953 304.193 642.278 302.522 642.282 299.646C642.287 296.791 640.944 295.154 638.758 295.154C636.568 295.154 635.238 296.786 635.234 299.646C635.226 302.514 636.559 304.188 638.758 304.193ZM638.758 302.663C637.757 302.663 637.109 301.657 637.113 299.646C637.118 297.664 637.761 296.667 638.758 296.667C639.751 296.667 640.399 297.664 640.399 299.646C640.403 301.657 639.755 302.663 638.758 302.663Z" fill="white"/>
<path d="M647.02 304.193C649.215 304.193 650.54 302.522 650.544 299.646C650.548 296.791 649.206 295.154 647.02 295.154C644.83 295.154 643.5 296.786 643.496 299.646C643.487 302.514 644.821 304.188 647.02 304.193ZM647.02 302.663C646.019 302.663 645.371 301.657 645.375 299.646C645.379 297.664 646.023 296.667 647.02 296.667C648.013 296.667 648.661 297.664 648.661 299.646C648.665 301.657 648.017 302.663 647.02 302.663Z" fill="white"/>
<path d="M659.423 297.784H661.191C661.166 296.228 659.887 295.154 657.944 295.154C656.031 295.154 654.629 296.211 654.637 297.796C654.633 299.083 655.541 299.82 657.015 300.174L657.965 300.413C658.916 300.643 659.444 300.916 659.448 301.504C659.444 302.143 658.839 302.578 657.901 302.578C656.943 302.578 656.252 302.134 656.193 301.261H654.407C654.454 303.149 655.805 304.124 657.923 304.124C660.053 304.124 661.306 303.106 661.31 301.508C661.306 300.055 660.211 299.284 658.694 298.943L657.91 298.755C657.151 298.58 656.516 298.299 656.529 297.673C656.529 297.11 657.028 296.697 657.931 296.697C658.813 296.697 659.354 297.097 659.423 297.784Z" fill="white"/>
<path d="M662.552 295.274V304.001H664.341V298.299H664.414L666.672 303.958H667.891L670.15 298.32H670.222V304.001H672.012V295.274H669.736L667.333 301.137H667.231L664.827 295.274H662.552Z" fill="white"/>
<path d="M673.532 304.001H675.377V300.907H676.724L678.377 304.001H680.414L678.56 300.609C679.553 300.183 680.103 299.318 680.103 298.124C680.103 296.39 678.957 295.274 676.975 295.274H673.532V304.001ZM675.377 299.424V296.782H676.622C677.687 296.782 678.203 297.255 678.203 298.124C678.203 298.99 677.687 299.424 676.63 299.424H675.377Z" fill="white"/>
<path d="M683.852 296.795H686.524V304.001H688.348V296.795H691.02V295.274H683.852V296.795Z" fill="white"/>
<path d="M694.174 304.129C696.16 304.129 697.396 302.769 697.396 300.754C697.396 298.725 696.16 297.37 694.174 297.37C692.188 297.37 690.953 298.725 690.953 300.754C690.953 302.769 692.188 304.129 694.174 304.129ZM694.183 302.722C693.266 302.722 692.798 301.883 692.798 300.741C692.798 299.599 693.266 298.755 694.183 298.755C695.082 298.755 695.551 299.599 695.551 300.741C695.551 301.883 695.082 302.722 694.183 302.722Z" fill="white"/>
<path d="M698.576 304.001H700.391V301.921L700.881 301.363L702.667 304.001H704.793L702.241 300.289L704.67 297.455H702.586L700.489 299.94H700.391V295.274H698.576V304.001Z" fill="white"/>
<path d="M708.274 304.129C709.893 304.129 710.984 303.34 711.24 302.126L709.561 302.015C709.378 302.514 708.909 302.774 708.304 302.774C707.396 302.774 706.821 302.173 706.821 301.197V301.193H711.278V300.694C711.278 298.47 709.932 297.37 708.201 297.37C706.275 297.37 705.027 298.738 705.027 300.758C705.027 302.833 706.258 304.129 708.274 304.129ZM706.821 300.068C706.859 299.322 707.426 298.725 708.231 298.725C709.02 298.725 709.565 299.288 709.569 300.068H706.821Z" fill="white"/>
<path d="M714.278 300.217C714.282 299.373 714.785 298.879 715.518 298.879C716.247 298.879 716.686 299.356 716.682 300.157V304.001H718.497V299.833C718.497 298.308 717.602 297.37 716.238 297.37C715.267 297.37 714.564 297.847 714.27 298.61H714.193V297.455H712.463V304.001H714.278V300.217Z" fill="white"/>
<path d="M725.374 299.322C725.212 298.116 724.24 297.37 722.587 297.37C720.912 297.37 719.808 298.146 719.813 299.407C719.808 300.387 720.426 301.022 721.705 301.278L722.838 301.504C723.409 301.619 723.669 301.828 723.678 302.156C723.669 302.544 723.247 302.82 722.612 302.82C721.965 302.82 721.534 302.544 721.423 302.011L719.638 302.105C719.808 303.357 720.874 304.129 722.608 304.129C724.304 304.129 725.519 303.264 725.523 301.972C725.519 301.026 724.901 300.46 723.631 300.2L722.446 299.961C721.837 299.829 721.611 299.62 721.615 299.305C721.611 298.913 722.054 298.657 722.617 298.657C723.247 298.657 723.622 299.002 723.712 299.424L725.374 299.322Z" fill="white"/>
<path d="M200.207 299.32C200.046 298.114 199.074 297.369 197.421 297.369C195.746 297.369 194.642 298.144 194.646 299.406C194.642 300.386 195.26 301.021 196.538 301.276L197.672 301.502C198.243 301.617 198.503 301.826 198.511 302.154C198.503 302.542 198.081 302.819 197.446 302.819C196.798 302.819 196.368 302.542 196.257 302.009L194.472 302.103C194.642 303.356 195.707 304.127 197.442 304.127C199.138 304.127 200.352 303.262 200.357 301.971C200.352 301.025 199.734 300.458 198.465 300.198L197.28 299.96C196.671 299.827 196.445 299.619 196.449 299.303C196.445 298.911 196.888 298.656 197.45 298.656C198.081 298.656 198.456 299.001 198.546 299.423L200.207 299.32Z" fill="white"/>
<path d="M204.981 297.454H203.75V295.886H201.934V297.454H201.04V298.817H201.934V302.227C201.926 303.509 202.799 304.144 204.116 304.089C204.585 304.072 204.917 303.978 205.101 303.918L204.815 302.567C204.726 302.585 204.534 302.627 204.363 302.627C204.001 302.627 203.75 302.491 203.75 301.988V298.817H204.981V297.454Z" fill="white"/>
<path d="M208.03 304.123C208.998 304.123 209.624 303.701 209.944 303.092H209.995V303.999H211.716V299.585C211.716 298.025 210.395 297.369 208.938 297.369C207.37 297.369 206.339 298.119 206.087 299.312L207.766 299.448C207.89 299.013 208.277 298.694 208.929 298.694C209.547 298.694 209.901 299.005 209.901 299.542V299.567C209.901 299.989 209.454 300.045 208.316 300.156C207.02 300.275 205.857 300.71 205.857 302.171C205.857 303.467 206.782 304.123 208.03 304.123ZM208.55 302.87C207.992 302.87 207.591 302.61 207.591 302.112C207.591 301.6 208.013 301.349 208.652 301.259C209.049 301.204 209.696 301.11 209.914 300.965V301.66C209.914 302.346 209.347 302.87 208.55 302.87Z" fill="white"/>
<path d="M213.125 303.999H214.94V301.92L215.43 301.362L217.216 303.999H219.342L216.79 300.288L219.218 297.454H217.135L215.038 299.938H214.94V295.272H213.125V303.999Z" fill="white"/>
<path d="M222.823 304.127C224.442 304.127 225.533 303.339 225.788 302.124L224.109 302.013C223.926 302.512 223.457 302.772 222.852 302.772C221.945 302.772 221.369 302.171 221.369 301.195V301.191H225.827V300.692C225.827 298.468 224.48 297.369 222.75 297.369C220.824 297.369 219.575 298.737 219.575 300.756C219.575 302.832 220.807 304.127 222.823 304.127ZM221.369 300.066C221.408 299.32 221.975 298.724 222.78 298.724C223.568 298.724 224.114 299.286 224.118 300.066H221.369Z" fill="white"/>
<path d="M233.569 295.272H231.834L229.674 296.64V298.276L231.672 297.023H231.723V303.999H233.569V295.272Z" fill="white"/>
<path d="M238.471 295.272V303.999H240.261V298.298H240.334L242.592 303.957H243.811L246.069 298.319H246.142V303.999H247.932V295.272H245.656L243.253 301.136H243.15L240.747 295.272H238.471Z" fill="white"/>
<path d="M249.418 303.999H251.233V297.454H249.418V303.999ZM250.33 296.61C250.871 296.61 251.314 296.197 251.314 295.69C251.314 295.187 250.871 294.773 250.33 294.773C249.793 294.773 249.35 295.187 249.35 295.69C249.35 296.197 249.793 296.61 250.33 296.61Z" fill="white"/>
<path fill-rule="evenodd" clip-rule="evenodd" d="M741.227 232L747 222L752.774 232L748 232C748 232.552 747.552 233 747 233C746.448 233 746 232.552 746 232L741.227 232ZM747 235C747.552 235 748 235.448 748 236V240C748 240.552 747.552 241 747 241C746.448 241 746 240.552 746 240V236C746 235.448 746.448 235 747 235ZM747 243C747.552 243 748 243.448 748 244V248C748 248.552 747.552 249 747 249C746.448 249 746 248.552 746 248V244C746 243.448 746.448 243 747 243ZM747 251C747.552 251 748 251.448 748 252V256C748 256.552 747.552 257 747 257C746.448 257 746 256.552 746 256V252C746 251.448 746.448 251 747 251ZM747 259C747.552 259 748 259.448 748 260V264C748 264.552 747.552 265 747 265C746.448 265 746 264.552 746 264V260C746 259.448 746.448 259 747 259ZM747 267C747.552 267 748 267.448 748 268V272C748 272.552 747.552 273 747 273C746.448 273 746 272.552 746 272V268C746 267.448 746.448 267 747 267ZM747 275C747.552 275 748 275.448 748 276V280C748 280.552 747.552 281 747 281C746.448 281 746 280.552 746 280V276C746 275.448 746.448 275 747 275ZM747 283C747.552 283 748 283.448 748 284V288C748 288.552 747.552 289 747 289C746.448 289 746 288.552 746 288V284C746 283.448 746.448 283 747 283ZM747 291C747.552 291 748 291.448 748 292V296C748 296.552 747.552 297 747 297C746.448 297 746 296.552 746 296V292C746 291.448 746.448 291 747 291ZM747 299C747.552 299 748 299.448 748 300V304C748 304.552 747.552 305 747 305C746.448 305 746 304.552 746 304V300C746 299.448 746.448 299 747 299ZM747 307C747.552 307 748 307.448 748 308V312C748 312.552 747.552 313 747 313C746.448 313 746 312.552 746 312V308C746 307.448 746.448 307 747 307ZM747 315C747.552 315 748 315.448 748 316V319H745.036C744.483 319 744.036 318.552 744.036 318C744.036 317.448 744.483 317 745.036 317H746V316C746 315.448 746.448 315 747 315ZM583.964 319H582V317H583.964C584.517 317 584.964 317.448 584.964 318C584.964 318.552 584.517 319 583.964 319ZM586.893 318C586.893 317.448 587.341 317 587.893 317H591.821C592.374 317 592.821 317.448 592.821 318C592.821 318.552 592.374 319 591.821 319H587.893C587.341 319 586.893 318.552 586.893 318ZM594.75 318C594.75 317.448 595.198 317 595.75 317H599.679C600.231 317 600.679 317.448 600.679 318C600.679 318.552 600.231 319 599.679 319H595.75C595.198 319 594.75 318.552 594.75 318ZM602.607 318C602.607 317.448 603.055 317 603.607 317H607.536C608.088 317 608.536 317.448 608.536 318C608.536 318.552 608.088 319 607.536 319H603.607C603.055 319 602.607 318.552 602.607 318ZM610.464 318C610.464 317.448 610.912 317 611.464 317H615.393C615.945 317 616.393 317.448 616.393 318C616.393 318.552 615.945 319 615.393 319H611.464C610.912 319 610.464 318.552 610.464 318ZM618.321 318C618.321 317.448 618.769 317 619.321 317H623.25C623.802 317 624.25 317.448 624.25 318C624.25 318.552 623.802 319 623.25 319H619.321C618.769 319 618.321 318.552 618.321 318ZM626.179 318C626.179 317.448 626.626 317 627.179 317H631.107C631.659 317 632.107 317.448 632.107 318C632.107 318.552 631.659 319 631.107 319H627.179C626.626 319 626.179 318.552 626.179 318ZM634.036 318C634.036 317.448 634.483 317 635.036 317H638.964C639.517 317 639.964 317.448 639.964 318C639.964 318.552 639.517 319 638.964 319H635.036C634.483 319 634.036 318.552 634.036 318ZM641.893 318C641.893 317.448 642.341 317 642.893 317H646.821C647.374 317 647.821 317.448 647.821 318C647.821 318.552 647.374 319 646.821 319H642.893C642.341 319 641.893 318.552 641.893 318ZM649.75 318C649.75 317.448 650.198 317 650.75 317H654.679C655.231 317 655.679 317.448 655.679 318C655.679 318.552 655.231 319 654.679 319H650.75C650.198 319 649.75 318.552 649.75 318ZM657.607 318C657.607 317.448 658.055 317 658.607 317H662.536C663.088 317 663.536 317.448 663.536 318C663.536 318.552 663.088 319 662.536 319H658.607C658.055 319 657.607 318.552 657.607 318ZM665.464 318C665.464 317.448 665.912 317 666.464 317H670.393C670.945 317 671.393 317.448 671.393 318C671.393 318.552 670.945 319 670.393 319H666.464C665.912 319 665.464 318.552 665.464 318ZM673.321 318C673.321 317.448 673.769 317 674.321 317H678.25C678.802 317 679.25 317.448 679.25 318C679.25 318.552 678.802 319 678.25 319H674.321C673.769 319 673.321 318.552 673.321 318ZM681.179 318C681.179 317.448 681.626 317 682.179 317H686.107C686.659 317 687.107 317.448 687.107 318C687.107 318.552 686.659 319 686.107 319H682.179C681.626 319 681.179 318.552 681.179 318ZM689.036 318C689.036 317.448 689.483 317 690.036 317H693.964C694.517 317 694.964 317.448 694.964 318C694.964 318.552 694.517 319 693.964 319H690.036C689.483 319 689.036 318.552 689.036 318ZM696.893 318C696.893 317.448 697.341 317 697.893 317H701.821C702.374 317 702.821 317.448 702.821 318C702.821 318.552 702.374 319 701.821 319H697.893C697.341 319 696.893 318.552 696.893 318ZM704.75 318C704.75 317.448 705.198 317 705.75 317H709.679C710.231 317 710.679 317.448 710.679 318C710.679 318.552 710.231 319 709.679 319H705.75C705.198 319 704.75 318.552 704.75 318ZM712.607 318C712.607 317.448 713.055 317 713.607 317H717.536C718.088 317 718.536 317.448 718.536 318C718.536 318.552 718.088 319 717.536 319H713.607C713.055 319 712.607 318.552 712.607 318ZM720.464 318C720.464 317.448 720.912 317 721.464 317H725.393C725.945 317 726.393 317.448 726.393 318C726.393 318.552 725.945 319 725.393 319H721.464C720.912 319 720.464 318.552 720.464 318ZM728.321 318C728.321 317.448 728.769 317 729.321 317H733.25C733.802 317 734.25 317.448 734.25 318C734.25 318.552 733.802 319 733.25 319H729.321C728.769 319 728.321 318.552 728.321 318ZM736.179 318C736.179 317.448 736.626 317 737.179 317H741.107C741.659 317 742.107 317.448 742.107 318C742.107 318.552 741.659 319 741.107 319H737.179C736.626 319 736.179 318.552 736.179 318Z" fill="#369FAB"/>
</svg>
