<svg viewBox="0 0 175 80" fill="#131F37" xmlns="http://www.w3.org/2000/svg">
  <path d="M79 24h1v32h-1V24ZM61.135 55.094c1.105 1.622 1.317 3.012.636 4.17C61.091 60.42 59.706 61 57.616 61H23.544c-2.09 0-3.475-.579-4.155-1.736-.68-1.158-.468-2.548.636-4.17L34.902 33.41V22.5h-1.893c-.513 0-.957-.173-1.331-.52-.375-.346-.562-.756-.562-1.23s.187-.884.562-1.23a1.89 1.89 0 0 1 1.33-.52h15.143c.513 0 .957.173 1.331.52.375.346.562.756.562 1.23s-.187.884-.561 1.23c-.375.347-.819.52-1.331.52h-1.893v10.91l14.876 21.684Zm-23.04-19.825L30.052 47H51.11l-8.044-11.73-.592-.848V22.5h-3.786v11.922l-.591.848ZM100.888 48h3.501l3.831-10.993L112.027 48h3.478l4.888-16h-3.76l-2.985 10.736L110.076 32h-3.76l-3.572 10.736L99.76 32H96l4.888 16Zm24.234 0h3.478V32h-3.478v16Zm9.428 0h3.455v-4.472l2.021-2.142L144.984 48h4.206l-6.744-9.06 6.298-6.94h-4.207l-6.532 7.336V32h-3.455v16Zm18.972 0H157V32h-3.478v16Z"/>
</svg>
