<svg viewBox="0 0 175 80" fill="none" xmlns="http://www.w3.org/2000/svg">
  <path fill="#00E0CA" d="M0 0h80v80H0z"/>
  <path d="M58.277 21.607c-8.141-8.644-21.521-8.83-29.885-.416-8.363 8.415-8.543 22.244-.402 30.889l5.352-5.385c-5.25-5.609-5.123-14.555.29-20.003 5.415-5.447 14.071-5.337 19.354.239l5.291-5.324ZM22.723 57.393c8.141 8.644 21.521 8.83 29.885.416 8.363-8.415 8.543-22.244.402-30.888l-5.352 5.384c5.25 5.609 5.124 14.555-.29 20.003-5.415 5.447-14.07 5.337-19.354-.239l-5.291 5.324Z" fill="#00121F"/>
  <path d="M100.888 48h3.501l3.831-10.993L112.027 48h3.478l4.888-16h-3.76l-2.985 10.736L110.076 32h-3.76l-3.572 10.736L99.76 32H96l4.888 16Zm24.234 0h3.478V32h-3.478v16Zm9.428 0h3.455v-4.472l2.021-2.142L144.984 48h4.206l-6.744-9.06 6.298-6.94h-4.207l-6.532 7.336V32h-3.455v16Zm18.972 0H157V32h-3.478v16Z" fill="#fff"/>
</svg>
